<?xml version="1.0" encoding="UTF-8" standalone="no"?>
<!DOCTYPE svg PUBLIC "-//W3C//DTD SVG 1.1//EN"
 "http://www.w3.org/Graphics/SVG/1.1/DTD/svg11.dtd">
<!-- Generated by graphviz version 2.40.1 (20161225.0304)
 -->
<!-- Title: /home/travis/build/AliceO2Group/AliceO2/DataFormats/Detectors/TRD/include/DataFormatsTRD/TriggerRecord.h Pages: 1 -->
<svg width="1118pt" height="261pt"
 viewBox="0.00 0.00 1118.00 261.00" xmlns="http://www.w3.org/2000/svg" xmlns:xlink="http://www.w3.org/1999/xlink">
<g id="graph0" class="graph" transform="scale(1 1) rotate(0) translate(4 257)">
<title>/home/travis/build/AliceO2Group/AliceO2/DataFormats/Detectors/TRD/include/DataFormatsTRD/TriggerRecord.h</title>
<!-- Node9 -->
<g id="node1" class="node">
<title>Node9</title>
<polygon fill="#bfbfbf" stroke="#000000" points="413,-189.5 413,-252.5 577,-252.5 577,-189.5 413,-189.5"/>
<text text-anchor="start" x="421" y="-240.5" font-family="Helvetica,sans-Serif" font-size="10.00" fill="#000000">/home/travis/build</text>
<text text-anchor="start" x="421" y="-229.5" font-family="Helvetica,sans-Serif" font-size="10.00" fill="#000000">/AliceO2Group/AliceO2</text>
<text text-anchor="start" x="421" y="-218.5" font-family="Helvetica,sans-Serif" font-size="10.00" fill="#000000">/DataFormats/Detectors</text>
<text text-anchor="start" x="421" y="-207.5" font-family="Helvetica,sans-Serif" font-size="10.00" fill="#000000">/TRD/include/DataFormatsTRD</text>
<text text-anchor="middle" x="495" y="-196.5" font-family="Helvetica,sans-Serif" font-size="10.00" fill="#000000">/TriggerRecord.h</text>
</g>
<!-- Node10 -->
<g id="node2" class="node">
<title>Node10</title>
<g id="a_node2"><a xlink:href="../../d4/d81/TRD_2src_2TriggerRecord_8cxx.html" target="_top" xlink:title="/home/travis/build\l/AliceO2Group/AliceO2\l/DataFormats/Detectors\l/TRD/src/TriggerRecord.cxx">
<polygon fill="none" stroke="#000000" points="0,-95 0,-147 146,-147 146,-95 0,-95"/>
<text text-anchor="start" x="8" y="-135" font-family="Helvetica,sans-Serif" font-size="10.00" fill="#000000">/home/travis/build</text>
<text text-anchor="start" x="8" y="-124" font-family="Helvetica,sans-Serif" font-size="10.00" fill="#000000">/AliceO2Group/AliceO2</text>
<text text-anchor="start" x="8" y="-113" font-family="Helvetica,sans-Serif" font-size="10.00" fill="#000000">/DataFormats/Detectors</text>
<text text-anchor="middle" x="73" y="-102" font-family="Helvetica,sans-Serif" font-size="10.00" fill="#000000">/TRD/src/TriggerRecord.cxx</text>
</a>
</g>
</g>
<!-- Node9&#45;&gt;Node10 -->
<g id="edge1" class="edge">
<title>Node9&#45;&gt;Node10</title>
<path fill="none" stroke="#191970" d="M402.7073,-206.1662C334.9128,-194.3296 240.9161,-175.9493 160,-153 153.8069,-151.2435 147.4251,-149.2547 141.0648,-147.149"/>
<polygon fill="#191970" stroke="#191970" points="402.4849,-209.6797 412.9355,-207.9371 403.6792,-202.7824 402.4849,-209.6797"/>
</g>
<!-- Node11 -->
<g id="node3" class="node">
<title>Node11</title>
<g id="a_node3"><a xlink:href="../../df/d1b/TRDDigitReaderSpec_8h.html" target="_top" xlink:title="/home/travis/build\l/AliceO2Group/AliceO2\l/Detectors/TRD/workflow\l/include/TRDWorkflow/TRDDigitReader\lSpec.h">
<polygon fill="none" stroke="#000000" points="202.5,-89.5 202.5,-152.5 405.5,-152.5 405.5,-89.5 202.5,-89.5"/>
<text text-anchor="start" x="210.5" y="-140.5" font-family="Helvetica,sans-Serif" font-size="10.00" fill="#000000">/home/travis/build</text>
<text text-anchor="start" x="210.5" y="-129.5" font-family="Helvetica,sans-Serif" font-size="10.00" fill="#000000">/AliceO2Group/AliceO2</text>
<text text-anchor="start" x="210.5" y="-118.5" font-family="Helvetica,sans-Serif" font-size="10.00" fill="#000000">/Detectors/TRD/workflow</text>
<text text-anchor="start" x="210.5" y="-107.5" font-family="Helvetica,sans-Serif" font-size="10.00" fill="#000000">/include/TRDWorkflow/TRDDigitReader</text>
<text text-anchor="middle" x="304" y="-96.5" font-family="Helvetica,sans-Serif" font-size="10.00" fill="#000000">Spec.h</text>
</a>
</g>
</g>
<!-- Node9&#45;&gt;Node11 -->
<g id="edge2" class="edge">
<title>Node9&#45;&gt;Node11</title>
<path fill="none" stroke="#191970" d="M425.7063,-184.7206C405.5626,-174.1741 383.7329,-162.745 364.197,-152.5168"/>
<polygon fill="#191970" stroke="#191970" points="424.3459,-187.959 434.8286,-189.4966 427.5928,-181.7575 424.3459,-187.959"/>
</g>
<!-- Node12 -->
<g id="node4" class="node">
<title>Node12</title>
<g id="a_node4"><a xlink:href="../../d7/da6/TRDDigitReaderSpec_8cxx.html" target="_top" xlink:title="/home/travis/build\l/AliceO2Group/AliceO2\l/Detectors/TRD/workflow\l/src/TRDDigitReaderSpec.cxx">
<polygon fill="none" stroke="#000000" points="95,-.5 95,-52.5 253,-52.5 253,-.5 95,-.5"/>
<text text-anchor="start" x="103" y="-40.5" font-family="Helvetica,sans-Serif" font-size="10.00" fill="#000000">/home/travis/build</text>
<text text-anchor="start" x="103" y="-29.5" font-family="Helvetica,sans-Serif" font-size="10.00" fill="#000000">/AliceO2Group/AliceO2</text>
<text text-anchor="start" x="103" y="-18.5" font-family="Helvetica,sans-Serif" font-size="10.00" fill="#000000">/Detectors/TRD/workflow</text>
<text text-anchor="middle" x="174" y="-7.5" font-family="Helvetica,sans-Serif" font-size="10.00" fill="#000000">/src/TRDDigitReaderSpec.cxx</text>
</a>
</g>
</g>
<!-- Node9&#45;&gt;Node12 -->
<g id="edge6" class="edge">
<title>Node9&#45;&gt;Node12</title>
<path fill="none" stroke="#191970" d="M402.5544,-211.4786C324.8665,-201.5041 222.1279,-183.0298 194,-153 168.844,-126.1432 167.8551,-81.1417 170.2997,-52.6807"/>
<polygon fill="#191970" stroke="#191970" points="402.5001,-214.9992 412.858,-212.771 403.3714,-208.0536 402.5001,-214.9992"/>
</g>
<!-- Node14 -->
<g id="node6" class="node">
<title>Node14</title>
<g id="a_node6"><a xlink:href="../../d6/df2/TRDDigitizerSpec_8cxx.html" target="_top" xlink:title="/home/travis/build\l/AliceO2Group/AliceO2\l/Detectors/TRD/workflow\l/src/TRDDigitizerSpec.cxx">
<polygon fill="none" stroke="#000000" points="424,-95 424,-147 566,-147 566,-95 424,-95"/>
<text text-anchor="start" x="432" y="-135" font-family="Helvetica,sans-Serif" font-size="10.00" fill="#000000">/home/travis/build</text>
<text text-anchor="start" x="432" y="-124" font-family="Helvetica,sans-Serif" font-size="10.00" fill="#000000">/AliceO2Group/AliceO2</text>
<text text-anchor="start" x="432" y="-113" font-family="Helvetica,sans-Serif" font-size="10.00" fill="#000000">/Detectors/TRD/workflow</text>
<text text-anchor="middle" x="495" y="-102" font-family="Helvetica,sans-Serif" font-size="10.00" fill="#000000">/src/TRDDigitizerSpec.cxx</text>
</a>
</g>
</g>
<!-- Node9&#45;&gt;Node14 -->
<g id="edge5" class="edge">
<title>Node9&#45;&gt;Node14</title>
<path fill="none" stroke="#191970" d="M495,-179.1631C495,-168.2863 495,-156.8798 495,-147.078"/>
<polygon fill="#191970" stroke="#191970" points="491.5001,-179.3593 495,-189.3594 498.5001,-179.3594 491.5001,-179.3593"/>
</g>
<!-- Node15 -->
<g id="node7" class="node">
<title>Node15</title>
<g id="a_node7"><a xlink:href="../../dd/d1a/TRDDigitWriterSpec_8cxx.html" target="_top" xlink:title="/home/travis/build\l/AliceO2Group/AliceO2\l/Detectors/TRD/workflow\l/src/TRDDigitWriterSpec.cxx">
<polygon fill="none" stroke="#000000" points="584.5,-95 584.5,-147 737.5,-147 737.5,-95 584.5,-95"/>
<text text-anchor="start" x="592.5" y="-135" font-family="Helvetica,sans-Serif" font-size="10.00" fill="#000000">/home/travis/build</text>
<text text-anchor="start" x="592.5" y="-124" font-family="Helvetica,sans-Serif" font-size="10.00" fill="#000000">/AliceO2Group/AliceO2</text>
<text text-anchor="start" x="592.5" y="-113" font-family="Helvetica,sans-Serif" font-size="10.00" fill="#000000">/Detectors/TRD/workflow</text>
<text text-anchor="middle" x="661" y="-102" font-family="Helvetica,sans-Serif" font-size="10.00" fill="#000000">/src/TRDDigitWriterSpec.cxx</text>
</a>
</g>
</g>
<!-- Node9&#45;&gt;Node15 -->
<g id="edge7" class="edge">
<title>Node9&#45;&gt;Node15</title>
<path fill="none" stroke="#191970" d="M556.1492,-184.1631C576.585,-171.8524 598.9235,-158.3955 617.7106,-147.078"/>
<polygon fill="#191970" stroke="#191970" points="554.2832,-181.2012 547.5234,-189.3594 557.8953,-187.1972 554.2832,-181.2012"/>
</g>
<!-- Node16 -->
<g id="node8" class="node">
<title>Node16</title>
<g id="a_node8"><a xlink:href="../../d0/dfb/TRDTrackletWriterSpec_8cxx.html" target="_top" xlink:title="/home/travis/build\l/AliceO2Group/AliceO2\l/Detectors/TRD/workflow\l/src/TRDTrackletWriterSpec.cxx">
<polygon fill="none" stroke="#000000" points="756,-95 756,-147 924,-147 924,-95 756,-95"/>
<text text-anchor="start" x="764" y="-135" font-family="Helvetica,sans-Serif" font-size="10.00" fill="#000000">/home/travis/build</text>
<text text-anchor="start" x="764" y="-124" font-family="Helvetica,sans-Serif" font-size="10.00" fill="#000000">/AliceO2Group/AliceO2</text>
<text text-anchor="start" x="764" y="-113" font-family="Helvetica,sans-Serif" font-size="10.00" fill="#000000">/Detectors/TRD/workflow</text>
<text text-anchor="middle" x="840" y="-102" font-family="Helvetica,sans-Serif" font-size="10.00" fill="#000000">/src/TRDTrackletWriterSpec.cxx</text>
</a>
</g>
</g>
<!-- Node9&#45;&gt;Node16 -->
<g id="edge8" class="edge">
<title>Node9&#45;&gt;Node16</title>
<path fill="none" stroke="#191970" d="M586.8552,-197.8137C634.8051,-185.307 694.3083,-169.1541 747,-153 753.1219,-151.1232 759.4458,-149.1096 765.7812,-147.0395"/>
<polygon fill="#191970" stroke="#191970" points="585.9132,-194.4422 577.1154,-200.3455 587.6744,-201.2171 585.9132,-194.4422"/>
</g>
<!-- Node17 -->
<g id="node9" class="node">
<title>Node17</title>
<g id="a_node9"><a xlink:href="../../dd/de7/TRDTrapSimulatorSpec_8cxx.html" target="_top" xlink:title="/home/travis/build\l/AliceO2Group/AliceO2\l/Detectors/TRD/workflow\l/src/TRDTrapSimulatorSpec.cxx">
<polygon fill="none" stroke="#000000" points="942,-95 942,-147 1110,-147 1110,-95 942,-95"/>
<text text-anchor="start" x="950" y="-135" font-family="Helvetica,sans-Serif" font-size="10.00" fill="#000000">/home/travis/build</text>
<text text-anchor="start" x="950" y="-124" font-family="Helvetica,sans-Serif" font-size="10.00" fill="#000000">/AliceO2Group/AliceO2</text>
<text text-anchor="start" x="950" y="-113" font-family="Helvetica,sans-Serif" font-size="10.00" fill="#000000">/Detectors/TRD/workflow</text>
<text text-anchor="middle" x="1026" y="-102" font-family="Helvetica,sans-Serif" font-size="10.00" fill="#000000">/src/TRDTrapSimulatorSpec.cxx</text>
</a>
</g>
</g>
<!-- Node9&#45;&gt;Node17 -->
<g id="edge9" class="edge">
<title>Node9&#45;&gt;Node17</title>
<path fill="none" stroke="#191970" d="M587.4946,-211.4695C676.796,-201.1379 815.4023,-182.116 933,-153 940.0441,-151.2559 947.3126,-149.209 954.5367,-147.0078"/>
<polygon fill="#191970" stroke="#191970" points="586.9307,-208.0111 577.3935,-212.6254 587.7266,-214.9657 586.9307,-208.0111"/>
</g>
<!-- Node11&#45;&gt;Node12 -->
<g id="edge3" class="edge">
<title>Node11&#45;&gt;Node12</title>
<path fill="none" stroke="#191970" d="M252.1477,-83.3074C238.0101,-73.0304 223.0065,-62.124 209.9655,-52.6442"/>
<polygon fill="#191970" stroke="#191970" points="250.2035,-86.2211 260.3502,-89.27 254.3195,-80.559 250.2035,-86.2211"/>
</g>
<!-- Node13 -->
<g id="node5" class="node">
<title>Node13</title>
<g id="a_node5"><a xlink:href="../../d2/dc0/TRDTrapSimulatorWorkFlow_8cxx.html" target="_top" xlink:title="/home/travis/build\l/AliceO2Group/AliceO2\l/Detectors/TRD/workflow\l/src/TRDTrapSimulatorWorkFlow.cxx">
<polygon fill="none" stroke="#000000" points="271.5,-.5 271.5,-52.5 462.5,-52.5 462.5,-.5 271.5,-.5"/>
<text text-anchor="start" x="279.5" y="-40.5" font-family="Helvetica,sans-Serif" font-size="10.00" fill="#000000">/home/travis/build</text>
<text text-anchor="start" x="279.5" y="-29.5" font-family="Helvetica,sans-Serif" font-size="10.00" fill="#000000">/AliceO2Group/AliceO2</text>
<text text-anchor="start" x="279.5" y="-18.5" font-family="Helvetica,sans-Serif" font-size="10.00" fill="#000000">/Detectors/TRD/workflow</text>
<text text-anchor="middle" x="367" y="-7.5" font-family="Helvetica,sans-Serif" font-size="10.00" fill="#000000">/src/TRDTrapSimulatorWorkFlow.cxx</text>
</a>
</g>
</g>
<!-- Node11&#45;&gt;Node13 -->
<g id="edge4" class="edge">
<title>Node11&#45;&gt;Node13</title>
<path fill="none" stroke="#191970" d="M330.8653,-80.702C337.1961,-71.2058 343.7823,-61.3266 349.5706,-52.6442"/>
<polygon fill="#191970" stroke="#191970" points="327.7882,-79.008 325.1533,-89.27 333.6126,-82.8909 327.7882,-79.008"/>
</g>
</g>
</svg>
