<?xml version="1.0" encoding="UTF-8" standalone="no"?>
<!DOCTYPE svg PUBLIC "-//W3C//DTD SVG 1.1//EN"
 "http://www.w3.org/Graphics/SVG/1.1/DTD/svg11.dtd">
<!-- Generated by graphviz version 2.40.1 (20161225.0304)
 -->
<!-- Title: /home/travis/build/AliceO2Group/AliceO2/Detectors/ITSMFT Pages: 1 -->
<svg width="699pt" height="519pt"
 viewBox="0.00 0.00 698.57 519.00" xmlns="http://www.w3.org/2000/svg" xmlns:xlink="http://www.w3.org/1999/xlink">
<g id="graph0" class="graph" transform="scale(1 1) rotate(0) translate(4 515)">
<title>/home/travis/build/AliceO2Group/AliceO2/Detectors/ITSMFT</title>
<g id="clust1" class="cluster">
<title>clusterdir_051dca18e802f8e9474f2e30d29c04e0</title>
<g id="a_clust1"><a xlink:href="dir_051dca18e802f8e9474f2e30d29c04e0.html" target="_top" xlink:title="Detectors">
<polygon fill="#ddddee" stroke="#000000" points="170,-272 170,-503 400,-503 400,-272 170,-272"/>
<text text-anchor="middle" x="285" y="-491" font-family="Helvetica,sans-Serif" font-size="10.00" fill="#000000">Detectors</text>
</a>
</g>
</g>
<g id="clust2" class="cluster">
<title>clusterdir_1306292b77b40360479b729ac9ee7efe</title>
<g id="a_clust2"><a xlink:href="dir_1306292b77b40360479b729ac9ee7efe.html" target="_top">
<polygon fill="#eeeeff" stroke="#000000" points="178,-280 178,-476 392,-476 392,-280 178,-280"/>
</a>
</g>
</g>
<!-- dir_1306292b77b40360479b729ac9ee7efe -->
<g id="node1" class="node">
<title>dir_1306292b77b40360479b729ac9ee7efe</title>
<text text-anchor="middle" x="357" y="-447.5" font-family="Helvetica,sans-Serif" font-size="10.00" fill="#000000">ITSMFT</text>
</g>
<!-- dir_85bf31a2e8d306e7598ffcb73f8df6bf -->
<g id="node2" class="node">
<title>dir_85bf31a2e8d306e7598ffcb73f8df6bf</title>
<g id="a_node2"><a xlink:href="dir_85bf31a2e8d306e7598ffcb73f8df6bf.html" target="_top" xlink:title="common">
<polygon fill="#ffffff" stroke="#ff0000" points="291.5,-396 232.5,-396 232.5,-360 291.5,-360 291.5,-396"/>
<text text-anchor="middle" x="262" y="-375.5" font-family="Helvetica,sans-Serif" font-size="10.00" fill="#000000">common</text>
</a>
</g>
</g>
<!-- dir_871aad07cbf94d6cd423c3d8d5bdf4e9 -->
<g id="node3" class="node">
<title>dir_871aad07cbf94d6cd423c3d8d5bdf4e9</title>
<g id="a_node3"><a xlink:href="dir_871aad07cbf94d6cd423c3d8d5bdf4e9.html" target="_top" xlink:title="ITS">
<polygon fill="#ffffff" stroke="#ff0000" points="276,-324 222,-324 222,-288 276,-288 276,-324"/>
<text text-anchor="middle" x="249" y="-303.5" font-family="Helvetica,sans-Serif" font-size="10.00" fill="#000000">ITS</text>
</a>
</g>
</g>
<!-- dir_85bf31a2e8d306e7598ffcb73f8df6bf&#45;&gt;dir_871aad07cbf94d6cd423c3d8d5bdf4e9 -->
<g id="edge24" class="edge">
<title>dir_85bf31a2e8d306e7598ffcb73f8df6bf&#45;&gt;dir_871aad07cbf94d6cd423c3d8d5bdf4e9</title>
<path fill="none" stroke="#000000" d="M252.7672,-359.8314C250.6264,-352.131 248.7522,-342.9743 247.5157,-334.4166"/>
<polygon fill="#000000" stroke="#000000" points="250.9839,-333.9403 246.3486,-324.4133 244.0311,-334.7515 250.9839,-333.9403"/>
<g id="a_edge24&#45;headlabel"><a xlink:href="dir_000061_000044.html" target="_top" xlink:title="1">
<text text-anchor="middle" x="254.2206" y="-334.6817" font-family="Helvetica,sans-Serif" font-size="10.00" fill="#000000">1</text>
</a>
</g>
</g>
<!-- dir_4ab6b4cc6a7edbff49100e9123df213f -->
<g id="node6" class="node">
<title>dir_4ab6b4cc6a7edbff49100e9123df213f</title>
<g id="a_node6"><a xlink:href="dir_4ab6b4cc6a7edbff49100e9123df213f.html" target="_top" xlink:title="Common">
<polygon fill="none" stroke="#ff0000" points="617.5,-396 556.5,-396 556.5,-360 617.5,-360 617.5,-396"/>
<text text-anchor="middle" x="587" y="-375.5" font-family="Helvetica,sans-Serif" font-size="10.00" fill="#000000">Common</text>
</a>
</g>
</g>
<!-- dir_85bf31a2e8d306e7598ffcb73f8df6bf&#45;&gt;dir_4ab6b4cc6a7edbff49100e9123df213f -->
<g id="edge25" class="edge">
<title>dir_85bf31a2e8d306e7598ffcb73f8df6bf&#45;&gt;dir_4ab6b4cc6a7edbff49100e9123df213f</title>
<path fill="none" stroke="#000000" d="M291.5166,-378C376.4524,-378 461.3882,-378 546.324,-378"/>
<polygon fill="#000000" stroke="#000000" points="546.4129,-381.5001 556.4129,-378 546.4128,-374.5001 546.4129,-381.5001"/>
<g id="a_edge25&#45;headlabel"><a xlink:href="dir_000061_000027.html" target="_top" xlink:title="19">
<text text-anchor="middle" x="542.8182" y="-381.8393" font-family="Helvetica,sans-Serif" font-size="10.00" fill="#000000">19</text>
</a>
</g>
</g>
<!-- dir_b05a5fa85f84bfc9013183c9d87f9a36 -->
<g id="node7" class="node">
<title>dir_b05a5fa85f84bfc9013183c9d87f9a36</title>
<g id="a_node7"><a xlink:href="dir_b05a5fa85f84bfc9013183c9d87f9a36.html" target="_top" xlink:title="Utilities">
<polygon fill="none" stroke="#ff0000" points="488.5,-108 433.5,-108 433.5,-72 488.5,-72 488.5,-108"/>
<text text-anchor="middle" x="461" y="-87.5" font-family="Helvetica,sans-Serif" font-size="10.00" fill="#000000">Utilities</text>
</a>
</g>
</g>
<!-- dir_85bf31a2e8d306e7598ffcb73f8df6bf&#45;&gt;dir_b05a5fa85f84bfc9013183c9d87f9a36 -->
<g id="edge26" class="edge">
<title>dir_85bf31a2e8d306e7598ffcb73f8df6bf&#45;&gt;dir_b05a5fa85f84bfc9013183c9d87f9a36</title>
<path fill="none" stroke="#000000" d="M232.473,-372.4156C190.1747,-363.7475 115.6877,-345.7656 100,-324 52.1922,-257.6702 71.7127,-191.8668 138,-144 183.1233,-111.416 348.1583,-97.0867 423.292,-92.1488"/>
<polygon fill="#000000" stroke="#000000" points="423.5177,-95.6416 433.2752,-91.5135 423.073,-88.6558 423.5177,-95.6416"/>
<g id="a_edge26&#45;headlabel"><a xlink:href="dir_000061_000558.html" target="_top" xlink:title="1">
<text text-anchor="middle" x="420.1106" y="-96.2034" font-family="Helvetica,sans-Serif" font-size="10.00" fill="#000000">1</text>
</a>
</g>
</g>
<!-- dir_37c90836491b695b472bf98d1be8336b -->
<g id="node8" class="node">
<title>dir_37c90836491b695b472bf98d1be8336b</title>
<g id="a_node8"><a xlink:href="dir_37c90836491b695b472bf98d1be8336b.html" target="_top" xlink:title="Base">
<polygon fill="none" stroke="#ff0000" points="561,-108 507,-108 507,-72 561,-72 561,-108"/>
<text text-anchor="middle" x="534" y="-87.5" font-family="Helvetica,sans-Serif" font-size="10.00" fill="#000000">Base</text>
</a>
</g>
</g>
<!-- dir_85bf31a2e8d306e7598ffcb73f8df6bf&#45;&gt;dir_37c90836491b695b472bf98d1be8336b -->
<g id="edge27" class="edge">
<title>dir_85bf31a2e8d306e7598ffcb73f8df6bf&#45;&gt;dir_37c90836491b695b472bf98d1be8336b</title>
<path fill="none" stroke="#000000" d="M239.325,-359.9909C229.2112,-350.4972 218.3802,-337.9355 213,-324 204.6762,-302.4399 207.0681,-294.3369 213,-272 230.2188,-207.1613 236.8231,-180.6702 293,-144 367.8149,-95.1636 407.3967,-134.1213 497.1145,-107.6665"/>
<polygon fill="#000000" stroke="#000000" points="498.3456,-110.9483 506.8318,-104.6053 496.2422,-104.2718 498.3456,-110.9483"/>
<g id="a_edge27&#45;headlabel"><a xlink:href="dir_000061_000274.html" target="_top" xlink:title="3">
<text text-anchor="middle" x="495.7702" y="-112.2364" font-family="Helvetica,sans-Serif" font-size="10.00" fill="#000000">3</text>
</a>
</g>
</g>
<!-- dir_bcbb2cf9a3d3d83e5515c82071a07177 -->
<g id="node10" class="node">
<title>dir_bcbb2cf9a3d3d83e5515c82071a07177</title>
<g id="a_node10"><a xlink:href="dir_bcbb2cf9a3d3d83e5515c82071a07177.html" target="_top" xlink:title="Framework">
<polygon fill="none" stroke="#ff0000" points="431.5,-36 360.5,-36 360.5,0 431.5,0 431.5,-36"/>
<text text-anchor="middle" x="396" y="-15.5" font-family="Helvetica,sans-Serif" font-size="10.00" fill="#000000">Framework</text>
</a>
</g>
</g>
<!-- dir_85bf31a2e8d306e7598ffcb73f8df6bf&#45;&gt;dir_bcbb2cf9a3d3d83e5515c82071a07177 -->
<g id="edge28" class="edge">
<title>dir_85bf31a2e8d306e7598ffcb73f8df6bf&#45;&gt;dir_bcbb2cf9a3d3d83e5515c82071a07177</title>
<path fill="none" stroke="#000000" d="M232.2158,-372.8206C185.1204,-364.0965 96.3927,-345.3212 73,-324 41.2803,-295.0892 38,-276.9182 38,-234 38,-234 38,-234 38,-162 38,-95.4238 253.8,-45.4246 350.3068,-26.3934"/>
<polygon fill="#000000" stroke="#000000" points="351.217,-29.782 360.3648,-24.4371 349.8805,-22.9108 351.217,-29.782"/>
<g id="a_edge28&#45;headlabel"><a xlink:href="dir_000061_000013.html" target="_top" xlink:title="26">
<text text-anchor="middle" x="348.2305" y="-30.7553" font-family="Helvetica,sans-Serif" font-size="10.00" fill="#000000">26</text>
</a>
</g>
</g>
<!-- dir_26637d1bd82229bc9ed97f7e706be743 -->
<g id="node11" class="node">
<title>dir_26637d1bd82229bc9ed97f7e706be743</title>
<g id="a_node11"><a xlink:href="dir_26637d1bd82229bc9ed97f7e706be743.html" target="_top" xlink:title="Raw">
<polygon fill="none" stroke="#ff0000" points="424,-252 370,-252 370,-216 424,-216 424,-252"/>
<text text-anchor="middle" x="397" y="-231.5" font-family="Helvetica,sans-Serif" font-size="10.00" fill="#000000">Raw</text>
</a>
</g>
</g>
<!-- dir_85bf31a2e8d306e7598ffcb73f8df6bf&#45;&gt;dir_26637d1bd82229bc9ed97f7e706be743 -->
<g id="edge29" class="edge">
<title>dir_85bf31a2e8d306e7598ffcb73f8df6bf&#45;&gt;dir_26637d1bd82229bc9ed97f7e706be743</title>
<path fill="none" stroke="#000000" d="M291.9219,-366.5952C312.1915,-357.6042 338.3909,-343.3468 356,-324 372.1645,-306.2404 382.9044,-281.0224 389.3221,-261.7968"/>
<polygon fill="#000000" stroke="#000000" points="392.7135,-262.6789 392.3699,-252.0896 386.035,-260.5819 392.7135,-262.6789"/>
<g id="a_edge29&#45;headlabel"><a xlink:href="dir_000061_000562.html" target="_top" xlink:title="6">
<text text-anchor="middle" x="394.3457" y="-264.4589" font-family="Helvetica,sans-Serif" font-size="10.00" fill="#000000">6</text>
</a>
</g>
</g>
<!-- dir_2171f7ec022c5423887b07c69b2f5b48 -->
<g id="node12" class="node">
<title>dir_2171f7ec022c5423887b07c69b2f5b48</title>
<g id="a_node12"><a xlink:href="dir_2171f7ec022c5423887b07c69b2f5b48.html" target="_top" xlink:title="DataFormats">
<polygon fill="none" stroke="#ff0000" points="501,-180 421,-180 421,-144 501,-144 501,-180"/>
<text text-anchor="middle" x="461" y="-159.5" font-family="Helvetica,sans-Serif" font-size="10.00" fill="#000000">DataFormats</text>
</a>
</g>
</g>
<!-- dir_85bf31a2e8d306e7598ffcb73f8df6bf&#45;&gt;dir_2171f7ec022c5423887b07c69b2f5b48 -->
<g id="edge30" class="edge">
<title>dir_85bf31a2e8d306e7598ffcb73f8df6bf&#45;&gt;dir_2171f7ec022c5423887b07c69b2f5b48</title>
<path fill="none" stroke="#000000" d="M284.9728,-359.865C296.0969,-350.1622 308.9662,-337.456 318,-324 346.7975,-281.1055 326.651,-254.5925 361,-216 374.6282,-200.6881 393.6643,-188.9107 411.4746,-180.3208"/>
<polygon fill="#000000" stroke="#000000" points="413.0103,-183.4671 420.6414,-176.1175 410.0926,-177.1041 413.0103,-183.4671"/>
<g id="a_edge30&#45;headlabel"><a xlink:href="dir_000061_000076.html" target="_top" xlink:title="65">
<text text-anchor="middle" x="410.9262" y="-185.0462" font-family="Helvetica,sans-Serif" font-size="10.00" fill="#000000">65</text>
</a>
</g>
</g>
<!-- dir_871aad07cbf94d6cd423c3d8d5bdf4e9&#45;&gt;dir_85bf31a2e8d306e7598ffcb73f8df6bf -->
<g id="edge3" class="edge">
<title>dir_871aad07cbf94d6cd423c3d8d5bdf4e9&#45;&gt;dir_85bf31a2e8d306e7598ffcb73f8df6bf</title>
<path fill="none" stroke="#000000" d="M258.3006,-324.4133C260.4357,-332.1442 262.3003,-341.3097 263.5233,-349.8545"/>
<polygon fill="#000000" stroke="#000000" points="260.0511,-350.2973 264.6719,-359.8314 267.0051,-349.4966 260.0511,-350.2973"/>
<g id="a_edge3&#45;headlabel"><a xlink:href="dir_000044_000061.html" target="_top" xlink:title="44">
<text text-anchor="middle" x="256.8194" y="-344.551" font-family="Helvetica,sans-Serif" font-size="10.00" fill="#000000">44</text>
</a>
</g>
</g>
<!-- dir_871aad07cbf94d6cd423c3d8d5bdf4e9&#45;&gt;dir_4ab6b4cc6a7edbff49100e9123df213f -->
<g id="edge1" class="edge">
<title>dir_871aad07cbf94d6cd423c3d8d5bdf4e9&#45;&gt;dir_4ab6b4cc6a7edbff49100e9123df213f</title>
<path fill="none" stroke="#000000" d="M276.425,-311.842C335.7833,-324.4864 476.4281,-354.4462 546.2382,-369.317"/>
<polygon fill="#000000" stroke="#000000" points="545.8988,-372.8232 556.4086,-371.4835 547.3573,-365.9768 545.8988,-372.8232"/>
<g id="a_edge1&#45;headlabel"><a xlink:href="dir_000044_000027.html" target="_top" xlink:title="35">
<text text-anchor="middle" x="541.7916" y="-372.3513" font-family="Helvetica,sans-Serif" font-size="10.00" fill="#000000">35</text>
</a>
</g>
</g>
<!-- dir_871aad07cbf94d6cd423c3d8d5bdf4e9&#45;&gt;dir_37c90836491b695b472bf98d1be8336b -->
<g id="edge2" class="edge">
<title>dir_871aad07cbf94d6cd423c3d8d5bdf4e9&#45;&gt;dir_37c90836491b695b472bf98d1be8336b</title>
<path fill="none" stroke="#000000" d="M246.9159,-287.9275C245.6388,-268.315 246.5828,-236.9964 262,-216 328.4044,-125.5653 389.7099,-154.3767 497.7442,-107.8656"/>
<polygon fill="#000000" stroke="#000000" points="499.255,-111.0242 506.9674,-103.76 496.4083,-104.6291 499.255,-111.0242"/>
<g id="a_edge2&#45;headlabel"><a xlink:href="dir_000044_000274.html" target="_top" xlink:title="13">
<text text-anchor="middle" x="497.1256" y="-112.5798" font-family="Helvetica,sans-Serif" font-size="10.00" fill="#000000">13</text>
</a>
</g>
</g>
<!-- dir_f511f1e9c03c071966ae594f00bbc5e0 -->
<g id="node9" class="node">
<title>dir_f511f1e9c03c071966ae594f00bbc5e0</title>
<g id="a_node9"><a xlink:href="dir_f511f1e9c03c071966ae594f00bbc5e0.html" target="_top" xlink:title="GPU">
<polygon fill="none" stroke="#ff0000" points="500,-324 446,-324 446,-288 500,-288 500,-324"/>
<text text-anchor="middle" x="473" y="-303.5" font-family="Helvetica,sans-Serif" font-size="10.00" fill="#000000">GPU</text>
</a>
</g>
</g>
<!-- dir_871aad07cbf94d6cd423c3d8d5bdf4e9&#45;&gt;dir_f511f1e9c03c071966ae594f00bbc5e0 -->
<g id="edge4" class="edge">
<title>dir_871aad07cbf94d6cd423c3d8d5bdf4e9&#45;&gt;dir_f511f1e9c03c071966ae594f00bbc5e0</title>
<path fill="none" stroke="#000000" d="M276.125,-306C329.2273,-306 382.3295,-306 435.4318,-306"/>
<polygon fill="#000000" stroke="#000000" points="435.699,-309.5001 445.699,-306 435.6989,-302.5001 435.699,-309.5001"/>
<g id="a_edge4&#45;headlabel"><a xlink:href="dir_000044_000671.html" target="_top" xlink:title="33">
<text text-anchor="middle" x="432.1044" y="-309.8393" font-family="Helvetica,sans-Serif" font-size="10.00" fill="#000000">33</text>
</a>
</g>
</g>
<!-- dir_871aad07cbf94d6cd423c3d8d5bdf4e9&#45;&gt;dir_bcbb2cf9a3d3d83e5515c82071a07177 -->
<g id="edge5" class="edge">
<title>dir_871aad07cbf94d6cd423c3d8d5bdf4e9&#45;&gt;dir_bcbb2cf9a3d3d83e5515c82071a07177</title>
<path fill="none" stroke="#000000" d="M244.7416,-287.9735C241.1663,-269.4843 237.7029,-240.1006 245,-216 266.9878,-143.3793 329.8044,-77.2657 367.1291,-42.8726"/>
<polygon fill="#000000" stroke="#000000" points="369.6254,-45.3337 374.683,-36.024 364.9236,-40.1478 369.6254,-45.3337"/>
<g id="a_edge5&#45;headlabel"><a xlink:href="dir_000044_000013.html" target="_top" xlink:title="44">
<text text-anchor="middle" x="368.8694" y="-47.3516" font-family="Helvetica,sans-Serif" font-size="10.00" fill="#000000">44</text>
</a>
</g>
</g>
<!-- dir_871aad07cbf94d6cd423c3d8d5bdf4e9&#45;&gt;dir_26637d1bd82229bc9ed97f7e706be743 -->
<g id="edge6" class="edge">
<title>dir_871aad07cbf94d6cd423c3d8d5bdf4e9&#45;&gt;dir_26637d1bd82229bc9ed97f7e706be743</title>
<path fill="none" stroke="#000000" d="M276.1455,-292.7941C299.8544,-281.26 334.464,-264.4229 360.5764,-251.7196"/>
<polygon fill="#000000" stroke="#000000" points="362.3152,-254.7659 369.7764,-247.2439 359.2529,-248.4713 362.3152,-254.7659"/>
<g id="a_edge6&#45;headlabel"><a xlink:href="dir_000044_000562.html" target="_top" xlink:title="1">
<text text-anchor="middle" x="360.3249" y="-256.3916" font-family="Helvetica,sans-Serif" font-size="10.00" fill="#000000">1</text>
</a>
</g>
</g>
<!-- dir_871aad07cbf94d6cd423c3d8d5bdf4e9&#45;&gt;dir_2171f7ec022c5423887b07c69b2f5b48 -->
<g id="edge7" class="edge">
<title>dir_871aad07cbf94d6cd423c3d8d5bdf4e9&#45;&gt;dir_2171f7ec022c5423887b07c69b2f5b48</title>
<path fill="none" stroke="#000000" d="M252.6359,-287.8215C257.6241,-267.5149 268.5302,-235.0062 290,-216 323.5595,-186.2915 373.4528,-172.9193 410.6956,-166.9049"/>
<polygon fill="#000000" stroke="#000000" points="411.4642,-170.3292 420.8405,-165.3962 410.4344,-163.4054 411.4642,-170.3292"/>
<g id="a_edge7&#45;headlabel"><a xlink:href="dir_000044_000076.html" target="_top" xlink:title="111">
<text text-anchor="middle" x="408.3263" y="-171.1663" font-family="Helvetica,sans-Serif" font-size="10.00" fill="#000000">111</text>
</a>
</g>
</g>
<!-- dir_f39d1cd569ca2d16022b762a0e4a53c8 -->
<g id="node4" class="node">
<title>dir_f39d1cd569ca2d16022b762a0e4a53c8</title>
<g id="a_node4"><a xlink:href="dir_f39d1cd569ca2d16022b762a0e4a53c8.html" target="_top" xlink:title="MFT">
<polygon fill="#ffffff" stroke="#ff0000" points="312,-468 258,-468 258,-432 312,-432 312,-468"/>
<text text-anchor="middle" x="285" y="-447.5" font-family="Helvetica,sans-Serif" font-size="10.00" fill="#000000">MFT</text>
</a>
</g>
</g>
<!-- dir_f39d1cd569ca2d16022b762a0e4a53c8&#45;&gt;dir_85bf31a2e8d306e7598ffcb73f8df6bf -->
<g id="edge10" class="edge">
<title>dir_f39d1cd569ca2d16022b762a0e4a53c8&#45;&gt;dir_85bf31a2e8d306e7598ffcb73f8df6bf</title>
<path fill="none" stroke="#000000" d="M279.1961,-431.8314C276.7092,-424.0463 273.7469,-414.7729 270.9875,-406.1347"/>
<polygon fill="#000000" stroke="#000000" points="274.2591,-404.874 267.882,-396.4133 267.591,-407.0041 274.2591,-404.874"/>
<g id="a_edge10&#45;headlabel"><a xlink:href="dir_000110_000061.html" target="_top" xlink:title="24">
<text text-anchor="middle" x="278.0574" y="-404.9342" font-family="Helvetica,sans-Serif" font-size="10.00" fill="#000000">24</text>
</a>
</g>
</g>
<!-- dir_f39d1cd569ca2d16022b762a0e4a53c8&#45;&gt;dir_4ab6b4cc6a7edbff49100e9123df213f -->
<g id="edge8" class="edge">
<title>dir_f39d1cd569ca2d16022b762a0e4a53c8&#45;&gt;dir_4ab6b4cc6a7edbff49100e9123df213f</title>
<path fill="none" stroke="#000000" d="M312.156,-435.3575C315.091,-434.0976 318.0744,-432.9454 321,-432 415.6951,-401.3988 446.1149,-422.6394 542,-396 543.4694,-395.5918 544.9564,-395.1511 546.451,-394.6846"/>
<polygon fill="#000000" stroke="#000000" points="547.9962,-397.855 556.3216,-391.3023 545.727,-391.233 547.9962,-397.855"/>
<g id="a_edge8&#45;headlabel"><a xlink:href="dir_000110_000027.html" target="_top" xlink:title="24">
<text text-anchor="middle" x="545.516" y="-399.2061" font-family="Helvetica,sans-Serif" font-size="10.00" fill="#000000">24</text>
</a>
</g>
</g>
<!-- dir_f39d1cd569ca2d16022b762a0e4a53c8&#45;&gt;dir_37c90836491b695b472bf98d1be8336b -->
<g id="edge9" class="edge">
<title>dir_f39d1cd569ca2d16022b762a0e4a53c8&#45;&gt;dir_37c90836491b695b472bf98d1be8336b</title>
<path fill="none" stroke="#000000" d="M312.1144,-435.2235C315.0574,-433.9897 318.0541,-432.8803 321,-432 452.2051,-392.7927 511.688,-469.859 627,-396 695.0126,-352.437 685.8705,-289.3229 652,-216 636.3696,-182.1633 634.2031,-171.4597 609,-144 597.6083,-131.5883 582.9443,-120.2738 569.6086,-111.2444"/>
<polygon fill="#000000" stroke="#000000" points="571.3659,-108.2113 561.0848,-105.6522 567.526,-114.0641 571.3659,-108.2113"/>
<g id="a_edge9&#45;headlabel"><a xlink:href="dir_000110_000274.html" target="_top" xlink:title="7">
<text text-anchor="middle" x="575.9289" y="-105.3091" font-family="Helvetica,sans-Serif" font-size="10.00" fill="#000000">7</text>
</a>
</g>
</g>
<!-- dir_f39d1cd569ca2d16022b762a0e4a53c8&#45;&gt;dir_f511f1e9c03c071966ae594f00bbc5e0 -->
<g id="edge11" class="edge">
<title>dir_f39d1cd569ca2d16022b762a0e4a53c8&#45;&gt;dir_f511f1e9c03c071966ae594f00bbc5e0</title>
<path fill="none" stroke="#000000" d="M308.8103,-431.7623C342.4303,-406.0108 403.8812,-358.942 441.3224,-330.2637"/>
<polygon fill="#000000" stroke="#000000" points="443.5725,-332.949 449.383,-324.0896 439.3159,-327.3918 443.5725,-332.949"/>
<g id="a_edge11&#45;headlabel"><a xlink:href="dir_000110_000671.html" target="_top" xlink:title="1">
<text text-anchor="middle" x="442.4453" y="-334.8888" font-family="Helvetica,sans-Serif" font-size="10.00" fill="#000000">1</text>
</a>
</g>
</g>
<!-- dir_f39d1cd569ca2d16022b762a0e4a53c8&#45;&gt;dir_bcbb2cf9a3d3d83e5515c82071a07177 -->
<g id="edge12" class="edge">
<title>dir_f39d1cd569ca2d16022b762a0e4a53c8&#45;&gt;dir_bcbb2cf9a3d3d83e5515c82071a07177</title>
<path fill="none" stroke="#000000" d="M257.931,-436.4207C186.7902,-400.72 0,-306.8976 0,-306 0,-306 0,-306 0,-162 0,-106.6743 37.1919,-98.052 86,-72 131.0511,-47.9533 275.635,-30.229 350.3469,-22.4176"/>
<polygon fill="#000000" stroke="#000000" points="350.8189,-25.8876 360.4077,-21.3815 350.1018,-18.9244 350.8189,-25.8876"/>
<g id="a_edge12&#45;headlabel"><a xlink:href="dir_000110_000013.html" target="_top" xlink:title="35">
<text text-anchor="middle" x="347.534" y="-26.5801" font-family="Helvetica,sans-Serif" font-size="10.00" fill="#000000">35</text>
</a>
</g>
</g>
<!-- dir_f39d1cd569ca2d16022b762a0e4a53c8&#45;&gt;dir_2171f7ec022c5423887b07c69b2f5b48 -->
<g id="edge13" class="edge">
<title>dir_f39d1cd569ca2d16022b762a0e4a53c8&#45;&gt;dir_2171f7ec022c5423887b07c69b2f5b48</title>
<path fill="none" stroke="#000000" d="M312.0941,-436.4623C343.9243,-420.5568 392.5082,-396.2748 393,-396 445.9702,-366.4005 479.5022,-377.0269 509,-324 533.6093,-279.7608 503.2249,-221.546 480.809,-188.3032"/>
<polygon fill="#000000" stroke="#000000" points="483.6241,-186.2211 475.0355,-180.0173 477.8809,-190.223 483.6241,-186.2211"/>
<g id="a_edge13&#45;headlabel"><a xlink:href="dir_000110_000076.html" target="_top" xlink:title="75">
<text text-anchor="middle" x="488.0086" y="-185.0472" font-family="Helvetica,sans-Serif" font-size="10.00" fill="#000000">75</text>
</a>
</g>
</g>
<!-- dir_8a13aabf51651f1b5f53d57129f566b6 -->
<g id="node5" class="node">
<title>dir_8a13aabf51651f1b5f53d57129f566b6</title>
<g id="a_node5"><a xlink:href="dir_8a13aabf51651f1b5f53d57129f566b6.html" target="_top" xlink:title="test">
<polygon fill="#ffffff" stroke="#ff0000" points="240,-468 186,-468 186,-432 240,-432 240,-468"/>
<text text-anchor="middle" x="213" y="-447.5" font-family="Helvetica,sans-Serif" font-size="10.00" fill="#000000">test</text>
</a>
</g>
</g>
<!-- dir_8a13aabf51651f1b5f53d57129f566b6&#45;&gt;dir_85bf31a2e8d306e7598ffcb73f8df6bf -->
<g id="edge33" class="edge">
<title>dir_8a13aabf51651f1b5f53d57129f566b6&#45;&gt;dir_85bf31a2e8d306e7598ffcb73f8df6bf</title>
<path fill="none" stroke="#000000" d="M225.3648,-431.8314C230.9509,-423.6232 237.663,-413.7606 243.8072,-404.7323"/>
<polygon fill="#000000" stroke="#000000" points="246.736,-406.6496 249.4687,-396.4133 240.949,-402.7112 246.736,-406.6496"/>
<g id="a_edge33&#45;headlabel"><a xlink:href="dir_000511_000061.html" target="_top" xlink:title="3">
<text text-anchor="middle" x="247.0609" y="-408.7187" font-family="Helvetica,sans-Serif" font-size="10.00" fill="#000000">3</text>
</a>
</g>
</g>
<!-- dir_8a13aabf51651f1b5f53d57129f566b6&#45;&gt;dir_871aad07cbf94d6cd423c3d8d5bdf4e9 -->
<g id="edge31" class="edge">
<title>dir_8a13aabf51651f1b5f53d57129f566b6&#45;&gt;dir_871aad07cbf94d6cd423c3d8d5bdf4e9</title>
<path fill="none" stroke="#000000" d="M213.2346,-431.7229C213.8858,-413.2885 216.0561,-384.1764 223,-360 225.5879,-350.9899 229.5744,-341.6336 233.6547,-333.2906"/>
<polygon fill="#000000" stroke="#000000" points="236.7787,-334.8689 238.2317,-324.3741 230.5512,-331.6721 236.7787,-334.8689"/>
<g id="a_edge31&#45;headlabel"><a xlink:href="dir_000511_000044.html" target="_top" xlink:title="1">
<text text-anchor="middle" x="237.6631" y="-336.8634" font-family="Helvetica,sans-Serif" font-size="10.00" fill="#000000">1</text>
</a>
</g>
</g>
<!-- dir_8a13aabf51651f1b5f53d57129f566b6&#45;&gt;dir_4ab6b4cc6a7edbff49100e9123df213f -->
<g id="edge32" class="edge">
<title>dir_8a13aabf51651f1b5f53d57129f566b6&#45;&gt;dir_4ab6b4cc6a7edbff49100e9123df213f</title>
<path fill="none" stroke="#000000" d="M240.1531,-435.3483C243.0886,-434.0902 246.0729,-432.941 249,-432 352.9646,-398.5785 481.8415,-385.3136 546.2902,-380.4888"/>
<polygon fill="#000000" stroke="#000000" points="546.716,-383.9673 556.4394,-379.7595 546.2143,-376.9854 546.716,-383.9673"/>
<g id="a_edge32&#45;headlabel"><a xlink:href="dir_000511_000027.html" target="_top" xlink:title="2">
<text text-anchor="middle" x="543.3342" y="-384.5569" font-family="Helvetica,sans-Serif" font-size="10.00" fill="#000000">2</text>
</a>
</g>
</g>
<!-- dir_4ab6b4cc6a7edbff49100e9123df213f&#45;&gt;dir_f511f1e9c03c071966ae594f00bbc5e0 -->
<g id="edge14" class="edge">
<title>dir_4ab6b4cc6a7edbff49100e9123df213f&#45;&gt;dir_f511f1e9c03c071966ae594f00bbc5e0</title>
<path fill="none" stroke="#000000" d="M556.2829,-362.1993C540.1311,-352.6991 520.465,-340.424 504.2455,-329.7705"/>
<polygon fill="#000000" stroke="#000000" points="505.8992,-326.6671 495.6335,-324.0467 502.0244,-332.4969 505.8992,-326.6671"/>
<g id="a_edge14&#45;headlabel"><a xlink:href="dir_000027_000671.html" target="_top" xlink:title="3">
<text text-anchor="middle" x="510.4645" y="-323.7922" font-family="Helvetica,sans-Serif" font-size="10.00" fill="#000000">3</text>
</a>
</g>
</g>
<!-- dir_4ab6b4cc6a7edbff49100e9123df213f&#45;&gt;dir_bcbb2cf9a3d3d83e5515c82071a07177 -->
<g id="edge15" class="edge">
<title>dir_4ab6b4cc6a7edbff49100e9123df213f&#45;&gt;dir_bcbb2cf9a3d3d83e5515c82071a07177</title>
<path fill="none" stroke="#000000" d="M617.6632,-363.2744C633.8991,-354.6129 652.2801,-341.8036 662,-324 685.3543,-281.2228 662.9787,-260.454 643,-216 612.8093,-148.8232 618.4047,-118.14 561,-72 526.445,-44.2259 477.5682,-30.6775 441.8883,-24.1032"/>
<polygon fill="#000000" stroke="#000000" points="442.1836,-20.6026 431.7344,-22.3532 440.9946,-27.5009 442.1836,-20.6026"/>
<g id="a_edge15&#45;headlabel"><a xlink:href="dir_000027_000013.html" target="_top" xlink:title="2">
<text text-anchor="middle" x="446.2082" y="-15.915" font-family="Helvetica,sans-Serif" font-size="10.00" fill="#000000">2</text>
</a>
</g>
</g>
<!-- dir_4ab6b4cc6a7edbff49100e9123df213f&#45;&gt;dir_2171f7ec022c5423887b07c69b2f5b48 -->
<g id="edge16" class="edge">
<title>dir_4ab6b4cc6a7edbff49100e9123df213f&#45;&gt;dir_2171f7ec022c5423887b07c69b2f5b48</title>
<path fill="none" stroke="#000000" d="M577.1891,-359.6393C565.4898,-328.1081 545.8186,-262.5703 513,-216 505.4255,-205.2516 495.3075,-195.1882 485.9234,-186.7298"/>
<polygon fill="#000000" stroke="#000000" points="488.1089,-183.991 478.2854,-180.0224 483.49,-189.2508 488.1089,-183.991"/>
<g id="a_edge16&#45;headlabel"><a xlink:href="dir_000027_000076.html" target="_top" xlink:title="2">
<text text-anchor="middle" x="492.6834" y="-181.7294" font-family="Helvetica,sans-Serif" font-size="10.00" fill="#000000">2</text>
</a>
</g>
</g>
<!-- dir_b05a5fa85f84bfc9013183c9d87f9a36&#45;&gt;dir_4ab6b4cc6a7edbff49100e9123df213f -->
<g id="edge17" class="edge">
<title>dir_b05a5fa85f84bfc9013183c9d87f9a36&#45;&gt;dir_4ab6b4cc6a7edbff49100e9123df213f</title>
<path fill="none" stroke="#000000" d="M488.579,-108.0823C501.5003,-117.5932 516.3546,-130.1484 527,-144 565.0589,-193.5213 571.2386,-211.0782 585,-272 590.8285,-297.8029 590.7431,-328.0424 589.5469,-349.6047"/>
<polygon fill="#000000" stroke="#000000" points="586.0452,-349.5157 588.8687,-359.7273 593.0295,-349.9837 586.0452,-349.5157"/>
<g id="a_edge17&#45;headlabel"><a xlink:href="dir_000558_000027.html" target="_top" xlink:title="2">
<text text-anchor="middle" x="583.4524" y="-343.2393" font-family="Helvetica,sans-Serif" font-size="10.00" fill="#000000">2</text>
</a>
</g>
</g>
<!-- dir_b05a5fa85f84bfc9013183c9d87f9a36&#45;&gt;dir_bcbb2cf9a3d3d83e5515c82071a07177 -->
<g id="edge18" class="edge">
<title>dir_b05a5fa85f84bfc9013183c9d87f9a36&#45;&gt;dir_bcbb2cf9a3d3d83e5515c82071a07177</title>
<path fill="none" stroke="#000000" d="M444.5978,-71.8314C436.9585,-63.3694 427.7317,-53.1489 419.3793,-43.8971"/>
<polygon fill="#000000" stroke="#000000" points="421.9221,-41.4906 412.6231,-36.4133 416.7262,-46.1813 421.9221,-41.4906"/>
<g id="a_edge18&#45;headlabel"><a xlink:href="dir_000558_000013.html" target="_top" xlink:title="33">
<text text-anchor="middle" x="426.4383" y="-39.7561" font-family="Helvetica,sans-Serif" font-size="10.00" fill="#000000">33</text>
</a>
</g>
</g>
<!-- dir_b05a5fa85f84bfc9013183c9d87f9a36&#45;&gt;dir_2171f7ec022c5423887b07c69b2f5b48 -->
<g id="edge19" class="edge">
<title>dir_b05a5fa85f84bfc9013183c9d87f9a36&#45;&gt;dir_2171f7ec022c5423887b07c69b2f5b48</title>
<path fill="none" stroke="#000000" d="M466.976,-108.4133C467.7071,-116.0593 467.9203,-125.1084 467.6155,-133.5726"/>
<polygon fill="#000000" stroke="#000000" points="464.1048,-133.6264 466.9524,-143.8314 471.0902,-134.078 464.1048,-133.6264"/>
<g id="a_edge19&#45;headlabel"><a xlink:href="dir_000558_000076.html" target="_top" xlink:title="48">
<text text-anchor="middle" x="461.5032" y="-127.3562" font-family="Helvetica,sans-Serif" font-size="10.00" fill="#000000">48</text>
</a>
</g>
</g>
<!-- dir_37c90836491b695b472bf98d1be8336b&#45;&gt;dir_4ab6b4cc6a7edbff49100e9123df213f -->
<g id="edge20" class="edge">
<title>dir_37c90836491b695b472bf98d1be8336b&#45;&gt;dir_4ab6b4cc6a7edbff49100e9123df213f</title>
<path fill="none" stroke="#000000" d="M551.4726,-108.2575C579.5906,-139.0493 633.7719,-204.573 654,-272 660.6409,-294.1364 663.9737,-303.1517 654,-324 647.9376,-336.6725 637.2893,-347.321 626.242,-355.7226"/>
<polygon fill="#000000" stroke="#000000" points="623.9274,-353.0728 617.7856,-361.7058 627.9705,-358.7871 623.9274,-353.0728"/>
<g id="a_edge20&#45;headlabel"><a xlink:href="dir_000274_000027.html" target="_top" xlink:title="16">
<text text-anchor="middle" x="625.2219" y="-346.1788" font-family="Helvetica,sans-Serif" font-size="10.00" fill="#000000">16</text>
</a>
</g>
</g>
<!-- dir_37c90836491b695b472bf98d1be8336b&#45;&gt;dir_f511f1e9c03c071966ae594f00bbc5e0 -->
<g id="edge21" class="edge">
<title>dir_37c90836491b695b472bf98d1be8336b&#45;&gt;dir_f511f1e9c03c071966ae594f00bbc5e0</title>
<path fill="none" stroke="#000000" d="M536.0253,-108.1469C538.7119,-139.0791 540.9316,-203.3836 520,-252 515.605,-262.208 508.5457,-271.8733 501.2197,-280.1296"/>
<polygon fill="#000000" stroke="#000000" points="498.5043,-277.9077 494.1924,-287.5854 503.5983,-282.7089 498.5043,-277.9077"/>
<g id="a_edge21&#45;headlabel"><a xlink:href="dir_000274_000671.html" target="_top" xlink:title="14">
<text text-anchor="middle" x="498.9037" y="-270.8445" font-family="Helvetica,sans-Serif" font-size="10.00" fill="#000000">14</text>
</a>
</g>
</g>
<!-- dir_37c90836491b695b472bf98d1be8336b&#45;&gt;dir_bcbb2cf9a3d3d83e5515c82071a07177 -->
<g id="edge22" class="edge">
<title>dir_37c90836491b695b472bf98d1be8336b&#45;&gt;dir_bcbb2cf9a3d3d83e5515c82071a07177</title>
<path fill="none" stroke="#000000" d="M506.7356,-75.7751C487.6284,-65.8061 461.6818,-52.2688 439.7074,-40.8038"/>
<polygon fill="#000000" stroke="#000000" points="441.0493,-37.5563 430.5645,-36.0336 437.8113,-43.7624 441.0493,-37.5563"/>
<g id="a_edge22&#45;headlabel"><a xlink:href="dir_000274_000013.html" target="_top" xlink:title="1">
<text text-anchor="middle" x="445.5496" y="-34.2017" font-family="Helvetica,sans-Serif" font-size="10.00" fill="#000000">1</text>
</a>
</g>
</g>
<!-- dir_37c90836491b695b472bf98d1be8336b&#45;&gt;dir_2171f7ec022c5423887b07c69b2f5b48 -->
<g id="edge23" class="edge">
<title>dir_37c90836491b695b472bf98d1be8336b&#45;&gt;dir_2171f7ec022c5423887b07c69b2f5b48</title>
<path fill="none" stroke="#000000" d="M521.307,-108.4133C513.3498,-117.0787 502.9,-127.5464 492.8919,-136.9223"/>
<polygon fill="#000000" stroke="#000000" points="490.3684,-134.4879 485.3734,-143.8314 495.1048,-139.6422 490.3684,-134.4879"/>
<g id="a_edge23&#45;headlabel"><a xlink:href="dir_000274_000076.html" target="_top" xlink:title="10">
<text text-anchor="middle" x="491.094" y="-127.4651" font-family="Helvetica,sans-Serif" font-size="10.00" fill="#000000">10</text>
</a>
</g>
</g>
<!-- dir_f511f1e9c03c071966ae594f00bbc5e0&#45;&gt;dir_871aad07cbf94d6cd423c3d8d5bdf4e9 -->
<g id="edge34" class="edge">
<title>dir_f511f1e9c03c071966ae594f00bbc5e0&#45;&gt;dir_871aad07cbf94d6cd423c3d8d5bdf4e9</title>
<path fill="none" stroke="#000000" d="M445.699,-306C392.5967,-306 339.4944,-306 286.3922,-306"/>
<polygon fill="#000000" stroke="#000000" points="286.125,-302.5001 276.125,-306 286.125,-309.5001 286.125,-302.5001"/>
<g id="a_edge34&#45;headlabel"><a xlink:href="dir_000671_000044.html" target="_top" xlink:title="7">
<text text-anchor="middle" x="289.7196" y="-297.1607" font-family="Helvetica,sans-Serif" font-size="10.00" fill="#000000">7</text>
</a>
</g>
</g>
<!-- dir_f511f1e9c03c071966ae594f00bbc5e0&#45;&gt;dir_4ab6b4cc6a7edbff49100e9123df213f -->
<g id="edge35" class="edge">
<title>dir_f511f1e9c03c071966ae594f00bbc5e0&#45;&gt;dir_4ab6b4cc6a7edbff49100e9123df213f</title>
<path fill="none" stroke="#000000" d="M500.3743,-319.845C517.022,-329.5296 538.2133,-342.7142 555.5285,-354.0811"/>
<polygon fill="#000000" stroke="#000000" points="553.919,-357.2137 564.1854,-359.8314 557.7921,-351.3828 553.919,-357.2137"/>
<g id="a_edge35&#45;headlabel"><a xlink:href="dir_000671_000027.html" target="_top" xlink:title="2">
<text text-anchor="middle" x="549.3538" y="-355.0899" font-family="Helvetica,sans-Serif" font-size="10.00" fill="#000000">2</text>
</a>
</g>
</g>
<!-- dir_f511f1e9c03c071966ae594f00bbc5e0&#45;&gt;dir_b05a5fa85f84bfc9013183c9d87f9a36 -->
<g id="edge36" class="edge">
<title>dir_f511f1e9c03c071966ae594f00bbc5e0&#45;&gt;dir_b05a5fa85f84bfc9013183c9d87f9a36</title>
<path fill="none" stroke="#000000" d="M484.1214,-287.515C501.0371,-256.8944 529.3264,-194.0584 510,-144 505.8808,-133.3306 498.5664,-123.4665 490.8251,-115.1681"/>
<polygon fill="#000000" stroke="#000000" points="493.2181,-112.6113 483.675,-108.0091 488.2652,-117.558 493.2181,-112.6113"/>
<g id="a_edge36&#45;headlabel"><a xlink:href="dir_000671_000558.html" target="_top" xlink:title="4">
<text text-anchor="middle" x="497.7672" y="-110.6483" font-family="Helvetica,sans-Serif" font-size="10.00" fill="#000000">4</text>
</a>
</g>
</g>
<!-- dir_f511f1e9c03c071966ae594f00bbc5e0&#45;&gt;dir_26637d1bd82229bc9ed97f7e706be743 -->
<g id="edge37" class="edge">
<title>dir_f511f1e9c03c071966ae594f00bbc5e0&#45;&gt;dir_26637d1bd82229bc9ed97f7e706be743</title>
<path fill="none" stroke="#000000" d="M447.8696,-287.8314C438.0153,-279.2848 426.9198,-268.9443 417.549,-259.6198"/>
<polygon fill="#000000" stroke="#000000" points="419.968,-257.088 410.4602,-252.4133 414.9776,-261.9968 419.968,-257.088"/>
<g id="a_edge37&#45;headlabel"><a xlink:href="dir_000671_000562.html" target="_top" xlink:title="1">
<text text-anchor="middle" x="424.5129" y="-255.1595" font-family="Helvetica,sans-Serif" font-size="10.00" fill="#000000">1</text>
</a>
</g>
</g>
<!-- dir_f511f1e9c03c071966ae594f00bbc5e0&#45;&gt;dir_2171f7ec022c5423887b07c69b2f5b48 -->
<g id="edge38" class="edge">
<title>dir_f511f1e9c03c071966ae594f00bbc5e0&#45;&gt;dir_2171f7ec022c5423887b07c69b2f5b48</title>
<path fill="none" stroke="#000000" d="M466.807,-287.7623C462.3004,-263.201 458.3629,-219.2474 457.8654,-190.3541"/>
<polygon fill="#000000" stroke="#000000" points="461.3651,-190.084 457.8492,-180.0896 454.3651,-190.0952 461.3651,-190.084"/>
<g id="a_edge38&#45;headlabel"><a xlink:href="dir_000671_000076.html" target="_top" xlink:title="15">
<text text-anchor="middle" x="464.21" y="-191.1742" font-family="Helvetica,sans-Serif" font-size="10.00" fill="#000000">15</text>
</a>
</g>
</g>
<!-- dir_bcbb2cf9a3d3d83e5515c82071a07177&#45;&gt;dir_871aad07cbf94d6cd423c3d8d5bdf4e9 -->
<g id="edge39" class="edge">
<title>dir_bcbb2cf9a3d3d83e5515c82071a07177&#45;&gt;dir_871aad07cbf94d6cd423c3d8d5bdf4e9</title>
<path fill="none" stroke="#000000" d="M360.2089,-34.0806C342.0131,-43.4125 320.3523,-56.4074 304,-72 276.3435,-98.3717 272.744,-109.1794 257,-144 236.8883,-188.4807 231.6733,-203.4754 237,-252 237.9284,-260.4575 239.6514,-269.5285 241.5078,-277.7754"/>
<polygon fill="#000000" stroke="#000000" points="238.1456,-278.7644 243.8809,-287.6727 244.9527,-277.1322 238.1456,-278.7644"/>
<g id="a_edge39&#45;headlabel"><a xlink:href="dir_000013_000044.html" target="_top" xlink:title="1">
<text text-anchor="middle" x="234.5466" y="-273.4308" font-family="Helvetica,sans-Serif" font-size="10.00" fill="#000000">1</text>
</a>
</g>
</g>
<!-- dir_bcbb2cf9a3d3d83e5515c82071a07177&#45;&gt;dir_4ab6b4cc6a7edbff49100e9123df213f -->
<g id="edge40" class="edge">
<title>dir_bcbb2cf9a3d3d83e5515c82071a07177&#45;&gt;dir_4ab6b4cc6a7edbff49100e9123df213f</title>
<path fill="none" stroke="#000000" d="M431.7839,-20.5378C471.8817,-25.1103 536.3499,-37.7193 579,-72 636.4047,-118.14 630.8093,-148.8232 661,-216 680.9787,-260.454 703.3543,-281.2228 680,-324 669.0768,-344.0076 647.2153,-357.7079 627.3136,-366.3021"/>
<polygon fill="#000000" stroke="#000000" points="625.7478,-363.1585 617.7577,-370.1161 628.3427,-369.6598 625.7478,-363.1585"/>
<g id="a_edge40&#45;headlabel"><a xlink:href="dir_000013_000027.html" target="_top" xlink:title="8">
<text text-anchor="middle" x="628.0339" y="-356.6891" font-family="Helvetica,sans-Serif" font-size="10.00" fill="#000000">8</text>
</a>
</g>
</g>
<!-- dir_bcbb2cf9a3d3d83e5515c82071a07177&#45;&gt;dir_2171f7ec022c5423887b07c69b2f5b48 -->
<g id="edge41" class="edge">
<title>dir_bcbb2cf9a3d3d83e5515c82071a07177&#45;&gt;dir_2171f7ec022c5423887b07c69b2f5b48</title>
<path fill="none" stroke="#000000" d="M406.7215,-36.1881C413.3998,-54.8061 421.5129,-84.2906 433,-108 437.5123,-117.3133 443.4961,-126.8336 448.9285,-135.2352"/>
<polygon fill="#000000" stroke="#000000" points="446.1356,-137.3614 454.5111,-143.85 452.01,-133.5546 446.1356,-137.3614"/>
<g id="a_edge41&#45;headlabel"><a xlink:href="dir_000013_000076.html" target="_top" xlink:title="82">
<text text-anchor="middle" x="441.7981" y="-133.3889" font-family="Helvetica,sans-Serif" font-size="10.00" fill="#000000">82</text>
</a>
</g>
</g>
<!-- dir_26637d1bd82229bc9ed97f7e706be743&#45;&gt;dir_4ab6b4cc6a7edbff49100e9123df213f -->
<g id="edge42" class="edge">
<title>dir_26637d1bd82229bc9ed97f7e706be743&#45;&gt;dir_4ab6b4cc6a7edbff49100e9123df213f</title>
<path fill="none" stroke="#000000" d="M400.5598,-252.0195C405.4379,-272.1803 416.0885,-304.5555 437,-324 467.1781,-352.0611 512.9905,-365.7474 546.0442,-372.2878"/>
<polygon fill="#000000" stroke="#000000" points="545.8239,-375.8058 556.2916,-374.1694 547.0881,-368.9209 545.8239,-375.8058"/>
<g id="a_edge42&#45;headlabel"><a xlink:href="dir_000562_000027.html" target="_top" xlink:title="9">
<text text-anchor="middle" x="541.7757" y="-375.4493" font-family="Helvetica,sans-Serif" font-size="10.00" fill="#000000">9</text>
</a>
</g>
</g>
<!-- dir_26637d1bd82229bc9ed97f7e706be743&#45;&gt;dir_f511f1e9c03c071966ae594f00bbc5e0 -->
<g id="edge43" class="edge">
<title>dir_26637d1bd82229bc9ed97f7e706be743&#45;&gt;dir_f511f1e9c03c071966ae594f00bbc5e0</title>
<path fill="none" stroke="#000000" d="M422.1237,-252.1628C432.0532,-260.7744 443.2438,-271.2081 452.6606,-280.5888"/>
<polygon fill="#000000" stroke="#000000" points="450.27,-283.1497 459.7744,-287.8314 455.2639,-278.2446 450.27,-283.1497"/>
<g id="a_edge43&#45;headlabel"><a xlink:href="dir_000562_000671.html" target="_top" xlink:title="2">
<text text-anchor="middle" x="445.7256" y="-280.0749" font-family="Helvetica,sans-Serif" font-size="10.00" fill="#000000">2</text>
</a>
</g>
</g>
<!-- dir_26637d1bd82229bc9ed97f7e706be743&#45;&gt;dir_bcbb2cf9a3d3d83e5515c82071a07177 -->
<g id="edge44" class="edge">
<title>dir_26637d1bd82229bc9ed97f7e706be743&#45;&gt;dir_bcbb2cf9a3d3d83e5515c82071a07177</title>
<path fill="none" stroke="#000000" d="M396.9165,-215.9555C396.7426,-178.3938 396.3405,-91.5541 396.1315,-46.4103"/>
<polygon fill="#000000" stroke="#000000" points="399.6304,-46.1287 396.084,-36.1451 392.6304,-46.1612 399.6304,-46.1287"/>
<g id="a_edge44&#45;headlabel"><a xlink:href="dir_000562_000013.html" target="_top" xlink:title="25">
<text text-anchor="middle" x="402.4861" y="-47.2102" font-family="Helvetica,sans-Serif" font-size="10.00" fill="#000000">25</text>
</a>
</g>
</g>
<!-- dir_26637d1bd82229bc9ed97f7e706be743&#45;&gt;dir_2171f7ec022c5423887b07c69b2f5b48 -->
<g id="edge45" class="edge">
<title>dir_26637d1bd82229bc9ed97f7e706be743&#45;&gt;dir_2171f7ec022c5423887b07c69b2f5b48</title>
<path fill="none" stroke="#000000" d="M413.1499,-215.8314C420.6717,-207.3694 429.7565,-197.1489 437.9804,-187.8971"/>
<polygon fill="#000000" stroke="#000000" points="440.6049,-190.2127 444.6327,-180.4133 435.373,-185.5621 440.6049,-190.2127"/>
<g id="a_edge45&#45;headlabel"><a xlink:href="dir_000562_000076.html" target="_top" xlink:title="15">
<text text-anchor="middle" x="440.3389" y="-192.2856" font-family="Helvetica,sans-Serif" font-size="10.00" fill="#000000">15</text>
</a>
</g>
</g>
<!-- dir_2171f7ec022c5423887b07c69b2f5b48&#45;&gt;dir_85bf31a2e8d306e7598ffcb73f8df6bf -->
<g id="edge49" class="edge">
<title>dir_2171f7ec022c5423887b07c69b2f5b48&#45;&gt;dir_85bf31a2e8d306e7598ffcb73f8df6bf</title>
<path fill="none" stroke="#000000" d="M420.8025,-171.6957C394.4906,-179.7948 360.8726,-193.6914 338,-216 327.658,-226.087 292.2206,-307.044 273.6167,-350.5567"/>
<polygon fill="#000000" stroke="#000000" points="270.2964,-349.4205 269.5955,-359.9921 276.736,-352.1649 270.2964,-349.4205"/>
<g id="a_edge49&#45;headlabel"><a xlink:href="dir_000076_000061.html" target="_top" xlink:title="1">
<text text-anchor="middle" x="269.0937" y="-342.5005" font-family="Helvetica,sans-Serif" font-size="10.00" fill="#000000">1</text>
</a>
</g>
</g>
<!-- dir_2171f7ec022c5423887b07c69b2f5b48&#45;&gt;dir_4ab6b4cc6a7edbff49100e9123df213f -->
<g id="edge46" class="edge">
<title>dir_2171f7ec022c5423887b07c69b2f5b48&#45;&gt;dir_4ab6b4cc6a7edbff49100e9123df213f</title>
<path fill="none" stroke="#000000" d="M494.4774,-180.0224C507.442,-189.6064 521.3046,-202.242 531,-216 560.6137,-258.0224 579.5224,-315.4887 586.2909,-349.478"/>
<polygon fill="#000000" stroke="#000000" points="582.8966,-350.3879 588.0601,-359.6393 589.7929,-349.1871 582.8966,-350.3879"/>
<g id="a_edge46&#45;headlabel"><a xlink:href="dir_000076_000027.html" target="_top" xlink:title="35">
<text text-anchor="middle" x="579.4829" y="-344.8335" font-family="Helvetica,sans-Serif" font-size="10.00" fill="#000000">35</text>
</a>
</g>
</g>
<!-- dir_2171f7ec022c5423887b07c69b2f5b48&#45;&gt;dir_b05a5fa85f84bfc9013183c9d87f9a36 -->
<g id="edge47" class="edge">
<title>dir_2171f7ec022c5423887b07c69b2f5b48&#45;&gt;dir_b05a5fa85f84bfc9013183c9d87f9a36</title>
<path fill="none" stroke="#000000" d="M455.0476,-143.8314C454.2972,-136.131 454.0763,-126.9743 454.3849,-118.4166"/>
<polygon fill="#000000" stroke="#000000" points="457.8792,-118.6161 455.024,-108.4133 450.8935,-118.1697 457.8792,-118.6161"/>
<g id="a_edge47&#45;headlabel"><a xlink:href="dir_000076_000558.html" target="_top" xlink:title="1">
<text text-anchor="middle" x="460.4836" y="-119.8844" font-family="Helvetica,sans-Serif" font-size="10.00" fill="#000000">1</text>
</a>
</g>
</g>
<!-- dir_2171f7ec022c5423887b07c69b2f5b48&#45;&gt;dir_37c90836491b695b472bf98d1be8336b -->
<g id="edge48" class="edge">
<title>dir_2171f7ec022c5423887b07c69b2f5b48&#45;&gt;dir_37c90836491b695b472bf98d1be8336b</title>
<path fill="none" stroke="#000000" d="M473.4686,-143.8314C481.4394,-135.1337 491.9694,-124.5783 502.056,-115.1265"/>
<polygon fill="#000000" stroke="#000000" points="504.6386,-117.5066 509.6331,-108.1628 499.9019,-112.3526 504.6386,-117.5066"/>
<g id="a_edge48&#45;headlabel"><a xlink:href="dir_000076_000274.html" target="_top" xlink:title="1">
<text text-anchor="middle" x="503.9132" y="-119.5294" font-family="Helvetica,sans-Serif" font-size="10.00" fill="#000000">1</text>
</a>
</g>
</g>
<!-- dir_2171f7ec022c5423887b07c69b2f5b48&#45;&gt;dir_f511f1e9c03c071966ae594f00bbc5e0 -->
<g id="edge50" class="edge">
<title>dir_2171f7ec022c5423887b07c69b2f5b48&#45;&gt;dir_f511f1e9c03c071966ae594f00bbc5e0</title>
<path fill="none" stroke="#000000" d="M467.1658,-180.0896C471.6746,-204.5727 475.6202,-248.5174 476.1315,-277.4713"/>
<polygon fill="#000000" stroke="#000000" points="472.6321,-277.7698 476.1534,-287.7623 479.6321,-277.7549 472.6321,-277.7698"/>
<g id="a_edge50&#45;headlabel"><a xlink:href="dir_000076_000671.html" target="_top" xlink:title="17">
<text text-anchor="middle" x="469.7853" y="-271.6812" font-family="Helvetica,sans-Serif" font-size="10.00" fill="#000000">17</text>
</a>
</g>
</g>
<!-- dir_2171f7ec022c5423887b07c69b2f5b48&#45;&gt;dir_bcbb2cf9a3d3d83e5515c82071a07177 -->
<g id="edge51" class="edge">
<title>dir_2171f7ec022c5423887b07c69b2f5b48&#45;&gt;dir_bcbb2cf9a3d3d83e5515c82071a07177</title>
<path fill="none" stroke="#000000" d="M438.5567,-143.85C430.0173,-133.7477 421.1444,-120.682 415,-108 405.3975,-88.1804 398.1527,-64.3252 394.7484,-46.1556"/>
<polygon fill="#000000" stroke="#000000" points="398.1935,-45.5318 393.1989,-36.1881 391.2766,-46.6071 398.1935,-45.5318"/>
<g id="a_edge51&#45;headlabel"><a xlink:href="dir_000076_000013.html" target="_top" xlink:title="10">
<text text-anchor="middle" x="401.5512" y="-46.1477" font-family="Helvetica,sans-Serif" font-size="10.00" fill="#000000">10</text>
</a>
</g>
</g>
</g>
</svg>
