<?xml version="1.0" encoding="UTF-8" standalone="no"?>
<!DOCTYPE svg PUBLIC "-//W3C//DTD SVG 1.1//EN"
 "http://www.w3.org/Graphics/SVG/1.1/DTD/svg11.dtd">
<!-- Generated by graphviz version 2.40.1 (20161225.0304)
 -->
<!-- Title: /home/travis/build/AliceO2Group/AliceO2/Detectors/ITSMFT/common/workflow/src Pages: 1 -->
<!--zoomable 583 -->
<svg id="main" version="1.1" xmlns="http://www.w3.org/2000/svg" xmlns:xlink="http://www.w3.org/1999/xlink" xml:space="preserve" onload="init(evt)">
<style type="text/css"><![CDATA[
.edge:hover path { stroke: red; }
.edge:hover polygon { stroke: red; fill: red; }
]]></style>
<script type="text/javascript"><![CDATA[
var edges = document.getElementsByTagName('g');
if (edges && edges.length) {
  for (var i=0;i<edges.length;i++) {
    if (edges[i].id.substr(0,4)=='edge') {
      edges[i].setAttribute('class','edge');
    }
  }
}
]]></script>
        <defs>
                <circle id="rim" cx="0" cy="0" r="7"/>
                <circle id="rim2" cx="0" cy="0" r="3.5"/>
                <g id="zoomPlus">
                        <use xlink:href="#rim" fill="#404040">
                                <set attributeName="fill" to="#808080" begin="zoomplus.mouseover" end="zoomplus.mouseout"/>
                        </use>
                        <path d="M-4,0h8M0,-4v8" fill="none" stroke="white" stroke-width="1.5" pointer-events="none"/>
                </g>
                <g id="zoomMin">
                        <use xlink:href="#rim" fill="#404040">
                                <set attributeName="fill" to="#808080" begin="zoomminus.mouseover" end="zoomminus.mouseout"/>
                        </use>
                        <path d="M-4,0h8" fill="none" stroke="white" stroke-width="1.5" pointer-events="none"/>
                </g>
                <g id="dirArrow">
                        <path fill="none" stroke="white" stroke-width="1.5" d="M0,-3.0v7 M-2.5,-0.5L0,-3.0L2.5,-0.5"/>
                </g>
               <g id="resetDef">
                       <use xlink:href="#rim2" fill="#404040">
                               <set attributeName="fill" to="#808080" begin="reset.mouseover" end="reset.mouseout"/>
                       </use>
               </g>
        </defs>

<script type="text/javascript">
var viewWidth = 562;
var viewHeight = 583;
var sectionId = 'dynsection-0';
</script>
<script xlink:href="svgpan.js"/>
<svg id="graph" class="graph">
<g id="viewport">
<title>/home/travis/build/AliceO2Group/AliceO2/Detectors/ITSMFT/common/workflow/src</title>
<g id="clust1" class="cluster">
<title>clusterdir_cd7d5e2598ca22d0234e65e7e58f6fe3</title>
<g id="a_clust1"><a xlink:href="dir_cd7d5e2598ca22d0234e65e7e58f6fe3.html" target="_top" xlink:title="workflow">
<polygon fill="#ddddee" stroke="#000000" points="284,-496 284,-567 354,-567 354,-496 284,-496"/>
<text text-anchor="middle" x="319" y="-555" font-family="Helvetica,sans-Serif" font-size="10.00" fill="#000000">workflow</text>
</a>
</g>
</g>
<!-- dir_98223cd4f657b249d6dd7fcd39e2d94b -->
<g id="node1" class="node">
<title>dir_98223cd4f657b249d6dd7fcd39e2d94b</title>
<g id="a_node1"><a xlink:href="dir_98223cd4f657b249d6dd7fcd39e2d94b.html" target="_top" xlink:title="src">
<polygon fill="#eeeeff" stroke="#000000" points="346,-540 292,-540 292,-504 346,-504 346,-540"/>
<text text-anchor="middle" x="319" y="-519.5" font-family="Helvetica,sans-Serif" font-size="10.00" fill="#000000">src</text>
</a>
</g>
</g>
<!-- dir_871aad07cbf94d6cd423c3d8d5bdf4e9 -->
<g id="node2" class="node">
<title>dir_871aad07cbf94d6cd423c3d8d5bdf4e9</title>
<g id="a_node2"><a xlink:href="dir_871aad07cbf94d6cd423c3d8d5bdf4e9.html" target="_top" xlink:title="ITS">
<polygon fill="none" stroke="#ff0000" points="319,-468 265,-468 265,-432 319,-432 319,-468"/>
<text text-anchor="middle" x="292" y="-447.5" font-family="Helvetica,sans-Serif" font-size="10.00" fill="#000000">ITS</text>
</a>
</g>
</g>
<!-- dir_98223cd4f657b249d6dd7fcd39e2d94b&#45;&gt;dir_871aad07cbf94d6cd423c3d8d5bdf4e9 -->
<g id="edge22" class="edge">
<title>dir_98223cd4f657b249d6dd7fcd39e2d94b&#45;&gt;dir_871aad07cbf94d6cd423c3d8d5bdf4e9</title>
<path fill="none" stroke="#000000" d="M312.1868,-503.8314C309.2356,-495.9617 305.7142,-486.5712 302.445,-477.8533"/>
<polygon fill="#000000" stroke="#000000" points="305.6934,-476.5476 298.905,-468.4133 299.1391,-479.0055 305.6934,-476.5476"/>
<g id="a_edge22&#45;headlabel"><a xlink:href="dir_000483_000044.html" target="_top" xlink:title="1">
<text text-anchor="middle" x="309.614" y="-476.4164" font-family="Helvetica,sans-Serif" font-size="10.00" fill="#000000">1</text>
</a>
</g>
</g>
<!-- dir_ddb3898f7e3847431eff59fd5513b916 -->
<g id="node3" class="node">
<title>dir_ddb3898f7e3847431eff59fd5513b916</title>
<g id="a_node3"><a xlink:href="dir_ddb3898f7e3847431eff59fd5513b916.html" target="_top" xlink:title="include">
<polygon fill="none" stroke="#ff0000" points="374,-396 320,-396 320,-360 374,-360 374,-396"/>
<text text-anchor="middle" x="347" y="-375.5" font-family="Helvetica,sans-Serif" font-size="10.00" fill="#000000">include</text>
</a>
</g>
</g>
<!-- dir_98223cd4f657b249d6dd7fcd39e2d94b&#45;&gt;dir_ddb3898f7e3847431eff59fd5513b916 -->
<g id="edge23" class="edge">
<title>dir_98223cd4f657b249d6dd7fcd39e2d94b&#45;&gt;dir_ddb3898f7e3847431eff59fd5513b916</title>
<path fill="none" stroke="#000000" d="M322.5462,-503.7623C327.3431,-479.0928 335.9439,-434.8598 341.5608,-405.9731"/>
<polygon fill="#000000" stroke="#000000" points="345.0095,-406.5738 343.4826,-396.0896 338.1381,-405.2377 345.0095,-406.5738"/>
<g id="a_edge23&#45;headlabel"><a xlink:href="dir_000483_000481.html" target="_top" xlink:title="5">
<text text-anchor="middle" x="347.1105" y="-408.1443" font-family="Helvetica,sans-Serif" font-size="10.00" fill="#000000">5</text>
</a>
</g>
</g>
<!-- dir_2174d8cbbd82d5c404dd04814f845a3a -->
<g id="node4" class="node">
<title>dir_2174d8cbbd82d5c404dd04814f845a3a</title>
<g id="a_node4"><a xlink:href="dir_2174d8cbbd82d5c404dd04814f845a3a.html" target="_top" xlink:title="reconstruction">
<polygon fill="none" stroke="#ff0000" points="369,-324 283,-324 283,-288 369,-288 369,-324"/>
<text text-anchor="middle" x="326" y="-303.5" font-family="Helvetica,sans-Serif" font-size="10.00" fill="#000000">reconstruction</text>
</a>
</g>
</g>
<!-- dir_98223cd4f657b249d6dd7fcd39e2d94b&#45;&gt;dir_2174d8cbbd82d5c404dd04814f845a3a -->
<g id="edge24" class="edge">
<title>dir_98223cd4f657b249d6dd7fcd39e2d94b&#45;&gt;dir_2174d8cbbd82d5c404dd04814f845a3a</title>
<path fill="none" stroke="#000000" d="M331.7449,-503.8813C347.4489,-480.3289 373.248,-437.3103 383,-396 386.676,-380.428 389.3221,-374.698 383,-360 378.2509,-348.9589 370.0115,-339.1176 361.2494,-330.9593"/>
<polygon fill="#000000" stroke="#000000" points="363.339,-328.1388 353.4894,-324.2354 358.755,-333.4291 363.339,-328.1388"/>
<g id="a_edge24&#45;headlabel"><a xlink:href="dir_000483_000355.html" target="_top" xlink:title="6">
<text text-anchor="middle" x="367.9149" y="-325.847" font-family="Helvetica,sans-Serif" font-size="10.00" fill="#000000">6</text>
</a>
</g>
</g>
<!-- dir_4ab6b4cc6a7edbff49100e9123df213f -->
<g id="node5" class="node">
<title>dir_4ab6b4cc6a7edbff49100e9123df213f</title>
<g id="a_node5"><a xlink:href="dir_4ab6b4cc6a7edbff49100e9123df213f.html" target="_top" xlink:title="Common">
<polygon fill="none" stroke="#ff0000" points="297.5,-252 236.5,-252 236.5,-216 297.5,-216 297.5,-252"/>
<text text-anchor="middle" x="267" y="-231.5" font-family="Helvetica,sans-Serif" font-size="10.00" fill="#000000">Common</text>
</a>
</g>
</g>
<!-- dir_98223cd4f657b249d6dd7fcd39e2d94b&#45;&gt;dir_4ab6b4cc6a7edbff49100e9123df213f -->
<g id="edge25" class="edge">
<title>dir_98223cd4f657b249d6dd7fcd39e2d94b&#45;&gt;dir_4ab6b4cc6a7edbff49100e9123df213f</title>
<path fill="none" stroke="#000000" d="M291.9774,-506.6789C278.4784,-497.4052 263.4641,-484.2286 256,-468 224.4678,-399.4421 244.4228,-307.3389 257.7945,-261.8364"/>
<polygon fill="#000000" stroke="#000000" points="261.1992,-262.6708 260.772,-252.0846 254.5043,-260.6266 261.1992,-262.6708"/>
<g id="a_edge25&#45;headlabel"><a xlink:href="dir_000483_000027.html" target="_top" xlink:title="2">
<text text-anchor="middle" x="262.8651" y="-264.4378" font-family="Helvetica,sans-Serif" font-size="10.00" fill="#000000">2</text>
</a>
</g>
</g>
<!-- dir_37c90836491b695b472bf98d1be8336b -->
<g id="node6" class="node">
<title>dir_37c90836491b695b472bf98d1be8336b</title>
<g id="a_node6"><a xlink:href="dir_37c90836491b695b472bf98d1be8336b.html" target="_top" xlink:title="Base">
<polygon fill="none" stroke="#ff0000" points="198,-36 144,-36 144,0 198,0 198,-36"/>
<text text-anchor="middle" x="171" y="-15.5" font-family="Helvetica,sans-Serif" font-size="10.00" fill="#000000">Base</text>
</a>
</g>
</g>
<!-- dir_98223cd4f657b249d6dd7fcd39e2d94b&#45;&gt;dir_37c90836491b695b472bf98d1be8336b -->
<g id="edge26" class="edge">
<title>dir_98223cd4f657b249d6dd7fcd39e2d94b&#45;&gt;dir_37c90836491b695b472bf98d1be8336b</title>
<path fill="none" stroke="#000000" d="M291.9478,-520.1586C247.7986,-516.1773 158.6073,-503.9927 93,-468 42.5712,-440.3344 0,-435.5191 0,-378 0,-378 0,-378 0,-162 0,-115.3524 19.2827,-103.1562 54,-72 76.975,-51.3816 109.1752,-37.3014 133.9805,-28.7015"/>
<polygon fill="#000000" stroke="#000000" points="135.3783,-31.9255 143.7687,-25.4562 133.1753,-25.2811 135.3783,-31.9255"/>
<g id="a_edge26&#45;headlabel"><a xlink:href="dir_000483_000274.html" target="_top" xlink:title="1">
<text text-anchor="middle" x="132.8599" y="-33.2517" font-family="Helvetica,sans-Serif" font-size="10.00" fill="#000000">1</text>
</a>
</g>
</g>
<!-- dir_7c9998090bca7c4aa89c05dd66fe73f5 -->
<g id="node7" class="node">
<title>dir_7c9998090bca7c4aa89c05dd66fe73f5</title>
<g id="a_node7"><a xlink:href="dir_7c9998090bca7c4aa89c05dd66fe73f5.html" target="_top" xlink:title="base">
<polygon fill="none" stroke="#ff0000" points="372,-36 318,-36 318,0 372,0 372,-36"/>
<text text-anchor="middle" x="345" y="-15.5" font-family="Helvetica,sans-Serif" font-size="10.00" fill="#000000">base</text>
</a>
</g>
</g>
<!-- dir_98223cd4f657b249d6dd7fcd39e2d94b&#45;&gt;dir_7c9998090bca7c4aa89c05dd66fe73f5 -->
<g id="edge27" class="edge">
<title>dir_98223cd4f657b249d6dd7fcd39e2d94b&#45;&gt;dir_7c9998090bca7c4aa89c05dd66fe73f5</title>
<path fill="none" stroke="#000000" d="M346.4174,-518.3089C408.4078,-508.2659 554,-474.4157 554,-378 554,-378 554,-378 554,-162 554,-79.5258 442.2757,-40.6745 382.1994,-25.7451"/>
<polygon fill="#000000" stroke="#000000" points="382.8622,-22.3051 372.3231,-23.3904 381.2387,-29.1142 382.8622,-22.3051"/>
<g id="a_edge27&#45;headlabel"><a xlink:href="dir_000483_000470.html" target="_top" xlink:title="2">
<text text-anchor="middle" x="387.0173" y="-17.8768" font-family="Helvetica,sans-Serif" font-size="10.00" fill="#000000">2</text>
</a>
</g>
</g>
<!-- dir_bcbb2cf9a3d3d83e5515c82071a07177 -->
<g id="node8" class="node">
<title>dir_bcbb2cf9a3d3d83e5515c82071a07177</title>
<g id="a_node8"><a xlink:href="dir_bcbb2cf9a3d3d83e5515c82071a07177.html" target="_top" xlink:title="Framework">
<polygon fill="none" stroke="#ff0000" points="165.5,-180 94.5,-180 94.5,-144 165.5,-144 165.5,-180"/>
<text text-anchor="middle" x="130" y="-159.5" font-family="Helvetica,sans-Serif" font-size="10.00" fill="#000000">Framework</text>
</a>
</g>
</g>
<!-- dir_98223cd4f657b249d6dd7fcd39e2d94b&#45;&gt;dir_bcbb2cf9a3d3d83e5515c82071a07177 -->
<g id="edge28" class="edge">
<title>dir_98223cd4f657b249d6dd7fcd39e2d94b&#45;&gt;dir_bcbb2cf9a3d3d83e5515c82071a07177</title>
<path fill="none" stroke="#000000" d="M291.5972,-518.7723C228.0465,-509.6073 76,-477.3032 76,-378 76,-378 76,-378 76,-306 76,-263.061 97.3106,-217.2426 113.157,-189.1081"/>
<polygon fill="#000000" stroke="#000000" points="116.2911,-190.6804 118.2828,-180.2744 110.2366,-187.1672 116.2911,-190.6804"/>
<g id="a_edge28&#45;headlabel"><a xlink:href="dir_000483_000013.html" target="_top" xlink:title="11">
<text text-anchor="middle" x="116.9429" y="-192.7145" font-family="Helvetica,sans-Serif" font-size="10.00" fill="#000000">11</text>
</a>
</g>
</g>
<!-- dir_2171f7ec022c5423887b07c69b2f5b48 -->
<g id="node9" class="node">
<title>dir_2171f7ec022c5423887b07c69b2f5b48</title>
<g id="a_node9"><a xlink:href="dir_2171f7ec022c5423887b07c69b2f5b48.html" target="_top" xlink:title="DataFormats">
<polygon fill="none" stroke="#ff0000" points="298,-108 218,-108 218,-72 298,-72 298,-108"/>
<text text-anchor="middle" x="258" y="-87.5" font-family="Helvetica,sans-Serif" font-size="10.00" fill="#000000">DataFormats</text>
</a>
</g>
</g>
<!-- dir_98223cd4f657b249d6dd7fcd39e2d94b&#45;&gt;dir_2171f7ec022c5423887b07c69b2f5b48 -->
<g id="edge29" class="edge">
<title>dir_98223cd4f657b249d6dd7fcd39e2d94b&#45;&gt;dir_2171f7ec022c5423887b07c69b2f5b48</title>
<path fill="none" stroke="#000000" d="M343.8879,-503.8422C355.3973,-494.3133 368.3927,-481.7649 377,-468 420.165,-398.9701 418.2619,-369.0901 411,-288 404.9306,-220.2262 407.2457,-191.9841 359,-144 344.4736,-129.5523 325.2785,-117.9868 307.5263,-109.3238"/>
<polygon fill="#000000" stroke="#000000" points="308.9479,-106.1248 298.4069,-105.0583 305.9821,-112.4655 308.9479,-106.1248"/>
<g id="a_edge29&#45;headlabel"><a xlink:href="dir_000483_000076.html" target="_top" xlink:title="9">
<text text-anchor="middle" x="313.4069" y="-102.5759" font-family="Helvetica,sans-Serif" font-size="10.00" fill="#000000">9</text>
</a>
</g>
</g>
<!-- dir_871aad07cbf94d6cd423c3d8d5bdf4e9&#45;&gt;dir_ddb3898f7e3847431eff59fd5513b916 -->
<g id="edge1" class="edge">
<title>dir_871aad07cbf94d6cd423c3d8d5bdf4e9&#45;&gt;dir_ddb3898f7e3847431eff59fd5513b916</title>
<path fill="none" stroke="#000000" d="M305.8788,-431.8314C312.2136,-423.5386 319.8384,-413.557 326.7926,-404.4533"/>
<polygon fill="#000000" stroke="#000000" points="329.6452,-406.4847 332.9343,-396.4133 324.0825,-402.2353 329.6452,-406.4847"/>
<g id="a_edge1&#45;headlabel"><a xlink:href="dir_000044_000481.html" target="_top" xlink:title="1">
<text text-anchor="middle" x="329.7195" y="-408.5647" font-family="Helvetica,sans-Serif" font-size="10.00" fill="#000000">1</text>
</a>
</g>
</g>
<!-- dir_871aad07cbf94d6cd423c3d8d5bdf4e9&#45;&gt;dir_2174d8cbbd82d5c404dd04814f845a3a -->
<g id="edge2" class="edge">
<title>dir_871aad07cbf94d6cd423c3d8d5bdf4e9&#45;&gt;dir_2174d8cbbd82d5c404dd04814f845a3a</title>
<path fill="none" stroke="#000000" d="M295.4547,-431.9951C299.0322,-413.7725 304.9388,-384.8217 311,-360 313.0676,-351.5329 315.5248,-342.3795 317.8458,-334.0569"/>
<polygon fill="#000000" stroke="#000000" points="321.2179,-334.9943 320.5741,-324.4191 314.4826,-333.0876 321.2179,-334.9943"/>
<g id="a_edge2&#45;headlabel"><a xlink:href="dir_000044_000355.html" target="_top" xlink:title="28">
<text text-anchor="middle" x="322.9708" y="-336.7264" font-family="Helvetica,sans-Serif" font-size="10.00" fill="#000000">28</text>
</a>
</g>
</g>
<!-- dir_871aad07cbf94d6cd423c3d8d5bdf4e9&#45;&gt;dir_4ab6b4cc6a7edbff49100e9123df213f -->
<g id="edge3" class="edge">
<title>dir_871aad07cbf94d6cd423c3d8d5bdf4e9&#45;&gt;dir_4ab6b4cc6a7edbff49100e9123df213f</title>
<path fill="none" stroke="#000000" d="M289.0064,-431.6839C285.0919,-407.2034 278.2359,-362.4372 274,-324 271.7396,-303.4883 269.9526,-280.2673 268.75,-262.5504"/>
<polygon fill="#000000" stroke="#000000" points="272.225,-262.0532 268.0777,-252.3038 265.24,-262.5115 272.225,-262.0532"/>
<g id="a_edge3&#45;headlabel"><a xlink:href="dir_000044_000027.html" target="_top" xlink:title="35">
<text text-anchor="middle" x="275.2934" y="-262.9542" font-family="Helvetica,sans-Serif" font-size="10.00" fill="#000000">35</text>
</a>
</g>
</g>
<!-- dir_871aad07cbf94d6cd423c3d8d5bdf4e9&#45;&gt;dir_37c90836491b695b472bf98d1be8336b -->
<g id="edge4" class="edge">
<title>dir_871aad07cbf94d6cd423c3d8d5bdf4e9&#45;&gt;dir_37c90836491b695b472bf98d1be8336b</title>
<path fill="none" stroke="#000000" d="M264.8176,-441.5011C199.2925,-419.1353 38,-352.0879 38,-234 38,-234 38,-234 38,-162 38,-104.8167 95.2983,-60.6623 134.6778,-37.0688"/>
<polygon fill="#000000" stroke="#000000" points="136.8727,-39.8417 143.7645,-31.7947 133.3588,-33.7875 136.8727,-39.8417"/>
<g id="a_edge4&#45;headlabel"><a xlink:href="dir_000044_000274.html" target="_top" xlink:title="13">
<text text-anchor="middle" x="135.1891" y="-41.6017" font-family="Helvetica,sans-Serif" font-size="10.00" fill="#000000">13</text>
</a>
</g>
</g>
<!-- dir_871aad07cbf94d6cd423c3d8d5bdf4e9&#45;&gt;dir_7c9998090bca7c4aa89c05dd66fe73f5 -->
<g id="edge5" class="edge">
<title>dir_871aad07cbf94d6cd423c3d8d5bdf4e9&#45;&gt;dir_7c9998090bca7c4aa89c05dd66fe73f5</title>
<path fill="none" stroke="#000000" d="M319.2341,-445.2415C346.1588,-438.9726 386.1241,-425.1226 406,-396 482.2535,-284.2717 398.7375,-111.3269 361.2699,-45.0824"/>
<polygon fill="#000000" stroke="#000000" points="364.123,-43.0231 356.1005,-36.1028 358.0564,-46.5156 364.123,-43.0231"/>
<g id="a_edge5&#45;headlabel"><a xlink:href="dir_000044_000470.html" target="_top" xlink:title="10">
<text text-anchor="middle" x="368.377" y="-42.2218" font-family="Helvetica,sans-Serif" font-size="10.00" fill="#000000">10</text>
</a>
</g>
</g>
<!-- dir_871aad07cbf94d6cd423c3d8d5bdf4e9&#45;&gt;dir_bcbb2cf9a3d3d83e5515c82071a07177 -->
<g id="edge6" class="edge">
<title>dir_871aad07cbf94d6cd423c3d8d5bdf4e9&#45;&gt;dir_bcbb2cf9a3d3d83e5515c82071a07177</title>
<path fill="none" stroke="#000000" d="M271.0268,-431.9092C239.1502,-398.5419 179.7823,-324.1106 146,-252 136.741,-232.236 130.3077,-208.378 127.5958,-190.1932"/>
<polygon fill="#000000" stroke="#000000" points="131.0673,-189.7445 126.4359,-180.2156 124.1142,-190.5529 131.0673,-189.7445"/>
<g id="a_edge6&#45;headlabel"><a xlink:href="dir_000044_000013.html" target="_top" xlink:title="44">
<text text-anchor="middle" x="134.3026" y="-190.4873" font-family="Helvetica,sans-Serif" font-size="10.00" fill="#000000">44</text>
</a>
</g>
</g>
<!-- dir_871aad07cbf94d6cd423c3d8d5bdf4e9&#45;&gt;dir_2171f7ec022c5423887b07c69b2f5b48 -->
<g id="edge7" class="edge">
<title>dir_871aad07cbf94d6cd423c3d8d5bdf4e9&#45;&gt;dir_2171f7ec022c5423887b07c69b2f5b48</title>
<path fill="none" stroke="#000000" d="M319.2304,-441.1437C340.1351,-432.8701 367.8987,-418.3881 383,-396 409.9805,-356.0006 401.1277,-335.7189 394,-288 383.6535,-218.7321 376.5841,-196.2973 330,-144 320.1317,-132.9214 307.6785,-122.6321 295.9156,-114.0707"/>
<polygon fill="#000000" stroke="#000000" points="297.71,-111.0536 287.5192,-108.1555 293.6785,-116.7761 297.71,-111.0536"/>
<g id="a_edge7&#45;headlabel"><a xlink:href="dir_000044_000076.html" target="_top" xlink:title="111">
<text text-anchor="middle" x="302.2838" y="-108.3026" font-family="Helvetica,sans-Serif" font-size="10.00" fill="#000000">111</text>
</a>
</g>
</g>
<!-- dir_ddb3898f7e3847431eff59fd5513b916&#45;&gt;dir_2174d8cbbd82d5c404dd04814f845a3a -->
<g id="edge8" class="edge">
<title>dir_ddb3898f7e3847431eff59fd5513b916&#45;&gt;dir_2174d8cbbd82d5c404dd04814f845a3a</title>
<path fill="none" stroke="#000000" d="M341.7008,-359.8314C339.4302,-352.0463 336.7254,-342.7729 334.206,-334.1347"/>
<polygon fill="#000000" stroke="#000000" points="337.5306,-333.0332 331.3705,-324.4133 330.8106,-334.9933 337.5306,-333.0332"/>
<g id="a_edge8&#45;headlabel"><a xlink:href="dir_000481_000355.html" target="_top" xlink:title="3">
<text text-anchor="middle" x="341.2627" y="-333.1891" font-family="Helvetica,sans-Serif" font-size="10.00" fill="#000000">3</text>
</a>
</g>
</g>
<!-- dir_ddb3898f7e3847431eff59fd5513b916&#45;&gt;dir_bcbb2cf9a3d3d83e5515c82071a07177 -->
<g id="edge9" class="edge">
<title>dir_ddb3898f7e3847431eff59fd5513b916&#45;&gt;dir_bcbb2cf9a3d3d83e5515c82071a07177</title>
<path fill="none" stroke="#000000" d="M319.8491,-361.7354C285.1906,-339.9917 224.8371,-298.7268 184,-252 167.2796,-232.8681 152.7529,-207.8761 142.9909,-189.0842"/>
<polygon fill="#000000" stroke="#000000" points="146.1053,-187.487 138.4634,-180.1485 139.8611,-190.6508 146.1053,-187.487"/>
<g id="a_edge9&#45;headlabel"><a xlink:href="dir_000481_000013.html" target="_top" xlink:title="8">
<text text-anchor="middle" x="150.2626" y="-186.9102" font-family="Helvetica,sans-Serif" font-size="10.00" fill="#000000">8</text>
</a>
</g>
</g>
<!-- dir_ddb3898f7e3847431eff59fd5513b916&#45;&gt;dir_2171f7ec022c5423887b07c69b2f5b48 -->
<g id="edge10" class="edge">
<title>dir_ddb3898f7e3847431eff59fd5513b916&#45;&gt;dir_2171f7ec022c5423887b07c69b2f5b48</title>
<path fill="none" stroke="#000000" d="M360.7963,-359.5772C367.4026,-349.6044 374.6023,-336.743 378,-324 382.1221,-308.5401 381.8469,-303.5307 378,-288 361.0454,-219.5516 310.9731,-151.9313 281.1363,-116.1495"/>
<polygon fill="#000000" stroke="#000000" points="283.513,-113.5403 274.378,-108.1736 278.1724,-118.0657 283.513,-113.5403"/>
<g id="a_edge10&#45;headlabel"><a xlink:href="dir_000481_000076.html" target="_top" xlink:title="8">
<text text-anchor="middle" x="288.003" y="-111.9473" font-family="Helvetica,sans-Serif" font-size="10.00" fill="#000000">8</text>
</a>
</g>
</g>
<!-- dir_2174d8cbbd82d5c404dd04814f845a3a&#45;&gt;dir_4ab6b4cc6a7edbff49100e9123df213f -->
<g id="edge11" class="edge">
<title>dir_2174d8cbbd82d5c404dd04814f845a3a&#45;&gt;dir_4ab6b4cc6a7edbff49100e9123df213f</title>
<path fill="none" stroke="#000000" d="M311.1118,-287.8314C304.247,-279.454 295.9699,-269.3531 288.4489,-260.1749"/>
<polygon fill="#000000" stroke="#000000" points="291.1341,-257.9297 282.0886,-252.4133 285.7197,-262.3665 291.1341,-257.9297"/>
<g id="a_edge11&#45;headlabel"><a xlink:href="dir_000355_000027.html" target="_top" xlink:title="8">
<text text-anchor="middle" x="295.6085" y="-256.4104" font-family="Helvetica,sans-Serif" font-size="10.00" fill="#000000">8</text>
</a>
</g>
</g>
<!-- dir_2174d8cbbd82d5c404dd04814f845a3a&#45;&gt;dir_7c9998090bca7c4aa89c05dd66fe73f5 -->
<g id="edge12" class="edge">
<title>dir_2174d8cbbd82d5c404dd04814f845a3a&#45;&gt;dir_7c9998090bca7c4aa89c05dd66fe73f5</title>
<path fill="none" stroke="#000000" d="M327.1885,-287.9843C330.4007,-239.2939 339.2739,-104.7961 343.149,-46.0573"/>
<polygon fill="#000000" stroke="#000000" points="346.6459,-46.2176 343.8119,-36.0089 339.6611,-45.7568 346.6459,-46.2176"/>
<g id="a_edge12&#45;headlabel"><a xlink:href="dir_000355_000470.html" target="_top" xlink:title="4">
<text text-anchor="middle" x="349.2425" y="-47.4913" font-family="Helvetica,sans-Serif" font-size="10.00" fill="#000000">4</text>
</a>
</g>
</g>
<!-- dir_2174d8cbbd82d5c404dd04814f845a3a&#45;&gt;dir_bcbb2cf9a3d3d83e5515c82071a07177 -->
<g id="edge13" class="edge">
<title>dir_2174d8cbbd82d5c404dd04814f845a3a&#45;&gt;dir_bcbb2cf9a3d3d83e5515c82071a07177</title>
<path fill="none" stroke="#000000" d="M287.5366,-287.8472C268.6336,-278.2313 245.9119,-265.6063 227,-252 212.3608,-241.4677 179.1917,-210.001 155.7285,-187.2402"/>
<polygon fill="#000000" stroke="#000000" points="158.0951,-184.6595 148.4874,-180.1938 153.2132,-189.6763 158.0951,-184.6595"/>
<g id="a_edge13&#45;headlabel"><a xlink:href="dir_000355_000013.html" target="_top" xlink:title="6">
<text text-anchor="middle" x="162.6514" y="-182.6316" font-family="Helvetica,sans-Serif" font-size="10.00" fill="#000000">6</text>
</a>
</g>
</g>
<!-- dir_2174d8cbbd82d5c404dd04814f845a3a&#45;&gt;dir_2171f7ec022c5423887b07c69b2f5b48 -->
<g id="edge14" class="edge">
<title>dir_2174d8cbbd82d5c404dd04814f845a3a&#45;&gt;dir_2171f7ec022c5423887b07c69b2f5b48</title>
<path fill="none" stroke="#000000" d="M322.7751,-287.8724C319.3293,-269.5543 313.3557,-240.5308 306,-216 295.6128,-181.3594 280.2814,-142.6405 269.7561,-117.3816"/>
<polygon fill="#000000" stroke="#000000" points="272.9451,-115.9359 265.8415,-108.0753 266.4927,-118.6501 272.9451,-115.9359"/>
<g id="a_edge14&#45;headlabel"><a xlink:href="dir_000355_000076.html" target="_top" xlink:title="37">
<text text-anchor="middle" x="276.956" y="-115.6485" font-family="Helvetica,sans-Serif" font-size="10.00" fill="#000000">37</text>
</a>
</g>
</g>
<!-- dir_4ab6b4cc6a7edbff49100e9123df213f&#45;&gt;dir_bcbb2cf9a3d3d83e5515c82071a07177 -->
<g id="edge15" class="edge">
<title>dir_4ab6b4cc6a7edbff49100e9123df213f&#45;&gt;dir_bcbb2cf9a3d3d83e5515c82071a07177</title>
<path fill="none" stroke="#000000" d="M236.1646,-220.6261C215.8042,-210.6625 189.1268,-196.8103 167.5546,-185.0725"/>
<polygon fill="#000000" stroke="#000000" points="169.1058,-181.9314 158.6552,-180.189 165.7382,-188.0682 169.1058,-181.9314"/>
<g id="a_edge15&#45;headlabel"><a xlink:href="dir_000027_000013.html" target="_top" xlink:title="2">
<text text-anchor="middle" x="173.623" y="-178.6716" font-family="Helvetica,sans-Serif" font-size="10.00" fill="#000000">2</text>
</a>
</g>
</g>
<!-- dir_4ab6b4cc6a7edbff49100e9123df213f&#45;&gt;dir_2171f7ec022c5423887b07c69b2f5b48 -->
<g id="edge16" class="edge">
<title>dir_4ab6b4cc6a7edbff49100e9123df213f&#45;&gt;dir_2171f7ec022c5423887b07c69b2f5b48</title>
<path fill="none" stroke="#000000" d="M261.187,-215.7623C257.1921,-191.201 254.1702,-147.2474 254.2747,-118.3541"/>
<polygon fill="#000000" stroke="#000000" points="257.7791,-118.1552 254.4723,-108.0896 250.7804,-118.0204 257.7791,-118.1552"/>
<g id="a_edge16&#45;headlabel"><a xlink:href="dir_000027_000076.html" target="_top" xlink:title="2">
<text text-anchor="middle" x="260.5487" y="-119.3037" font-family="Helvetica,sans-Serif" font-size="10.00" fill="#000000">2</text>
</a>
</g>
</g>
<!-- dir_37c90836491b695b472bf98d1be8336b&#45;&gt;dir_4ab6b4cc6a7edbff49100e9123df213f -->
<g id="edge17" class="edge">
<title>dir_37c90836491b695b472bf98d1be8336b&#45;&gt;dir_4ab6b4cc6a7edbff49100e9123df213f</title>
<path fill="none" stroke="#000000" d="M178.4027,-36.002C185.9417,-54.2223 198.0472,-83.1715 209,-108 224.0158,-142.0389 242.0312,-180.8823 253.9572,-206.3346"/>
<polygon fill="#000000" stroke="#000000" points="250.9453,-208.1553 258.3633,-215.72 257.2818,-205.1805 250.9453,-208.1553"/>
<g id="a_edge17&#45;headlabel"><a xlink:href="dir_000274_000027.html" target="_top" xlink:title="16">
<text text-anchor="middle" x="246.8477" y="-203.608" font-family="Helvetica,sans-Serif" font-size="10.00" fill="#000000">16</text>
</a>
</g>
</g>
<!-- dir_37c90836491b695b472bf98d1be8336b&#45;&gt;dir_bcbb2cf9a3d3d83e5515c82071a07177 -->
<g id="edge18" class="edge">
<title>dir_37c90836491b695b472bf98d1be8336b&#45;&gt;dir_bcbb2cf9a3d3d83e5515c82071a07177</title>
<path fill="none" stroke="#000000" d="M165.8495,-36.0896C158.8479,-60.6805 146.2562,-104.905 138.0141,-133.8531"/>
<polygon fill="#000000" stroke="#000000" points="134.5649,-133.1861 135.1927,-143.7623 141.2974,-135.103 134.5649,-133.1861"/>
<g id="a_edge18&#45;headlabel"><a xlink:href="dir_000274_000013.html" target="_top" xlink:title="1">
<text text-anchor="middle" x="132.8185" y="-126.4514" font-family="Helvetica,sans-Serif" font-size="10.00" fill="#000000">1</text>
</a>
</g>
</g>
<!-- dir_37c90836491b695b472bf98d1be8336b&#45;&gt;dir_2171f7ec022c5423887b07c69b2f5b48 -->
<g id="edge19" class="edge">
<title>dir_37c90836491b695b472bf98d1be8336b&#45;&gt;dir_2171f7ec022c5423887b07c69b2f5b48</title>
<path fill="none" stroke="#000000" d="M198.2476,-35.665C209.8275,-44.507 223.1298,-55.3621 234.2984,-65.0389"/>
<polygon fill="#000000" stroke="#000000" points="232.184,-67.8409 241.9986,-71.8314 236.8146,-62.5914 232.184,-67.8409"/>
<g id="a_edge19&#45;headlabel"><a xlink:href="dir_000274_000076.html" target="_top" xlink:title="10">
<text text-anchor="middle" x="227.6101" y="-65.0923" font-family="Helvetica,sans-Serif" font-size="10.00" fill="#000000">10</text>
</a>
</g>
</g>
<!-- dir_7c9998090bca7c4aa89c05dd66fe73f5&#45;&gt;dir_4ab6b4cc6a7edbff49100e9123df213f -->
<g id="edge20" class="edge">
<title>dir_7c9998090bca7c4aa89c05dd66fe73f5&#45;&gt;dir_4ab6b4cc6a7edbff49100e9123df213f</title>
<path fill="none" stroke="#000000" d="M338.4476,-36.1451C324.7945,-73.9537 293.2253,-161.3762 277.0101,-206.2797"/>
<polygon fill="#000000" stroke="#000000" points="273.6206,-205.3612 273.5161,-215.9555 280.2045,-207.7387 273.6206,-205.3612"/>
<g id="a_edge20&#45;headlabel"><a xlink:href="dir_000470_000027.html" target="_top" xlink:title="4">
<text text-anchor="middle" x="272.171" y="-198.5159" font-family="Helvetica,sans-Serif" font-size="10.00" fill="#000000">4</text>
</a>
</g>
</g>
<!-- dir_7c9998090bca7c4aa89c05dd66fe73f5&#45;&gt;dir_2171f7ec022c5423887b07c69b2f5b48 -->
<g id="edge21" class="edge">
<title>dir_7c9998090bca7c4aa89c05dd66fe73f5&#45;&gt;dir_2171f7ec022c5423887b07c69b2f5b48</title>
<path fill="none" stroke="#000000" d="M329.0051,-36.1628C319.1549,-45.0301 306.2679,-55.8295 294.1371,-65.4219"/>
<polygon fill="#000000" stroke="#000000" points="291.6457,-62.9258 285.9062,-71.8314 295.9466,-68.4488 291.6457,-62.9258"/>
<g id="a_edge21&#45;headlabel"><a xlink:href="dir_000470_000076.html" target="_top" xlink:title="2">
<text text-anchor="middle" x="292.7374" y="-55.9772" font-family="Helvetica,sans-Serif" font-size="10.00" fill="#000000">2</text>
</a>
</g>
</g>
<!-- dir_bcbb2cf9a3d3d83e5515c82071a07177&#45;&gt;dir_871aad07cbf94d6cd423c3d8d5bdf4e9 -->
<g id="edge30" class="edge">
<title>dir_bcbb2cf9a3d3d83e5515c82071a07177&#45;&gt;dir_871aad07cbf94d6cd423c3d8d5bdf4e9</title>
<path fill="none" stroke="#000000" d="M139.9585,-180.2156C145.8913,-198.8555 152.9238,-228.3571 164,-252 195.275,-318.7587 248.4787,-387.5063 275.6115,-423.8189"/>
<polygon fill="#000000" stroke="#000000" points="272.8423,-425.9607 281.6097,-431.9092 278.4655,-421.7916 272.8423,-425.9607"/>
<g id="a_edge30&#45;headlabel"><a xlink:href="dir_000013_000044.html" target="_top" xlink:title="1">
<text text-anchor="middle" x="268.4207" y="-422.2641" font-family="Helvetica,sans-Serif" font-size="10.00" fill="#000000">1</text>
</a>
</g>
</g>
<!-- dir_bcbb2cf9a3d3d83e5515c82071a07177&#45;&gt;dir_4ab6b4cc6a7edbff49100e9123df213f -->
<g id="edge31" class="edge">
<title>dir_bcbb2cf9a3d3d83e5515c82071a07177&#45;&gt;dir_4ab6b4cc6a7edbff49100e9123df213f</title>
<path fill="none" stroke="#000000" d="M165.5961,-177.7173C185.2696,-187.455 209.6083,-200.1317 229.5572,-210.9883"/>
<polygon fill="#000000" stroke="#000000" points="227.931,-214.0883 238.3815,-215.8314 231.299,-207.9517 227.931,-214.0883"/>
<g id="a_edge31&#45;headlabel"><a xlink:href="dir_000013_000027.html" target="_top" xlink:title="8">
<text text-anchor="middle" x="223.4138" y="-212.3479" font-family="Helvetica,sans-Serif" font-size="10.00" fill="#000000">8</text>
</a>
</g>
</g>
<!-- dir_bcbb2cf9a3d3d83e5515c82071a07177&#45;&gt;dir_2171f7ec022c5423887b07c69b2f5b48 -->
<g id="edge32" class="edge">
<title>dir_bcbb2cf9a3d3d83e5515c82071a07177&#45;&gt;dir_2171f7ec022c5423887b07c69b2f5b48</title>
<path fill="none" stroke="#000000" d="M156.3474,-143.8314C172.1085,-134.4516 192.4964,-122.9112 210.908,-112.9244"/>
<polygon fill="#000000" stroke="#000000" points="212.6104,-115.9829 219.7587,-108.1628 209.294,-109.8183 212.6104,-115.9829"/>
<g id="a_edge32&#45;headlabel"><a xlink:href="dir_000013_000076.html" target="_top" xlink:title="82">
<text text-anchor="middle" x="210.79" y="-117.6862" font-family="Helvetica,sans-Serif" font-size="10.00" fill="#000000">82</text>
</a>
</g>
</g>
<!-- dir_2171f7ec022c5423887b07c69b2f5b48&#45;&gt;dir_4ab6b4cc6a7edbff49100e9123df213f -->
<g id="edge33" class="edge">
<title>dir_2171f7ec022c5423887b07c69b2f5b48&#45;&gt;dir_4ab6b4cc6a7edbff49100e9123df213f</title>
<path fill="none" stroke="#000000" d="M263.7889,-108.0896C267.7877,-132.5727 270.8178,-176.5174 270.7259,-205.4713"/>
<polygon fill="#000000" stroke="#000000" points="267.2211,-205.6985 270.5333,-215.7623 274.2199,-205.8296 267.2211,-205.6985"/>
<g id="a_edge33&#45;headlabel"><a xlink:href="dir_000076_000027.html" target="_top" xlink:title="35">
<text text-anchor="middle" x="264.4495" y="-199.5515" font-family="Helvetica,sans-Serif" font-size="10.00" fill="#000000">35</text>
</a>
</g>
</g>
<!-- dir_2171f7ec022c5423887b07c69b2f5b48&#45;&gt;dir_37c90836491b695b472bf98d1be8336b -->
<g id="edge34" class="edge">
<title>dir_2171f7ec022c5423887b07c69b2f5b48&#45;&gt;dir_37c90836491b695b472bf98d1be8336b</title>
<path fill="none" stroke="#000000" d="M230.0938,-71.8314C218.6253,-63.0485 205.5565,-52.3712 194.5722,-42.8489"/>
<polygon fill="#000000" stroke="#000000" points="196.8089,-40.1548 186.9949,-36.1628 192.1775,-45.4036 196.8089,-40.1548"/>
<g id="a_edge34&#45;headlabel"><a xlink:href="dir_000076_000274.html" target="_top" xlink:title="1">
<text text-anchor="middle" x="201.3828" y="-37.9041" font-family="Helvetica,sans-Serif" font-size="10.00" fill="#000000">1</text>
</a>
</g>
</g>
<!-- dir_2171f7ec022c5423887b07c69b2f5b48&#45;&gt;dir_7c9998090bca7c4aa89c05dd66fe73f5 -->
<g id="edge35" class="edge">
<title>dir_2171f7ec022c5423887b07c69b2f5b48&#45;&gt;dir_7c9998090bca7c4aa89c05dd66fe73f5</title>
<path fill="none" stroke="#000000" d="M274.0014,-71.8314C284.0994,-62.7412 297.3874,-51.6219 309.7803,-41.8539"/>
<polygon fill="#000000" stroke="#000000" points="311.9995,-44.562 317.7524,-35.665 307.707,-39.0326 311.9995,-44.562"/>
<g id="a_edge35&#45;headlabel"><a xlink:href="dir_000076_000470.html" target="_top" xlink:title="1">
<text text-anchor="middle" x="310.9012" y="-46.509" font-family="Helvetica,sans-Serif" font-size="10.00" fill="#000000">1</text>
</a>
</g>
</g>
<!-- dir_2171f7ec022c5423887b07c69b2f5b48&#45;&gt;dir_bcbb2cf9a3d3d83e5515c82071a07177 -->
<g id="edge36" class="edge">
<title>dir_2171f7ec022c5423887b07c69b2f5b48&#45;&gt;dir_bcbb2cf9a3d3d83e5515c82071a07177</title>
<path fill="none" stroke="#000000" d="M231.8794,-108.0336C215.4013,-117.8461 193.8022,-130.0533 174.6925,-140.3744"/>
<polygon fill="#000000" stroke="#000000" points="172.9946,-137.3134 165.8308,-145.1192 176.2987,-143.4845 172.9946,-137.3134"/>
<g id="a_edge36&#45;headlabel"><a xlink:href="dir_000076_000013.html" target="_top" xlink:title="10">
<text text-anchor="middle" x="174.8233" y="-130.6136" font-family="Helvetica,sans-Serif" font-size="10.00" fill="#000000">10</text>
</a>
</g>
</g>
</g>
</svg>
        <g id="navigator" transform="translate(0 0)" fill="#404254">
                <rect fill="#f2f5e9" fill-opacity="0.5" stroke="#606060" stroke-width=".5" x="0" y="0" width="60" height="60"/>
                <use id="zoomplus" xlink:href="#zoomPlus" x="17" y="9" onmousedown="handleZoom(evt,'in')"/>
                <use id="zoomminus" xlink:href="#zoomMin" x="42" y="9" onmousedown="handleZoom(evt,'out')"/>
                <use id="reset" xlink:href="#resetDef" x="30" y="36" onmousedown="handleReset()"/>
                <g id="arrowUp" xlink:href="#dirArrow" transform="translate(30 24)" onmousedown="handlePan(0,-1)">
                  <use xlink:href="#rim" fill="#404040">
                        <set attributeName="fill" to="#808080" begin="arrowUp.mouseover" end="arrowUp.mouseout"/>
                  </use>
                  <path fill="none" stroke="white" stroke-width="1.5" d="M0,-3.0v7 M-2.5,-0.5L0,-3.0L2.5,-0.5"/>
                </g>
                <g id="arrowRight" xlink:href="#dirArrow" transform="rotate(90) translate(36 -43)" onmousedown="handlePan(1,0)">
                  <use xlink:href="#rim" fill="#404040">
                        <set attributeName="fill" to="#808080" begin="arrowRight.mouseover" end="arrowRight.mouseout"/>
                  </use>
                  <path fill="none" stroke="white" stroke-width="1.5" d="M0,-3.0v7 M-2.5,-0.5L0,-3.0L2.5,-0.5"/>
                </g>
                <g id="arrowDown" xlink:href="#dirArrow" transform="rotate(180) translate(-30 -48)" onmousedown="handlePan(0,1)">
                  <use xlink:href="#rim" fill="#404040">
                        <set attributeName="fill" to="#808080" begin="arrowDown.mouseover" end="arrowDown.mouseout"/>
                  </use>
                  <path fill="none" stroke="white" stroke-width="1.5" d="M0,-3.0v7 M-2.5,-0.5L0,-3.0L2.5,-0.5"/>
                </g>
                <g id="arrowLeft" xlink:href="#dirArrow" transform="rotate(270) translate(-36 17)" onmousedown="handlePan(-1,0)">
                  <use xlink:href="#rim" fill="#404040">
                        <set attributeName="fill" to="#808080" begin="arrowLeft.mouseover" end="arrowLeft.mouseout"/>
                  </use>
                  <path fill="none" stroke="white" stroke-width="1.5" d="M0,-3.0v7 M-2.5,-0.5L0,-3.0L2.5,-0.5"/>
                </g>
        </g>
        <svg viewBox="0 0 15 15" width="100%" height="30px" preserveAspectRatio="xMaxYMin meet">
         <g id="arrow_out" transform="scale(0.3 0.3)">
          <a xlink:href="dir_98223cd4f657b249d6dd7fcd39e2d94b_dep_org.svg" target="_base">
           <rect id="button" ry="5" rx="5" y="6" x="6" height="38" width="38"
                fill="#f2f5e9" fill-opacity="0.5" stroke="#606060" stroke-width="1.0"/>
           <path id="arrow"
             d="M 11.500037,31.436501 C 11.940474,20.09759 22.043105,11.32322 32.158766,21.979434 L 37.068811,17.246167 C 37.068811,17.246167 37.088388,32 37.088388,32 L 22.160133,31.978069 C 22.160133,31.978069 26.997745,27.140456 26.997745,27.140456 C 18.528582,18.264221 13.291696,25.230495 11.500037,31.436501 z"
             style="fill:#404040;"/>
          </a>
         </g>
        </svg>
</svg>
