<?xml version="1.0" encoding="UTF-8" standalone="no"?>
<!DOCTYPE svg PUBLIC "-//W3C//DTD SVG 1.1//EN"
 "http://www.w3.org/Graphics/SVG/1.1/DTD/svg11.dtd">
<!-- Generated by graphviz version 2.40.1 (20161225.0304)
 -->
<!-- Title: /home/travis/build/AliceO2Group/AliceO2/DataFormats/Detectors/ITSMFT Pages: 1 -->
<svg width="686pt" height="465pt"
 viewBox="0.00 0.00 686.48 464.56" xmlns="http://www.w3.org/2000/svg" xmlns:xlink="http://www.w3.org/1999/xlink">
<g id="graph0" class="graph" transform="scale(1 1) rotate(0) translate(4 460.5645)">
<title>/home/travis/build/AliceO2Group/AliceO2/DataFormats/Detectors/ITSMFT</title>
<g id="clust1" class="cluster">
<title>clusterdir_2801adc79bf3c286b1b479858d2cade4</title>
<g id="a_clust1"><a xlink:href="dir_2801adc79bf3c286b1b479858d2cade4.html" target="_top" xlink:title="Detectors">
<polygon fill="#ddddee" stroke="#000000" points="102,-272 102,-431 332,-431 332,-272 102,-272"/>
<text text-anchor="middle" x="217" y="-419" font-family="Helvetica,sans-Serif" font-size="10.00" fill="#000000">Detectors</text>
</a>
</g>
</g>
<g id="clust2" class="cluster">
<title>clusterdir_ff53c4a4c37940dfaa1ef75e68c4ec2e</title>
<g id="a_clust2"><a xlink:href="dir_ff53c4a4c37940dfaa1ef75e68c4ec2e.html" target="_top">
<polygon fill="#eeeeff" stroke="#000000" points="110,-280 110,-404 324,-404 324,-280 110,-280"/>
</a>
</g>
</g>
<!-- dir_ff53c4a4c37940dfaa1ef75e68c4ec2e -->
<g id="node1" class="node">
<title>dir_ff53c4a4c37940dfaa1ef75e68c4ec2e</title>
<text text-anchor="middle" x="289" y="-375.5" font-family="Helvetica,sans-Serif" font-size="10.00" fill="#000000">ITSMFT</text>
</g>
<!-- dir_a24d6d0829ce59989bf769e9c553cbcc -->
<g id="node2" class="node">
<title>dir_a24d6d0829ce59989bf769e9c553cbcc</title>
<g id="a_node2"><a xlink:href="dir_a24d6d0829ce59989bf769e9c553cbcc.html" target="_top" xlink:title="common">
<polygon fill="#ffffff" stroke="#ff0000" points="295.5,-324 236.5,-324 236.5,-288 295.5,-288 295.5,-324"/>
<text text-anchor="middle" x="266" y="-303.5" font-family="Helvetica,sans-Serif" font-size="10.00" fill="#000000">common</text>
</a>
</g>
</g>
<!-- dir_d269712cc31e133b892a3b3f6424741a -->
<g id="node5" class="node">
<title>dir_d269712cc31e133b892a3b3f6424741a</title>
<g id="a_node5"><a xlink:href="dir_d269712cc31e133b892a3b3f6424741a.html" target="_top" xlink:title="Reconstruction">
<polygon fill="none" stroke="#ff0000" points="474.5,-396 385.5,-396 385.5,-360 474.5,-360 474.5,-396"/>
<text text-anchor="middle" x="430" y="-375.5" font-family="Helvetica,sans-Serif" font-size="10.00" fill="#000000">Reconstruction</text>
</a>
</g>
</g>
<!-- dir_a24d6d0829ce59989bf769e9c553cbcc&#45;&gt;dir_d269712cc31e133b892a3b3f6424741a -->
<g id="edge34" class="edge">
<title>dir_a24d6d0829ce59989bf769e9c553cbcc&#45;&gt;dir_d269712cc31e133b892a3b3f6424741a</title>
<path fill="none" stroke="#000000" d="M295.7289,-319.0517C318.9629,-329.252 351.7982,-343.6675 379.1819,-355.6896"/>
<polygon fill="#000000" stroke="#000000" points="378.0524,-359.0162 388.6159,-359.8314 380.8664,-352.6066 378.0524,-359.0162"/>
<g id="a_edge34&#45;headlabel"><a xlink:href="dir_000099_000231.html" target="_top" xlink:title="1">
<text text-anchor="middle" x="373.6197" y="-357.671" font-family="Helvetica,sans-Serif" font-size="10.00" fill="#000000">1</text>
</a>
</g>
</g>
<!-- dir_4ab6b4cc6a7edbff49100e9123df213f -->
<g id="node6" class="node">
<title>dir_4ab6b4cc6a7edbff49100e9123df213f</title>
<g id="a_node6"><a xlink:href="dir_4ab6b4cc6a7edbff49100e9123df213f.html" target="_top" xlink:title="Common">
<polygon fill="none" stroke="#ff0000" points="460.5,-324 399.5,-324 399.5,-288 460.5,-288 460.5,-324"/>
<text text-anchor="middle" x="430" y="-303.5" font-family="Helvetica,sans-Serif" font-size="10.00" fill="#000000">Common</text>
</a>
</g>
</g>
<!-- dir_a24d6d0829ce59989bf769e9c553cbcc&#45;&gt;dir_4ab6b4cc6a7edbff49100e9123df213f -->
<g id="edge35" class="edge">
<title>dir_a24d6d0829ce59989bf769e9c553cbcc&#45;&gt;dir_4ab6b4cc6a7edbff49100e9123df213f</title>
<path fill="none" stroke="#000000" d="M295.7891,-306C326.9324,-306 358.0758,-306 389.2192,-306"/>
<polygon fill="#000000" stroke="#000000" points="389.3307,-309.5001 399.3307,-306 389.3307,-302.5001 389.3307,-309.5001"/>
<g id="a_edge35&#45;headlabel"><a xlink:href="dir_000099_000027.html" target="_top" xlink:title="1">
<text text-anchor="middle" x="385.7361" y="-309.8393" font-family="Helvetica,sans-Serif" font-size="10.00" fill="#000000">1</text>
</a>
</g>
</g>
<!-- dir_051dca18e802f8e9474f2e30d29c04e0 -->
<g id="node7" class="node">
<title>dir_051dca18e802f8e9474f2e30d29c04e0</title>
<g id="a_node7"><a xlink:href="dir_051dca18e802f8e9474f2e30d29c04e0.html" target="_top" xlink:title="Detectors">
<polygon fill="none" stroke="#ff0000" points="305,-180 241,-180 241,-144 305,-144 305,-180"/>
<text text-anchor="middle" x="273" y="-159.5" font-family="Helvetica,sans-Serif" font-size="10.00" fill="#000000">Detectors</text>
</a>
</g>
</g>
<!-- dir_a24d6d0829ce59989bf769e9c553cbcc&#45;&gt;dir_051dca18e802f8e9474f2e30d29c04e0 -->
<g id="edge36" class="edge">
<title>dir_a24d6d0829ce59989bf769e9c553cbcc&#45;&gt;dir_051dca18e802f8e9474f2e30d29c04e0</title>
<path fill="none" stroke="#000000" d="M264.4734,-287.6947C263.2183,-269.4856 261.9504,-240.7652 264,-216 264.6945,-207.6085 265.9862,-198.5578 267.3786,-190.3092"/>
<polygon fill="#000000" stroke="#000000" points="270.8353,-190.8612 269.1587,-180.3999 263.9456,-189.6235 270.8353,-190.8612"/>
<g id="a_edge36&#45;headlabel"><a xlink:href="dir_000099_000039.html" target="_top" xlink:title="1">
<text text-anchor="middle" x="272.9944" y="-192.4012" font-family="Helvetica,sans-Serif" font-size="10.00" fill="#000000">1</text>
</a>
</g>
</g>
<!-- dir_74593c7a91e03746ae2a516888bf9494 -->
<g id="node9" class="node">
<title>dir_74593c7a91e03746ae2a516888bf9494</title>
<g id="a_node9"><a xlink:href="dir_74593c7a91e03746ae2a516888bf9494.html" target="_top" xlink:title="Common">
<polygon fill="none" stroke="#ff0000" points="517.5,-36 456.5,-36 456.5,0 517.5,0 517.5,-36"/>
<text text-anchor="middle" x="487" y="-15.5" font-family="Helvetica,sans-Serif" font-size="10.00" fill="#000000">Common</text>
</a>
</g>
</g>
<!-- dir_a24d6d0829ce59989bf769e9c553cbcc&#45;&gt;dir_74593c7a91e03746ae2a516888bf9494 -->
<g id="edge37" class="edge">
<title>dir_a24d6d0829ce59989bf769e9c553cbcc&#45;&gt;dir_74593c7a91e03746ae2a516888bf9494</title>
<path fill="none" stroke="#000000" d="M276.9533,-287.6575C288.1913,-269.1724 306.4633,-240.0215 324,-216 370.74,-151.9761 431.3044,-81.2402 463.859,-44.0933"/>
<polygon fill="#000000" stroke="#000000" points="466.7725,-46.0801 470.7466,-36.2588 461.5153,-41.4582 466.7725,-46.0801"/>
<g id="a_edge37&#45;headlabel"><a xlink:href="dir_000099_000087.html" target="_top" xlink:title="1">
<text text-anchor="middle" x="466.5316" y="-48.1544" font-family="Helvetica,sans-Serif" font-size="10.00" fill="#000000">1</text>
</a>
</g>
</g>
<!-- dir_7924ba4398ae4560cd37376e44666c6d -->
<g id="node10" class="node">
<title>dir_7924ba4398ae4560cd37376e44666c6d</title>
<g id="a_node10"><a xlink:href="dir_7924ba4398ae4560cd37376e44666c6d.html" target="_top" xlink:title="common">
<polygon fill="none" stroke="#ff0000" points="240.5,-36 181.5,-36 181.5,0 240.5,0 240.5,-36"/>
<text text-anchor="middle" x="211" y="-15.5" font-family="Helvetica,sans-Serif" font-size="10.00" fill="#000000">common</text>
</a>
</g>
</g>
<!-- dir_a24d6d0829ce59989bf769e9c553cbcc&#45;&gt;dir_7924ba4398ae4560cd37376e44666c6d -->
<g id="edge38" class="edge">
<title>dir_a24d6d0829ce59989bf769e9c553cbcc&#45;&gt;dir_7924ba4398ae4560cd37376e44666c6d</title>
<path fill="none" stroke="#000000" d="M259.6496,-287.7335C247.9824,-253.1643 223.4647,-175.5786 214,-108 211.1133,-87.3888 210.4176,-63.8763 210.4148,-46.0535"/>
<polygon fill="#000000" stroke="#000000" points="213.9148,-46.0503 210.4855,-36.0258 206.915,-46.0009 213.9148,-46.0503"/>
<g id="a_edge38&#45;headlabel"><a xlink:href="dir_000099_000077.html" target="_top" xlink:title="2">
<text text-anchor="middle" x="216.7288" y="-47.1648" font-family="Helvetica,sans-Serif" font-size="10.00" fill="#000000">2</text>
</a>
</g>
</g>
<!-- dir_bcbb2cf9a3d3d83e5515c82071a07177 -->
<g id="node11" class="node">
<title>dir_bcbb2cf9a3d3d83e5515c82071a07177</title>
<g id="a_node11"><a xlink:href="dir_bcbb2cf9a3d3d83e5515c82071a07177.html" target="_top" xlink:title="Framework">
<polygon fill="none" stroke="#ff0000" points="403.5,-252 332.5,-252 332.5,-216 403.5,-216 403.5,-252"/>
<text text-anchor="middle" x="368" y="-231.5" font-family="Helvetica,sans-Serif" font-size="10.00" fill="#000000">Framework</text>
</a>
</g>
</g>
<!-- dir_a24d6d0829ce59989bf769e9c553cbcc&#45;&gt;dir_bcbb2cf9a3d3d83e5515c82071a07177 -->
<g id="edge39" class="edge">
<title>dir_a24d6d0829ce59989bf769e9c553cbcc&#45;&gt;dir_bcbb2cf9a3d3d83e5515c82071a07177</title>
<path fill="none" stroke="#000000" d="M291.7389,-287.8314C304.5437,-278.7927 320.1909,-267.7476 333.9719,-258.0198"/>
<polygon fill="#000000" stroke="#000000" points="336.118,-260.7891 342.2693,-252.1628 332.0812,-255.0703 336.118,-260.7891"/>
<g id="a_edge39&#45;headlabel"><a xlink:href="dir_000099_000013.html" target="_top" xlink:title="4">
<text text-anchor="middle" x="334.8187" y="-262.6816" font-family="Helvetica,sans-Serif" font-size="10.00" fill="#000000">4</text>
</a>
</g>
</g>
<!-- dir_279659ddc9854b304a1ef4f4a176eeda -->
<g id="node3" class="node">
<title>dir_279659ddc9854b304a1ef4f4a176eeda</title>
<g id="a_node3"><a xlink:href="dir_279659ddc9854b304a1ef4f4a176eeda.html" target="_top" xlink:title="ITS">
<polygon fill="#ffffff" stroke="#ff0000" points="244,-396 190,-396 190,-360 244,-360 244,-396"/>
<text text-anchor="middle" x="217" y="-375.5" font-family="Helvetica,sans-Serif" font-size="10.00" fill="#000000">ITS</text>
</a>
</g>
</g>
<!-- dir_279659ddc9854b304a1ef4f4a176eeda&#45;&gt;dir_a24d6d0829ce59989bf769e9c553cbcc -->
<g id="edge30" class="edge">
<title>dir_279659ddc9854b304a1ef4f4a176eeda&#45;&gt;dir_a24d6d0829ce59989bf769e9c553cbcc</title>
<path fill="none" stroke="#000000" d="M229.3648,-359.8314C234.9509,-351.6232 241.663,-341.7606 247.8072,-332.7323"/>
<polygon fill="#000000" stroke="#000000" points="250.736,-334.6496 253.4687,-324.4133 244.949,-330.7112 250.736,-334.6496"/>
<g id="a_edge30&#45;headlabel"><a xlink:href="dir_000223_000099.html" target="_top" xlink:title="1">
<text text-anchor="middle" x="251.0609" y="-336.7187" font-family="Helvetica,sans-Serif" font-size="10.00" fill="#000000">1</text>
</a>
</g>
</g>
<!-- dir_279659ddc9854b304a1ef4f4a176eeda&#45;&gt;dir_d269712cc31e133b892a3b3f6424741a -->
<g id="edge27" class="edge">
<title>dir_279659ddc9854b304a1ef4f4a176eeda&#45;&gt;dir_d269712cc31e133b892a3b3f6424741a</title>
<path fill="none" stroke="#000000" d="M222.7294,-396.0384C229.2342,-413.1355 241.6695,-437.8155 262,-449 284.1962,-461.2109 294.6852,-456.1112 319,-449 350.013,-439.9298 380.5951,-419.2537 401.7804,-402.5403"/>
<polygon fill="#000000" stroke="#000000" points="404.1286,-405.1425 409.6993,-396.1304 399.7244,-399.7016 404.1286,-405.1425"/>
<g id="a_edge27&#45;headlabel"><a xlink:href="dir_000223_000231.html" target="_top" xlink:title="1">
<text text-anchor="middle" x="403.1209" y="-407.111" font-family="Helvetica,sans-Serif" font-size="10.00" fill="#000000">1</text>
</a>
</g>
</g>
<!-- dir_279659ddc9854b304a1ef4f4a176eeda&#45;&gt;dir_4ab6b4cc6a7edbff49100e9123df213f -->
<g id="edge28" class="edge">
<title>dir_279659ddc9854b304a1ef4f4a176eeda&#45;&gt;dir_4ab6b4cc6a7edbff49100e9123df213f</title>
<path fill="none" stroke="#000000" d="M244.3005,-363.758C247.2073,-362.42 250.1446,-361.1401 253,-360 298.8185,-341.7058 353.3571,-325.9288 389.6676,-316.2317"/>
<polygon fill="#000000" stroke="#000000" points="390.6284,-319.5981 399.4033,-313.6609 388.8411,-312.8301 390.6284,-319.5981"/>
<g id="a_edge28&#45;headlabel"><a xlink:href="dir_000223_000027.html" target="_top" xlink:title="1">
<text text-anchor="middle" x="387.8778" y="-320.761" font-family="Helvetica,sans-Serif" font-size="10.00" fill="#000000">1</text>
</a>
</g>
</g>
<!-- dir_279659ddc9854b304a1ef4f4a176eeda&#45;&gt;dir_7924ba4398ae4560cd37376e44666c6d -->
<g id="edge29" class="edge">
<title>dir_279659ddc9854b304a1ef4f4a176eeda&#45;&gt;dir_7924ba4398ae4560cd37376e44666c6d</title>
<path fill="none" stroke="#000000" d="M216.0129,-359.9971C213.6911,-316.6396 207.934,-202.9809 206,-108 205.6743,-92.0033 205.2616,-87.983 206,-72 206.3807,-63.7603 207.0864,-54.8359 207.85,-46.6604"/>
<polygon fill="#000000" stroke="#000000" points="211.3571,-46.7626 208.8649,-36.4651 204.3915,-46.0692 211.3571,-46.7626"/>
<g id="a_edge29&#45;headlabel"><a xlink:href="dir_000223_000077.html" target="_top" xlink:title="1">
<text text-anchor="middle" x="213.8264" y="-48.1207" font-family="Helvetica,sans-Serif" font-size="10.00" fill="#000000">1</text>
</a>
</g>
</g>
<!-- dir_25272d395c0fdb531d4aff346d96238f -->
<g id="node4" class="node">
<title>dir_25272d395c0fdb531d4aff346d96238f</title>
<g id="a_node4"><a xlink:href="dir_25272d395c0fdb531d4aff346d96238f.html" target="_top" xlink:title="MFT">
<polygon fill="#ffffff" stroke="#ff0000" points="172,-396 118,-396 118,-360 172,-360 172,-396"/>
<text text-anchor="middle" x="145" y="-375.5" font-family="Helvetica,sans-Serif" font-size="10.00" fill="#000000">MFT</text>
</a>
</g>
</g>
<!-- dir_25272d395c0fdb531d4aff346d96238f&#45;&gt;dir_a24d6d0829ce59989bf769e9c553cbcc -->
<g id="edge26" class="edge">
<title>dir_25272d395c0fdb531d4aff346d96238f&#45;&gt;dir_a24d6d0829ce59989bf769e9c553cbcc</title>
<path fill="none" stroke="#000000" d="M172.1548,-361.8418C188.4125,-352.1678 209.342,-339.7138 227.309,-329.0228"/>
<polygon fill="#000000" stroke="#000000" points="229.5901,-331.7382 236.394,-323.6168 226.0106,-325.7226 229.5901,-331.7382"/>
<g id="a_edge26&#45;headlabel"><a xlink:href="dir_000227_000099.html" target="_top" xlink:title="1">
<text text-anchor="middle" x="227.9529" y="-333.5163" font-family="Helvetica,sans-Serif" font-size="10.00" fill="#000000">1</text>
</a>
</g>
</g>
<!-- dir_25272d395c0fdb531d4aff346d96238f&#45;&gt;dir_4ab6b4cc6a7edbff49100e9123df213f -->
<g id="edge23" class="edge">
<title>dir_25272d395c0fdb531d4aff346d96238f&#45;&gt;dir_4ab6b4cc6a7edbff49100e9123df213f</title>
<path fill="none" stroke="#000000" d="M172.2087,-363.5136C175.1334,-362.2232 178.1,-361.0213 181,-360 219.0603,-346.5964 329.3404,-324.8706 389.5704,-313.4925"/>
<polygon fill="#000000" stroke="#000000" points="390.3167,-316.9136 399.4973,-311.6253 389.0227,-310.0342 390.3167,-316.9136"/>
<g id="a_edge23&#45;headlabel"><a xlink:href="dir_000227_000027.html" target="_top" xlink:title="2">
<text text-anchor="middle" x="387.3088" y="-317.8683" font-family="Helvetica,sans-Serif" font-size="10.00" fill="#000000">2</text>
</a>
</g>
</g>
<!-- dir_047746f9f311f49446db9474b7431d0d -->
<g id="node8" class="node">
<title>dir_047746f9f311f49446db9474b7431d0d</title>
<g id="a_node8"><a xlink:href="dir_047746f9f311f49446db9474b7431d0d.html" target="_top" xlink:title="simulation">
<polygon fill="none" stroke="#ff0000" points="307,-108 239,-108 239,-72 307,-72 307,-108"/>
<text text-anchor="middle" x="273" y="-87.5" font-family="Helvetica,sans-Serif" font-size="10.00" fill="#000000">simulation</text>
</a>
</g>
</g>
<!-- dir_25272d395c0fdb531d4aff346d96238f&#45;&gt;dir_047746f9f311f49446db9474b7431d0d -->
<g id="edge24" class="edge">
<title>dir_25272d395c0fdb531d4aff346d96238f&#45;&gt;dir_047746f9f311f49446db9474b7431d0d</title>
<path fill="none" stroke="#000000" d="M147.0074,-359.9655C149.7464,-338.5413 155.5516,-301.9341 166,-272 187.0931,-211.5693 197.8526,-198.1364 232,-144 237.8403,-134.741 244.8481,-125.0827 251.4045,-116.5371"/>
<polygon fill="#000000" stroke="#000000" points="254.3495,-118.4527 257.7504,-108.4185 248.8344,-114.1418 254.3495,-118.4527"/>
<g id="a_edge24&#45;headlabel"><a xlink:href="dir_000227_000245.html" target="_top" xlink:title="1">
<text text-anchor="middle" x="254.3729" y="-120.5333" font-family="Helvetica,sans-Serif" font-size="10.00" fill="#000000">1</text>
</a>
</g>
</g>
<!-- dir_25272d395c0fdb531d4aff346d96238f&#45;&gt;dir_7924ba4398ae4560cd37376e44666c6d -->
<g id="edge25" class="edge">
<title>dir_25272d395c0fdb531d4aff346d96238f&#45;&gt;dir_7924ba4398ae4560cd37376e44666c6d</title>
<path fill="none" stroke="#000000" d="M117.7266,-366.0605C75.7236,-345.6083 0,-299.6349 0,-234 0,-234 0,-234 0,-162 0,-80.0379 109.9631,-41.3682 171.1226,-26.1993"/>
<polygon fill="#000000" stroke="#000000" points="172.2975,-29.5176 181.2164,-23.7988 170.6779,-22.7075 172.2975,-29.5176"/>
<g id="a_edge25&#45;headlabel"><a xlink:href="dir_000227_000077.html" target="_top" xlink:title="1">
<text text-anchor="middle" x="169.4573" y="-30.6114" font-family="Helvetica,sans-Serif" font-size="10.00" fill="#000000">1</text>
</a>
</g>
</g>
<!-- dir_d269712cc31e133b892a3b3f6424741a&#45;&gt;dir_4ab6b4cc6a7edbff49100e9123df213f -->
<g id="edge1" class="edge">
<title>dir_d269712cc31e133b892a3b3f6424741a&#45;&gt;dir_4ab6b4cc6a7edbff49100e9123df213f</title>
<path fill="none" stroke="#000000" d="M424.0476,-359.8314C423.2972,-352.131 423.0763,-342.9743 423.3849,-334.4166"/>
<polygon fill="#000000" stroke="#000000" points="426.8792,-334.6161 424.024,-324.4133 419.8935,-334.1697 426.8792,-334.6161"/>
<g id="a_edge1&#45;headlabel"><a xlink:href="dir_000231_000027.html" target="_top" xlink:title="8">
<text text-anchor="middle" x="429.4836" y="-335.8844" font-family="Helvetica,sans-Serif" font-size="10.00" fill="#000000">8</text>
</a>
</g>
</g>
<!-- dir_d269712cc31e133b892a3b3f6424741a&#45;&gt;dir_74593c7a91e03746ae2a516888bf9494 -->
<g id="edge2" class="edge">
<title>dir_d269712cc31e133b892a3b3f6424741a&#45;&gt;dir_74593c7a91e03746ae2a516888bf9494</title>
<path fill="none" stroke="#000000" d="M474.5734,-372.68C532.3816,-364.8928 628.8106,-348.5909 654,-324 683.6225,-295.0814 678,-275.3978 678,-234 678,-234 678,-234 678,-162 678,-87.1743 583.3818,-46.3433 527.3366,-28.721"/>
<polygon fill="#000000" stroke="#000000" points="528.2728,-25.3476 517.6875,-25.7955 526.2417,-32.0465 528.2728,-25.3476"/>
<g id="a_edge2&#45;headlabel"><a xlink:href="dir_000231_000087.html" target="_top" xlink:title="1">
<text text-anchor="middle" x="532.5366" y="-21.1734" font-family="Helvetica,sans-Serif" font-size="10.00" fill="#000000">1</text>
</a>
</g>
</g>
<!-- dir_d269712cc31e133b892a3b3f6424741a&#45;&gt;dir_7924ba4398ae4560cd37376e44666c6d -->
<g id="edge3" class="edge">
<title>dir_d269712cc31e133b892a3b3f6424741a&#45;&gt;dir_7924ba4398ae4560cd37376e44666c6d</title>
<path fill="none" stroke="#000000" d="M457.4894,-359.7646C468.8848,-350.5451 480.8597,-338.2754 487,-324 520.0531,-247.1559 480.5078,-212.1507 432,-144 404.8311,-105.8292 394.8123,-96.7011 355,-72 322.1822,-51.6386 280.4769,-37.0468 250.4051,-28.2051"/>
<polygon fill="#000000" stroke="#000000" points="251.2592,-24.8092 240.6824,-25.4271 249.336,-31.5398 251.2592,-24.8092"/>
<g id="a_edge3&#45;headlabel"><a xlink:href="dir_000231_000077.html" target="_top" xlink:title="4">
<text text-anchor="middle" x="255.4956" y="-20.5667" font-family="Helvetica,sans-Serif" font-size="10.00" fill="#000000">4</text>
</a>
</g>
</g>
<!-- dir_d269712cc31e133b892a3b3f6424741a&#45;&gt;dir_bcbb2cf9a3d3d83e5515c82071a07177 -->
<g id="edge4" class="edge">
<title>dir_d269712cc31e133b892a3b3f6424741a&#45;&gt;dir_bcbb2cf9a3d3d83e5515c82071a07177</title>
<path fill="none" stroke="#000000" d="M414.0467,-359.6057C406.1196,-349.6406 396.9818,-336.7777 391,-324 381.7974,-304.3426 375.914,-280.4791 372.4033,-262.2651"/>
<polygon fill="#000000" stroke="#000000" points="375.82,-261.4897 370.6032,-252.2683 368.9308,-262.7302 375.82,-261.4897"/>
<g id="a_edge4&#45;headlabel"><a xlink:href="dir_000231_000013.html" target="_top" xlink:title="1">
<text text-anchor="middle" x="379.2513" y="-262.0243" font-family="Helvetica,sans-Serif" font-size="10.00" fill="#000000">1</text>
</a>
</g>
</g>
<!-- dir_4ab6b4cc6a7edbff49100e9123df213f&#45;&gt;dir_d269712cc31e133b892a3b3f6424741a -->
<g id="edge5" class="edge">
<title>dir_4ab6b4cc6a7edbff49100e9123df213f&#45;&gt;dir_d269712cc31e133b892a3b3f6424741a</title>
<path fill="none" stroke="#000000" d="M435.976,-324.4133C436.7071,-332.0593 436.9203,-341.1084 436.6155,-349.5726"/>
<polygon fill="#000000" stroke="#000000" points="433.1048,-349.6264 435.9524,-359.8314 440.0902,-350.078 433.1048,-349.6264"/>
<g id="a_edge5&#45;headlabel"><a xlink:href="dir_000027_000231.html" target="_top" xlink:title="1">
<text text-anchor="middle" x="430.5032" y="-343.3562" font-family="Helvetica,sans-Serif" font-size="10.00" fill="#000000">1</text>
</a>
</g>
</g>
<!-- dir_4ab6b4cc6a7edbff49100e9123df213f&#45;&gt;dir_74593c7a91e03746ae2a516888bf9494 -->
<g id="edge6" class="edge">
<title>dir_4ab6b4cc6a7edbff49100e9123df213f&#45;&gt;dir_74593c7a91e03746ae2a516888bf9494</title>
<path fill="none" stroke="#000000" d="M460.6281,-293.8332C479.2927,-285.4357 501.4968,-272.0902 513,-252 551.126,-185.4134 514.9793,-91.4147 496.1459,-45.4584"/>
<polygon fill="#000000" stroke="#000000" points="499.3571,-44.0646 492.3159,-36.1481 492.8835,-46.7277 499.3571,-44.0646"/>
<g id="a_edge6&#45;headlabel"><a xlink:href="dir_000027_000087.html" target="_top" xlink:title="1">
<text text-anchor="middle" x="503.3504" y="-43.8088" font-family="Helvetica,sans-Serif" font-size="10.00" fill="#000000">1</text>
</a>
</g>
</g>
<!-- dir_4ab6b4cc6a7edbff49100e9123df213f&#45;&gt;dir_bcbb2cf9a3d3d83e5515c82071a07177 -->
<g id="edge7" class="edge">
<title>dir_4ab6b4cc6a7edbff49100e9123df213f&#45;&gt;dir_bcbb2cf9a3d3d83e5515c82071a07177</title>
<path fill="none" stroke="#000000" d="M408.4024,-287.8314C400.4533,-279.5386 391.664,-269.557 384.2448,-260.4533"/>
<polygon fill="#000000" stroke="#000000" points="386.831,-258.0814 377.8799,-252.4133 381.3427,-262.4263 386.831,-258.0814"/>
<g id="a_edge7&#45;headlabel"><a xlink:href="dir_000027_000013.html" target="_top" xlink:title="2">
<text text-anchor="middle" x="391.2883" y="-256.6374" font-family="Helvetica,sans-Serif" font-size="10.00" fill="#000000">2</text>
</a>
</g>
</g>
<!-- dir_051dca18e802f8e9474f2e30d29c04e0&#45;&gt;dir_a24d6d0829ce59989bf769e9c553cbcc -->
<g id="edge16" class="edge">
<title>dir_051dca18e802f8e9474f2e30d29c04e0&#45;&gt;dir_a24d6d0829ce59989bf769e9c553cbcc</title>
<path fill="none" stroke="#000000" d="M272.1206,-180.0896C270.9305,-204.5727 268.7943,-248.5174 267.3868,-277.4713"/>
<polygon fill="#000000" stroke="#000000" points="263.8763,-277.6041 266.8866,-287.7623 270.8681,-277.9441 263.8763,-277.6041"/>
<g id="a_edge16&#45;headlabel"><a xlink:href="dir_000039_000099.html" target="_top" xlink:title="115">
<text text-anchor="middle" x="261.2148" y="-271.3759" font-family="Helvetica,sans-Serif" font-size="10.00" fill="#000000">115</text>
</a>
</g>
</g>
<!-- dir_051dca18e802f8e9474f2e30d29c04e0&#45;&gt;dir_279659ddc9854b304a1ef4f4a176eeda -->
<g id="edge13" class="edge">
<title>dir_051dca18e802f8e9474f2e30d29c04e0&#45;&gt;dir_279659ddc9854b304a1ef4f4a176eeda</title>
<path fill="none" stroke="#000000" d="M263.6944,-180.1393C253.1803,-201.512 236.437,-238.3782 228,-272 221.5282,-297.7907 218.856,-328.0317 217.757,-349.5977"/>
<polygon fill="#000000" stroke="#000000" points="214.2546,-349.5818 217.324,-359.7223 221.2482,-349.881 214.2546,-349.5818"/>
<g id="a_edge13&#45;headlabel"><a xlink:href="dir_000039_000223.html" target="_top" xlink:title="10">
<text text-anchor="middle" x="211.5714" y="-343.3692" font-family="Helvetica,sans-Serif" font-size="10.00" fill="#000000">10</text>
</a>
</g>
</g>
<!-- dir_051dca18e802f8e9474f2e30d29c04e0&#45;&gt;dir_25272d395c0fdb531d4aff346d96238f -->
<g id="edge12" class="edge">
<title>dir_051dca18e802f8e9474f2e30d29c04e0&#45;&gt;dir_25272d395c0fdb531d4aff346d96238f</title>
<path fill="none" stroke="#000000" d="M256.9667,-180.3368C248.4593,-190.4939 238.117,-203.5523 230,-216 200.5995,-261.0866 172.8752,-317.4725 157.492,-350.4395"/>
<polygon fill="#000000" stroke="#000000" points="154.1467,-349.3348 153.1259,-359.8804 160.5002,-352.2732 154.1467,-349.3348"/>
<g id="a_edge12&#45;headlabel"><a xlink:href="dir_000039_000227.html" target="_top" xlink:title="8">
<text text-anchor="middle" x="153.0785" y="-342.3805" font-family="Helvetica,sans-Serif" font-size="10.00" fill="#000000">8</text>
</a>
</g>
</g>
<!-- dir_051dca18e802f8e9474f2e30d29c04e0&#45;&gt;dir_d269712cc31e133b892a3b3f6424741a -->
<g id="edge8" class="edge">
<title>dir_051dca18e802f8e9474f2e30d29c04e0&#45;&gt;dir_d269712cc31e133b892a3b3f6424741a</title>
<path fill="none" stroke="#000000" d="M305.0178,-166.2908C339.8293,-172.3217 395.6168,-186.1161 434,-216 473.9231,-247.0829 485.8571,-275.9526 470,-324 466.7092,-333.9712 460.7884,-343.6056 454.4936,-351.9076"/>
<polygon fill="#000000" stroke="#000000" points="451.7328,-349.7552 448.1576,-359.7286 457.172,-354.1616 451.7328,-349.7552"/>
<g id="a_edge8&#45;headlabel"><a xlink:href="dir_000039_000231.html" target="_top" xlink:title="39">
<text text-anchor="middle" x="451.7894" y="-342.6749" font-family="Helvetica,sans-Serif" font-size="10.00" fill="#000000">39</text>
</a>
</g>
</g>
<!-- dir_051dca18e802f8e9474f2e30d29c04e0&#45;&gt;dir_4ab6b4cc6a7edbff49100e9123df213f -->
<g id="edge9" class="edge">
<title>dir_051dca18e802f8e9474f2e30d29c04e0&#45;&gt;dir_4ab6b4cc6a7edbff49100e9123df213f</title>
<path fill="none" stroke="#000000" d="M305.1373,-165.4292C337.3989,-170.6458 386.068,-183.6776 413,-216 427.257,-233.1105 431.0022,-258.4386 431.4704,-277.8704"/>
<polygon fill="#000000" stroke="#000000" points="427.9702,-277.9588 431.4392,-287.9696 434.9701,-277.9805 427.9702,-277.9588"/>
<g id="a_edge9&#45;headlabel"><a xlink:href="dir_000039_000027.html" target="_top" xlink:title="263">
<text text-anchor="middle" x="425.1419" y="-271.8555" font-family="Helvetica,sans-Serif" font-size="10.00" fill="#000000">263</text>
</a>
</g>
</g>
<!-- dir_051dca18e802f8e9474f2e30d29c04e0&#45;&gt;dir_047746f9f311f49446db9474b7431d0d -->
<g id="edge10" class="edge">
<title>dir_051dca18e802f8e9474f2e30d29c04e0&#45;&gt;dir_047746f9f311f49446db9474b7431d0d</title>
<path fill="none" stroke="#000000" d="M267.0476,-143.8314C266.2972,-136.131 266.0763,-126.9743 266.3849,-118.4166"/>
<polygon fill="#000000" stroke="#000000" points="269.8792,-118.6161 267.024,-108.4133 262.8935,-118.1697 269.8792,-118.6161"/>
<g id="a_edge10&#45;headlabel"><a xlink:href="dir_000039_000245.html" target="_top" xlink:title="258">
<text text-anchor="middle" x="272.4836" y="-119.8844" font-family="Helvetica,sans-Serif" font-size="10.00" fill="#000000">258</text>
</a>
</g>
</g>
<!-- dir_051dca18e802f8e9474f2e30d29c04e0&#45;&gt;dir_74593c7a91e03746ae2a516888bf9494 -->
<g id="edge11" class="edge">
<title>dir_051dca18e802f8e9474f2e30d29c04e0&#45;&gt;dir_74593c7a91e03746ae2a516888bf9494</title>
<path fill="none" stroke="#000000" d="M300.1032,-143.7623C338.614,-117.8485 409.2052,-70.3479 451.744,-41.7237"/>
<polygon fill="#000000" stroke="#000000" points="453.7742,-44.5762 460.1168,-36.0896 449.8663,-38.7686 453.7742,-44.5762"/>
<g id="a_edge11&#45;headlabel"><a xlink:href="dir_000039_000087.html" target="_top" xlink:title="50">
<text text-anchor="middle" x="452.377" y="-46.4386" font-family="Helvetica,sans-Serif" font-size="10.00" fill="#000000">50</text>
</a>
</g>
</g>
<!-- dir_051dca18e802f8e9474f2e30d29c04e0&#45;&gt;dir_7924ba4398ae4560cd37376e44666c6d -->
<g id="edge14" class="edge">
<title>dir_051dca18e802f8e9474f2e30d29c04e0&#45;&gt;dir_7924ba4398ae4560cd37376e44666c6d</title>
<path fill="none" stroke="#000000" d="M255.1111,-143.9746C246.289,-134.1105 236.2311,-121.2265 230,-108 220.7834,-88.4363 216.001,-64.3857 213.5406,-46.0699"/>
<polygon fill="#000000" stroke="#000000" points="217.0025,-45.5417 212.3443,-36.0258 210.0516,-46.3696 217.0025,-45.5417"/>
<g id="a_edge14&#45;headlabel"><a xlink:href="dir_000039_000077.html" target="_top" xlink:title="44">
<text text-anchor="middle" x="220.2469" y="-46.2753" font-family="Helvetica,sans-Serif" font-size="10.00" fill="#000000">44</text>
</a>
</g>
</g>
<!-- dir_051dca18e802f8e9474f2e30d29c04e0&#45;&gt;dir_bcbb2cf9a3d3d83e5515c82071a07177 -->
<g id="edge15" class="edge">
<title>dir_051dca18e802f8e9474f2e30d29c04e0&#45;&gt;dir_bcbb2cf9a3d3d83e5515c82071a07177</title>
<path fill="none" stroke="#000000" d="M302.9167,-180.1628C315.4811,-189.0301 329.8925,-199.8295 342.009,-209.4219"/>
<polygon fill="#000000" stroke="#000000" points="339.9936,-212.2924 349.9799,-215.8314 344.3801,-206.8373 339.9936,-212.2924"/>
<g id="a_edge15&#45;headlabel"><a xlink:href="dir_000039_000013.html" target="_top" xlink:title="747">
<text text-anchor="middle" x="335.4131" y="-209.7525" font-family="Helvetica,sans-Serif" font-size="10.00" fill="#000000">747</text>
</a>
</g>
</g>
<!-- dir_047746f9f311f49446db9474b7431d0d&#45;&gt;dir_4ab6b4cc6a7edbff49100e9123df213f -->
<g id="edge17" class="edge">
<title>dir_047746f9f311f49446db9474b7431d0d&#45;&gt;dir_4ab6b4cc6a7edbff49100e9123df213f</title>
<path fill="none" stroke="#000000" d="M307.0419,-105.082C345.9776,-124.4368 407.7268,-162.0758 434,-216 443.3205,-235.1297 441.6042,-259.3468 437.9497,-277.8404"/>
<polygon fill="#000000" stroke="#000000" points="434.5074,-277.1949 435.7107,-287.7211 441.3343,-278.7419 434.5074,-277.1949"/>
<g id="a_edge17&#45;headlabel"><a xlink:href="dir_000245_000027.html" target="_top" xlink:title="5">
<text text-anchor="middle" x="432.5326" y="-270.5617" font-family="Helvetica,sans-Serif" font-size="10.00" fill="#000000">5</text>
</a>
</g>
</g>
<!-- dir_047746f9f311f49446db9474b7431d0d&#45;&gt;dir_051dca18e802f8e9474f2e30d29c04e0 -->
<g id="edge18" class="edge">
<title>dir_047746f9f311f49446db9474b7431d0d&#45;&gt;dir_051dca18e802f8e9474f2e30d29c04e0</title>
<path fill="none" stroke="#000000" d="M278.976,-108.4133C279.7071,-116.0593 279.9203,-125.1084 279.6155,-133.5726"/>
<polygon fill="#000000" stroke="#000000" points="276.1048,-133.6264 278.9524,-143.8314 283.0902,-134.078 276.1048,-133.6264"/>
<g id="a_edge18&#45;headlabel"><a xlink:href="dir_000245_000039.html" target="_top" xlink:title="1">
<text text-anchor="middle" x="273.5032" y="-127.3562" font-family="Helvetica,sans-Serif" font-size="10.00" fill="#000000">1</text>
</a>
</g>
</g>
<!-- dir_047746f9f311f49446db9474b7431d0d&#45;&gt;dir_74593c7a91e03746ae2a516888bf9494 -->
<g id="edge19" class="edge">
<title>dir_047746f9f311f49446db9474b7431d0d&#45;&gt;dir_74593c7a91e03746ae2a516888bf9494</title>
<path fill="none" stroke="#000000" d="M307.3828,-78.432C345.3671,-65.6522 406.4685,-45.0947 446.6795,-31.5658"/>
<polygon fill="#000000" stroke="#000000" points="447.8134,-34.8771 456.1753,-28.3709 445.5812,-28.2426 447.8134,-34.8771"/>
<g id="a_edge19&#45;headlabel"><a xlink:href="dir_000245_000087.html" target="_top" xlink:title="6">
<text text-anchor="middle" x="445.3119" y="-36.2144" font-family="Helvetica,sans-Serif" font-size="10.00" fill="#000000">6</text>
</a>
</g>
</g>
<!-- dir_047746f9f311f49446db9474b7431d0d&#45;&gt;dir_7924ba4398ae4560cd37376e44666c6d -->
<g id="edge20" class="edge">
<title>dir_047746f9f311f49446db9474b7431d0d&#45;&gt;dir_7924ba4398ae4560cd37376e44666c6d</title>
<path fill="none" stroke="#000000" d="M257.3548,-71.8314C250.1409,-63.454 241.443,-53.3531 233.5395,-44.1749"/>
<polygon fill="#000000" stroke="#000000" points="236.0333,-41.7071 226.8559,-36.4133 230.7289,-46.2748 236.0333,-41.7071"/>
<g id="a_edge20&#45;headlabel"><a xlink:href="dir_000245_000077.html" target="_top" xlink:title="2">
<text text-anchor="middle" x="240.5304" y="-40.0783" font-family="Helvetica,sans-Serif" font-size="10.00" fill="#000000">2</text>
</a>
</g>
</g>
<!-- dir_74593c7a91e03746ae2a516888bf9494&#45;&gt;dir_4ab6b4cc6a7edbff49100e9123df213f -->
<g id="edge21" class="edge">
<title>dir_74593c7a91e03746ae2a516888bf9494&#45;&gt;dir_4ab6b4cc6a7edbff49100e9123df213f</title>
<path fill="none" stroke="#000000" d="M501.6683,-36.1481C527.2749,-77.4727 571.9235,-180.5276 531,-252 518.3342,-274.1206 492.6954,-288.0643 470.2952,-296.2295"/>
<polygon fill="#000000" stroke="#000000" points="468.9799,-292.979 460.616,-299.4825 471.21,-299.6143 468.9799,-292.979"/>
<g id="a_edge21&#45;headlabel"><a xlink:href="dir_000087_000027.html" target="_top" xlink:title="5">
<text text-anchor="middle" x="471.4828" y="-286.6426" font-family="Helvetica,sans-Serif" font-size="10.00" fill="#000000">5</text>
</a>
</g>
</g>
<!-- dir_74593c7a91e03746ae2a516888bf9494&#45;&gt;dir_bcbb2cf9a3d3d83e5515c82071a07177 -->
<g id="edge22" class="edge">
<title>dir_74593c7a91e03746ae2a516888bf9494&#45;&gt;dir_bcbb2cf9a3d3d83e5515c82071a07177</title>
<path fill="none" stroke="#000000" d="M484.2484,-36.3136C480.9551,-55.0315 474.4022,-84.5943 463,-108 444.4592,-146.0593 413.6863,-184.0823 392.2047,-208.2447"/>
<polygon fill="#000000" stroke="#000000" points="389.4086,-206.1189 385.3069,-215.8876 394.6051,-210.8089 389.4086,-206.1189"/>
<g id="a_edge22&#45;headlabel"><a xlink:href="dir_000087_000013.html" target="_top" xlink:title="2">
<text text-anchor="middle" x="389.7091" y="-199.0482" font-family="Helvetica,sans-Serif" font-size="10.00" fill="#000000">2</text>
</a>
</g>
</g>
<!-- dir_7924ba4398ae4560cd37376e44666c6d&#45;&gt;dir_4ab6b4cc6a7edbff49100e9123df213f -->
<g id="edge31" class="edge">
<title>dir_7924ba4398ae4560cd37376e44666c6d&#45;&gt;dir_4ab6b4cc6a7edbff49100e9123df213f</title>
<path fill="none" stroke="#000000" d="M240.9238,-31.2653C262.4716,-41.3188 291.8741,-56.0838 316,-72 357.8952,-99.6388 369.39,-106.7243 403,-144 428.754,-172.5629 439.8551,-179.191 451,-216 457.2768,-236.731 451.0936,-260.6255 443.8463,-278.5819"/>
<polygon fill="#000000" stroke="#000000" points="440.5766,-277.3238 439.7829,-287.8889 446.9918,-280.1247 440.5766,-277.3238"/>
<g id="a_edge31&#45;headlabel"><a xlink:href="dir_000077_000027.html" target="_top" xlink:title="2">
<text text-anchor="middle" x="439.4127" y="-270.3935" font-family="Helvetica,sans-Serif" font-size="10.00" fill="#000000">2</text>
</a>
</g>
</g>
<!-- dir_bcbb2cf9a3d3d83e5515c82071a07177&#45;&gt;dir_4ab6b4cc6a7edbff49100e9123df213f -->
<g id="edge32" class="edge">
<title>dir_bcbb2cf9a3d3d83e5515c82071a07177&#45;&gt;dir_4ab6b4cc6a7edbff49100e9123df213f</title>
<path fill="none" stroke="#000000" d="M389.8319,-252.4133C397.7973,-260.7389 406.5812,-270.7282 413.9732,-279.8144"/>
<polygon fill="#000000" stroke="#000000" points="411.3615,-282.1546 420.3072,-287.8314 416.8541,-277.815 411.3615,-282.1546"/>
<g id="a_edge32&#45;headlabel"><a xlink:href="dir_000013_000027.html" target="_top" xlink:title="8">
<text text-anchor="middle" x="406.9053" y="-278.5942" font-family="Helvetica,sans-Serif" font-size="10.00" fill="#000000">8</text>
</a>
</g>
</g>
<!-- dir_bcbb2cf9a3d3d83e5515c82071a07177&#45;&gt;dir_051dca18e802f8e9474f2e30d29c04e0 -->
<g id="edge33" class="edge">
<title>dir_bcbb2cf9a3d3d83e5515c82071a07177&#45;&gt;dir_051dca18e802f8e9474f2e30d29c04e0</title>
<path fill="none" stroke="#000000" d="M338.0751,-215.8314C325.5098,-206.9632 311.0986,-196.1637 298.983,-186.5718"/>
<polygon fill="#000000" stroke="#000000" points="300.9993,-183.7019 291.013,-180.1628 296.6126,-189.157 300.9993,-183.7019"/>
<g id="a_edge33&#45;headlabel"><a xlink:href="dir_000013_000039.html" target="_top" xlink:title="4">
<text text-anchor="middle" x="305.5798" y="-181.2419" font-family="Helvetica,sans-Serif" font-size="10.00" fill="#000000">4</text>
</a>
</g>
</g>
</g>
</svg>
