<?xml version="1.0" encoding="UTF-8" standalone="no"?>
<!DOCTYPE svg PUBLIC "-//W3C//DTD SVG 1.1//EN"
 "http://www.w3.org/Graphics/SVG/1.1/DTD/svg11.dtd">
<!-- Generated by graphviz version 2.40.1 (20161225.0304)
 -->
<!-- Title: /home/travis/build/AliceO2Group/AliceO2/Utilities Pages: 1 -->
<!--zoomable 348 -->
<svg id="main" version="1.1" xmlns="http://www.w3.org/2000/svg" xmlns:xlink="http://www.w3.org/1999/xlink" xml:space="preserve" onload="init(evt)">
<style type="text/css"><![CDATA[
.edge:hover path { stroke: red; }
.edge:hover polygon { stroke: red; fill: red; }
]]></style>
<script type="text/javascript"><![CDATA[
var edges = document.getElementsByTagName('g');
if (edges && edges.length) {
  for (var i=0;i<edges.length;i++) {
    if (edges[i].id.substr(0,4)=='edge') {
      edges[i].setAttribute('class','edge');
    }
  }
}
]]></script>
        <defs>
                <circle id="rim" cx="0" cy="0" r="7"/>
                <circle id="rim2" cx="0" cy="0" r="3.5"/>
                <g id="zoomPlus">
                        <use xlink:href="#rim" fill="#404040">
                                <set attributeName="fill" to="#808080" begin="zoomplus.mouseover" end="zoomplus.mouseout"/>
                        </use>
                        <path d="M-4,0h8M0,-4v8" fill="none" stroke="white" stroke-width="1.5" pointer-events="none"/>
                </g>
                <g id="zoomMin">
                        <use xlink:href="#rim" fill="#404040">
                                <set attributeName="fill" to="#808080" begin="zoomminus.mouseover" end="zoomminus.mouseout"/>
                        </use>
                        <path d="M-4,0h8" fill="none" stroke="white" stroke-width="1.5" pointer-events="none"/>
                </g>
                <g id="dirArrow">
                        <path fill="none" stroke="white" stroke-width="1.5" d="M0,-3.0v7 M-2.5,-0.5L0,-3.0L2.5,-0.5"/>
                </g>
               <g id="resetDef">
                       <use xlink:href="#rim2" fill="#404040">
                               <set attributeName="fill" to="#808080" begin="reset.mouseover" end="reset.mouseout"/>
                       </use>
               </g>
        </defs>

<script type="text/javascript">
var viewWidth = 1031;
var viewHeight = 348;
var sectionId = 'dynsection-0';
</script>
<script xlink:href="svgpan.js"/>
<svg id="graph" class="graph">
<g id="viewport">
<title>/home/travis/build/AliceO2Group/AliceO2/Utilities</title>
<g id="clust1" class="cluster">
<title>clusterdir_b05a5fa85f84bfc9013183c9d87f9a36</title>
<g id="a_clust1"><a xlink:href="dir_b05a5fa85f84bfc9013183c9d87f9a36.html" target="_top">
<polygon fill="#eeeeff" stroke="#000000" points="8,-208 8,-332 827,-332 827,-208 8,-208"/>
</a>
</g>
</g>
<!-- dir_b05a5fa85f84bfc9013183c9d87f9a36 -->
<g id="node1" class="node">
<title>dir_b05a5fa85f84bfc9013183c9d87f9a36</title>
<text text-anchor="middle" x="791" y="-303.5" font-family="Helvetica,sans-Serif" font-size="10.00" fill="#000000">Utilities</text>
</g>
<!-- dir_89404594baeba009a250b72877027579 -->
<g id="node2" class="node">
<title>dir_89404594baeba009a250b72877027579</title>
<g id="a_node2"><a xlink:href="dir_89404594baeba009a250b72877027579.html" target="_top" xlink:title="aliceHLTwrapper">
<polygon fill="#ffffff" stroke="#ff0000" points="239.5,-324 144.5,-324 144.5,-288 239.5,-288 239.5,-324"/>
<text text-anchor="middle" x="192" y="-303.5" font-family="Helvetica,sans-Serif" font-size="10.00" fill="#000000">aliceHLTwrapper</text>
</a>
</g>
</g>
<!-- dir_f35ccb320b67f1c85d228c773db13bda -->
<g id="node7" class="node">
<title>dir_f35ccb320b67f1c85d228c773db13bda</title>
<g id="a_node7"><a xlink:href="dir_f35ccb320b67f1c85d228c773db13bda.html" target="_top" xlink:title="O2Device">
<polygon fill="#ffffff" stroke="#ff0000" points="323,-252 259,-252 259,-216 323,-216 323,-252"/>
<text text-anchor="middle" x="291" y="-231.5" font-family="Helvetica,sans-Serif" font-size="10.00" fill="#000000">O2Device</text>
</a>
</g>
</g>
<!-- dir_89404594baeba009a250b72877027579&#45;&gt;dir_f35ccb320b67f1c85d228c773db13bda -->
<g id="edge11" class="edge">
<title>dir_89404594baeba009a250b72877027579&#45;&gt;dir_f35ccb320b67f1c85d228c773db13bda</title>
<path fill="none" stroke="#000000" d="M216.9819,-287.8314C229.2928,-278.8779 244.3107,-267.9558 257.5937,-258.2955"/>
<polygon fill="#000000" stroke="#000000" points="259.9973,-260.8752 266.0261,-252.1628 255.8801,-255.214 259.9973,-260.8752"/>
<g id="a_edge11&#45;headlabel"><a xlink:href="dir_000716_000736.html" target="_top" xlink:title="2">
<text text-anchor="middle" x="258.7602" y="-262.7856" font-family="Helvetica,sans-Serif" font-size="10.00" fill="#000000">2</text>
</a>
</g>
</g>
<!-- dir_2171f7ec022c5423887b07c69b2f5b48 -->
<g id="node14" class="node">
<title>dir_2171f7ec022c5423887b07c69b2f5b48</title>
<g id="a_node14"><a xlink:href="dir_2171f7ec022c5423887b07c69b2f5b48.html" target="_top" xlink:title="DataFormats">
<polygon fill="none" stroke="#ff0000" points="915,-252 835,-252 835,-216 915,-216 915,-252"/>
<text text-anchor="middle" x="875" y="-231.5" font-family="Helvetica,sans-Serif" font-size="10.00" fill="#000000">DataFormats</text>
</a>
</g>
</g>
<!-- dir_89404594baeba009a250b72877027579&#45;&gt;dir_2171f7ec022c5423887b07c69b2f5b48 -->
<g id="edge12" class="edge">
<title>dir_89404594baeba009a250b72877027579&#45;&gt;dir_2171f7ec022c5423887b07c69b2f5b48</title>
<path fill="none" stroke="#000000" d="M239.7582,-289.7847C242.5295,-289.1141 245.2905,-288.5108 248,-288 499.7476,-240.5401 575.9343,-308.0927 824.8198,-253.2838"/>
<polygon fill="#000000" stroke="#000000" points="825.8991,-256.6286 834.8883,-251.021 824.3642,-249.799 825.8991,-256.6286"/>
<g id="a_edge12&#45;headlabel"><a xlink:href="dir_000716_000076.html" target="_top" xlink:title="6">
<text text-anchor="middle" x="823.0145" y="-257.6869" font-family="Helvetica,sans-Serif" font-size="10.00" fill="#000000">6</text>
</a>
</g>
</g>
<!-- dir_e739392ef12c0b48c71c218f1fc8a69d -->
<g id="node3" class="node">
<title>dir_e739392ef12c0b48c71c218f1fc8a69d</title>
<g id="a_node3"><a xlink:href="dir_e739392ef12c0b48c71c218f1fc8a69d.html" target="_top" xlink:title="DataCompression">
<polygon fill="#ffffff" stroke="#ff0000" points="745,-324 641,-324 641,-288 745,-288 745,-324"/>
<text text-anchor="middle" x="693" y="-303.5" font-family="Helvetica,sans-Serif" font-size="10.00" fill="#000000">DataCompression</text>
</a>
</g>
</g>
<!-- dir_4ab6b4cc6a7edbff49100e9123df213f -->
<g id="node11" class="node">
<title>dir_4ab6b4cc6a7edbff49100e9123df213f</title>
<g id="a_node11"><a xlink:href="dir_4ab6b4cc6a7edbff49100e9123df213f.html" target="_top" xlink:title="Common">
<polygon fill="none" stroke="#ff0000" points="982.5,-180 921.5,-180 921.5,-144 982.5,-144 982.5,-180"/>
<text text-anchor="middle" x="952" y="-159.5" font-family="Helvetica,sans-Serif" font-size="10.00" fill="#000000">Common</text>
</a>
</g>
</g>
<!-- dir_e739392ef12c0b48c71c218f1fc8a69d&#45;&gt;dir_4ab6b4cc6a7edbff49100e9123df213f -->
<g id="edge18" class="edge">
<title>dir_e739392ef12c0b48c71c218f1fc8a69d&#45;&gt;dir_4ab6b4cc6a7edbff49100e9123df213f</title>
<path fill="none" stroke="#000000" d="M745.1413,-290.1986C748.1297,-289.4226 751.0981,-288.6832 754,-288 798.5957,-277.5005 927.5679,-287.1108 957,-252 971.2111,-235.047 968.2033,-209.3746 962.6596,-189.7814"/>
<polygon fill="#000000" stroke="#000000" points="965.9694,-188.6398 959.6072,-180.1679 959.2977,-190.7583 965.9694,-188.6398"/>
<g id="a_edge18&#45;headlabel"><a xlink:href="dir_000721_000027.html" target="_top" xlink:title="1">
<text text-anchor="middle" x="969.7633" y="-188.7067" font-family="Helvetica,sans-Serif" font-size="10.00" fill="#000000">1</text>
</a>
</g>
</g>
<!-- dir_8ba487e25de5ee77e05e9dce7582cb98 -->
<g id="node12" class="node">
<title>dir_8ba487e25de5ee77e05e9dce7582cb98</title>
<g id="a_node12"><a xlink:href="dir_8ba487e25de5ee77e05e9dce7582cb98.html" target="_top" xlink:title="Algorithm">
<polygon fill="none" stroke="#ff0000" points="922.5,-36 857.5,-36 857.5,0 922.5,0 922.5,-36"/>
<text text-anchor="middle" x="890" y="-15.5" font-family="Helvetica,sans-Serif" font-size="10.00" fill="#000000">Algorithm</text>
</a>
</g>
</g>
<!-- dir_e739392ef12c0b48c71c218f1fc8a69d&#45;&gt;dir_8ba487e25de5ee77e05e9dce7582cb98 -->
<g id="edge19" class="edge">
<title>dir_e739392ef12c0b48c71c218f1fc8a69d&#45;&gt;dir_8ba487e25de5ee77e05e9dce7582cb98</title>
<path fill="none" stroke="#000000" d="M745.1245,-290.1256C748.1172,-289.3682 751.0911,-288.6528 754,-288 855.3841,-265.2466 905.2346,-318.5877 985,-252 1046.5735,-200.5988 1025.9075,-131.3916 972,-72 960.5204,-59.3526 945.4644,-48.3328 931.3904,-39.6041"/>
<polygon fill="#000000" stroke="#000000" points="933.1752,-36.5934 922.7951,-34.4713 929.5863,-42.6033 933.1752,-36.5934"/>
<g id="a_edge19&#45;headlabel"><a xlink:href="dir_000721_000000.html" target="_top" xlink:title="1">
<text text-anchor="middle" x="937.7171" y="-33.4986" font-family="Helvetica,sans-Serif" font-size="10.00" fill="#000000">1</text>
</a>
</g>
</g>
<!-- dir_47364d143a6f2085f762c4e9d70a45c1 -->
<g id="node4" class="node">
<title>dir_47364d143a6f2085f762c4e9d70a45c1</title>
<g id="a_node4"><a xlink:href="dir_47364d143a6f2085f762c4e9d70a45c1.html" target="_top" xlink:title="DataFlow">
<polygon fill="#ffffff" stroke="#ff0000" points="405,-324 343,-324 343,-288 405,-288 405,-324"/>
<text text-anchor="middle" x="374" y="-303.5" font-family="Helvetica,sans-Serif" font-size="10.00" fill="#000000">DataFlow</text>
</a>
</g>
</g>
<!-- dir_47364d143a6f2085f762c4e9d70a45c1&#45;&gt;dir_f35ccb320b67f1c85d228c773db13bda -->
<g id="edge6" class="edge">
<title>dir_47364d143a6f2085f762c4e9d70a45c1&#45;&gt;dir_f35ccb320b67f1c85d228c773db13bda</title>
<path fill="none" stroke="#000000" d="M353.0556,-287.8314C342.9309,-279.0485 330.6223,-268.3712 319.6452,-258.8489"/>
<polygon fill="#000000" stroke="#000000" points="321.7851,-256.0718 311.9377,-252.1628 317.1981,-261.3595 321.7851,-256.0718"/>
<g id="a_edge6&#45;headlabel"><a xlink:href="dir_000725_000736.html" target="_top" xlink:title="10">
<text text-anchor="middle" x="326.3609" y="-253.7825" font-family="Helvetica,sans-Serif" font-size="10.00" fill="#000000">10</text>
</a>
</g>
</g>
<!-- dir_47364d143a6f2085f762c4e9d70a45c1&#45;&gt;dir_2171f7ec022c5423887b07c69b2f5b48 -->
<g id="edge7" class="edge">
<title>dir_47364d143a6f2085f762c4e9d70a45c1&#45;&gt;dir_2171f7ec022c5423887b07c69b2f5b48</title>
<path fill="none" stroke="#000000" d="M405.0794,-290.8188C408.0487,-289.7335 411.052,-288.7668 414,-288 590.7789,-242.0153 648.1173,-293.7774 824.9927,-253.3082"/>
<polygon fill="#000000" stroke="#000000" points="825.9474,-256.6792 834.8785,-250.9796 824.3424,-249.8657 825.9474,-256.6792"/>
<g id="a_edge7&#45;headlabel"><a xlink:href="dir_000725_000076.html" target="_top" xlink:title="31">
<text text-anchor="middle" x="823.0995" y="-257.7669" font-family="Helvetica,sans-Serif" font-size="10.00" fill="#000000">31</text>
</a>
</g>
</g>
<!-- dir_0c219a87dc857607d01a5568196ad92e -->
<g id="node5" class="node">
<title>dir_0c219a87dc857607d01a5568196ad92e</title>
<g id="a_node5"><a xlink:href="dir_0c219a87dc857607d01a5568196ad92e.html" target="_top" xlink:title="hough">
<polygon fill="#ffffff" stroke="#000000" points="477,-324 423,-324 423,-288 477,-288 477,-324"/>
<text text-anchor="middle" x="450" y="-303.5" font-family="Helvetica,sans-Serif" font-size="10.00" fill="#000000">hough</text>
</a>
</g>
</g>
<!-- dir_6b130aa431c809d0d74568b67af7c9fa -->
<g id="node6" class="node">
<title>dir_6b130aa431c809d0d74568b67af7c9fa</title>
<g id="a_node6"><a xlink:href="dir_6b130aa431c809d0d74568b67af7c9fa.html" target="_top" xlink:title="Mergers">
<polygon fill="#ffffff" stroke="#ff0000" points="623,-324 567,-324 567,-288 623,-288 623,-324"/>
<text text-anchor="middle" x="595" y="-303.5" font-family="Helvetica,sans-Serif" font-size="10.00" fill="#000000">Mergers</text>
</a>
</g>
</g>
<!-- dir_bcbb2cf9a3d3d83e5515c82071a07177 -->
<g id="node13" class="node">
<title>dir_bcbb2cf9a3d3d83e5515c82071a07177</title>
<g id="a_node13"><a xlink:href="dir_bcbb2cf9a3d3d83e5515c82071a07177.html" target="_top" xlink:title="Framework">
<polygon fill="none" stroke="#ff0000" points="962.5,-108 891.5,-108 891.5,-72 962.5,-72 962.5,-108"/>
<text text-anchor="middle" x="927" y="-87.5" font-family="Helvetica,sans-Serif" font-size="10.00" fill="#000000">Framework</text>
</a>
</g>
</g>
<!-- dir_6b130aa431c809d0d74568b67af7c9fa&#45;&gt;dir_bcbb2cf9a3d3d83e5515c82071a07177 -->
<g id="edge16" class="edge">
<title>dir_6b130aa431c809d0d74568b67af7c9fa&#45;&gt;dir_bcbb2cf9a3d3d83e5515c82071a07177</title>
<path fill="none" stroke="#000000" d="M623.2992,-291.0493C626.1873,-289.884 629.1189,-288.8371 632,-288 768.5881,-248.3161 830.8478,-329.6779 950,-252 993.1435,-223.8738 1013.8801,-190.623 992,-144 986.5409,-132.3676 977.2088,-122.3739 967.2927,-114.2592"/>
<polygon fill="#000000" stroke="#000000" points="969.355,-111.4304 959.2779,-108.1588 965.1154,-117.0005 969.355,-111.4304"/>
<g id="a_edge16&#45;headlabel"><a xlink:href="dir_000731_000013.html" target="_top" xlink:title="33">
<text text-anchor="middle" x="973.9349" y="-108.8482" font-family="Helvetica,sans-Serif" font-size="10.00" fill="#000000">33</text>
</a>
</g>
</g>
<!-- dir_6b130aa431c809d0d74568b67af7c9fa&#45;&gt;dir_2171f7ec022c5423887b07c69b2f5b48 -->
<g id="edge17" class="edge">
<title>dir_6b130aa431c809d0d74568b67af7c9fa&#45;&gt;dir_2171f7ec022c5423887b07c69b2f5b48</title>
<path fill="none" stroke="#000000" d="M623.3606,-291.2484C626.2362,-290.0427 629.1482,-288.932 632,-288 714.2629,-261.1152 742.6068,-275.9482 825.0569,-253.5799"/>
<polygon fill="#000000" stroke="#000000" points="826.1614,-256.905 834.8369,-250.8234 824.2624,-250.1675 826.1614,-256.905"/>
<g id="a_edge17&#45;headlabel"><a xlink:href="dir_000731_000076.html" target="_top" xlink:title="2">
<text text-anchor="middle" x="823.4718" y="-258.1129" font-family="Helvetica,sans-Serif" font-size="10.00" fill="#000000">2</text>
</a>
</g>
</g>
<!-- dir_f35ccb320b67f1c85d228c773db13bda&#45;&gt;dir_2171f7ec022c5423887b07c69b2f5b48 -->
<g id="edge10" class="edge">
<title>dir_f35ccb320b67f1c85d228c773db13bda&#45;&gt;dir_2171f7ec022c5423887b07c69b2f5b48</title>
<path fill="none" stroke="#000000" d="M323.2227,-234C490.2696,-234 657.3166,-234 824.3636,-234"/>
<polygon fill="#000000" stroke="#000000" points="824.8561,-237.5001 834.856,-234 824.856,-230.5001 824.8561,-237.5001"/>
<g id="a_edge10&#45;headlabel"><a xlink:href="dir_000736_000076.html" target="_top" xlink:title="4">
<text text-anchor="middle" x="821.2614" y="-237.8393" font-family="Helvetica,sans-Serif" font-size="10.00" fill="#000000">4</text>
</a>
</g>
</g>
<!-- dir_128e7457a060fa7b176dc57431c84710 -->
<g id="node8" class="node">
<title>dir_128e7457a060fa7b176dc57431c84710</title>
<g id="a_node8"><a xlink:href="dir_128e7457a060fa7b176dc57431c84710.html" target="_top" xlink:title="O2MessageMonitor">
<polygon fill="#ffffff" stroke="#ff0000" points="126,-324 16,-324 16,-288 126,-288 126,-324"/>
<text text-anchor="middle" x="71" y="-303.5" font-family="Helvetica,sans-Serif" font-size="10.00" fill="#000000">O2MessageMonitor</text>
</a>
</g>
</g>
<!-- dir_128e7457a060fa7b176dc57431c84710&#45;&gt;dir_f35ccb320b67f1c85d228c773db13bda -->
<g id="edge9" class="edge">
<title>dir_128e7457a060fa7b176dc57431c84710&#45;&gt;dir_f35ccb320b67f1c85d228c773db13bda</title>
<path fill="none" stroke="#000000" d="M126.2313,-287.9243C164.3447,-275.4508 214.2355,-259.1229 249.0913,-247.7156"/>
<polygon fill="#000000" stroke="#000000" points="250.5327,-250.9266 258.9481,-244.4897 248.3554,-244.2738 250.5327,-250.9266"/>
<g id="a_edge9&#45;headlabel"><a xlink:href="dir_000741_000736.html" target="_top" xlink:title="2">
<text text-anchor="middle" x="247.9995" y="-252.243" font-family="Helvetica,sans-Serif" font-size="10.00" fill="#000000">2</text>
</a>
</g>
</g>
<!-- dir_5d0813f9033df95284de52361814c1a3 -->
<g id="node9" class="node">
<title>dir_5d0813f9033df95284de52361814c1a3</title>
<g id="a_node9"><a xlink:href="dir_5d0813f9033df95284de52361814c1a3.html" target="_top" xlink:title="Publishers">
<polygon fill="#ffffff" stroke="#ff0000" points="324.5,-324 257.5,-324 257.5,-288 324.5,-288 324.5,-324"/>
<text text-anchor="middle" x="291" y="-303.5" font-family="Helvetica,sans-Serif" font-size="10.00" fill="#000000">Publishers</text>
</a>
</g>
</g>
<!-- dir_5d0813f9033df95284de52361814c1a3&#45;&gt;dir_f35ccb320b67f1c85d228c773db13bda -->
<g id="edge1" class="edge">
<title>dir_5d0813f9033df95284de52361814c1a3&#45;&gt;dir_f35ccb320b67f1c85d228c773db13bda</title>
<path fill="none" stroke="#000000" d="M291,-287.8314C291,-280.131 291,-270.9743 291,-262.4166"/>
<polygon fill="#000000" stroke="#000000" points="294.5001,-262.4132 291,-252.4133 287.5001,-262.4133 294.5001,-262.4132"/>
<g id="a_edge1&#45;headlabel"><a xlink:href="dir_000746_000736.html" target="_top" xlink:title="1">
<text text-anchor="middle" x="297.3393" y="-263.5079" font-family="Helvetica,sans-Serif" font-size="10.00" fill="#000000">1</text>
</a>
</g>
</g>
<!-- dir_5d0813f9033df95284de52361814c1a3&#45;&gt;dir_2171f7ec022c5423887b07c69b2f5b48 -->
<g id="edge2" class="edge">
<title>dir_5d0813f9033df95284de52361814c1a3&#45;&gt;dir_2171f7ec022c5423887b07c69b2f5b48</title>
<path fill="none" stroke="#000000" d="M324.9315,-290.6258C327.9581,-289.613 331.0088,-288.7142 334,-288 546.152,-237.346 613.349,-300.5864 825.0209,-253.2641"/>
<polygon fill="#000000" stroke="#000000" points="825.919,-256.6491 834.8841,-251.003 824.3548,-249.8261 825.919,-256.6491"/>
<g id="a_edge2&#45;headlabel"><a xlink:href="dir_000746_000076.html" target="_top" xlink:title="5">
<text text-anchor="middle" x="823.0497" y="-257.7197" font-family="Helvetica,sans-Serif" font-size="10.00" fill="#000000">5</text>
</a>
</g>
</g>
<!-- dir_ec14eb73eaee628e81cdf49beb7826f2 -->
<g id="node10" class="node">
<title>dir_ec14eb73eaee628e81cdf49beb7826f2</title>
<g id="a_node10"><a xlink:href="dir_ec14eb73eaee628e81cdf49beb7826f2.html" target="_top" xlink:title="rANS">
<polygon fill="#ffffff" stroke="#ff0000" points="549,-324 495,-324 495,-288 549,-288 549,-324"/>
<text text-anchor="middle" x="522" y="-303.5" font-family="Helvetica,sans-Serif" font-size="10.00" fill="#000000">rANS</text>
</a>
</g>
</g>
<!-- dir_ec14eb73eaee628e81cdf49beb7826f2&#45;&gt;dir_4ab6b4cc6a7edbff49100e9123df213f -->
<g id="edge3" class="edge">
<title>dir_ec14eb73eaee628e81cdf49beb7826f2&#45;&gt;dir_4ab6b4cc6a7edbff49100e9123df213f</title>
<path fill="none" stroke="#000000" d="M549.0974,-291.1657C552.0437,-289.9432 555.0459,-288.8522 558,-288 636.5239,-265.3481 860.6382,-303.6178 924,-252 942.258,-237.1261 948.8368,-210.5328 951.0976,-190.0971"/>
<polygon fill="#000000" stroke="#000000" points="954.591,-190.3205 951.9253,-180.0665 947.6147,-189.7448 954.591,-190.3205"/>
<g id="a_edge3&#45;headlabel"><a xlink:href="dir_000559_000027.html" target="_top" xlink:title="1">
<text text-anchor="middle" x="957.1252" y="-191.6364" font-family="Helvetica,sans-Serif" font-size="10.00" fill="#000000">1</text>
</a>
</g>
</g>
<!-- dir_4ab6b4cc6a7edbff49100e9123df213f&#45;&gt;dir_bcbb2cf9a3d3d83e5515c82071a07177 -->
<g id="edge4" class="edge">
<title>dir_4ab6b4cc6a7edbff49100e9123df213f&#45;&gt;dir_bcbb2cf9a3d3d83e5515c82071a07177</title>
<path fill="none" stroke="#000000" d="M939.7391,-143.8314C936.2772,-136.0463 932.8399,-126.7729 930.1643,-118.1347"/>
<polygon fill="#000000" stroke="#000000" points="933.5047,-117.0848 927.4175,-108.4133 926.7685,-118.9882 933.5047,-117.0848"/>
<g id="a_edge4&#45;headlabel"><a xlink:href="dir_000027_000013.html" target="_top" xlink:title="2">
<text text-anchor="middle" x="937.2144" y="-117.272" font-family="Helvetica,sans-Serif" font-size="10.00" fill="#000000">2</text>
</a>
</g>
</g>
<!-- dir_4ab6b4cc6a7edbff49100e9123df213f&#45;&gt;dir_2171f7ec022c5423887b07c69b2f5b48 -->
<g id="edge5" class="edge">
<title>dir_4ab6b4cc6a7edbff49100e9123df213f&#45;&gt;dir_2171f7ec022c5423887b07c69b2f5b48</title>
<path fill="none" stroke="#000000" d="M938.284,-180.4133C929.7627,-189.1637 918.5975,-199.7519 907.9756,-209.1978"/>
<polygon fill="#000000" stroke="#000000" points="905.6107,-206.6162 900.3827,-215.8314 910.2163,-211.8878 905.6107,-206.6162"/>
<g id="a_edge5&#45;headlabel"><a xlink:href="dir_000027_000076.html" target="_top" xlink:title="2">
<text text-anchor="middle" x="906.4497" y="-199.613" font-family="Helvetica,sans-Serif" font-size="10.00" fill="#000000">2</text>
</a>
</g>
</g>
<!-- dir_8ba487e25de5ee77e05e9dce7582cb98&#45;&gt;dir_2171f7ec022c5423887b07c69b2f5b48 -->
<g id="edge8" class="edge">
<title>dir_8ba487e25de5ee77e05e9dce7582cb98&#45;&gt;dir_2171f7ec022c5423887b07c69b2f5b48</title>
<path fill="none" stroke="#000000" d="M894.7107,-36.4364C894.09,-46.8454 892.1343,-60.1126 891,-72 886.5315,-118.8307 884.914,-173.5517 881.8262,-205.907"/>
<polygon fill="#000000" stroke="#000000" points="878.3328,-205.6552 880.7164,-215.9785 885.2907,-206.422 878.3328,-205.6552"/>
<g id="a_edge8&#45;headlabel"><a xlink:href="dir_000000_000076.html" target="_top" xlink:title="8">
<text text-anchor="middle" x="875.9042" y="-199.2713" font-family="Helvetica,sans-Serif" font-size="10.00" fill="#000000">8</text>
</a>
</g>
</g>
<!-- dir_bcbb2cf9a3d3d83e5515c82071a07177&#45;&gt;dir_4ab6b4cc6a7edbff49100e9123df213f -->
<g id="edge13" class="edge">
<title>dir_bcbb2cf9a3d3d83e5515c82071a07177&#45;&gt;dir_4ab6b4cc6a7edbff49100e9123df213f</title>
<path fill="none" stroke="#000000" d="M939.3695,-108.4133C942.8307,-116.2292 946.2598,-125.5113 948.9194,-134.136"/>
<polygon fill="#000000" stroke="#000000" points="945.569,-135.1511 951.6438,-143.8314 952.308,-133.2574 945.569,-135.1511"/>
<g id="a_edge13&#45;headlabel"><a xlink:href="dir_000013_000027.html" target="_top" xlink:title="8">
<text text-anchor="middle" x="941.8632" y="-129.9586" font-family="Helvetica,sans-Serif" font-size="10.00" fill="#000000">8</text>
</a>
</g>
</g>
<!-- dir_bcbb2cf9a3d3d83e5515c82071a07177&#45;&gt;dir_8ba487e25de5ee77e05e9dce7582cb98 -->
<g id="edge14" class="edge">
<title>dir_bcbb2cf9a3d3d83e5515c82071a07177&#45;&gt;dir_8ba487e25de5ee77e05e9dce7582cb98</title>
<path fill="none" stroke="#000000" d="M917.6633,-71.8314C913.5757,-63.8771 908.6896,-54.369 904.1691,-45.5723"/>
<polygon fill="#000000" stroke="#000000" points="907.1461,-43.7078 899.4624,-36.4133 900.9201,-46.9074 907.1461,-43.7078"/>
<g id="a_edge14&#45;headlabel"><a xlink:href="dir_000013_000000.html" target="_top" xlink:title="1">
<text text-anchor="middle" x="911.3144" y="-43.1073" font-family="Helvetica,sans-Serif" font-size="10.00" fill="#000000">1</text>
</a>
</g>
</g>
<!-- dir_bcbb2cf9a3d3d83e5515c82071a07177&#45;&gt;dir_2171f7ec022c5423887b07c69b2f5b48 -->
<g id="edge15" class="edge">
<title>dir_bcbb2cf9a3d3d83e5515c82071a07177&#45;&gt;dir_2171f7ec022c5423887b07c69b2f5b48</title>
<path fill="none" stroke="#000000" d="M925.1259,-108.0896C918.6692,-132.8962 902.7545,-177.6824 890.3228,-206.6113"/>
<polygon fill="#000000" stroke="#000000" points="887.1189,-205.2024 886.259,-215.7623 893.5164,-208.0435 887.1189,-205.2024"/>
<g id="a_edge15&#45;headlabel"><a xlink:href="dir_000013_000076.html" target="_top" xlink:title="82">
<text text-anchor="middle" x="885.9828" y="-198.2648" font-family="Helvetica,sans-Serif" font-size="10.00" fill="#000000">82</text>
</a>
</g>
</g>
<!-- dir_2171f7ec022c5423887b07c69b2f5b48&#45;&gt;dir_ec14eb73eaee628e81cdf49beb7826f2 -->
<g id="edge20" class="edge">
<title>dir_2171f7ec022c5423887b07c69b2f5b48&#45;&gt;dir_ec14eb73eaee628e81cdf49beb7826f2</title>
<path fill="none" stroke="#000000" d="M834.8593,-250.9037C833.5649,-251.2938 832.2763,-251.6609 831,-252 715.8393,-282.6001 677.0566,-253.746 558.9041,-288.3154"/>
<polygon fill="#000000" stroke="#000000" points="557.6895,-285.0259 549.1272,-291.2659 559.712,-291.7274 557.6895,-285.0259"/>
<g id="a_edge20&#45;headlabel"><a xlink:href="dir_000076_000559.html" target="_top" xlink:title="1">
<text text-anchor="middle" x="560.3105" y="-278.7693" font-family="Helvetica,sans-Serif" font-size="10.00" fill="#000000">1</text>
</a>
</g>
</g>
<!-- dir_2171f7ec022c5423887b07c69b2f5b48&#45;&gt;dir_4ab6b4cc6a7edbff49100e9123df213f -->
<g id="edge21" class="edge">
<title>dir_2171f7ec022c5423887b07c69b2f5b48&#45;&gt;dir_4ab6b4cc6a7edbff49100e9123df213f</title>
<path fill="none" stroke="#000000" d="M888.478,-215.8314C897.0149,-207.0485 908.2666,-196.3712 918.972,-186.8489"/>
<polygon fill="#000000" stroke="#000000" points="921.3965,-189.3783 926.624,-180.1628 916.7907,-184.107 921.3965,-189.3783"/>
<g id="a_edge21&#45;headlabel"><a xlink:href="dir_000076_000027.html" target="_top" xlink:title="35">
<text text-anchor="middle" x="920.5578" y="-191.3815" font-family="Helvetica,sans-Serif" font-size="10.00" fill="#000000">35</text>
</a>
</g>
</g>
<!-- dir_2171f7ec022c5423887b07c69b2f5b48&#45;&gt;dir_8ba487e25de5ee77e05e9dce7582cb98 -->
<g id="edge22" class="edge">
<title>dir_2171f7ec022c5423887b07c69b2f5b48&#45;&gt;dir_8ba487e25de5ee77e05e9dce7582cb98</title>
<path fill="none" stroke="#000000" d="M869.6202,-215.9785C866.5848,-186.0243 868.0263,-124.1246 873,-72 873.7975,-63.6416 875.0012,-54.6012 876.6074,-46.3517"/>
<polygon fill="#000000" stroke="#000000" points="880.0576,-46.963 878.8568,-36.4364 873.231,-45.4142 880.0576,-46.963"/>
<g id="a_edge22&#45;headlabel"><a xlink:href="dir_000076_000000.html" target="_top" xlink:title="2">
<text text-anchor="middle" x="882.0312" y="-48.5967" font-family="Helvetica,sans-Serif" font-size="10.00" fill="#000000">2</text>
</a>
</g>
</g>
<!-- dir_2171f7ec022c5423887b07c69b2f5b48&#45;&gt;dir_bcbb2cf9a3d3d83e5515c82071a07177 -->
<g id="edge23" class="edge">
<title>dir_2171f7ec022c5423887b07c69b2f5b48&#45;&gt;dir_bcbb2cf9a3d3d83e5515c82071a07177</title>
<path fill="none" stroke="#000000" d="M876.9127,-215.7623C883.3787,-190.9846 899.1952,-146.4714 911.5891,-117.5939"/>
<polygon fill="#000000" stroke="#000000" points="914.9499,-118.6495 915.8093,-108.0896 908.5522,-115.8087 914.9499,-118.6495"/>
<g id="a_edge23&#45;headlabel"><a xlink:href="dir_000076_000013.html" target="_top" xlink:title="10">
<text text-anchor="middle" x="916.0861" y="-120.5871" font-family="Helvetica,sans-Serif" font-size="10.00" fill="#000000">10</text>
</a>
</g>
</g>
</g>
</svg>
        <g id="navigator" transform="translate(0 0)" fill="#404254">
                <rect fill="#f2f5e9" fill-opacity="0.5" stroke="#606060" stroke-width=".5" x="0" y="0" width="60" height="60"/>
                <use id="zoomplus" xlink:href="#zoomPlus" x="17" y="9" onmousedown="handleZoom(evt,'in')"/>
                <use id="zoomminus" xlink:href="#zoomMin" x="42" y="9" onmousedown="handleZoom(evt,'out')"/>
                <use id="reset" xlink:href="#resetDef" x="30" y="36" onmousedown="handleReset()"/>
                <g id="arrowUp" xlink:href="#dirArrow" transform="translate(30 24)" onmousedown="handlePan(0,-1)">
                  <use xlink:href="#rim" fill="#404040">
                        <set attributeName="fill" to="#808080" begin="arrowUp.mouseover" end="arrowUp.mouseout"/>
                  </use>
                  <path fill="none" stroke="white" stroke-width="1.5" d="M0,-3.0v7 M-2.5,-0.5L0,-3.0L2.5,-0.5"/>
                </g>
                <g id="arrowRight" xlink:href="#dirArrow" transform="rotate(90) translate(36 -43)" onmousedown="handlePan(1,0)">
                  <use xlink:href="#rim" fill="#404040">
                        <set attributeName="fill" to="#808080" begin="arrowRight.mouseover" end="arrowRight.mouseout"/>
                  </use>
                  <path fill="none" stroke="white" stroke-width="1.5" d="M0,-3.0v7 M-2.5,-0.5L0,-3.0L2.5,-0.5"/>
                </g>
                <g id="arrowDown" xlink:href="#dirArrow" transform="rotate(180) translate(-30 -48)" onmousedown="handlePan(0,1)">
                  <use xlink:href="#rim" fill="#404040">
                        <set attributeName="fill" to="#808080" begin="arrowDown.mouseover" end="arrowDown.mouseout"/>
                  </use>
                  <path fill="none" stroke="white" stroke-width="1.5" d="M0,-3.0v7 M-2.5,-0.5L0,-3.0L2.5,-0.5"/>
                </g>
                <g id="arrowLeft" xlink:href="#dirArrow" transform="rotate(270) translate(-36 17)" onmousedown="handlePan(-1,0)">
                  <use xlink:href="#rim" fill="#404040">
                        <set attributeName="fill" to="#808080" begin="arrowLeft.mouseover" end="arrowLeft.mouseout"/>
                  </use>
                  <path fill="none" stroke="white" stroke-width="1.5" d="M0,-3.0v7 M-2.5,-0.5L0,-3.0L2.5,-0.5"/>
                </g>
        </g>
        <svg viewBox="0 0 15 15" width="100%" height="30px" preserveAspectRatio="xMaxYMin meet">
         <g id="arrow_out" transform="scale(0.3 0.3)">
          <a xlink:href="dir_b05a5fa85f84bfc9013183c9d87f9a36_dep_org.svg" target="_base">
           <rect id="button" ry="5" rx="5" y="6" x="6" height="38" width="38"
                fill="#f2f5e9" fill-opacity="0.5" stroke="#606060" stroke-width="1.0"/>
           <path id="arrow"
             d="M 11.500037,31.436501 C 11.940474,20.09759 22.043105,11.32322 32.158766,21.979434 L 37.068811,17.246167 C 37.068811,17.246167 37.088388,32 37.088388,32 L 22.160133,31.978069 C 22.160133,31.978069 26.997745,27.140456 26.997745,27.140456 C 18.528582,18.264221 13.291696,25.230495 11.500037,31.436501 z"
             style="fill:#404040;"/>
          </a>
         </g>
        </svg>
</svg>
