<?xml version="1.0" encoding="UTF-8" standalone="no"?>
<!DOCTYPE svg PUBLIC "-//W3C//DTD SVG 1.1//EN"
 "http://www.w3.org/Graphics/SVG/1.1/DTD/svg11.dtd">
<!-- Generated by graphviz version 2.40.1 (20161225.0304)
 -->
<!-- Title: /home/travis/build/AliceO2Group/AliceO2/Detectors/ITSMFT/common Pages: 1 -->
<!--zoomable 468 -->
<svg id="main" version="1.1" xmlns="http://www.w3.org/2000/svg" xmlns:xlink="http://www.w3.org/1999/xlink" xml:space="preserve" onload="init(evt)">
<style type="text/css"><![CDATA[
.edge:hover path { stroke: red; }
.edge:hover polygon { stroke: red; fill: red; }
]]></style>
<script type="text/javascript"><![CDATA[
var edges = document.getElementsByTagName('g');
if (edges && edges.length) {
  for (var i=0;i<edges.length;i++) {
    if (edges[i].id.substr(0,4)=='edge') {
      edges[i].setAttribute('class','edge');
    }
  }
}
]]></script>
        <defs>
                <circle id="rim" cx="0" cy="0" r="7"/>
                <circle id="rim2" cx="0" cy="0" r="3.5"/>
                <g id="zoomPlus">
                        <use xlink:href="#rim" fill="#404040">
                                <set attributeName="fill" to="#808080" begin="zoomplus.mouseover" end="zoomplus.mouseout"/>
                        </use>
                        <path d="M-4,0h8M0,-4v8" fill="none" stroke="white" stroke-width="1.5" pointer-events="none"/>
                </g>
                <g id="zoomMin">
                        <use xlink:href="#rim" fill="#404040">
                                <set attributeName="fill" to="#808080" begin="zoomminus.mouseover" end="zoomminus.mouseout"/>
                        </use>
                        <path d="M-4,0h8" fill="none" stroke="white" stroke-width="1.5" pointer-events="none"/>
                </g>
                <g id="dirArrow">
                        <path fill="none" stroke="white" stroke-width="1.5" d="M0,-3.0v7 M-2.5,-0.5L0,-3.0L2.5,-0.5"/>
                </g>
               <g id="resetDef">
                       <use xlink:href="#rim2" fill="#404040">
                               <set attributeName="fill" to="#808080" begin="reset.mouseover" end="reset.mouseout"/>
                       </use>
               </g>
        </defs>

<script type="text/javascript">
var viewWidth = 865;
var viewHeight = 468;
var sectionId = 'dynsection-0';
</script>
<script xlink:href="svgpan.js"/>
<svg id="graph" class="graph">
<g id="viewport">
<title>/home/travis/build/AliceO2Group/AliceO2/Detectors/ITSMFT/common</title>
<g id="clust1" class="cluster">
<title>clusterdir_1306292b77b40360479b729ac9ee7efe</title>
<g id="a_clust1"><a xlink:href="dir_1306292b77b40360479b729ac9ee7efe.html" target="_top" xlink:title="ITSMFT">
<polygon fill="#ddddee" stroke="#000000" points="8,-200 8,-431 266,-431 266,-200 8,-200"/>
<text text-anchor="middle" x="137" y="-419" font-family="Helvetica,sans-Serif" font-size="10.00" fill="#000000">ITSMFT</text>
</a>
</g>
</g>
<g id="clust2" class="cluster">
<title>clusterdir_85bf31a2e8d306e7598ffcb73f8df6bf</title>
<g id="a_clust2"><a xlink:href="dir_85bf31a2e8d306e7598ffcb73f8df6bf.html" target="_top">
<polygon fill="#eeeeff" stroke="#000000" points="16,-208 16,-404 258,-404 258,-208 16,-208"/>
</a>
</g>
</g>
<!-- dir_85bf31a2e8d306e7598ffcb73f8df6bf -->
<g id="node1" class="node">
<title>dir_85bf31a2e8d306e7598ffcb73f8df6bf</title>
<text text-anchor="middle" x="220" y="-375.5" font-family="Helvetica,sans-Serif" font-size="10.00" fill="#000000">common</text>
</g>
<!-- dir_7c9998090bca7c4aa89c05dd66fe73f5 -->
<g id="node2" class="node">
<title>dir_7c9998090bca7c4aa89c05dd66fe73f5</title>
<g id="a_node2"><a xlink:href="dir_7c9998090bca7c4aa89c05dd66fe73f5.html" target="_top" xlink:title="base">
<polygon fill="#ffffff" stroke="#ff0000" points="150,-252 96,-252 96,-216 150,-216 150,-252"/>
<text text-anchor="middle" x="123" y="-231.5" font-family="Helvetica,sans-Serif" font-size="10.00" fill="#000000">base</text>
</a>
</g>
</g>
<!-- dir_4ab6b4cc6a7edbff49100e9123df213f -->
<g id="node7" class="node">
<title>dir_4ab6b4cc6a7edbff49100e9123df213f</title>
<g id="a_node7"><a xlink:href="dir_4ab6b4cc6a7edbff49100e9123df213f.html" target="_top" xlink:title="Common">
<polygon fill="none" stroke="#ff0000" points="576.5,-396 515.5,-396 515.5,-360 576.5,-360 576.5,-396"/>
<text text-anchor="middle" x="546" y="-375.5" font-family="Helvetica,sans-Serif" font-size="10.00" fill="#000000">Common</text>
</a>
</g>
</g>
<!-- dir_7c9998090bca7c4aa89c05dd66fe73f5&#45;&gt;dir_4ab6b4cc6a7edbff49100e9123df213f -->
<g id="edge31" class="edge">
<title>dir_7c9998090bca7c4aa89c05dd66fe73f5&#45;&gt;dir_4ab6b4cc6a7edbff49100e9123df213f</title>
<path fill="none" stroke="#000000" d="M150.0418,-243.2057C222.2692,-267.7938 420.0092,-335.1095 505.6122,-364.251"/>
<polygon fill="#000000" stroke="#000000" points="504.6437,-367.6185 515.2382,-367.5279 506.8996,-360.9919 504.6437,-367.6185"/>
<g id="a_edge31&#45;headlabel"><a xlink:href="dir_000470_000027.html" target="_top" xlink:title="4">
<text text-anchor="middle" x="500.3259" y="-366.6479" font-family="Helvetica,sans-Serif" font-size="10.00" fill="#000000">4</text>
</a>
</g>
</g>
<!-- dir_2171f7ec022c5423887b07c69b2f5b48 -->
<g id="node12" class="node">
<title>dir_2171f7ec022c5423887b07c69b2f5b48</title>
<g id="a_node12"><a xlink:href="dir_2171f7ec022c5423887b07c69b2f5b48.html" target="_top" xlink:title="DataFormats">
<polygon fill="none" stroke="#ff0000" points="518,-108 438,-108 438,-72 518,-72 518,-108"/>
<text text-anchor="middle" x="478" y="-87.5" font-family="Helvetica,sans-Serif" font-size="10.00" fill="#000000">DataFormats</text>
</a>
</g>
</g>
<!-- dir_7c9998090bca7c4aa89c05dd66fe73f5&#45;&gt;dir_2171f7ec022c5423887b07c69b2f5b48 -->
<g id="edge32" class="edge">
<title>dir_7c9998090bca7c4aa89c05dd66fe73f5&#45;&gt;dir_2171f7ec022c5423887b07c69b2f5b48</title>
<path fill="none" stroke="#000000" d="M140.4029,-215.8509C161.2019,-195.2568 197.9882,-162.1775 236,-144 298.1279,-114.29 377.1122,-100.6245 427.6231,-94.5528"/>
<polygon fill="#000000" stroke="#000000" points="428.1066,-98.0204 437.6424,-93.4033 427.3086,-91.066 428.1066,-98.0204"/>
<g id="a_edge32&#45;headlabel"><a xlink:href="dir_000470_000076.html" target="_top" xlink:title="2">
<text text-anchor="middle" x="424.859" y="-98.7508" font-family="Helvetica,sans-Serif" font-size="10.00" fill="#000000">2</text>
</a>
</g>
</g>
<!-- dir_2174d8cbbd82d5c404dd04814f845a3a -->
<g id="node3" class="node">
<title>dir_2174d8cbbd82d5c404dd04814f845a3a</title>
<g id="a_node3"><a xlink:href="dir_2174d8cbbd82d5c404dd04814f845a3a.html" target="_top" xlink:title="reconstruction">
<polygon fill="#ffffff" stroke="#ff0000" points="150,-324 64,-324 64,-288 150,-288 150,-324"/>
<text text-anchor="middle" x="107" y="-303.5" font-family="Helvetica,sans-Serif" font-size="10.00" fill="#000000">reconstruction</text>
</a>
</g>
</g>
<!-- dir_2174d8cbbd82d5c404dd04814f845a3a&#45;&gt;dir_7c9998090bca7c4aa89c05dd66fe73f5 -->
<g id="edge12" class="edge">
<title>dir_2174d8cbbd82d5c404dd04814f845a3a&#45;&gt;dir_7c9998090bca7c4aa89c05dd66fe73f5</title>
<path fill="none" stroke="#000000" d="M111.0375,-287.8314C112.7487,-280.131 114.7835,-270.9743 116.6852,-262.4166"/>
<polygon fill="#000000" stroke="#000000" points="120.1554,-262.9344 118.9082,-252.4133 113.3221,-261.4159 120.1554,-262.9344"/>
<g id="a_edge12&#45;headlabel"><a xlink:href="dir_000355_000470.html" target="_top" xlink:title="4">
<text text-anchor="middle" x="122.1474" y="-264.5593" font-family="Helvetica,sans-Serif" font-size="10.00" fill="#000000">4</text>
</a>
</g>
</g>
<!-- dir_2174d8cbbd82d5c404dd04814f845a3a&#45;&gt;dir_4ab6b4cc6a7edbff49100e9123df213f -->
<g id="edge10" class="edge">
<title>dir_2174d8cbbd82d5c404dd04814f845a3a&#45;&gt;dir_4ab6b4cc6a7edbff49100e9123df213f</title>
<path fill="none" stroke="#000000" d="M150.2186,-313.0882C235.1501,-327.0178 422.7317,-357.7829 505.4562,-371.3505"/>
<polygon fill="#000000" stroke="#000000" points="505.0443,-374.8296 515.4789,-372.9943 506.1772,-367.9219 505.0443,-374.8296"/>
<g id="a_edge10&#45;headlabel"><a xlink:href="dir_000355_000027.html" target="_top" xlink:title="8">
<text text-anchor="middle" x="501.0375" y="-374.5497" font-family="Helvetica,sans-Serif" font-size="10.00" fill="#000000">8</text>
</a>
</g>
</g>
<!-- dir_b05a5fa85f84bfc9013183c9d87f9a36 -->
<g id="node8" class="node">
<title>dir_b05a5fa85f84bfc9013183c9d87f9a36</title>
<g id="a_node8"><a xlink:href="dir_b05a5fa85f84bfc9013183c9d87f9a36.html" target="_top" xlink:title="Utilities">
<polygon fill="none" stroke="#ff0000" points="541.5,-36 486.5,-36 486.5,0 541.5,0 541.5,-36"/>
<text text-anchor="middle" x="514" y="-15.5" font-family="Helvetica,sans-Serif" font-size="10.00" fill="#000000">Utilities</text>
</a>
</g>
</g>
<!-- dir_2174d8cbbd82d5c404dd04814f845a3a&#45;&gt;dir_b05a5fa85f84bfc9013183c9d87f9a36 -->
<g id="edge11" class="edge">
<title>dir_2174d8cbbd82d5c404dd04814f845a3a&#45;&gt;dir_b05a5fa85f84bfc9013183c9d87f9a36</title>
<path fill="none" stroke="#000000" d="M126.317,-287.8579C149.9615,-266.0096 191.6029,-228.6747 230,-200 314.2581,-137.0767 340.3959,-128.64 429,-72 445.0079,-61.767 462.7421,-50.491 477.8524,-40.9015"/>
<polygon fill="#000000" stroke="#000000" points="479.8436,-43.7832 486.413,-35.4709 476.0938,-37.8722 479.8436,-43.7832"/>
<g id="a_edge11&#45;headlabel"><a xlink:href="dir_000355_000558.html" target="_top" xlink:title="1">
<text text-anchor="middle" x="478.3292" y="-45.6062" font-family="Helvetica,sans-Serif" font-size="10.00" fill="#000000">1</text>
</a>
</g>
</g>
<!-- dir_bcbb2cf9a3d3d83e5515c82071a07177 -->
<g id="node10" class="node">
<title>dir_bcbb2cf9a3d3d83e5515c82071a07177</title>
<g id="a_node10"><a xlink:href="dir_bcbb2cf9a3d3d83e5515c82071a07177.html" target="_top" xlink:title="Framework">
<polygon fill="none" stroke="#ff0000" points="581.5,-324 510.5,-324 510.5,-288 581.5,-288 581.5,-324"/>
<text text-anchor="middle" x="546" y="-303.5" font-family="Helvetica,sans-Serif" font-size="10.00" fill="#000000">Framework</text>
</a>
</g>
</g>
<!-- dir_2174d8cbbd82d5c404dd04814f845a3a&#45;&gt;dir_bcbb2cf9a3d3d83e5515c82071a07177 -->
<g id="edge13" class="edge">
<title>dir_2174d8cbbd82d5c404dd04814f845a3a&#45;&gt;dir_bcbb2cf9a3d3d83e5515c82071a07177</title>
<path fill="none" stroke="#000000" d="M150.2998,-306C266.9496,-306 383.5995,-306 500.2493,-306"/>
<polygon fill="#000000" stroke="#000000" points="500.4488,-309.5001 510.4488,-306 500.4488,-302.5001 500.4488,-309.5001"/>
<g id="a_edge13&#45;headlabel"><a xlink:href="dir_000355_000013.html" target="_top" xlink:title="6">
<text text-anchor="middle" x="496.8542" y="-309.8393" font-family="Helvetica,sans-Serif" font-size="10.00" fill="#000000">6</text>
</a>
</g>
</g>
<!-- dir_26637d1bd82229bc9ed97f7e706be743 -->
<g id="node11" class="node">
<title>dir_26637d1bd82229bc9ed97f7e706be743</title>
<g id="a_node11"><a xlink:href="dir_26637d1bd82229bc9ed97f7e706be743.html" target="_top" xlink:title="Raw">
<polygon fill="none" stroke="#ff0000" points="616,-180 562,-180 562,-144 616,-144 616,-180"/>
<text text-anchor="middle" x="589" y="-159.5" font-family="Helvetica,sans-Serif" font-size="10.00" fill="#000000">Raw</text>
</a>
</g>
</g>
<!-- dir_2174d8cbbd82d5c404dd04814f845a3a&#45;&gt;dir_26637d1bd82229bc9ed97f7e706be743 -->
<g id="edge14" class="edge">
<title>dir_2174d8cbbd82d5c404dd04814f845a3a&#45;&gt;dir_26637d1bd82229bc9ed97f7e706be743</title>
<path fill="none" stroke="#000000" d="M150.2179,-298.2511C191.4238,-289.9497 254.6325,-274.8066 306,-252 345.0994,-234.6403 347.2453,-215.8016 387,-200 441.9101,-178.1745 510.2983,-168.6851 551.7557,-164.7045"/>
<polygon fill="#000000" stroke="#000000" points="552.2981,-168.1699 561.9433,-163.7857 551.6693,-161.1982 552.2981,-168.1699"/>
<g id="a_edge14&#45;headlabel"><a xlink:href="dir_000355_000562.html" target="_top" xlink:title="4">
<text text-anchor="middle" x="548.973" y="-168.8205" font-family="Helvetica,sans-Serif" font-size="10.00" fill="#000000">4</text>
</a>
</g>
</g>
<!-- dir_2174d8cbbd82d5c404dd04814f845a3a&#45;&gt;dir_2171f7ec022c5423887b07c69b2f5b48 -->
<g id="edge15" class="edge">
<title>dir_2174d8cbbd82d5c404dd04814f845a3a&#45;&gt;dir_2171f7ec022c5423887b07c69b2f5b48</title>
<path fill="none" stroke="#000000" d="M150.0666,-289.4028C174.1116,-279.5691 204.3096,-266.2648 230,-252 265.7816,-232.132 272.2121,-223.0963 306,-200 342.4336,-175.0952 350.8402,-167.8076 388,-144 404.1604,-133.6463 422.2581,-122.6713 437.9633,-113.3388"/>
<polygon fill="#000000" stroke="#000000" points="440.0767,-116.1552 446.9011,-108.0509 436.5123,-110.1306 440.0767,-116.1552"/>
<g id="a_edge15&#45;headlabel"><a xlink:href="dir_000355_000076.html" target="_top" xlink:title="37">
<text text-anchor="middle" x="438.4287" y="-117.9291" font-family="Helvetica,sans-Serif" font-size="10.00" fill="#000000">37</text>
</a>
</g>
</g>
<!-- dir_948e043a2a9c0d8c3d26178da976c005 -->
<g id="node4" class="node">
<title>dir_948e043a2a9c0d8c3d26178da976c005</title>
<g id="a_node4"><a xlink:href="dir_948e043a2a9c0d8c3d26178da976c005.html" target="_top" xlink:title="simulation">
<polygon fill="#ffffff" stroke="#ff0000" points="172,-396 104,-396 104,-360 172,-360 172,-396"/>
<text text-anchor="middle" x="138" y="-375.5" font-family="Helvetica,sans-Serif" font-size="10.00" fill="#000000">simulation</text>
</a>
</g>
</g>
<!-- dir_948e043a2a9c0d8c3d26178da976c005&#45;&gt;dir_7c9998090bca7c4aa89c05dd66fe73f5 -->
<g id="edge36" class="edge">
<title>dir_948e043a2a9c0d8c3d26178da976c005&#45;&gt;dir_7c9998090bca7c4aa89c05dd66fe73f5</title>
<path fill="none" stroke="#000000" d="M103.6089,-360.0488C83.3117,-348.6592 60.5326,-334.2001 55,-324 47.3714,-309.9357 48.0431,-302.4084 55,-288 61.9235,-273.6608 74.7099,-261.9615 87.3425,-253.1646"/>
<polygon fill="#000000" stroke="#000000" points="89.5144,-255.9273 95.9896,-247.5415 85.6982,-250.059 89.5144,-255.9273"/>
<g id="a_edge36&#45;headlabel"><a xlink:href="dir_000062_000470.html" target="_top" xlink:title="5">
<text text-anchor="middle" x="88.0488" y="-257.7671" font-family="Helvetica,sans-Serif" font-size="10.00" fill="#000000">5</text>
</a>
</g>
</g>
<!-- dir_948e043a2a9c0d8c3d26178da976c005&#45;&gt;dir_2174d8cbbd82d5c404dd04814f845a3a -->
<g id="edge33" class="edge">
<title>dir_948e043a2a9c0d8c3d26178da976c005&#45;&gt;dir_2174d8cbbd82d5c404dd04814f845a3a</title>
<path fill="none" stroke="#000000" d="M130.1774,-359.8314C126.7891,-351.9617 122.7459,-342.5712 118.9924,-333.8533"/>
<polygon fill="#000000" stroke="#000000" points="122.0973,-332.214 114.9279,-324.4133 115.6679,-334.9822 122.0973,-332.214"/>
<g id="a_edge33&#45;headlabel"><a xlink:href="dir_000062_000355.html" target="_top" xlink:title="6">
<text text-anchor="middle" x="126.1266" y="-331.8928" font-family="Helvetica,sans-Serif" font-size="10.00" fill="#000000">6</text>
</a>
</g>
</g>
<!-- dir_948e043a2a9c0d8c3d26178da976c005&#45;&gt;dir_4ab6b4cc6a7edbff49100e9123df213f -->
<g id="edge34" class="edge">
<title>dir_948e043a2a9c0d8c3d26178da976c005&#45;&gt;dir_4ab6b4cc6a7edbff49100e9123df213f</title>
<path fill="none" stroke="#000000" d="M145.6447,-396.1341C153.9868,-413.3038 169.137,-438.0377 191,-449 246.0257,-476.5905 424.672,-420.3957 505.5549,-392.4764"/>
<polygon fill="#000000" stroke="#000000" points="507.0847,-395.65 515.3791,-389.0581 504.7843,-389.0388 507.0847,-395.65"/>
<g id="a_edge34&#45;headlabel"><a xlink:href="dir_000062_000027.html" target="_top" xlink:title="5">
<text text-anchor="middle" x="504.6228" y="-397.0128" font-family="Helvetica,sans-Serif" font-size="10.00" fill="#000000">5</text>
</a>
</g>
</g>
<!-- dir_37c90836491b695b472bf98d1be8336b -->
<g id="node9" class="node">
<title>dir_37c90836491b695b472bf98d1be8336b</title>
<g id="a_node9"><a xlink:href="dir_37c90836491b695b472bf98d1be8336b.html" target="_top" xlink:title="Base">
<polygon fill="none" stroke="#ff0000" points="468,-36 414,-36 414,0 468,0 468,-36"/>
<text text-anchor="middle" x="441" y="-15.5" font-family="Helvetica,sans-Serif" font-size="10.00" fill="#000000">Base</text>
</a>
</g>
</g>
<!-- dir_948e043a2a9c0d8c3d26178da976c005&#45;&gt;dir_37c90836491b695b472bf98d1be8336b -->
<g id="edge35" class="edge">
<title>dir_948e043a2a9c0d8c3d26178da976c005&#45;&gt;dir_37c90836491b695b472bf98d1be8336b</title>
<path fill="none" stroke="#000000" d="M156.9738,-359.9611C167.5509,-349.6764 180.8072,-336.4012 192,-324 281.9505,-224.3382 380.1343,-97.8976 421.2086,-44.1141"/>
<polygon fill="#000000" stroke="#000000" points="424.0223,-46.1963 427.3004,-36.1213 418.455,-41.953 424.0223,-46.1963"/>
<g id="a_edge35&#45;headlabel"><a xlink:href="dir_000062_000274.html" target="_top" xlink:title="2">
<text text-anchor="middle" x="424.1016" y="-48.2762" font-family="Helvetica,sans-Serif" font-size="10.00" fill="#000000">2</text>
</a>
</g>
</g>
<!-- dir_948e043a2a9c0d8c3d26178da976c005&#45;&gt;dir_bcbb2cf9a3d3d83e5515c82071a07177 -->
<g id="edge37" class="edge">
<title>dir_948e043a2a9c0d8c3d26178da976c005&#45;&gt;dir_bcbb2cf9a3d3d83e5515c82071a07177</title>
<path fill="none" stroke="#000000" d="M172.2836,-362.9339C175.5296,-361.8244 178.8023,-360.8207 182,-360 318.0599,-325.0792 359.2246,-356.0039 496,-324 497.4598,-323.6584 498.9357,-323.2877 500.4198,-322.8929"/>
<polygon fill="#000000" stroke="#000000" points="501.6497,-326.1792 510.2499,-319.9914 499.6681,-319.4655 501.6497,-326.1792"/>
<g id="a_edge37&#45;headlabel"><a xlink:href="dir_000062_000013.html" target="_top" xlink:title="1">
<text text-anchor="middle" x="499.0059" y="-327.4199" font-family="Helvetica,sans-Serif" font-size="10.00" fill="#000000">1</text>
</a>
</g>
</g>
<!-- dir_948e043a2a9c0d8c3d26178da976c005&#45;&gt;dir_26637d1bd82229bc9ed97f7e706be743 -->
<g id="edge38" class="edge">
<title>dir_948e043a2a9c0d8c3d26178da976c005&#45;&gt;dir_26637d1bd82229bc9ed97f7e706be743</title>
<path fill="none" stroke="#000000" d="M172.261,-362.8437C175.5119,-361.7532 178.7918,-360.7785 182,-360 270.6672,-338.4843 529.3767,-391.2856 591,-324 624.1107,-287.8469 611.2082,-225.8288 599.5995,-189.9241"/>
<polygon fill="#000000" stroke="#000000" points="602.7899,-188.4363 596.245,-180.1047 596.1657,-190.6992 602.7899,-188.4363"/>
<g id="a_edge38&#45;headlabel"><a xlink:href="dir_000062_000562.html" target="_top" xlink:title="2">
<text text-anchor="middle" x="606.6387" y="-188.42" font-family="Helvetica,sans-Serif" font-size="10.00" fill="#000000">2</text>
</a>
</g>
</g>
<!-- dir_948e043a2a9c0d8c3d26178da976c005&#45;&gt;dir_2171f7ec022c5423887b07c69b2f5b48 -->
<g id="edge39" class="edge">
<title>dir_948e043a2a9c0d8c3d26178da976c005&#45;&gt;dir_2171f7ec022c5423887b07c69b2f5b48</title>
<path fill="none" stroke="#000000" d="M172.3236,-363.0831C175.5613,-361.9423 178.821,-360.8906 182,-360 279.9402,-332.5627 321.6221,-377.7023 408,-324 477.2573,-280.9418 481.9618,-170.5141 480.017,-118.2409"/>
<polygon fill="#000000" stroke="#000000" points="483.5014,-117.8332 479.5219,-108.0142 476.5096,-118.1718 483.5014,-117.8332"/>
<g id="a_edge39&#45;headlabel"><a xlink:href="dir_000062_000076.html" target="_top" xlink:title="9">
<text text-anchor="middle" x="486.5111" y="-118.7864" font-family="Helvetica,sans-Serif" font-size="10.00" fill="#000000">9</text>
</a>
</g>
</g>
<!-- dir_cd7d5e2598ca22d0234e65e7e58f6fe3 -->
<g id="node5" class="node">
<title>dir_cd7d5e2598ca22d0234e65e7e58f6fe3</title>
<g id="a_node5"><a xlink:href="dir_cd7d5e2598ca22d0234e65e7e58f6fe3.html" target="_top" xlink:title="workflow">
<polygon fill="#ffffff" stroke="#ff0000" points="85.5,-396 24.5,-396 24.5,-360 85.5,-360 85.5,-396"/>
<text text-anchor="middle" x="55" y="-375.5" font-family="Helvetica,sans-Serif" font-size="10.00" fill="#000000">workflow</text>
</a>
</g>
</g>
<!-- dir_cd7d5e2598ca22d0234e65e7e58f6fe3&#45;&gt;dir_7c9998090bca7c4aa89c05dd66fe73f5 -->
<g id="edge20" class="edge">
<title>dir_cd7d5e2598ca22d0234e65e7e58f6fe3&#45;&gt;dir_7c9998090bca7c4aa89c05dd66fe73f5</title>
<path fill="none" stroke="#000000" d="M47.6237,-359.9876C41.0676,-340.9858 34.1895,-310.7081 46,-288 54.6912,-271.2894 71.1852,-258.6739 86.6849,-249.8561"/>
<polygon fill="#000000" stroke="#000000" points="88.4427,-252.8855 95.6294,-245.1008 85.1567,-246.7046 88.4427,-252.8855"/>
<g id="a_edge20&#45;headlabel"><a xlink:href="dir_000480_000470.html" target="_top" xlink:title="2">
<text text-anchor="middle" x="86.6015" y="-254.5798" font-family="Helvetica,sans-Serif" font-size="10.00" fill="#000000">2</text>
</a>
</g>
</g>
<!-- dir_cd7d5e2598ca22d0234e65e7e58f6fe3&#45;&gt;dir_2174d8cbbd82d5c404dd04814f845a3a -->
<g id="edge17" class="edge">
<title>dir_cd7d5e2598ca22d0234e65e7e58f6fe3&#45;&gt;dir_2174d8cbbd82d5c404dd04814f845a3a</title>
<path fill="none" stroke="#000000" d="M68.1218,-359.8314C74.0499,-351.6232 81.1729,-341.7606 87.6933,-332.7323"/>
<polygon fill="#000000" stroke="#000000" points="90.684,-334.5693 93.7015,-324.4133 85.0092,-330.4708 90.684,-334.5693"/>
<g id="a_edge17&#45;headlabel"><a xlink:href="dir_000480_000355.html" target="_top" xlink:title="9">
<text text-anchor="middle" x="90.8811" y="-336.6457" font-family="Helvetica,sans-Serif" font-size="10.00" fill="#000000">9</text>
</a>
</g>
</g>
<!-- dir_871aad07cbf94d6cd423c3d8d5bdf4e9 -->
<g id="node6" class="node">
<title>dir_871aad07cbf94d6cd423c3d8d5bdf4e9</title>
<g id="a_node6"><a xlink:href="dir_871aad07cbf94d6cd423c3d8d5bdf4e9.html" target="_top" xlink:title="ITS">
<polygon fill="none" stroke="#ff0000" points="450,-252 396,-252 396,-216 450,-216 450,-252"/>
<text text-anchor="middle" x="423" y="-231.5" font-family="Helvetica,sans-Serif" font-size="10.00" fill="#000000">ITS</text>
</a>
</g>
</g>
<!-- dir_cd7d5e2598ca22d0234e65e7e58f6fe3&#45;&gt;dir_871aad07cbf94d6cd423c3d8d5bdf4e9 -->
<g id="edge16" class="edge">
<title>dir_cd7d5e2598ca22d0234e65e7e58f6fe3&#45;&gt;dir_871aad07cbf94d6cd423c3d8d5bdf4e9</title>
<path fill="none" stroke="#000000" d="M85.7288,-363.3114C88.8237,-362.093 91.9498,-360.9621 95,-360 176.5499,-334.278 204.6345,-355.8296 284,-324 324.4496,-307.7777 365.735,-279.2087 392.6824,-258.6041"/>
<polygon fill="#000000" stroke="#000000" points="395.1544,-261.116 400.9085,-252.2198 390.8626,-255.586 395.1544,-261.116"/>
<g id="a_edge16&#45;headlabel"><a xlink:href="dir_000480_000044.html" target="_top" xlink:title="1">
<text text-anchor="middle" x="394.0555" y="-263.0628" font-family="Helvetica,sans-Serif" font-size="10.00" fill="#000000">1</text>
</a>
</g>
</g>
<!-- dir_cd7d5e2598ca22d0234e65e7e58f6fe3&#45;&gt;dir_4ab6b4cc6a7edbff49100e9123df213f -->
<g id="edge18" class="edge">
<title>dir_cd7d5e2598ca22d0234e65e7e58f6fe3&#45;&gt;dir_4ab6b4cc6a7edbff49100e9123df213f</title>
<path fill="none" stroke="#000000" d="M61.692,-396.0888C69.1192,-413.2242 82.9148,-437.9326 104,-449 173.7872,-485.6305 410.4361,-419.6515 505.7408,-390.6599"/>
<polygon fill="#000000" stroke="#000000" points="506.7781,-394.0028 515.3143,-387.7271 504.7277,-387.3098 506.7781,-394.0028"/>
<g id="a_edge18&#45;headlabel"><a xlink:href="dir_000480_000027.html" target="_top" xlink:title="2">
<text text-anchor="middle" x="504.1728" y="-395.2703" font-family="Helvetica,sans-Serif" font-size="10.00" fill="#000000">2</text>
</a>
</g>
</g>
<!-- dir_cd7d5e2598ca22d0234e65e7e58f6fe3&#45;&gt;dir_37c90836491b695b472bf98d1be8336b -->
<g id="edge19" class="edge">
<title>dir_cd7d5e2598ca22d0234e65e7e58f6fe3&#45;&gt;dir_37c90836491b695b472bf98d1be8336b</title>
<path fill="none" stroke="#000000" d="M85.6829,-363.9374C111.8421,-351.6129 147.05,-334.1289 159,-324 185.2756,-301.7286 230.0213,-226.5209 252,-200 301.18,-140.6563 311.9219,-123.7922 369,-72 380.5641,-61.5068 394.072,-50.9769 406.2437,-42.038"/>
<polygon fill="#000000" stroke="#000000" points="408.3671,-44.8217 414.4165,-36.1237 404.2633,-39.1508 408.3671,-44.8217"/>
<g id="a_edge19&#45;headlabel"><a xlink:href="dir_000480_000274.html" target="_top" xlink:title="1">
<text text-anchor="middle" x="407.1195" y="-46.7292" font-family="Helvetica,sans-Serif" font-size="10.00" fill="#000000">1</text>
</a>
</g>
</g>
<!-- dir_cd7d5e2598ca22d0234e65e7e58f6fe3&#45;&gt;dir_bcbb2cf9a3d3d83e5515c82071a07177 -->
<g id="edge21" class="edge">
<title>dir_cd7d5e2598ca22d0234e65e7e58f6fe3&#45;&gt;dir_bcbb2cf9a3d3d83e5515c82071a07177</title>
<path fill="none" stroke="#000000" d="M85.663,-363.0895C88.7712,-361.916 91.9184,-360.8562 95,-360 114.3674,-354.6188 389.0499,-323.5464 500.0058,-311.1269"/>
<polygon fill="#000000" stroke="#000000" points="500.6693,-314.5746 510.2183,-309.9847 499.8913,-307.618 500.6693,-314.5746"/>
<g id="a_edge21&#45;headlabel"><a xlink:href="dir_000480_000013.html" target="_top" xlink:title="19">
<text text-anchor="middle" x="497.4125" y="-315.2957" font-family="Helvetica,sans-Serif" font-size="10.00" fill="#000000">19</text>
</a>
</g>
</g>
<!-- dir_cd7d5e2598ca22d0234e65e7e58f6fe3&#45;&gt;dir_2171f7ec022c5423887b07c69b2f5b48 -->
<g id="edge22" class="edge">
<title>dir_cd7d5e2598ca22d0234e65e7e58f6fe3&#45;&gt;dir_2171f7ec022c5423887b07c69b2f5b48</title>
<path fill="none" stroke="#000000" d="M85.9195,-363.8382C88.9758,-362.5131 92.0407,-361.2134 95,-360 137.5469,-342.5549 152.9634,-348.3045 192,-324 211.7494,-311.7039 211.9389,-302.664 230,-288 251.8222,-270.2823 259.3231,-268.6097 282,-252 324.1708,-221.112 334.6341,-213.212 375,-180 400.9018,-158.6887 429.5776,-133.4954 450.0807,-115.192"/>
<polygon fill="#000000" stroke="#000000" points="452.6717,-117.57 457.788,-108.2924 448.0028,-112.3545 452.6717,-117.57"/>
<g id="a_edge22&#45;headlabel"><a xlink:href="dir_000480_000076.html" target="_top" xlink:title="17">
<text text-anchor="middle" x="451.8873" y="-119.583" font-family="Helvetica,sans-Serif" font-size="10.00" fill="#000000">17</text>
</a>
</g>
</g>
<!-- dir_871aad07cbf94d6cd423c3d8d5bdf4e9&#45;&gt;dir_7c9998090bca7c4aa89c05dd66fe73f5 -->
<g id="edge5" class="edge">
<title>dir_871aad07cbf94d6cd423c3d8d5bdf4e9&#45;&gt;dir_7c9998090bca7c4aa89c05dd66fe73f5</title>
<path fill="none" stroke="#000000" d="M395.8312,-234C317.3271,-234 238.823,-234 160.3189,-234"/>
<polygon fill="#000000" stroke="#000000" points="160.2461,-230.5001 150.2461,-234 160.2461,-237.5001 160.2461,-230.5001"/>
<g id="a_edge5&#45;headlabel"><a xlink:href="dir_000044_000470.html" target="_top" xlink:title="10">
<text text-anchor="middle" x="163.8407" y="-225.1607" font-family="Helvetica,sans-Serif" font-size="10.00" fill="#000000">10</text>
</a>
</g>
</g>
<!-- dir_871aad07cbf94d6cd423c3d8d5bdf4e9&#45;&gt;dir_2174d8cbbd82d5c404dd04814f845a3a -->
<g id="edge1" class="edge">
<title>dir_871aad07cbf94d6cd423c3d8d5bdf4e9&#45;&gt;dir_2174d8cbbd82d5c404dd04814f845a3a</title>
<path fill="none" stroke="#000000" d="M395.9983,-240.1523C343.877,-252.028 228.5442,-278.3064 160.3848,-293.8364"/>
<polygon fill="#000000" stroke="#000000" points="159.2484,-290.5055 150.2759,-296.1397 160.8036,-297.3306 159.2484,-290.5055"/>
<g id="a_edge1&#45;headlabel"><a xlink:href="dir_000044_000355.html" target="_top" xlink:title="28">
<text text-anchor="middle" x="162.1225" y="-284.4387" font-family="Helvetica,sans-Serif" font-size="10.00" fill="#000000">28</text>
</a>
</g>
</g>
<!-- dir_871aad07cbf94d6cd423c3d8d5bdf4e9&#45;&gt;dir_948e043a2a9c0d8c3d26178da976c005 -->
<g id="edge6" class="edge">
<title>dir_871aad07cbf94d6cd423c3d8d5bdf4e9&#45;&gt;dir_948e043a2a9c0d8c3d26178da976c005</title>
<path fill="none" stroke="#000000" d="M419.8702,-252.3177C415.3151,-273.0702 404.7751,-306.2981 382,-324 310.6894,-379.4259 268.7196,-334.7621 182,-360 181.9009,-360.0288 181.8018,-360.0578 181.7026,-360.0869"/>
<polygon fill="#000000" stroke="#000000" points="180.7576,-356.7134 172.3431,-363.1513 182.9357,-363.3659 180.7576,-356.7134"/>
<g id="a_edge6&#45;headlabel"><a xlink:href="dir_000044_000062.html" target="_top" xlink:title="5">
<text text-anchor="middle" x="183.2904" y="-350.3967" font-family="Helvetica,sans-Serif" font-size="10.00" fill="#000000">5</text>
</a>
</g>
</g>
<!-- dir_871aad07cbf94d6cd423c3d8d5bdf4e9&#45;&gt;dir_cd7d5e2598ca22d0234e65e7e58f6fe3 -->
<g id="edge2" class="edge">
<title>dir_871aad07cbf94d6cd423c3d8d5bdf4e9&#45;&gt;dir_cd7d5e2598ca22d0234e65e7e58f6fe3</title>
<path fill="none" stroke="#000000" d="M395.8406,-248.5287C359.0585,-267.7685 290.9843,-301.8445 230,-324 174.4854,-344.1684 155.3725,-339.7128 95.3789,-360.1849"/>
<polygon fill="#000000" stroke="#000000" points="94.0846,-356.9297 85.806,-363.5415 96.4008,-363.5354 94.0846,-356.9297"/>
<g id="a_edge2&#45;headlabel"><a xlink:href="dir_000044_000480.html" target="_top" xlink:title="1">
<text text-anchor="middle" x="96.5373" y="-350.5611" font-family="Helvetica,sans-Serif" font-size="10.00" fill="#000000">1</text>
</a>
</g>
</g>
<!-- dir_871aad07cbf94d6cd423c3d8d5bdf4e9&#45;&gt;dir_4ab6b4cc6a7edbff49100e9123df213f -->
<g id="edge3" class="edge">
<title>dir_871aad07cbf94d6cd423c3d8d5bdf4e9&#45;&gt;dir_4ab6b4cc6a7edbff49100e9123df213f</title>
<path fill="none" stroke="#000000" d="M438.4515,-252.0896C460.009,-277.3276 499.2311,-323.2462 523.8823,-352.1061"/>
<polygon fill="#000000" stroke="#000000" points="521.2658,-354.4318 530.422,-359.7623 526.5884,-349.8853 521.2658,-354.4318"/>
<g id="a_edge3&#45;headlabel"><a xlink:href="dir_000044_000027.html" target="_top" xlink:title="35">
<text text-anchor="middle" x="516.7722" y="-351.0426" font-family="Helvetica,sans-Serif" font-size="10.00" fill="#000000">35</text>
</a>
</g>
</g>
<!-- dir_871aad07cbf94d6cd423c3d8d5bdf4e9&#45;&gt;dir_37c90836491b695b472bf98d1be8336b -->
<g id="edge4" class="edge">
<title>dir_871aad07cbf94d6cd423c3d8d5bdf4e9&#45;&gt;dir_37c90836491b695b472bf98d1be8336b</title>
<path fill="none" stroke="#000000" d="M422.6034,-215.9328C422.1827,-185.9131 422.3258,-123.9212 429,-72 430.0848,-63.5612 431.8559,-54.4959 433.7084,-46.2485"/>
<polygon fill="#000000" stroke="#000000" points="437.1544,-46.8853 436.0529,-36.3478 430.3427,-45.2722 437.1544,-46.8853"/>
<g id="a_edge4&#45;headlabel"><a xlink:href="dir_000044_000274.html" target="_top" xlink:title="13">
<text text-anchor="middle" x="439.089" y="-48.5374" font-family="Helvetica,sans-Serif" font-size="10.00" fill="#000000">13</text>
</a>
</g>
</g>
<!-- dir_871aad07cbf94d6cd423c3d8d5bdf4e9&#45;&gt;dir_bcbb2cf9a3d3d83e5515c82071a07177 -->
<g id="edge7" class="edge">
<title>dir_871aad07cbf94d6cd423c3d8d5bdf4e9&#45;&gt;dir_bcbb2cf9a3d3d83e5515c82071a07177</title>
<path fill="none" stroke="#000000" d="M450.0174,-246.7168C468.3857,-256.611 492.6684,-270.6146 512.2737,-282.5273"/>
<polygon fill="#000000" stroke="#000000" points="510.5608,-285.5827 520.9143,-287.8314 514.2229,-279.617 510.5608,-285.5827"/>
<g id="a_edge7&#45;headlabel"><a xlink:href="dir_000044_000013.html" target="_top" xlink:title="44">
<text text-anchor="middle" x="506.012" y="-283.622" font-family="Helvetica,sans-Serif" font-size="10.00" fill="#000000">44</text>
</a>
</g>
</g>
<!-- dir_871aad07cbf94d6cd423c3d8d5bdf4e9&#45;&gt;dir_26637d1bd82229bc9ed97f7e706be743 -->
<g id="edge8" class="edge">
<title>dir_871aad07cbf94d6cd423c3d8d5bdf4e9&#45;&gt;dir_26637d1bd82229bc9ed97f7e706be743</title>
<path fill="none" stroke="#000000" d="M450.0402,-222.2717C477.8944,-210.1904 521.4874,-191.2826 552.412,-177.8695"/>
<polygon fill="#000000" stroke="#000000" points="554.1899,-180.9135 561.9714,-173.7233 551.4044,-174.4915 554.1899,-180.9135"/>
<g id="a_edge8&#45;headlabel"><a xlink:href="dir_000044_000562.html" target="_top" xlink:title="1">
<text text-anchor="middle" x="552.0219" y="-182.4486" font-family="Helvetica,sans-Serif" font-size="10.00" fill="#000000">1</text>
</a>
</g>
</g>
<!-- dir_871aad07cbf94d6cd423c3d8d5bdf4e9&#45;&gt;dir_2171f7ec022c5423887b07c69b2f5b48 -->
<g id="edge9" class="edge">
<title>dir_871aad07cbf94d6cd423c3d8d5bdf4e9&#45;&gt;dir_2171f7ec022c5423887b07c69b2f5b48</title>
<path fill="none" stroke="#000000" d="M429.9658,-215.7623C439.4295,-190.9846 456.4311,-146.4714 467.4607,-117.5939"/>
<polygon fill="#000000" stroke="#000000" points="470.7923,-118.6803 471.0908,-108.0896 464.253,-116.1826 470.7923,-118.6803"/>
<g id="a_edge9&#45;headlabel"><a xlink:href="dir_000044_000076.html" target="_top" xlink:title="111">
<text text-anchor="middle" x="472.1622" y="-120.5513" font-family="Helvetica,sans-Serif" font-size="10.00" fill="#000000">111</text>
</a>
</g>
</g>
<!-- dir_4ab6b4cc6a7edbff49100e9123df213f&#45;&gt;dir_bcbb2cf9a3d3d83e5515c82071a07177 -->
<g id="edge23" class="edge">
<title>dir_4ab6b4cc6a7edbff49100e9123df213f&#45;&gt;dir_bcbb2cf9a3d3d83e5515c82071a07177</title>
<path fill="none" stroke="#000000" d="M540.0476,-359.8314C539.2972,-352.131 539.0763,-342.9743 539.3849,-334.4166"/>
<polygon fill="#000000" stroke="#000000" points="542.8792,-334.6161 540.024,-324.4133 535.8935,-334.1697 542.8792,-334.6161"/>
<g id="a_edge23&#45;headlabel"><a xlink:href="dir_000027_000013.html" target="_top" xlink:title="2">
<text text-anchor="middle" x="545.4836" y="-335.8844" font-family="Helvetica,sans-Serif" font-size="10.00" fill="#000000">2</text>
</a>
</g>
</g>
<!-- dir_4ab6b4cc6a7edbff49100e9123df213f&#45;&gt;dir_2171f7ec022c5423887b07c69b2f5b48 -->
<g id="edge24" class="edge">
<title>dir_4ab6b4cc6a7edbff49100e9123df213f&#45;&gt;dir_2171f7ec022c5423887b07c69b2f5b48</title>
<path fill="none" stroke="#000000" d="M576.9663,-367.4722C597.5322,-359.3796 622.8563,-345.795 636,-324 664.4616,-276.805 646.8335,-254.2285 637,-200 632.2572,-173.8452 634.859,-162.7325 616,-144 592.1016,-120.2619 556.9055,-106.8526 527.9642,-99.3346"/>
<polygon fill="#000000" stroke="#000000" points="528.561,-95.8778 518.017,-96.9138 526.9057,-102.6793 528.561,-95.8778"/>
<g id="a_edge24&#45;headlabel"><a xlink:href="dir_000027_000076.html" target="_top" xlink:title="2">
<text text-anchor="middle" x="532.7251" y="-91.4689" font-family="Helvetica,sans-Serif" font-size="10.00" fill="#000000">2</text>
</a>
</g>
</g>
<!-- dir_b05a5fa85f84bfc9013183c9d87f9a36&#45;&gt;dir_4ab6b4cc6a7edbff49100e9123df213f -->
<g id="edge25" class="edge">
<title>dir_b05a5fa85f84bfc9013183c9d87f9a36&#45;&gt;dir_4ab6b4cc6a7edbff49100e9123df213f</title>
<path fill="none" stroke="#000000" d="M541.7721,-20.9519C585.3646,-26.3925 671.7142,-40.4635 738,-72 797.5604,-100.3368 856,-96.0423 856,-162 856,-234 856,-234 856,-234 856,-275.3978 862.3353,-295.83 832,-324 796.9568,-356.5418 657.3802,-370.4831 587.0094,-375.5394"/>
<polygon fill="#000000" stroke="#000000" points="586.4774,-372.0677 576.7427,-376.2492 586.9603,-379.0511 586.4774,-372.0677"/>
<g id="a_edge25&#45;headlabel"><a xlink:href="dir_000558_000027.html" target="_top" xlink:title="2">
<text text-anchor="middle" x="589.8677" y="-366.4874" font-family="Helvetica,sans-Serif" font-size="10.00" fill="#000000">2</text>
</a>
</g>
</g>
<!-- dir_b05a5fa85f84bfc9013183c9d87f9a36&#45;&gt;dir_bcbb2cf9a3d3d83e5515c82071a07177 -->
<g id="edge26" class="edge">
<title>dir_b05a5fa85f84bfc9013183c9d87f9a36&#45;&gt;dir_bcbb2cf9a3d3d83e5515c82071a07177</title>
<path fill="none" stroke="#000000" d="M541.7032,-21.3497C591.5345,-28.0058 693.0622,-44.6592 714,-72 762.7871,-135.7066 752.4741,-191.2943 700,-252 685.5671,-268.697 631.6642,-285.0711 591.6782,-295.3312"/>
<polygon fill="#000000" stroke="#000000" points="590.6889,-291.9709 581.8447,-297.8045 592.3964,-298.7595 590.6889,-291.9709"/>
<g id="a_edge26&#45;headlabel"><a xlink:href="dir_000558_000013.html" target="_top" xlink:title="33">
<text text-anchor="middle" x="593.4824" y="-285.8407" font-family="Helvetica,sans-Serif" font-size="10.00" fill="#000000">33</text>
</a>
</g>
</g>
<!-- dir_b05a5fa85f84bfc9013183c9d87f9a36&#45;&gt;dir_2171f7ec022c5423887b07c69b2f5b48 -->
<g id="edge27" class="edge">
<title>dir_b05a5fa85f84bfc9013183c9d87f9a36&#45;&gt;dir_2171f7ec022c5423887b07c69b2f5b48</title>
<path fill="none" stroke="#000000" d="M510.7694,-36.4133C507.5057,-44.484 502.8833,-54.1182 498.0711,-62.9775"/>
<polygon fill="#000000" stroke="#000000" points="494.9372,-61.4084 493.0367,-71.8314 501.0222,-64.8684 494.9372,-61.4084"/>
<g id="a_edge27&#45;headlabel"><a xlink:href="dir_000558_000076.html" target="_top" xlink:title="48">
<text text-anchor="middle" x="494.2457" y="-54.3802" font-family="Helvetica,sans-Serif" font-size="10.00" fill="#000000">48</text>
</a>
</g>
</g>
<!-- dir_37c90836491b695b472bf98d1be8336b&#45;&gt;dir_4ab6b4cc6a7edbff49100e9123df213f -->
<g id="edge28" class="edge">
<title>dir_37c90836491b695b472bf98d1be8336b&#45;&gt;dir_4ab6b4cc6a7edbff49100e9123df213f</title>
<path fill="none" stroke="#000000" d="M468.3328,-31.6896C471.5689,-33.1934 474.8429,-34.6623 478,-36 521.1088,-54.2655 538.1645,-45.8504 577,-72 636.2076,-111.867 655.2877,-131.1177 674,-200 688.9213,-254.9271 681.7236,-313.8966 675,-324 655.5079,-353.2905 616.7473,-366.7236 586.779,-372.8663"/>
<polygon fill="#000000" stroke="#000000" points="585.7888,-369.49 576.5914,-374.7491 587.061,-376.3734 585.7888,-369.49"/>
<g id="a_edge28&#45;headlabel"><a xlink:href="dir_000274_000027.html" target="_top" xlink:title="16">
<text text-anchor="middle" x="588.8076" y="-363.5448" font-family="Helvetica,sans-Serif" font-size="10.00" fill="#000000">16</text>
</a>
</g>
</g>
<!-- dir_37c90836491b695b472bf98d1be8336b&#45;&gt;dir_bcbb2cf9a3d3d83e5515c82071a07177 -->
<g id="edge29" class="edge">
<title>dir_37c90836491b695b472bf98d1be8336b&#45;&gt;dir_bcbb2cf9a3d3d83e5515c82071a07177</title>
<path fill="none" stroke="#000000" d="M468.0716,-32.2628C515.08,-57.6731 608.3891,-111.184 625,-144 649.3341,-192.0737 605.1892,-248.7706 573.6787,-280.7395"/>
<polygon fill="#000000" stroke="#000000" points="571.0465,-278.4197 566.3856,-287.9343 575.9626,-283.403 571.0465,-278.4197"/>
<g id="a_edge29&#45;headlabel"><a xlink:href="dir_000274_000013.html" target="_top" xlink:title="1">
<text text-anchor="middle" x="571.6115" y="-271.374" font-family="Helvetica,sans-Serif" font-size="10.00" fill="#000000">1</text>
</a>
</g>
</g>
<!-- dir_37c90836491b695b472bf98d1be8336b&#45;&gt;dir_2171f7ec022c5423887b07c69b2f5b48 -->
<g id="edge30" class="edge">
<title>dir_37c90836491b695b472bf98d1be8336b&#45;&gt;dir_2171f7ec022c5423887b07c69b2f5b48</title>
<path fill="none" stroke="#000000" d="M456.4384,-36.4133C461.3058,-44.3991 466.3948,-53.9155 470.5413,-62.6975"/>
<polygon fill="#000000" stroke="#000000" points="467.3454,-64.1246 474.6157,-71.8314 473.7382,-61.2729 467.3454,-64.1246"/>
<g id="a_edge30&#45;headlabel"><a xlink:href="dir_000274_000076.html" target="_top" xlink:title="10">
<text text-anchor="middle" x="463.2881" y="-59.4985" font-family="Helvetica,sans-Serif" font-size="10.00" fill="#000000">10</text>
</a>
</g>
</g>
<!-- dir_bcbb2cf9a3d3d83e5515c82071a07177&#45;&gt;dir_871aad07cbf94d6cd423c3d8d5bdf4e9 -->
<g id="edge40" class="edge">
<title>dir_bcbb2cf9a3d3d83e5515c82071a07177&#45;&gt;dir_871aad07cbf94d6cd423c3d8d5bdf4e9</title>
<path fill="none" stroke="#000000" d="M510.3469,-288.5708C493.4262,-279.2301 473.3804,-267.5924 456.7161,-257.4664"/>
<polygon fill="#000000" stroke="#000000" points="458.2004,-254.2707 447.8473,-252.0206 454.5375,-260.2359 458.2004,-254.2707"/>
<g id="a_edge40&#45;headlabel"><a xlink:href="dir_000013_000044.html" target="_top" xlink:title="1">
<text text-anchor="middle" x="462.7493" y="-251.2321" font-family="Helvetica,sans-Serif" font-size="10.00" fill="#000000">1</text>
</a>
</g>
</g>
<!-- dir_bcbb2cf9a3d3d83e5515c82071a07177&#45;&gt;dir_4ab6b4cc6a7edbff49100e9123df213f -->
<g id="edge41" class="edge">
<title>dir_bcbb2cf9a3d3d83e5515c82071a07177&#45;&gt;dir_4ab6b4cc6a7edbff49100e9123df213f</title>
<path fill="none" stroke="#000000" d="M551.976,-324.4133C552.7071,-332.0593 552.9203,-341.1084 552.6155,-349.5726"/>
<polygon fill="#000000" stroke="#000000" points="549.1048,-349.6264 551.9524,-359.8314 556.0902,-350.078 549.1048,-349.6264"/>
<g id="a_edge41&#45;headlabel"><a xlink:href="dir_000013_000027.html" target="_top" xlink:title="8">
<text text-anchor="middle" x="546.5032" y="-343.3562" font-family="Helvetica,sans-Serif" font-size="10.00" fill="#000000">8</text>
</a>
</g>
</g>
<!-- dir_bcbb2cf9a3d3d83e5515c82071a07177&#45;&gt;dir_2171f7ec022c5423887b07c69b2f5b48 -->
<g id="edge42" class="edge">
<title>dir_bcbb2cf9a3d3d83e5515c82071a07177&#45;&gt;dir_2171f7ec022c5423887b07c69b2f5b48</title>
<path fill="none" stroke="#000000" d="M536.3734,-287.9555C521.065,-250.3144 493.3766,-163.1867 482.1302,-118.1246"/>
<polygon fill="#000000" stroke="#000000" points="485.4757,-117.0641 479.7572,-108.1451 478.6656,-118.6835 485.4757,-117.0641"/>
<g id="a_edge42&#45;headlabel"><a xlink:href="dir_000013_000076.html" target="_top" xlink:title="82">
<text text-anchor="middle" x="489.0694" y="-117.4044" font-family="Helvetica,sans-Serif" font-size="10.00" fill="#000000">82</text>
</a>
</g>
</g>
<!-- dir_26637d1bd82229bc9ed97f7e706be743&#45;&gt;dir_4ab6b4cc6a7edbff49100e9123df213f -->
<g id="edge43" class="edge">
<title>dir_26637d1bd82229bc9ed97f7e706be743&#45;&gt;dir_4ab6b4cc6a7edbff49100e9123df213f</title>
<path fill="none" stroke="#000000" d="M610.728,-180.1169C616.0973,-185.8596 621.1299,-192.6475 624,-200 644.0401,-251.3384 649.5774,-275.1837 624,-324 615.7708,-339.7059 600.6688,-351.7519 585.9298,-360.4387"/>
<polygon fill="#000000" stroke="#000000" points="583.9455,-357.5352 576.8643,-365.416 587.3145,-363.6712 583.9455,-357.5352"/>
<g id="a_edge43&#45;headlabel"><a xlink:href="dir_000562_000027.html" target="_top" xlink:title="9">
<text text-anchor="middle" x="585.73" y="-350.8164" font-family="Helvetica,sans-Serif" font-size="10.00" fill="#000000">9</text>
</a>
</g>
</g>
<!-- dir_26637d1bd82229bc9ed97f7e706be743&#45;&gt;dir_bcbb2cf9a3d3d83e5515c82071a07177 -->
<g id="edge44" class="edge">
<title>dir_26637d1bd82229bc9ed97f7e706be743&#45;&gt;dir_bcbb2cf9a3d3d83e5515c82071a07177</title>
<path fill="none" stroke="#000000" d="M583.5982,-180.0896C576.2551,-204.6805 563.0492,-248.905 554.405,-277.8531"/>
<polygon fill="#000000" stroke="#000000" points="550.9536,-277.1789 551.446,-287.7623 557.661,-279.1818 550.9536,-277.1789"/>
<g id="a_edge44&#45;headlabel"><a xlink:href="dir_000562_000013.html" target="_top" xlink:title="25">
<text text-anchor="middle" x="549.2615" y="-270.4222" font-family="Helvetica,sans-Serif" font-size="10.00" fill="#000000">25</text>
</a>
</g>
</g>
<!-- dir_26637d1bd82229bc9ed97f7e706be743&#45;&gt;dir_2171f7ec022c5423887b07c69b2f5b48 -->
<g id="edge45" class="edge">
<title>dir_26637d1bd82229bc9ed97f7e706be743&#45;&gt;dir_2171f7ec022c5423887b07c69b2f5b48</title>
<path fill="none" stroke="#000000" d="M561.8463,-144.3868C547.6821,-135.1992 530.1507,-123.8275 514.7864,-113.8615"/>
<polygon fill="#000000" stroke="#000000" points="516.3267,-110.6888 506.0324,-108.1832 512.5173,-116.5615 516.3267,-110.6888"/>
<g id="a_edge45&#45;headlabel"><a xlink:href="dir_000562_000076.html" target="_top" xlink:title="15">
<text text-anchor="middle" x="520.8875" y="-107.7628" font-family="Helvetica,sans-Serif" font-size="10.00" fill="#000000">15</text>
</a>
</g>
</g>
<!-- dir_2171f7ec022c5423887b07c69b2f5b48&#45;&gt;dir_7c9998090bca7c4aa89c05dd66fe73f5 -->
<g id="edge49" class="edge">
<title>dir_2171f7ec022c5423887b07c69b2f5b48&#45;&gt;dir_7c9998090bca7c4aa89c05dd66fe73f5</title>
<path fill="none" stroke="#000000" d="M437.906,-101.4466C403.9593,-111.5158 354.2252,-127.1611 312,-144 257.5396,-165.7182 196.6609,-195.8056 159.0816,-215.0888"/>
<polygon fill="#000000" stroke="#000000" points="157.3317,-212.0532 150.0476,-219.7469 160.5397,-218.2748 157.3317,-212.0532"/>
<g id="a_edge49&#45;headlabel"><a xlink:href="dir_000076_000470.html" target="_top" xlink:title="1">
<text text-anchor="middle" x="159.2255" y="-205.3823" font-family="Helvetica,sans-Serif" font-size="10.00" fill="#000000">1</text>
</a>
</g>
</g>
<!-- dir_2171f7ec022c5423887b07c69b2f5b48&#45;&gt;dir_4ab6b4cc6a7edbff49100e9123df213f -->
<g id="edge46" class="edge">
<title>dir_2171f7ec022c5423887b07c69b2f5b48&#45;&gt;dir_4ab6b4cc6a7edbff49100e9123df213f</title>
<path fill="none" stroke="#000000" d="M518.294,-94.1528C553.4306,-99.9139 603.1367,-113.3436 634,-144 652.859,-162.7325 650.2572,-173.8452 655,-200 664.8335,-254.2285 682.4616,-276.805 654,-324 639.6931,-347.7236 610.9548,-361.7195 586.5903,-369.4934"/>
<polygon fill="#000000" stroke="#000000" points="585.4275,-366.1869 576.8179,-372.3614 587.3988,-372.9037 585.4275,-366.1869"/>
<g id="a_edge46&#45;headlabel"><a xlink:href="dir_000076_000027.html" target="_top" xlink:title="35">
<text text-anchor="middle" x="588.0771" y="-359.9504" font-family="Helvetica,sans-Serif" font-size="10.00" fill="#000000">35</text>
</a>
</g>
</g>
<!-- dir_2171f7ec022c5423887b07c69b2f5b48&#45;&gt;dir_b05a5fa85f84bfc9013183c9d87f9a36 -->
<g id="edge47" class="edge">
<title>dir_2171f7ec022c5423887b07c69b2f5b48&#45;&gt;dir_b05a5fa85f84bfc9013183c9d87f9a36</title>
<path fill="none" stroke="#000000" d="M481.1319,-71.8314C484.368,-63.7925 488.9746,-54.1666 493.7828,-45.2918"/>
<polygon fill="#000000" stroke="#000000" points="496.9292,-46.8385 498.8174,-36.4133 490.8401,-43.3856 496.9292,-46.8385"/>
<g id="a_edge47&#45;headlabel"><a xlink:href="dir_000076_000558.html" target="_top" xlink:title="1">
<text text-anchor="middle" x="497.626" y="-48.8659" font-family="Helvetica,sans-Serif" font-size="10.00" fill="#000000">1</text>
</a>
</g>
</g>
<!-- dir_2171f7ec022c5423887b07c69b2f5b48&#45;&gt;dir_37c90836491b695b472bf98d1be8336b -->
<g id="edge48" class="edge">
<title>dir_2171f7ec022c5423887b07c69b2f5b48&#45;&gt;dir_37c90836491b695b472bf98d1be8336b</title>
<path fill="none" stroke="#000000" d="M462.7109,-71.8314C457.8482,-63.8771 452.7519,-54.369 448.5863,-45.5723"/>
<polygon fill="#000000" stroke="#000000" points="451.7667,-44.1105 444.4864,-36.4133 445.3776,-46.9706 451.7667,-44.1105"/>
<g id="a_edge48&#45;headlabel"><a xlink:href="dir_000076_000274.html" target="_top" xlink:title="1">
<text text-anchor="middle" x="455.8267" y="-43.7314" font-family="Helvetica,sans-Serif" font-size="10.00" fill="#000000">1</text>
</a>
</g>
</g>
<!-- dir_2171f7ec022c5423887b07c69b2f5b48&#45;&gt;dir_bcbb2cf9a3d3d83e5515c82071a07177 -->
<g id="edge50" class="edge">
<title>dir_2171f7ec022c5423887b07c69b2f5b48&#45;&gt;dir_bcbb2cf9a3d3d83e5515c82071a07177</title>
<path fill="none" stroke="#000000" d="M487.6675,-108.1451C502.9979,-145.8741 530.6827,-233.0083 541.8998,-277.9956"/>
<polygon fill="#000000" stroke="#000000" points="538.5492,-279.0349 544.2652,-287.9555 545.3598,-277.4173 538.5492,-279.0349"/>
<g id="a_edge50&#45;headlabel"><a xlink:href="dir_000076_000013.html" target="_top" xlink:title="10">
<text text-anchor="middle" x="534.9562" y="-273.6936" font-family="Helvetica,sans-Serif" font-size="10.00" fill="#000000">10</text>
</a>
</g>
</g>
</g>
</svg>
        <g id="navigator" transform="translate(0 0)" fill="#404254">
                <rect fill="#f2f5e9" fill-opacity="0.5" stroke="#606060" stroke-width=".5" x="0" y="0" width="60" height="60"/>
                <use id="zoomplus" xlink:href="#zoomPlus" x="17" y="9" onmousedown="handleZoom(evt,'in')"/>
                <use id="zoomminus" xlink:href="#zoomMin" x="42" y="9" onmousedown="handleZoom(evt,'out')"/>
                <use id="reset" xlink:href="#resetDef" x="30" y="36" onmousedown="handleReset()"/>
                <g id="arrowUp" xlink:href="#dirArrow" transform="translate(30 24)" onmousedown="handlePan(0,-1)">
                  <use xlink:href="#rim" fill="#404040">
                        <set attributeName="fill" to="#808080" begin="arrowUp.mouseover" end="arrowUp.mouseout"/>
                  </use>
                  <path fill="none" stroke="white" stroke-width="1.5" d="M0,-3.0v7 M-2.5,-0.5L0,-3.0L2.5,-0.5"/>
                </g>
                <g id="arrowRight" xlink:href="#dirArrow" transform="rotate(90) translate(36 -43)" onmousedown="handlePan(1,0)">
                  <use xlink:href="#rim" fill="#404040">
                        <set attributeName="fill" to="#808080" begin="arrowRight.mouseover" end="arrowRight.mouseout"/>
                  </use>
                  <path fill="none" stroke="white" stroke-width="1.5" d="M0,-3.0v7 M-2.5,-0.5L0,-3.0L2.5,-0.5"/>
                </g>
                <g id="arrowDown" xlink:href="#dirArrow" transform="rotate(180) translate(-30 -48)" onmousedown="handlePan(0,1)">
                  <use xlink:href="#rim" fill="#404040">
                        <set attributeName="fill" to="#808080" begin="arrowDown.mouseover" end="arrowDown.mouseout"/>
                  </use>
                  <path fill="none" stroke="white" stroke-width="1.5" d="M0,-3.0v7 M-2.5,-0.5L0,-3.0L2.5,-0.5"/>
                </g>
                <g id="arrowLeft" xlink:href="#dirArrow" transform="rotate(270) translate(-36 17)" onmousedown="handlePan(-1,0)">
                  <use xlink:href="#rim" fill="#404040">
                        <set attributeName="fill" to="#808080" begin="arrowLeft.mouseover" end="arrowLeft.mouseout"/>
                  </use>
                  <path fill="none" stroke="white" stroke-width="1.5" d="M0,-3.0v7 M-2.5,-0.5L0,-3.0L2.5,-0.5"/>
                </g>
        </g>
        <svg viewBox="0 0 15 15" width="100%" height="30px" preserveAspectRatio="xMaxYMin meet">
         <g id="arrow_out" transform="scale(0.3 0.3)">
          <a xlink:href="dir_85bf31a2e8d306e7598ffcb73f8df6bf_dep_org.svg" target="_base">
           <rect id="button" ry="5" rx="5" y="6" x="6" height="38" width="38"
                fill="#f2f5e9" fill-opacity="0.5" stroke="#606060" stroke-width="1.0"/>
           <path id="arrow"
             d="M 11.500037,31.436501 C 11.940474,20.09759 22.043105,11.32322 32.158766,21.979434 L 37.068811,17.246167 C 37.068811,17.246167 37.088388,32 37.088388,32 L 22.160133,31.978069 C 22.160133,31.978069 26.997745,27.140456 26.997745,27.140456 C 18.528582,18.264221 13.291696,25.230495 11.500037,31.436501 z"
             style="fill:#404040;"/>
          </a>
         </g>
        </svg>
</svg>
