<?xml version="1.0" encoding="UTF-8" standalone="no"?>
<!DOCTYPE svg PUBLIC "-//W3C//DTD SVG 1.1//EN"
 "http://www.w3.org/Graphics/SVG/1.1/DTD/svg11.dtd">
<!-- Generated by graphviz version 2.40.1 (20161225.0304)
 -->
<!-- Title: /home/travis/build/AliceO2Group/AliceO2/Detectors/ITSMFT/common/workflow Pages: 1 -->
<!--zoomable 519 -->
<svg id="main" version="1.1" xmlns="http://www.w3.org/2000/svg" xmlns:xlink="http://www.w3.org/1999/xlink" xml:space="preserve" onload="init(evt)">
<style type="text/css"><![CDATA[
.edge:hover path { stroke: red; }
.edge:hover polygon { stroke: red; fill: red; }
]]></style>
<script type="text/javascript"><![CDATA[
var edges = document.getElementsByTagName('g');
if (edges && edges.length) {
  for (var i=0;i<edges.length;i++) {
    if (edges[i].id.substr(0,4)=='edge') {
      edges[i].setAttribute('class','edge');
    }
  }
}
]]></script>
        <defs>
                <circle id="rim" cx="0" cy="0" r="7"/>
                <circle id="rim2" cx="0" cy="0" r="3.5"/>
                <g id="zoomPlus">
                        <use xlink:href="#rim" fill="#404040">
                                <set attributeName="fill" to="#808080" begin="zoomplus.mouseover" end="zoomplus.mouseout"/>
                        </use>
                        <path d="M-4,0h8M0,-4v8" fill="none" stroke="white" stroke-width="1.5" pointer-events="none"/>
                </g>
                <g id="zoomMin">
                        <use xlink:href="#rim" fill="#404040">
                                <set attributeName="fill" to="#808080" begin="zoomminus.mouseover" end="zoomminus.mouseout"/>
                        </use>
                        <path d="M-4,0h8" fill="none" stroke="white" stroke-width="1.5" pointer-events="none"/>
                </g>
                <g id="dirArrow">
                        <path fill="none" stroke="white" stroke-width="1.5" d="M0,-3.0v7 M-2.5,-0.5L0,-3.0L2.5,-0.5"/>
                </g>
               <g id="resetDef">
                       <use xlink:href="#rim2" fill="#404040">
                               <set attributeName="fill" to="#808080" begin="reset.mouseover" end="reset.mouseout"/>
                       </use>
               </g>
        </defs>

<script type="text/javascript">
var viewWidth = 596;
var viewHeight = 519;
var sectionId = 'dynsection-0';
</script>
<script xlink:href="svgpan.js"/>
<svg id="graph" class="graph">
<g id="viewport">
<title>/home/travis/build/AliceO2Group/AliceO2/Detectors/ITSMFT/common/workflow</title>
<g id="clust1" class="cluster">
<title>clusterdir_85bf31a2e8d306e7598ffcb73f8df6bf</title>
<g id="a_clust1"><a xlink:href="dir_85bf31a2e8d306e7598ffcb73f8df6bf.html" target="_top" xlink:title="common">
<polygon fill="#ddddee" stroke="#000000" points="120,-344 120,-503 286,-503 286,-344 120,-344"/>
<text text-anchor="middle" x="203" y="-491" font-family="Helvetica,sans-Serif" font-size="10.00" fill="#000000">common</text>
</a>
</g>
</g>
<g id="clust2" class="cluster">
<title>clusterdir_cd7d5e2598ca22d0234e65e7e58f6fe3</title>
<g id="a_clust2"><a xlink:href="dir_cd7d5e2598ca22d0234e65e7e58f6fe3.html" target="_top">
<polygon fill="#eeeeff" stroke="#000000" points="128,-352 128,-476 278,-476 278,-352 128,-352"/>
</a>
</g>
</g>
<!-- dir_cd7d5e2598ca22d0234e65e7e58f6fe3 -->
<g id="node1" class="node">
<title>dir_cd7d5e2598ca22d0234e65e7e58f6fe3</title>
<text text-anchor="middle" x="239" y="-447.5" font-family="Helvetica,sans-Serif" font-size="10.00" fill="#000000">workflow</text>
</g>
<!-- dir_ddb3898f7e3847431eff59fd5513b916 -->
<g id="node2" class="node">
<title>dir_ddb3898f7e3847431eff59fd5513b916</title>
<g id="a_node2"><a xlink:href="dir_ddb3898f7e3847431eff59fd5513b916.html" target="_top" xlink:title="include">
<polygon fill="#ffffff" stroke="#ff0000" points="190,-396 136,-396 136,-360 190,-360 190,-396"/>
<text text-anchor="middle" x="163" y="-375.5" font-family="Helvetica,sans-Serif" font-size="10.00" fill="#000000">include</text>
</a>
</g>
</g>
<!-- dir_2174d8cbbd82d5c404dd04814f845a3a -->
<g id="node5" class="node">
<title>dir_2174d8cbbd82d5c404dd04814f845a3a</title>
<g id="a_node5"><a xlink:href="dir_2174d8cbbd82d5c404dd04814f845a3a.html" target="_top" xlink:title="reconstruction">
<polygon fill="none" stroke="#ff0000" points="380,-396 294,-396 294,-360 380,-360 380,-396"/>
<text text-anchor="middle" x="337" y="-375.5" font-family="Helvetica,sans-Serif" font-size="10.00" fill="#000000">reconstruction</text>
</a>
</g>
</g>
<!-- dir_ddb3898f7e3847431eff59fd5513b916&#45;&gt;dir_2174d8cbbd82d5c404dd04814f845a3a -->
<g id="edge8" class="edge">
<title>dir_ddb3898f7e3847431eff59fd5513b916&#45;&gt;dir_2174d8cbbd82d5c404dd04814f845a3a</title>
<path fill="none" stroke="#000000" d="M190.1875,-378C221.4089,-378 252.6303,-378 283.8517,-378"/>
<polygon fill="#000000" stroke="#000000" points="283.9886,-381.5001 293.9885,-378 283.9885,-374.5001 283.9886,-381.5001"/>
<g id="a_edge8&#45;headlabel"><a xlink:href="dir_000481_000355.html" target="_top" xlink:title="3">
<text text-anchor="middle" x="280.3939" y="-381.8393" font-family="Helvetica,sans-Serif" font-size="10.00" fill="#000000">3</text>
</a>
</g>
</g>
<!-- dir_bcbb2cf9a3d3d83e5515c82071a07177 -->
<g id="node9" class="node">
<title>dir_bcbb2cf9a3d3d83e5515c82071a07177</title>
<g id="a_node9"><a xlink:href="dir_bcbb2cf9a3d3d83e5515c82071a07177.html" target="_top" xlink:title="Framework">
<polygon fill="none" stroke="#ff0000" points="199.5,-252 128.5,-252 128.5,-216 199.5,-216 199.5,-252"/>
<text text-anchor="middle" x="164" y="-231.5" font-family="Helvetica,sans-Serif" font-size="10.00" fill="#000000">Framework</text>
</a>
</g>
</g>
<!-- dir_ddb3898f7e3847431eff59fd5513b916&#45;&gt;dir_bcbb2cf9a3d3d83e5515c82071a07177 -->
<g id="edge9" class="edge">
<title>dir_ddb3898f7e3847431eff59fd5513b916&#45;&gt;dir_bcbb2cf9a3d3d83e5515c82071a07177</title>
<path fill="none" stroke="#000000" d="M163.1267,-359.7623C163.2972,-335.201 163.6024,-291.2474 163.8031,-262.3541"/>
<polygon fill="#000000" stroke="#000000" points="167.3048,-262.1137 163.8744,-252.0896 160.3049,-262.065 167.3048,-262.1137"/>
<g id="a_edge9&#45;headlabel"><a xlink:href="dir_000481_000013.html" target="_top" xlink:title="8">
<text text-anchor="middle" x="170.1191" y="-263.2279" font-family="Helvetica,sans-Serif" font-size="10.00" fill="#000000">8</text>
</a>
</g>
</g>
<!-- dir_2171f7ec022c5423887b07c69b2f5b48 -->
<g id="node10" class="node">
<title>dir_2171f7ec022c5423887b07c69b2f5b48</title>
<g id="a_node10"><a xlink:href="dir_2171f7ec022c5423887b07c69b2f5b48.html" target="_top" xlink:title="DataFormats">
<polygon fill="none" stroke="#ff0000" points="333,-108 253,-108 253,-72 333,-72 333,-108"/>
<text text-anchor="middle" x="293" y="-87.5" font-family="Helvetica,sans-Serif" font-size="10.00" fill="#000000">DataFormats</text>
</a>
</g>
</g>
<!-- dir_ddb3898f7e3847431eff59fd5513b916&#45;&gt;dir_2171f7ec022c5423887b07c69b2f5b48 -->
<g id="edge10" class="edge">
<title>dir_ddb3898f7e3847431eff59fd5513b916&#45;&gt;dir_2171f7ec022c5423887b07c69b2f5b48</title>
<path fill="none" stroke="#000000" d="M150.3255,-359.7974C130.6093,-329.0542 97.118,-265.37 120,-216 143.9679,-164.2869 201.3287,-129.3071 243.4577,-109.5748"/>
<polygon fill="#000000" stroke="#000000" points="245.0784,-112.6828 252.734,-105.3588 242.182,-106.3102 245.0784,-112.6828"/>
<g id="a_edge10&#45;headlabel"><a xlink:href="dir_000481_000076.html" target="_top" xlink:title="8">
<text text-anchor="middle" x="242.9807" y="-114.2549" font-family="Helvetica,sans-Serif" font-size="10.00" fill="#000000">8</text>
</a>
</g>
</g>
<!-- dir_98223cd4f657b249d6dd7fcd39e2d94b -->
<g id="node3" class="node">
<title>dir_98223cd4f657b249d6dd7fcd39e2d94b</title>
<g id="a_node3"><a xlink:href="dir_98223cd4f657b249d6dd7fcd39e2d94b.html" target="_top" xlink:title="src">
<polygon fill="#ffffff" stroke="#000000" points="190,-468 136,-468 136,-432 190,-432 190,-468"/>
<text text-anchor="middle" x="163" y="-447.5" font-family="Helvetica,sans-Serif" font-size="10.00" fill="#000000">src</text>
</a>
</g>
</g>
<!-- dir_98223cd4f657b249d6dd7fcd39e2d94b&#45;&gt;dir_ddb3898f7e3847431eff59fd5513b916 -->
<g id="edge23" class="edge">
<title>dir_98223cd4f657b249d6dd7fcd39e2d94b&#45;&gt;dir_ddb3898f7e3847431eff59fd5513b916</title>
<path fill="none" stroke="#000000" d="M163,-431.8314C163,-424.131 163,-414.9743 163,-406.4166"/>
<polygon fill="#000000" stroke="#000000" points="166.5001,-406.4132 163,-396.4133 159.5001,-406.4133 166.5001,-406.4132"/>
<g id="a_edge23&#45;headlabel"><a xlink:href="dir_000483_000481.html" target="_top" xlink:title="5">
<text text-anchor="middle" x="169.3393" y="-407.5079" font-family="Helvetica,sans-Serif" font-size="10.00" fill="#000000">5</text>
</a>
</g>
</g>
<!-- dir_871aad07cbf94d6cd423c3d8d5bdf4e9 -->
<g id="node4" class="node">
<title>dir_871aad07cbf94d6cd423c3d8d5bdf4e9</title>
<g id="a_node4"><a xlink:href="dir_871aad07cbf94d6cd423c3d8d5bdf4e9.html" target="_top" xlink:title="ITS">
<polygon fill="none" stroke="#ff0000" points="302,-180 248,-180 248,-144 302,-144 302,-180"/>
<text text-anchor="middle" x="275" y="-159.5" font-family="Helvetica,sans-Serif" font-size="10.00" fill="#000000">ITS</text>
</a>
</g>
</g>
<!-- dir_98223cd4f657b249d6dd7fcd39e2d94b&#45;&gt;dir_871aad07cbf94d6cd423c3d8d5bdf4e9 -->
<g id="edge22" class="edge">
<title>dir_98223cd4f657b249d6dd7fcd39e2d94b&#45;&gt;dir_871aad07cbf94d6cd423c3d8d5bdf4e9</title>
<path fill="none" stroke="#000000" d="M176.8237,-431.684C184.0636,-421.533 192.7065,-408.4738 199,-396 234.536,-325.567 258.3547,-234.9655 268.8666,-189.9574"/>
<polygon fill="#000000" stroke="#000000" points="272.3158,-190.5748 271.1374,-180.0457 265.4925,-189.0115 272.3158,-190.5748"/>
<g id="a_edge22&#45;headlabel"><a xlink:href="dir_000483_000044.html" target="_top" xlink:title="1">
<text text-anchor="middle" x="274.2807" y="-192.2126" font-family="Helvetica,sans-Serif" font-size="10.00" fill="#000000">1</text>
</a>
</g>
</g>
<!-- dir_98223cd4f657b249d6dd7fcd39e2d94b&#45;&gt;dir_2174d8cbbd82d5c404dd04814f845a3a -->
<g id="edge24" class="edge">
<title>dir_98223cd4f657b249d6dd7fcd39e2d94b&#45;&gt;dir_2174d8cbbd82d5c404dd04814f845a3a</title>
<path fill="none" stroke="#000000" d="M190.3688,-436.3936C193.5983,-434.8748 196.861,-433.3797 200,-432 227.4981,-419.9135 258.6125,-407.547 284.2318,-397.7033"/>
<polygon fill="#000000" stroke="#000000" points="285.6715,-400.9 293.7626,-394.06 283.172,-394.3615 285.6715,-400.9"/>
<g id="a_edge24&#45;headlabel"><a xlink:href="dir_000483_000355.html" target="_top" xlink:title="6">
<text text-anchor="middle" x="283.3277" y="-402.3356" font-family="Helvetica,sans-Serif" font-size="10.00" fill="#000000">6</text>
</a>
</g>
</g>
<!-- dir_4ab6b4cc6a7edbff49100e9123df213f -->
<g id="node6" class="node">
<title>dir_4ab6b4cc6a7edbff49100e9123df213f</title>
<g id="a_node6"><a xlink:href="dir_4ab6b4cc6a7edbff49100e9123df213f.html" target="_top" xlink:title="Common">
<polygon fill="none" stroke="#ff0000" points="419.5,-324 358.5,-324 358.5,-288 419.5,-288 419.5,-324"/>
<text text-anchor="middle" x="389" y="-303.5" font-family="Helvetica,sans-Serif" font-size="10.00" fill="#000000">Common</text>
</a>
</g>
</g>
<!-- dir_98223cd4f657b249d6dd7fcd39e2d94b&#45;&gt;dir_4ab6b4cc6a7edbff49100e9123df213f -->
<g id="edge25" class="edge">
<title>dir_98223cd4f657b249d6dd7fcd39e2d94b&#45;&gt;dir_4ab6b4cc6a7edbff49100e9123df213f</title>
<path fill="none" stroke="#000000" d="M190.1405,-435.8005C193.4111,-434.3882 196.7458,-433.0802 200,-432 281.1559,-405.0608 334.4847,-461.8793 389,-396 403.0168,-379.0614 401.6249,-353.5529 397.5284,-334.0129"/>
<polygon fill="#000000" stroke="#000000" points="400.892,-333.0321 395.1313,-324.1402 394.0896,-334.6837 400.892,-333.0321"/>
<g id="a_edge25&#45;headlabel"><a xlink:href="dir_000483_000027.html" target="_top" xlink:title="2">
<text text-anchor="middle" x="404.4992" y="-333.3553" font-family="Helvetica,sans-Serif" font-size="10.00" fill="#000000">2</text>
</a>
</g>
</g>
<!-- dir_37c90836491b695b472bf98d1be8336b -->
<g id="node7" class="node">
<title>dir_37c90836491b695b472bf98d1be8336b</title>
<g id="a_node7"><a xlink:href="dir_37c90836491b695b472bf98d1be8336b.html" target="_top" xlink:title="Base">
<polygon fill="none" stroke="#ff0000" points="311,-36 257,-36 257,0 311,0 311,-36"/>
<text text-anchor="middle" x="284" y="-15.5" font-family="Helvetica,sans-Serif" font-size="10.00" fill="#000000">Base</text>
</a>
</g>
</g>
<!-- dir_98223cd4f657b249d6dd7fcd39e2d94b&#45;&gt;dir_37c90836491b695b472bf98d1be8336b -->
<g id="edge26" class="edge">
<title>dir_98223cd4f657b249d6dd7fcd39e2d94b&#45;&gt;dir_37c90836491b695b472bf98d1be8336b</title>
<path fill="none" stroke="#000000" d="M135.8097,-443.6229C109.2284,-436.164 69.0588,-421.4698 43,-396 11.2971,-365.0136 0,-350.331 0,-306 0,-306 0,-306 0,-162 0,-52.7079 169.378,-26.3401 246.5228,-19.9986"/>
<polygon fill="#000000" stroke="#000000" points="247.0587,-23.4683 256.7689,-19.2301 246.5351,-16.4879 247.0587,-23.4683"/>
<g id="a_edge26&#45;headlabel"><a xlink:href="dir_000483_000274.html" target="_top" xlink:title="1">
<text text-anchor="middle" x="243.6864" y="-24.0684" font-family="Helvetica,sans-Serif" font-size="10.00" fill="#000000">1</text>
</a>
</g>
</g>
<!-- dir_7c9998090bca7c4aa89c05dd66fe73f5 -->
<g id="node8" class="node">
<title>dir_7c9998090bca7c4aa89c05dd66fe73f5</title>
<g id="a_node8"><a xlink:href="dir_7c9998090bca7c4aa89c05dd66fe73f5.html" target="_top" xlink:title="base">
<polygon fill="none" stroke="#ff0000" points="415,-36 361,-36 361,0 415,0 415,-36"/>
<text text-anchor="middle" x="388" y="-15.5" font-family="Helvetica,sans-Serif" font-size="10.00" fill="#000000">base</text>
</a>
</g>
</g>
<!-- dir_98223cd4f657b249d6dd7fcd39e2d94b&#45;&gt;dir_7c9998090bca7c4aa89c05dd66fe73f5 -->
<g id="edge27" class="edge">
<title>dir_98223cd4f657b249d6dd7fcd39e2d94b&#45;&gt;dir_7c9998090bca7c4aa89c05dd66fe73f5</title>
<path fill="none" stroke="#000000" d="M190.1227,-435.7461C193.3965,-434.3436 196.7368,-433.0528 200,-432 372.5516,-376.3312 588,-487.3094 588,-306 588,-306 588,-306 588,-162 588,-82.6877 483.1353,-42.7332 425.2713,-26.7237"/>
<polygon fill="#000000" stroke="#000000" points="425.9535,-23.2835 415.3898,-24.0956 424.1542,-30.0483 425.9535,-23.2835"/>
<g id="a_edge27&#45;headlabel"><a xlink:href="dir_000483_000470.html" target="_top" xlink:title="2">
<text text-anchor="middle" x="430.157" y="-18.9634" font-family="Helvetica,sans-Serif" font-size="10.00" fill="#000000">2</text>
</a>
</g>
</g>
<!-- dir_98223cd4f657b249d6dd7fcd39e2d94b&#45;&gt;dir_bcbb2cf9a3d3d83e5515c82071a07177 -->
<g id="edge28" class="edge">
<title>dir_98223cd4f657b249d6dd7fcd39e2d94b&#45;&gt;dir_bcbb2cf9a3d3d83e5515c82071a07177</title>
<path fill="none" stroke="#000000" d="M147.0095,-431.9169C139.3462,-422.0371 130.9834,-409.1563 127,-396 112.9081,-349.4576 133.4152,-293.9711 149.0676,-261.4975"/>
<polygon fill="#000000" stroke="#000000" points="152.3785,-262.7025 153.7258,-252.1937 146.1191,-259.5686 152.3785,-262.7025"/>
<g id="a_edge28&#45;headlabel"><a xlink:href="dir_000483_000013.html" target="_top" xlink:title="11">
<text text-anchor="middle" x="153.3081" y="-264.6879" font-family="Helvetica,sans-Serif" font-size="10.00" fill="#000000">11</text>
</a>
</g>
</g>
<!-- dir_98223cd4f657b249d6dd7fcd39e2d94b&#45;&gt;dir_2171f7ec022c5423887b07c69b2f5b48 -->
<g id="edge29" class="edge">
<title>dir_98223cd4f657b249d6dd7fcd39e2d94b&#45;&gt;dir_2171f7ec022c5423887b07c69b2f5b48</title>
<path fill="none" stroke="#000000" d="M135.8769,-434.8373C99.1134,-412.0501 38,-365.2582 38,-306 38,-306 38,-306 38,-234 38,-140.8899 168.4995,-107.3034 242.7861,-95.7273"/>
<polygon fill="#000000" stroke="#000000" points="243.495,-99.1606 252.8757,-94.236 242.4714,-92.2359 243.495,-99.1606"/>
<g id="a_edge29&#45;headlabel"><a xlink:href="dir_000483_000076.html" target="_top" xlink:title="9">
<text text-anchor="middle" x="240.3541" y="-99.9949" font-family="Helvetica,sans-Serif" font-size="10.00" fill="#000000">9</text>
</a>
</g>
</g>
<!-- dir_871aad07cbf94d6cd423c3d8d5bdf4e9&#45;&gt;dir_ddb3898f7e3847431eff59fd5513b916 -->
<g id="edge1" class="edge">
<title>dir_871aad07cbf94d6cd423c3d8d5bdf4e9&#45;&gt;dir_ddb3898f7e3847431eff59fd5513b916</title>
<path fill="none" stroke="#000000" d="M265.5914,-180.1451C245.9044,-218.1129 200.2746,-306.1133 177.0805,-350.8447"/>
<polygon fill="#000000" stroke="#000000" points="173.8525,-349.4668 172.3564,-359.9555 180.0668,-352.6891 173.8525,-349.4668"/>
<g id="a_edge1&#45;headlabel"><a xlink:href="dir_000044_000481.html" target="_top" xlink:title="1">
<text text-anchor="middle" x="172.9865" y="-342.4687" font-family="Helvetica,sans-Serif" font-size="10.00" fill="#000000">1</text>
</a>
</g>
</g>
<!-- dir_871aad07cbf94d6cd423c3d8d5bdf4e9&#45;&gt;dir_2174d8cbbd82d5c404dd04814f845a3a -->
<g id="edge2" class="edge">
<title>dir_871aad07cbf94d6cd423c3d8d5bdf4e9&#45;&gt;dir_2174d8cbbd82d5c404dd04814f845a3a</title>
<path fill="none" stroke="#000000" d="M280.2083,-180.1451C291.0608,-217.9537 316.1543,-305.3762 329.0433,-350.2797"/>
<polygon fill="#000000" stroke="#000000" points="325.6974,-351.3093 331.8206,-359.9555 332.4257,-349.3779 325.6974,-351.3093"/>
<g id="a_edge2&#45;headlabel"><a xlink:href="dir_000044_000355.html" target="_top" xlink:title="28">
<text text-anchor="middle" x="321.9766" y="-346.1375" font-family="Helvetica,sans-Serif" font-size="10.00" fill="#000000">28</text>
</a>
</g>
</g>
<!-- dir_871aad07cbf94d6cd423c3d8d5bdf4e9&#45;&gt;dir_4ab6b4cc6a7edbff49100e9123df213f -->
<g id="edge3" class="edge">
<title>dir_871aad07cbf94d6cd423c3d8d5bdf4e9&#45;&gt;dir_4ab6b4cc6a7edbff49100e9123df213f</title>
<path fill="none" stroke="#000000" d="M289.7478,-180.4778C298.0574,-190.8998 308.6206,-204.1661 318,-216 334.8914,-237.3117 353.9784,-261.5133 368.1051,-279.4483"/>
<polygon fill="#000000" stroke="#000000" points="365.6736,-282.018 374.6101,-287.7093 371.1732,-277.6873 365.6736,-282.018"/>
<g id="a_edge3&#45;headlabel"><a xlink:href="dir_000044_000027.html" target="_top" xlink:title="35">
<text text-anchor="middle" x="361.2191" y="-278.4504" font-family="Helvetica,sans-Serif" font-size="10.00" fill="#000000">35</text>
</a>
</g>
</g>
<!-- dir_871aad07cbf94d6cd423c3d8d5bdf4e9&#45;&gt;dir_37c90836491b695b472bf98d1be8336b -->
<g id="edge4" class="edge">
<title>dir_871aad07cbf94d6cd423c3d8d5bdf4e9&#45;&gt;dir_37c90836491b695b472bf98d1be8336b</title>
<path fill="none" stroke="#000000" d="M261.2037,-143.5772C254.5974,-133.6044 247.3977,-120.743 244,-108 239.8779,-92.5401 238.9856,-87.1939 244,-72 247.2908,-62.0288 253.2116,-52.3944 259.5064,-44.0924"/>
<polygon fill="#000000" stroke="#000000" points="262.2672,-46.2448 265.8424,-36.2714 256.828,-41.8384 262.2672,-46.2448"/>
<g id="a_edge4&#45;headlabel"><a xlink:href="dir_000044_000274.html" target="_top" xlink:title="13">
<text text-anchor="middle" x="262.2106" y="-48.3251" font-family="Helvetica,sans-Serif" font-size="10.00" fill="#000000">13</text>
</a>
</g>
</g>
<!-- dir_871aad07cbf94d6cd423c3d8d5bdf4e9&#45;&gt;dir_7c9998090bca7c4aa89c05dd66fe73f5 -->
<g id="edge5" class="edge">
<title>dir_871aad07cbf94d6cd423c3d8d5bdf4e9&#45;&gt;dir_7c9998090bca7c4aa89c05dd66fe73f5</title>
<path fill="none" stroke="#000000" d="M302.0631,-144.2512C315.2646,-134.6469 330.693,-121.9122 342,-108 357.2916,-89.1852 369.4765,-64.4631 377.4538,-45.691"/>
<polygon fill="#000000" stroke="#000000" points="380.7838,-46.7952 381.3408,-36.215 374.3075,-44.1386 380.7838,-46.7952"/>
<g id="a_edge5&#45;headlabel"><a xlink:href="dir_000044_000470.html" target="_top" xlink:title="10">
<text text-anchor="middle" x="382.0465" y="-48.6984" font-family="Helvetica,sans-Serif" font-size="10.00" fill="#000000">10</text>
</a>
</g>
</g>
<!-- dir_871aad07cbf94d6cd423c3d8d5bdf4e9&#45;&gt;dir_bcbb2cf9a3d3d83e5515c82071a07177 -->
<g id="edge6" class="edge">
<title>dir_871aad07cbf94d6cd423c3d8d5bdf4e9&#45;&gt;dir_bcbb2cf9a3d3d83e5515c82071a07177</title>
<path fill="none" stroke="#000000" d="M252.9508,-180.1628C239.6524,-189.3712 222.3845,-200.6631 206.5665,-210.5232"/>
<polygon fill="#000000" stroke="#000000" points="204.6354,-207.602 197.9624,-215.8314 208.3108,-213.5595 204.6354,-207.602"/>
<g id="a_edge6&#45;headlabel"><a xlink:href="dir_000044_000013.html" target="_top" xlink:title="44">
<text text-anchor="middle" x="206.2039" y="-200.7983" font-family="Helvetica,sans-Serif" font-size="10.00" fill="#000000">44</text>
</a>
</g>
</g>
<!-- dir_871aad07cbf94d6cd423c3d8d5bdf4e9&#45;&gt;dir_2171f7ec022c5423887b07c69b2f5b48 -->
<g id="edge7" class="edge">
<title>dir_871aad07cbf94d6cd423c3d8d5bdf4e9&#45;&gt;dir_2171f7ec022c5423887b07c69b2f5b48</title>
<path fill="none" stroke="#000000" d="M279.5422,-143.8314C281.4884,-136.0463 283.8068,-126.7729 285.9663,-118.1347"/>
<polygon fill="#000000" stroke="#000000" points="289.3668,-118.9636 288.3967,-108.4133 282.5758,-117.2658 289.3668,-118.9636"/>
<g id="a_edge7&#45;headlabel"><a xlink:href="dir_000044_000076.html" target="_top" xlink:title="111">
<text text-anchor="middle" x="291.2495" y="-120.6395" font-family="Helvetica,sans-Serif" font-size="10.00" fill="#000000">111</text>
</a>
</g>
</g>
<!-- dir_2174d8cbbd82d5c404dd04814f845a3a&#45;&gt;dir_4ab6b4cc6a7edbff49100e9123df213f -->
<g id="edge11" class="edge">
<title>dir_2174d8cbbd82d5c404dd04814f845a3a&#45;&gt;dir_4ab6b4cc6a7edbff49100e9123df213f</title>
<path fill="none" stroke="#000000" d="M350.1218,-359.8314C356.0499,-351.6232 363.1729,-341.7606 369.6933,-332.7323"/>
<polygon fill="#000000" stroke="#000000" points="372.684,-334.5693 375.7015,-324.4133 367.0092,-330.4708 372.684,-334.5693"/>
<g id="a_edge11&#45;headlabel"><a xlink:href="dir_000355_000027.html" target="_top" xlink:title="8">
<text text-anchor="middle" x="372.8811" y="-336.6457" font-family="Helvetica,sans-Serif" font-size="10.00" fill="#000000">8</text>
</a>
</g>
</g>
<!-- dir_2174d8cbbd82d5c404dd04814f845a3a&#45;&gt;dir_7c9998090bca7c4aa89c05dd66fe73f5 -->
<g id="edge12" class="edge">
<title>dir_2174d8cbbd82d5c404dd04814f845a3a&#45;&gt;dir_7c9998090bca7c4aa89c05dd66fe73f5</title>
<path fill="none" stroke="#000000" d="M380.1037,-369.2238C442.343,-353.7487 550,-315.2393 550,-234 550,-234 550,-234 550,-162 550,-95.2873 472.3065,-51.914 424.5287,-31.5486"/>
<polygon fill="#000000" stroke="#000000" points="425.6943,-28.2434 415.1152,-27.667 423.0258,-34.7148 425.6943,-28.2434"/>
<g id="a_edge12&#45;headlabel"><a xlink:href="dir_000355_000470.html" target="_top" xlink:title="4">
<text text-anchor="middle" x="430.0998" y="-24.4888" font-family="Helvetica,sans-Serif" font-size="10.00" fill="#000000">4</text>
</a>
</g>
</g>
<!-- dir_2174d8cbbd82d5c404dd04814f845a3a&#45;&gt;dir_bcbb2cf9a3d3d83e5515c82071a07177 -->
<g id="edge13" class="edge">
<title>dir_2174d8cbbd82d5c404dd04814f845a3a&#45;&gt;dir_bcbb2cf9a3d3d83e5515c82071a07177</title>
<path fill="none" stroke="#000000" d="M315.0894,-359.7623C284.2819,-334.119 228.0787,-287.3372 193.5856,-258.6262"/>
<polygon fill="#000000" stroke="#000000" points="195.6577,-255.7971 185.7327,-252.0896 191.1794,-261.1772 195.6577,-255.7971"/>
<g id="a_edge13&#45;headlabel"><a xlink:href="dir_000355_000013.html" target="_top" xlink:title="6">
<text text-anchor="middle" x="200.2368" y="-253.4145" font-family="Helvetica,sans-Serif" font-size="10.00" fill="#000000">6</text>
</a>
</g>
</g>
<!-- dir_2174d8cbbd82d5c404dd04814f845a3a&#45;&gt;dir_2171f7ec022c5423887b07c69b2f5b48 -->
<g id="edge14" class="edge">
<title>dir_2174d8cbbd82d5c404dd04814f845a3a&#45;&gt;dir_2171f7ec022c5423887b07c69b2f5b48</title>
<path fill="none" stroke="#000000" d="M380.3524,-363.7219C398.7768,-355.2573 418.417,-342.483 429,-324 436.9502,-310.115 433.0544,-303.4778 429,-288 410.3927,-216.9664 392.6422,-202.3016 348,-144 340.246,-133.8734 330.6418,-123.802 321.6401,-115.1484"/>
<polygon fill="#000000" stroke="#000000" points="323.9633,-112.5289 314.2741,-108.2428 319.1756,-117.6356 323.9633,-112.5289"/>
<g id="a_edge14&#45;headlabel"><a xlink:href="dir_000355_000076.html" target="_top" xlink:title="37">
<text text-anchor="middle" x="328.5275" y="-110.416" font-family="Helvetica,sans-Serif" font-size="10.00" fill="#000000">37</text>
</a>
</g>
</g>
<!-- dir_4ab6b4cc6a7edbff49100e9123df213f&#45;&gt;dir_bcbb2cf9a3d3d83e5515c82071a07177 -->
<g id="edge15" class="edge">
<title>dir_4ab6b4cc6a7edbff49100e9123df213f&#45;&gt;dir_bcbb2cf9a3d3d83e5515c82071a07177</title>
<path fill="none" stroke="#000000" d="M358.2249,-297.5998C319.6469,-286.0466 253.5142,-265.0157 209.2184,-250.3124"/>
<polygon fill="#000000" stroke="#000000" points="210.1579,-246.9363 199.5642,-247.0918 207.9427,-253.5766 210.1579,-246.9363"/>
<g id="a_edge15&#45;headlabel"><a xlink:href="dir_000027_000013.html" target="_top" xlink:title="2">
<text text-anchor="middle" x="214.4663" y="-242.8804" font-family="Helvetica,sans-Serif" font-size="10.00" fill="#000000">2</text>
</a>
</g>
</g>
<!-- dir_4ab6b4cc6a7edbff49100e9123df213f&#45;&gt;dir_2171f7ec022c5423887b07c69b2f5b48 -->
<g id="edge16" class="edge">
<title>dir_4ab6b4cc6a7edbff49100e9123df213f&#45;&gt;dir_2171f7ec022c5423887b07c69b2f5b48</title>
<path fill="none" stroke="#000000" d="M377.0343,-287.9555C356.7613,-250.1556 317.5344,-162.4506 300.5608,-117.5564"/>
<polygon fill="#000000" stroke="#000000" points="303.8385,-116.3285 297.1093,-108.1451 297.2665,-118.7387 303.8385,-116.3285"/>
<g id="a_edge16&#45;headlabel"><a xlink:href="dir_000027_000076.html" target="_top" xlink:title="2">
<text text-anchor="middle" x="307.7418" y="-116.2258" font-family="Helvetica,sans-Serif" font-size="10.00" fill="#000000">2</text>
</a>
</g>
</g>
<!-- dir_37c90836491b695b472bf98d1be8336b&#45;&gt;dir_4ab6b4cc6a7edbff49100e9123df213f -->
<g id="edge17" class="edge">
<title>dir_37c90836491b695b472bf98d1be8336b&#45;&gt;dir_4ab6b4cc6a7edbff49100e9123df213f</title>
<path fill="none" stroke="#000000" d="M309.4546,-36.2338C320.9534,-45.6945 333.7751,-58.163 342,-72 381.2998,-138.1155 388.3185,-231.3752 389.2073,-277.6569"/>
<polygon fill="#000000" stroke="#000000" points="385.7094,-277.882 389.3163,-287.844 392.709,-277.807 385.7094,-277.882"/>
<g id="a_edge17&#45;headlabel"><a xlink:href="dir_000274_000027.html" target="_top" xlink:title="16">
<text text-anchor="middle" x="382.8319" y="-271.818" font-family="Helvetica,sans-Serif" font-size="10.00" fill="#000000">16</text>
</a>
</g>
</g>
<!-- dir_37c90836491b695b472bf98d1be8336b&#45;&gt;dir_bcbb2cf9a3d3d83e5515c82071a07177 -->
<g id="edge18" class="edge">
<title>dir_37c90836491b695b472bf98d1be8336b&#45;&gt;dir_bcbb2cf9a3d3d83e5515c82071a07177</title>
<path fill="none" stroke="#000000" d="M265.1272,-36.3239C255.5792,-46.2696 244.2892,-59.1366 236,-72 207.6713,-115.9609 185.228,-172.936 173.3381,-206.2808"/>
<polygon fill="#000000" stroke="#000000" points="169.9959,-205.2351 169.9921,-215.8299 176.6021,-207.5499 169.9959,-205.2351"/>
<g id="a_edge18&#45;headlabel"><a xlink:href="dir_000274_000013.html" target="_top" xlink:title="1">
<text text-anchor="middle" x="168.505" y="-198.4038" font-family="Helvetica,sans-Serif" font-size="10.00" fill="#000000">1</text>
</a>
</g>
</g>
<!-- dir_37c90836491b695b472bf98d1be8336b&#45;&gt;dir_2171f7ec022c5423887b07c69b2f5b48 -->
<g id="edge19" class="edge">
<title>dir_37c90836491b695b472bf98d1be8336b&#45;&gt;dir_2171f7ec022c5423887b07c69b2f5b48</title>
<path fill="none" stroke="#000000" d="M292.2777,-36.4133C293.9645,-44.0593 295.3088,-53.1084 296.062,-61.5726"/>
<polygon fill="#000000" stroke="#000000" points="292.585,-62.0605 296.6813,-71.8314 299.5723,-61.6386 292.585,-62.0605"/>
<g id="a_edge19&#45;headlabel"><a xlink:href="dir_000274_000076.html" target="_top" xlink:title="10">
<text text-anchor="middle" x="289.5344" y="-56.1434" font-family="Helvetica,sans-Serif" font-size="10.00" fill="#000000">10</text>
</a>
</g>
</g>
<!-- dir_7c9998090bca7c4aa89c05dd66fe73f5&#45;&gt;dir_4ab6b4cc6a7edbff49100e9123df213f -->
<g id="edge20" class="edge">
<title>dir_7c9998090bca7c4aa89c05dd66fe73f5&#45;&gt;dir_4ab6b4cc6a7edbff49100e9123df213f</title>
<path fill="none" stroke="#000000" d="M415.2484,-33.869C428.3668,-43.143 442.7859,-56.15 450,-72 483.1406,-144.8128 482.8469,-179.0542 450,-252 444.8733,-263.3852 436.0283,-273.3398 426.6392,-281.4965"/>
<polygon fill="#000000" stroke="#000000" points="424.2719,-278.9095 418.6941,-287.9172 428.6718,-284.354 424.2719,-278.9095"/>
<g id="a_edge20&#45;headlabel"><a xlink:href="dir_000470_000027.html" target="_top" xlink:title="4">
<text text-anchor="middle" x="425.2831" y="-271.9419" font-family="Helvetica,sans-Serif" font-size="10.00" fill="#000000">4</text>
</a>
</g>
</g>
<!-- dir_7c9998090bca7c4aa89c05dd66fe73f5&#45;&gt;dir_2171f7ec022c5423887b07c69b2f5b48 -->
<g id="edge21" class="edge">
<title>dir_7c9998090bca7c4aa89c05dd66fe73f5&#45;&gt;dir_2171f7ec022c5423887b07c69b2f5b48</title>
<path fill="none" stroke="#000000" d="M369.987,-36.1628C358.9432,-45.2007 344.5217,-56.2456 331.1076,-65.9739"/>
<polygon fill="#000000" stroke="#000000" points="329.0191,-63.1646 322.9249,-71.8314 333.0936,-68.8566 329.0191,-63.1646"/>
<g id="a_edge21&#45;headlabel"><a xlink:href="dir_000470_000076.html" target="_top" xlink:title="2">
<text text-anchor="middle" x="330.2893" y="-56.2636" font-family="Helvetica,sans-Serif" font-size="10.00" fill="#000000">2</text>
</a>
</g>
</g>
<!-- dir_bcbb2cf9a3d3d83e5515c82071a07177&#45;&gt;dir_871aad07cbf94d6cd423c3d8d5bdf4e9 -->
<g id="edge30" class="edge">
<title>dir_bcbb2cf9a3d3d83e5515c82071a07177&#45;&gt;dir_871aad07cbf94d6cd423c3d8d5bdf4e9</title>
<path fill="none" stroke="#000000" d="M186.0576,-215.8314C201.2228,-205.3307 221.5473,-192.1221 238.9972,-181.417"/>
<polygon fill="#000000" stroke="#000000" points="241.0775,-184.249 247.8177,-176.0747 237.451,-178.2615 241.0775,-184.249"/>
<g id="a_edge30&#45;headlabel"><a xlink:href="dir_000013_000044.html" target="_top" xlink:title="1">
<text text-anchor="middle" x="239.4737" y="-186.0397" font-family="Helvetica,sans-Serif" font-size="10.00" fill="#000000">1</text>
</a>
</g>
</g>
<!-- dir_bcbb2cf9a3d3d83e5515c82071a07177&#45;&gt;dir_4ab6b4cc6a7edbff49100e9123df213f -->
<g id="edge31" class="edge">
<title>dir_bcbb2cf9a3d3d83e5515c82071a07177&#45;&gt;dir_4ab6b4cc6a7edbff49100e9123df213f</title>
<path fill="none" stroke="#000000" d="M199.6002,-243.8512C240.2186,-256.1129 306.2477,-277.1625 348.7053,-291.3259"/>
<polygon fill="#000000" stroke="#000000" points="347.8429,-294.7282 358.4368,-294.5914 350.0698,-288.0919 347.8429,-294.7282"/>
<g id="a_edge31&#45;headlabel"><a xlink:href="dir_000013_000027.html" target="_top" xlink:title="8">
<text text-anchor="middle" x="343.5318" y="-293.7765" font-family="Helvetica,sans-Serif" font-size="10.00" fill="#000000">8</text>
</a>
</g>
</g>
<!-- dir_bcbb2cf9a3d3d83e5515c82071a07177&#45;&gt;dir_2171f7ec022c5423887b07c69b2f5b48 -->
<g id="edge32" class="edge">
<title>dir_bcbb2cf9a3d3d83e5515c82071a07177&#45;&gt;dir_2171f7ec022c5423887b07c69b2f5b48</title>
<path fill="none" stroke="#000000" d="M171.6698,-215.6612C184.2445,-197.179 208.0552,-168.0303 230,-144 238.8889,-134.2664 249.0182,-123.9485 258.611,-114.9682"/>
<polygon fill="#000000" stroke="#000000" points="261.1238,-117.4136 266.1552,-108.0897 256.4075,-112.2408 261.1238,-117.4136"/>
<g id="a_edge32&#45;headlabel"><a xlink:href="dir_000013_000076.html" target="_top" xlink:title="82">
<text text-anchor="middle" x="260.3805" y="-119.4335" font-family="Helvetica,sans-Serif" font-size="10.00" fill="#000000">82</text>
</a>
</g>
</g>
<!-- dir_2171f7ec022c5423887b07c69b2f5b48&#45;&gt;dir_4ab6b4cc6a7edbff49100e9123df213f -->
<g id="edge33" class="edge">
<title>dir_2171f7ec022c5423887b07c69b2f5b48&#45;&gt;dir_4ab6b4cc6a7edbff49100e9123df213f</title>
<path fill="none" stroke="#000000" d="M305.0196,-108.1451C325.3262,-146.0333 364.5501,-233.7445 381.4842,-278.5628"/>
<polygon fill="#000000" stroke="#000000" points="378.1991,-279.7703 384.9261,-287.9555 384.7717,-277.3618 378.1991,-279.7703"/>
<g id="a_edge33&#45;headlabel"><a xlink:href="dir_000076_000027.html" target="_top" xlink:title="35">
<text text-anchor="middle" x="374.2964" y="-274.872" font-family="Helvetica,sans-Serif" font-size="10.00" fill="#000000">35</text>
</a>
</g>
</g>
<!-- dir_2171f7ec022c5423887b07c69b2f5b48&#45;&gt;dir_37c90836491b695b472bf98d1be8336b -->
<g id="edge34" class="edge">
<title>dir_2171f7ec022c5423887b07c69b2f5b48&#45;&gt;dir_37c90836491b695b472bf98d1be8336b</title>
<path fill="none" stroke="#000000" d="M284.7765,-71.8314C283.0635,-64.131 281.6981,-54.9743 280.937,-46.4166"/>
<polygon fill="#000000" stroke="#000000" points="284.4292,-46.1811 280.3257,-36.4133 277.4423,-46.6082 284.4292,-46.1811"/>
<g id="a_edge34&#45;headlabel"><a xlink:href="dir_000076_000274.html" target="_top" xlink:title="1">
<text text-anchor="middle" x="287.4824" y="-47.0959" font-family="Helvetica,sans-Serif" font-size="10.00" fill="#000000">1</text>
</a>
</g>
</g>
<!-- dir_2171f7ec022c5423887b07c69b2f5b48&#45;&gt;dir_7c9998090bca7c4aa89c05dd66fe73f5 -->
<g id="edge35" class="edge">
<title>dir_2171f7ec022c5423887b07c69b2f5b48&#45;&gt;dir_7c9998090bca7c4aa89c05dd66fe73f5</title>
<path fill="none" stroke="#000000" d="M311.0201,-71.8314C322.7399,-62.2407 338.2615,-50.3911 352.3462,-40.2531"/>
<polygon fill="#000000" stroke="#000000" points="354.7519,-42.8378 360.8834,-34.1975 350.702,-37.1283 354.7519,-42.8378"/>
<g id="a_edge35&#45;headlabel"><a xlink:href="dir_000076_000470.html" target="_top" xlink:title="1">
<text text-anchor="middle" x="353.4626" y="-44.7333" font-family="Helvetica,sans-Serif" font-size="10.00" fill="#000000">1</text>
</a>
</g>
</g>
<!-- dir_2171f7ec022c5423887b07c69b2f5b48&#45;&gt;dir_bcbb2cf9a3d3d83e5515c82071a07177 -->
<g id="edge36" class="edge">
<title>dir_2171f7ec022c5423887b07c69b2f5b48&#45;&gt;dir_bcbb2cf9a3d3d83e5515c82071a07177</title>
<path fill="none" stroke="#000000" d="M282.0091,-108.0897C272.5225,-118.3902 259.2651,-131.6644 248,-144 228.9697,-164.8387 208.5363,-189.5266 192.3781,-207.7697"/>
<polygon fill="#000000" stroke="#000000" points="189.3637,-205.887 185.2752,-215.6612 194.5666,-210.57 189.3637,-205.887"/>
<g id="a_edge36&#45;headlabel"><a xlink:href="dir_000076_000013.html" target="_top" xlink:title="10">
<text text-anchor="middle" x="189.6581" y="-198.8158" font-family="Helvetica,sans-Serif" font-size="10.00" fill="#000000">10</text>
</a>
</g>
</g>
</g>
</svg>
        <g id="navigator" transform="translate(0 0)" fill="#404254">
                <rect fill="#f2f5e9" fill-opacity="0.5" stroke="#606060" stroke-width=".5" x="0" y="0" width="60" height="60"/>
                <use id="zoomplus" xlink:href="#zoomPlus" x="17" y="9" onmousedown="handleZoom(evt,'in')"/>
                <use id="zoomminus" xlink:href="#zoomMin" x="42" y="9" onmousedown="handleZoom(evt,'out')"/>
                <use id="reset" xlink:href="#resetDef" x="30" y="36" onmousedown="handleReset()"/>
                <g id="arrowUp" xlink:href="#dirArrow" transform="translate(30 24)" onmousedown="handlePan(0,-1)">
                  <use xlink:href="#rim" fill="#404040">
                        <set attributeName="fill" to="#808080" begin="arrowUp.mouseover" end="arrowUp.mouseout"/>
                  </use>
                  <path fill="none" stroke="white" stroke-width="1.5" d="M0,-3.0v7 M-2.5,-0.5L0,-3.0L2.5,-0.5"/>
                </g>
                <g id="arrowRight" xlink:href="#dirArrow" transform="rotate(90) translate(36 -43)" onmousedown="handlePan(1,0)">
                  <use xlink:href="#rim" fill="#404040">
                        <set attributeName="fill" to="#808080" begin="arrowRight.mouseover" end="arrowRight.mouseout"/>
                  </use>
                  <path fill="none" stroke="white" stroke-width="1.5" d="M0,-3.0v7 M-2.5,-0.5L0,-3.0L2.5,-0.5"/>
                </g>
                <g id="arrowDown" xlink:href="#dirArrow" transform="rotate(180) translate(-30 -48)" onmousedown="handlePan(0,1)">
                  <use xlink:href="#rim" fill="#404040">
                        <set attributeName="fill" to="#808080" begin="arrowDown.mouseover" end="arrowDown.mouseout"/>
                  </use>
                  <path fill="none" stroke="white" stroke-width="1.5" d="M0,-3.0v7 M-2.5,-0.5L0,-3.0L2.5,-0.5"/>
                </g>
                <g id="arrowLeft" xlink:href="#dirArrow" transform="rotate(270) translate(-36 17)" onmousedown="handlePan(-1,0)">
                  <use xlink:href="#rim" fill="#404040">
                        <set attributeName="fill" to="#808080" begin="arrowLeft.mouseover" end="arrowLeft.mouseout"/>
                  </use>
                  <path fill="none" stroke="white" stroke-width="1.5" d="M0,-3.0v7 M-2.5,-0.5L0,-3.0L2.5,-0.5"/>
                </g>
        </g>
        <svg viewBox="0 0 15 15" width="100%" height="30px" preserveAspectRatio="xMaxYMin meet">
         <g id="arrow_out" transform="scale(0.3 0.3)">
          <a xlink:href="dir_cd7d5e2598ca22d0234e65e7e58f6fe3_dep_org.svg" target="_base">
           <rect id="button" ry="5" rx="5" y="6" x="6" height="38" width="38"
                fill="#f2f5e9" fill-opacity="0.5" stroke="#606060" stroke-width="1.0"/>
           <path id="arrow"
             d="M 11.500037,31.436501 C 11.940474,20.09759 22.043105,11.32322 32.158766,21.979434 L 37.068811,17.246167 C 37.068811,17.246167 37.088388,32 37.088388,32 L 22.160133,31.978069 C 22.160133,31.978069 26.997745,27.140456 26.997745,27.140456 C 18.528582,18.264221 13.291696,25.230495 11.500037,31.436501 z"
             style="fill:#404040;"/>
          </a>
         </g>
        </svg>
</svg>
