<?xml version="1.0" encoding="UTF-8" standalone="no"?>
<!DOCTYPE svg PUBLIC "-//W3C//DTD SVG 1.1//EN"
 "http://www.w3.org/Graphics/SVG/1.1/DTD/svg11.dtd">
<!-- Generated by graphviz version 2.40.1 (20161225.0304)
 -->
<!-- Title: /home/travis/build/AliceO2Group/AliceO2/Detectors/TPC/reconstruction Pages: 1 -->
<!--zoomable 591 -->
<svg id="main" version="1.1" xmlns="http://www.w3.org/2000/svg" xmlns:xlink="http://www.w3.org/1999/xlink" xml:space="preserve" onload="init(evt)">
<style type="text/css"><![CDATA[
.edge:hover path { stroke: red; }
.edge:hover polygon { stroke: red; fill: red; }
]]></style>
<script type="text/javascript"><![CDATA[
var edges = document.getElementsByTagName('g');
if (edges && edges.length) {
  for (var i=0;i<edges.length;i++) {
    if (edges[i].id.substr(0,4)=='edge') {
      edges[i].setAttribute('class','edge');
    }
  }
}
]]></script>
        <defs>
                <circle id="rim" cx="0" cy="0" r="7"/>
                <circle id="rim2" cx="0" cy="0" r="3.5"/>
                <g id="zoomPlus">
                        <use xlink:href="#rim" fill="#404040">
                                <set attributeName="fill" to="#808080" begin="zoomplus.mouseover" end="zoomplus.mouseout"/>
                        </use>
                        <path d="M-4,0h8M0,-4v8" fill="none" stroke="white" stroke-width="1.5" pointer-events="none"/>
                </g>
                <g id="zoomMin">
                        <use xlink:href="#rim" fill="#404040">
                                <set attributeName="fill" to="#808080" begin="zoomminus.mouseover" end="zoomminus.mouseout"/>
                        </use>
                        <path d="M-4,0h8" fill="none" stroke="white" stroke-width="1.5" pointer-events="none"/>
                </g>
                <g id="dirArrow">
                        <path fill="none" stroke="white" stroke-width="1.5" d="M0,-3.0v7 M-2.5,-0.5L0,-3.0L2.5,-0.5"/>
                </g>
               <g id="resetDef">
                       <use xlink:href="#rim2" fill="#404040">
                               <set attributeName="fill" to="#808080" begin="reset.mouseover" end="reset.mouseout"/>
                       </use>
               </g>
        </defs>

<script type="text/javascript">
var viewWidth = 631;
var viewHeight = 591;
var sectionId = 'dynsection-0';
</script>
<script xlink:href="svgpan.js"/>
<svg id="graph" class="graph">
<g id="viewport">
<title>/home/travis/build/AliceO2Group/AliceO2/Detectors/TPC/reconstruction</title>
<g id="clust1" class="cluster">
<title>clusterdir_a597e8e061b11201a1dff411feb10d0b</title>
<g id="a_clust1"><a xlink:href="dir_a597e8e061b11201a1dff411feb10d0b.html" target="_top" xlink:title="TPC">
<polygon fill="#ddddee" stroke="#000000" points="8,-416 8,-575 342,-575 342,-416 8,-416"/>
<text text-anchor="middle" x="175" y="-563" font-family="Helvetica,sans-Serif" font-size="10.00" fill="#000000">TPC</text>
</a>
</g>
</g>
<g id="clust2" class="cluster">
<title>clusterdir_a5de047958dd458e809773c6ffaa8478</title>
<g id="a_clust2"><a xlink:href="dir_a5de047958dd458e809773c6ffaa8478.html" target="_top">
<polygon fill="#eeeeff" stroke="#000000" points="16,-424 16,-548 334,-548 334,-424 16,-424"/>
</a>
</g>
</g>
<!-- dir_a5de047958dd458e809773c6ffaa8478 -->
<g id="node1" class="node">
<title>dir_a5de047958dd458e809773c6ffaa8478</title>
<text text-anchor="middle" x="283" y="-519.5" font-family="Helvetica,sans-Serif" font-size="10.00" fill="#000000">reconstruction</text>
</g>
<!-- dir_396d171119822f66a36fe1ebf998d1a3 -->
<g id="node2" class="node">
<title>dir_396d171119822f66a36fe1ebf998d1a3</title>
<g id="a_node2"><a xlink:href="dir_396d171119822f66a36fe1ebf998d1a3.html" target="_top" xlink:title="include">
<polygon fill="#ffffff" stroke="#ff0000" points="186,-468 132,-468 132,-432 186,-432 186,-468"/>
<text text-anchor="middle" x="159" y="-447.5" font-family="Helvetica,sans-Serif" font-size="10.00" fill="#000000">include</text>
</a>
</g>
</g>
<!-- dir_677b030cc750909e4cd27413873678d8 -->
<g id="node6" class="node">
<title>dir_677b030cc750909e4cd27413873678d8</title>
<g id="a_node6"><a xlink:href="dir_677b030cc750909e4cd27413873678d8.html" target="_top" xlink:title="base">
<polygon fill="none" stroke="#ff0000" points="404,-468 350,-468 350,-432 404,-432 404,-468"/>
<text text-anchor="middle" x="377" y="-447.5" font-family="Helvetica,sans-Serif" font-size="10.00" fill="#000000">base</text>
</a>
</g>
</g>
<!-- dir_396d171119822f66a36fe1ebf998d1a3&#45;&gt;dir_677b030cc750909e4cd27413873678d8 -->
<g id="edge14" class="edge">
<title>dir_396d171119822f66a36fe1ebf998d1a3&#45;&gt;dir_677b030cc750909e4cd27413873678d8</title>
<path fill="none" stroke="#000000" d="M186.25,-450C237.3604,-450 288.4708,-450 339.5811,-450"/>
<polygon fill="#000000" stroke="#000000" points="339.8033,-453.5001 349.8032,-450 339.8032,-446.5001 339.8033,-453.5001"/>
<g id="a_edge14&#45;headlabel"><a xlink:href="dir_000365_000050.html" target="_top" xlink:title="8">
<text text-anchor="middle" x="336.2086" y="-453.8393" font-family="Helvetica,sans-Serif" font-size="10.00" fill="#000000">8</text>
</a>
</g>
</g>
<!-- dir_4ab6b4cc6a7edbff49100e9123df213f -->
<g id="node7" class="node">
<title>dir_4ab6b4cc6a7edbff49100e9123df213f</title>
<g id="a_node7"><a xlink:href="dir_4ab6b4cc6a7edbff49100e9123df213f.html" target="_top" xlink:title="Common">
<polygon fill="none" stroke="#ff0000" points="289.5,-396 228.5,-396 228.5,-360 289.5,-360 289.5,-396"/>
<text text-anchor="middle" x="259" y="-375.5" font-family="Helvetica,sans-Serif" font-size="10.00" fill="#000000">Common</text>
</a>
</g>
</g>
<!-- dir_396d171119822f66a36fe1ebf998d1a3&#45;&gt;dir_4ab6b4cc6a7edbff49100e9123df213f -->
<g id="edge15" class="edge">
<title>dir_396d171119822f66a36fe1ebf998d1a3&#45;&gt;dir_4ab6b4cc6a7edbff49100e9123df213f</title>
<path fill="none" stroke="#000000" d="M184.2342,-431.8314C196.788,-422.7927 212.1283,-411.7476 225.6391,-402.0198"/>
<polygon fill="#000000" stroke="#000000" points="227.7036,-404.8463 233.7739,-396.1628 223.6134,-399.1655 227.7036,-404.8463"/>
<g id="a_edge15&#45;headlabel"><a xlink:href="dir_000365_000027.html" target="_top" xlink:title="2">
<text text-anchor="middle" x="226.4454" y="-406.7508" font-family="Helvetica,sans-Serif" font-size="10.00" fill="#000000">2</text>
</a>
</g>
</g>
<!-- dir_b05a5fa85f84bfc9013183c9d87f9a36 -->
<g id="node8" class="node">
<title>dir_b05a5fa85f84bfc9013183c9d87f9a36</title>
<g id="a_node8"><a xlink:href="dir_b05a5fa85f84bfc9013183c9d87f9a36.html" target="_top" xlink:title="Utilities">
<polygon fill="none" stroke="#ff0000" points="260.5,-108 205.5,-108 205.5,-72 260.5,-72 260.5,-108"/>
<text text-anchor="middle" x="233" y="-87.5" font-family="Helvetica,sans-Serif" font-size="10.00" fill="#000000">Utilities</text>
</a>
</g>
</g>
<!-- dir_396d171119822f66a36fe1ebf998d1a3&#45;&gt;dir_b05a5fa85f84bfc9013183c9d87f9a36 -->
<g id="edge16" class="edge">
<title>dir_396d171119822f66a36fe1ebf998d1a3&#45;&gt;dir_b05a5fa85f84bfc9013183c9d87f9a36</title>
<path fill="none" stroke="#000000" d="M162.7714,-431.6526C174.8457,-372.9129 212.6086,-189.2013 227.1818,-118.3047"/>
<polygon fill="#000000" stroke="#000000" points="230.651,-118.8104 229.2362,-108.3104 223.7943,-117.4009 230.651,-118.8104"/>
<g id="a_edge16&#45;headlabel"><a xlink:href="dir_000365_000558.html" target="_top" xlink:title="1">
<text text-anchor="middle" x="232.7084" y="-120.403" font-family="Helvetica,sans-Serif" font-size="10.00" fill="#000000">1</text>
</a>
</g>
</g>
<!-- dir_f511f1e9c03c071966ae594f00bbc5e0 -->
<g id="node9" class="node">
<title>dir_f511f1e9c03c071966ae594f00bbc5e0</title>
<g id="a_node9"><a xlink:href="dir_f511f1e9c03c071966ae594f00bbc5e0.html" target="_top" xlink:title="GPU">
<polygon fill="none" stroke="#ff0000" points="388,-324 334,-324 334,-288 388,-288 388,-324"/>
<text text-anchor="middle" x="361" y="-303.5" font-family="Helvetica,sans-Serif" font-size="10.00" fill="#000000">GPU</text>
</a>
</g>
</g>
<!-- dir_396d171119822f66a36fe1ebf998d1a3&#45;&gt;dir_f511f1e9c03c071966ae594f00bbc5e0 -->
<g id="edge17" class="edge">
<title>dir_396d171119822f66a36fe1ebf998d1a3&#45;&gt;dir_f511f1e9c03c071966ae594f00bbc5e0</title>
<path fill="none" stroke="#000000" d="M186.1939,-444.4421C216.0732,-437.2692 264.2916,-422.4491 298,-396 319.5029,-379.1278 336.6734,-352.943 347.6238,-333.1587"/>
<polygon fill="#000000" stroke="#000000" points="350.7295,-334.7729 352.351,-324.3029 344.5542,-331.4766 350.7295,-334.7729"/>
<g id="a_edge17&#45;headlabel"><a xlink:href="dir_000365_000671.html" target="_top" xlink:title="1">
<text text-anchor="middle" x="351.5416" y="-336.781" font-family="Helvetica,sans-Serif" font-size="10.00" fill="#000000">1</text>
</a>
</g>
</g>
<!-- dir_2171f7ec022c5423887b07c69b2f5b48 -->
<g id="node12" class="node">
<title>dir_2171f7ec022c5423887b07c69b2f5b48</title>
<g id="a_node12"><a xlink:href="dir_2171f7ec022c5423887b07c69b2f5b48.html" target="_top" xlink:title="DataFormats">
<polygon fill="none" stroke="#ff0000" points="401,-180 321,-180 321,-144 401,-144 401,-180"/>
<text text-anchor="middle" x="361" y="-159.5" font-family="Helvetica,sans-Serif" font-size="10.00" fill="#000000">DataFormats</text>
</a>
</g>
</g>
<!-- dir_396d171119822f66a36fe1ebf998d1a3&#45;&gt;dir_2171f7ec022c5423887b07c69b2f5b48 -->
<g id="edge18" class="edge">
<title>dir_396d171119822f66a36fe1ebf998d1a3&#45;&gt;dir_2171f7ec022c5423887b07c69b2f5b48</title>
<path fill="none" stroke="#000000" d="M168.1136,-431.9456C189.0876,-391.2445 243.6311,-290.1081 304,-216 312.273,-205.8441 322.3665,-195.704 331.7481,-186.9988"/>
<polygon fill="#000000" stroke="#000000" points="334.3488,-189.3652 339.4056,-180.055 329.6466,-184.1797 334.3488,-189.3652"/>
<g id="a_edge18&#45;headlabel"><a xlink:href="dir_000365_000076.html" target="_top" xlink:title="22">
<text text-anchor="middle" x="333.5932" y="-191.3831" font-family="Helvetica,sans-Serif" font-size="10.00" fill="#000000">22</text>
</a>
</g>
</g>
<!-- dir_f9c1a6d4eb662f0614520771b81d0fc2 -->
<g id="node3" class="node">
<title>dir_f9c1a6d4eb662f0614520771b81d0fc2</title>
<g id="a_node3"><a xlink:href="dir_f9c1a6d4eb662f0614520771b81d0fc2.html" target="_top" xlink:title="run">
<polygon fill="#ffffff" stroke="#000000" points="150,-540 96,-540 96,-504 150,-504 150,-540"/>
<text text-anchor="middle" x="123" y="-519.5" font-family="Helvetica,sans-Serif" font-size="10.00" fill="#000000">run</text>
</a>
</g>
</g>
<!-- dir_f9c1a6d4eb662f0614520771b81d0fc2&#45;&gt;dir_396d171119822f66a36fe1ebf998d1a3 -->
<g id="edge2" class="edge">
<title>dir_f9c1a6d4eb662f0614520771b81d0fc2&#45;&gt;dir_396d171119822f66a36fe1ebf998d1a3</title>
<path fill="none" stroke="#000000" d="M132.0843,-503.8314C136.0615,-495.8771 140.8155,-486.369 145.2139,-477.5723"/>
<polygon fill="#000000" stroke="#000000" points="148.4517,-478.9228 149.7934,-468.4133 142.1907,-475.7923 148.4517,-478.9228"/>
<g id="a_edge2&#45;headlabel"><a xlink:href="dir_000604_000365.html" target="_top" xlink:title="5">
<text text-anchor="middle" x="149.3837" y="-480.9077" font-family="Helvetica,sans-Serif" font-size="10.00" fill="#000000">5</text>
</a>
</g>
</g>
<!-- dir_f9c1a6d4eb662f0614520771b81d0fc2&#45;&gt;dir_677b030cc750909e4cd27413873678d8 -->
<g id="edge1" class="edge">
<title>dir_f9c1a6d4eb662f0614520771b81d0fc2&#45;&gt;dir_677b030cc750909e4cd27413873678d8</title>
<path fill="none" stroke="#000000" d="M150.193,-507.4685C153.1207,-506.187 156.0924,-504.9994 159,-504 235.7421,-477.6231 260.8553,-493.175 338,-468 338.7178,-467.7658 339.4398,-467.5219 340.1646,-467.2695"/>
<polygon fill="#000000" stroke="#000000" points="341.5659,-470.4801 349.6243,-463.6017 339.0353,-463.9535 341.5659,-470.4801"/>
<g id="a_edge1&#45;headlabel"><a xlink:href="dir_000604_000050.html" target="_top" xlink:title="1">
<text text-anchor="middle" x="339.2408" y="-471.9268" font-family="Helvetica,sans-Serif" font-size="10.00" fill="#000000">1</text>
</a>
</g>
</g>
<!-- dir_f9c1a6d4eb662f0614520771b81d0fc2&#45;&gt;dir_2171f7ec022c5423887b07c69b2f5b48 -->
<g id="edge3" class="edge">
<title>dir_f9c1a6d4eb662f0614520771b81d0fc2&#45;&gt;dir_2171f7ec022c5423887b07c69b2f5b48</title>
<path fill="none" stroke="#000000" d="M150.1154,-507.227C153.0583,-505.9925 156.0546,-504.882 159,-504 288.9141,-465.0972 341.0335,-529.3043 462,-468 510.8058,-443.2659 546,-432.7154 546,-378 546,-378 546,-378 546,-306 546,-260.8741 532.5888,-246.1354 499,-216 474.3328,-193.8689 439.55,-180.3375 411.0767,-172.3547"/>
<polygon fill="#000000" stroke="#000000" points="411.8588,-168.9411 401.2955,-169.7575 410.0623,-175.7067 411.8588,-168.9411"/>
<g id="a_edge3&#45;headlabel"><a xlink:href="dir_000604_000076.html" target="_top" xlink:title="1">
<text text-anchor="middle" x="416.0617" y="-164.6194" font-family="Helvetica,sans-Serif" font-size="10.00" fill="#000000">1</text>
</a>
</g>
</g>
<!-- dir_0c8c50542de1d83a040084fab225b0f7 -->
<g id="node4" class="node">
<title>dir_0c8c50542de1d83a040084fab225b0f7</title>
<g id="a_node4"><a xlink:href="dir_0c8c50542de1d83a040084fab225b0f7.html" target="_top" xlink:title="src">
<polygon fill="#ffffff" stroke="#000000" points="78,-540 24,-540 24,-504 78,-504 78,-540"/>
<text text-anchor="middle" x="51" y="-519.5" font-family="Helvetica,sans-Serif" font-size="10.00" fill="#000000">src</text>
</a>
</g>
</g>
<!-- dir_0c8c50542de1d83a040084fab225b0f7&#45;&gt;dir_396d171119822f66a36fe1ebf998d1a3 -->
<g id="edge30" class="edge">
<title>dir_0c8c50542de1d83a040084fab225b0f7&#45;&gt;dir_396d171119822f66a36fe1ebf998d1a3</title>
<path fill="none" stroke="#000000" d="M78.253,-503.8314C91.9389,-494.7074 108.6915,-483.539 123.3827,-473.7449"/>
<polygon fill="#000000" stroke="#000000" points="125.3767,-476.6221 131.7558,-468.1628 121.4938,-470.7977 125.3767,-476.6221"/>
<g id="a_edge30&#45;headlabel"><a xlink:href="dir_000478_000365.html" target="_top" xlink:title="20">
<text text-anchor="middle" x="123.9608" y="-478.4784" font-family="Helvetica,sans-Serif" font-size="10.00" fill="#000000">20</text>
</a>
</g>
</g>
<!-- dir_0c8c50542de1d83a040084fab225b0f7&#45;&gt;dir_677b030cc750909e4cd27413873678d8 -->
<g id="edge29" class="edge">
<title>dir_0c8c50542de1d83a040084fab225b0f7&#45;&gt;dir_677b030cc750909e4cd27413873678d8</title>
<path fill="none" stroke="#000000" d="M78.1378,-507.3002C81.0763,-506.0515 84.0655,-504.9176 87,-504 194.5616,-470.3674 229.9262,-499.9485 338,-468 338.7241,-467.786 339.4519,-467.5607 340.182,-467.3254"/>
<polygon fill="#000000" stroke="#000000" points="341.5264,-470.5599 349.6869,-463.8029 339.0938,-463.9961 341.5264,-470.5599"/>
<g id="a_edge29&#45;headlabel"><a xlink:href="dir_000478_000050.html" target="_top" xlink:title="21">
<text text-anchor="middle" x="339.1424" y="-471.9713" font-family="Helvetica,sans-Serif" font-size="10.00" fill="#000000">21</text>
</a>
</g>
</g>
<!-- dir_0c8c50542de1d83a040084fab225b0f7&#45;&gt;dir_f511f1e9c03c071966ae594f00bbc5e0 -->
<g id="edge31" class="edge">
<title>dir_0c8c50542de1d83a040084fab225b0f7&#45;&gt;dir_f511f1e9c03c071966ae594f00bbc5e0</title>
<path fill="none" stroke="#000000" d="M78.108,-507.2019C81.0523,-505.9723 84.051,-504.8698 87,-504 156.9074,-483.3809 364.3733,-522.2922 413,-468 447.7559,-429.1948 409.9452,-366.9712 383.0567,-332.0126"/>
<polygon fill="#000000" stroke="#000000" points="385.792,-329.8289 376.8434,-324.1566 380.3016,-334.1712 385.792,-329.8289"/>
<g id="a_edge31&#45;headlabel"><a xlink:href="dir_000478_000671.html" target="_top" xlink:title="7">
<text text-anchor="middle" x="390.2487" y="-328.387" font-family="Helvetica,sans-Serif" font-size="10.00" fill="#000000">7</text>
</a>
</g>
</g>
<!-- dir_bcbb2cf9a3d3d83e5515c82071a07177 -->
<g id="node10" class="node">
<title>dir_bcbb2cf9a3d3d83e5515c82071a07177</title>
<g id="a_node10"><a xlink:href="dir_bcbb2cf9a3d3d83e5515c82071a07177.html" target="_top" xlink:title="Framework">
<polygon fill="none" stroke="#ff0000" points="204.5,-36 133.5,-36 133.5,0 204.5,0 204.5,-36"/>
<text text-anchor="middle" x="169" y="-15.5" font-family="Helvetica,sans-Serif" font-size="10.00" fill="#000000">Framework</text>
</a>
</g>
</g>
<!-- dir_0c8c50542de1d83a040084fab225b0f7&#45;&gt;dir_bcbb2cf9a3d3d83e5515c82071a07177 -->
<g id="edge32" class="edge">
<title>dir_0c8c50542de1d83a040084fab225b0f7&#45;&gt;dir_bcbb2cf9a3d3d83e5515c82071a07177</title>
<path fill="none" stroke="#000000" d="M41.0325,-503.9772C27.2361,-477.2973 4,-425.3363 4,-378 4,-378 4,-378 4,-162 4,-98.1963 74.901,-56.1642 123.7494,-34.7771"/>
<polygon fill="#000000" stroke="#000000" points="125.3549,-37.8981 133.1975,-30.7746 122.6243,-31.4526 125.3549,-37.8981"/>
<g id="a_edge32&#45;headlabel"><a xlink:href="dir_000478_000013.html" target="_top" xlink:title="1">
<text text-anchor="middle" x="123.1525" y="-39.4145" font-family="Helvetica,sans-Serif" font-size="10.00" fill="#000000">1</text>
</a>
</g>
</g>
<!-- dir_26637d1bd82229bc9ed97f7e706be743 -->
<g id="node11" class="node">
<title>dir_26637d1bd82229bc9ed97f7e706be743</title>
<g id="a_node11"><a xlink:href="dir_26637d1bd82229bc9ed97f7e706be743.html" target="_top" xlink:title="Raw">
<polygon fill="none" stroke="#ff0000" points="490,-252 436,-252 436,-216 490,-216 490,-252"/>
<text text-anchor="middle" x="463" y="-231.5" font-family="Helvetica,sans-Serif" font-size="10.00" fill="#000000">Raw</text>
</a>
</g>
</g>
<!-- dir_0c8c50542de1d83a040084fab225b0f7&#45;&gt;dir_26637d1bd82229bc9ed97f7e706be743 -->
<g id="edge33" class="edge">
<title>dir_0c8c50542de1d83a040084fab225b0f7&#45;&gt;dir_26637d1bd82229bc9ed97f7e706be743</title>
<path fill="none" stroke="#000000" d="M78.1023,-507.1828C81.0477,-505.9569 84.0483,-504.8605 87,-504 161.2147,-482.3648 377.6903,-522.0068 433,-468 488.5579,-413.7508 478.2793,-311.5137 469.2075,-262.1201"/>
<polygon fill="#000000" stroke="#000000" points="472.6102,-261.2833 467.2565,-252.1406 465.7403,-262.6264 472.6102,-261.2833"/>
<g id="a_edge33&#45;headlabel"><a xlink:href="dir_000478_000562.html" target="_top" xlink:title="1">
<text text-anchor="middle" x="476.0864" y="-261.7664" font-family="Helvetica,sans-Serif" font-size="10.00" fill="#000000">1</text>
</a>
</g>
</g>
<!-- dir_0c8c50542de1d83a040084fab225b0f7&#45;&gt;dir_2171f7ec022c5423887b07c69b2f5b48 -->
<g id="edge34" class="edge">
<title>dir_0c8c50542de1d83a040084fab225b0f7&#45;&gt;dir_2171f7ec022c5423887b07c69b2f5b48</title>
<path fill="none" stroke="#000000" d="M78.0953,-507.1586C81.0421,-505.9374 84.0449,-504.8487 87,-504 247.9272,-457.7809 305.6356,-527.8661 462,-468 524.9256,-443.9081 584,-445.3799 584,-378 584,-378 584,-378 584,-306 584,-259.1222 565.842,-244.9862 529,-216 494.9232,-189.1894 447.1772,-175.5185 411.2913,-168.6533"/>
<polygon fill="#000000" stroke="#000000" points="411.4964,-165.1343 401.0354,-166.8131 410.2601,-172.0242 411.4964,-165.1343"/>
<g id="a_edge34&#45;headlabel"><a xlink:href="dir_000478_000076.html" target="_top" xlink:title="13">
<text text-anchor="middle" x="415.5359" y="-160.4744" font-family="Helvetica,sans-Serif" font-size="10.00" fill="#000000">13</text>
</a>
</g>
</g>
<!-- dir_064d7f478c030df51e47c94b08ab25b1 -->
<g id="node5" class="node">
<title>dir_064d7f478c030df51e47c94b08ab25b1</title>
<g id="a_node5"><a xlink:href="dir_064d7f478c030df51e47c94b08ab25b1.html" target="_top" xlink:title="test">
<polygon fill="#ffffff" stroke="#000000" points="222,-540 168,-540 168,-504 222,-504 222,-540"/>
<text text-anchor="middle" x="195" y="-519.5" font-family="Helvetica,sans-Serif" font-size="10.00" fill="#000000">test</text>
</a>
</g>
</g>
<!-- dir_064d7f478c030df51e47c94b08ab25b1&#45;&gt;dir_396d171119822f66a36fe1ebf998d1a3 -->
<g id="edge20" class="edge">
<title>dir_064d7f478c030df51e47c94b08ab25b1&#45;&gt;dir_396d171119822f66a36fe1ebf998d1a3</title>
<path fill="none" stroke="#000000" d="M185.9157,-503.8314C181.9385,-495.8771 177.1845,-486.369 172.7861,-477.5723"/>
<polygon fill="#000000" stroke="#000000" points="175.8093,-475.7923 168.2066,-468.4133 169.5483,-478.9228 175.8093,-475.7923"/>
<g id="a_edge20&#45;headlabel"><a xlink:href="dir_000605_000365.html" target="_top" xlink:title="6">
<text text-anchor="middle" x="179.9563" y="-475.2377" font-family="Helvetica,sans-Serif" font-size="10.00" fill="#000000">6</text>
</a>
</g>
</g>
<!-- dir_064d7f478c030df51e47c94b08ab25b1&#45;&gt;dir_677b030cc750909e4cd27413873678d8 -->
<g id="edge19" class="edge">
<title>dir_064d7f478c030df51e47c94b08ab25b1&#45;&gt;dir_677b030cc750909e4cd27413873678d8</title>
<path fill="none" stroke="#000000" d="M222.3345,-507.8413C225.2346,-506.4871 228.1611,-505.1806 231,-504 277.3287,-484.734 291.376,-486.5401 338,-468 338.8489,-467.6625 339.7058,-467.316 340.568,-466.9622"/>
<polygon fill="#000000" stroke="#000000" points="342.0753,-470.1242 349.8875,-462.9674 339.3174,-463.6904 342.0753,-470.1242"/>
<g id="a_edge19&#45;headlabel"><a xlink:href="dir_000605_000050.html" target="_top" xlink:title="7">
<text text-anchor="middle" x="339.8901" y="-471.65" font-family="Helvetica,sans-Serif" font-size="10.00" fill="#000000">7</text>
</a>
</g>
</g>
<!-- dir_064d7f478c030df51e47c94b08ab25b1&#45;&gt;dir_f511f1e9c03c071966ae594f00bbc5e0 -->
<g id="edge21" class="edge">
<title>dir_064d7f478c030df51e47c94b08ab25b1&#45;&gt;dir_f511f1e9c03c071966ae594f00bbc5e0</title>
<path fill="none" stroke="#000000" d="M222.1604,-507.3708C225.0944,-506.1083 228.0765,-504.9519 231,-504 277.0627,-489.0019 414.7017,-504.9747 446,-468 477.0122,-431.3633 469.1141,-402.0683 446,-360 435.6047,-341.0802 415.4627,-327.8489 397.3947,-319.2202"/>
<polygon fill="#000000" stroke="#000000" points="398.7567,-315.9954 388.1979,-315.1217 395.9073,-322.3892 398.7567,-315.9954"/>
<g id="a_edge21&#45;headlabel"><a xlink:href="dir_000605_000671.html" target="_top" xlink:title="4">
<text text-anchor="middle" x="403.1957" y="-312.3651" font-family="Helvetica,sans-Serif" font-size="10.00" fill="#000000">4</text>
</a>
</g>
</g>
<!-- dir_064d7f478c030df51e47c94b08ab25b1&#45;&gt;dir_2171f7ec022c5423887b07c69b2f5b48 -->
<g id="edge22" class="edge">
<title>dir_064d7f478c030df51e47c94b08ab25b1&#45;&gt;dir_2171f7ec022c5423887b07c69b2f5b48</title>
<path fill="none" stroke="#000000" d="M222.0972,-507.1649C225.0436,-505.9425 228.0458,-504.8518 231,-504 309.7394,-481.2973 535.5345,-521.0412 598,-468 629.5562,-441.2048 622,-419.3978 622,-378 622,-378 622,-378 622,-306 622,-264.6022 627.8031,-244.7324 598,-216 571.7217,-190.6658 472.7351,-174.9123 411.3053,-167.3597"/>
<polygon fill="#000000" stroke="#000000" points="411.3875,-163.8447 401.0423,-166.131 410.5554,-170.795 411.3875,-163.8447"/>
<g id="a_edge22&#45;headlabel"><a xlink:href="dir_000605_000076.html" target="_top" xlink:title="10">
<text text-anchor="middle" x="415.2941" y="-158.9528" font-family="Helvetica,sans-Serif" font-size="10.00" fill="#000000">10</text>
</a>
</g>
</g>
<!-- dir_677b030cc750909e4cd27413873678d8&#45;&gt;dir_4ab6b4cc6a7edbff49100e9123df213f -->
<g id="edge4" class="edge">
<title>dir_677b030cc750909e4cd27413873678d8&#45;&gt;dir_4ab6b4cc6a7edbff49100e9123df213f</title>
<path fill="none" stroke="#000000" d="M358.3832,-431.9676C352.1814,-426.4645 345.0504,-420.6462 338,-416 325.831,-407.9806 311.7123,-400.6437 298.8052,-394.6009"/>
<polygon fill="#000000" stroke="#000000" points="300.2174,-391.3982 289.6661,-390.4382 297.3157,-397.7685 300.2174,-391.3982"/>
<g id="a_edge4&#45;headlabel"><a xlink:href="dir_000050_000027.html" target="_top" xlink:title="13">
<text text-anchor="middle" x="304.6655" y="-387.8043" font-family="Helvetica,sans-Serif" font-size="10.00" fill="#000000">13</text>
</a>
</g>
</g>
<!-- dir_677b030cc750909e4cd27413873678d8&#45;&gt;dir_bcbb2cf9a3d3d83e5515c82071a07177 -->
<g id="edge5" class="edge">
<title>dir_677b030cc750909e4cd27413873678d8&#45;&gt;dir_bcbb2cf9a3d3d83e5515c82071a07177</title>
<path fill="none" stroke="#000000" d="M360.2497,-431.7891C353.8475,-425.8684 346.1203,-419.8404 338,-416 289.5179,-393.0712 256.3783,-434.4592 219,-396 124.6505,-298.922 149.1336,-115.7264 162.8019,-45.95"/>
<polygon fill="#000000" stroke="#000000" points="166.2361,-46.6254 164.8038,-36.1278 159.3771,-45.2274 166.2361,-46.6254"/>
<g id="a_edge5&#45;headlabel"><a xlink:href="dir_000050_000013.html" target="_top" xlink:title="1">
<text text-anchor="middle" x="168.3004" y="-48.2146" font-family="Helvetica,sans-Serif" font-size="10.00" fill="#000000">1</text>
</a>
</g>
</g>
<!-- dir_677b030cc750909e4cd27413873678d8&#45;&gt;dir_26637d1bd82229bc9ed97f7e706be743 -->
<g id="edge6" class="edge">
<title>dir_677b030cc750909e4cd27413873678d8&#45;&gt;dir_26637d1bd82229bc9ed97f7e706be743</title>
<path fill="none" stroke="#000000" d="M384.994,-431.7469C395.6119,-407.3361 414.7962,-362.6469 430,-324 438.1869,-303.1895 446.8714,-279.4289 453.2754,-261.549"/>
<polygon fill="#000000" stroke="#000000" points="456.6102,-262.6176 456.6711,-252.0229 450.0166,-260.2672 456.6102,-262.6176"/>
<g id="a_edge6&#45;headlabel"><a xlink:href="dir_000050_000562.html" target="_top" xlink:title="2">
<text text-anchor="middle" x="458.0778" y="-264.4568" font-family="Helvetica,sans-Serif" font-size="10.00" fill="#000000">2</text>
</a>
</g>
</g>
<!-- dir_677b030cc750909e4cd27413873678d8&#45;&gt;dir_2171f7ec022c5423887b07c69b2f5b48 -->
<g id="edge7" class="edge">
<title>dir_677b030cc750909e4cd27413873678d8&#45;&gt;dir_2171f7ec022c5423887b07c69b2f5b48</title>
<path fill="none" stroke="#000000" d="M380.8244,-431.745C385.7254,-407.332 393.9524,-362.6405 397,-324 400.8013,-275.8032 397.8546,-262.3188 384,-216 381.3555,-207.1588 377.7036,-197.815 374.0881,-189.4307"/>
<polygon fill="#000000" stroke="#000000" points="377.2004,-187.8166 369.9231,-180.1166 370.8103,-190.6742 377.2004,-187.8166"/>
<g id="a_edge7&#45;headlabel"><a xlink:href="dir_000050_000076.html" target="_top" xlink:title="21">
<text text-anchor="middle" x="381.2597" y="-187.439" font-family="Helvetica,sans-Serif" font-size="10.00" fill="#000000">21</text>
</a>
</g>
</g>
<!-- dir_4ab6b4cc6a7edbff49100e9123df213f&#45;&gt;dir_f511f1e9c03c071966ae594f00bbc5e0 -->
<g id="edge8" class="edge">
<title>dir_4ab6b4cc6a7edbff49100e9123df213f&#45;&gt;dir_f511f1e9c03c071966ae594f00bbc5e0</title>
<path fill="none" stroke="#000000" d="M278.7865,-359.8314C292.0484,-349.7785 309.7286,-337.2439 325.3495,-326.7999"/>
<polygon fill="#000000" stroke="#000000" points="327.3548,-329.6701 333.7748,-321.2418 323.5001,-323.8269 327.3548,-329.6701"/>
<g id="a_edge8&#45;headlabel"><a xlink:href="dir_000027_000671.html" target="_top" xlink:title="3">
<text text-anchor="middle" x="325.9177" y="-331.5194" font-family="Helvetica,sans-Serif" font-size="10.00" fill="#000000">3</text>
</a>
</g>
</g>
<!-- dir_4ab6b4cc6a7edbff49100e9123df213f&#45;&gt;dir_bcbb2cf9a3d3d83e5515c82071a07177 -->
<g id="edge9" class="edge">
<title>dir_4ab6b4cc6a7edbff49100e9123df213f&#45;&gt;dir_bcbb2cf9a3d3d83e5515c82071a07177</title>
<path fill="none" stroke="#000000" d="M251.2264,-359.6526C232.0216,-300.9129 185.8738,-117.2013 172.2299,-46.3047"/>
<polygon fill="#000000" stroke="#000000" points="175.6432,-45.5133 170.3937,-36.3104 168.7584,-46.7783 175.6432,-45.5133"/>
<g id="a_edge9&#45;headlabel"><a xlink:href="dir_000027_000013.html" target="_top" xlink:title="2">
<text text-anchor="middle" x="179.0852" y="-46.0358" font-family="Helvetica,sans-Serif" font-size="10.00" fill="#000000">2</text>
</a>
</g>
</g>
<!-- dir_4ab6b4cc6a7edbff49100e9123df213f&#45;&gt;dir_2171f7ec022c5423887b07c69b2f5b48 -->
<g id="edge10" class="edge">
<title>dir_4ab6b4cc6a7edbff49100e9123df213f&#45;&gt;dir_2171f7ec022c5423887b07c69b2f5b48</title>
<path fill="none" stroke="#000000" d="M256.819,-359.9939C259.5596,-341.5209 268.2612,-312.15 279,-288 294.9882,-252.0448 318.5203,-213.2333 336.5355,-188.3302"/>
<polygon fill="#000000" stroke="#000000" points="339.4799,-190.2368 342.6561,-180.1292 333.87,-186.0499 339.4799,-190.2368"/>
<g id="a_edge10&#45;headlabel"><a xlink:href="dir_000027_000076.html" target="_top" xlink:title="2">
<text text-anchor="middle" x="339.6053" y="-192.3157" font-family="Helvetica,sans-Serif" font-size="10.00" fill="#000000">2</text>
</a>
</g>
</g>
<!-- dir_b05a5fa85f84bfc9013183c9d87f9a36&#45;&gt;dir_4ab6b4cc6a7edbff49100e9123df213f -->
<g id="edge11" class="edge">
<title>dir_b05a5fa85f84bfc9013183c9d87f9a36&#45;&gt;dir_4ab6b4cc6a7edbff49100e9123df213f</title>
<path fill="none" stroke="#000000" d="M234.6258,-108.0089C239.0207,-156.6912 251.1629,-291.1886 256.4663,-349.9345"/>
<polygon fill="#000000" stroke="#000000" points="252.9885,-350.3395 257.3736,-359.9843 259.9602,-349.7101 252.9885,-350.3395"/>
<g id="a_edge11&#45;headlabel"><a xlink:href="dir_000558_000027.html" target="_top" xlink:title="2">
<text text-anchor="middle" x="249.8377" y="-344.5147" font-family="Helvetica,sans-Serif" font-size="10.00" fill="#000000">2</text>
</a>
</g>
</g>
<!-- dir_b05a5fa85f84bfc9013183c9d87f9a36&#45;&gt;dir_bcbb2cf9a3d3d83e5515c82071a07177 -->
<g id="edge12" class="edge">
<title>dir_b05a5fa85f84bfc9013183c9d87f9a36&#45;&gt;dir_bcbb2cf9a3d3d83e5515c82071a07177</title>
<path fill="none" stroke="#000000" d="M216.8501,-71.8314C209.3283,-63.3694 200.2435,-53.1489 192.0196,-43.8971"/>
<polygon fill="#000000" stroke="#000000" points="194.627,-41.5621 185.3673,-36.4133 189.3951,-46.2127 194.627,-41.5621"/>
<g id="a_edge12&#45;headlabel"><a xlink:href="dir_000558_000013.html" target="_top" xlink:title="33">
<text text-anchor="middle" x="199.1372" y="-39.8624" font-family="Helvetica,sans-Serif" font-size="10.00" fill="#000000">33</text>
</a>
</g>
</g>
<!-- dir_b05a5fa85f84bfc9013183c9d87f9a36&#45;&gt;dir_2171f7ec022c5423887b07c69b2f5b48 -->
<g id="edge13" class="edge">
<title>dir_b05a5fa85f84bfc9013183c9d87f9a36&#45;&gt;dir_2171f7ec022c5423887b07c69b2f5b48</title>
<path fill="none" stroke="#000000" d="M260.9006,-102.7168C280.0417,-112.6556 305.4388,-126.7408 325.9195,-138.6882"/>
<polygon fill="#000000" stroke="#000000" points="324.2597,-141.7726 334.6526,-143.8314 327.812,-135.7408 324.2597,-141.7726"/>
<g id="a_edge13&#45;headlabel"><a xlink:href="dir_000558_000076.html" target="_top" xlink:title="48">
<text text-anchor="middle" x="319.7215" y="-139.895" font-family="Helvetica,sans-Serif" font-size="10.00" fill="#000000">48</text>
</a>
</g>
</g>
<!-- dir_f511f1e9c03c071966ae594f00bbc5e0&#45;&gt;dir_4ab6b4cc6a7edbff49100e9123df213f -->
<g id="edge23" class="edge">
<title>dir_f511f1e9c03c071966ae594f00bbc5e0&#45;&gt;dir_4ab6b4cc6a7edbff49100e9123df213f</title>
<path fill="none" stroke="#000000" d="M341.4087,-324.0206C329.087,-333.3687 312.8983,-344.893 298.0896,-354.8895"/>
<polygon fill="#000000" stroke="#000000" points="295.9478,-352.1109 289.5696,-360.5708 299.8313,-357.9349 295.9478,-352.1109"/>
<g id="a_edge23&#45;headlabel"><a xlink:href="dir_000671_000027.html" target="_top" xlink:title="2">
<text text-anchor="middle" x="297.3633" y="-345.2545" font-family="Helvetica,sans-Serif" font-size="10.00" fill="#000000">2</text>
</a>
</g>
</g>
<!-- dir_f511f1e9c03c071966ae594f00bbc5e0&#45;&gt;dir_b05a5fa85f84bfc9013183c9d87f9a36 -->
<g id="edge24" class="edge">
<title>dir_f511f1e9c03c071966ae594f00bbc5e0&#45;&gt;dir_b05a5fa85f84bfc9013183c9d87f9a36</title>
<path fill="none" stroke="#000000" d="M350.307,-287.9555C327.8129,-249.9967 275.4964,-161.7127 248.9957,-116.9928"/>
<polygon fill="#000000" stroke="#000000" points="251.8617,-114.9637 243.7526,-108.1451 245.8397,-118.5323 251.8617,-114.9637"/>
<g id="a_edge24&#45;headlabel"><a xlink:href="dir_000671_000558.html" target="_top" xlink:title="4">
<text text-anchor="middle" x="256.1368" y="-114.1086" font-family="Helvetica,sans-Serif" font-size="10.00" fill="#000000">4</text>
</a>
</g>
</g>
<!-- dir_f511f1e9c03c071966ae594f00bbc5e0&#45;&gt;dir_26637d1bd82229bc9ed97f7e706be743 -->
<g id="edge25" class="edge">
<title>dir_f511f1e9c03c071966ae594f00bbc5e0&#45;&gt;dir_26637d1bd82229bc9ed97f7e706be743</title>
<path fill="none" stroke="#000000" d="M380.7865,-287.8314C394.0484,-277.7785 411.7286,-265.2439 427.3495,-254.7999"/>
<polygon fill="#000000" stroke="#000000" points="429.3548,-257.6701 435.7748,-249.2418 425.5001,-251.8269 429.3548,-257.6701"/>
<g id="a_edge25&#45;headlabel"><a xlink:href="dir_000671_000562.html" target="_top" xlink:title="1">
<text text-anchor="middle" x="427.9177" y="-259.5194" font-family="Helvetica,sans-Serif" font-size="10.00" fill="#000000">1</text>
</a>
</g>
</g>
<!-- dir_f511f1e9c03c071966ae594f00bbc5e0&#45;&gt;dir_2171f7ec022c5423887b07c69b2f5b48 -->
<g id="edge26" class="edge">
<title>dir_f511f1e9c03c071966ae594f00bbc5e0&#45;&gt;dir_2171f7ec022c5423887b07c69b2f5b48</title>
<path fill="none" stroke="#000000" d="M356.3268,-287.7623C353.867,-263.201 353.5923,-219.2474 355.5026,-190.3541"/>
<polygon fill="#000000" stroke="#000000" points="359.0152,-190.3416 356.3417,-180.0896 352.0385,-189.7712 359.0152,-190.3416"/>
<g id="a_edge26&#45;headlabel"><a xlink:href="dir_000671_000076.html" target="_top" xlink:title="15">
<text text-anchor="middle" x="361.5522" y="-191.6556" font-family="Helvetica,sans-Serif" font-size="10.00" fill="#000000">15</text>
</a>
</g>
</g>
<!-- dir_bcbb2cf9a3d3d83e5515c82071a07177&#45;&gt;dir_4ab6b4cc6a7edbff49100e9123df213f -->
<g id="edge27" class="edge">
<title>dir_bcbb2cf9a3d3d83e5515c82071a07177&#45;&gt;dir_4ab6b4cc6a7edbff49100e9123df213f</title>
<path fill="none" stroke="#000000" d="M176.7615,-36.3104C195.9551,-94.9977 242.104,-278.7068 255.7615,-349.6506"/>
<polygon fill="#000000" stroke="#000000" points="252.3497,-350.4501 257.5999,-359.6526 259.2344,-349.1846 252.3497,-350.4501"/>
<g id="a_edge27&#45;headlabel"><a xlink:href="dir_000013_000027.html" target="_top" xlink:title="8">
<text text-anchor="middle" x="248.9075" y="-344.928" font-family="Helvetica,sans-Serif" font-size="10.00" fill="#000000">8</text>
</a>
</g>
</g>
<!-- dir_bcbb2cf9a3d3d83e5515c82071a07177&#45;&gt;dir_2171f7ec022c5423887b07c69b2f5b48 -->
<g id="edge28" class="edge">
<title>dir_bcbb2cf9a3d3d83e5515c82071a07177&#45;&gt;dir_2171f7ec022c5423887b07c69b2f5b48</title>
<path fill="none" stroke="#000000" d="M204.8725,-30.704C227.1397,-40.5883 255.4401,-55.3858 278,-72 303.7026,-90.9286 329.3688,-116.7584 345.4711,-135.8925"/>
<polygon fill="#000000" stroke="#000000" points="342.9462,-138.3359 351.9605,-143.903 348.3854,-133.9296 342.9462,-138.3359"/>
<g id="a_edge28&#45;headlabel"><a xlink:href="dir_000013_000076.html" target="_top" xlink:title="82">
<text text-anchor="middle" x="338.4773" y="-134.8301" font-family="Helvetica,sans-Serif" font-size="10.00" fill="#000000">82</text>
</a>
</g>
</g>
<!-- dir_26637d1bd82229bc9ed97f7e706be743&#45;&gt;dir_4ab6b4cc6a7edbff49100e9123df213f -->
<g id="edge35" class="edge">
<title>dir_26637d1bd82229bc9ed97f7e706be743&#45;&gt;dir_4ab6b4cc6a7edbff49100e9123df213f</title>
<path fill="none" stroke="#000000" d="M435.8411,-239.81C406.2521,-247.1709 358.6515,-262.1238 325,-288 302.9883,-304.9259 284.9385,-331.1043 273.3126,-350.8726"/>
<polygon fill="#000000" stroke="#000000" points="270.1822,-349.2971 268.2821,-359.7202 276.2674,-352.757 270.1822,-349.2971"/>
<g id="a_edge35&#45;headlabel"><a xlink:href="dir_000562_000027.html" target="_top" xlink:title="9">
<text text-anchor="middle" x="269.4907" y="-342.2689" font-family="Helvetica,sans-Serif" font-size="10.00" fill="#000000">9</text>
</a>
</g>
</g>
<!-- dir_26637d1bd82229bc9ed97f7e706be743&#45;&gt;dir_f511f1e9c03c071966ae594f00bbc5e0 -->
<g id="edge36" class="edge">
<title>dir_26637d1bd82229bc9ed97f7e706be743&#45;&gt;dir_f511f1e9c03c071966ae594f00bbc5e0</title>
<path fill="none" stroke="#000000" d="M443.3743,-252.0467C430.1139,-262.1055 412.3858,-274.6776 396.7183,-285.1548"/>
<polygon fill="#000000" stroke="#000000" points="394.6868,-282.3019 388.2676,-290.7307 398.542,-288.1447 394.6868,-282.3019"/>
<g id="a_edge36&#45;headlabel"><a xlink:href="dir_000562_000671.html" target="_top" xlink:title="2">
<text text-anchor="middle" x="396.1235" y="-275.4524" font-family="Helvetica,sans-Serif" font-size="10.00" fill="#000000">2</text>
</a>
</g>
</g>
<!-- dir_26637d1bd82229bc9ed97f7e706be743&#45;&gt;dir_bcbb2cf9a3d3d83e5515c82071a07177 -->
<g id="edge37" class="edge">
<title>dir_26637d1bd82229bc9ed97f7e706be743&#45;&gt;dir_bcbb2cf9a3d3d83e5515c82071a07177</title>
<path fill="none" stroke="#000000" d="M454.9215,-215.6997C445.8435,-196.4574 429.7597,-165.9809 410,-144 374.1067,-104.0721 360.1517,-97.6766 313,-72 281.5366,-54.8665 243.4956,-40.8587 214.4159,-31.4069"/>
<polygon fill="#000000" stroke="#000000" points="215.1199,-27.9579 204.5293,-28.2561 212.9943,-34.6274 215.1199,-27.9579"/>
<g id="a_edge37&#45;headlabel"><a xlink:href="dir_000562_000013.html" target="_top" xlink:title="25">
<text text-anchor="middle" x="219.4069" y="-23.8441" font-family="Helvetica,sans-Serif" font-size="10.00" fill="#000000">25</text>
</a>
</g>
</g>
<!-- dir_26637d1bd82229bc9ed97f7e706be743&#45;&gt;dir_2171f7ec022c5423887b07c69b2f5b48 -->
<g id="edge38" class="edge">
<title>dir_26637d1bd82229bc9ed97f7e706be743&#45;&gt;dir_2171f7ec022c5423887b07c69b2f5b48</title>
<path fill="none" stroke="#000000" d="M437.2611,-215.8314C424.4563,-206.7927 408.8091,-195.7476 395.0281,-186.0198"/>
<polygon fill="#000000" stroke="#000000" points="396.9188,-183.0703 386.7307,-180.1628 392.882,-188.7891 396.9188,-183.0703"/>
<g id="a_edge38&#45;headlabel"><a xlink:href="dir_000562_000076.html" target="_top" xlink:title="15">
<text text-anchor="middle" x="401.4928" y="-180.3236" font-family="Helvetica,sans-Serif" font-size="10.00" fill="#000000">15</text>
</a>
</g>
</g>
<!-- dir_2171f7ec022c5423887b07c69b2f5b48&#45;&gt;dir_4ab6b4cc6a7edbff49100e9123df213f -->
<g id="edge39" class="edge">
<title>dir_2171f7ec022c5423887b07c69b2f5b48&#45;&gt;dir_4ab6b4cc6a7edbff49100e9123df213f</title>
<path fill="none" stroke="#000000" d="M355.0041,-180.1292C342.1743,-204.0416 314.8733,-247.8055 297,-288 287.9392,-308.3765 280.3286,-332.4699 273.8358,-350.598"/>
<polygon fill="#000000" stroke="#000000" points="270.5468,-349.401 270.3416,-359.9939 277.1078,-351.8411 270.5468,-349.401"/>
<g id="a_edge39&#45;headlabel"><a xlink:href="dir_000076_000027.html" target="_top" xlink:title="35">
<text text-anchor="middle" x="269.1385" y="-342.5422" font-family="Helvetica,sans-Serif" font-size="10.00" fill="#000000">35</text>
</a>
</g>
</g>
<!-- dir_2171f7ec022c5423887b07c69b2f5b48&#45;&gt;dir_b05a5fa85f84bfc9013183c9d87f9a36 -->
<g id="edge40" class="edge">
<title>dir_2171f7ec022c5423887b07c69b2f5b48&#45;&gt;dir_b05a5fa85f84bfc9013183c9d87f9a36</title>
<path fill="none" stroke="#000000" d="M322.7478,-143.8314C305.4783,-134.6221 285.2636,-123.3301 268.3529,-113.4706"/>
<polygon fill="#000000" stroke="#000000" points="269.7308,-110.2203 259.3376,-108.1628 266.1793,-116.2525 269.7308,-110.2203"/>
<g id="a_edge40&#45;headlabel"><a xlink:href="dir_000076_000558.html" target="_top" xlink:title="1">
<text text-anchor="middle" x="274.2689" y="-107.0973" font-family="Helvetica,sans-Serif" font-size="10.00" fill="#000000">1</text>
</a>
</g>
</g>
<!-- dir_2171f7ec022c5423887b07c69b2f5b48&#45;&gt;dir_f511f1e9c03c071966ae594f00bbc5e0 -->
<g id="edge41" class="edge">
<title>dir_2171f7ec022c5423887b07c69b2f5b48&#45;&gt;dir_f511f1e9c03c071966ae594f00bbc5e0</title>
<path fill="none" stroke="#000000" d="M365.6583,-180.0896C368.1269,-204.5727 368.4104,-248.5174 366.5089,-277.4713"/>
<polygon fill="#000000" stroke="#000000" points="362.9942,-277.5118 365.6732,-287.7623 369.9712,-278.0785 362.9942,-277.5118"/>
<g id="a_edge41&#45;headlabel"><a xlink:href="dir_000076_000671.html" target="_top" xlink:title="17">
<text text-anchor="middle" x="360.4551" y="-271.1992" font-family="Helvetica,sans-Serif" font-size="10.00" fill="#000000">17</text>
</a>
</g>
</g>
<!-- dir_2171f7ec022c5423887b07c69b2f5b48&#45;&gt;dir_bcbb2cf9a3d3d83e5515c82071a07177 -->
<g id="edge42" class="edge">
<title>dir_2171f7ec022c5423887b07c69b2f5b48&#45;&gt;dir_bcbb2cf9a3d3d83e5515c82071a07177</title>
<path fill="none" stroke="#000000" d="M338.6929,-143.903C318.9643,-124.5543 289.5061,-93.7297 260,-72 244.3287,-60.4589 225.8874,-49.7945 209.6523,-41.0446"/>
<polygon fill="#000000" stroke="#000000" points="210.8591,-37.7225 200.3859,-36.1219 207.575,-43.9043 210.8591,-37.7225"/>
<g id="a_edge42&#45;headlabel"><a xlink:href="dir_000076_000013.html" target="_top" xlink:title="10">
<text text-anchor="middle" x="215.3656" y="-34.4015" font-family="Helvetica,sans-Serif" font-size="10.00" fill="#000000">10</text>
</a>
</g>
</g>
</g>
</svg>
        <g id="navigator" transform="translate(0 0)" fill="#404254">
                <rect fill="#f2f5e9" fill-opacity="0.5" stroke="#606060" stroke-width=".5" x="0" y="0" width="60" height="60"/>
                <use id="zoomplus" xlink:href="#zoomPlus" x="17" y="9" onmousedown="handleZoom(evt,'in')"/>
                <use id="zoomminus" xlink:href="#zoomMin" x="42" y="9" onmousedown="handleZoom(evt,'out')"/>
                <use id="reset" xlink:href="#resetDef" x="30" y="36" onmousedown="handleReset()"/>
                <g id="arrowUp" xlink:href="#dirArrow" transform="translate(30 24)" onmousedown="handlePan(0,-1)">
                  <use xlink:href="#rim" fill="#404040">
                        <set attributeName="fill" to="#808080" begin="arrowUp.mouseover" end="arrowUp.mouseout"/>
                  </use>
                  <path fill="none" stroke="white" stroke-width="1.5" d="M0,-3.0v7 M-2.5,-0.5L0,-3.0L2.5,-0.5"/>
                </g>
                <g id="arrowRight" xlink:href="#dirArrow" transform="rotate(90) translate(36 -43)" onmousedown="handlePan(1,0)">
                  <use xlink:href="#rim" fill="#404040">
                        <set attributeName="fill" to="#808080" begin="arrowRight.mouseover" end="arrowRight.mouseout"/>
                  </use>
                  <path fill="none" stroke="white" stroke-width="1.5" d="M0,-3.0v7 M-2.5,-0.5L0,-3.0L2.5,-0.5"/>
                </g>
                <g id="arrowDown" xlink:href="#dirArrow" transform="rotate(180) translate(-30 -48)" onmousedown="handlePan(0,1)">
                  <use xlink:href="#rim" fill="#404040">
                        <set attributeName="fill" to="#808080" begin="arrowDown.mouseover" end="arrowDown.mouseout"/>
                  </use>
                  <path fill="none" stroke="white" stroke-width="1.5" d="M0,-3.0v7 M-2.5,-0.5L0,-3.0L2.5,-0.5"/>
                </g>
                <g id="arrowLeft" xlink:href="#dirArrow" transform="rotate(270) translate(-36 17)" onmousedown="handlePan(-1,0)">
                  <use xlink:href="#rim" fill="#404040">
                        <set attributeName="fill" to="#808080" begin="arrowLeft.mouseover" end="arrowLeft.mouseout"/>
                  </use>
                  <path fill="none" stroke="white" stroke-width="1.5" d="M0,-3.0v7 M-2.5,-0.5L0,-3.0L2.5,-0.5"/>
                </g>
        </g>
        <svg viewBox="0 0 15 15" width="100%" height="30px" preserveAspectRatio="xMaxYMin meet">
         <g id="arrow_out" transform="scale(0.3 0.3)">
          <a xlink:href="dir_a5de047958dd458e809773c6ffaa8478_dep_org.svg" target="_base">
           <rect id="button" ry="5" rx="5" y="6" x="6" height="38" width="38"
                fill="#f2f5e9" fill-opacity="0.5" stroke="#606060" stroke-width="1.0"/>
           <path id="arrow"
             d="M 11.500037,31.436501 C 11.940474,20.09759 22.043105,11.32322 32.158766,21.979434 L 37.068811,17.246167 C 37.068811,17.246167 37.088388,32 37.088388,32 L 22.160133,31.978069 C 22.160133,31.978069 26.997745,27.140456 26.997745,27.140456 C 18.528582,18.264221 13.291696,25.230495 11.500037,31.436501 z"
             style="fill:#404040;"/>
          </a>
         </g>
        </svg>
</svg>
