<?xml version="1.0" encoding="UTF-8" standalone="no"?>
<!DOCTYPE svg PUBLIC "-//W3C//DTD SVG 1.1//EN"
 "http://www.w3.org/Graphics/SVG/1.1/DTD/svg11.dtd">
<!-- Generated by graphviz version 2.40.1 (20161225.0304)
 -->
<!-- Title: Graphical Class Hierarchy Pages: 1 -->
<svg width="698pt" height="1198pt"
 viewBox="0.00 0.00 698.00 1197.50" xmlns="http://www.w3.org/2000/svg" xmlns:xlink="http://www.w3.org/1999/xlink">
<g id="graph0" class="graph" transform="scale(1 1) rotate(0) translate(4 1193.5)">
<title>Graphical Class Hierarchy</title>
<!-- Node1555 -->
<g id="node1" class="node">
<title>Node1555</title>
<polygon fill="none" stroke="#bfbfbf" points="0,-520 0,-539 68,-539 68,-520 0,-520"/>
<text text-anchor="middle" x="34" y="-527" font-family="Helvetica,sans-Serif" font-size="10.00" fill="#000000">false_type</text>
</g>
<!-- Node0 -->
<g id="node2" class="node">
<title>Node0</title>
<g id="a_node2"><a xlink:href="d3/de1/structo2_1_1framework_1_1has__root__dictionary.html" target="_top" xlink:title="o2::framework::has\l_root_dictionary\&lt; T\l::value_type \&gt;">
<polygon fill="none" stroke="#000000" points="146.5,-1119 146.5,-1160 259.5,-1160 259.5,-1119 146.5,-1119"/>
<text text-anchor="start" x="154.5" y="-1148" font-family="Helvetica,sans-Serif" font-size="10.00" fill="#000000">o2::framework::has</text>
<text text-anchor="start" x="154.5" y="-1137" font-family="Helvetica,sans-Serif" font-size="10.00" fill="#000000">_root_dictionary&lt; T</text>
<text text-anchor="middle" x="203" y="-1126" font-family="Helvetica,sans-Serif" font-size="10.00" fill="#000000">::value_type &gt;</text>
</a>
</g>
</g>
<!-- Node1555&#45;&gt;Node0 -->
<g id="edge1" class="edge">
<title>Node1555&#45;&gt;Node0</title>
<path fill="none" stroke="#191970" d="M34.3663,-549.2895C36.2987,-636.2479 47.4919,-984.1234 104,-1074.5 115.9905,-1093.6771 135.9552,-1108.3749 154.8274,-1118.9021"/>
<polygon fill="#191970" stroke="#191970" points="37.8639,-549.1274 34.1588,-539.2015 30.8653,-549.2714 37.8639,-549.1274"/>
</g>
<!-- Node1558 -->
<g id="node4" class="node">
<title>Node1558</title>
<g id="a_node4"><a xlink:href="d5/dbf/structo2_1_1framework_1_1is__boost__serializable__base.html" target="_top" xlink:title="o2::framework::is_boost\l_serializable_base\&lt; Type,\l Archive \&gt;">
<polygon fill="none" stroke="#000000" points="131.5,-1024 131.5,-1065 274.5,-1065 274.5,-1024 131.5,-1024"/>
<text text-anchor="start" x="139.5" y="-1053" font-family="Helvetica,sans-Serif" font-size="10.00" fill="#000000">o2::framework::is_boost</text>
<text text-anchor="start" x="139.5" y="-1042" font-family="Helvetica,sans-Serif" font-size="10.00" fill="#000000">_serializable_base&lt; Type,</text>
<text text-anchor="middle" x="203" y="-1031" font-family="Helvetica,sans-Serif" font-size="10.00" fill="#000000"> Archive &gt;</text>
</a>
</g>
</g>
<!-- Node1555&#45;&gt;Node1558 -->
<g id="edge3" class="edge">
<title>Node1555&#45;&gt;Node1558</title>
<path fill="none" stroke="#191970" d="M35.6141,-549.2136C42.8442,-635.5217 73.245,-977.3902 104,-1013.5 111.2404,-1022.001 120.7805,-1028.2026 131.0818,-1032.72"/>
<polygon fill="#191970" stroke="#191970" points="39.097,-548.8613 34.7824,-539.1848 32.1209,-549.4398 39.097,-548.8613"/>
</g>
<!-- Node1562 -->
<g id="node8" class="node">
<title>Node1562</title>
<g id="a_node8"><a xlink:href="d5/dbf/structo2_1_1framework_1_1is__boost__serializable__base.html" target="_top" xlink:title="o2::framework::is_boost\l_serializable_base\&lt; Type,\l boost::archive::binary\l_oarchive \&gt;">
<polygon fill="none" stroke="#000000" points="131.5,-952.5 131.5,-1004.5 274.5,-1004.5 274.5,-952.5 131.5,-952.5"/>
<text text-anchor="start" x="139.5" y="-992.5" font-family="Helvetica,sans-Serif" font-size="10.00" fill="#000000">o2::framework::is_boost</text>
<text text-anchor="start" x="139.5" y="-981.5" font-family="Helvetica,sans-Serif" font-size="10.00" fill="#000000">_serializable_base&lt; Type,</text>
<text text-anchor="start" x="139.5" y="-970.5" font-family="Helvetica,sans-Serif" font-size="10.00" fill="#000000"> boost::archive::binary</text>
<text text-anchor="middle" x="203" y="-959.5" font-family="Helvetica,sans-Serif" font-size="10.00" fill="#000000">_oarchive &gt;</text>
</a>
</g>
</g>
<!-- Node1555&#45;&gt;Node1562 -->
<g id="edge7" class="edge">
<title>Node1555&#45;&gt;Node1562</title>
<path fill="none" stroke="#191970" d="M34.7776,-549.262C38.06,-623.0597 53.0545,-881.393 104,-942.5 111.2609,-951.2092 120.8117,-957.8114 131.1172,-962.8165"/>
<polygon fill="#191970" stroke="#191970" points="38.2658,-548.9045 34.3477,-539.0608 31.272,-549.1994 38.2658,-548.9045"/>
</g>
<!-- Node1565 -->
<g id="node11" class="node">
<title>Node1565</title>
<g id="a_node11"><a xlink:href="d4/df6/structnlohmann_1_1detail_1_1is__basic__json.html" target="_top" xlink:title="nlohmann::detail::is\l_basic_json\&lt; typename \&gt;">
<polygon fill="none" stroke="#000000" points="130.5,-903.5 130.5,-933.5 275.5,-933.5 275.5,-903.5 130.5,-903.5"/>
<text text-anchor="start" x="138.5" y="-921.5" font-family="Helvetica,sans-Serif" font-size="10.00" fill="#000000">nlohmann::detail::is</text>
<text text-anchor="middle" x="203" y="-910.5" font-family="Helvetica,sans-Serif" font-size="10.00" fill="#000000">_basic_json&lt; typename &gt;</text>
</a>
</g>
</g>
<!-- Node1555&#45;&gt;Node1565 -->
<g id="edge10" class="edge">
<title>Node1555&#45;&gt;Node1565</title>
<path fill="none" stroke="#191970" d="M35.0708,-549.2282C39.1802,-617.5805 56.18,-842.855 104,-893.5 111.1805,-901.1047 120.3096,-906.5319 130.1079,-910.3815"/>
<polygon fill="#191970" stroke="#191970" points="38.5514,-548.7879 34.4836,-539.0051 31.5629,-549.1894 38.5514,-548.7879"/>
</g>
<!-- Node1566 -->
<g id="node12" class="node">
<title>Node1566</title>
<g id="a_node12"><a xlink:href="dd/d13/structnlohmann_1_1detail_1_1is__compatible__integer__type__impl.html" target="_top" xlink:title="nlohmann::detail::is\l_compatible_integer_type\l_impl\&lt; bool, typename, typename \&gt;">
<polygon fill="none" stroke="#000000" points="104,-843 104,-884 302,-884 302,-843 104,-843"/>
<text text-anchor="start" x="112" y="-872" font-family="Helvetica,sans-Serif" font-size="10.00" fill="#000000">nlohmann::detail::is</text>
<text text-anchor="start" x="112" y="-861" font-family="Helvetica,sans-Serif" font-size="10.00" fill="#000000">_compatible_integer_type</text>
<text text-anchor="middle" x="203" y="-850" font-family="Helvetica,sans-Serif" font-size="10.00" fill="#000000">_impl&lt; bool, typename, typename &gt;</text>
</a>
</g>
</g>
<!-- Node1555&#45;&gt;Node1566 -->
<g id="edge11" class="edge">
<title>Node1555&#45;&gt;Node1566</title>
<path fill="none" stroke="#191970" d="M36.0167,-549.2841C42.5585,-609.7352 65.0503,-790.4539 104,-832.5 107.6719,-836.4637 111.8427,-839.9242 116.3451,-842.9449"/>
<polygon fill="#191970" stroke="#191970" points="39.4791,-548.7423 34.9505,-539.1641 32.5176,-549.4758 39.4791,-548.7423"/>
</g>
<!-- Node1567 -->
<g id="node13" class="node">
<title>Node1567</title>
<g id="a_node13"><a xlink:href="dc/da5/structnlohmann_1_1detail_1_1is__compatible__object__type__impl.html" target="_top" xlink:title="nlohmann::detail::is\l_compatible_object_type\l_impl\&lt; B, RealType, Compatible\lObjectType \&gt;">
<polygon fill="none" stroke="#000000" points="116.5,-771.5 116.5,-823.5 289.5,-823.5 289.5,-771.5 116.5,-771.5"/>
<text text-anchor="start" x="124.5" y="-811.5" font-family="Helvetica,sans-Serif" font-size="10.00" fill="#000000">nlohmann::detail::is</text>
<text text-anchor="start" x="124.5" y="-800.5" font-family="Helvetica,sans-Serif" font-size="10.00" fill="#000000">_compatible_object_type</text>
<text text-anchor="start" x="124.5" y="-789.5" font-family="Helvetica,sans-Serif" font-size="10.00" fill="#000000">_impl&lt; B, RealType, Compatible</text>
<text text-anchor="middle" x="203" y="-778.5" font-family="Helvetica,sans-Serif" font-size="10.00" fill="#000000">ObjectType &gt;</text>
</a>
</g>
</g>
<!-- Node1555&#45;&gt;Node1567 -->
<g id="edge12" class="edge">
<title>Node1555&#45;&gt;Node1567</title>
<path fill="none" stroke="#191970" d="M37.5705,-549.0443C47.0619,-599.0712 74.2351,-730.0282 104,-761.5 107.6443,-765.3533 111.7334,-768.7956 116.1197,-771.8705"/>
<polygon fill="#191970" stroke="#191970" points="41.0013,-548.3491 35.7269,-539.1605 34.1199,-549.6327 41.0013,-548.3491"/>
</g>
<!-- Node1568 -->
<g id="node14" class="node">
<title>Node1568</title>
<g id="a_node14"><a xlink:href="d2/db3/structnlohmann_1_1detail_1_1is__complete__type.html" target="_top" xlink:title="nlohmann::detail::is\l_complete_type\&lt; T, typename \&gt;">
<polygon fill="none" stroke="#000000" points="113.5,-722.5 113.5,-752.5 292.5,-752.5 292.5,-722.5 113.5,-722.5"/>
<text text-anchor="start" x="121.5" y="-740.5" font-family="Helvetica,sans-Serif" font-size="10.00" fill="#000000">nlohmann::detail::is</text>
<text text-anchor="middle" x="203" y="-729.5" font-family="Helvetica,sans-Serif" font-size="10.00" fill="#000000">_complete_type&lt; T, typename &gt;</text>
</a>
</g>
</g>
<!-- Node1555&#45;&gt;Node1568 -->
<g id="edge13" class="edge">
<title>Node1555&#45;&gt;Node1568</title>
<path fill="none" stroke="#191970" d="M35.7125,-549.3532C40.0533,-586.9995 54.9139,-668.8888 104,-712.5 108.3732,-716.3854 113.264,-719.6846 118.4663,-722.484"/>
<polygon fill="#191970" stroke="#191970" points="39.1719,-548.7756 34.6769,-539.1816 32.2079,-549.4847 39.1719,-548.7756"/>
</g>
<!-- Node1569 -->
<g id="node15" class="node">
<title>Node1569</title>
<g id="a_node15"><a xlink:href="da/d82/structo2_1_1framework_1_1always__static__assert.html" target="_top" xlink:title="o2::framework::always\l_static_assert\&lt; T \&gt;">
<polygon fill="none" stroke="#000000" points="139,-673.5 139,-703.5 267,-703.5 267,-673.5 139,-673.5"/>
<text text-anchor="start" x="147" y="-691.5" font-family="Helvetica,sans-Serif" font-size="10.00" fill="#000000">o2::framework::always</text>
<text text-anchor="middle" x="203" y="-680.5" font-family="Helvetica,sans-Serif" font-size="10.00" fill="#000000">_static_assert&lt; T &gt;</text>
</a>
</g>
</g>
<!-- Node1555&#45;&gt;Node1569 -->
<g id="edge14" class="edge">
<title>Node1555&#45;&gt;Node1569</title>
<path fill="none" stroke="#191970" d="M38.6786,-548.8748C46.8029,-578.2543 66.3725,-633.7887 104,-663.5 114.0867,-671.4646 126.4004,-676.9231 138.8708,-680.6562"/>
<polygon fill="#191970" stroke="#191970" points="42.0159,-547.8009 36.1115,-539.0038 35.2412,-549.5628 42.0159,-547.8009"/>
</g>
<!-- Node1570 -->
<g id="node16" class="node">
<title>Node1570</title>
<g id="a_node16"><a xlink:href="dc/da1/structo2_1_1framework_1_1can__assign.html" target="_top" xlink:title="o2::framework::can\l_assign\&lt; From, To, _ \&gt;">
<polygon fill="none" stroke="#000000" points="139,-624.5 139,-654.5 267,-654.5 267,-624.5 139,-624.5"/>
<text text-anchor="start" x="147" y="-642.5" font-family="Helvetica,sans-Serif" font-size="10.00" fill="#000000">o2::framework::can</text>
<text text-anchor="middle" x="203" y="-631.5" font-family="Helvetica,sans-Serif" font-size="10.00" fill="#000000">_assign&lt; From, To, _ &gt;</text>
</a>
</g>
</g>
<!-- Node1555&#45;&gt;Node1570 -->
<g id="edge15" class="edge">
<title>Node1555&#45;&gt;Node1570</title>
<path fill="none" stroke="#191970" d="M44.3075,-547.954C56.1704,-567.4662 77.4738,-597.6984 104,-614.5 114.483,-621.1399 126.6352,-626.0178 138.7599,-629.6008"/>
<polygon fill="#191970" stroke="#191970" points="47.1961,-545.9605 39.1235,-539.0987 41.1551,-549.497 47.1961,-545.9605"/>
</g>
<!-- Node1571 -->
<g id="node17" class="node">
<title>Node1571</title>
<g id="a_node17"><a xlink:href="d7/df3/structo2_1_1framework_1_1has__messageable__value__type.html" target="_top" xlink:title="o2::framework::has\l_messageable_value_type\l\&lt; T, _ \&gt;">
<polygon fill="none" stroke="#000000" points="130,-564 130,-605 276,-605 276,-564 130,-564"/>
<text text-anchor="start" x="138" y="-593" font-family="Helvetica,sans-Serif" font-size="10.00" fill="#000000">o2::framework::has</text>
<text text-anchor="start" x="138" y="-582" font-family="Helvetica,sans-Serif" font-size="10.00" fill="#000000">_messageable_value_type</text>
<text text-anchor="middle" x="203" y="-571" font-family="Helvetica,sans-Serif" font-size="10.00" fill="#000000">&lt; T, _ &gt;</text>
</a>
</g>
</g>
<!-- Node1555&#45;&gt;Node1571 -->
<g id="edge16" class="edge">
<title>Node1555&#45;&gt;Node1571</title>
<path fill="none" stroke="#191970" d="M70.6984,-542.2894C81.4139,-545.9676 93.1581,-549.9446 104,-553.5 114.5249,-556.9514 125.7065,-560.5337 136.6218,-563.9846"/>
<polygon fill="#191970" stroke="#191970" points="71.7969,-538.966 61.2021,-539.0161 69.5157,-545.5839 71.7969,-538.966"/>
</g>
<!-- Node1572 -->
<g id="node18" class="node">
<title>Node1572</title>
<g id="a_node18"><a xlink:href="d3/de1/structo2_1_1framework_1_1has__root__dictionary.html" target="_top" xlink:title="o2::framework::has\l_root_dictionary\&lt; T, _ \&gt;">
<polygon fill="none" stroke="#000000" points="135.5,-514.5 135.5,-544.5 270.5,-544.5 270.5,-514.5 135.5,-514.5"/>
<text text-anchor="start" x="143.5" y="-532.5" font-family="Helvetica,sans-Serif" font-size="10.00" fill="#000000">o2::framework::has</text>
<text text-anchor="middle" x="203" y="-521.5" font-family="Helvetica,sans-Serif" font-size="10.00" fill="#000000">_root_dictionary&lt; T, _ &gt;</text>
</a>
</g>
</g>
<!-- Node1555&#45;&gt;Node1572 -->
<g id="edge17" class="edge">
<title>Node1555&#45;&gt;Node1572</title>
<path fill="none" stroke="#191970" d="M78.5966,-529.5C95.9593,-529.5 116.2396,-529.5 135.3262,-529.5"/>
<polygon fill="#191970" stroke="#191970" points="78.1997,-526.0001 68.1997,-529.5 78.1996,-533.0001 78.1997,-526.0001"/>
</g>
<!-- Node1573 -->
<g id="node19" class="node">
<title>Node1573</title>
<g id="a_node19"><a xlink:href="d5/df9/structo2_1_1framework_1_1has__root__setowner.html" target="_top" xlink:title="o2::framework::has\l_root_setowner\&lt; T, _ \&gt;">
<polygon fill="none" stroke="#000000" points="137.5,-465.5 137.5,-495.5 268.5,-495.5 268.5,-465.5 137.5,-465.5"/>
<text text-anchor="start" x="145.5" y="-483.5" font-family="Helvetica,sans-Serif" font-size="10.00" fill="#000000">o2::framework::has</text>
<text text-anchor="middle" x="203" y="-472.5" font-family="Helvetica,sans-Serif" font-size="10.00" fill="#000000">_root_setowner&lt; T, _ &gt;</text>
</a>
</g>
</g>
<!-- Node1555&#45;&gt;Node1573 -->
<g id="edge18" class="edge">
<title>Node1555&#45;&gt;Node1573</title>
<path fill="none" stroke="#191970" d="M68.2506,-516.4558C79.5507,-512.3706 92.2376,-508.0155 104,-504.5 114.6752,-501.3094 126.0918,-498.2357 137.2384,-495.4145"/>
<polygon fill="#191970" stroke="#191970" points="66.9169,-513.217 58.7353,-519.9485 69.329,-519.7883 66.9169,-513.217"/>
</g>
<!-- Node1574 -->
<g id="node20" class="node">
<title>Node1574</title>
<g id="a_node20"><a xlink:href="d5/dbf/structo2_1_1framework_1_1is__boost__serializable__base.html" target="_top" xlink:title="o2::framework::is_boost\l_serializable_base\&lt; Type,\l Archive, typename \&gt;">
<polygon fill="none" stroke="#000000" points="131.5,-405 131.5,-446 274.5,-446 274.5,-405 131.5,-405"/>
<text text-anchor="start" x="139.5" y="-434" font-family="Helvetica,sans-Serif" font-size="10.00" fill="#000000">o2::framework::is_boost</text>
<text text-anchor="start" x="139.5" y="-423" font-family="Helvetica,sans-Serif" font-size="10.00" fill="#000000">_serializable_base&lt; Type,</text>
<text text-anchor="middle" x="203" y="-412" font-family="Helvetica,sans-Serif" font-size="10.00" fill="#000000"> Archive, typename &gt;</text>
</a>
</g>
</g>
<!-- Node1555&#45;&gt;Node1574 -->
<g id="edge19" class="edge">
<title>Node1555&#45;&gt;Node1574</title>
<path fill="none" stroke="#191970" d="M46.7287,-511.3893C59.4231,-494.6049 80.3932,-470.0939 104,-455.5 112.4017,-450.306 121.763,-445.959 131.2836,-442.3349"/>
<polygon fill="#191970" stroke="#191970" points="43.6486,-509.6712 40.5634,-519.8069 49.2959,-513.8074 43.6486,-509.6712"/>
</g>
<!-- Node1575 -->
<g id="node21" class="node">
<title>Node1575</title>
<g id="a_node21"><a xlink:href="d5/dc1/structo2_1_1framework_1_1is__bounded__array.html" target="_top" xlink:title="o2::framework::is_bounded\l_array\&lt; T \&gt;">
<polygon fill="none" stroke="#000000" points="128.5,-355.5 128.5,-385.5 277.5,-385.5 277.5,-355.5 128.5,-355.5"/>
<text text-anchor="start" x="136.5" y="-373.5" font-family="Helvetica,sans-Serif" font-size="10.00" fill="#000000">o2::framework::is_bounded</text>
<text text-anchor="middle" x="203" y="-362.5" font-family="Helvetica,sans-Serif" font-size="10.00" fill="#000000">_array&lt; T &gt;</text>
</a>
</g>
</g>
<!-- Node1555&#45;&gt;Node1575 -->
<g id="edge20" class="edge">
<title>Node1555&#45;&gt;Node1575</title>
<path fill="none" stroke="#191970" d="M38.6786,-510.1252C46.8029,-480.7457 66.3725,-425.2113 104,-395.5 111.2346,-389.7874 119.6149,-385.3641 128.3769,-381.942"/>
<polygon fill="#191970" stroke="#191970" points="35.2412,-509.4372 36.1115,-519.9962 42.0159,-511.1991 35.2412,-509.4372"/>
</g>
<!-- Node1576 -->
<g id="node22" class="node">
<title>Node1576</title>
<g id="a_node22"><a xlink:href="dc/d9b/structo2_1_1framework_1_1is__container.html" target="_top" xlink:title="o2::framework::is_container\l\&lt; T, _ \&gt;">
<polygon fill="none" stroke="#000000" points="126.5,-306.5 126.5,-336.5 279.5,-336.5 279.5,-306.5 126.5,-306.5"/>
<text text-anchor="start" x="134.5" y="-324.5" font-family="Helvetica,sans-Serif" font-size="10.00" fill="#000000">o2::framework::is_container</text>
<text text-anchor="middle" x="203" y="-313.5" font-family="Helvetica,sans-Serif" font-size="10.00" fill="#000000">&lt; T, _ &gt;</text>
</a>
</g>
</g>
<!-- Node1555&#45;&gt;Node1576 -->
<g id="edge21" class="edge">
<title>Node1555&#45;&gt;Node1576</title>
<path fill="none" stroke="#191970" d="M35.6395,-509.4983C39.8553,-471.5777 54.5114,-389.1289 104,-345.5 110.5004,-339.7693 118.1394,-335.3531 126.2429,-331.9581"/>
<polygon fill="#191970" stroke="#191970" points="32.1274,-509.4521 34.6393,-519.7449 39.0943,-510.1322 32.1274,-509.4521"/>
</g>
<!-- Node1577 -->
<g id="node23" class="node">
<title>Node1577</title>
<g id="a_node23"><a xlink:href="da/dee/structo2_1_1framework_1_1is__forced__non__messageable.html" target="_top" xlink:title="o2::framework::is_forced\l_non_messageable\&lt; T, _ \&gt;">
<polygon fill="none" stroke="#000000" points="128,-257.5 128,-287.5 278,-287.5 278,-257.5 128,-257.5"/>
<text text-anchor="start" x="136" y="-275.5" font-family="Helvetica,sans-Serif" font-size="10.00" fill="#000000">o2::framework::is_forced</text>
<text text-anchor="middle" x="203" y="-264.5" font-family="Helvetica,sans-Serif" font-size="10.00" fill="#000000">_non_messageable&lt; T, _ &gt;</text>
</a>
</g>
</g>
<!-- Node1555&#45;&gt;Node1577 -->
<g id="edge22" class="edge">
<title>Node1555&#45;&gt;Node1577</title>
<path fill="none" stroke="#191970" d="M37.3026,-510.0187C46.2379,-459.5637 72.3582,-326.4772 104,-296.5 110.8044,-290.0535 119.0347,-285.2476 127.8089,-281.6793"/>
<polygon fill="#191970" stroke="#191970" points="33.8375,-509.5169 35.5752,-519.9682 40.7343,-510.7143 33.8375,-509.5169"/>
</g>
<!-- Node1578 -->
<g id="node24" class="node">
<title>Node1578</title>
<g id="a_node24"><a xlink:href="dd/dca/structo2_1_1framework_1_1is__messageable_3_01gsl_1_1span_3_01T_01_4_01_4.html" target="_top" xlink:title="o2::framework::is_messageable\l\&lt; gsl::span\&lt; T \&gt; \&gt;">
<polygon fill="none" stroke="#000000" points="116.5,-208.5 116.5,-238.5 289.5,-238.5 289.5,-208.5 116.5,-208.5"/>
<text text-anchor="start" x="124.5" y="-226.5" font-family="Helvetica,sans-Serif" font-size="10.00" fill="#000000">o2::framework::is_messageable</text>
<text text-anchor="middle" x="203" y="-215.5" font-family="Helvetica,sans-Serif" font-size="10.00" fill="#000000">&lt; gsl::span&lt; T &gt; &gt;</text>
</a>
</g>
</g>
<!-- Node1555&#45;&gt;Node1578 -->
<g id="edge23" class="edge">
<title>Node1555&#45;&gt;Node1578</title>
<path fill="none" stroke="#191970" d="M36.2367,-509.8503C43.1942,-452.1673 66.2771,-285.0169 104,-247.5 107.6365,-243.8834 111.7195,-240.7781 116.1012,-238.1149"/>
<polygon fill="#191970" stroke="#191970" points="32.752,-509.5162 35.0607,-519.8564 39.7041,-510.3334 32.752,-509.5162"/>
</g>
<!-- Node1579 -->
<g id="node25" class="node">
<title>Node1579</title>
<g id="a_node25"><a xlink:href="d2/d79/structo2_1_1framework_1_1is__span.html" target="_top" xlink:title="o2::framework::is_span\l\&lt; T, _ \&gt;">
<polygon fill="none" stroke="#000000" points="137.5,-159.5 137.5,-189.5 268.5,-189.5 268.5,-159.5 137.5,-159.5"/>
<text text-anchor="start" x="145.5" y="-177.5" font-family="Helvetica,sans-Serif" font-size="10.00" fill="#000000">o2::framework::is_span</text>
<text text-anchor="middle" x="203" y="-166.5" font-family="Helvetica,sans-Serif" font-size="10.00" fill="#000000">&lt; T, _ &gt;</text>
</a>
</g>
</g>
<!-- Node1555&#45;&gt;Node1579 -->
<g id="edge24" class="edge">
<title>Node1555&#45;&gt;Node1579</title>
<path fill="none" stroke="#191970" d="M35.4543,-509.8903C40.6071,-445.7501 60.0929,-243.7185 104,-198.5 112.9937,-189.2377 124.9082,-183.3063 137.3465,-179.5592"/>
<polygon fill="#191970" stroke="#191970" points="31.9627,-509.6478 34.679,-519.8885 38.9417,-510.189 31.9627,-509.6478"/>
</g>
<!-- Node1580 -->
<g id="node26" class="node">
<title>Node1580</title>
<g id="a_node26"><a xlink:href="d8/d85/structo2_1_1framework_1_1is__specialization.html" target="_top" xlink:title="o2::framework::is_specialization\l\&lt; T, Ref \&gt;">
<polygon fill="none" stroke="#000000" points="115.5,-110.5 115.5,-140.5 290.5,-140.5 290.5,-110.5 115.5,-110.5"/>
<text text-anchor="start" x="123.5" y="-128.5" font-family="Helvetica,sans-Serif" font-size="10.00" fill="#000000">o2::framework::is_specialization</text>
<text text-anchor="middle" x="203" y="-117.5" font-family="Helvetica,sans-Serif" font-size="10.00" fill="#000000">&lt; T, Ref &gt;</text>
</a>
</g>
</g>
<!-- Node1555&#45;&gt;Node1580 -->
<g id="edge25" class="edge">
<title>Node1555&#45;&gt;Node1580</title>
<path fill="none" stroke="#191970" d="M34.8771,-509.7982C38.4082,-439.5156 53.8944,-202.4754 104,-149.5 107.4027,-145.9024 111.2454,-142.8046 115.3911,-140.1405"/>
<polygon fill="#191970" stroke="#191970" points="31.3745,-509.7699 34.3946,-519.9251 38.3666,-510.1031 31.3745,-509.7699"/>
</g>
<!-- Node1581 -->
<g id="node27" class="node">
<title>Node1581</title>
<g id="a_node27"><a xlink:href="d3/dd8/structo2_1_1framework_1_1MakeRootTreeWriterSpec_1_1StringAssignable.html" target="_top" xlink:title="helper for the constructor selection below ">
<polygon fill="none" stroke="#000000" points="122,-50 122,-91 284,-91 284,-50 122,-50"/>
<text text-anchor="start" x="130" y="-79" font-family="Helvetica,sans-Serif" font-size="10.00" fill="#000000">o2::framework::MakeRootTree</text>
<text text-anchor="start" x="130" y="-68" font-family="Helvetica,sans-Serif" font-size="10.00" fill="#000000">WriterSpec::StringAssignable</text>
<text text-anchor="middle" x="203" y="-57" font-family="Helvetica,sans-Serif" font-size="10.00" fill="#000000">&lt; T, _ &gt;</text>
</a>
</g>
</g>
<!-- Node1555&#45;&gt;Node1581 -->
<g id="edge26" class="edge">
<title>Node1555&#45;&gt;Node1581</title>
<path fill="none" stroke="#191970" d="M34.5286,-509.8527C36.9552,-434.2025 49.3864,-162.8748 104,-100.5 108.9689,-94.825 114.9721,-90.2046 121.5365,-86.4455"/>
<polygon fill="#191970" stroke="#191970" points="31.0286,-509.8018 34.2296,-519.9015 38.0255,-510.01 31.0286,-509.8018"/>
</g>
<!-- Node1582 -->
<g id="node28" class="node">
<title>Node1582</title>
<g id="a_node28"><a xlink:href="d9/d11/structo2_1_1soa_1_1is__index.html" target="_top" xlink:title="o2::soa::is_index\&lt;\l T, Ref \&gt;">
<polygon fill="none" stroke="#000000" points="149.5,-.5 149.5,-30.5 256.5,-30.5 256.5,-.5 149.5,-.5"/>
<text text-anchor="start" x="157.5" y="-18.5" font-family="Helvetica,sans-Serif" font-size="10.00" fill="#000000">o2::soa::is_index&lt;</text>
<text text-anchor="middle" x="203" y="-7.5" font-family="Helvetica,sans-Serif" font-size="10.00" fill="#000000"> T, Ref &gt;</text>
</a>
</g>
</g>
<!-- Node1555&#45;&gt;Node1582 -->
<g id="edge27" class="edge">
<title>Node1555&#45;&gt;Node1582</title>
<path fill="none" stroke="#191970" d="M35.5513,-509.5406C42.5147,-422.1619 71.9487,-76.1128 104,-40.5 115.5623,-27.653 132.6777,-20.9654 149.4391,-17.6091"/>
<polygon fill="#191970" stroke="#191970" points="32.0477,-509.45 34.751,-519.6941 39.026,-510.0001 32.0477,-509.45"/>
</g>
<!-- Node1 -->
<g id="node3" class="node">
<title>Node1</title>
<g id="a_node3"><a xlink:href="d5/d6d/classo2_1_1framework_1_1has__root__dictionary_3_01T_00_01typename_01std_1_1enable__if_3_01is__co3a14f09bcf42c805e484bfdd1c1dadfb.html" target="_top" xlink:title="o2::framework::has\l_root_dictionary\&lt; T,\l typename std::enable\l_if\&lt; is_container\&lt; T \&gt;\l::value \&gt;::type \&gt;">
<polygon fill="none" stroke="#000000" points="353,-1126 353,-1189 481,-1189 481,-1126 353,-1126"/>
<text text-anchor="start" x="361" y="-1177" font-family="Helvetica,sans-Serif" font-size="10.00" fill="#000000">o2::framework::has</text>
<text text-anchor="start" x="361" y="-1166" font-family="Helvetica,sans-Serif" font-size="10.00" fill="#000000">_root_dictionary&lt; T,</text>
<text text-anchor="start" x="361" y="-1155" font-family="Helvetica,sans-Serif" font-size="10.00" fill="#000000"> typename std::enable</text>
<text text-anchor="start" x="361" y="-1144" font-family="Helvetica,sans-Serif" font-size="10.00" fill="#000000">_if&lt; is_container&lt; T &gt;</text>
<text text-anchor="middle" x="417" y="-1133" font-family="Helvetica,sans-Serif" font-size="10.00" fill="#000000">::value &gt;::type &gt;</text>
</a>
</g>
</g>
<!-- Node0&#45;&gt;Node1 -->
<g id="edge2" class="edge">
<title>Node0&#45;&gt;Node1</title>
<path fill="none" stroke="#191970" d="M269.495,-1145.093C296.1034,-1147.3311 326.6323,-1149.899 352.9877,-1152.1158"/>
<polygon fill="#191970" stroke="#191970" points="269.7641,-1141.6034 259.5059,-1144.2528 269.1773,-1148.5788 269.7641,-1141.6034"/>
</g>
<!-- Node1559 -->
<g id="node5" class="node">
<title>Node1559</title>
<g id="a_node5"><a xlink:href="d2/d70/structo2_1_1framework_1_1is__boost__serializable.html" target="_top" xlink:title="o2::framework::is_boost\l_serializable\&lt; Type::value\l_type, Archive \&gt;">
<polygon fill="none" stroke="#000000" points="344.5,-1066 344.5,-1107 489.5,-1107 489.5,-1066 344.5,-1066"/>
<text text-anchor="start" x="352.5" y="-1095" font-family="Helvetica,sans-Serif" font-size="10.00" fill="#000000">o2::framework::is_boost</text>
<text text-anchor="start" x="352.5" y="-1084" font-family="Helvetica,sans-Serif" font-size="10.00" fill="#000000">_serializable&lt; Type::value</text>
<text text-anchor="middle" x="417" y="-1073" font-family="Helvetica,sans-Serif" font-size="10.00" fill="#000000">_type, Archive &gt;</text>
</a>
</g>
</g>
<!-- Node1558&#45;&gt;Node1559 -->
<g id="edge4" class="edge">
<title>Node1558&#45;&gt;Node1559</title>
<path fill="none" stroke="#191970" d="M284.4365,-1060.4829C304.1653,-1064.3549 325.1257,-1068.4686 344.4158,-1072.2545"/>
<polygon fill="#191970" stroke="#191970" points="285.0433,-1057.0353 274.5564,-1058.5438 283.6951,-1063.9042 285.0433,-1057.0353"/>
</g>
<!-- Node1561 -->
<g id="node7" class="node">
<title>Node1561</title>
<g id="a_node7"><a xlink:href="d2/d70/structo2_1_1framework_1_1is__boost__serializable.html" target="_top" xlink:title="o2::framework::is_boost\l_serializable\&lt; Type, Archive,\l typename \&gt;">
<polygon fill="none" stroke="#000000" points="338,-1006 338,-1047 496,-1047 496,-1006 338,-1006"/>
<text text-anchor="start" x="346" y="-1035" font-family="Helvetica,sans-Serif" font-size="10.00" fill="#000000">o2::framework::is_boost</text>
<text text-anchor="start" x="346" y="-1024" font-family="Helvetica,sans-Serif" font-size="10.00" fill="#000000">_serializable&lt; Type, Archive,</text>
<text text-anchor="middle" x="417" y="-1013" font-family="Helvetica,sans-Serif" font-size="10.00" fill="#000000"> typename &gt;</text>
</a>
</g>
</g>
<!-- Node1558&#45;&gt;Node1561 -->
<g id="edge6" class="edge">
<title>Node1558&#45;&gt;Node1561</title>
<path fill="none" stroke="#191970" d="M284.6834,-1037.6294C302.0951,-1036.1649 320.4556,-1034.6206 337.7734,-1033.1639"/>
<polygon fill="#191970" stroke="#191970" points="284.2278,-1034.1553 274.5564,-1038.4812 284.8146,-1041.1307 284.2278,-1034.1553"/>
</g>
<!-- Node1560 -->
<g id="node6" class="node">
<title>Node1560</title>
<g id="a_node6"><a xlink:href="d8/ddd/structo2_1_1framework_1_1is__boost__serializable_3_01Type_00_01Archive_00_01std_1_1void__t_3_01t52f9ef0f32611a33ca82db27a4fb33ed.html" target="_top" xlink:title="o2::framework::is_boost\l_serializable\&lt; Type, Archive,\l std::void_t\&lt; typename Type\l::value_type \&gt; \&gt;">
<polygon fill="none" stroke="#000000" points="532,-1060.5 532,-1112.5 690,-1112.5 690,-1060.5 532,-1060.5"/>
<text text-anchor="start" x="540" y="-1100.5" font-family="Helvetica,sans-Serif" font-size="10.00" fill="#000000">o2::framework::is_boost</text>
<text text-anchor="start" x="540" y="-1089.5" font-family="Helvetica,sans-Serif" font-size="10.00" fill="#000000">_serializable&lt; Type, Archive,</text>
<text text-anchor="start" x="540" y="-1078.5" font-family="Helvetica,sans-Serif" font-size="10.00" fill="#000000"> std::void_t&lt; typename Type</text>
<text text-anchor="middle" x="611" y="-1067.5" font-family="Helvetica,sans-Serif" font-size="10.00" fill="#000000">::value_type &gt; &gt;</text>
</a>
</g>
</g>
<!-- Node1559&#45;&gt;Node1560 -->
<g id="edge5" class="edge">
<title>Node1559&#45;&gt;Node1560</title>
<path fill="none" stroke="#191970" d="M499.6301,-1086.5C510.2743,-1086.5 521.1547,-1086.5 531.743,-1086.5"/>
<polygon fill="#191970" stroke="#191970" points="499.5144,-1083.0001 489.5143,-1086.5 499.5143,-1090.0001 499.5144,-1083.0001"/>
</g>
<!-- Node1563 -->
<g id="node9" class="node">
<title>Node1563</title>
<g id="a_node9"><a xlink:href="d2/d70/structo2_1_1framework_1_1is__boost__serializable.html" target="_top" xlink:title="o2::framework::is_boost\l_serializable\&lt; Type::value\l_type, boost::archive::binary\l_oarchive \&gt;">
<polygon fill="none" stroke="#000000" points="339.5,-934.5 339.5,-986.5 494.5,-986.5 494.5,-934.5 339.5,-934.5"/>
<text text-anchor="start" x="347.5" y="-974.5" font-family="Helvetica,sans-Serif" font-size="10.00" fill="#000000">o2::framework::is_boost</text>
<text text-anchor="start" x="347.5" y="-963.5" font-family="Helvetica,sans-Serif" font-size="10.00" fill="#000000">_serializable&lt; Type::value</text>
<text text-anchor="start" x="347.5" y="-952.5" font-family="Helvetica,sans-Serif" font-size="10.00" fill="#000000">_type, boost::archive::binary</text>
<text text-anchor="middle" x="417" y="-941.5" font-family="Helvetica,sans-Serif" font-size="10.00" fill="#000000">_oarchive &gt;</text>
</a>
</g>
</g>
<!-- Node1562&#45;&gt;Node1563 -->
<g id="edge8" class="edge">
<title>Node1562&#45;&gt;Node1563</title>
<path fill="none" stroke="#191970" d="M284.6791,-971.6298C302.5909,-970.1232 321.5071,-968.5321 339.2594,-967.0389"/>
<polygon fill="#191970" stroke="#191970" points="284.2278,-968.1553 274.5564,-972.4812 284.8146,-975.1307 284.2278,-968.1553"/>
</g>
<!-- Node1564 -->
<g id="node10" class="node">
<title>Node1564</title>
<g id="a_node10"><a xlink:href="da/d5c/structo2_1_1framework_1_1is__boost__serializable_3_01Type_00_01boost_1_1archive_1_1binary__oarchf8a18e484fa159a1d92458bf9fe69b23.html" target="_top" xlink:title="o2::framework::is_boost\l_serializable\&lt; Type, boost\l::archive::binary_oarchive,\l std::void_t\&lt; typename Type\l::value_type \&gt; \&gt;">
<polygon fill="none" stroke="#000000" points="532.5,-929 532.5,-992 689.5,-992 689.5,-929 532.5,-929"/>
<text text-anchor="start" x="540.5" y="-980" font-family="Helvetica,sans-Serif" font-size="10.00" fill="#000000">o2::framework::is_boost</text>
<text text-anchor="start" x="540.5" y="-969" font-family="Helvetica,sans-Serif" font-size="10.00" fill="#000000">_serializable&lt; Type, boost</text>
<text text-anchor="start" x="540.5" y="-958" font-family="Helvetica,sans-Serif" font-size="10.00" fill="#000000">::archive::binary_oarchive,</text>
<text text-anchor="start" x="540.5" y="-947" font-family="Helvetica,sans-Serif" font-size="10.00" fill="#000000"> std::void_t&lt; typename Type</text>
<text text-anchor="middle" x="611" y="-936" font-family="Helvetica,sans-Serif" font-size="10.00" fill="#000000">::value_type &gt; &gt;</text>
</a>
</g>
</g>
<!-- Node1563&#45;&gt;Node1564 -->
<g id="edge9" class="edge">
<title>Node1563&#45;&gt;Node1564</title>
<path fill="none" stroke="#191970" d="M504.5128,-960.5C513.7879,-960.5 523.1799,-960.5 532.3451,-960.5"/>
<polygon fill="#191970" stroke="#191970" points="504.5103,-957.0001 494.5103,-960.5 504.5103,-964.0001 504.5103,-957.0001"/>
</g>
</g>
</svg>
