<?xml version="1.0" encoding="UTF-8" standalone="no"?>
<!DOCTYPE svg PUBLIC "-//W3C//DTD SVG 1.1//EN"
 "http://www.w3.org/Graphics/SVG/1.1/DTD/svg11.dtd">
<!-- Generated by graphviz version 2.40.1 (20161225.0304)
 -->
<!-- Title: Graphical Class Hierarchy Pages: 1 -->
<svg width="571pt" height="1308pt"
 viewBox="0.00 0.00 571.00 1308.00" xmlns="http://www.w3.org/2000/svg" xmlns:xlink="http://www.w3.org/1999/xlink">
<g id="graph0" class="graph" transform="scale(1 1) rotate(0) translate(4 1304)">
<title>Graphical Class Hierarchy</title>
<!-- Node119 -->
<g id="node1" class="node">
<title>Node119</title>
<polygon fill="none" stroke="#bfbfbf" points="0,-607 0,-626 63,-626 63,-607 0,-607"/>
<text text-anchor="middle" x="31.5" y="-614" font-family="Helvetica,sans-Serif" font-size="10.00" fill="#000000">true_type</text>
</g>
<!-- Node0 -->
<g id="node2" class="node">
<title>Node0</title>
<g id="a_node2"><a xlink:href="dd/dde/structnlohmann_1_1detail_1_1conjunction.html" target="_top" xlink:title="nlohmann::detail::conjunction\l\&lt; is_complete_type\&lt; CompatibleType\l \&gt;, is_compatible_complete_type\l\&lt; BasicJsonType, CompatibleType \&gt; \&gt;">
<polygon fill="none" stroke="#000000" points="130.5,-1247.5 130.5,-1299.5 334.5,-1299.5 334.5,-1247.5 130.5,-1247.5"/>
<text text-anchor="start" x="138.5" y="-1287.5" font-family="Helvetica,sans-Serif" font-size="10.00" fill="#000000">nlohmann::detail::conjunction</text>
<text text-anchor="start" x="138.5" y="-1276.5" font-family="Helvetica,sans-Serif" font-size="10.00" fill="#000000">&lt; is_complete_type&lt; CompatibleType</text>
<text text-anchor="start" x="138.5" y="-1265.5" font-family="Helvetica,sans-Serif" font-size="10.00" fill="#000000"> &gt;, is_compatible_complete_type</text>
<text text-anchor="middle" x="232.5" y="-1254.5" font-family="Helvetica,sans-Serif" font-size="10.00" fill="#000000">&lt; BasicJsonType, CompatibleType &gt; &gt;</text>
</a>
</g>
</g>
<!-- Node119&#45;&gt;Node0 -->
<g id="edge1" class="edge">
<title>Node119&#45;&gt;Node0</title>
<path fill="none" stroke="#191970" d="M32.3391,-636.5142C36.7634,-737.8933 58.7186,-1191.7534 99,-1238.5 107.5242,-1248.3924 118.4696,-1255.6591 130.4188,-1260.9697"/>
<polygon fill="#191970" stroke="#191970" points="35.8309,-636.2478 31.9056,-626.407 28.8374,-636.5478 35.8309,-636.2478"/>
</g>
<!-- Node122 -->
<g id="node4" class="node">
<title>Node122</title>
<g id="a_node4"><a xlink:href="dd/dde/structnlohmann_1_1detail_1_1conjunction.html" target="_top" xlink:title="nlohmann::detail::conjunction\l\&lt;... \&gt;">
<polygon fill="none" stroke="#000000" points="152,-1198.5 152,-1228.5 313,-1228.5 313,-1198.5 152,-1198.5"/>
<text text-anchor="start" x="160" y="-1216.5" font-family="Helvetica,sans-Serif" font-size="10.00" fill="#000000">nlohmann::detail::conjunction</text>
<text text-anchor="middle" x="232.5" y="-1205.5" font-family="Helvetica,sans-Serif" font-size="10.00" fill="#000000">&lt;... &gt;</text>
</a>
</g>
</g>
<!-- Node119&#45;&gt;Node122 -->
<g id="edge3" class="edge">
<title>Node119&#45;&gt;Node122</title>
<path fill="none" stroke="#191970" d="M32.455,-636.1404C37.2909,-731.9297 60.3733,-1147.1673 99,-1188.5 112.6851,-1203.1438 132.0001,-1210.8193 151.6977,-1214.5395"/>
<polygon fill="#191970" stroke="#191970" points="35.9476,-635.903 31.9559,-626.089 28.9563,-636.2503 35.9476,-635.903"/>
</g>
<!-- Node123 -->
<g id="node5" class="node">
<title>Node123</title>
<g id="a_node5"><a xlink:href="d8/d25/structnlohmann_1_1detail_1_1is__basic__json_3_01NLOHMANN__BASIC__JSON__TPL_01_4.html" target="_top" xlink:title="nlohmann::detail::is\l_basic_json\&lt; NLOHMANN\l_BASIC_JSON_TPL \&gt;">
<polygon fill="none" stroke="#000000" points="161.5,-1138 161.5,-1179 303.5,-1179 303.5,-1138 161.5,-1138"/>
<text text-anchor="start" x="169.5" y="-1167" font-family="Helvetica,sans-Serif" font-size="10.00" fill="#000000">nlohmann::detail::is</text>
<text text-anchor="start" x="169.5" y="-1156" font-family="Helvetica,sans-Serif" font-size="10.00" fill="#000000">_basic_json&lt; NLOHMANN</text>
<text text-anchor="middle" x="232.5" y="-1145" font-family="Helvetica,sans-Serif" font-size="10.00" fill="#000000">_BASIC_JSON_TPL &gt;</text>
</a>
</g>
</g>
<!-- Node119&#45;&gt;Node123 -->
<g id="edge4" class="edge">
<title>Node119&#45;&gt;Node123</title>
<path fill="none" stroke="#191970" d="M32.7987,-636.5525C38.8119,-726.6687 65.1034,-1091.4079 99,-1128.5 114.8648,-1145.8604 138.4243,-1154.2801 161.3545,-1158.078"/>
<polygon fill="#191970" stroke="#191970" points="36.2755,-636.0844 32.1259,-626.336 29.2907,-636.5444 36.2755,-636.0844"/>
</g>
<!-- Node124 -->
<g id="node6" class="node">
<title>Node124</title>
<g id="a_node6"><a xlink:href="dd/dcd/structnlohmann_1_1detail_1_1is__complete__type_3_01T_00_01decltype_07void_07sizeof_07T_08_08_08_4.html" target="_top" xlink:title="nlohmann::detail::is\l_complete_type\&lt; T, decltype\l(void(sizeof(T)))\&gt;">
<polygon fill="none" stroke="#000000" points="152.5,-1078 152.5,-1119 312.5,-1119 312.5,-1078 152.5,-1078"/>
<text text-anchor="start" x="160.5" y="-1107" font-family="Helvetica,sans-Serif" font-size="10.00" fill="#000000">nlohmann::detail::is</text>
<text text-anchor="start" x="160.5" y="-1096" font-family="Helvetica,sans-Serif" font-size="10.00" fill="#000000">_complete_type&lt; T, decltype</text>
<text text-anchor="middle" x="232.5" y="-1085" font-family="Helvetica,sans-Serif" font-size="10.00" fill="#000000">(void(sizeof(T)))&gt;</text>
</a>
</g>
</g>
<!-- Node119&#45;&gt;Node124 -->
<g id="edge5" class="edge">
<title>Node119&#45;&gt;Node124</title>
<path fill="none" stroke="#191970" d="M33.1544,-636.5814C40.2138,-720.1209 68.8339,-1037.2747 99,-1069.5 112.8583,-1084.3043 132.351,-1092.4546 152.1687,-1096.7443"/>
<polygon fill="#191970" stroke="#191970" points="36.6241,-636.0718 32.3035,-626.398 29.6485,-636.6548 36.6241,-636.0718"/>
</g>
<!-- Node125 -->
<g id="node7" class="node">
<title>Node125</title>
<g id="a_node7"><a xlink:href="d0/d7f/structo2_1_1framework_1_1has__root__dictionary_3_01T_00_01std_1_1conditional__t_3_01false_00_01c3a7047afd30b3fd4df3d429b8c4e1a22.html" target="_top" xlink:title="o2::framework::has\l_root_dictionary\&lt; T,\l std::conditional_t\&lt;\l false, class_member_checker\l\&lt; decltype(std::declval\&lt; T\l \&gt;().Class())\&gt;, void \&gt; \&gt;">
<polygon fill="none" stroke="#000000" points="150.5,-985.5 150.5,-1059.5 314.5,-1059.5 314.5,-985.5 150.5,-985.5"/>
<text text-anchor="start" x="158.5" y="-1047.5" font-family="Helvetica,sans-Serif" font-size="10.00" fill="#000000">o2::framework::has</text>
<text text-anchor="start" x="158.5" y="-1036.5" font-family="Helvetica,sans-Serif" font-size="10.00" fill="#000000">_root_dictionary&lt; T,</text>
<text text-anchor="start" x="158.5" y="-1025.5" font-family="Helvetica,sans-Serif" font-size="10.00" fill="#000000"> std::conditional_t&lt;</text>
<text text-anchor="start" x="158.5" y="-1014.5" font-family="Helvetica,sans-Serif" font-size="10.00" fill="#000000"> false, class_member_checker</text>
<text text-anchor="start" x="158.5" y="-1003.5" font-family="Helvetica,sans-Serif" font-size="10.00" fill="#000000">&lt; decltype(std::declval&lt; T</text>
<text text-anchor="middle" x="232.5" y="-992.5" font-family="Helvetica,sans-Serif" font-size="10.00" fill="#000000"> &gt;().Class())&gt;, void &gt; &gt;</text>
</a>
</g>
</g>
<!-- Node119&#45;&gt;Node125 -->
<g id="edge6" class="edge">
<title>Node119&#45;&gt;Node125</title>
<path fill="none" stroke="#191970" d="M32.6622,-636.244C37.0086,-703.6701 54.4021,-923.5158 99,-975.5 112.2793,-990.9786 130.9811,-1001.3609 150.1932,-1008.3244"/>
<polygon fill="#191970" stroke="#191970" points="36.1477,-635.8988 32.0362,-626.1343 29.161,-636.3315 36.1477,-635.8988"/>
</g>
<!-- Node126 -->
<g id="node8" class="node">
<title>Node126</title>
<g id="a_node8"><a xlink:href="da/d79/structo2_1_1framework_1_1has__root__setowner_3_01T_00_01std_1_1conditional__t_3_01false_00_01clab3eb568d3aa63dda30124b6acde88d98.html" target="_top" xlink:title="o2::framework::has\l_root_setowner\&lt; T, std\l::conditional_t\&lt; false,\l class_member_checker\&lt;\l decltype(std::declval\&lt;\l T \&gt;().SetOwner(true))\&gt;,\l void \&gt; \&gt;">
<polygon fill="none" stroke="#000000" points="161,-881 161,-966 304,-966 304,-881 161,-881"/>
<text text-anchor="start" x="169" y="-954" font-family="Helvetica,sans-Serif" font-size="10.00" fill="#000000">o2::framework::has</text>
<text text-anchor="start" x="169" y="-943" font-family="Helvetica,sans-Serif" font-size="10.00" fill="#000000">_root_setowner&lt; T, std</text>
<text text-anchor="start" x="169" y="-932" font-family="Helvetica,sans-Serif" font-size="10.00" fill="#000000">::conditional_t&lt; false,</text>
<text text-anchor="start" x="169" y="-921" font-family="Helvetica,sans-Serif" font-size="10.00" fill="#000000"> class_member_checker&lt;</text>
<text text-anchor="start" x="169" y="-910" font-family="Helvetica,sans-Serif" font-size="10.00" fill="#000000"> decltype(std::declval&lt;</text>
<text text-anchor="start" x="169" y="-899" font-family="Helvetica,sans-Serif" font-size="10.00" fill="#000000"> T &gt;().SetOwner(true))&gt;,</text>
<text text-anchor="middle" x="232.5" y="-888" font-family="Helvetica,sans-Serif" font-size="10.00" fill="#000000"> void &gt; &gt;</text>
</a>
</g>
</g>
<!-- Node119&#45;&gt;Node126 -->
<g id="edge7" class="edge">
<title>Node119&#45;&gt;Node126</title>
<path fill="none" stroke="#191970" d="M34.3604,-636.1388C42.4959,-689.571 67.2427,-835.947 99,-871.5 115.1557,-889.5866 138.3699,-901.4391 160.9227,-909.1826"/>
<polygon fill="#191970" stroke="#191970" points="37.8181,-635.5947 32.88,-626.221 30.8948,-636.6282 37.8181,-635.5947"/>
</g>
<!-- Node127 -->
<g id="node9" class="node">
<title>Node127</title>
<g id="a_node9"><a xlink:href="da/da0/structo2_1_1framework_1_1is__boost__serializable__base_3_01Type_00_01Archive_00_01std_1_1void__td3dce5790dbc08a548e1efe654c16a22.html" target="_top" xlink:title="o2::framework::is_boost\l_serializable_base\&lt; Type,\l Archive, std::void_t\&lt; decltype\l(std::declval\&lt; Type &amp; \&gt;().serialize\l(std::declval\&lt; Archive &amp; \&gt;(), 0))\&gt; \&gt;">
<polygon fill="none" stroke="#000000" points="136,-799 136,-862 329,-862 329,-799 136,-799"/>
<text text-anchor="start" x="144" y="-850" font-family="Helvetica,sans-Serif" font-size="10.00" fill="#000000">o2::framework::is_boost</text>
<text text-anchor="start" x="144" y="-839" font-family="Helvetica,sans-Serif" font-size="10.00" fill="#000000">_serializable_base&lt; Type,</text>
<text text-anchor="start" x="144" y="-828" font-family="Helvetica,sans-Serif" font-size="10.00" fill="#000000"> Archive, std::void_t&lt; decltype</text>
<text text-anchor="start" x="144" y="-817" font-family="Helvetica,sans-Serif" font-size="10.00" fill="#000000">(std::declval&lt; Type &amp; &gt;().serialize</text>
<text text-anchor="middle" x="232.5" y="-806" font-family="Helvetica,sans-Serif" font-size="10.00" fill="#000000">(std::declval&lt; Archive &amp; &gt;(), 0))&gt; &gt;</text>
</a>
</g>
</g>
<!-- Node119&#45;&gt;Node127 -->
<g id="edge8" class="edge">
<title>Node119&#45;&gt;Node127</title>
<path fill="none" stroke="#191970" d="M33.6647,-636.5325C38.6089,-672.4001 54.019,-747.7317 99,-789.5 109.5713,-799.3163 122.4403,-806.7843 135.9678,-812.4654"/>
<polygon fill="#191970" stroke="#191970" points="37.1081,-635.8592 32.4029,-626.3665 30.1614,-636.7215 37.1081,-635.8592"/>
</g>
<!-- Node128 -->
<g id="node10" class="node">
<title>Node128</title>
<g id="a_node10"><a xlink:href="d5/d30/structo2_1_1framework_1_1is__bounded__array_3_01std_1_1array_3_01T_00_01N_01_4_01_4.html" target="_top" xlink:title="o2::framework::is_bounded\l_array\&lt; std::array\&lt; T, N \&gt; \&gt;">
<polygon fill="none" stroke="#000000" points="153.5,-749.5 153.5,-779.5 311.5,-779.5 311.5,-749.5 153.5,-749.5"/>
<text text-anchor="start" x="161.5" y="-767.5" font-family="Helvetica,sans-Serif" font-size="10.00" fill="#000000">o2::framework::is_bounded</text>
<text text-anchor="middle" x="232.5" y="-756.5" font-family="Helvetica,sans-Serif" font-size="10.00" fill="#000000">_array&lt; std::array&lt; T, N &gt; &gt;</text>
</a>
</g>
</g>
<!-- Node119&#45;&gt;Node128 -->
<g id="edge9" class="edge">
<title>Node119&#45;&gt;Node128</title>
<path fill="none" stroke="#191970" d="M36.3429,-635.9275C44.3669,-663.8144 63.2045,-714.6694 99,-740.5 114.7541,-751.8684 134.2189,-758.4021 153.3665,-762.0364"/>
<polygon fill="#191970" stroke="#191970" points="39.6887,-634.8917 33.7048,-626.1485 32.9303,-636.7149 39.6887,-634.8917"/>
</g>
<!-- Node129 -->
<g id="node11" class="node">
<title>Node129</title>
<g id="a_node11"><a xlink:href="d1/d33/structo2_1_1framework_1_1is__bounded__array_3_01T[N]_4.html" target="_top" xlink:title="o2::framework::is_bounded\l_array\&lt; T[N]\&gt;">
<polygon fill="none" stroke="#000000" points="158,-700.5 158,-730.5 307,-730.5 307,-700.5 158,-700.5"/>
<text text-anchor="start" x="166" y="-718.5" font-family="Helvetica,sans-Serif" font-size="10.00" fill="#000000">o2::framework::is_bounded</text>
<text text-anchor="middle" x="232.5" y="-707.5" font-family="Helvetica,sans-Serif" font-size="10.00" fill="#000000">_array&lt; T[N]&gt;</text>
</a>
</g>
</g>
<!-- Node119&#45;&gt;Node129 -->
<g id="edge10" class="edge">
<title>Node119&#45;&gt;Node129</title>
<path fill="none" stroke="#191970" d="M42.9093,-634.6486C54.7522,-651.8773 74.9027,-677.0775 99,-690.5 116.8189,-700.4254 137.8378,-706.4976 157.8598,-710.1874"/>
<polygon fill="#191970" stroke="#191970" points="45.6439,-632.4381 37.2124,-626.0225 39.8028,-636.2958 45.6439,-632.4381"/>
</g>
<!-- Node130 -->
<g id="node12" class="node">
<title>Node130</title>
<g id="a_node12"><a xlink:href="de/d5c/structo2_1_1framework_1_1is__container_3_01T_00_01std_1_1conditional__t_3_01false_00_01class__mef60b0640f3a7413451971b3764fe2133.html" target="_top" xlink:title="o2::framework::is_container\l\&lt; T, std::conditional_t\l\&lt; false, class_member_checker\l\&lt; typename T::value_type, typename\l T::size_type, typename T::allocator\l_type, typename T::iterator, typename\l T::const_iterator, decltype(std::declval\l\&lt; T \&gt;().size()), decltype(std::declval\&lt;\l T \&gt;().begin()), decltype(std::declval\&lt; T\l \&gt;().end()), decltype(std::declval\&lt; T \&gt;().cbegin\l()), decltype(std::declval\&lt; T \&gt;().cend())\&gt;, void \&gt; \&gt;">
<polygon fill="none" stroke="#000000" points="99,-552 99,-681 366,-681 366,-552 99,-552"/>
<text text-anchor="start" x="107" y="-669" font-family="Helvetica,sans-Serif" font-size="10.00" fill="#000000">o2::framework::is_container</text>
<text text-anchor="start" x="107" y="-658" font-family="Helvetica,sans-Serif" font-size="10.00" fill="#000000">&lt; T, std::conditional_t</text>
<text text-anchor="start" x="107" y="-647" font-family="Helvetica,sans-Serif" font-size="10.00" fill="#000000">&lt; false, class_member_checker</text>
<text text-anchor="start" x="107" y="-636" font-family="Helvetica,sans-Serif" font-size="10.00" fill="#000000">&lt; typename T::value_type, typename</text>
<text text-anchor="start" x="107" y="-625" font-family="Helvetica,sans-Serif" font-size="10.00" fill="#000000"> T::size_type, typename T::allocator</text>
<text text-anchor="start" x="107" y="-614" font-family="Helvetica,sans-Serif" font-size="10.00" fill="#000000">_type, typename T::iterator, typename</text>
<text text-anchor="start" x="107" y="-603" font-family="Helvetica,sans-Serif" font-size="10.00" fill="#000000"> T::const_iterator, decltype(std::declval</text>
<text text-anchor="start" x="107" y="-592" font-family="Helvetica,sans-Serif" font-size="10.00" fill="#000000">&lt; T &gt;().size()), decltype(std::declval&lt;</text>
<text text-anchor="start" x="107" y="-581" font-family="Helvetica,sans-Serif" font-size="10.00" fill="#000000"> T &gt;().begin()), decltype(std::declval&lt; T</text>
<text text-anchor="start" x="107" y="-570" font-family="Helvetica,sans-Serif" font-size="10.00" fill="#000000"> &gt;().end()), decltype(std::declval&lt; T &gt;().cbegin</text>
<text text-anchor="middle" x="232.5" y="-559" font-family="Helvetica,sans-Serif" font-size="10.00" fill="#000000">()), decltype(std::declval&lt; T &gt;().cend())&gt;, void &gt; &gt;</text>
</a>
</g>
</g>
<!-- Node119&#45;&gt;Node130 -->
<g id="edge11" class="edge">
<title>Node119&#45;&gt;Node130</title>
<path fill="none" stroke="#191970" d="M73.509,-616.5C81.3099,-616.5 89.8321,-616.5 98.7478,-616.5"/>
<polygon fill="#191970" stroke="#191970" points="73.3491,-613.0001 63.349,-616.5 73.349,-620.0001 73.3491,-613.0001"/>
</g>
<!-- Node131 -->
<g id="node13" class="node">
<title>Node131</title>
<g id="a_node13"><a xlink:href="df/ddf/structo2_1_1framework_1_1is__forced__non__messageable_3_01T_00_01typename_01std_1_1enable__if_3_9497e1cc58c5001cfb1a9a57a11a8068.html" target="_top" xlink:title="o2::framework::is_forced\l_non_messageable\&lt; T, typename\l std::enable_if\&lt; std::is_same\l\&lt; typename T::non_messageable,\l MarkAsNonMessageable \&gt;::value\l \&gt;::type \&gt;">
<polygon fill="none" stroke="#000000" points="141,-458.5 141,-532.5 324,-532.5 324,-458.5 141,-458.5"/>
<text text-anchor="start" x="149" y="-520.5" font-family="Helvetica,sans-Serif" font-size="10.00" fill="#000000">o2::framework::is_forced</text>
<text text-anchor="start" x="149" y="-509.5" font-family="Helvetica,sans-Serif" font-size="10.00" fill="#000000">_non_messageable&lt; T, typename</text>
<text text-anchor="start" x="149" y="-498.5" font-family="Helvetica,sans-Serif" font-size="10.00" fill="#000000"> std::enable_if&lt; std::is_same</text>
<text text-anchor="start" x="149" y="-487.5" font-family="Helvetica,sans-Serif" font-size="10.00" fill="#000000">&lt; typename T::non_messageable,</text>
<text text-anchor="start" x="149" y="-476.5" font-family="Helvetica,sans-Serif" font-size="10.00" fill="#000000"> MarkAsNonMessageable &gt;::value</text>
<text text-anchor="middle" x="232.5" y="-465.5" font-family="Helvetica,sans-Serif" font-size="10.00" fill="#000000"> &gt;::type &gt;</text>
</a>
</g>
</g>
<!-- Node119&#45;&gt;Node131 -->
<g id="edge12" class="edge">
<title>Node119&#45;&gt;Node131</title>
<path fill="none" stroke="#191970" d="M43.7787,-598.6019C56.0231,-581.9713 76.2466,-557.5674 99,-542.5 111.8043,-534.021 126.3137,-526.8807 140.9324,-520.9308"/>
<polygon fill="#191970" stroke="#191970" points="40.7931,-596.7602 37.8317,-606.9328 46.4904,-600.8273 40.7931,-596.7602"/>
</g>
<!-- Node132 -->
<g id="node14" class="node">
<title>Node132</title>
<g id="a_node14"><a xlink:href="d2/dd2/structo2_1_1framework_1_1is__messageable_3_01o2_1_1itsmft_1_1Cluster_01_4.html" target="_top" xlink:title="o2::framework::is_messageable\l\&lt; o2::itsmft::Cluster \&gt;">
<polygon fill="none" stroke="#000000" points="146,-409.5 146,-439.5 319,-439.5 319,-409.5 146,-409.5"/>
<text text-anchor="start" x="154" y="-427.5" font-family="Helvetica,sans-Serif" font-size="10.00" fill="#000000">o2::framework::is_messageable</text>
<text text-anchor="middle" x="232.5" y="-416.5" font-family="Helvetica,sans-Serif" font-size="10.00" fill="#000000">&lt; o2::itsmft::Cluster &gt;</text>
</a>
</g>
</g>
<!-- Node119&#45;&gt;Node132 -->
<g id="edge13" class="edge">
<title>Node119&#45;&gt;Node132</title>
<path fill="none" stroke="#191970" d="M33.4492,-596.6482C38.0483,-561.2015 52.9252,-487.2108 99,-449.5 112.3205,-438.5975 128.8996,-431.88 145.7958,-427.8473"/>
<polygon fill="#191970" stroke="#191970" points="29.9578,-596.3729 32.2906,-606.7077 36.9119,-597.1739 29.9578,-596.3729"/>
</g>
<!-- Node133 -->
<g id="node15" class="node">
<title>Node133</title>
<g id="a_node15"><a xlink:href="dd/dc9/structo2_1_1framework_1_1is__messageable_3_01o2_1_1mft_1_1TrackMFT_01_4.html" target="_top" xlink:title="o2::framework::is_messageable\l\&lt; o2::mft::TrackMFT \&gt;">
<polygon fill="none" stroke="#000000" points="146,-360.5 146,-390.5 319,-390.5 319,-360.5 146,-360.5"/>
<text text-anchor="start" x="154" y="-378.5" font-family="Helvetica,sans-Serif" font-size="10.00" fill="#000000">o2::framework::is_messageable</text>
<text text-anchor="middle" x="232.5" y="-367.5" font-family="Helvetica,sans-Serif" font-size="10.00" fill="#000000">&lt; o2::mft::TrackMFT &gt;</text>
</a>
</g>
</g>
<!-- Node119&#45;&gt;Node133 -->
<g id="edge14" class="edge">
<title>Node119&#45;&gt;Node133</title>
<path fill="none" stroke="#191970" d="M34.9981,-596.7747C43.9344,-548.6369 69.0251,-427.1377 99,-400.5 112.0431,-388.909 128.7006,-381.9302 145.793,-377.8655"/>
<polygon fill="#191970" stroke="#191970" points="31.5115,-596.3861 33.1662,-606.8509 38.3986,-597.6383 31.5115,-596.3861"/>
</g>
<!-- Node134 -->
<g id="node16" class="node">
<title>Node134</title>
<g id="a_node16"><a xlink:href="d5/d34/structo2_1_1framework_1_1is__messageable_3_01o2_1_1tof_1_1Cluster_01_4.html" target="_top" xlink:title="o2::framework::is_messageable\l\&lt; o2::tof::Cluster \&gt;">
<polygon fill="none" stroke="#000000" points="146,-311.5 146,-341.5 319,-341.5 319,-311.5 146,-311.5"/>
<text text-anchor="start" x="154" y="-329.5" font-family="Helvetica,sans-Serif" font-size="10.00" fill="#000000">o2::framework::is_messageable</text>
<text text-anchor="middle" x="232.5" y="-318.5" font-family="Helvetica,sans-Serif" font-size="10.00" fill="#000000">&lt; o2::tof::Cluster &gt;</text>
</a>
</g>
</g>
<!-- Node119&#45;&gt;Node134 -->
<g id="edge15" class="edge">
<title>Node119&#45;&gt;Node134</title>
<path fill="none" stroke="#191970" d="M33.7753,-596.8632C40.6024,-541.4243 62.7119,-385.527 99,-351.5 111.8146,-339.4839 128.4769,-332.3442 145.662,-328.2605"/>
<polygon fill="#191970" stroke="#191970" points="30.2971,-596.4727 32.5822,-606.8182 37.2474,-597.3057 30.2971,-596.4727"/>
</g>
<!-- Node135 -->
<g id="node17" class="node">
<title>Node135</title>
<g id="a_node17"><a xlink:href="d2/dc9/structo2_1_1framework_1_1is__messageable_3_01o2_1_1zdc_1_1RecEvent_01_4.html" target="_top" xlink:title="o2::framework::is_messageable\l\&lt; o2::zdc::RecEvent \&gt;">
<polygon fill="none" stroke="#000000" points="146,-262.5 146,-292.5 319,-292.5 319,-262.5 146,-262.5"/>
<text text-anchor="start" x="154" y="-280.5" font-family="Helvetica,sans-Serif" font-size="10.00" fill="#000000">o2::framework::is_messageable</text>
<text text-anchor="middle" x="232.5" y="-269.5" font-family="Helvetica,sans-Serif" font-size="10.00" fill="#000000">&lt; o2::zdc::RecEvent &gt;</text>
</a>
</g>
</g>
<!-- Node119&#45;&gt;Node135 -->
<g id="edge16" class="edge">
<title>Node119&#45;&gt;Node135</title>
<path fill="none" stroke="#191970" d="M32.9563,-596.6065C37.939,-534.1994 56.4086,-343.9723 99,-302.5 111.6705,-290.1624 128.3753,-282.9081 145.663,-278.8175"/>
<polygon fill="#191970" stroke="#191970" points="29.4567,-596.4683 32.1801,-606.7071 36.4361,-597.0047 29.4567,-596.4683"/>
</g>
<!-- Node136 -->
<g id="node18" class="node">
<title>Node136</title>
<g id="a_node18"><a xlink:href="d4/d04/structo2_1_1framework_1_1is__specialization_3_01Ref_3_01Args_8_8_8_01_4_00_01Ref_01_4.html" target="_top" xlink:title="o2::framework::is_specialization\l\&lt; Ref\&lt; Args... \&gt;, Ref \&gt;">
<polygon fill="none" stroke="#000000" points="145,-213.5 145,-243.5 320,-243.5 320,-213.5 145,-213.5"/>
<text text-anchor="start" x="153" y="-231.5" font-family="Helvetica,sans-Serif" font-size="10.00" fill="#000000">o2::framework::is_specialization</text>
<text text-anchor="middle" x="232.5" y="-220.5" font-family="Helvetica,sans-Serif" font-size="10.00" fill="#000000">&lt; Ref&lt; Args... &gt;, Ref &gt;</text>
</a>
</g>
</g>
<!-- Node119&#45;&gt;Node136 -->
<g id="edge17" class="edge">
<title>Node119&#45;&gt;Node136</title>
<path fill="none" stroke="#191970" d="M32.324,-596.7249C35.5944,-528.2248 49.9707,-302.5916 99,-253.5 111.3306,-241.1537 127.6874,-233.8562 144.7125,-229.7203"/>
<polygon fill="#191970" stroke="#191970" points="28.8161,-596.824 31.8634,-606.9711 35.809,-597.1384 28.8161,-596.824"/>
</g>
<!-- Node137 -->
<g id="node19" class="node">
<title>Node137</title>
<g id="a_node19"><a xlink:href="d0/d7f/structo2_1_1framework_1_1MakeRootTreeWriterSpec_1_1StringAssignable_3_01T_00_01std_1_1enable__if66c05a5661a1f9dce6d76d2039b1dcfd.html" target="_top" xlink:title="o2::framework::MakeRootTree\lWriterSpec::StringAssignable\l\&lt; T, std::enable_if_t\&lt; std\l::is_same_v\&lt; std::decay_t\&lt; T\l \&gt;, char const * \&gt;\|\|std::is_same\l_v\&lt; std::decay_t\&lt; T \&gt;, char * \&gt;\|\l\|std::is_same_v\&lt; std::decay_t\&lt; T\l \&gt;, std::string \&gt; \&gt; \&gt;">
<polygon fill="none" stroke="#000000" points="142.5,-98.5 142.5,-194.5 322.5,-194.5 322.5,-98.5 142.5,-98.5"/>
<text text-anchor="start" x="150.5" y="-182.5" font-family="Helvetica,sans-Serif" font-size="10.00" fill="#000000">o2::framework::MakeRootTree</text>
<text text-anchor="start" x="150.5" y="-171.5" font-family="Helvetica,sans-Serif" font-size="10.00" fill="#000000">WriterSpec::StringAssignable</text>
<text text-anchor="start" x="150.5" y="-160.5" font-family="Helvetica,sans-Serif" font-size="10.00" fill="#000000">&lt; T, std::enable_if_t&lt; std</text>
<text text-anchor="start" x="150.5" y="-149.5" font-family="Helvetica,sans-Serif" font-size="10.00" fill="#000000">::is_same_v&lt; std::decay_t&lt; T</text>
<text text-anchor="start" x="150.5" y="-138.5" font-family="Helvetica,sans-Serif" font-size="10.00" fill="#000000"> &gt;, char const * &gt;||std::is_same</text>
<text text-anchor="start" x="150.5" y="-127.5" font-family="Helvetica,sans-Serif" font-size="10.00" fill="#000000">_v&lt; std::decay_t&lt; T &gt;, char * &gt;|</text>
<text text-anchor="start" x="150.5" y="-116.5" font-family="Helvetica,sans-Serif" font-size="10.00" fill="#000000">|std::is_same_v&lt; std::decay_t&lt; T</text>
<text text-anchor="middle" x="232.5" y="-105.5" font-family="Helvetica,sans-Serif" font-size="10.00" fill="#000000"> &gt;, std::string &gt; &gt; &gt;</text>
</a>
</g>
</g>
<!-- Node119&#45;&gt;Node137 -->
<g id="edge18" class="edge">
<title>Node119&#45;&gt;Node137</title>
<path fill="none" stroke="#191970" d="M32.2969,-596.408C35.5971,-522.5199 50.3855,-266.9238 99,-204.5 110.2569,-190.0455 125.845,-179.1263 142.4083,-170.8993"/>
<polygon fill="#191970" stroke="#191970" points="28.7896,-596.5096 31.8625,-606.649 35.7833,-596.8064 28.7896,-596.5096"/>
</g>
<!-- Node138 -->
<g id="node20" class="node">
<title>Node138</title>
<g id="a_node20"><a xlink:href="db/d8e/structo2_1_1soa_1_1is__index_3_01Ref_3_01Args_8_8_8_01_4_00_01Ref_01_4.html" target="_top" xlink:title="o2::soa::is_index\&lt;\l Ref\&lt; Args... \&gt;, Ref \&gt;">
<polygon fill="none" stroke="#000000" points="171.5,-49.5 171.5,-79.5 293.5,-79.5 293.5,-49.5 171.5,-49.5"/>
<text text-anchor="start" x="179.5" y="-67.5" font-family="Helvetica,sans-Serif" font-size="10.00" fill="#000000">o2::soa::is_index&lt;</text>
<text text-anchor="middle" x="232.5" y="-56.5" font-family="Helvetica,sans-Serif" font-size="10.00" fill="#000000"> Ref&lt; Args... &gt;, Ref &gt;</text>
</a>
</g>
</g>
<!-- Node119&#45;&gt;Node138 -->
<g id="edge19" class="edge">
<title>Node119&#45;&gt;Node138</title>
<path fill="none" stroke="#191970" d="M32.6718,-596.7043C38.259,-505.3357 63.4045,-127.2122 99,-89.5 117.2895,-70.1229 145.4439,-62.9812 171.1907,-61.0487"/>
<polygon fill="#191970" stroke="#191970" points="29.171,-596.6126 32.0629,-606.8051 36.1583,-597.0338 29.171,-596.6126"/>
</g>
<!-- Node139 -->
<g id="node21" class="node">
<title>Node139</title>
<g id="a_node21"><a xlink:href="dc/d6e/structstd_1_1is__trivially__copyable_3_01Point3D_3_01T_01_4_01_4.html" target="_top" xlink:title="std::is_trivially_copyable\l\&lt; Point3D\&lt; T \&gt; \&gt;">
<polygon fill="none" stroke="#000000" points="163.5,-.5 163.5,-30.5 301.5,-30.5 301.5,-.5 163.5,-.5"/>
<text text-anchor="start" x="171.5" y="-18.5" font-family="Helvetica,sans-Serif" font-size="10.00" fill="#000000">std::is_trivially_copyable</text>
<text text-anchor="middle" x="232.5" y="-7.5" font-family="Helvetica,sans-Serif" font-size="10.00" fill="#000000">&lt; Point3D&lt; T &gt; &gt;</text>
</a>
</g>
</g>
<!-- Node119&#45;&gt;Node139 -->
<g id="edge20" class="edge">
<title>Node119&#45;&gt;Node139</title>
<path fill="none" stroke="#191970" d="M32.4449,-596.7228C37.2329,-500.2659 60.1237,-82.1334 99,-40.5 115.3345,-23.007 139.7024,-15.4554 163.1658,-12.7119"/>
<polygon fill="#191970" stroke="#191970" points="28.9427,-596.6855 31.9509,-606.8442 35.9344,-597.0268 28.9427,-596.6855"/>
</g>
<!-- Node1 -->
<g id="node3" class="node">
<title>Node1</title>
<g id="a_node3"><a xlink:href="d3/d71/structnlohmann_1_1detail_1_1is__compatible__type.html" target="_top" xlink:title="nlohmann::detail::is\l_compatible_type\&lt; BasicJson\lType, CompatibleType \&gt;">
<polygon fill="none" stroke="#000000" points="402,-1253 402,-1294 563,-1294 563,-1253 402,-1253"/>
<text text-anchor="start" x="410" y="-1282" font-family="Helvetica,sans-Serif" font-size="10.00" fill="#000000">nlohmann::detail::is</text>
<text text-anchor="start" x="410" y="-1271" font-family="Helvetica,sans-Serif" font-size="10.00" fill="#000000">_compatible_type&lt; BasicJson</text>
<text text-anchor="middle" x="482.5" y="-1260" font-family="Helvetica,sans-Serif" font-size="10.00" fill="#000000">Type, CompatibleType &gt;</text>
</a>
</g>
</g>
<!-- Node0&#45;&gt;Node1 -->
<g id="edge2" class="edge">
<title>Node0&#45;&gt;Node1</title>
<path fill="none" stroke="#191970" d="M344.5832,-1273.5C363.87,-1273.5 383.5714,-1273.5 401.8243,-1273.5"/>
<polygon fill="#191970" stroke="#191970" points="344.5452,-1270.0001 334.5451,-1273.5 344.5451,-1277.0001 344.5452,-1270.0001"/>
</g>
</g>
</svg>
