<?xml version="1.0" encoding="UTF-8" standalone="no"?>
<!DOCTYPE svg PUBLIC "-//W3C//DTD SVG 1.1//EN"
 "http://www.w3.org/Graphics/SVG/1.1/DTD/svg11.dtd">
<!-- Generated by graphviz version 2.40.1 (20161225.0304)
 -->
<!-- Title: /home/travis/build/AliceO2Group/AliceO2/Framework/Utils/include/DPLUtils/RootTreeWriter.h Pages: 1 -->
<!--zoomable 339 -->
<svg id="main" version="1.1" xmlns="http://www.w3.org/2000/svg" xmlns:xlink="http://www.w3.org/1999/xlink" xml:space="preserve" onload="init(evt)">
<style type="text/css"><![CDATA[
.edge:hover path { stroke: red; }
.edge:hover polygon { stroke: red; fill: red; }
]]></style>
<script type="text/javascript"><![CDATA[
var edges = document.getElementsByTagName('g');
if (edges && edges.length) {
  for (var i=0;i<edges.length;i++) {
    if (edges[i].id.substr(0,4)=='edge') {
      edges[i].setAttribute('class','edge');
    }
  }
}
]]></script>
        <defs>
                <circle id="rim" cx="0" cy="0" r="7"/>
                <circle id="rim2" cx="0" cy="0" r="3.5"/>
                <g id="zoomPlus">
                        <use xlink:href="#rim" fill="#404040">
                                <set attributeName="fill" to="#808080" begin="zoomplus.mouseover" end="zoomplus.mouseout"/>
                        </use>
                        <path d="M-4,0h8M0,-4v8" fill="none" stroke="white" stroke-width="1.5" pointer-events="none"/>
                </g>
                <g id="zoomMin">
                        <use xlink:href="#rim" fill="#404040">
                                <set attributeName="fill" to="#808080" begin="zoomminus.mouseover" end="zoomminus.mouseout"/>
                        </use>
                        <path d="M-4,0h8" fill="none" stroke="white" stroke-width="1.5" pointer-events="none"/>
                </g>
                <g id="dirArrow">
                        <path fill="none" stroke="white" stroke-width="1.5" d="M0,-3.0v7 M-2.5,-0.5L0,-3.0L2.5,-0.5"/>
                </g>
               <g id="resetDef">
                       <use xlink:href="#rim2" fill="#404040">
                               <set attributeName="fill" to="#808080" begin="reset.mouseover" end="reset.mouseout"/>
                       </use>
               </g>
        </defs>

<script type="text/javascript">
var viewWidth = 3955;
var viewHeight = 339;
var sectionId = 'dynsection-1';
</script>
<script xlink:href="../../svgpan.js"/>
<svg id="graph" class="graph">
<g id="viewport">
<title>/home/travis/build/AliceO2Group/AliceO2/Framework/Utils/include/DPLUtils/RootTreeWriter.h</title>
<!-- Node88 -->
<g id="node1" class="node">
<title>Node88</title>
<polygon fill="#bfbfbf" stroke="#000000" points="1935.5,-278.5 1935.5,-330.5 2078.5,-330.5 2078.5,-278.5 1935.5,-278.5"/>
<text text-anchor="start" x="1943.5" y="-318.5" font-family="Helvetica,sans-Serif" font-size="10.00" fill="#000000">/home/travis/build</text>
<text text-anchor="start" x="1943.5" y="-307.5" font-family="Helvetica,sans-Serif" font-size="10.00" fill="#000000">/AliceO2Group/AliceO2</text>
<text text-anchor="start" x="1943.5" y="-296.5" font-family="Helvetica,sans-Serif" font-size="10.00" fill="#000000">/Framework/Utils/include</text>
<text text-anchor="middle" x="2007" y="-285.5" font-family="Helvetica,sans-Serif" font-size="10.00" fill="#000000">/DPLUtils/RootTreeWriter.h</text>
</g>
<!-- Node89 -->
<g id="node2" class="node">
<title>Node89</title>
<g id="a_node2"><a xlink:href="../../d5/dc8/MakeRootTreeWriterSpec_8h.html" target="_top" xlink:title="Configurable generator for RootTreeWriter processor spec. ">
<polygon fill="none" stroke="#000000" points="1910.5,-189.5 1910.5,-241.5 2103.5,-241.5 2103.5,-189.5 1910.5,-189.5"/>
<text text-anchor="start" x="1918.5" y="-229.5" font-family="Helvetica,sans-Serif" font-size="10.00" fill="#000000">/home/travis/build</text>
<text text-anchor="start" x="1918.5" y="-218.5" font-family="Helvetica,sans-Serif" font-size="10.00" fill="#000000">/AliceO2Group/AliceO2</text>
<text text-anchor="start" x="1918.5" y="-207.5" font-family="Helvetica,sans-Serif" font-size="10.00" fill="#000000">/Framework/Utils/include</text>
<text text-anchor="middle" x="2007" y="-196.5" font-family="Helvetica,sans-Serif" font-size="10.00" fill="#000000">/DPLUtils/MakeRootTreeWriterSpec.h</text>
</a>
</g>
</g>
<!-- Node88&#45;&gt;Node89 -->
<g id="edge1" class="edge">
<title>Node88&#45;&gt;Node89</title>
<path fill="none" stroke="#191970" d="M2007,-268.1155C2007,-259.2061 2007,-249.8475 2007,-241.5341"/>
<polygon fill="#191970" stroke="#191970" points="2003.5001,-268.2784 2007,-278.2784 2010.5001,-268.2785 2003.5001,-268.2784"/>
</g>
<!-- Node100 -->
<g id="node13" class="node">
<title>Node100</title>
<g id="a_node13"><a xlink:href="../../da/dcf/test__RootTreeWriter_8cxx.html" target="_top" xlink:title="/home/travis/build\l/AliceO2Group/AliceO2\l/Framework/Utils/test\l/test_RootTreeWriter.cxx">
<polygon fill="none" stroke="#000000" points="0,-95 0,-147 134,-147 134,-95 0,-95"/>
<text text-anchor="start" x="8" y="-135" font-family="Helvetica,sans-Serif" font-size="10.00" fill="#000000">/home/travis/build</text>
<text text-anchor="start" x="8" y="-124" font-family="Helvetica,sans-Serif" font-size="10.00" fill="#000000">/AliceO2Group/AliceO2</text>
<text text-anchor="start" x="8" y="-113" font-family="Helvetica,sans-Serif" font-size="10.00" fill="#000000">/Framework/Utils/test</text>
<text text-anchor="middle" x="67" y="-102" font-family="Helvetica,sans-Serif" font-size="10.00" fill="#000000">/test_RootTreeWriter.cxx</text>
</a>
</g>
</g>
<!-- Node88&#45;&gt;Node100 -->
<g id="edge34" class="edge">
<title>Node88&#45;&gt;Node100</title>
<path fill="none" stroke="#191970" d="M1925.0021,-301.2909C1611.502,-288.4876 489.0505,-237.6148 143,-153 136.6029,-151.4358 130.051,-149.4006 123.6063,-147.114"/>
<polygon fill="#191970" stroke="#191970" points="1925.235,-304.8031 1935.3689,-301.7124 1925.5194,-297.8089 1925.235,-304.8031"/>
</g>
<!-- Node101 -->
<g id="node14" class="node">
<title>Node101</title>
<g id="a_node14"><a xlink:href="../../d1/d02/test__RootTreeWriterWorkflow_8cxx.html" target="_top" xlink:title="/home/travis/build\l/AliceO2Group/AliceO2\l/Framework/Utils/test\l/test_RootTreeWriterWorkflow.cxx">
<polygon fill="none" stroke="#000000" points="3767.5,-95 3767.5,-147 3946.5,-147 3946.5,-95 3767.5,-95"/>
<text text-anchor="start" x="3775.5" y="-135" font-family="Helvetica,sans-Serif" font-size="10.00" fill="#000000">/home/travis/build</text>
<text text-anchor="start" x="3775.5" y="-124" font-family="Helvetica,sans-Serif" font-size="10.00" fill="#000000">/AliceO2Group/AliceO2</text>
<text text-anchor="start" x="3775.5" y="-113" font-family="Helvetica,sans-Serif" font-size="10.00" fill="#000000">/Framework/Utils/test</text>
<text text-anchor="middle" x="3857" y="-102" font-family="Helvetica,sans-Serif" font-size="10.00" fill="#000000">/test_RootTreeWriterWorkflow.cxx</text>
</a>
</g>
</g>
<!-- Node88&#45;&gt;Node101 -->
<g id="edge35" class="edge">
<title>Node88&#45;&gt;Node101</title>
<path fill="none" stroke="#191970" d="M2089.118,-299.9057C2390.1577,-282.674 3432.6726,-219.4682 3759,-153 3766.9797,-151.3746 3775.2187,-149.3162 3783.3726,-147.0299"/>
<polygon fill="#191970" stroke="#191970" points="2088.5084,-296.4348 2078.7243,-300.4993 2088.9076,-303.4234 2088.5084,-296.4348"/>
</g>
<!-- Node90 -->
<g id="node3" class="node">
<title>Node90</title>
<g id="a_node3"><a xlink:href="../../dd/d16/CPV_2workflow_2src_2RecoWorkflow_8cxx.html" target="_top" xlink:title="/home/travis/build\l/AliceO2Group/AliceO2\l/Detectors/CPV/workflow\l/src/RecoWorkflow.cxx">
<polygon fill="none" stroke="#000000" points="152.5,-95 152.5,-147 289.5,-147 289.5,-95 152.5,-95"/>
<text text-anchor="start" x="160.5" y="-135" font-family="Helvetica,sans-Serif" font-size="10.00" fill="#000000">/home/travis/build</text>
<text text-anchor="start" x="160.5" y="-124" font-family="Helvetica,sans-Serif" font-size="10.00" fill="#000000">/AliceO2Group/AliceO2</text>
<text text-anchor="start" x="160.5" y="-113" font-family="Helvetica,sans-Serif" font-size="10.00" fill="#000000">/Detectors/CPV/workflow</text>
<text text-anchor="middle" x="221" y="-102" font-family="Helvetica,sans-Serif" font-size="10.00" fill="#000000">/src/RecoWorkflow.cxx</text>
</a>
</g>
</g>
<!-- Node89&#45;&gt;Node90 -->
<g id="edge2" class="edge">
<title>Node89&#45;&gt;Node90</title>
<path fill="none" stroke="#191970" d="M1900.2887,-212.629C1538.6057,-202.7628 377.279,-169.9259 299,-153 292.1329,-151.5152 285.0989,-149.4622 278.2018,-147.1062"/>
<polygon fill="#191970" stroke="#191970" points="1900.4042,-216.1333 1910.4959,-212.9071 1900.595,-209.1359 1900.4042,-216.1333"/>
</g>
<!-- Node91 -->
<g id="node4" class="node">
<title>Node91</title>
<g id="a_node4"><a xlink:href="../../d2/dbf/EMCAL_2workflow_2src_2RecoWorkflow_8cxx.html" target="_top" xlink:title="/home/travis/build\l/AliceO2Group/AliceO2\l/Detectors/EMCAL/workflow\l/src/RecoWorkflow.cxx">
<polygon fill="none" stroke="#000000" points="308,-95 308,-147 458,-147 458,-95 308,-95"/>
<text text-anchor="start" x="316" y="-135" font-family="Helvetica,sans-Serif" font-size="10.00" fill="#000000">/home/travis/build</text>
<text text-anchor="start" x="316" y="-124" font-family="Helvetica,sans-Serif" font-size="10.00" fill="#000000">/AliceO2Group/AliceO2</text>
<text text-anchor="start" x="316" y="-113" font-family="Helvetica,sans-Serif" font-size="10.00" fill="#000000">/Detectors/EMCAL/workflow</text>
<text text-anchor="middle" x="383" y="-102" font-family="Helvetica,sans-Serif" font-size="10.00" fill="#000000">/src/RecoWorkflow.cxx</text>
</a>
</g>
</g>
<!-- Node89&#45;&gt;Node91 -->
<g id="edge3" class="edge">
<title>Node89&#45;&gt;Node91</title>
<path fill="none" stroke="#191970" d="M1899.873,-213.1801C1573.4834,-205.8291 605.1693,-181.8285 466,-153 458.7412,-151.4964 451.2865,-149.4316 443.9645,-147.069"/>
<polygon fill="#191970" stroke="#191970" points="1900.2006,-216.6882 1910.2767,-213.4136 1900.3578,-209.69 1900.2006,-216.6882"/>
</g>
<!-- Node92 -->
<g id="node5" class="node">
<title>Node92</title>
<g id="a_node5"><a xlink:href="../../d3/d52/TrackWriterTPCITSSpec_8cxx.html" target="_top" xlink:title="/home/travis/build\l/AliceO2Group/AliceO2\l/Detectors/GlobalTrackingWorkflow\l/src/TrackWriterTPCITSSpec.cxx">
<polygon fill="none" stroke="#000000" points="475.5,-95 475.5,-147 662.5,-147 662.5,-95 475.5,-95"/>
<text text-anchor="start" x="483.5" y="-135" font-family="Helvetica,sans-Serif" font-size="10.00" fill="#000000">/home/travis/build</text>
<text text-anchor="start" x="483.5" y="-124" font-family="Helvetica,sans-Serif" font-size="10.00" fill="#000000">/AliceO2Group/AliceO2</text>
<text text-anchor="start" x="483.5" y="-113" font-family="Helvetica,sans-Serif" font-size="10.00" fill="#000000">/Detectors/GlobalTrackingWorkflow</text>
<text text-anchor="middle" x="569" y="-102" font-family="Helvetica,sans-Serif" font-size="10.00" fill="#000000">/src/TrackWriterTPCITSSpec.cxx</text>
</a>
</g>
</g>
<!-- Node89&#45;&gt;Node92 -->
<g id="edge4" class="edge">
<title>Node89&#45;&gt;Node92</title>
<path fill="none" stroke="#191970" d="M1899.8884,-214.0373C1626.1864,-209.7308 906.1865,-194.6738 671,-153 662.3195,-151.4619 653.3487,-149.3928 644.4941,-147.0429"/>
<polygon fill="#191970" stroke="#191970" points="1900.17,-217.542 1910.2233,-214.1981 1900.279,-210.5428 1900.17,-217.542"/>
</g>
<!-- Node93 -->
<g id="node6" class="node">
<title>Node93</title>
<g id="a_node6"><a xlink:href="../../d2/d27/TPCResidualWriterSpec_8cxx.html" target="_top" xlink:title="/home/travis/build\l/AliceO2Group/AliceO2\l/Detectors/GlobalTrackingWorkflow\l/tpcinterpolationworkflow/src\l/TPCResidualWriterSpec.cxx">
<polygon fill="none" stroke="#000000" points="680.5,-89.5 680.5,-152.5 867.5,-152.5 867.5,-89.5 680.5,-89.5"/>
<text text-anchor="start" x="688.5" y="-140.5" font-family="Helvetica,sans-Serif" font-size="10.00" fill="#000000">/home/travis/build</text>
<text text-anchor="start" x="688.5" y="-129.5" font-family="Helvetica,sans-Serif" font-size="10.00" fill="#000000">/AliceO2Group/AliceO2</text>
<text text-anchor="start" x="688.5" y="-118.5" font-family="Helvetica,sans-Serif" font-size="10.00" fill="#000000">/Detectors/GlobalTrackingWorkflow</text>
<text text-anchor="start" x="688.5" y="-107.5" font-family="Helvetica,sans-Serif" font-size="10.00" fill="#000000">/tpcinterpolationworkflow/src</text>
<text text-anchor="middle" x="774" y="-96.5" font-family="Helvetica,sans-Serif" font-size="10.00" fill="#000000">/TPCResidualWriterSpec.cxx</text>
</a>
</g>
</g>
<!-- Node89&#45;&gt;Node93 -->
<g id="edge5" class="edge">
<title>Node89&#45;&gt;Node93</title>
<path fill="none" stroke="#191970" d="M1900.2499,-212.9435C1657.7636,-206.5931 1071.4421,-188.029 877,-153 873.8672,-152.4356 870.6962,-151.8051 867.506,-151.1197"/>
<polygon fill="#191970" stroke="#191970" points="1900.3962,-216.4483 1910.4838,-213.2095 1900.5782,-209.4507 1900.3962,-216.4483"/>
</g>
<!-- Node94 -->
<g id="node7" class="node">
<title>Node94</title>
<g id="a_node7"><a xlink:href="../../d2/de0/MUON_2MID_2Workflow_2src_2RecoWorkflow_8cxx.html" target="_top" xlink:title="Definition of MID reconstruction workflow. ">
<polygon fill="none" stroke="#000000" points="886,-95 886,-147 1056,-147 1056,-95 886,-95"/>
<text text-anchor="start" x="894" y="-135" font-family="Helvetica,sans-Serif" font-size="10.00" fill="#000000">/home/travis/build</text>
<text text-anchor="start" x="894" y="-124" font-family="Helvetica,sans-Serif" font-size="10.00" fill="#000000">/AliceO2Group/AliceO2</text>
<text text-anchor="start" x="894" y="-113" font-family="Helvetica,sans-Serif" font-size="10.00" fill="#000000">/Detectors/MUON/MID/Workflow</text>
<text text-anchor="middle" x="971" y="-102" font-family="Helvetica,sans-Serif" font-size="10.00" fill="#000000">/src/RecoWorkflow.cxx</text>
</a>
</g>
</g>
<!-- Node89&#45;&gt;Node94 -->
<g id="edge6" class="edge">
<title>Node89&#45;&gt;Node94</title>
<path fill="none" stroke="#191970" d="M1900.111,-211.928C1688.2676,-204.2698 1222.0481,-184.3753 1065,-153 1057.1391,-151.4295 1049.0326,-149.3738 1041.029,-147.0609"/>
<polygon fill="#191970" stroke="#191970" points="1900.1928,-215.4331 1910.312,-212.2944 1900.4441,-208.4376 1900.1928,-215.4331"/>
</g>
<!-- Node95 -->
<g id="node8" class="node">
<title>Node95</title>
<g id="a_node8"><a xlink:href="../../dd/d65/RecoWorkflowMC_8cxx.html" target="_top" xlink:title="Definition of MID reconstruction workflow for MC. ">
<polygon fill="none" stroke="#000000" points="1074,-95 1074,-147 1244,-147 1244,-95 1074,-95"/>
<text text-anchor="start" x="1082" y="-135" font-family="Helvetica,sans-Serif" font-size="10.00" fill="#000000">/home/travis/build</text>
<text text-anchor="start" x="1082" y="-124" font-family="Helvetica,sans-Serif" font-size="10.00" fill="#000000">/AliceO2Group/AliceO2</text>
<text text-anchor="start" x="1082" y="-113" font-family="Helvetica,sans-Serif" font-size="10.00" fill="#000000">/Detectors/MUON/MID/Workflow</text>
<text text-anchor="middle" x="1159" y="-102" font-family="Helvetica,sans-Serif" font-size="10.00" fill="#000000">/src/RecoWorkflowMC.cxx</text>
</a>
</g>
</g>
<!-- Node89&#45;&gt;Node95 -->
<g id="edge7" class="edge">
<title>Node89&#45;&gt;Node95</title>
<path fill="none" stroke="#191970" d="M1900.137,-209.8823C1722.3936,-199.9945 1373.6229,-178.1317 1253,-153 1245.2367,-151.3825 1237.2283,-149.3131 1229.3135,-147.0064"/>
<polygon fill="#191970" stroke="#191970" points="1900.1139,-213.3863 1910.2921,-210.4445 1900.5009,-206.397 1900.1139,-213.3863"/>
</g>
<!-- Node96 -->
<g id="node9" class="node">
<title>Node96</title>
<g id="a_node9"><a xlink:href="../../d8/d7e/PHOS_2workflow_2src_2RecoWorkflow_8cxx.html" target="_top" xlink:title="/home/travis/build\l/AliceO2Group/AliceO2\l/Detectors/PHOS/workflow\l/src/RecoWorkflow.cxx">
<polygon fill="none" stroke="#000000" points="1262,-95 1262,-147 1406,-147 1406,-95 1262,-95"/>
<text text-anchor="start" x="1270" y="-135" font-family="Helvetica,sans-Serif" font-size="10.00" fill="#000000">/home/travis/build</text>
<text text-anchor="start" x="1270" y="-124" font-family="Helvetica,sans-Serif" font-size="10.00" fill="#000000">/AliceO2Group/AliceO2</text>
<text text-anchor="start" x="1270" y="-113" font-family="Helvetica,sans-Serif" font-size="10.00" fill="#000000">/Detectors/PHOS/workflow</text>
<text text-anchor="middle" x="1334" y="-102" font-family="Helvetica,sans-Serif" font-size="10.00" fill="#000000">/src/RecoWorkflow.cxx</text>
</a>
</g>
</g>
<!-- Node89&#45;&gt;Node96 -->
<g id="edge8" class="edge">
<title>Node89&#45;&gt;Node96</title>
<path fill="none" stroke="#191970" d="M1900.1437,-207.7092C1755.2374,-196.5435 1504.2566,-174.9101 1415,-153 1408.3921,-151.3779 1401.6045,-149.3374 1394.9045,-147.0755"/>
<polygon fill="#191970" stroke="#191970" points="1900.1516,-211.22 1910.3899,-208.4949 1900.6868,-204.2404 1900.1516,-211.22"/>
</g>
<!-- Node97 -->
<g id="node10" class="node">
<title>Node97</title>
<g id="a_node10"><a xlink:href="../../d0/d80/TPC_2workflow_2src_2RecoWorkflow_8cxx.html" target="_top" xlink:title="/home/travis/build\l/AliceO2Group/AliceO2\l/Detectors/TPC/workflow\l/src/RecoWorkflow.cxx">
<polygon fill="none" stroke="#000000" points="1424,-95 1424,-147 1560,-147 1560,-95 1424,-95"/>
<text text-anchor="start" x="1432" y="-135" font-family="Helvetica,sans-Serif" font-size="10.00" fill="#000000">/home/travis/build</text>
<text text-anchor="start" x="1432" y="-124" font-family="Helvetica,sans-Serif" font-size="10.00" fill="#000000">/AliceO2Group/AliceO2</text>
<text text-anchor="start" x="1432" y="-113" font-family="Helvetica,sans-Serif" font-size="10.00" fill="#000000">/Detectors/TPC/workflow</text>
<text text-anchor="middle" x="1492" y="-102" font-family="Helvetica,sans-Serif" font-size="10.00" fill="#000000">/src/RecoWorkflow.cxx</text>
</a>
</g>
</g>
<!-- Node89&#45;&gt;Node97 -->
<g id="edge9" class="edge">
<title>Node89&#45;&gt;Node97</title>
<path fill="none" stroke="#191970" d="M1899.9834,-207.6275C1810.5804,-199.2914 1680.3703,-183.034 1570,-153 1563.7857,-151.309 1557.4034,-149.2539 1551.0944,-147.0099"/>
<polygon fill="#191970" stroke="#191970" points="1899.8574,-211.1305 1910.1347,-208.5564 1900.4953,-204.1597 1899.8574,-211.1305"/>
</g>
<!-- Node98 -->
<g id="node11" class="node">
<title>Node98</title>
<g id="a_node11"><a xlink:href="../../dd/d1a/TRDDigitWriterSpec_8cxx.html" target="_top" xlink:title="/home/travis/build\l/AliceO2Group/AliceO2\l/Detectors/TRD/workflow\l/src/TRDDigitWriterSpec.cxx">
<polygon fill="none" stroke="#000000" points="1578.5,-95 1578.5,-147 1731.5,-147 1731.5,-95 1578.5,-95"/>
<text text-anchor="start" x="1586.5" y="-135" font-family="Helvetica,sans-Serif" font-size="10.00" fill="#000000">/home/travis/build</text>
<text text-anchor="start" x="1586.5" y="-124" font-family="Helvetica,sans-Serif" font-size="10.00" fill="#000000">/AliceO2Group/AliceO2</text>
<text text-anchor="start" x="1586.5" y="-113" font-family="Helvetica,sans-Serif" font-size="10.00" fill="#000000">/Detectors/TRD/workflow</text>
<text text-anchor="middle" x="1655" y="-102" font-family="Helvetica,sans-Serif" font-size="10.00" fill="#000000">/src/TRDDigitWriterSpec.cxx</text>
</a>
</g>
</g>
<!-- Node89&#45;&gt;Node98 -->
<g id="edge10" class="edge">
<title>Node89&#45;&gt;Node98</title>
<path fill="none" stroke="#191970" d="M1900.2252,-193.6236C1851.3177,-182.7843 1792.8291,-168.6641 1741,-153 1735.0527,-151.2026 1728.9216,-149.2101 1722.8006,-147.1238"/>
<polygon fill="#191970" stroke="#191970" points="1899.6731,-197.0858 1910.1917,-195.8166 1901.1775,-190.2494 1899.6731,-197.0858"/>
</g>
<!-- Node99 -->
<g id="node12" class="node">
<title>Node99</title>
<g id="a_node12"><a xlink:href="../../d0/dfb/TRDTrackletWriterSpec_8cxx.html" target="_top" xlink:title="/home/travis/build\l/AliceO2Group/AliceO2\l/Detectors/TRD/workflow\l/src/TRDTrackletWriterSpec.cxx">
<polygon fill="none" stroke="#000000" points="1750,-95 1750,-147 1918,-147 1918,-95 1750,-95"/>
<text text-anchor="start" x="1758" y="-135" font-family="Helvetica,sans-Serif" font-size="10.00" fill="#000000">/home/travis/build</text>
<text text-anchor="start" x="1758" y="-124" font-family="Helvetica,sans-Serif" font-size="10.00" fill="#000000">/AliceO2Group/AliceO2</text>
<text text-anchor="start" x="1758" y="-113" font-family="Helvetica,sans-Serif" font-size="10.00" fill="#000000">/Detectors/TRD/workflow</text>
<text text-anchor="middle" x="1834" y="-102" font-family="Helvetica,sans-Serif" font-size="10.00" fill="#000000">/src/TRDTrackletWriterSpec.cxx</text>
</a>
</g>
</g>
<!-- Node89&#45;&gt;Node99 -->
<g id="edge11" class="edge">
<title>Node89&#45;&gt;Node99</title>
<path fill="none" stroke="#191970" d="M1950.3079,-184.5324C1928.1758,-172.4429 1903.0775,-158.7331 1881.8752,-147.1515"/>
<polygon fill="#191970" stroke="#191970" points="1948.8151,-187.705 1959.269,-189.4273 1952.1708,-181.5618 1948.8151,-187.705"/>
</g>
<!-- Node89&#45;&gt;Node100 -->
<g id="edge12" class="edge">
<title>Node89&#45;&gt;Node100</title>
<path fill="none" stroke="#191970" d="M1900.1837,-212.4416C1510.5484,-201.2193 186.1413,-162.4671 143,-153 136.2879,-151.5271 129.4209,-149.4815 122.6932,-147.1298"/>
<polygon fill="#191970" stroke="#191970" points="1900.2297,-215.9443 1910.3263,-212.7336 1900.4312,-208.9472 1900.2297,-215.9443"/>
</g>
<!-- Node89&#45;&gt;Node101 -->
<g id="edge13" class="edge">
<title>Node89&#45;&gt;Node101</title>
<path fill="none" stroke="#191970" d="M2113.922,-212.5104C2481.9026,-202.1137 3677.9331,-167.3866 3759,-153 3767.4588,-151.4988 3776.1909,-149.4356 3784.7964,-147.0739"/>
<polygon fill="#191970" stroke="#191970" points="2113.7011,-209.0151 2103.8038,-212.796 2113.8986,-216.0124 2113.7011,-209.0151"/>
</g>
<!-- Node102 -->
<g id="node15" class="node">
<title>Node102</title>
<g id="a_node15"><a xlink:href="../../d1/dc0/CPVDigitWriterSpec_8h.html" target="_top" xlink:title="/home/travis/build\l/AliceO2Group/AliceO2\l/Steer/DigitizerWorkflow\l/src/CPVDigitWriterSpec.h">
<polygon fill="none" stroke="#000000" points="1936.5,-95 1936.5,-147 2077.5,-147 2077.5,-95 1936.5,-95"/>
<text text-anchor="start" x="1944.5" y="-135" font-family="Helvetica,sans-Serif" font-size="10.00" fill="#000000">/home/travis/build</text>
<text text-anchor="start" x="1944.5" y="-124" font-family="Helvetica,sans-Serif" font-size="10.00" fill="#000000">/AliceO2Group/AliceO2</text>
<text text-anchor="start" x="1944.5" y="-113" font-family="Helvetica,sans-Serif" font-size="10.00" fill="#000000">/Steer/DigitizerWorkflow</text>
<text text-anchor="middle" x="2007" y="-102" font-family="Helvetica,sans-Serif" font-size="10.00" fill="#000000">/src/CPVDigitWriterSpec.h</text>
</a>
</g>
</g>
<!-- Node89&#45;&gt;Node102 -->
<g id="edge14" class="edge">
<title>Node89&#45;&gt;Node102</title>
<path fill="none" stroke="#191970" d="M2007,-179.1645C2007,-168.5577 2007,-157.1746 2007,-147.3157"/>
<polygon fill="#191970" stroke="#191970" points="2003.5001,-179.4273 2007,-189.4273 2010.5001,-179.4273 2003.5001,-179.4273"/>
</g>
<!-- Node104 -->
<g id="node17" class="node">
<title>Node104</title>
<g id="a_node17"><a xlink:href="../../d9/db2/EMCALDigitWriterSpec_8cxx.html" target="_top" xlink:title="/home/travis/build\l/AliceO2Group/AliceO2\l/Steer/DigitizerWorkflow\l/src/EMCALDigitWriterSpec.cxx">
<polygon fill="none" stroke="#000000" points="2096,-95 2096,-147 2262,-147 2262,-95 2096,-95"/>
<text text-anchor="start" x="2104" y="-135" font-family="Helvetica,sans-Serif" font-size="10.00" fill="#000000">/home/travis/build</text>
<text text-anchor="start" x="2104" y="-124" font-family="Helvetica,sans-Serif" font-size="10.00" fill="#000000">/AliceO2Group/AliceO2</text>
<text text-anchor="start" x="2104" y="-113" font-family="Helvetica,sans-Serif" font-size="10.00" fill="#000000">/Steer/DigitizerWorkflow</text>
<text text-anchor="middle" x="2179" y="-102" font-family="Helvetica,sans-Serif" font-size="10.00" fill="#000000">/src/EMCALDigitWriterSpec.cxx</text>
</a>
</g>
</g>
<!-- Node89&#45;&gt;Node104 -->
<g id="edge16" class="edge">
<title>Node89&#45;&gt;Node104</title>
<path fill="none" stroke="#191970" d="M2063.3644,-184.5324C2085.3686,-172.4429 2110.3218,-158.7331 2131.4015,-147.1515"/>
<polygon fill="#191970" stroke="#191970" points="2061.534,-181.5445 2054.4551,-189.4273 2064.9048,-187.6795 2061.534,-181.5445"/>
</g>
<!-- Node105 -->
<g id="node18" class="node">
<title>Node105</title>
<g id="a_node18"><a xlink:href="../../d8/dcd/FDDDigitWriterSpec_8h.html" target="_top" xlink:title="/home/travis/build\l/AliceO2Group/AliceO2\l/Steer/DigitizerWorkflow\l/src/FDDDigitWriterSpec.h">
<polygon fill="none" stroke="#000000" points="2280,-95 2280,-147 2422,-147 2422,-95 2280,-95"/>
<text text-anchor="start" x="2288" y="-135" font-family="Helvetica,sans-Serif" font-size="10.00" fill="#000000">/home/travis/build</text>
<text text-anchor="start" x="2288" y="-124" font-family="Helvetica,sans-Serif" font-size="10.00" fill="#000000">/AliceO2Group/AliceO2</text>
<text text-anchor="start" x="2288" y="-113" font-family="Helvetica,sans-Serif" font-size="10.00" fill="#000000">/Steer/DigitizerWorkflow</text>
<text text-anchor="middle" x="2351" y="-102" font-family="Helvetica,sans-Serif" font-size="10.00" fill="#000000">/src/FDDDigitWriterSpec.h</text>
</a>
</g>
</g>
<!-- Node89&#45;&gt;Node105 -->
<g id="edge17" class="edge">
<title>Node89&#45;&gt;Node105</title>
<path fill="none" stroke="#191970" d="M2113.4419,-194.0692C2161.9555,-183.3417 2219.8515,-169.1862 2271,-153 2276.7047,-151.1947 2282.5798,-149.1723 2288.4328,-147.0448"/>
<polygon fill="#191970" stroke="#191970" points="2112.5724,-190.6767 2103.554,-196.2371 2114.0716,-197.5143 2112.5724,-190.6767"/>
</g>
<!-- Node106 -->
<g id="node19" class="node">
<title>Node106</title>
<g id="a_node19"><a xlink:href="../../d4/d85/FT0DigitWriterSpec_8h.html" target="_top" xlink:title="/home/travis/build\l/AliceO2Group/AliceO2\l/Steer/DigitizerWorkflow\l/src/FT0DigitWriterSpec.h">
<polygon fill="none" stroke="#000000" points="2440.5,-95 2440.5,-147 2579.5,-147 2579.5,-95 2440.5,-95"/>
<text text-anchor="start" x="2448.5" y="-135" font-family="Helvetica,sans-Serif" font-size="10.00" fill="#000000">/home/travis/build</text>
<text text-anchor="start" x="2448.5" y="-124" font-family="Helvetica,sans-Serif" font-size="10.00" fill="#000000">/AliceO2Group/AliceO2</text>
<text text-anchor="start" x="2448.5" y="-113" font-family="Helvetica,sans-Serif" font-size="10.00" fill="#000000">/Steer/DigitizerWorkflow</text>
<text text-anchor="middle" x="2510" y="-102" font-family="Helvetica,sans-Serif" font-size="10.00" fill="#000000">/src/FT0DigitWriterSpec.h</text>
</a>
</g>
</g>
<!-- Node89&#45;&gt;Node106 -->
<g id="edge19" class="edge">
<title>Node89&#45;&gt;Node106</title>
<path fill="none" stroke="#191970" d="M2114.0131,-206.8453C2200.6218,-198.1491 2325.1612,-181.7919 2431,-153 2437.1399,-151.3297 2443.446,-149.3177 2449.6893,-147.1259"/>
<polygon fill="#191970" stroke="#191970" points="2113.5154,-203.3774 2103.9075,-207.8426 2114.2029,-210.3435 2113.5154,-203.3774"/>
</g>
<!-- Node107 -->
<g id="node20" class="node">
<title>Node107</title>
<g id="a_node20"><a xlink:href="../../d3/d12/FV0DigitWriterSpec_8h.html" target="_top" xlink:title="/home/travis/build\l/AliceO2Group/AliceO2\l/Steer/DigitizerWorkflow\l/src/FV0DigitWriterSpec.h">
<polygon fill="none" stroke="#000000" points="2598,-95 2598,-147 2738,-147 2738,-95 2598,-95"/>
<text text-anchor="start" x="2606" y="-135" font-family="Helvetica,sans-Serif" font-size="10.00" fill="#000000">/home/travis/build</text>
<text text-anchor="start" x="2606" y="-124" font-family="Helvetica,sans-Serif" font-size="10.00" fill="#000000">/AliceO2Group/AliceO2</text>
<text text-anchor="start" x="2606" y="-113" font-family="Helvetica,sans-Serif" font-size="10.00" fill="#000000">/Steer/DigitizerWorkflow</text>
<text text-anchor="middle" x="2668" y="-102" font-family="Helvetica,sans-Serif" font-size="10.00" fill="#000000">/src/FV0DigitWriterSpec.h</text>
</a>
</g>
</g>
<!-- Node89&#45;&gt;Node107 -->
<g id="edge21" class="edge">
<title>Node89&#45;&gt;Node107</title>
<path fill="none" stroke="#191970" d="M2113.844,-207.5964C2256.5987,-196.421 2501.7087,-174.9102 2589,-153 2595.4586,-151.3789 2602.0877,-149.3389 2608.6277,-147.0774"/>
<polygon fill="#191970" stroke="#191970" points="2113.444,-204.1169 2103.7461,-208.3831 2113.9878,-211.0957 2113.444,-204.1169"/>
</g>
<!-- Node108 -->
<g id="node21" class="node">
<title>Node108</title>
<g id="a_node21"><a xlink:href="../../d5/d5b/HMPIDDigitWriterSpec_8h.html" target="_top" xlink:title="/home/travis/build\l/AliceO2Group/AliceO2\l/Steer/DigitizerWorkflow\l/src/HMPIDDigitWriterSpec.h">
<polygon fill="none" stroke="#000000" points="2756,-95 2756,-147 2910,-147 2910,-95 2756,-95"/>
<text text-anchor="start" x="2764" y="-135" font-family="Helvetica,sans-Serif" font-size="10.00" fill="#000000">/home/travis/build</text>
<text text-anchor="start" x="2764" y="-124" font-family="Helvetica,sans-Serif" font-size="10.00" fill="#000000">/AliceO2Group/AliceO2</text>
<text text-anchor="start" x="2764" y="-113" font-family="Helvetica,sans-Serif" font-size="10.00" fill="#000000">/Steer/DigitizerWorkflow</text>
<text text-anchor="middle" x="2833" y="-102" font-family="Helvetica,sans-Serif" font-size="10.00" fill="#000000">/src/HMPIDDigitWriterSpec.h</text>
</a>
</g>
</g>
<!-- Node89&#45;&gt;Node108 -->
<g id="edge23" class="edge">
<title>Node89&#45;&gt;Node108</title>
<path fill="none" stroke="#191970" d="M2113.6734,-210.0651C2288.752,-200.5444 2629.3658,-179.3349 2747,-153 2754.1511,-151.3991 2761.509,-149.3403 2768.7685,-147.0399"/>
<polygon fill="#191970" stroke="#191970" points="2113.4635,-206.5712 2103.6671,-210.6063 2113.8416,-213.561 2113.4635,-206.5712"/>
</g>
<!-- Node109 -->
<g id="node22" class="node">
<title>Node109</title>
<g id="a_node22"><a xlink:href="../../d8/d60/MCHDigitWriterSpec_8h.html" target="_top" xlink:title="/home/travis/build\l/AliceO2Group/AliceO2\l/Steer/DigitizerWorkflow\l/src/MCHDigitWriterSpec.h">
<polygon fill="none" stroke="#000000" points="2928,-95 2928,-147 3072,-147 3072,-95 2928,-95"/>
<text text-anchor="start" x="2936" y="-135" font-family="Helvetica,sans-Serif" font-size="10.00" fill="#000000">/home/travis/build</text>
<text text-anchor="start" x="2936" y="-124" font-family="Helvetica,sans-Serif" font-size="10.00" fill="#000000">/AliceO2Group/AliceO2</text>
<text text-anchor="start" x="2936" y="-113" font-family="Helvetica,sans-Serif" font-size="10.00" fill="#000000">/Steer/DigitizerWorkflow</text>
<text text-anchor="middle" x="3000" y="-102" font-family="Helvetica,sans-Serif" font-size="10.00" fill="#000000">/src/MCHDigitWriterSpec.h</text>
</a>
</g>
</g>
<!-- Node89&#45;&gt;Node109 -->
<g id="edge25" class="edge">
<title>Node89&#45;&gt;Node109</title>
<path fill="none" stroke="#191970" d="M2114.0456,-212.2878C2320.9415,-205.4 2768.5793,-187.0056 2919,-153 2925.9315,-151.433 2933.0481,-149.3627 2940.0482,-147.0269"/>
<polygon fill="#191970" stroke="#191970" points="2113.6548,-208.7987 2103.7757,-212.6268 2113.8858,-215.7949 2113.6548,-208.7987"/>
</g>
<!-- Node110 -->
<g id="node23" class="node">
<title>Node110</title>
<g id="a_node23"><a xlink:href="../../d9/d65/MIDDigitWriterSpec_8h.html" target="_top" xlink:title="/home/travis/build\l/AliceO2Group/AliceO2\l/Steer/DigitizerWorkflow\l/src/MIDDigitWriterSpec.h">
<polygon fill="none" stroke="#000000" points="3090,-95 3090,-147 3230,-147 3230,-95 3090,-95"/>
<text text-anchor="start" x="3098" y="-135" font-family="Helvetica,sans-Serif" font-size="10.00" fill="#000000">/home/travis/build</text>
<text text-anchor="start" x="3098" y="-124" font-family="Helvetica,sans-Serif" font-size="10.00" fill="#000000">/AliceO2Group/AliceO2</text>
<text text-anchor="start" x="3098" y="-113" font-family="Helvetica,sans-Serif" font-size="10.00" fill="#000000">/Steer/DigitizerWorkflow</text>
<text text-anchor="middle" x="3160" y="-102" font-family="Helvetica,sans-Serif" font-size="10.00" fill="#000000">/src/MIDDigitWriterSpec.h</text>
</a>
</g>
</g>
<!-- Node89&#45;&gt;Node110 -->
<g id="edge27" class="edge">
<title>Node89&#45;&gt;Node110</title>
<path fill="none" stroke="#191970" d="M2113.7395,-213.7027C2347.6617,-209.0468 2899.1017,-193.9618 3081,-153 3087.785,-151.4721 3094.7415,-149.4266 3101.5778,-147.105"/>
<polygon fill="#191970" stroke="#191970" points="2113.449,-210.2077 2103.5197,-213.9035 2113.5866,-217.2063 2113.449,-210.2077"/>
</g>
<!-- Node111 -->
<g id="node24" class="node">
<title>Node111</title>
<g id="a_node24"><a xlink:href="../../d4/d33/PHOSDigitWriterSpec_8h.html" target="_top" xlink:title="/home/travis/build\l/AliceO2Group/AliceO2\l/Steer/DigitizerWorkflow\l/src/PHOSDigitWriterSpec.h">
<polygon fill="none" stroke="#000000" points="3248.5,-95 3248.5,-147 3397.5,-147 3397.5,-95 3248.5,-95"/>
<text text-anchor="start" x="3256.5" y="-135" font-family="Helvetica,sans-Serif" font-size="10.00" fill="#000000">/home/travis/build</text>
<text text-anchor="start" x="3256.5" y="-124" font-family="Helvetica,sans-Serif" font-size="10.00" fill="#000000">/AliceO2Group/AliceO2</text>
<text text-anchor="start" x="3256.5" y="-113" font-family="Helvetica,sans-Serif" font-size="10.00" fill="#000000">/Steer/DigitizerWorkflow</text>
<text text-anchor="middle" x="3323" y="-102" font-family="Helvetica,sans-Serif" font-size="10.00" fill="#000000">/src/PHOSDigitWriterSpec.h</text>
</a>
</g>
</g>
<!-- Node89&#45;&gt;Node111 -->
<g id="edge29" class="edge">
<title>Node89&#45;&gt;Node111</title>
<path fill="none" stroke="#191970" d="M2113.6979,-214.36C2372.0448,-210.912 3025.5935,-197.8913 3239,-153 3246.1776,-151.4902 3253.551,-149.4561 3260.8065,-147.1412"/>
<polygon fill="#191970" stroke="#191970" points="2113.5103,-210.862 2103.5571,-214.4931 2113.6023,-217.8614 2113.5103,-210.862"/>
</g>
<!-- Node112 -->
<g id="node25" class="node">
<title>Node112</title>
<g id="a_node25"><a xlink:href="../../d9/d31/ZDCDigitWriterSpec_8h.html" target="_top" xlink:title="/home/travis/build\l/AliceO2Group/AliceO2\l/Steer/DigitizerWorkflow\l/src/ZDCDigitWriterSpec.h">
<polygon fill="none" stroke="#000000" points="3415.5,-95 3415.5,-147 3558.5,-147 3558.5,-95 3415.5,-95"/>
<text text-anchor="start" x="3423.5" y="-135" font-family="Helvetica,sans-Serif" font-size="10.00" fill="#000000">/home/travis/build</text>
<text text-anchor="start" x="3423.5" y="-124" font-family="Helvetica,sans-Serif" font-size="10.00" fill="#000000">/AliceO2Group/AliceO2</text>
<text text-anchor="start" x="3423.5" y="-113" font-family="Helvetica,sans-Serif" font-size="10.00" fill="#000000">/Steer/DigitizerWorkflow</text>
<text text-anchor="middle" x="3487" y="-102" font-family="Helvetica,sans-Serif" font-size="10.00" fill="#000000">/src/ZDCDigitWriterSpec.h</text>
</a>
</g>
</g>
<!-- Node89&#45;&gt;Node112 -->
<g id="edge31" class="edge">
<title>Node89&#45;&gt;Node112</title>
<path fill="none" stroke="#191970" d="M2113.7738,-212.7944C2419.1197,-204.7678 3282.076,-179.9611 3407,-153 3414.0186,-151.4852 3421.2178,-149.4135 3428.283,-147.0469"/>
<polygon fill="#191970" stroke="#191970" points="2113.492,-209.3005 2103.5872,-213.0614 2113.6755,-216.2981 2113.492,-209.3005"/>
</g>
<!-- Node113 -->
<g id="node26" class="node">
<title>Node113</title>
<g id="a_node26"><a xlink:href="../../d8/dd2/TPCDigitRootWriterSpec_8cxx.html" target="_top" xlink:title="/home/travis/build\l/AliceO2Group/AliceO2\l/Steer/DigitizerWorkflow\l/src/TPCDigitRootWriterSpec.cxx">
<polygon fill="none" stroke="#000000" points="3576.5,-95 3576.5,-147 3749.5,-147 3749.5,-95 3576.5,-95"/>
<text text-anchor="start" x="3584.5" y="-135" font-family="Helvetica,sans-Serif" font-size="10.00" fill="#000000">/home/travis/build</text>
<text text-anchor="start" x="3584.5" y="-124" font-family="Helvetica,sans-Serif" font-size="10.00" fill="#000000">/AliceO2Group/AliceO2</text>
<text text-anchor="start" x="3584.5" y="-113" font-family="Helvetica,sans-Serif" font-size="10.00" fill="#000000">/Steer/DigitizerWorkflow</text>
<text text-anchor="middle" x="3663" y="-102" font-family="Helvetica,sans-Serif" font-size="10.00" fill="#000000">/src/TPCDigitRootWriterSpec.cxx</text>
</a>
</g>
</g>
<!-- Node89&#45;&gt;Node113 -->
<g id="edge33" class="edge">
<title>Node89&#45;&gt;Node113</title>
<path fill="none" stroke="#191970" d="M2113.5388,-212.9905C2442.1105,-205.0062 3426.1483,-179.1735 3568,-153 3576.2151,-151.4842 3584.6893,-149.4118 3593.0367,-147.0449"/>
<polygon fill="#191970" stroke="#191970" points="2113.4516,-209.4915 2103.5394,-213.2329 2113.6213,-216.4895 2113.4516,-209.4915"/>
</g>
<!-- Node103 -->
<g id="node16" class="node">
<title>Node103</title>
<g id="a_node16"><a xlink:href="../../d2/dd7/SimpleDigitizerWorkflow_8cxx.html" target="_top" xlink:title="/home/travis/build\l/AliceO2Group/AliceO2\l/Steer/DigitizerWorkflow\l/src/SimpleDigitizerWorkflow.cxx">
<polygon fill="none" stroke="#000000" points="2745,-.5 2745,-52.5 2921,-52.5 2921,-.5 2745,-.5"/>
<text text-anchor="start" x="2753" y="-40.5" font-family="Helvetica,sans-Serif" font-size="10.00" fill="#000000">/home/travis/build</text>
<text text-anchor="start" x="2753" y="-29.5" font-family="Helvetica,sans-Serif" font-size="10.00" fill="#000000">/AliceO2Group/AliceO2</text>
<text text-anchor="start" x="2753" y="-18.5" font-family="Helvetica,sans-Serif" font-size="10.00" fill="#000000">/Steer/DigitizerWorkflow</text>
<text text-anchor="middle" x="2833" y="-7.5" font-family="Helvetica,sans-Serif" font-size="10.00" fill="#000000">/src/SimpleDigitizerWorkflow.cxx</text>
</a>
</g>
</g>
<!-- Node102&#45;&gt;Node103 -->
<g id="edge15" class="edge">
<title>Node102&#45;&gt;Node103</title>
<path fill="none" stroke="#191970" d="M2076.2198,-91.8826C2079.8351,-90.8124 2083.4424,-89.8407 2087,-89 2209.7688,-59.9895 2575.3112,-39.0376 2744.8419,-30.6043"/>
<polygon fill="#191970" stroke="#191970" points="2075.1294,-88.5566 2066.6605,-94.9228 2077.251,-95.2273 2075.1294,-88.5566"/>
</g>
<!-- Node105&#45;&gt;Node103 -->
<g id="edge18" class="edge">
<title>Node105&#45;&gt;Node103</title>
<path fill="none" stroke="#191970" d="M2422.4854,-91.7858C2425.6816,-90.788 2428.863,-89.8528 2432,-89 2537.5562,-60.3052 2662.5624,-43.4281 2744.6069,-34.5883"/>
<polygon fill="#191970" stroke="#191970" points="2421.286,-88.4958 2412.8819,-94.9473 2423.4749,-95.1448 2421.286,-88.4958"/>
</g>
<!-- Node106&#45;&gt;Node103 -->
<g id="edge20" class="edge">
<title>Node106&#45;&gt;Node103</title>
<path fill="none" stroke="#191970" d="M2581.7259,-91.4695C2584.1719,-90.615 2586.6016,-89.789 2589,-89 2639.989,-72.2266 2698.179,-57.1691 2744.9414,-46.0384"/>
<polygon fill="#191970" stroke="#191970" points="2580.4613,-88.2048 2572.2412,-94.8891 2582.8355,-94.7899 2580.4613,-88.2048"/>
</g>
<!-- Node107&#45;&gt;Node103 -->
<g id="edge22" class="edge">
<title>Node107&#45;&gt;Node103</title>
<path fill="none" stroke="#191970" d="M2722.3521,-89.8711C2743.3919,-77.821 2767.2067,-64.1816 2787.3387,-52.6515"/>
<polygon fill="#191970" stroke="#191970" points="2720.4619,-86.9202 2713.5238,-94.9273 2723.9408,-92.9945 2720.4619,-86.9202"/>
</g>
<!-- Node108&#45;&gt;Node103 -->
<g id="edge24" class="edge">
<title>Node108&#45;&gt;Node103</title>
<path fill="none" stroke="#191970" d="M2833,-84.6645C2833,-74.0577 2833,-62.6746 2833,-52.8157"/>
<polygon fill="#191970" stroke="#191970" points="2829.5001,-84.9273 2833,-94.9273 2836.5001,-84.9273 2829.5001,-84.9273"/>
</g>
<!-- Node109&#45;&gt;Node103 -->
<g id="edge26" class="edge">
<title>Node109&#45;&gt;Node103</title>
<path fill="none" stroke="#191970" d="M2944.9891,-89.8711C2923.6943,-77.821 2899.5908,-64.1816 2879.2148,-52.6515"/>
<polygon fill="#191970" stroke="#191970" points="2943.4975,-93.0485 2953.9244,-94.9273 2946.9449,-86.9563 2943.4975,-93.0485"/>
</g>
<!-- Node110&#45;&gt;Node103 -->
<g id="edge28" class="edge">
<title>Node110&#45;&gt;Node103</title>
<path fill="none" stroke="#191970" d="M3088.2781,-91.4573C3085.8309,-90.6063 3083.4,-89.7843 3081,-89 3028.6657,-71.8965 2968.8447,-56.6984 2921.0684,-45.5725"/>
<polygon fill="#191970" stroke="#191970" points="3087.1719,-94.7788 3097.7664,-94.8661 3089.5387,-88.1911 3087.1719,-94.7788"/>
</g>
<!-- Node111&#45;&gt;Node103 -->
<g id="edge30" class="edge">
<title>Node111&#45;&gt;Node103</title>
<path fill="none" stroke="#191970" d="M3249.1538,-91.8911C3245.7411,-90.855 3242.3452,-89.884 3239,-89 3131.4389,-60.5752 3004.2047,-43.5845 2921.2155,-34.6478"/>
<polygon fill="#191970" stroke="#191970" points="3248.1968,-95.2596 3258.7876,-94.9659 3250.3252,-88.591 3248.1968,-95.2596"/>
</g>
<!-- Node112&#45;&gt;Node103 -->
<g id="edge32" class="edge">
<title>Node112&#45;&gt;Node103</title>
<path fill="none" stroke="#191970" d="M3417.2071,-91.8252C3413.7821,-90.7909 3410.3677,-89.8401 3407,-89 3238.4955,-46.9628 3035.1718,-33.1985 2921.3325,-28.6924"/>
<polygon fill="#191970" stroke="#191970" points="3416.2659,-95.1992 3426.8576,-94.9394 3418.4156,-88.5374 3416.2659,-95.1992"/>
</g>
</g>
</svg>
        <g id="navigator" transform="translate(0 0)" fill="#404254">
                <rect fill="#f2f5e9" fill-opacity="0.5" stroke="#606060" stroke-width=".5" x="0" y="0" width="60" height="60"/>
                <use id="zoomplus" xlink:href="#zoomPlus" x="17" y="9" onmousedown="handleZoom(evt,'in')"/>
                <use id="zoomminus" xlink:href="#zoomMin" x="42" y="9" onmousedown="handleZoom(evt,'out')"/>
                <use id="reset" xlink:href="#resetDef" x="30" y="36" onmousedown="handleReset()"/>
                <g id="arrowUp" xlink:href="#dirArrow" transform="translate(30 24)" onmousedown="handlePan(0,-1)">
                  <use xlink:href="#rim" fill="#404040">
                        <set attributeName="fill" to="#808080" begin="arrowUp.mouseover" end="arrowUp.mouseout"/>
                  </use>
                  <path fill="none" stroke="white" stroke-width="1.5" d="M0,-3.0v7 M-2.5,-0.5L0,-3.0L2.5,-0.5"/>
                </g>
                <g id="arrowRight" xlink:href="#dirArrow" transform="rotate(90) translate(36 -43)" onmousedown="handlePan(1,0)">
                  <use xlink:href="#rim" fill="#404040">
                        <set attributeName="fill" to="#808080" begin="arrowRight.mouseover" end="arrowRight.mouseout"/>
                  </use>
                  <path fill="none" stroke="white" stroke-width="1.5" d="M0,-3.0v7 M-2.5,-0.5L0,-3.0L2.5,-0.5"/>
                </g>
                <g id="arrowDown" xlink:href="#dirArrow" transform="rotate(180) translate(-30 -48)" onmousedown="handlePan(0,1)">
                  <use xlink:href="#rim" fill="#404040">
                        <set attributeName="fill" to="#808080" begin="arrowDown.mouseover" end="arrowDown.mouseout"/>
                  </use>
                  <path fill="none" stroke="white" stroke-width="1.5" d="M0,-3.0v7 M-2.5,-0.5L0,-3.0L2.5,-0.5"/>
                </g>
                <g id="arrowLeft" xlink:href="#dirArrow" transform="rotate(270) translate(-36 17)" onmousedown="handlePan(-1,0)">
                  <use xlink:href="#rim" fill="#404040">
                        <set attributeName="fill" to="#808080" begin="arrowLeft.mouseover" end="arrowLeft.mouseout"/>
                  </use>
                  <path fill="none" stroke="white" stroke-width="1.5" d="M0,-3.0v7 M-2.5,-0.5L0,-3.0L2.5,-0.5"/>
                </g>
        </g>
        <svg viewBox="0 0 15 15" width="100%" height="30px" preserveAspectRatio="xMaxYMin meet">
         <g id="arrow_out" transform="scale(0.3 0.3)">
          <a xlink:href="RootTreeWriter_8h__dep__incl_org.svg" target="_base">
           <rect id="button" ry="5" rx="5" y="6" x="6" height="38" width="38"
                fill="#f2f5e9" fill-opacity="0.5" stroke="#606060" stroke-width="1.0"/>
           <path id="arrow"
             d="M 11.500037,31.436501 C 11.940474,20.09759 22.043105,11.32322 32.158766,21.979434 L 37.068811,17.246167 C 37.068811,17.246167 37.088388,32 37.088388,32 L 22.160133,31.978069 C 22.160133,31.978069 26.997745,27.140456 26.997745,27.140456 C 18.528582,18.264221 13.291696,25.230495 11.500037,31.436501 z"
             style="fill:#404040;"/>
          </a>
         </g>
        </svg>
</svg>
