<?xml version="1.0" encoding="UTF-8" standalone="no"?>
<!DOCTYPE svg PUBLIC "-//W3C//DTD SVG 1.1//EN"
 "http://www.w3.org/Graphics/SVG/1.1/DTD/svg11.dtd">
<!-- Generated by graphviz version 2.40.1 (20161225.0304)
 -->
<!-- Title: o2::ctf::Block&lt; W &gt; Pages: 1 -->
<svg width="258pt" height="441pt"
 viewBox="0.00 0.00 258.22 441.00" xmlns="http://www.w3.org/2000/svg" xmlns:xlink="http://www.w3.org/1999/xlink">
<g id="graph0" class="graph" transform="scale(1 1) rotate(0) translate(4 437)">
<title>o2::ctf::Block&lt; W &gt;</title>
<!-- Node1 -->
<g id="node1" class="node">
<title>Node1</title>
<polygon fill="#bfbfbf" stroke="#000000" points="70.7179,-.5 70.7179,-178.5 183.7179,-178.5 183.7179,-.5 70.7179,-.5"/>
<text text-anchor="middle" x="127.2179" y="-166.5" font-family="Helvetica,sans-Serif" font-size="10.00" fill="#000000">o2::ctf::Block&lt; W &gt;</text>
<polyline fill="none" stroke="#000000" points="70.7179,-159.5 183.7179,-159.5 "/>
<text text-anchor="middle" x="127.2179" y="-147.5" font-family="Helvetica,sans-Serif" font-size="10.00" fill="#000000"> </text>
<polyline fill="none" stroke="#000000" points="70.7179,-140.5 183.7179,-140.5 "/>
<text text-anchor="start" x="78.7179" y="-128.5" font-family="Helvetica,sans-Serif" font-size="10.00" fill="#000000">+ getData()</text>
<text text-anchor="start" x="78.7179" y="-117.5" font-family="Helvetica,sans-Serif" font-size="10.00" fill="#000000">+ getDict()</text>
<text text-anchor="start" x="78.7179" y="-106.5" font-family="Helvetica,sans-Serif" font-size="10.00" fill="#000000">+ getData()</text>
<text text-anchor="start" x="78.7179" y="-95.5" font-family="Helvetica,sans-Serif" font-size="10.00" fill="#000000">+ getDict()</text>
<text text-anchor="start" x="78.7179" y="-84.5" font-family="Helvetica,sans-Serif" font-size="10.00" fill="#000000">+ getNData()</text>
<text text-anchor="start" x="78.7179" y="-73.5" font-family="Helvetica,sans-Serif" font-size="10.00" fill="#000000">+ getNDict()</text>
<text text-anchor="start" x="78.7179" y="-62.5" font-family="Helvetica,sans-Serif" font-size="10.00" fill="#000000">+ ~Block()</text>
<text text-anchor="start" x="78.7179" y="-51.5" font-family="Helvetica,sans-Serif" font-size="10.00" fill="#000000">+ clear()</text>
<text text-anchor="start" x="78.7179" y="-40.5" font-family="Helvetica,sans-Serif" font-size="10.00" fill="#000000">+ store()</text>
<text text-anchor="start" x="78.7179" y="-29.5" font-family="Helvetica,sans-Serif" font-size="10.00" fill="#000000">+ relocate()</text>
<text text-anchor="start" x="78.7179" y="-18.5" font-family="Helvetica,sans-Serif" font-size="10.00" fill="#000000">+ ClassDefNV()</text>
<text text-anchor="start" x="78.7179" y="-7.5" font-family="Helvetica,sans-Serif" font-size="10.00" fill="#000000">+ estimateSize()</text>
</g>
<!-- Node2 -->
<g id="node2" class="node">
<title>Node2</title>
<polygon fill="none" stroke="#bfbfbf" points="1.7179,-375.5 1.7179,-432.5 30.7179,-432.5 30.7179,-375.5 1.7179,-375.5"/>
<text text-anchor="middle" x="16.2179" y="-420.5" font-family="Helvetica,sans-Serif" font-size="10.00" fill="#000000">int</text>
<polyline fill="none" stroke="#bfbfbf" points="1.7179,-413.5 30.7179,-413.5 "/>
<text text-anchor="middle" x="16.2179" y="-401.5" font-family="Helvetica,sans-Serif" font-size="10.00" fill="#000000"> </text>
<polyline fill="none" stroke="#bfbfbf" points="1.7179,-394.5 30.7179,-394.5 "/>
<text text-anchor="middle" x="16.2179" y="-382.5" font-family="Helvetica,sans-Serif" font-size="10.00" fill="#000000"> </text>
</g>
<!-- Node2&#45;&gt;Node1 -->
<g id="edge1" class="edge">
<title>Node2&#45;&gt;Node1</title>
<path fill="none" stroke="#404040" d="M9.0316,-375.2039C1.4376,-339.1054 -7.1248,-275.9098 11.2179,-226 21.8725,-197.0092 41.7192,-169.9682 62.022,-147.7274"/>
<polygon fill="none" stroke="#404040" points="62.1888,-147.5503 63.3913,-140.4402 70.417,-138.8154 69.2146,-145.9256 62.1888,-147.5503"/>
<text text-anchor="middle" x="34.2179" y="-274.5" font-family="Helvetica,sans-Serif" font-size="10.00" fill="#000000"> +nDict</text>
<text text-anchor="middle" x="34.2179" y="-263.5" font-family="Helvetica,sans-Serif" font-size="10.00" fill="#000000">+nStored</text>
</g>
<!-- Node3 -->
<g id="node3" class="node">
<title>Node3</title>
<g id="a_node3"><a xlink:href="../../d0/d1c/structo2_1_1ctf_1_1Registry.html" target="_top" xlink:title="registry struct for the buffer start and offsets of writable space ">
<polygon fill="none" stroke="#000000" points="66.2179,-226.5 66.2179,-316.5 188.2179,-316.5 188.2179,-226.5 66.2179,-226.5"/>
<text text-anchor="middle" x="127.2179" y="-304.5" font-family="Helvetica,sans-Serif" font-size="10.00" fill="#000000">o2::ctf::Registry</text>
<polyline fill="none" stroke="#000000" points="66.2179,-297.5 188.2179,-297.5 "/>
<text text-anchor="middle" x="127.2179" y="-285.5" font-family="Helvetica,sans-Serif" font-size="10.00" fill="#000000"> </text>
<polyline fill="none" stroke="#000000" points="66.2179,-278.5 188.2179,-278.5 "/>
<text text-anchor="start" x="74.2179" y="-266.5" font-family="Helvetica,sans-Serif" font-size="10.00" fill="#000000">+ getFreeBlockStart()</text>
<text text-anchor="start" x="74.2179" y="-255.5" font-family="Helvetica,sans-Serif" font-size="10.00" fill="#000000">+ shrinkFreeBlock()</text>
<text text-anchor="start" x="74.2179" y="-244.5" font-family="Helvetica,sans-Serif" font-size="10.00" fill="#000000">+ getFreeSize()</text>
<text text-anchor="start" x="74.2179" y="-233.5" font-family="Helvetica,sans-Serif" font-size="10.00" fill="#000000">+ ClassDefNV()</text>
</a>
</g>
</g>
<!-- Node2&#45;&gt;Node3 -->
<g id="edge5" class="edge">
<title>Node2&#45;&gt;Node3</title>
<path fill="none" stroke="#404040" d="M26.6277,-375.1827C32.1549,-362.1423 39.7734,-346.9995 49.2179,-335 51.7795,-331.7455 54.536,-328.5489 57.4293,-325.4275"/>
<polygon fill="none" stroke="#404040" points="57.4695,-325.3867 58.8357,-318.3062 65.897,-316.8441 64.5308,-323.9246 57.4695,-325.3867"/>
<text text-anchor="middle" x="87.2179" y="-343.5" font-family="Helvetica,sans-Serif" font-size="10.00" fill="#000000"> +nFilledBlocks</text>
</g>
<!-- Node3&#45;&gt;Node1 -->
<g id="edge2" class="edge">
<title>Node3&#45;&gt;Node1</title>
<path fill="none" stroke="#404040" d="M127.2179,-226.0432C127.2179,-215.2249 127.2179,-203.2496 127.2179,-191.0174"/>
<polygon fill="none" stroke="#404040" points="127.218,-190.7328 123.218,-184.7329 127.2179,-178.7328 131.218,-184.7328 127.218,-190.7328"/>
<text text-anchor="middle" x="151.7179" y="-200" font-family="Helvetica,sans-Serif" font-size="10.00" fill="#000000"> +registry</text>
</g>
<!-- Node4 -->
<g id="node4" class="node">
<title>Node4</title>
<polygon fill="none" stroke="#bfbfbf" points="112.2179,-375.5 112.2179,-432.5 150.2179,-432.5 150.2179,-375.5 112.2179,-375.5"/>
<text text-anchor="middle" x="131.2179" y="-420.5" font-family="Helvetica,sans-Serif" font-size="10.00" fill="#000000">char</text>
<polyline fill="none" stroke="#bfbfbf" points="112.2179,-413.5 150.2179,-413.5 "/>
<text text-anchor="middle" x="131.2179" y="-401.5" font-family="Helvetica,sans-Serif" font-size="10.00" fill="#000000"> </text>
<polyline fill="none" stroke="#bfbfbf" points="112.2179,-394.5 150.2179,-394.5 "/>
<text text-anchor="middle" x="131.2179" y="-382.5" font-family="Helvetica,sans-Serif" font-size="10.00" fill="#000000"> </text>
</g>
<!-- Node4&#45;&gt;Node3 -->
<g id="edge3" class="edge">
<title>Node4&#45;&gt;Node3</title>
<path fill="none" stroke="#404040" d="M130.35,-375.2495C129.938,-361.6028 129.4305,-344.791 128.9448,-328.7042"/>
<polygon fill="none" stroke="#404040" points="128.9419,-328.6029 124.7626,-322.7264 128.5797,-316.6084 132.759,-322.4849 128.9419,-328.6029"/>
<text text-anchor="middle" x="147.2179" y="-343.5" font-family="Helvetica,sans-Serif" font-size="10.00" fill="#000000"> +head</text>
</g>
<!-- Node5 -->
<g id="node5" class="node">
<title>Node5</title>
<polygon fill="none" stroke="#bfbfbf" points="168.7179,-375.5 168.7179,-432.5 213.7179,-432.5 213.7179,-375.5 168.7179,-375.5"/>
<text text-anchor="middle" x="191.2179" y="-420.5" font-family="Helvetica,sans-Serif" font-size="10.00" fill="#000000">size_t</text>
<polyline fill="none" stroke="#bfbfbf" points="168.7179,-413.5 213.7179,-413.5 "/>
<text text-anchor="middle" x="191.2179" y="-401.5" font-family="Helvetica,sans-Serif" font-size="10.00" fill="#000000"> </text>
<polyline fill="none" stroke="#bfbfbf" points="168.7179,-394.5 213.7179,-394.5 "/>
<text text-anchor="middle" x="191.2179" y="-382.5" font-family="Helvetica,sans-Serif" font-size="10.00" fill="#000000"> </text>
</g>
<!-- Node5&#45;&gt;Node3 -->
<g id="edge4" class="edge">
<title>Node5&#45;&gt;Node3</title>
<path fill="none" stroke="#404040" d="M184.0362,-375.4591C180.3585,-362.7606 175.3531,-347.8149 169.2179,-335 167.9899,-332.435 166.6716,-329.8526 165.287,-327.2738"/>
<polygon fill="none" stroke="#404040" points="165.2279,-327.1702 158.7804,-323.9407 159.2816,-316.747 165.7292,-319.9765 165.2279,-327.1702"/>
<text text-anchor="middle" x="213.7179" y="-349" font-family="Helvetica,sans-Serif" font-size="10.00" fill="#000000"> +offsFreeStart</text>
<text text-anchor="middle" x="213.7179" y="-338" font-family="Helvetica,sans-Serif" font-size="10.00" fill="#000000">+size</text>
</g>
<!-- Node6 -->
<g id="node6" class="node">
<title>Node6</title>
<polygon fill="none" stroke="#bfbfbf" points="206.7179,-243 206.7179,-300 241.7179,-300 241.7179,-243 206.7179,-243"/>
<text text-anchor="middle" x="224.2179" y="-288" font-family="Helvetica,sans-Serif" font-size="10.00" fill="#000000">W *</text>
<polyline fill="none" stroke="#bfbfbf" points="206.7179,-281 241.7179,-281 "/>
<text text-anchor="middle" x="224.2179" y="-269" font-family="Helvetica,sans-Serif" font-size="10.00" fill="#000000"> </text>
<polyline fill="none" stroke="#bfbfbf" points="206.7179,-262 241.7179,-262 "/>
<text text-anchor="middle" x="224.2179" y="-250" font-family="Helvetica,sans-Serif" font-size="10.00" fill="#000000"> </text>
</g>
<!-- Node6&#45;&gt;Node1 -->
<g id="edge6" class="edge">
<title>Node6&#45;&gt;Node1</title>
<path fill="none" stroke="#404040" d="M208.848,-242.6616C201.0052,-227.9462 190.9483,-209.0767 180.5921,-189.6453"/>
<polygon fill="none" stroke="#404040" points="180.464,-189.4049 174.112,-185.9914 174.8199,-178.8151 181.1719,-182.2286 180.464,-189.4049"/>
<text text-anchor="middle" x="214.7179" y="-200" font-family="Helvetica,sans-Serif" font-size="10.00" fill="#000000"> +payload</text>
</g>
</g>
</svg>
