<?xml version="1.0" encoding="UTF-8" standalone="no"?>
<!DOCTYPE svg PUBLIC "-//W3C//DTD SVG 1.1//EN"
 "http://www.w3.org/Graphics/SVG/1.1/DTD/svg11.dtd">
<!-- Generated by graphviz version 2.40.1 (20161225.0304)
 -->
<!-- Title: /home/travis/build/AliceO2Group/AliceO2/DataFormats/Detectors/ITSMFT/MFT/src/TrackMFT.cxx Pages: 1 -->
<svg width="2314pt" height="564pt"
 viewBox="0.00 0.00 2313.50 564.00" xmlns="http://www.w3.org/2000/svg" xmlns:xlink="http://www.w3.org/1999/xlink">
<g id="graph0" class="graph" transform="scale(1 1) rotate(0) translate(4 560)">
<title>/home/travis/build/AliceO2Group/AliceO2/DataFormats/Detectors/ITSMFT/MFT/src/TrackMFT.cxx</title>
<!-- Node0 -->
<g id="node1" class="node">
<title>Node0</title>
<polygon fill="#bfbfbf" stroke="#000000" points="1604,-503.5 1604,-555.5 1765,-555.5 1765,-503.5 1604,-503.5"/>
<text text-anchor="start" x="1612" y="-543.5" font-family="Helvetica,sans-Serif" font-size="10.00" fill="#000000">/home/travis/build</text>
<text text-anchor="start" x="1612" y="-532.5" font-family="Helvetica,sans-Serif" font-size="10.00" fill="#000000">/AliceO2Group/AliceO2</text>
<text text-anchor="start" x="1612" y="-521.5" font-family="Helvetica,sans-Serif" font-size="10.00" fill="#000000">/DataFormats/Detectors</text>
<text text-anchor="middle" x="1684.5" y="-510.5" font-family="Helvetica,sans-Serif" font-size="10.00" fill="#000000">/ITSMFT/MFT/src/TrackMFT.cxx</text>
</g>
<!-- Node1 -->
<g id="node2" class="node">
<title>Node1</title>
<g id="a_node2"><a xlink:href="../../db/dd0/TrackMFT_8h.html" target="_top" xlink:title="DataFormatsMFT/TrackMFT.h">
<polygon fill="none" stroke="#000000" points="1019,-386 1019,-405 1174,-405 1174,-386 1019,-386"/>
<text text-anchor="middle" x="1096.5" y="-393" font-family="Helvetica,sans-Serif" font-size="10.00" fill="#000000">DataFormatsMFT/TrackMFT.h</text>
</a>
</g>
</g>
<!-- Node0&#45;&gt;Node1 -->
<g id="edge1" class="edge">
<title>Node0&#45;&gt;Node1</title>
<path fill="none" stroke="#191970" d="M1603.974,-511.1488C1481.304,-483.1934 1251.0568,-430.7221 1148.3044,-407.3058"/>
<polygon fill="#191970" stroke="#191970" points="1149.0001,-403.8746 1138.4724,-405.0651 1147.4447,-410.6997 1149.0001,-403.8746"/>
</g>
<!-- Node3 -->
<g id="node4" class="node">
<title>Node3</title>
<polygon fill="none" stroke="#bfbfbf" points="1312.5,-319 1312.5,-338 1368.5,-338 1368.5,-319 1312.5,-319"/>
<text text-anchor="middle" x="1340.5" y="-326" font-family="Helvetica,sans-Serif" font-size="10.00" fill="#000000">TMath.h</text>
</g>
<!-- Node0&#45;&gt;Node3 -->
<g id="edge70" class="edge">
<title>Node0&#45;&gt;Node3</title>
<path fill="none" stroke="#191970" d="M1639.8807,-503.4288C1566.693,-460.6651 1423.5014,-376.9979 1365.6448,-343.1922"/>
<polygon fill="#191970" stroke="#191970" points="1367.2022,-340.0485 1356.8023,-338.0255 1363.6707,-346.0924 1367.2022,-340.0485"/>
</g>
<!-- Node9 -->
<g id="node10" class="node">
<title>Node9</title>
<g id="a_node10"><a xlink:href="../../d6/d84/MathConstants_8h.html" target="_top" xlink:title="useful math constants ">
<polygon fill="none" stroke="#000000" points="2111.5,-118 2111.5,-137 2305.5,-137 2305.5,-118 2111.5,-118"/>
<text text-anchor="middle" x="2208.5" y="-125" font-family="Helvetica,sans-Serif" font-size="10.00" fill="#000000">CommonConstants/MathConstants.h</text>
</a>
</g>
</g>
<!-- Node0&#45;&gt;Node9 -->
<g id="edge10" class="edge">
<title>Node0&#45;&gt;Node9</title>
<path fill="none" stroke="#191970" d="M1765.2666,-525.6938C1913.1752,-516.5032 2212.5,-486.6444 2212.5,-395.5 2212.5,-395.5 2212.5,-395.5 2212.5,-261.5 2212.5,-220.9519 2210.6475,-173.5328 2209.4638,-147.374"/>
<polygon fill="#191970" stroke="#191970" points="2212.9537,-147.0744 2208.9905,-137.2488 2205.9614,-147.4013 2212.9537,-147.0744"/>
</g>
<!-- Node10 -->
<g id="node11" class="node">
<title>Node10</title>
<g id="a_node11"><a xlink:href="../../d1/d62/DataFormats_2Detectors_2ITSMFT_2common_2include_2DataFormatsITSMFT_2Cluster_8h.html" target="_top" xlink:title="DataFormatsITSMFT/Cluster.h">
<polygon fill="none" stroke="#000000" points="1604.5,-447.5 1604.5,-466.5 1764.5,-466.5 1764.5,-447.5 1604.5,-447.5"/>
<text text-anchor="middle" x="1684.5" y="-454.5" font-family="Helvetica,sans-Serif" font-size="10.00" fill="#000000">DataFormatsITSMFT/Cluster.h</text>
</a>
</g>
</g>
<!-- Node0&#45;&gt;Node10 -->
<g id="edge11" class="edge">
<title>Node0&#45;&gt;Node10</title>
<path fill="none" stroke="#191970" d="M1684.5,-503.3258C1684.5,-494.5142 1684.5,-484.8397 1684.5,-476.621"/>
<polygon fill="#191970" stroke="#191970" points="1688.0001,-476.534 1684.5,-466.534 1681.0001,-476.534 1688.0001,-476.534"/>
</g>
<!-- Node28 -->
<g id="node29" class="node">
<title>Node28</title>
<g id="a_node29"><a xlink:href="../../d9/d52/Common_2MathUtils_2include_2MathUtils_2Utils_8h.html" target="_top" xlink:title="MathUtils/Utils.h">
<polygon fill="none" stroke="#000000" points="1944.5,-185 1944.5,-204 2042.5,-204 2042.5,-185 1944.5,-185"/>
<text text-anchor="middle" x="1993.5" y="-192" font-family="Helvetica,sans-Serif" font-size="10.00" fill="#000000">MathUtils/Utils.h</text>
</a>
</g>
</g>
<!-- Node0&#45;&gt;Node28 -->
<g id="edge69" class="edge">
<title>Node0&#45;&gt;Node28</title>
<path fill="none" stroke="#191970" d="M1765.2812,-508.9656C1851.0898,-484.7246 1974.5,-441.8109 1974.5,-395.5 1974.5,-395.5 1974.5,-395.5 1974.5,-328.5 1974.5,-287.5645 1983.2996,-240.2853 1988.9218,-214.2554"/>
<polygon fill="#191970" stroke="#191970" points="1992.407,-214.7073 1991.1702,-204.1849 1985.5752,-213.182 1992.407,-214.7073"/>
</g>
<!-- Node2 -->
<g id="node3" class="node">
<title>Node2</title>
<polygon fill="none" stroke="#bfbfbf" points="887,-252 887,-271 934,-271 934,-252 887,-252"/>
<text text-anchor="middle" x="910.5" y="-259" font-family="Helvetica,sans-Serif" font-size="10.00" fill="#000000">vector</text>
</g>
<!-- Node1&#45;&gt;Node2 -->
<g id="edge2" class="edge">
<title>Node1&#45;&gt;Node2</title>
<path fill="none" stroke="#191970" d="M1047.3379,-385.9983C1004.1026,-376.6643 945.6142,-361.3317 929.5,-344 913.7531,-327.0633 910.1855,-299.7806 909.7745,-281.2677"/>
<polygon fill="#191970" stroke="#191970" points="913.2759,-281.0693 909.8458,-271.0451 906.276,-281.0204 913.2759,-281.0693"/>
</g>
<!-- Node1&#45;&gt;Node3 -->
<g id="edge3" class="edge">
<title>Node1&#45;&gt;Node3</title>
<path fill="none" stroke="#191970" d="M1143.5314,-385.9502C1185.8708,-376.8471 1249.545,-361.8966 1303.5,-344 1305.5947,-343.3052 1307.7376,-342.545 1309.8849,-341.7461"/>
<polygon fill="#191970" stroke="#191970" points="1311.1691,-345.002 1319.1897,-338.0796 1308.6028,-338.4894 1311.1691,-345.002"/>
</g>
<!-- Node4 -->
<g id="node5" class="node">
<title>Node4</title>
<polygon fill="none" stroke="#bfbfbf" points="793,-319 793,-338 882,-338 882,-319 793,-319"/>
<text text-anchor="middle" x="837.5" y="-326" font-family="Helvetica,sans-Serif" font-size="10.00" fill="#000000">Math/SMatrix.h</text>
</g>
<!-- Node1&#45;&gt;Node4 -->
<g id="edge4" class="edge">
<title>Node1&#45;&gt;Node4</title>
<path fill="none" stroke="#191970" d="M1059.2565,-385.9677C1019.0802,-375.6712 953.235,-358.757 896.5,-344 892.3489,-342.9203 888.0346,-341.7943 883.7126,-340.6636"/>
<polygon fill="#191970" stroke="#191970" points="884.2477,-337.1857 873.6871,-338.0366 882.4733,-343.9571 884.2477,-337.1857"/>
</g>
<!-- Node5 -->
<g id="node6" class="node">
<title>Node5</title>
<g id="a_node6"><a xlink:href="../../de/d64/RangeReference_8h.html" target="_top" xlink:title="Class to refer to the 1st entry and N elements of some group in the continuous container. ">
<polygon fill="none" stroke="#000000" points="1084.5,-319 1084.5,-338 1294.5,-338 1294.5,-319 1084.5,-319"/>
<text text-anchor="middle" x="1189.5" y="-326" font-family="Helvetica,sans-Serif" font-size="10.00" fill="#000000">CommonDataFormat/RangeReference.h</text>
</a>
</g>
</g>
<!-- Node1&#45;&gt;Node5 -->
<g id="edge5" class="edge">
<title>Node1&#45;&gt;Node5</title>
<path fill="none" stroke="#191970" d="M1109.8246,-385.9005C1125.0178,-374.9549 1150.0703,-356.9064 1168.0284,-343.9688"/>
<polygon fill="#191970" stroke="#191970" points="1170.1323,-346.7668 1176.2001,-338.0817 1166.0405,-341.0872 1170.1323,-346.7668"/>
</g>
<!-- Node8 -->
<g id="node9" class="node">
<title>Node8</title>
<g id="a_node9"><a xlink:href="../../d7/dcd/MCCompLabel_8h.html" target="_top" xlink:title="SimulationDataFormat\l/MCCompLabel.h">
<polygon fill="none" stroke="#000000" points="939,-313.5 939,-343.5 1066,-343.5 1066,-313.5 939,-313.5"/>
<text text-anchor="start" x="947" y="-331.5" font-family="Helvetica,sans-Serif" font-size="10.00" fill="#000000">SimulationDataFormat</text>
<text text-anchor="middle" x="1002.5" y="-320.5" font-family="Helvetica,sans-Serif" font-size="10.00" fill="#000000">/MCCompLabel.h</text>
</a>
</g>
</g>
<!-- Node1&#45;&gt;Node8 -->
<g id="edge8" class="edge">
<title>Node1&#45;&gt;Node8</title>
<path fill="none" stroke="#191970" d="M1083.0321,-385.9005C1069.8038,-376.4718 1049.1808,-361.7725 1032.1165,-349.6096"/>
<polygon fill="#191970" stroke="#191970" points="1033.75,-346.4759 1023.5753,-343.5218 1029.687,-352.1761 1033.75,-346.4759"/>
</g>
<!-- Node6 -->
<g id="node7" class="node">
<title>Node6</title>
<g id="a_node7"><a xlink:href="../../d2/d45/GPUCommonRtypes_8h.html" target="_top" xlink:title="GPUCommonRtypes.h">
<polygon fill="none" stroke="#000000" points="1192,-252 1192,-271 1317,-271 1317,-252 1192,-252"/>
<text text-anchor="middle" x="1254.5" y="-259" font-family="Helvetica,sans-Serif" font-size="10.00" fill="#000000">GPUCommonRtypes.h</text>
</a>
</g>
</g>
<!-- Node5&#45;&gt;Node6 -->
<g id="edge6" class="edge">
<title>Node5&#45;&gt;Node6</title>
<path fill="none" stroke="#191970" d="M1198.8129,-318.9005C1209.0456,-308.353 1225.6772,-291.2096 1238.1046,-278.3998"/>
<polygon fill="#191970" stroke="#191970" points="1240.7533,-280.6962 1245.2044,-271.0817 1235.7291,-275.822 1240.7533,-280.6962"/>
</g>
<!-- Node7 -->
<g id="node8" class="node">
<title>Node7</title>
<polygon fill="none" stroke="#bfbfbf" points="1291,-185 1291,-204 1350,-204 1350,-185 1291,-185"/>
<text text-anchor="middle" x="1320.5" y="-192" font-family="Helvetica,sans-Serif" font-size="10.00" fill="#000000">Rtypes.h</text>
</g>
<!-- Node6&#45;&gt;Node7 -->
<g id="edge7" class="edge">
<title>Node6&#45;&gt;Node7</title>
<path fill="none" stroke="#191970" d="M1263.9562,-251.9005C1274.3463,-241.353 1291.2338,-224.2096 1303.8524,-211.3998"/>
<polygon fill="#191970" stroke="#191970" points="1306.537,-213.6619 1311.0614,-204.0817 1301.5502,-208.7495 1306.537,-213.6619"/>
</g>
<!-- Node8&#45;&gt;Node6 -->
<g id="edge9" class="edge">
<title>Node8&#45;&gt;Node6</title>
<path fill="none" stroke="#191970" d="M1059.0537,-313.4639C1104.3274,-301.4269 1166.997,-284.7647 1209.0515,-273.5835"/>
<polygon fill="#191970" stroke="#191970" points="1209.9839,-276.9573 1218.7488,-271.0053 1208.1852,-270.1923 1209.9839,-276.9573"/>
</g>
<!-- Node11 -->
<g id="node12" class="node">
<title>Node11</title>
<g id="a_node12"><a xlink:href="../../d4/de2/BaseCluster_8h.html" target="_top" xlink:title="ReconstructionDataFormats\l/BaseCluster.h">
<polygon fill="none" stroke="#000000" points="1608.5,-380.5 1608.5,-410.5 1760.5,-410.5 1760.5,-380.5 1608.5,-380.5"/>
<text text-anchor="start" x="1616.5" y="-398.5" font-family="Helvetica,sans-Serif" font-size="10.00" fill="#000000">ReconstructionDataFormats</text>
<text text-anchor="middle" x="1684.5" y="-387.5" font-family="Helvetica,sans-Serif" font-size="10.00" fill="#000000">/BaseCluster.h</text>
</a>
</g>
</g>
<!-- Node10&#45;&gt;Node11 -->
<g id="edge12" class="edge">
<title>Node10&#45;&gt;Node11</title>
<path fill="none" stroke="#191970" d="M1684.5,-447.3906C1684.5,-440.2234 1684.5,-430.0862 1684.5,-420.671"/>
<polygon fill="#191970" stroke="#191970" points="1688.0001,-420.5446 1684.5,-410.5446 1681.0001,-420.5446 1688.0001,-420.5446"/>
</g>
<!-- Node12 -->
<g id="node13" class="node">
<title>Node12</title>
<polygon fill="none" stroke="#bfbfbf" points="1653,-319 1653,-338 1716,-338 1716,-319 1653,-319"/>
<text text-anchor="middle" x="1684.5" y="-326" font-family="Helvetica,sans-Serif" font-size="10.00" fill="#000000">TObject.h</text>
</g>
<!-- Node11&#45;&gt;Node12 -->
<g id="edge13" class="edge">
<title>Node11&#45;&gt;Node12</title>
<path fill="none" stroke="#191970" d="M1684.5,-380.2967C1684.5,-370.7699 1684.5,-358.3954 1684.5,-348.1306"/>
<polygon fill="#191970" stroke="#191970" points="1688.0001,-348.0549 1684.5,-338.055 1681.0001,-348.055 1688.0001,-348.0549"/>
</g>
<!-- Node13 -->
<g id="node14" class="node">
<title>Node13</title>
<polygon fill="none" stroke="#bfbfbf" points="1844.5,-185 1844.5,-204 1888.5,-204 1888.5,-185 1844.5,-185"/>
<text text-anchor="middle" x="1866.5" y="-192" font-family="Helvetica,sans-Serif" font-size="10.00" fill="#000000">bitset</text>
</g>
<!-- Node11&#45;&gt;Node13 -->
<g id="edge14" class="edge">
<title>Node11&#45;&gt;Node13</title>
<path fill="none" stroke="#191970" d="M1759.6153,-380.4196C1797.2959,-371.2754 1837.4551,-358.5719 1849.5,-344 1880.1823,-306.8806 1875.4892,-245.6906 1870.4597,-214.3501"/>
<polygon fill="#191970" stroke="#191970" points="1873.8602,-213.4827 1868.6564,-204.2539 1866.9693,-214.7136 1873.8602,-213.4827"/>
</g>
<!-- Node14 -->
<g id="node15" class="node">
<title>Node14</title>
<polygon fill="none" stroke="#bfbfbf" points="1734.5,-319 1734.5,-338 1790.5,-338 1790.5,-319 1734.5,-319"/>
<text text-anchor="middle" x="1762.5" y="-326" font-family="Helvetica,sans-Serif" font-size="10.00" fill="#000000">iomanip</text>
</g>
<!-- Node11&#45;&gt;Node14 -->
<g id="edge15" class="edge">
<title>Node11&#45;&gt;Node14</title>
<path fill="none" stroke="#191970" d="M1702.1994,-380.2967C1714.5881,-369.6551 1731.1135,-355.4602 1743.7315,-344.6217"/>
<polygon fill="#191970" stroke="#191970" points="1746.0712,-347.2259 1751.3763,-338.055 1741.51,-341.9159 1746.0712,-347.2259"/>
</g>
<!-- Node15 -->
<g id="node16" class="node">
<title>Node15</title>
<polygon fill="none" stroke="#bfbfbf" points="1809,-319 1809,-338 1840,-338 1840,-319 1809,-319"/>
<text text-anchor="middle" x="1824.5" y="-326" font-family="Helvetica,sans-Serif" font-size="10.00" fill="#000000">ios</text>
</g>
<!-- Node11&#45;&gt;Node15 -->
<g id="edge16" class="edge">
<title>Node11&#45;&gt;Node15</title>
<path fill="none" stroke="#191970" d="M1721.3535,-380.4864C1744.2169,-370.8085 1773.9948,-357.5394 1799.5,-344 1800.0356,-343.7157 1800.5754,-343.4243 1801.1177,-343.1273"/>
<polygon fill="#191970" stroke="#191970" points="1803.011,-346.0749 1809.8862,-338.0138 1799.4846,-340.028 1803.011,-346.0749"/>
</g>
<!-- Node16 -->
<g id="node17" class="node">
<title>Node16</title>
<polygon fill="none" stroke="#bfbfbf" points="1224,-185 1224,-204 1273,-204 1273,-185 1224,-185"/>
<text text-anchor="middle" x="1248.5" y="-192" font-family="Helvetica,sans-Serif" font-size="10.00" fill="#000000">iosfwd</text>
</g>
<!-- Node11&#45;&gt;Node16 -->
<g id="edge17" class="edge">
<title>Node11&#45;&gt;Node16</title>
<path fill="none" stroke="#191970" d="M1673.6731,-380.1872C1659.8581,-361.7226 1634.2769,-330.9389 1605.5,-313 1477.273,-233.0661 1422.1862,-265.127 1281.5,-210 1280.1003,-209.4515 1278.6763,-208.8714 1277.2446,-208.2703"/>
<polygon fill="#191970" stroke="#191970" points="1278.419,-204.9625 1267.8585,-204.1098 1275.5823,-211.362 1278.419,-204.9625"/>
</g>
<!-- Node17 -->
<g id="node18" class="node">
<title>Node17</title>
<g id="a_node18"><a xlink:href="../../d4/d20/DetMatrixCache_8h.html" target="_top" xlink:title="DetectorsCommonDataFormats\l/DetMatrixCache.h">
<polygon fill="none" stroke="#000000" points="1425,-313.5 1425,-343.5 1596,-343.5 1596,-313.5 1425,-313.5"/>
<text text-anchor="start" x="1433" y="-331.5" font-family="Helvetica,sans-Serif" font-size="10.00" fill="#000000">DetectorsCommonDataFormats</text>
<text text-anchor="middle" x="1510.5" y="-320.5" font-family="Helvetica,sans-Serif" font-size="10.00" fill="#000000">/DetMatrixCache.h</text>
</a>
</g>
</g>
<!-- Node11&#45;&gt;Node17 -->
<g id="edge18" class="edge">
<title>Node11&#45;&gt;Node17</title>
<path fill="none" stroke="#191970" d="M1645.451,-380.4639C1619.9066,-370.6278 1586.3416,-357.7034 1559.0769,-347.2049"/>
<polygon fill="#191970" stroke="#191970" points="1560.3091,-343.9289 1549.7193,-343.6017 1557.7937,-350.4614 1560.3091,-343.9289"/>
</g>
<!-- Node42 -->
<g id="node43" class="node">
<title>Node42</title>
<g id="a_node43"><a xlink:href="../../dd/d76/Cartesian3D_8h.html" target="_top" xlink:title="MathUtils/Cartesian3D.h">
<polygon fill="none" stroke="#000000" points="952,-252 952,-271 1087,-271 1087,-252 952,-252"/>
<text text-anchor="middle" x="1019.5" y="-259" font-family="Helvetica,sans-Serif" font-size="10.00" fill="#000000">MathUtils/Cartesian3D.h</text>
</a>
</g>
</g>
<!-- Node11&#45;&gt;Node42 -->
<g id="edge68" class="edge">
<title>Node11&#45;&gt;Node42</title>
<path fill="none" stroke="#191970" d="M1608.3767,-390.9481C1552.7565,-385.2813 1476.683,-372.5595 1415.5,-344 1395.7498,-334.7808 1397.4582,-321.7597 1377.5,-313 1352.406,-301.9863 1195.06,-282.0451 1097.5023,-270.4738"/>
<polygon fill="#191970" stroke="#191970" points="1097.7196,-266.9752 1087.3779,-269.2775 1096.8981,-273.9268 1097.7196,-266.9752"/>
</g>
<!-- Node17&#45;&gt;Node2 -->
<g id="edge24" class="edge">
<title>Node17&#45;&gt;Node2</title>
<path fill="none" stroke="#191970" d="M1424.6916,-318.0729C1409.0023,-316.2879 1392.7672,-314.5209 1377.5,-313 1184.4613,-293.7691 1129.6296,-328.1496 942.5,-277 940.5797,-276.4751 938.6353,-275.8365 936.7035,-275.1211"/>
<polygon fill="#191970" stroke="#191970" points="937.8864,-271.8197 927.3178,-271.0758 935.1158,-278.2481 937.8864,-271.8197"/>
</g>
<!-- Node17&#45;&gt;Node6 -->
<g id="edge22" class="edge">
<title>Node17&#45;&gt;Node6</title>
<path fill="none" stroke="#191970" d="M1453.0486,-313.4639C1407.0563,-301.4269 1343.392,-284.7647 1300.6699,-273.5835"/>
<polygon fill="#191970" stroke="#191970" points="1301.3791,-270.1513 1290.8187,-271.0053 1299.6067,-276.9232 1301.3791,-270.1513"/>
</g>
<!-- Node18 -->
<g id="node19" class="node">
<title>Node18</title>
<g id="a_node19"><a xlink:href="../../df/d5b/GPUCommonLogger_8h.html" target="_top" xlink:title="GPUCommonLogger.h">
<polygon fill="none" stroke="#000000" points="2022,-252 2022,-271 2145,-271 2145,-252 2022,-252"/>
<text text-anchor="middle" x="2083.5" y="-259" font-family="Helvetica,sans-Serif" font-size="10.00" fill="#000000">GPUCommonLogger.h</text>
</a>
</g>
</g>
<!-- Node17&#45;&gt;Node18 -->
<g id="edge19" class="edge">
<title>Node17&#45;&gt;Node18</title>
<path fill="none" stroke="#191970" d="M1596.2839,-318.4694C1709.2848,-305.2564 1906.0037,-282.2544 2011.6034,-269.9068"/>
<polygon fill="#191970" stroke="#191970" points="2012.3174,-273.3472 2021.8432,-268.7094 2011.5043,-266.3946 2012.3174,-273.3472"/>
</g>
<!-- Node21 -->
<g id="node22" class="node">
<title>Node21</title>
<polygon fill="none" stroke="#bfbfbf" points="1837.5,-118 1837.5,-137 1879.5,-137 1879.5,-118 1837.5,-118"/>
<text text-anchor="middle" x="1858.5" y="-125" font-family="Helvetica,sans-Serif" font-size="10.00" fill="#000000">array</text>
</g>
<!-- Node17&#45;&gt;Node21 -->
<g id="edge23" class="edge">
<title>Node17&#45;&gt;Node21</title>
<path fill="none" stroke="#191970" d="M1596.0623,-317.7296C1684.5729,-306.1313 1812.7581,-287.8831 1833.5,-277 1869.9655,-257.867 1882.1776,-248.2234 1897.5,-210 1902.6265,-197.2115 1901.8873,-192.0606 1897.5,-179 1893.191,-166.1723 1884.2804,-153.9963 1876.0631,-144.7072"/>
<polygon fill="#191970" stroke="#191970" points="1878.5483,-142.2408 1869.1533,-137.3434 1873.4437,-147.0307 1878.5483,-142.2408"/>
</g>
<!-- Node22 -->
<g id="node23" class="node">
<title>Node22</title>
<g id="a_node23"><a xlink:href="../../d6/d31/DetID_8h.html" target="_top" xlink:title="DetectorsCommonDataFormats\l/DetID.h">
<polygon fill="none" stroke="#000000" points="1653,-246.5 1653,-276.5 1824,-276.5 1824,-246.5 1653,-246.5"/>
<text text-anchor="start" x="1661" y="-264.5" font-family="Helvetica,sans-Serif" font-size="10.00" fill="#000000">DetectorsCommonDataFormats</text>
<text text-anchor="middle" x="1738.5" y="-253.5" font-family="Helvetica,sans-Serif" font-size="10.00" fill="#000000">/DetID.h</text>
</a>
</g>
</g>
<!-- Node17&#45;&gt;Node22 -->
<g id="edge25" class="edge">
<title>Node17&#45;&gt;Node22</title>
<path fill="none" stroke="#191970" d="M1561.6677,-313.4639C1595.8705,-303.4131 1641.0469,-290.1375 1677.1756,-279.5208"/>
<polygon fill="#191970" stroke="#191970" points="1678.5017,-282.7792 1687.1092,-276.6017 1676.528,-276.0631 1678.5017,-282.7792"/>
</g>
<!-- Node17&#45;&gt;Node42 -->
<g id="edge56" class="edge">
<title>Node17&#45;&gt;Node42</title>
<path fill="none" stroke="#191970" d="M1424.8742,-315.0966C1420.0129,-314.3765 1415.1955,-313.673 1410.5,-313 1302.0161,-297.4502 1176.3353,-281.2122 1097.3724,-271.2256"/>
<polygon fill="#191970" stroke="#191970" points="1097.3846,-267.6994 1087.0249,-269.9188 1096.5076,-274.6442 1097.3846,-267.6994"/>
</g>
<!-- Node19 -->
<g id="node20" class="node">
<title>Node19</title>
<polygon fill="none" stroke="#bfbfbf" points="2124.5,-185 2124.5,-204 2184.5,-204 2184.5,-185 2124.5,-185"/>
<text text-anchor="middle" x="2154.5" y="-192" font-family="Helvetica,sans-Serif" font-size="10.00" fill="#000000">iostream</text>
</g>
<!-- Node18&#45;&gt;Node19 -->
<g id="edge20" class="edge">
<title>Node18&#45;&gt;Node19</title>
<path fill="none" stroke="#191970" d="M2093.6726,-251.9005C2104.9553,-241.2535 2123.3601,-223.8856 2136.9742,-211.0385"/>
<polygon fill="#191970" stroke="#191970" points="2139.4754,-213.4905 2144.3463,-204.0817 2134.6712,-208.3994 2139.4754,-213.4905"/>
</g>
<!-- Node20 -->
<g id="node21" class="node">
<title>Node20</title>
<polygon fill="none" stroke="#bfbfbf" points="2060.5,-185 2060.5,-204 2106.5,-204 2106.5,-185 2060.5,-185"/>
<text text-anchor="middle" x="2083.5" y="-192" font-family="Helvetica,sans-Serif" font-size="10.00" fill="#000000">cstdio</text>
</g>
<!-- Node18&#45;&gt;Node20 -->
<g id="edge21" class="edge">
<title>Node18&#45;&gt;Node20</title>
<path fill="none" stroke="#191970" d="M2083.5,-251.9005C2083.5,-242.149 2083.5,-226.7597 2083.5,-214.3695"/>
<polygon fill="#191970" stroke="#191970" points="2087.0001,-214.0816 2083.5,-204.0817 2080.0001,-214.0817 2087.0001,-214.0816"/>
</g>
<!-- Node22&#45;&gt;Node7 -->
<g id="edge26" class="edge">
<title>Node22&#45;&gt;Node7</title>
<path fill="none" stroke="#191970" d="M1652.8767,-248.0791C1648.0147,-247.3635 1643.1965,-246.6658 1638.5,-246 1514.2732,-228.3894 1479.8294,-241.9623 1358.5,-210 1355.8775,-209.3092 1353.1949,-208.4811 1350.5279,-207.5719"/>
<polygon fill="#191970" stroke="#191970" points="1351.6655,-204.2605 1341.0733,-204.024 1349.2061,-210.8143 1351.6655,-204.2605"/>
</g>
<!-- Node22&#45;&gt;Node13 -->
<g id="edge28" class="edge">
<title>Node22&#45;&gt;Node13</title>
<path fill="none" stroke="#191970" d="M1767.2257,-246.4639C1788.7025,-235.2222 1817.8862,-219.9463 1839.0495,-208.8686"/>
<polygon fill="#191970" stroke="#191970" points="1840.9157,-211.8423 1848.1522,-204.1039 1837.6694,-205.6406 1840.9157,-211.8423"/>
</g>
<!-- Node22&#45;&gt;Node21 -->
<g id="edge27" class="edge">
<title>Node22&#45;&gt;Node21</title>
<path fill="none" stroke="#191970" d="M1752.0323,-246.389C1774.4878,-221.3136 1819.3178,-171.2534 1843.0063,-144.8014"/>
<polygon fill="#191970" stroke="#191970" points="1845.8354,-146.8886 1849.8993,-137.1042 1840.6207,-142.2188 1845.8354,-146.8886"/>
</g>
<!-- Node23 -->
<g id="node24" class="node">
<title>Node23</title>
<polygon fill="none" stroke="#bfbfbf" points="1591.5,-118 1591.5,-137 1643.5,-137 1643.5,-118 1591.5,-118"/>
<text text-anchor="middle" x="1617.5" y="-125" font-family="Helvetica,sans-Serif" font-size="10.00" fill="#000000">cassert</text>
</g>
<!-- Node22&#45;&gt;Node23 -->
<g id="edge29" class="edge">
<title>Node22&#45;&gt;Node23</title>
<path fill="none" stroke="#191970" d="M1664.0315,-246.4876C1611.921,-235.2278 1550.2751,-220.082 1542.5,-210 1523.0869,-184.827 1559.4463,-157.9998 1588.0102,-142.0004"/>
<polygon fill="#191970" stroke="#191970" points="1589.7813,-145.022 1596.9297,-137.202 1586.4649,-138.8574 1589.7813,-145.022"/>
</g>
<!-- Node24 -->
<g id="node25" class="node">
<title>Node24</title>
<polygon fill="none" stroke="#bfbfbf" points="1676.5,-118 1676.5,-137 1726.5,-137 1726.5,-118 1676.5,-118"/>
<text text-anchor="middle" x="1701.5" y="-125" font-family="Helvetica,sans-Serif" font-size="10.00" fill="#000000">cstdint</text>
</g>
<!-- Node22&#45;&gt;Node24 -->
<g id="edge30" class="edge">
<title>Node22&#45;&gt;Node24</title>
<path fill="none" stroke="#191970" d="M1736.1706,-246.4107C1733.4152,-229.7259 1728.3263,-202.1436 1721.5,-179 1718.2718,-168.0552 1713.7247,-156.1608 1709.7817,-146.563"/>
<polygon fill="#191970" stroke="#191970" points="1712.9445,-145.0553 1705.8313,-137.2034 1706.4954,-147.7774 1712.9445,-145.0553"/>
</g>
<!-- Node25 -->
<g id="node26" class="node">
<title>Node25</title>
<polygon fill="none" stroke="#bfbfbf" points="1552,-185 1552,-204 1625,-204 1625,-185 1552,-185"/>
<text text-anchor="middle" x="1588.5" y="-192" font-family="Helvetica,sans-Serif" font-size="10.00" fill="#000000">string_view</text>
</g>
<!-- Node22&#45;&gt;Node25 -->
<g id="edge31" class="edge">
<title>Node22&#45;&gt;Node25</title>
<path fill="none" stroke="#191970" d="M1704.8371,-246.4639C1679.2155,-235.0196 1644.2339,-219.3945 1619.3373,-208.274"/>
<polygon fill="#191970" stroke="#191970" points="1620.5593,-204.9866 1610.0013,-204.1039 1617.7045,-211.378 1620.5593,-204.9866"/>
</g>
<!-- Node26 -->
<g id="node27" class="node">
<title>Node26</title>
<polygon fill="none" stroke="#bfbfbf" points="1752.5,-118 1752.5,-137 1796.5,-137 1796.5,-118 1752.5,-118"/>
<text text-anchor="middle" x="1774.5" y="-125" font-family="Helvetica,sans-Serif" font-size="10.00" fill="#000000">string</text>
</g>
<!-- Node22&#45;&gt;Node26 -->
<g id="edge32" class="edge">
<title>Node22&#45;&gt;Node26</title>
<path fill="none" stroke="#191970" d="M1743.516,-246.2512C1746.8057,-236.0409 1751.1095,-222.2733 1754.5,-210 1760.3669,-188.7625 1766.2022,-164.1941 1770.042,-147.428"/>
<polygon fill="#191970" stroke="#191970" points="1773.5621,-147.7302 1772.3573,-137.204 1766.735,-146.184 1773.5621,-147.7302"/>
</g>
<!-- Node27 -->
<g id="node28" class="node">
<title>Node27</title>
<polygon fill="none" stroke="#bfbfbf" points="1643,-185 1643,-204 1712,-204 1712,-185 1643,-185"/>
<text text-anchor="middle" x="1677.5" y="-192" font-family="Helvetica,sans-Serif" font-size="10.00" fill="#000000">type_traits</text>
</g>
<!-- Node22&#45;&gt;Node27 -->
<g id="edge33" class="edge">
<title>Node22&#45;&gt;Node27</title>
<path fill="none" stroke="#191970" d="M1724.6582,-246.2967C1715.2463,-235.9591 1702.7817,-222.2684 1693.0311,-211.5588"/>
<polygon fill="#191970" stroke="#191970" points="1695.5196,-209.0931 1686.1993,-204.055 1690.3435,-213.8057 1695.5196,-209.0931"/>
</g>
<!-- Node22&#45;&gt;Node28 -->
<g id="edge34" class="edge">
<title>Node22&#45;&gt;Node28</title>
<path fill="none" stroke="#191970" d="M1795.727,-246.4639C1841.5396,-234.4269 1904.9553,-217.7647 1947.5104,-206.5835"/>
<polygon fill="#191970" stroke="#191970" points="1948.5409,-209.9317 1957.3232,-204.0053 1946.762,-203.1615 1948.5409,-209.9317"/>
</g>
<!-- Node35 -->
<g id="node36" class="node">
<title>Node35</title>
<g id="a_node36"><a xlink:href="../../dc/dcd/DataHeader_8h.html" target="_top" xlink:title="Headers/DataHeader.h">
<polygon fill="none" stroke="#000000" points="1368,-185 1368,-204 1495,-204 1495,-185 1368,-185"/>
<text text-anchor="middle" x="1431.5" y="-192" font-family="Helvetica,sans-Serif" font-size="10.00" fill="#000000">Headers/DataHeader.h</text>
</a>
</g>
</g>
<!-- Node22&#45;&gt;Node35 -->
<g id="edge45" class="edge">
<title>Node22&#45;&gt;Node35</title>
<path fill="none" stroke="#191970" d="M1669.6032,-246.4639C1613.7503,-234.2745 1536.1647,-217.3421 1484.9345,-206.1616"/>
<polygon fill="#191970" stroke="#191970" points="1485.5704,-202.7181 1475.0541,-204.0053 1484.0778,-209.5571 1485.5704,-202.7181"/>
</g>
<!-- Node28&#45;&gt;Node9 -->
<g id="edge44" class="edge">
<title>Node28&#45;&gt;Node9</title>
<path fill="none" stroke="#191970" d="M2024.3043,-184.9005C2062.1423,-173.1091 2126.4321,-153.0746 2168.1738,-140.0668"/>
<polygon fill="#191970" stroke="#191970" points="2169.247,-143.3984 2177.7529,-137.0817 2167.1644,-136.7154 2169.247,-143.3984"/>
</g>
<!-- Node28&#45;&gt;Node21 -->
<g id="edge35" class="edge">
<title>Node28&#45;&gt;Node21</title>
<path fill="none" stroke="#191970" d="M1974.1578,-184.9005C1951.3013,-173.5569 1913.073,-154.5844 1886.8666,-141.5783"/>
<polygon fill="#191970" stroke="#191970" points="1888.3198,-138.3922 1877.8063,-137.0817 1885.2079,-144.6624 1888.3198,-138.3922"/>
</g>
<!-- Node29 -->
<g id="node30" class="node">
<title>Node29</title>
<polygon fill="none" stroke="#bfbfbf" points="2036,-56.5 2036,-75.5 2083,-75.5 2083,-56.5 2036,-56.5"/>
<text text-anchor="middle" x="2059.5" y="-63.5" font-family="Helvetica,sans-Serif" font-size="10.00" fill="#000000">cmath</text>
</g>
<!-- Node28&#45;&gt;Node29 -->
<g id="edge36" class="edge">
<title>Node28&#45;&gt;Node29</title>
<path fill="none" stroke="#191970" d="M2014.4124,-184.9632C2030.2924,-176.4557 2050.9694,-162.3465 2060.5,-143 2069.3325,-125.0706 2067.5079,-101.8223 2064.4611,-85.5819"/>
<polygon fill="#191970" stroke="#191970" points="2067.8349,-84.627 2062.2725,-75.6098 2060.9976,-86.1276 2067.8349,-84.627"/>
</g>
<!-- Node30 -->
<g id="node31" class="node">
<title>Node30</title>
<g id="a_node31"><a xlink:href="../../df/d21/GPUCommonDef_8h.html" target="_top" xlink:title="GPUCommonDef.h">
<polygon fill="none" stroke="#000000" points="1873,-56.5 1873,-75.5 1980,-75.5 1980,-56.5 1873,-56.5"/>
<text text-anchor="middle" x="1926.5" y="-63.5" font-family="Helvetica,sans-Serif" font-size="10.00" fill="#000000">GPUCommonDef.h</text>
</a>
</g>
</g>
<!-- Node28&#45;&gt;Node30 -->
<g id="edge37" class="edge">
<title>Node28&#45;&gt;Node30</title>
<path fill="none" stroke="#191970" d="M1972.9583,-184.8501C1957.3485,-176.2786 1936.9961,-162.1385 1927.5,-143 1918.6164,-125.0958 1919.7675,-101.8433 1922.2628,-85.5951"/>
<polygon fill="#191970" stroke="#191970" points="1925.7312,-86.0854 1924.0982,-75.6172 1918.8467,-84.8189 1925.7312,-86.0854"/>
</g>
<!-- Node33 -->
<g id="node34" class="node">
<title>Node33</title>
<g id="a_node34"><a xlink:href="../../d6/da2/GPUCommonMath_8h.html" target="_top" xlink:title="GPUCommonMath.h">
<polygon fill="none" stroke="#000000" points="1936,-118 1936,-137 2051,-137 2051,-118 1936,-118"/>
<text text-anchor="middle" x="1993.5" y="-125" font-family="Helvetica,sans-Serif" font-size="10.00" fill="#000000">GPUCommonMath.h</text>
</a>
</g>
</g>
<!-- Node28&#45;&gt;Node33 -->
<g id="edge40" class="edge">
<title>Node28&#45;&gt;Node33</title>
<path fill="none" stroke="#191970" d="M1993.5,-184.9005C1993.5,-175.149 1993.5,-159.7597 1993.5,-147.3695"/>
<polygon fill="#191970" stroke="#191970" points="1997.0001,-147.0816 1993.5,-137.0817 1990.0001,-147.0817 1997.0001,-147.0816"/>
</g>
<!-- Node31 -->
<g id="node32" class="node">
<title>Node31</title>
<g id="a_node32"><a xlink:href="../../d5/d93/GPUCommonDefSettings_8h.html" target="_top" xlink:title="GPUCommonDefSettings.h">
<polygon fill="none" stroke="#000000" points="1775.5,-.5 1775.5,-19.5 1923.5,-19.5 1923.5,-.5 1775.5,-.5"/>
<text text-anchor="middle" x="1849.5" y="-7.5" font-family="Helvetica,sans-Serif" font-size="10.00" fill="#000000">GPUCommonDefSettings.h</text>
</a>
</g>
</g>
<!-- Node30&#45;&gt;Node31 -->
<g id="edge38" class="edge">
<title>Node30&#45;&gt;Node31</title>
<path fill="none" stroke="#191970" d="M1913.0876,-56.2455C1901.4943,-47.814 1884.5252,-35.4729 1871.0322,-25.6598"/>
<polygon fill="#191970" stroke="#191970" points="1872.9047,-22.6938 1862.7587,-19.6427 1868.7874,-28.355 1872.9047,-22.6938"/>
</g>
<!-- Node32 -->
<g id="node33" class="node">
<title>Node32</title>
<g id="a_node33"><a xlink:href="../../da/d5a/GPUCommonDefAPI_8h.html" target="_top" xlink:title="GPUCommonDefAPI.h">
<polygon fill="none" stroke="#000000" points="1941.5,-.5 1941.5,-19.5 2065.5,-19.5 2065.5,-.5 1941.5,-.5"/>
<text text-anchor="middle" x="2003.5" y="-7.5" font-family="Helvetica,sans-Serif" font-size="10.00" fill="#000000">GPUCommonDefAPI.h</text>
</a>
</g>
</g>
<!-- Node30&#45;&gt;Node32 -->
<g id="edge39" class="edge">
<title>Node30&#45;&gt;Node32</title>
<path fill="none" stroke="#191970" d="M1939.9124,-56.2455C1951.5057,-47.814 1968.4748,-35.4729 1981.9678,-25.6598"/>
<polygon fill="#191970" stroke="#191970" points="1984.2126,-28.355 1990.2413,-19.6427 1980.0953,-22.6938 1984.2126,-28.355"/>
</g>
<!-- Node33&#45;&gt;Node29 -->
<g id="edge42" class="edge">
<title>Node33&#45;&gt;Node29</title>
<path fill="none" stroke="#191970" d="M2003.8125,-117.8906C2013.9242,-108.4683 2029.5442,-93.9134 2041.6707,-82.6137"/>
<polygon fill="#191970" stroke="#191970" points="2044.112,-85.1228 2049.0421,-75.7449 2039.3399,-80.0015 2044.112,-85.1228"/>
</g>
<!-- Node33&#45;&gt;Node30 -->
<g id="edge41" class="edge">
<title>Node33&#45;&gt;Node30</title>
<path fill="none" stroke="#191970" d="M1983.0313,-117.8906C1972.7663,-108.4683 1956.9097,-93.9134 1944.5994,-82.6137"/>
<polygon fill="#191970" stroke="#191970" points="1946.8501,-79.9287 1937.1163,-75.7449 1942.1166,-85.0856 1946.8501,-79.9287"/>
</g>
<!-- Node34 -->
<g id="node35" class="node">
<title>Node34</title>
<polygon fill="none" stroke="#bfbfbf" points="1646.5,-56.5 1646.5,-75.5 1710.5,-75.5 1710.5,-56.5 1646.5,-56.5"/>
<text text-anchor="middle" x="1678.5" y="-63.5" font-family="Helvetica,sans-Serif" font-size="10.00" fill="#000000">algorithm</text>
</g>
<!-- Node33&#45;&gt;Node34 -->
<g id="edge43" class="edge">
<title>Node33&#45;&gt;Node34</title>
<path fill="none" stroke="#191970" d="M1944.6269,-117.9581C1883.1683,-105.9591 1778.6846,-85.5598 1720.6018,-74.2199"/>
<polygon fill="#191970" stroke="#191970" points="1721.1463,-70.7602 1710.6609,-72.279 1719.8049,-77.6305 1721.1463,-70.7602"/>
</g>
<!-- Node35&#45;&gt;Node23 -->
<g id="edge48" class="edge">
<title>Node35&#45;&gt;Node23</title>
<path fill="none" stroke="#191970" d="M1462.1536,-184.9226C1492.865,-175.1224 1541.3561,-159.0906 1582.5,-143 1584.0744,-142.3843 1585.6814,-141.7379 1587.2991,-141.073"/>
<polygon fill="#191970" stroke="#191970" points="1588.6954,-144.2827 1596.5273,-137.1475 1585.9552,-137.8412 1588.6954,-144.2827"/>
</g>
<!-- Node35&#45;&gt;Node24 -->
<g id="edge46" class="edge">
<title>Node35&#45;&gt;Node24</title>
<path fill="none" stroke="#191970" d="M1477.0472,-184.9658C1521.9127,-175.3211 1592.2806,-159.5144 1652.5,-143 1657.1492,-141.725 1662.0187,-140.2978 1666.8083,-138.8393"/>
<polygon fill="#191970" stroke="#191970" points="1667.9255,-142.1572 1676.4314,-135.8406 1665.8429,-135.4742 1667.9255,-142.1572"/>
</g>
<!-- Node35&#45;&gt;Node26 -->
<g id="edge52" class="edge">
<title>Node35&#45;&gt;Node26</title>
<path fill="none" stroke="#191970" d="M1495.2113,-185.3195C1570.5938,-174.1745 1691.4277,-155.3424 1735.5,-143 1738.1069,-142.2699 1740.7786,-141.4253 1743.4415,-140.5147"/>
<polygon fill="#191970" stroke="#191970" points="1744.7469,-143.7637 1752.9143,-137.0149 1742.321,-137.1975 1744.7469,-143.7637"/>
</g>
<!-- Node35&#45;&gt;Node34 -->
<g id="edge50" class="edge">
<title>Node35&#45;&gt;Node34</title>
<path fill="none" stroke="#191970" d="M1437.4435,-184.9651C1448.7171,-167.6918 1474.9259,-131.2348 1506.5,-112 1546.5037,-87.6299 1599.4175,-75.9929 1635.9391,-70.5537"/>
<polygon fill="#191970" stroke="#191970" points="1636.8257,-73.9641 1646.2472,-69.1179 1635.8599,-67.031 1636.8257,-73.9641"/>
</g>
<!-- Node36 -->
<g id="node37" class="node">
<title>Node36</title>
<polygon fill="none" stroke="#bfbfbf" points="1515.5,-118 1515.5,-137 1573.5,-137 1573.5,-118 1515.5,-118"/>
<text text-anchor="middle" x="1544.5" y="-125" font-family="Helvetica,sans-Serif" font-size="10.00" fill="#000000">memory</text>
</g>
<!-- Node35&#45;&gt;Node36 -->
<g id="edge47" class="edge">
<title>Node35&#45;&gt;Node36</title>
<path fill="none" stroke="#191970" d="M1447.6901,-184.9005C1466.4863,-173.7559 1497.7016,-155.2477 1519.5924,-142.2682"/>
<polygon fill="#191970" stroke="#191970" points="1521.5233,-145.1924 1528.3399,-137.0817 1517.9531,-139.1712 1521.5233,-145.1924"/>
</g>
<!-- Node37 -->
<g id="node38" class="node">
<title>Node37</title>
<polygon fill="none" stroke="#bfbfbf" points="1027.5,-118 1027.5,-137 1077.5,-137 1077.5,-118 1027.5,-118"/>
<text text-anchor="middle" x="1052.5" y="-125" font-family="Helvetica,sans-Serif" font-size="10.00" fill="#000000">cstring</text>
</g>
<!-- Node35&#45;&gt;Node37 -->
<g id="edge49" class="edge">
<title>Node35&#45;&gt;Node37</title>
<path fill="none" stroke="#191970" d="M1389.146,-184.9255C1379.1267,-182.8221 1368.4594,-180.7138 1358.5,-179 1238.3231,-158.3207 1203.7055,-176.66 1086.5,-143 1084.5359,-142.4359 1082.5404,-141.776 1080.5509,-141.0523"/>
<polygon fill="#191970" stroke="#191970" points="1081.407,-137.6199 1070.8274,-137.0517 1078.7435,-144.0934 1081.407,-137.6199"/>
</g>
<!-- Node38 -->
<g id="node39" class="node">
<title>Node38</title>
<polygon fill="none" stroke="#bfbfbf" points="1096,-118 1096,-137 1161,-137 1161,-118 1096,-118"/>
<text text-anchor="middle" x="1128.5" y="-125" font-family="Helvetica,sans-Serif" font-size="10.00" fill="#000000">stdexcept</text>
</g>
<!-- Node35&#45;&gt;Node38 -->
<g id="edge51" class="edge">
<title>Node35&#45;&gt;Node38</title>
<path fill="none" stroke="#191970" d="M1387.1348,-184.9316C1377.6905,-182.9363 1367.7709,-180.8717 1358.5,-179 1275.1088,-162.1643 1252.4604,-165.8042 1170.5,-143 1167.692,-142.2187 1164.8055,-141.3337 1161.9236,-140.3922"/>
<polygon fill="#191970" stroke="#191970" points="1162.8595,-137.0123 1152.2647,-137.0417 1160.5653,-143.6257 1162.8595,-137.0123"/>
</g>
<!-- Node39 -->
<g id="node40" class="node">
<title>Node39</title>
<polygon fill="none" stroke="#bfbfbf" points="1179.5,-118 1179.5,-137 1229.5,-137 1229.5,-118 1179.5,-118"/>
<text text-anchor="middle" x="1204.5" y="-125" font-family="Helvetica,sans-Serif" font-size="10.00" fill="#000000">climits</text>
</g>
<!-- Node35&#45;&gt;Node39 -->
<g id="edge53" class="edge">
<title>Node35&#45;&gt;Node39</title>
<path fill="none" stroke="#191970" d="M1387.555,-184.9833C1348.0164,-175.9023 1288.6096,-160.9655 1238.5,-143 1236.8627,-142.413 1235.1953,-141.7789 1233.5223,-141.114"/>
<polygon fill="#191970" stroke="#191970" points="1234.618,-137.7767 1224.0459,-137.0832 1231.8781,-144.2182 1234.618,-137.7767"/>
</g>
<!-- Node40 -->
<g id="node41" class="node">
<title>Node40</title>
<g id="a_node41"><a xlink:href="../../d7/df8/Types_8h.html" target="_top" xlink:title="MemoryResources/Types.h">
<polygon fill="none" stroke="#000000" points="1247.5,-118 1247.5,-137 1393.5,-137 1393.5,-118 1247.5,-118"/>
<text text-anchor="middle" x="1320.5" y="-125" font-family="Helvetica,sans-Serif" font-size="10.00" fill="#000000">MemoryResources/Types.h</text>
</a>
</g>
</g>
<!-- Node35&#45;&gt;Node40 -->
<g id="edge54" class="edge">
<title>Node35&#45;&gt;Node40</title>
<path fill="none" stroke="#191970" d="M1415.5964,-184.9005C1397.133,-173.7559 1366.4701,-155.2477 1344.9668,-142.2682"/>
<polygon fill="#191970" stroke="#191970" points="1346.7441,-139.2529 1336.3741,-137.0817 1343.1267,-145.2458 1346.7441,-139.2529"/>
</g>
<!-- Node41 -->
<g id="node42" class="node">
<title>Node41</title>
<polygon fill="none" stroke="#bfbfbf" points="1412,-118 1412,-137 1459,-137 1459,-118 1412,-118"/>
<text text-anchor="middle" x="1435.5" y="-125" font-family="Helvetica,sans-Serif" font-size="10.00" fill="#000000">cerrno</text>
</g>
<!-- Node35&#45;&gt;Node41 -->
<g id="edge55" class="edge">
<title>Node35&#45;&gt;Node41</title>
<path fill="none" stroke="#191970" d="M1432.0731,-184.9005C1432.6553,-175.149 1433.574,-159.7597 1434.3138,-147.3695"/>
<polygon fill="#191970" stroke="#191970" points="1437.8257,-147.2725 1434.928,-137.0817 1430.8381,-146.8553 1437.8257,-147.2725"/>
</g>
<!-- Node42&#45;&gt;Node7 -->
<g id="edge62" class="edge">
<title>Node42&#45;&gt;Node7</title>
<path fill="none" stroke="#191970" d="M1085.4476,-251.9908C1138.921,-243.4586 1215.9053,-229.3026 1281.5,-210 1283.9464,-209.2801 1286.4528,-208.4673 1288.9571,-207.6005"/>
<polygon fill="#191970" stroke="#191970" points="1290.3148,-210.83 1298.4743,-204.0718 1287.8812,-204.2667 1290.3148,-210.83"/>
</g>
<!-- Node42&#45;&gt;Node16 -->
<g id="edge64" class="edge">
<title>Node42&#45;&gt;Node16</title>
<path fill="none" stroke="#191970" d="M1064.2968,-251.9473C1104.2487,-242.8925 1164.0472,-228.0158 1214.5,-210 1216.1381,-209.4151 1217.806,-208.7826 1219.4795,-208.1191"/>
<polygon fill="#191970" stroke="#191970" points="1221.1223,-211.224 1228.9572,-204.0921 1218.3849,-204.7814 1221.1223,-211.224"/>
</g>
<!-- Node43 -->
<g id="node44" class="node">
<title>Node43</title>
<polygon fill="none" stroke="#bfbfbf" points="278.5,-179.5 278.5,-209.5 442.5,-209.5 442.5,-179.5 278.5,-179.5"/>
<text text-anchor="start" x="286.5" y="-197.5" font-family="Helvetica,sans-Serif" font-size="10.00" fill="#000000">Math/GenVector/Displacement</text>
<text text-anchor="middle" x="360.5" y="-186.5" font-family="Helvetica,sans-Serif" font-size="10.00" fill="#000000">Vector3D.h</text>
</g>
<!-- Node42&#45;&gt;Node43 -->
<g id="edge57" class="edge">
<title>Node42&#45;&gt;Node43</title>
<path fill="none" stroke="#191970" d="M976.8969,-251.9325C965.7501,-249.7021 953.7137,-247.5336 942.5,-246 728.9914,-216.8007 670.4717,-235.8047 452.9325,-210.0958"/>
<polygon fill="#191970" stroke="#191970" points="453.1342,-206.595 442.7883,-208.8784 452.3,-213.5451 453.1342,-206.595"/>
</g>
<!-- Node44 -->
<g id="node45" class="node">
<title>Node44</title>
<polygon fill="none" stroke="#bfbfbf" points="461,-185 461,-204 650,-204 650,-185 461,-185"/>
<text text-anchor="middle" x="555.5" y="-192" font-family="Helvetica,sans-Serif" font-size="10.00" fill="#000000">Math/GenVector/PositionVector3D.h</text>
</g>
<!-- Node42&#45;&gt;Node44 -->
<g id="edge58" class="edge">
<title>Node42&#45;&gt;Node44</title>
<path fill="none" stroke="#191970" d="M974.8119,-251.9371C964.2442,-249.8332 952.996,-247.7217 942.5,-246 817.3808,-225.4761 785.0992,-227.3462 659.5,-210 649.2907,-208.59 638.5263,-207.0481 627.9481,-205.501"/>
<polygon fill="#191970" stroke="#191970" points="628.2906,-202.0137 617.8875,-204.0202 627.2712,-208.9391 628.2906,-202.0137"/>
</g>
<!-- Node45 -->
<g id="node46" class="node">
<title>Node45</title>
<polygon fill="none" stroke="#bfbfbf" points="668.5,-185 668.5,-204 828.5,-204 828.5,-185 668.5,-185"/>
<text text-anchor="middle" x="748.5" y="-192" font-family="Helvetica,sans-Serif" font-size="10.00" fill="#000000">Math/GenVector/Rotation3D.h</text>
</g>
<!-- Node42&#45;&gt;Node45 -->
<g id="edge59" class="edge">
<title>Node42&#45;&gt;Node45</title>
<path fill="none" stroke="#191970" d="M980.9601,-251.9717C932.6369,-240.0246 849.7636,-219.5357 797.1284,-206.5225"/>
<polygon fill="#191970" stroke="#191970" points="797.8935,-203.1064 787.3457,-204.1039 796.2134,-209.9018 797.8935,-203.1064"/>
</g>
<!-- Node46 -->
<g id="node47" class="node">
<title>Node46</title>
<polygon fill="none" stroke="#bfbfbf" points="846.5,-185 846.5,-204 1014.5,-204 1014.5,-185 846.5,-185"/>
<text text-anchor="middle" x="930.5" y="-192" font-family="Helvetica,sans-Serif" font-size="10.00" fill="#000000">Math/GenVector/Transform3D.h</text>
</g>
<!-- Node42&#45;&gt;Node46 -->
<g id="edge60" class="edge">
<title>Node42&#45;&gt;Node46</title>
<path fill="none" stroke="#191970" d="M1006.7485,-251.9005C992.341,-241.0544 968.669,-223.2339 951.5184,-210.3229"/>
<polygon fill="#191970" stroke="#191970" points="953.3221,-207.2998 943.2279,-204.0817 949.1121,-212.8923 953.3221,-207.2998"/>
</g>
<!-- Node47 -->
<g id="node48" class="node">
<title>Node47</title>
<polygon fill="none" stroke="#bfbfbf" points="1033,-185 1033,-204 1206,-204 1206,-185 1033,-185"/>
<text text-anchor="middle" x="1119.5" y="-192" font-family="Helvetica,sans-Serif" font-size="10.00" fill="#000000">Math/GenVector/Translation3D.h</text>
</g>
<!-- Node42&#45;&gt;Node47 -->
<g id="edge61" class="edge">
<title>Node42&#45;&gt;Node47</title>
<path fill="none" stroke="#191970" d="M1033.8276,-251.9005C1050.2385,-240.9052 1077.3475,-222.7422 1096.6751,-209.7927"/>
<polygon fill="#191970" stroke="#191970" points="1098.8395,-212.5556 1105.199,-204.0817 1094.9431,-206.7402 1098.8395,-212.5556"/>
</g>
<!-- Node48 -->
<g id="node49" class="node">
<title>Node48</title>
<polygon fill="none" stroke="#bfbfbf" points="24.5,-185 24.5,-204 106.5,-204 106.5,-185 24.5,-185"/>
<text text-anchor="middle" x="65.5" y="-192" font-family="Helvetica,sans-Serif" font-size="10.00" fill="#000000">TGeoMatrix.h</text>
</g>
<!-- Node42&#45;&gt;Node48 -->
<g id="edge63" class="edge">
<title>Node42&#45;&gt;Node48</title>
<path fill="none" stroke="#191970" d="M978.1315,-251.9462C966.6509,-249.6304 954.1413,-247.4164 942.5,-246 577.2896,-201.5653 477.9716,-272.9876 115.5,-210 110.9965,-209.2174 106.3325,-208.144 101.745,-206.9243"/>
<polygon fill="#191970" stroke="#191970" points="102.4953,-203.4978 91.9163,-204.0765 100.5471,-210.2213 102.4953,-203.4978"/>
</g>
<!-- Node49 -->
<g id="node50" class="node">
<title>Node49</title>
<g id="a_node50"><a xlink:href="../../d2/dd0/Cartesian2D_8h.html" target="_top" xlink:title="MathUtils/Cartesian2D.h">
<polygon fill="none" stroke="#000000" points="125,-185 125,-204 260,-204 260,-185 125,-185"/>
<text text-anchor="middle" x="192.5" y="-192" font-family="Helvetica,sans-Serif" font-size="10.00" fill="#000000">MathUtils/Cartesian2D.h</text>
</a>
</g>
</g>
<!-- Node42&#45;&gt;Node49 -->
<g id="edge65" class="edge">
<title>Node42&#45;&gt;Node49</title>
<path fill="none" stroke="#191970" d="M977.7211,-251.942C966.3506,-249.6553 953.9988,-247.4571 942.5,-246 645.3375,-208.3453 566.6625,-247.6547 269.5,-210 261.325,-208.9641 252.719,-207.5536 244.3409,-206.003"/>
<polygon fill="#191970" stroke="#191970" points="244.7614,-202.5196 234.2789,-204.058 243.4328,-209.3924 244.7614,-202.5196"/>
</g>
<!-- Node50 -->
<g id="node51" class="node">
<title>Node50</title>
<polygon fill="none" stroke="#bfbfbf" points="207.5,-112.5 207.5,-142.5 371.5,-142.5 371.5,-112.5 207.5,-112.5"/>
<text text-anchor="start" x="215.5" y="-130.5" font-family="Helvetica,sans-Serif" font-size="10.00" fill="#000000">Math/GenVector/Displacement</text>
<text text-anchor="middle" x="289.5" y="-119.5" font-family="Helvetica,sans-Serif" font-size="10.00" fill="#000000">Vector2D.h</text>
</g>
<!-- Node49&#45;&gt;Node50 -->
<g id="edge66" class="edge">
<title>Node49&#45;&gt;Node50</title>
<path fill="none" stroke="#191970" d="M206.3977,-184.9005C220.1735,-175.3853 241.7205,-160.5023 259.4221,-148.2755"/>
<polygon fill="#191970" stroke="#191970" points="261.5132,-151.0849 267.7521,-142.5218 257.5349,-145.3253 261.5132,-151.0849"/>
</g>
<!-- Node51 -->
<g id="node52" class="node">
<title>Node51</title>
<polygon fill="none" stroke="#bfbfbf" points="0,-118 0,-137 189,-137 189,-118 0,-118"/>
<text text-anchor="middle" x="94.5" y="-125" font-family="Helvetica,sans-Serif" font-size="10.00" fill="#000000">Math/GenVector/PositionVector2D.h</text>
</g>
<!-- Node49&#45;&gt;Node51 -->
<g id="edge67" class="edge">
<title>Node49&#45;&gt;Node51</title>
<path fill="none" stroke="#191970" d="M178.459,-184.9005C162.3762,-173.9052 135.8094,-155.7422 116.8684,-142.7927"/>
<polygon fill="#191970" stroke="#191970" points="118.7455,-139.8362 108.515,-137.0817 114.7948,-145.6148 118.7455,-139.8362"/>
</g>
</g>
</svg>
