<?xml version="1.0" encoding="UTF-8" standalone="no"?>
<!DOCTYPE svg PUBLIC "-//W3C//DTD SVG 1.1//EN"
 "http://www.w3.org/Graphics/SVG/1.1/DTD/svg11.dtd">
<!-- Generated by graphviz version 2.40.1 (20161225.0304)
 -->
<!-- Title: /home/travis/build/AliceO2Group/AliceO2/Framework/Utils/include/DPLUtils/MakeRootTreeWriterSpec.h Pages: 1 -->
<svg width="3954pt" height="250pt"
 viewBox="0.00 0.00 3954.00 250.00" xmlns="http://www.w3.org/2000/svg" xmlns:xlink="http://www.w3.org/1999/xlink">
<g id="graph0" class="graph" transform="scale(1 1) rotate(0) translate(4 246)">
<title>/home/travis/build/AliceO2Group/AliceO2/Framework/Utils/include/DPLUtils/MakeRootTreeWriterSpec.h</title>
<!-- Node131 -->
<g id="node1" class="node">
<title>Node131</title>
<polygon fill="#bfbfbf" stroke="#000000" points="1929,-189.5 1929,-241.5 2122,-241.5 2122,-189.5 1929,-189.5"/>
<text text-anchor="start" x="1937" y="-229.5" font-family="Helvetica,sans-Serif" font-size="10.00" fill="#000000">/home/travis/build</text>
<text text-anchor="start" x="1937" y="-218.5" font-family="Helvetica,sans-Serif" font-size="10.00" fill="#000000">/AliceO2Group/AliceO2</text>
<text text-anchor="start" x="1937" y="-207.5" font-family="Helvetica,sans-Serif" font-size="10.00" fill="#000000">/Framework/Utils/include</text>
<text text-anchor="middle" x="2025.5" y="-196.5" font-family="Helvetica,sans-Serif" font-size="10.00" fill="#000000">/DPLUtils/MakeRootTreeWriterSpec.h</text>
</g>
<!-- Node132 -->
<g id="node2" class="node">
<title>Node132</title>
<g id="a_node2"><a xlink:href="../../dd/d16/CPV_2workflow_2src_2RecoWorkflow_8cxx.html" target="_top" xlink:title="/home/travis/build\l/AliceO2Group/AliceO2\l/Detectors/CPV/workflow\l/src/RecoWorkflow.cxx">
<polygon fill="none" stroke="#000000" points="0,-95 0,-147 137,-147 137,-95 0,-95"/>
<text text-anchor="start" x="8" y="-135" font-family="Helvetica,sans-Serif" font-size="10.00" fill="#000000">/home/travis/build</text>
<text text-anchor="start" x="8" y="-124" font-family="Helvetica,sans-Serif" font-size="10.00" fill="#000000">/AliceO2Group/AliceO2</text>
<text text-anchor="start" x="8" y="-113" font-family="Helvetica,sans-Serif" font-size="10.00" fill="#000000">/Detectors/CPV/workflow</text>
<text text-anchor="middle" x="68.5" y="-102" font-family="Helvetica,sans-Serif" font-size="10.00" fill="#000000">/src/RecoWorkflow.cxx</text>
</a>
</g>
</g>
<!-- Node131&#45;&gt;Node132 -->
<g id="edge1" class="edge">
<title>Node131&#45;&gt;Node132</title>
<path fill="none" stroke="#191970" d="M1918.5785,-214.1566C1546.1872,-209.1727 319.4092,-190.0863 146.5,-153 139.6305,-151.5266 132.5949,-149.4807 125.6969,-147.1288"/>
<polygon fill="#191970" stroke="#191970" points="1918.7679,-217.6594 1928.8136,-214.2929 1918.8612,-210.66 1918.7679,-217.6594"/>
</g>
<!-- Node133 -->
<g id="node3" class="node">
<title>Node133</title>
<g id="a_node3"><a xlink:href="../../d2/dbf/EMCAL_2workflow_2src_2RecoWorkflow_8cxx.html" target="_top" xlink:title="/home/travis/build\l/AliceO2Group/AliceO2\l/Detectors/EMCAL/workflow\l/src/RecoWorkflow.cxx">
<polygon fill="none" stroke="#000000" points="155.5,-95 155.5,-147 305.5,-147 305.5,-95 155.5,-95"/>
<text text-anchor="start" x="163.5" y="-135" font-family="Helvetica,sans-Serif" font-size="10.00" fill="#000000">/home/travis/build</text>
<text text-anchor="start" x="163.5" y="-124" font-family="Helvetica,sans-Serif" font-size="10.00" fill="#000000">/AliceO2Group/AliceO2</text>
<text text-anchor="start" x="163.5" y="-113" font-family="Helvetica,sans-Serif" font-size="10.00" fill="#000000">/Detectors/EMCAL/workflow</text>
<text text-anchor="middle" x="230.5" y="-102" font-family="Helvetica,sans-Serif" font-size="10.00" fill="#000000">/src/RecoWorkflow.cxx</text>
</a>
</g>
</g>
<!-- Node131&#45;&gt;Node133 -->
<g id="edge2" class="edge">
<title>Node131&#45;&gt;Node133</title>
<path fill="none" stroke="#191970" d="M1918.6933,-213.6536C1568.7135,-207.3186 469.9284,-185.0739 313.5,-153 306.2382,-151.511 298.7815,-149.4554 291.4585,-147.098"/>
<polygon fill="#191970" stroke="#191970" points="1918.7662,-217.1554 1928.8277,-213.8363 1918.8925,-210.1565 1918.7662,-217.1554"/>
</g>
<!-- Node134 -->
<g id="node4" class="node">
<title>Node134</title>
<g id="a_node4"><a xlink:href="../../d3/d52/TrackWriterTPCITSSpec_8cxx.html" target="_top" xlink:title="/home/travis/build\l/AliceO2Group/AliceO2\l/Detectors/GlobalTrackingWorkflow\l/src/TrackWriterTPCITSSpec.cxx">
<polygon fill="none" stroke="#000000" points="323,-95 323,-147 510,-147 510,-95 323,-95"/>
<text text-anchor="start" x="331" y="-135" font-family="Helvetica,sans-Serif" font-size="10.00" fill="#000000">/home/travis/build</text>
<text text-anchor="start" x="331" y="-124" font-family="Helvetica,sans-Serif" font-size="10.00" fill="#000000">/AliceO2Group/AliceO2</text>
<text text-anchor="start" x="331" y="-113" font-family="Helvetica,sans-Serif" font-size="10.00" fill="#000000">/Detectors/GlobalTrackingWorkflow</text>
<text text-anchor="middle" x="416.5" y="-102" font-family="Helvetica,sans-Serif" font-size="10.00" fill="#000000">/src/TrackWriterTPCITSSpec.cxx</text>
</a>
</g>
</g>
<!-- Node131&#45;&gt;Node134 -->
<g id="edge3" class="edge">
<title>Node131&#45;&gt;Node134</title>
<path fill="none" stroke="#191970" d="M1918.587,-214.7051C1621.1124,-211.9146 787.937,-200.007 518.5,-153 509.7241,-151.4689 500.6532,-149.387 491.7065,-147.0146"/>
<polygon fill="#191970" stroke="#191970" points="1918.9094,-218.2081 1928.9413,-214.8006 1918.974,-211.2084 1918.9094,-218.2081"/>
</g>
<!-- Node135 -->
<g id="node5" class="node">
<title>Node135</title>
<g id="a_node5"><a xlink:href="../../d2/d27/TPCResidualWriterSpec_8cxx.html" target="_top" xlink:title="/home/travis/build\l/AliceO2Group/AliceO2\l/Detectors/GlobalTrackingWorkflow\l/tpcinterpolationworkflow/src\l/TPCResidualWriterSpec.cxx">
<polygon fill="none" stroke="#000000" points="528,-89.5 528,-152.5 715,-152.5 715,-89.5 528,-89.5"/>
<text text-anchor="start" x="536" y="-140.5" font-family="Helvetica,sans-Serif" font-size="10.00" fill="#000000">/home/travis/build</text>
<text text-anchor="start" x="536" y="-129.5" font-family="Helvetica,sans-Serif" font-size="10.00" fill="#000000">/AliceO2Group/AliceO2</text>
<text text-anchor="start" x="536" y="-118.5" font-family="Helvetica,sans-Serif" font-size="10.00" fill="#000000">/Detectors/GlobalTrackingWorkflow</text>
<text text-anchor="start" x="536" y="-107.5" font-family="Helvetica,sans-Serif" font-size="10.00" fill="#000000">/tpcinterpolationworkflow/src</text>
<text text-anchor="middle" x="621.5" y="-96.5" font-family="Helvetica,sans-Serif" font-size="10.00" fill="#000000">/TPCResidualWriterSpec.cxx</text>
</a>
</g>
</g>
<!-- Node131&#45;&gt;Node135 -->
<g id="edge4" class="edge">
<title>Node131&#45;&gt;Node135</title>
<path fill="none" stroke="#191970" d="M1918.7897,-213.8489C1650.4787,-209.1395 952.8825,-193.2892 724.5,-153 721.3651,-152.447 718.1924,-151.8263 715.0007,-151.1494"/>
<polygon fill="#191970" stroke="#191970" points="1918.8658,-217.3507 1928.9251,-214.0251 1918.9875,-210.3518 1918.8658,-217.3507"/>
</g>
<!-- Node136 -->
<g id="node6" class="node">
<title>Node136</title>
<g id="a_node6"><a xlink:href="../../d2/de0/MUON_2MID_2Workflow_2src_2RecoWorkflow_8cxx.html" target="_top" xlink:title="Definition of MID reconstruction workflow. ">
<polygon fill="none" stroke="#000000" points="733.5,-95 733.5,-147 903.5,-147 903.5,-95 733.5,-95"/>
<text text-anchor="start" x="741.5" y="-135" font-family="Helvetica,sans-Serif" font-size="10.00" fill="#000000">/home/travis/build</text>
<text text-anchor="start" x="741.5" y="-124" font-family="Helvetica,sans-Serif" font-size="10.00" fill="#000000">/AliceO2Group/AliceO2</text>
<text text-anchor="start" x="741.5" y="-113" font-family="Helvetica,sans-Serif" font-size="10.00" fill="#000000">/Detectors/MUON/MID/Workflow</text>
<text text-anchor="middle" x="818.5" y="-102" font-family="Helvetica,sans-Serif" font-size="10.00" fill="#000000">/src/RecoWorkflow.cxx</text>
</a>
</g>
</g>
<!-- Node131&#45;&gt;Node136 -->
<g id="edge5" class="edge">
<title>Node131&#45;&gt;Node136</title>
<path fill="none" stroke="#191970" d="M1918.5253,-213.1945C1678.4784,-207.4202 1103.0607,-190.0653 912.5,-153 904.5466,-151.453 896.3452,-149.3955 888.2549,-147.0669"/>
<polygon fill="#191970" stroke="#191970" points="1918.5787,-216.6967 1928.6594,-213.4362 1918.7457,-209.6987 1918.5787,-216.6967"/>
</g>
<!-- Node137 -->
<g id="node7" class="node">
<title>Node137</title>
<g id="a_node7"><a xlink:href="../../dd/d65/RecoWorkflowMC_8cxx.html" target="_top" xlink:title="Definition of MID reconstruction workflow for MC. ">
<polygon fill="none" stroke="#000000" points="921.5,-95 921.5,-147 1091.5,-147 1091.5,-95 921.5,-95"/>
<text text-anchor="start" x="929.5" y="-135" font-family="Helvetica,sans-Serif" font-size="10.00" fill="#000000">/home/travis/build</text>
<text text-anchor="start" x="929.5" y="-124" font-family="Helvetica,sans-Serif" font-size="10.00" fill="#000000">/AliceO2Group/AliceO2</text>
<text text-anchor="start" x="929.5" y="-113" font-family="Helvetica,sans-Serif" font-size="10.00" fill="#000000">/Detectors/MUON/MID/Workflow</text>
<text text-anchor="middle" x="1006.5" y="-102" font-family="Helvetica,sans-Serif" font-size="10.00" fill="#000000">/src/RecoWorkflowMC.cxx</text>
</a>
</g>
</g>
<!-- Node131&#45;&gt;Node137 -->
<g id="edge6" class="edge">
<title>Node131&#45;&gt;Node137</title>
<path fill="none" stroke="#191970" d="M1918.5678,-211.775C1709.6386,-203.9204 1254.2225,-183.808 1100.5,-153 1092.6401,-151.4248 1084.5342,-149.366 1076.5309,-147.0513"/>
<polygon fill="#191970" stroke="#191970" points="1918.5083,-215.2752 1928.6321,-212.1511 1918.7698,-208.2801 1918.5083,-215.2752"/>
</g>
<!-- Node138 -->
<g id="node8" class="node">
<title>Node138</title>
<g id="a_node8"><a xlink:href="../../d8/d7e/PHOS_2workflow_2src_2RecoWorkflow_8cxx.html" target="_top" xlink:title="/home/travis/build\l/AliceO2Group/AliceO2\l/Detectors/PHOS/workflow\l/src/RecoWorkflow.cxx">
<polygon fill="none" stroke="#000000" points="1109.5,-95 1109.5,-147 1253.5,-147 1253.5,-95 1109.5,-95"/>
<text text-anchor="start" x="1117.5" y="-135" font-family="Helvetica,sans-Serif" font-size="10.00" fill="#000000">/home/travis/build</text>
<text text-anchor="start" x="1117.5" y="-124" font-family="Helvetica,sans-Serif" font-size="10.00" fill="#000000">/AliceO2Group/AliceO2</text>
<text text-anchor="start" x="1117.5" y="-113" font-family="Helvetica,sans-Serif" font-size="10.00" fill="#000000">/Detectors/PHOS/workflow</text>
<text text-anchor="middle" x="1181.5" y="-102" font-family="Helvetica,sans-Serif" font-size="10.00" fill="#000000">/src/RecoWorkflow.cxx</text>
</a>
</g>
</g>
<!-- Node131&#45;&gt;Node138 -->
<g id="edge7" class="edge">
<title>Node131&#45;&gt;Node138</title>
<path fill="none" stroke="#191970" d="M1918.9006,-210.6431C1739.3546,-201.8141 1384.2976,-181.3879 1262.5,-153 1255.7263,-151.4212 1248.7716,-149.3766 1241.9197,-147.0846"/>
<polygon fill="#191970" stroke="#191970" points="1918.7339,-214.1391 1928.8928,-211.1314 1919.0756,-207.1474 1918.7339,-214.1391"/>
</g>
<!-- Node139 -->
<g id="node9" class="node">
<title>Node139</title>
<g id="a_node9"><a xlink:href="../../d0/d80/TPC_2workflow_2src_2RecoWorkflow_8cxx.html" target="_top" xlink:title="/home/travis/build\l/AliceO2Group/AliceO2\l/Detectors/TPC/workflow\l/src/RecoWorkflow.cxx">
<polygon fill="none" stroke="#000000" points="1271.5,-95 1271.5,-147 1407.5,-147 1407.5,-95 1271.5,-95"/>
<text text-anchor="start" x="1279.5" y="-135" font-family="Helvetica,sans-Serif" font-size="10.00" fill="#000000">/home/travis/build</text>
<text text-anchor="start" x="1279.5" y="-124" font-family="Helvetica,sans-Serif" font-size="10.00" fill="#000000">/AliceO2Group/AliceO2</text>
<text text-anchor="start" x="1279.5" y="-113" font-family="Helvetica,sans-Serif" font-size="10.00" fill="#000000">/Detectors/TPC/workflow</text>
<text text-anchor="middle" x="1339.5" y="-102" font-family="Helvetica,sans-Serif" font-size="10.00" fill="#000000">/src/RecoWorkflow.cxx</text>
</a>
</g>
</g>
<!-- Node131&#45;&gt;Node139 -->
<g id="edge8" class="edge">
<title>Node131&#45;&gt;Node139</title>
<path fill="none" stroke="#191970" d="M1918.9067,-208.2365C1770.5579,-197.4946 1509.6827,-176.1336 1417.5,-153 1411.1115,-151.3968 1404.5588,-149.3684 1398.097,-147.1139"/>
<polygon fill="#191970" stroke="#191970" points="1918.7252,-211.7324 1928.9509,-208.96 1919.2282,-204.7505 1918.7252,-211.7324"/>
</g>
<!-- Node140 -->
<g id="node10" class="node">
<title>Node140</title>
<g id="a_node10"><a xlink:href="../../dd/d1a/TRDDigitWriterSpec_8cxx.html" target="_top" xlink:title="/home/travis/build\l/AliceO2Group/AliceO2\l/Detectors/TRD/workflow\l/src/TRDDigitWriterSpec.cxx">
<polygon fill="none" stroke="#000000" points="1426,-95 1426,-147 1579,-147 1579,-95 1426,-95"/>
<text text-anchor="start" x="1434" y="-135" font-family="Helvetica,sans-Serif" font-size="10.00" fill="#000000">/home/travis/build</text>
<text text-anchor="start" x="1434" y="-124" font-family="Helvetica,sans-Serif" font-size="10.00" fill="#000000">/AliceO2Group/AliceO2</text>
<text text-anchor="start" x="1434" y="-113" font-family="Helvetica,sans-Serif" font-size="10.00" fill="#000000">/Detectors/TRD/workflow</text>
<text text-anchor="middle" x="1502.5" y="-102" font-family="Helvetica,sans-Serif" font-size="10.00" fill="#000000">/src/TRDDigitWriterSpec.cxx</text>
</a>
</g>
</g>
<!-- Node131&#45;&gt;Node140 -->
<g id="edge9" class="edge">
<title>Node131&#45;&gt;Node140</title>
<path fill="none" stroke="#191970" d="M1918.7348,-206.6726C1829.4823,-197.7648 1699.3522,-181.2035 1588.5,-153 1581.8613,-151.311 1575.0265,-149.2865 1568.2486,-147.0869"/>
<polygon fill="#191970" stroke="#191970" points="1918.574,-210.1736 1928.8684,-207.6687 1919.2588,-203.2072 1918.574,-210.1736"/>
</g>
<!-- Node141 -->
<g id="node11" class="node">
<title>Node141</title>
<g id="a_node11"><a xlink:href="../../d0/dfb/TRDTrackletWriterSpec_8cxx.html" target="_top" xlink:title="/home/travis/build\l/AliceO2Group/AliceO2\l/Detectors/TRD/workflow\l/src/TRDTrackletWriterSpec.cxx">
<polygon fill="none" stroke="#000000" points="1597.5,-95 1597.5,-147 1765.5,-147 1765.5,-95 1597.5,-95"/>
<text text-anchor="start" x="1605.5" y="-135" font-family="Helvetica,sans-Serif" font-size="10.00" fill="#000000">/home/travis/build</text>
<text text-anchor="start" x="1605.5" y="-124" font-family="Helvetica,sans-Serif" font-size="10.00" fill="#000000">/AliceO2Group/AliceO2</text>
<text text-anchor="start" x="1605.5" y="-113" font-family="Helvetica,sans-Serif" font-size="10.00" fill="#000000">/Detectors/TRD/workflow</text>
<text text-anchor="middle" x="1681.5" y="-102" font-family="Helvetica,sans-Serif" font-size="10.00" fill="#000000">/src/TRDTrackletWriterSpec.cxx</text>
</a>
</g>
</g>
<!-- Node131&#45;&gt;Node141 -->
<g id="edge10" class="edge">
<title>Node131&#45;&gt;Node141</title>
<path fill="none" stroke="#191970" d="M1918.98,-191.1525C1874.1335,-180.34 1821.5377,-166.9199 1774.5,-153 1768.1964,-151.1346 1761.6854,-149.1065 1755.1719,-147.0068"/>
<polygon fill="#191970" stroke="#191970" points="1918.1808,-194.5601 1928.7214,-193.4897 1919.814,-187.7532 1918.1808,-194.5601"/>
</g>
<!-- Node142 -->
<g id="node12" class="node">
<title>Node142</title>
<g id="a_node12"><a xlink:href="../../da/dcf/test__RootTreeWriter_8cxx.html" target="_top" xlink:title="/home/travis/build\l/AliceO2Group/AliceO2\l/Framework/Utils/test\l/test_RootTreeWriter.cxx">
<polygon fill="none" stroke="#000000" points="1783.5,-95 1783.5,-147 1917.5,-147 1917.5,-95 1783.5,-95"/>
<text text-anchor="start" x="1791.5" y="-135" font-family="Helvetica,sans-Serif" font-size="10.00" fill="#000000">/home/travis/build</text>
<text text-anchor="start" x="1791.5" y="-124" font-family="Helvetica,sans-Serif" font-size="10.00" fill="#000000">/AliceO2Group/AliceO2</text>
<text text-anchor="start" x="1791.5" y="-113" font-family="Helvetica,sans-Serif" font-size="10.00" fill="#000000">/Framework/Utils/test</text>
<text text-anchor="middle" x="1850.5" y="-102" font-family="Helvetica,sans-Serif" font-size="10.00" fill="#000000">/test_RootTreeWriter.cxx</text>
</a>
</g>
</g>
<!-- Node131&#45;&gt;Node142 -->
<g id="edge11" class="edge">
<title>Node131&#45;&gt;Node142</title>
<path fill="none" stroke="#191970" d="M1968.1525,-184.5324C1945.7645,-172.4429 1920.376,-158.7331 1898.9287,-147.1515"/>
<polygon fill="#191970" stroke="#191970" points="1966.7551,-187.7554 1977.2172,-189.4273 1970.0812,-181.5961 1966.7551,-187.7554"/>
</g>
<!-- Node143 -->
<g id="node13" class="node">
<title>Node143</title>
<g id="a_node13"><a xlink:href="../../d1/d02/test__RootTreeWriterWorkflow_8cxx.html" target="_top" xlink:title="/home/travis/build\l/AliceO2Group/AliceO2\l/Framework/Utils/test\l/test_RootTreeWriterWorkflow.cxx">
<polygon fill="none" stroke="#000000" points="1936,-95 1936,-147 2115,-147 2115,-95 1936,-95"/>
<text text-anchor="start" x="1944" y="-135" font-family="Helvetica,sans-Serif" font-size="10.00" fill="#000000">/home/travis/build</text>
<text text-anchor="start" x="1944" y="-124" font-family="Helvetica,sans-Serif" font-size="10.00" fill="#000000">/AliceO2Group/AliceO2</text>
<text text-anchor="start" x="1944" y="-113" font-family="Helvetica,sans-Serif" font-size="10.00" fill="#000000">/Framework/Utils/test</text>
<text text-anchor="middle" x="2025.5" y="-102" font-family="Helvetica,sans-Serif" font-size="10.00" fill="#000000">/test_RootTreeWriterWorkflow.cxx</text>
</a>
</g>
</g>
<!-- Node131&#45;&gt;Node143 -->
<g id="edge12" class="edge">
<title>Node131&#45;&gt;Node143</title>
<path fill="none" stroke="#191970" d="M2025.5,-179.1645C2025.5,-168.5577 2025.5,-157.1746 2025.5,-147.3157"/>
<polygon fill="#191970" stroke="#191970" points="2022.0001,-179.4273 2025.5,-189.4273 2029.0001,-179.4273 2022.0001,-179.4273"/>
</g>
<!-- Node144 -->
<g id="node14" class="node">
<title>Node144</title>
<g id="a_node14"><a xlink:href="../../d1/dc0/CPVDigitWriterSpec_8h.html" target="_top" xlink:title="/home/travis/build\l/AliceO2Group/AliceO2\l/Steer/DigitizerWorkflow\l/src/CPVDigitWriterSpec.h">
<polygon fill="none" stroke="#000000" points="2133,-95 2133,-147 2274,-147 2274,-95 2133,-95"/>
<text text-anchor="start" x="2141" y="-135" font-family="Helvetica,sans-Serif" font-size="10.00" fill="#000000">/home/travis/build</text>
<text text-anchor="start" x="2141" y="-124" font-family="Helvetica,sans-Serif" font-size="10.00" fill="#000000">/AliceO2Group/AliceO2</text>
<text text-anchor="start" x="2141" y="-113" font-family="Helvetica,sans-Serif" font-size="10.00" fill="#000000">/Steer/DigitizerWorkflow</text>
<text text-anchor="middle" x="2203.5" y="-102" font-family="Helvetica,sans-Serif" font-size="10.00" fill="#000000">/src/CPVDigitWriterSpec.h</text>
</a>
</g>
</g>
<!-- Node131&#45;&gt;Node144 -->
<g id="edge13" class="edge">
<title>Node131&#45;&gt;Node144</title>
<path fill="none" stroke="#191970" d="M2083.5271,-184.6935C2106.3727,-172.5648 2132.3291,-158.7845 2154.2411,-147.1515"/>
<polygon fill="#191970" stroke="#191970" points="2081.8017,-181.6468 2074.6105,-189.4273 2085.0841,-187.8295 2081.8017,-181.6468"/>
</g>
<!-- Node146 -->
<g id="node16" class="node">
<title>Node146</title>
<g id="a_node16"><a xlink:href="../../d9/db2/EMCALDigitWriterSpec_8cxx.html" target="_top" xlink:title="/home/travis/build\l/AliceO2Group/AliceO2\l/Steer/DigitizerWorkflow\l/src/EMCALDigitWriterSpec.cxx">
<polygon fill="none" stroke="#000000" points="2292.5,-95 2292.5,-147 2458.5,-147 2458.5,-95 2292.5,-95"/>
<text text-anchor="start" x="2300.5" y="-135" font-family="Helvetica,sans-Serif" font-size="10.00" fill="#000000">/home/travis/build</text>
<text text-anchor="start" x="2300.5" y="-124" font-family="Helvetica,sans-Serif" font-size="10.00" fill="#000000">/AliceO2Group/AliceO2</text>
<text text-anchor="start" x="2300.5" y="-113" font-family="Helvetica,sans-Serif" font-size="10.00" fill="#000000">/Steer/DigitizerWorkflow</text>
<text text-anchor="middle" x="2375.5" y="-102" font-family="Helvetica,sans-Serif" font-size="10.00" fill="#000000">/src/EMCALDigitWriterSpec.cxx</text>
</a>
</g>
</g>
<!-- Node131&#45;&gt;Node146 -->
<g id="edge15" class="edge">
<title>Node131&#45;&gt;Node146</title>
<path fill="none" stroke="#191970" d="M2132.1051,-192.1262C2178.8416,-181.2495 2234.1746,-167.5156 2283.5,-153 2289.7458,-151.162 2296.1938,-149.153 2302.6419,-147.0661"/>
<polygon fill="#191970" stroke="#191970" points="2131.221,-188.7382 2122.2678,-194.403 2132.7995,-195.5579 2131.221,-188.7382"/>
</g>
<!-- Node147 -->
<g id="node17" class="node">
<title>Node147</title>
<g id="a_node17"><a xlink:href="../../d8/dcd/FDDDigitWriterSpec_8h.html" target="_top" xlink:title="/home/travis/build\l/AliceO2Group/AliceO2\l/Steer/DigitizerWorkflow\l/src/FDDDigitWriterSpec.h">
<polygon fill="none" stroke="#000000" points="2476.5,-95 2476.5,-147 2618.5,-147 2618.5,-95 2476.5,-95"/>
<text text-anchor="start" x="2484.5" y="-135" font-family="Helvetica,sans-Serif" font-size="10.00" fill="#000000">/home/travis/build</text>
<text text-anchor="start" x="2484.5" y="-124" font-family="Helvetica,sans-Serif" font-size="10.00" fill="#000000">/AliceO2Group/AliceO2</text>
<text text-anchor="start" x="2484.5" y="-113" font-family="Helvetica,sans-Serif" font-size="10.00" fill="#000000">/Steer/DigitizerWorkflow</text>
<text text-anchor="middle" x="2547.5" y="-102" font-family="Helvetica,sans-Serif" font-size="10.00" fill="#000000">/src/FDDDigitWriterSpec.h</text>
</a>
</g>
</g>
<!-- Node131&#45;&gt;Node147 -->
<g id="edge16" class="edge">
<title>Node131&#45;&gt;Node147</title>
<path fill="none" stroke="#191970" d="M2132.0885,-207.6474C2222.5142,-199.2786 2355.081,-182.9647 2467.5,-153 2473.8598,-151.3048 2480.3967,-149.247 2486.862,-147.0014"/>
<polygon fill="#191970" stroke="#191970" points="2131.7421,-204.1644 2122.1,-208.5554 2132.3758,-211.1356 2131.7421,-204.1644"/>
</g>
<!-- Node148 -->
<g id="node18" class="node">
<title>Node148</title>
<g id="a_node18"><a xlink:href="../../d4/d85/FT0DigitWriterSpec_8h.html" target="_top" xlink:title="/home/travis/build\l/AliceO2Group/AliceO2\l/Steer/DigitizerWorkflow\l/src/FT0DigitWriterSpec.h">
<polygon fill="none" stroke="#000000" points="2637,-95 2637,-147 2776,-147 2776,-95 2637,-95"/>
<text text-anchor="start" x="2645" y="-135" font-family="Helvetica,sans-Serif" font-size="10.00" fill="#000000">/home/travis/build</text>
<text text-anchor="start" x="2645" y="-124" font-family="Helvetica,sans-Serif" font-size="10.00" fill="#000000">/AliceO2Group/AliceO2</text>
<text text-anchor="start" x="2645" y="-113" font-family="Helvetica,sans-Serif" font-size="10.00" fill="#000000">/Steer/DigitizerWorkflow</text>
<text text-anchor="middle" x="2706.5" y="-102" font-family="Helvetica,sans-Serif" font-size="10.00" fill="#000000">/src/FT0DigitWriterSpec.h</text>
</a>
</g>
</g>
<!-- Node131&#45;&gt;Node148 -->
<g id="edge18" class="edge">
<title>Node131&#45;&gt;Node148</title>
<path fill="none" stroke="#191970" d="M2132.674,-208.0111C2279.8187,-197.1043 2536.5183,-175.666 2627.5,-153 2633.9615,-151.3903 2640.5924,-149.3577 2647.1335,-147.1007"/>
<polygon fill="#191970" stroke="#191970" points="2131.9882,-204.552 2122.2727,-208.778 2132.503,-211.5331 2131.9882,-204.552"/>
</g>
<!-- Node149 -->
<g id="node19" class="node">
<title>Node149</title>
<g id="a_node19"><a xlink:href="../../d3/d12/FV0DigitWriterSpec_8h.html" target="_top" xlink:title="/home/travis/build\l/AliceO2Group/AliceO2\l/Steer/DigitizerWorkflow\l/src/FV0DigitWriterSpec.h">
<polygon fill="none" stroke="#000000" points="2794.5,-95 2794.5,-147 2934.5,-147 2934.5,-95 2794.5,-95"/>
<text text-anchor="start" x="2802.5" y="-135" font-family="Helvetica,sans-Serif" font-size="10.00" fill="#000000">/home/travis/build</text>
<text text-anchor="start" x="2802.5" y="-124" font-family="Helvetica,sans-Serif" font-size="10.00" fill="#000000">/AliceO2Group/AliceO2</text>
<text text-anchor="start" x="2802.5" y="-113" font-family="Helvetica,sans-Serif" font-size="10.00" fill="#000000">/Steer/DigitizerWorkflow</text>
<text text-anchor="middle" x="2864.5" y="-102" font-family="Helvetica,sans-Serif" font-size="10.00" fill="#000000">/src/FV0DigitWriterSpec.h</text>
</a>
</g>
</g>
<!-- Node131&#45;&gt;Node149 -->
<g id="edge20" class="edge">
<title>Node131&#45;&gt;Node149</title>
<path fill="none" stroke="#191970" d="M2132.3238,-210.7039C2311.3988,-201.9961 2664.445,-181.7861 2785.5,-153 2792.1223,-151.4253 2798.9154,-149.3832 2805.6042,-147.0927"/>
<polygon fill="#191970" stroke="#191970" points="2131.914,-207.2195 2122.0945,-211.198 2132.2518,-214.2114 2131.914,-207.2195"/>
</g>
<!-- Node150 -->
<g id="node20" class="node">
<title>Node150</title>
<g id="a_node20"><a xlink:href="../../d5/d5b/HMPIDDigitWriterSpec_8h.html" target="_top" xlink:title="/home/travis/build\l/AliceO2Group/AliceO2\l/Steer/DigitizerWorkflow\l/src/HMPIDDigitWriterSpec.h">
<polygon fill="none" stroke="#000000" points="2952.5,-95 2952.5,-147 3106.5,-147 3106.5,-95 2952.5,-95"/>
<text text-anchor="start" x="2960.5" y="-135" font-family="Helvetica,sans-Serif" font-size="10.00" fill="#000000">/home/travis/build</text>
<text text-anchor="start" x="2960.5" y="-124" font-family="Helvetica,sans-Serif" font-size="10.00" fill="#000000">/AliceO2Group/AliceO2</text>
<text text-anchor="start" x="2960.5" y="-113" font-family="Helvetica,sans-Serif" font-size="10.00" fill="#000000">/Steer/DigitizerWorkflow</text>
<text text-anchor="middle" x="3029.5" y="-102" font-family="Helvetica,sans-Serif" font-size="10.00" fill="#000000">/src/HMPIDDigitWriterSpec.h</text>
</a>
</g>
</g>
<!-- Node131&#45;&gt;Node150 -->
<g id="edge22" class="edge">
<title>Node131&#45;&gt;Node150</title>
<path fill="none" stroke="#191970" d="M2132.093,-212.0951C2339.7559,-204.8272 2791.4845,-185.7346 2943.5,-153 2950.8196,-151.4238 2958.3503,-149.3478 2965.7679,-147.0085"/>
<polygon fill="#191970" stroke="#191970" points="2131.9614,-208.5974 2122.0889,-212.4426 2132.2045,-215.5932 2131.9614,-208.5974"/>
</g>
<!-- Node151 -->
<g id="node21" class="node">
<title>Node151</title>
<g id="a_node21"><a xlink:href="../../d8/d60/MCHDigitWriterSpec_8h.html" target="_top" xlink:title="/home/travis/build\l/AliceO2Group/AliceO2\l/Steer/DigitizerWorkflow\l/src/MCHDigitWriterSpec.h">
<polygon fill="none" stroke="#000000" points="3124.5,-95 3124.5,-147 3268.5,-147 3268.5,-95 3124.5,-95"/>
<text text-anchor="start" x="3132.5" y="-135" font-family="Helvetica,sans-Serif" font-size="10.00" fill="#000000">/home/travis/build</text>
<text text-anchor="start" x="3132.5" y="-124" font-family="Helvetica,sans-Serif" font-size="10.00" fill="#000000">/AliceO2Group/AliceO2</text>
<text text-anchor="start" x="3132.5" y="-113" font-family="Helvetica,sans-Serif" font-size="10.00" fill="#000000">/Steer/DigitizerWorkflow</text>
<text text-anchor="middle" x="3196.5" y="-102" font-family="Helvetica,sans-Serif" font-size="10.00" fill="#000000">/src/MCHDigitWriterSpec.h</text>
</a>
</g>
</g>
<!-- Node131&#45;&gt;Node151 -->
<g id="edge24" class="edge">
<title>Node131&#45;&gt;Node151</title>
<path fill="none" stroke="#191970" d="M2132.4882,-213.6902C2369.0826,-208.9857 2930.3641,-193.7705 3115.5,-153 3122.4402,-151.4716 3129.5622,-149.4259 3136.5655,-147.1042"/>
<polygon fill="#191970" stroke="#191970" points="2132.0833,-210.1973 2122.154,-213.893 2132.2208,-217.196 2132.0833,-210.1973"/>
</g>
<!-- Node152 -->
<g id="node22" class="node">
<title>Node152</title>
<g id="a_node22"><a xlink:href="../../d9/d65/MIDDigitWriterSpec_8h.html" target="_top" xlink:title="/home/travis/build\l/AliceO2Group/AliceO2\l/Steer/DigitizerWorkflow\l/src/MIDDigitWriterSpec.h">
<polygon fill="none" stroke="#000000" points="3286.5,-95 3286.5,-147 3426.5,-147 3426.5,-95 3286.5,-95"/>
<text text-anchor="start" x="3294.5" y="-135" font-family="Helvetica,sans-Serif" font-size="10.00" fill="#000000">/home/travis/build</text>
<text text-anchor="start" x="3294.5" y="-124" font-family="Helvetica,sans-Serif" font-size="10.00" fill="#000000">/AliceO2Group/AliceO2</text>
<text text-anchor="start" x="3294.5" y="-113" font-family="Helvetica,sans-Serif" font-size="10.00" fill="#000000">/Steer/DigitizerWorkflow</text>
<text text-anchor="middle" x="3356.5" y="-102" font-family="Helvetica,sans-Serif" font-size="10.00" fill="#000000">/src/MIDDigitWriterSpec.h</text>
</a>
</g>
</g>
<!-- Node131&#45;&gt;Node152 -->
<g id="edge26" class="edge">
<title>Node131&#45;&gt;Node152</title>
<path fill="none" stroke="#191970" d="M2132.562,-214.7381C2394.2501,-212.1396 3060.7136,-200.8796 3277.5,-153 3284.4358,-151.4682 3291.548,-149.3858 3298.5266,-147.0131"/>
<polygon fill="#191970" stroke="#191970" points="2132.2581,-211.2408 2122.2925,-214.8377 2132.326,-218.2405 2132.2581,-211.2408"/>
</g>
<!-- Node153 -->
<g id="node23" class="node">
<title>Node153</title>
<g id="a_node23"><a xlink:href="../../d4/d33/PHOSDigitWriterSpec_8h.html" target="_top" xlink:title="/home/travis/build\l/AliceO2Group/AliceO2\l/Steer/DigitizerWorkflow\l/src/PHOSDigitWriterSpec.h">
<polygon fill="none" stroke="#000000" points="3445,-95 3445,-147 3594,-147 3594,-95 3445,-95"/>
<text text-anchor="start" x="3453" y="-135" font-family="Helvetica,sans-Serif" font-size="10.00" fill="#000000">/home/travis/build</text>
<text text-anchor="start" x="3453" y="-124" font-family="Helvetica,sans-Serif" font-size="10.00" fill="#000000">/AliceO2Group/AliceO2</text>
<text text-anchor="start" x="3453" y="-113" font-family="Helvetica,sans-Serif" font-size="10.00" fill="#000000">/Steer/DigitizerWorkflow</text>
<text text-anchor="middle" x="3519.5" y="-102" font-family="Helvetica,sans-Serif" font-size="10.00" fill="#000000">/src/PHOSDigitWriterSpec.h</text>
</a>
</g>
</g>
<!-- Node131&#45;&gt;Node153 -->
<g id="edge28" class="edge">
<title>Node131&#45;&gt;Node153</title>
<path fill="none" stroke="#191970" d="M2132.4731,-212.7253C2439.4611,-204.4863 3309.3871,-179.1081 3435.5,-153 3442.8352,-151.4815 3450.3728,-149.4074 3457.7791,-147.0394"/>
<polygon fill="#191970" stroke="#191970" points="2132.1352,-209.233 2122.2325,-212.9994 2132.3226,-216.2305 2132.1352,-209.233"/>
</g>
<!-- Node154 -->
<g id="node24" class="node">
<title>Node154</title>
<g id="a_node24"><a xlink:href="../../d9/d31/ZDCDigitWriterSpec_8h.html" target="_top" xlink:title="/home/travis/build\l/AliceO2Group/AliceO2\l/Steer/DigitizerWorkflow\l/src/ZDCDigitWriterSpec.h">
<polygon fill="none" stroke="#000000" points="3612,-95 3612,-147 3755,-147 3755,-95 3612,-95"/>
<text text-anchor="start" x="3620" y="-135" font-family="Helvetica,sans-Serif" font-size="10.00" fill="#000000">/home/travis/build</text>
<text text-anchor="start" x="3620" y="-124" font-family="Helvetica,sans-Serif" font-size="10.00" fill="#000000">/AliceO2Group/AliceO2</text>
<text text-anchor="start" x="3620" y="-113" font-family="Helvetica,sans-Serif" font-size="10.00" fill="#000000">/Steer/DigitizerWorkflow</text>
<text text-anchor="middle" x="3683.5" y="-102" font-family="Helvetica,sans-Serif" font-size="10.00" fill="#000000">/src/ZDCDigitWriterSpec.h</text>
</a>
</g>
</g>
<!-- Node131&#45;&gt;Node154 -->
<g id="edge30" class="edge">
<title>Node131&#45;&gt;Node154</title>
<path fill="none" stroke="#191970" d="M2132.1095,-213.3771C2463.2986,-206.4895 3460.7244,-183.4385 3603.5,-153 3610.5224,-151.5029 3617.7239,-149.4422 3624.7905,-147.0819"/>
<polygon fill="#191970" stroke="#191970" points="2131.9575,-209.8794 2122.0322,-213.5859 2132.1026,-216.8779 2131.9575,-209.8794"/>
</g>
<!-- Node155 -->
<g id="node25" class="node">
<title>Node155</title>
<g id="a_node25"><a xlink:href="../../d8/dd2/TPCDigitRootWriterSpec_8cxx.html" target="_top" xlink:title="/home/travis/build\l/AliceO2Group/AliceO2\l/Steer/DigitizerWorkflow\l/src/TPCDigitRootWriterSpec.cxx">
<polygon fill="none" stroke="#000000" points="3773,-95 3773,-147 3946,-147 3946,-95 3773,-95"/>
<text text-anchor="start" x="3781" y="-135" font-family="Helvetica,sans-Serif" font-size="10.00" fill="#000000">/home/travis/build</text>
<text text-anchor="start" x="3781" y="-124" font-family="Helvetica,sans-Serif" font-size="10.00" fill="#000000">/AliceO2Group/AliceO2</text>
<text text-anchor="start" x="3781" y="-113" font-family="Helvetica,sans-Serif" font-size="10.00" fill="#000000">/Steer/DigitizerWorkflow</text>
<text text-anchor="middle" x="3859.5" y="-102" font-family="Helvetica,sans-Serif" font-size="10.00" fill="#000000">/src/TPCDigitRootWriterSpec.cxx</text>
</a>
</g>
</g>
<!-- Node131&#45;&gt;Node155 -->
<g id="edge32" class="edge">
<title>Node131&#45;&gt;Node155</title>
<path fill="none" stroke="#191970" d="M2132.4077,-213.4528C2486.0575,-206.4317 3604.7049,-182.1463 3764.5,-153 3772.8037,-151.4854 3781.3709,-149.3962 3789.8037,-147.0043"/>
<polygon fill="#191970" stroke="#191970" points="2132.0982,-209.9581 2122.1695,-213.6554 2132.2369,-216.9567 2132.0982,-209.9581"/>
</g>
<!-- Node145 -->
<g id="node15" class="node">
<title>Node145</title>
<g id="a_node15"><a xlink:href="../../d2/dd7/SimpleDigitizerWorkflow_8cxx.html" target="_top" xlink:title="/home/travis/build\l/AliceO2Group/AliceO2\l/Steer/DigitizerWorkflow\l/src/SimpleDigitizerWorkflow.cxx">
<polygon fill="none" stroke="#000000" points="2941.5,-.5 2941.5,-52.5 3117.5,-52.5 3117.5,-.5 2941.5,-.5"/>
<text text-anchor="start" x="2949.5" y="-40.5" font-family="Helvetica,sans-Serif" font-size="10.00" fill="#000000">/home/travis/build</text>
<text text-anchor="start" x="2949.5" y="-29.5" font-family="Helvetica,sans-Serif" font-size="10.00" fill="#000000">/AliceO2Group/AliceO2</text>
<text text-anchor="start" x="2949.5" y="-18.5" font-family="Helvetica,sans-Serif" font-size="10.00" fill="#000000">/Steer/DigitizerWorkflow</text>
<text text-anchor="middle" x="3029.5" y="-7.5" font-family="Helvetica,sans-Serif" font-size="10.00" fill="#000000">/src/SimpleDigitizerWorkflow.cxx</text>
</a>
</g>
</g>
<!-- Node144&#45;&gt;Node145 -->
<g id="edge14" class="edge">
<title>Node144&#45;&gt;Node145</title>
<path fill="none" stroke="#191970" d="M2272.7198,-91.8826C2276.3351,-90.8124 2279.9424,-89.8407 2283.5,-89 2406.2688,-59.9895 2771.8112,-39.0376 2941.3419,-30.6043"/>
<polygon fill="#191970" stroke="#191970" points="2271.6294,-88.5566 2263.1605,-94.9228 2273.751,-95.2273 2271.6294,-88.5566"/>
</g>
<!-- Node147&#45;&gt;Node145 -->
<g id="edge17" class="edge">
<title>Node147&#45;&gt;Node145</title>
<path fill="none" stroke="#191970" d="M2618.9854,-91.7858C2622.1816,-90.788 2625.363,-89.8528 2628.5,-89 2734.0562,-60.3052 2859.0624,-43.4281 2941.1069,-34.5883"/>
<polygon fill="#191970" stroke="#191970" points="2617.786,-88.4958 2609.3819,-94.9473 2619.9749,-95.1448 2617.786,-88.4958"/>
</g>
<!-- Node148&#45;&gt;Node145 -->
<g id="edge19" class="edge">
<title>Node148&#45;&gt;Node145</title>
<path fill="none" stroke="#191970" d="M2778.2259,-91.4695C2780.6719,-90.615 2783.1016,-89.789 2785.5,-89 2836.489,-72.2266 2894.679,-57.1691 2941.4414,-46.0384"/>
<polygon fill="#191970" stroke="#191970" points="2776.9613,-88.2048 2768.7412,-94.8891 2779.3355,-94.7899 2776.9613,-88.2048"/>
</g>
<!-- Node149&#45;&gt;Node145 -->
<g id="edge21" class="edge">
<title>Node149&#45;&gt;Node145</title>
<path fill="none" stroke="#191970" d="M2918.8521,-89.8711C2939.8919,-77.821 2963.7067,-64.1816 2983.8387,-52.6515"/>
<polygon fill="#191970" stroke="#191970" points="2916.9619,-86.9202 2910.0238,-94.9273 2920.4408,-92.9945 2916.9619,-86.9202"/>
</g>
<!-- Node150&#45;&gt;Node145 -->
<g id="edge23" class="edge">
<title>Node150&#45;&gt;Node145</title>
<path fill="none" stroke="#191970" d="M3029.5,-84.6645C3029.5,-74.0577 3029.5,-62.6746 3029.5,-52.8157"/>
<polygon fill="#191970" stroke="#191970" points="3026.0001,-84.9273 3029.5,-94.9273 3033.0001,-84.9273 3026.0001,-84.9273"/>
</g>
<!-- Node151&#45;&gt;Node145 -->
<g id="edge25" class="edge">
<title>Node151&#45;&gt;Node145</title>
<path fill="none" stroke="#191970" d="M3141.4891,-89.8711C3120.1943,-77.821 3096.0908,-64.1816 3075.7148,-52.6515"/>
<polygon fill="#191970" stroke="#191970" points="3139.9975,-93.0485 3150.4244,-94.9273 3143.4449,-86.9563 3139.9975,-93.0485"/>
</g>
<!-- Node152&#45;&gt;Node145 -->
<g id="edge27" class="edge">
<title>Node152&#45;&gt;Node145</title>
<path fill="none" stroke="#191970" d="M3284.7781,-91.4573C3282.3309,-90.6063 3279.9,-89.7843 3277.5,-89 3225.1657,-71.8965 3165.3447,-56.6984 3117.5684,-45.5725"/>
<polygon fill="#191970" stroke="#191970" points="3283.6719,-94.7788 3294.2664,-94.8661 3286.0387,-88.1911 3283.6719,-94.7788"/>
</g>
<!-- Node153&#45;&gt;Node145 -->
<g id="edge29" class="edge">
<title>Node153&#45;&gt;Node145</title>
<path fill="none" stroke="#191970" d="M3445.6538,-91.8911C3442.2411,-90.855 3438.8452,-89.884 3435.5,-89 3327.9389,-60.5752 3200.7047,-43.5845 3117.7155,-34.6478"/>
<polygon fill="#191970" stroke="#191970" points="3444.6968,-95.2596 3455.2876,-94.9659 3446.8252,-88.591 3444.6968,-95.2596"/>
</g>
<!-- Node154&#45;&gt;Node145 -->
<g id="edge31" class="edge">
<title>Node154&#45;&gt;Node145</title>
<path fill="none" stroke="#191970" d="M3613.7071,-91.8252C3610.2821,-90.7909 3606.8677,-89.8401 3603.5,-89 3434.9955,-46.9628 3231.6718,-33.1985 3117.8325,-28.6924"/>
<polygon fill="#191970" stroke="#191970" points="3612.7659,-95.1992 3623.3576,-94.9394 3614.9156,-88.5374 3612.7659,-95.1992"/>
</g>
</g>
</svg>
