<?xml version="1.0" encoding="UTF-8" standalone="no"?>
<!DOCTYPE svg PUBLIC "-//W3C//DTD SVG 1.1//EN"
 "http://www.w3.org/Graphics/SVG/1.1/DTD/svg11.dtd">
<!-- Generated by graphviz version 2.40.1 (20161225.0304)
 -->
<!-- Title: o2::itsmft::ITSDPLDigitWriter Pages: 1 -->
<svg width="990pt" height="1081pt"
 viewBox="0.00 0.00 989.86 1081.00" xmlns="http://www.w3.org/2000/svg" xmlns:xlink="http://www.w3.org/1999/xlink">
<g id="graph0" class="graph" transform="scale(1 1) rotate(0) translate(4 1077)">
<title>o2::itsmft::ITSDPLDigitWriter</title>
<!-- Node2 -->
<g id="node1" class="node">
<title>Node2</title>
<polygon fill="#bfbfbf" stroke="#000000" points="4.8597,-.5 4.8597,-57.5 160.8597,-57.5 160.8597,-.5 4.8597,-.5"/>
<text text-anchor="middle" x="82.8597" y="-45.5" font-family="Helvetica,sans-Serif" font-size="10.00" fill="#000000">o2::itsmft::ITSDPLDigitWriter</text>
<polyline fill="none" stroke="#000000" points="4.8597,-38.5 160.8597,-38.5 "/>
<text text-anchor="middle" x="82.8597" y="-26.5" font-family="Helvetica,sans-Serif" font-size="10.00" fill="#000000"> </text>
<polyline fill="none" stroke="#000000" points="4.8597,-19.5 160.8597,-19.5 "/>
<text text-anchor="start" x="12.8597" y="-7.5" font-family="Helvetica,sans-Serif" font-size="10.00" fill="#000000">+ ITSDPLDigitWriter()</text>
</g>
<!-- Node3 -->
<g id="node2" class="node">
<title>Node3</title>
<g id="a_node2"><a xlink:href="../../da/dc9/classo2_1_1itsmft_1_1ITSMFTDPLDigitWriter.html" target="_top" xlink:title="{o2::itsmft::ITSMFTDPLDigit\lWriter\n||+ init()\l+ run()\l# ITSMFTDPLDigitWriter()\l# fillBranch()\l}">
<polygon fill="none" stroke="#000000" points="292.8597,-95.5 292.8597,-196.5 438.8597,-196.5 438.8597,-95.5 292.8597,-95.5"/>
<text text-anchor="start" x="300.8597" y="-184.5" font-family="Helvetica,sans-Serif" font-size="10.00" fill="#000000">o2::itsmft::ITSMFTDPLDigit</text>
<text text-anchor="middle" x="365.8597" y="-173.5" font-family="Helvetica,sans-Serif" font-size="10.00" fill="#000000">Writer</text>
<polyline fill="none" stroke="#000000" points="292.8597,-166.5 438.8597,-166.5 "/>
<text text-anchor="middle" x="365.8597" y="-154.5" font-family="Helvetica,sans-Serif" font-size="10.00" fill="#000000"> </text>
<polyline fill="none" stroke="#000000" points="292.8597,-147.5 438.8597,-147.5 "/>
<text text-anchor="start" x="300.8597" y="-135.5" font-family="Helvetica,sans-Serif" font-size="10.00" fill="#000000">+ init()</text>
<text text-anchor="start" x="300.8597" y="-124.5" font-family="Helvetica,sans-Serif" font-size="10.00" fill="#000000">+ run()</text>
<text text-anchor="start" x="300.8597" y="-113.5" font-family="Helvetica,sans-Serif" font-size="10.00" fill="#000000"># ITSMFTDPLDigitWriter()</text>
<text text-anchor="start" x="300.8597" y="-102.5" font-family="Helvetica,sans-Serif" font-size="10.00" fill="#000000"># fillBranch()</text>
</a>
</g>
</g>
<!-- Node3&#45;&gt;Node2 -->
<g id="edge1" class="edge">
<title>Node3&#45;&gt;Node2</title>
<path fill="none" stroke="#191970" d="M283.2985,-111.8669C241.5845,-94.6212 191.5498,-73.9355 151.9061,-57.5457"/>
<polygon fill="none" stroke="#191970" points="282.0335,-115.1312 292.6121,-115.7174 284.708,-108.6623 282.0335,-115.1312"/>
</g>
<!-- Node4 -->
<g id="node3" class="node">
<title>Node4</title>
<polygon fill="none" stroke="#bfbfbf" points="349.8597,-382 349.8597,-450 455.8597,-450 455.8597,-382 349.8597,-382"/>
<text text-anchor="start" x="357.8597" y="-438" font-family="Helvetica,sans-Serif" font-size="10.00" fill="#000000">vector&lt; o2::itsmft</text>
<text text-anchor="middle" x="402.8597" y="-427" font-family="Helvetica,sans-Serif" font-size="10.00" fill="#000000">::Digit &gt;</text>
<polyline fill="none" stroke="#bfbfbf" points="349.8597,-420 455.8597,-420 "/>
<text text-anchor="middle" x="402.8597" y="-408" font-family="Helvetica,sans-Serif" font-size="10.00" fill="#000000"> </text>
<polyline fill="none" stroke="#bfbfbf" points="349.8597,-401 455.8597,-401 "/>
<text text-anchor="middle" x="402.8597" y="-389" font-family="Helvetica,sans-Serif" font-size="10.00" fill="#000000"> </text>
</g>
<!-- Node4&#45;&gt;Node3 -->
<g id="edge2" class="edge">
<title>Node4&#45;&gt;Node3</title>
<path fill="none" stroke="#404040" d="M405.8568,-381.699C408.4718,-341.2694 410.0441,-272.3292 396.8597,-215 396.3625,-212.8382 395.796,-210.6614 395.1715,-208.4808"/>
<polygon fill="none" stroke="#404040" points="395.0946,-208.2471 389.4191,-203.7986 391.3425,-196.8488 397.018,-201.2972 395.0946,-208.2471"/>
<text text-anchor="middle" x="425.8597" y="-223.5" font-family="Helvetica,sans-Serif" font-size="10.00" fill="#000000"> #mDigits</text>
</g>
<!-- Node5 -->
<g id="node4" class="node">
<title>Node5</title>
<g id="a_node4"><a xlink:href="../../d9/db3/structo2_1_1header_1_1Descriptor.html" target="_top" xlink:title="{o2::header::Descriptor\l\&lt; gSizeDataOriginString,\l printDataOrigin \&gt;\n||+ Descriptor()\l+ Descriptor()\l+ Descriptor()\l+ Descriptor()\l+ operator=()\l+ operator ItgType()\l+ runtimeInit()\l+ operator==()\l+ operator==()\l+ operator\&lt;()\l+ operator!=()\l+ operator!=()\l+ as()\l+ print()\l}">
<polygon fill="none" stroke="#000000" points="605.8597,-305 605.8597,-527 743.8597,-527 743.8597,-305 605.8597,-305"/>
<text text-anchor="start" x="613.8597" y="-515" font-family="Helvetica,sans-Serif" font-size="10.00" fill="#000000">o2::header::Descriptor</text>
<text text-anchor="start" x="613.8597" y="-504" font-family="Helvetica,sans-Serif" font-size="10.00" fill="#000000">&lt; gSizeDataOriginString,</text>
<text text-anchor="middle" x="674.8597" y="-493" font-family="Helvetica,sans-Serif" font-size="10.00" fill="#000000"> printDataOrigin &gt;</text>
<polyline fill="none" stroke="#000000" points="605.8597,-486 743.8597,-486 "/>
<text text-anchor="middle" x="674.8597" y="-474" font-family="Helvetica,sans-Serif" font-size="10.00" fill="#000000"> </text>
<polyline fill="none" stroke="#000000" points="605.8597,-467 743.8597,-467 "/>
<text text-anchor="start" x="613.8597" y="-455" font-family="Helvetica,sans-Serif" font-size="10.00" fill="#000000">+ Descriptor()</text>
<text text-anchor="start" x="613.8597" y="-444" font-family="Helvetica,sans-Serif" font-size="10.00" fill="#000000">+ Descriptor()</text>
<text text-anchor="start" x="613.8597" y="-433" font-family="Helvetica,sans-Serif" font-size="10.00" fill="#000000">+ Descriptor()</text>
<text text-anchor="start" x="613.8597" y="-422" font-family="Helvetica,sans-Serif" font-size="10.00" fill="#000000">+ Descriptor()</text>
<text text-anchor="start" x="613.8597" y="-411" font-family="Helvetica,sans-Serif" font-size="10.00" fill="#000000">+ operator=()</text>
<text text-anchor="start" x="613.8597" y="-400" font-family="Helvetica,sans-Serif" font-size="10.00" fill="#000000">+ operator ItgType()</text>
<text text-anchor="start" x="613.8597" y="-389" font-family="Helvetica,sans-Serif" font-size="10.00" fill="#000000">+ runtimeInit()</text>
<text text-anchor="start" x="613.8597" y="-378" font-family="Helvetica,sans-Serif" font-size="10.00" fill="#000000">+ operator==()</text>
<text text-anchor="start" x="613.8597" y="-367" font-family="Helvetica,sans-Serif" font-size="10.00" fill="#000000">+ operator==()</text>
<text text-anchor="start" x="613.8597" y="-356" font-family="Helvetica,sans-Serif" font-size="10.00" fill="#000000">+ operator&lt;()</text>
<text text-anchor="start" x="613.8597" y="-345" font-family="Helvetica,sans-Serif" font-size="10.00" fill="#000000">+ operator!=()</text>
<text text-anchor="start" x="613.8597" y="-334" font-family="Helvetica,sans-Serif" font-size="10.00" fill="#000000">+ operator!=()</text>
<text text-anchor="start" x="613.8597" y="-323" font-family="Helvetica,sans-Serif" font-size="10.00" fill="#000000">+ as()</text>
<text text-anchor="start" x="613.8597" y="-312" font-family="Helvetica,sans-Serif" font-size="10.00" fill="#000000">+ print()</text>
</a>
</g>
</g>
<!-- Node5&#45;&gt;Node3 -->
<g id="edge3" class="edge">
<title>Node5&#45;&gt;Node3</title>
<path fill="none" stroke="#404040" d="M633.5847,-304.9998C623.4845,-286.8386 611.3184,-269.3111 596.8597,-255 556.3882,-214.9418 498.396,-187.645 450.6434,-170.3863"/>
<polygon fill="none" stroke="#404040" points="450.379,-170.2936 443.393,-172.0814 439.0558,-166.3204 446.0418,-164.5326 450.379,-170.2936"/>
<text text-anchor="middle" x="601.3597" y="-223.5" font-family="Helvetica,sans-Serif" font-size="10.00" fill="#000000"> #mOrigin</text>
</g>
<!-- Node6 -->
<g id="node5" class="node">
<title>Node6</title>
<polygon fill="none" stroke="#bfbfbf" points="560.3597,-1015.5 560.3597,-1072.5 599.3597,-1072.5 599.3597,-1015.5 560.3597,-1015.5"/>
<text text-anchor="middle" x="579.8597" y="-1060.5" font-family="Helvetica,sans-Serif" font-size="10.00" fill="#000000">Type</text>
<polyline fill="none" stroke="#bfbfbf" points="560.3597,-1053.5 599.3597,-1053.5 "/>
<text text-anchor="middle" x="579.8597" y="-1041.5" font-family="Helvetica,sans-Serif" font-size="10.00" fill="#000000"> </text>
<polyline fill="none" stroke="#bfbfbf" points="560.3597,-1034.5 599.3597,-1034.5 "/>
<text text-anchor="middle" x="579.8597" y="-1022.5" font-family="Helvetica,sans-Serif" font-size="10.00" fill="#000000"> </text>
</g>
<!-- Node6&#45;&gt;Node5 -->
<g id="edge4" class="edge">
<title>Node6&#45;&gt;Node5</title>
<path fill="none" stroke="#404040" d="M599.4282,-1026.8659C612.6618,-1015.0695 628.0512,-1000.8561 629.8597,-997 654.7221,-943.9881 641.4226,-792.3841 645.8597,-734 650.7529,-669.6146 657.1967,-597.9887 662.7672,-539.0394"/>
<polygon fill="none" stroke="#404040" points="662.7719,-538.989 659.3564,-532.6381 663.9053,-527.0427 667.3207,-533.3937 662.7719,-538.989"/>
<text text-anchor="middle" x="658.3597" y="-837.5" font-family="Helvetica,sans-Serif" font-size="10.00" fill="#000000"> +itg</text>
</g>
<!-- Node10 -->
<g id="node9" class="node">
<title>Node10</title>
<g id="a_node9"><a xlink:href="../../d9/db3/structo2_1_1header_1_1Descriptor.html" target="_top" xlink:title="{o2::header::Descriptor\l\&lt; N, PrinterPolicy \&gt;\n||+ Descriptor()\l+ Descriptor()\l+ Descriptor()\l+ operator=()\l+ operator ItgType()\l+ Descriptor()\l+ runtimeInit()\l+ operator==()\l+ operator\&lt;()\l+ operator!=()\l+ operator==()\l+ operator!=()\l+ as()\l+ print()\l}">
<polygon fill="none" stroke="#000000" points="482.3597,-734.5 482.3597,-945.5 607.3597,-945.5 607.3597,-734.5 482.3597,-734.5"/>
<text text-anchor="start" x="490.3597" y="-933.5" font-family="Helvetica,sans-Serif" font-size="10.00" fill="#000000">o2::header::Descriptor</text>
<text text-anchor="middle" x="544.8597" y="-922.5" font-family="Helvetica,sans-Serif" font-size="10.00" fill="#000000">&lt; N, PrinterPolicy &gt;</text>
<polyline fill="none" stroke="#000000" points="482.3597,-915.5 607.3597,-915.5 "/>
<text text-anchor="middle" x="544.8597" y="-903.5" font-family="Helvetica,sans-Serif" font-size="10.00" fill="#000000"> </text>
<polyline fill="none" stroke="#000000" points="482.3597,-896.5 607.3597,-896.5 "/>
<text text-anchor="start" x="490.3597" y="-884.5" font-family="Helvetica,sans-Serif" font-size="10.00" fill="#000000">+ Descriptor()</text>
<text text-anchor="start" x="490.3597" y="-873.5" font-family="Helvetica,sans-Serif" font-size="10.00" fill="#000000">+ Descriptor()</text>
<text text-anchor="start" x="490.3597" y="-862.5" font-family="Helvetica,sans-Serif" font-size="10.00" fill="#000000">+ Descriptor()</text>
<text text-anchor="start" x="490.3597" y="-851.5" font-family="Helvetica,sans-Serif" font-size="10.00" fill="#000000">+ operator=()</text>
<text text-anchor="start" x="490.3597" y="-840.5" font-family="Helvetica,sans-Serif" font-size="10.00" fill="#000000">+ operator ItgType()</text>
<text text-anchor="start" x="490.3597" y="-829.5" font-family="Helvetica,sans-Serif" font-size="10.00" fill="#000000">+ Descriptor()</text>
<text text-anchor="start" x="490.3597" y="-818.5" font-family="Helvetica,sans-Serif" font-size="10.00" fill="#000000">+ runtimeInit()</text>
<text text-anchor="start" x="490.3597" y="-807.5" font-family="Helvetica,sans-Serif" font-size="10.00" fill="#000000">+ operator==()</text>
<text text-anchor="start" x="490.3597" y="-796.5" font-family="Helvetica,sans-Serif" font-size="10.00" fill="#000000">+ operator&lt;()</text>
<text text-anchor="start" x="490.3597" y="-785.5" font-family="Helvetica,sans-Serif" font-size="10.00" fill="#000000">+ operator!=()</text>
<text text-anchor="start" x="490.3597" y="-774.5" font-family="Helvetica,sans-Serif" font-size="10.00" fill="#000000">+ operator==()</text>
<text text-anchor="start" x="490.3597" y="-763.5" font-family="Helvetica,sans-Serif" font-size="10.00" fill="#000000">+ operator!=()</text>
<text text-anchor="start" x="490.3597" y="-752.5" font-family="Helvetica,sans-Serif" font-size="10.00" fill="#000000">+ as()</text>
<text text-anchor="start" x="490.3597" y="-741.5" font-family="Helvetica,sans-Serif" font-size="10.00" fill="#000000">+ print()</text>
</a>
</g>
</g>
<!-- Node6&#45;&gt;Node10 -->
<g id="edge9" class="edge">
<title>Node6&#45;&gt;Node10</title>
<path fill="none" stroke="#404040" d="M560.0537,-1021.5938C554.7341,-1014.2534 549.6792,-1005.7285 546.8597,-997 542.8501,-984.5876 540.2697,-971.33 538.7241,-957.9769"/>
<polygon fill="none" stroke="#404040" points="538.6944,-957.657 534.1565,-952.0527 537.5843,-945.7084 542.1222,-951.3126 538.6944,-957.657"/>
<text text-anchor="middle" x="559.3597" y="-978" font-family="Helvetica,sans-Serif" font-size="10.00" fill="#000000"> +itg</text>
</g>
<!-- Node7 -->
<g id="node6" class="node">
<title>Node7</title>
<polygon fill="none" stroke="#bfbfbf" points="442.8597,-1015.5 442.8597,-1072.5 480.8597,-1072.5 480.8597,-1015.5 442.8597,-1015.5"/>
<text text-anchor="middle" x="461.8597" y="-1060.5" font-family="Helvetica,sans-Serif" font-size="10.00" fill="#000000">char</text>
<polyline fill="none" stroke="#bfbfbf" points="442.8597,-1053.5 480.8597,-1053.5 "/>
<text text-anchor="middle" x="461.8597" y="-1041.5" font-family="Helvetica,sans-Serif" font-size="10.00" fill="#000000"> </text>
<polyline fill="none" stroke="#bfbfbf" points="442.8597,-1034.5 480.8597,-1034.5 "/>
<text text-anchor="middle" x="461.8597" y="-1022.5" font-family="Helvetica,sans-Serif" font-size="10.00" fill="#000000"> </text>
</g>
<!-- Node7&#45;&gt;Node5 -->
<g id="edge5" class="edge">
<title>Node7&#45;&gt;Node5</title>
<path fill="none" stroke="#404040" d="M457.0485,-1015.3685C454.0232,-995.8789 450.409,-969.4621 448.8597,-946 443.7036,-867.9223 420.1673,-648.9323 476.8597,-595 515.9332,-557.8287 553.4188,-608.9583 596.8597,-577 611.0887,-566.5321 622.8453,-552.7687 632.5256,-537.6908"/>
<polygon fill="none" stroke="#404040" points="632.7262,-537.3563 632.3835,-530.1534 638.9005,-527.0666 639.2433,-534.2696 632.7262,-537.3563"/>
<text text-anchor="middle" x="461.3597" y="-837.5" font-family="Helvetica,sans-Serif" font-size="10.00" fill="#000000"> +str</text>
</g>
<!-- Node7&#45;&gt;Node10 -->
<g id="edge10" class="edge">
<title>Node7&#45;&gt;Node10</title>
<path fill="none" stroke="#404040" d="M473.5755,-1015.2045C480.0064,-999.3984 488.454,-978.6356 497.2766,-956.9513"/>
<polygon fill="none" stroke="#404040" points="497.3932,-956.6643 495.9494,-949.5993 501.9157,-945.5491 503.3595,-952.6142 497.3932,-956.6643"/>
<text text-anchor="middle" x="505.3597" y="-978" font-family="Helvetica,sans-Serif" font-size="10.00" fill="#000000"> +str</text>
</g>
<!-- Node8 -->
<g id="node7" class="node">
<title>Node8</title>
<polygon fill="none" stroke="#bfbfbf" points="778.3597,-1015.5 778.3597,-1072.5 807.3597,-1072.5 807.3597,-1015.5 778.3597,-1015.5"/>
<text text-anchor="middle" x="792.8597" y="-1060.5" font-family="Helvetica,sans-Serif" font-size="10.00" fill="#000000">int</text>
<polyline fill="none" stroke="#bfbfbf" points="778.3597,-1053.5 807.3597,-1053.5 "/>
<text text-anchor="middle" x="792.8597" y="-1041.5" font-family="Helvetica,sans-Serif" font-size="10.00" fill="#000000"> </text>
<polyline fill="none" stroke="#bfbfbf" points="778.3597,-1034.5 807.3597,-1034.5 "/>
<text text-anchor="middle" x="792.8597" y="-1022.5" font-family="Helvetica,sans-Serif" font-size="10.00" fill="#000000"> </text>
</g>
<!-- Node8&#45;&gt;Node3 -->
<g id="edge17" class="edge">
<title>Node8&#45;&gt;Node3</title>
<path fill="none" stroke="#404040" d="M807.4098,-1018.7731C817.6278,-999.5345 830.4059,-972.0031 835.8597,-946 899.3537,-643.2682 955.1337,-489.0155 752.8597,-255 713.6575,-209.6461 552.8359,-176.0827 451.2488,-158.9059"/>
<polygon fill="none" stroke="#404040" points="451.0027,-158.865 444.4269,-161.8244 439.1659,-156.8927 445.7418,-153.9332 451.0027,-158.865"/>
<text text-anchor="middle" x="937.8597" y="-658.5" font-family="Helvetica,sans-Serif" font-size="10.00" fill="#000000"> #mTreeNameDig</text>
<text text-anchor="middle" x="937.8597" y="-647.5" font-family="Helvetica,sans-Serif" font-size="10.00" fill="#000000">#mFileName</text>
</g>
<!-- Node8&#45;&gt;Node5 -->
<g id="edge6" class="edge">
<title>Node8&#45;&gt;Node5</title>
<path fill="none" stroke="#404040" d="M787.9694,-1015.4728C785.3248,-1000.196 781.9714,-981.0615 778.8597,-964 752.2052,-817.8529 720.1491,-650.0729 698.7371,-539.0704"/>
<polygon fill="none" stroke="#404040" points="698.7138,-538.9491 693.6493,-533.8158 696.4397,-527.1665 701.5043,-532.2997 698.7138,-538.9491"/>
<text text-anchor="middle" x="802.8597" y="-848.5" font-family="Helvetica,sans-Serif" font-size="10.00" fill="#000000"> +arraySize</text>
<text text-anchor="middle" x="802.8597" y="-837.5" font-family="Helvetica,sans-Serif" font-size="10.00" fill="#000000">+size</text>
<text text-anchor="middle" x="802.8597" y="-826.5" font-family="Helvetica,sans-Serif" font-size="10.00" fill="#000000">+bitcount</text>
</g>
<!-- Node8&#45;&gt;Node10 -->
<g id="edge11" class="edge">
<title>Node8&#45;&gt;Node10</title>
<path fill="none" stroke="#404040" d="M778.332,-1034.9087C763.6577,-1025.6346 740.4237,-1010.7003 720.8597,-997 700.8366,-982.9783 698.543,-975.2856 676.8597,-964 654.0447,-952.1254 642.6511,-961.141 621.8597,-946 620.1531,-944.7572 618.4691,-943.4653 616.8083,-942.1293"/>
<polygon fill="none" stroke="#404040" points="616.585,-941.934 609.4354,-940.9939 607.5533,-934.0327 614.7029,-934.9728 616.585,-941.934"/>
<text text-anchor="middle" x="749.8597" y="-989" font-family="Helvetica,sans-Serif" font-size="10.00" fill="#000000"> +arraySize</text>
<text text-anchor="middle" x="749.8597" y="-978" font-family="Helvetica,sans-Serif" font-size="10.00" fill="#000000">+size</text>
<text text-anchor="middle" x="749.8597" y="-967" font-family="Helvetica,sans-Serif" font-size="10.00" fill="#000000">+bitcount</text>
</g>
<!-- Node9 -->
<g id="node8" class="node">
<title>Node9</title>
<polygon fill="none" stroke="#bfbfbf" points="622.3597,-1015.5 622.3597,-1072.5 729.3597,-1072.5 729.3597,-1015.5 622.3597,-1015.5"/>
<text text-anchor="middle" x="675.8597" y="-1060.5" font-family="Helvetica,sans-Serif" font-size="10.00" fill="#000000">anonymous:+@38</text>
<polyline fill="none" stroke="#bfbfbf" points="622.3597,-1053.5 729.3597,-1053.5 "/>
<text text-anchor="middle" x="675.8597" y="-1041.5" font-family="Helvetica,sans-Serif" font-size="10.00" fill="#000000"> </text>
<polyline fill="none" stroke="#bfbfbf" points="622.3597,-1034.5 729.3597,-1034.5 "/>
<text text-anchor="middle" x="675.8597" y="-1022.5" font-family="Helvetica,sans-Serif" font-size="10.00" fill="#000000"> </text>
</g>
<!-- Node9&#45;&gt;Node5 -->
<g id="edge7" class="edge">
<title>Node9&#45;&gt;Node5</title>
<path fill="none" stroke="#404040" d="M675.8141,-1015.3843C675.6824,-932.6474 675.2952,-689.5068 675.0564,-539.5346"/>
<polygon fill="none" stroke="#404040" points="675.0558,-539.1128 671.0462,-533.1192 675.0366,-527.1128 679.0462,-533.1064 675.0558,-539.1128"/>
<text text-anchor="middle" x="691.8597" y="-837.5" font-family="Helvetica,sans-Serif" font-size="10.00" fill="#000000"> +@38</text>
</g>
<!-- Node9&#45;&gt;Node10 -->
<g id="edge12" class="edge">
<title>Node9&#45;&gt;Node10</title>
<path fill="none" stroke="#404040" d="M652.372,-1015.3534C647.7509,-1009.3912 643.0423,-1003.072 638.8597,-997 629.9558,-984.074 620.9875,-970.2897 612.3114,-956.4596"/>
<polygon fill="none" stroke="#404040" points="612.0751,-956.0795 605.5102,-953.0958 605.7395,-945.8883 612.3044,-948.872 612.0751,-956.0795"/>
<text text-anchor="middle" x="655.8597" y="-978" font-family="Helvetica,sans-Serif" font-size="10.00" fill="#000000"> +@38</text>
</g>
<!-- Node10&#45;&gt;Node5 -->
<g id="edge8" class="edge">
<title>Node10&#45;&gt;Node5</title>
<path fill="none" stroke="#ffa500" d="M490.4062,-724.5597C477.7536,-679.7931 475.3833,-630.8024 504.8597,-595 531.3416,-562.8347 563.8543,-602.4273 596.8597,-577 613.8365,-563.921 627.3283,-546.1963 637.9803,-527.2802"/>
<polygon fill="#ffa500" stroke="#ffa500" points="487.1158,-725.7716 493.3489,-734.3389 493.8189,-723.7545 487.1158,-725.7716"/>
<text text-anchor="start" x="504.8597" y="-658.5" font-family="Helvetica,sans-Serif" font-size="10.00" fill="#000000"> &lt; gSizeDataOriginString,</text>
<text text-anchor="middle" x="567.3597" y="-647.5" font-family="Helvetica,sans-Serif" font-size="10.00" fill="#000000"> printDataOrigin &gt;</text>
</g>
<!-- Node11 -->
<g id="node10" class="node">
<title>Node11</title>
<polygon fill="none" stroke="#bfbfbf" points="27.3597,-387.5 27.3597,-444.5 140.3597,-444.5 140.3597,-387.5 27.3597,-387.5"/>
<text text-anchor="middle" x="83.8597" y="-432.5" font-family="Helvetica,sans-Serif" font-size="10.00" fill="#000000">unique_ptr&lt; TFile &gt;</text>
<polyline fill="none" stroke="#bfbfbf" points="27.3597,-425.5 140.3597,-425.5 "/>
<text text-anchor="middle" x="83.8597" y="-413.5" font-family="Helvetica,sans-Serif" font-size="10.00" fill="#000000"> </text>
<polyline fill="none" stroke="#bfbfbf" points="27.3597,-406.5 140.3597,-406.5 "/>
<text text-anchor="middle" x="83.8597" y="-394.5" font-family="Helvetica,sans-Serif" font-size="10.00" fill="#000000"> </text>
</g>
<!-- Node11&#45;&gt;Node3 -->
<g id="edge13" class="edge">
<title>Node11&#45;&gt;Node3</title>
<path fill="none" stroke="#404040" d="M85.9447,-387.4787C90.6246,-344.2507 105.6895,-262.1943 153.8597,-215 172.5199,-196.7177 230.4442,-178.5313 281.0375,-165.4227"/>
<polygon fill="none" stroke="#404040" points="281.0754,-165.4131 285.9039,-160.0572 292.7049,-162.4542 287.8765,-167.8102 281.0754,-165.4131"/>
<text text-anchor="middle" x="181.3597" y="-223.5" font-family="Helvetica,sans-Serif" font-size="10.00" fill="#000000"> #mOutFile</text>
</g>
<!-- Node12 -->
<g id="node11" class="node">
<title>Node12</title>
<g id="a_node11"><a xlink:href="../../d6/dd5/classo2_1_1detectors_1_1DetID.html" target="_top" xlink:title="Static class with identifiers, bitmasks and names for ALICE detectors. ">
<polygon fill="none" stroke="#000000" points="473.8597,-255.5 473.8597,-576.5 587.8597,-576.5 587.8597,-255.5 473.8597,-255.5"/>
<text text-anchor="middle" x="530.8597" y="-564.5" font-family="Helvetica,sans-Serif" font-size="10.00" fill="#000000">o2::detectors::DetID</text>
<polyline fill="none" stroke="#000000" points="473.8597,-557.5 587.8597,-557.5 "/>
<text text-anchor="start" x="481.8597" y="-545.5" font-family="Helvetica,sans-Serif" font-size="10.00" fill="#000000">+ ITS</text>
<text text-anchor="start" x="481.8597" y="-534.5" font-family="Helvetica,sans-Serif" font-size="10.00" fill="#000000">+ TOF</text>
<text text-anchor="start" x="481.8597" y="-523.5" font-family="Helvetica,sans-Serif" font-size="10.00" fill="#000000">+ PHS</text>
<text text-anchor="start" x="481.8597" y="-512.5" font-family="Helvetica,sans-Serif" font-size="10.00" fill="#000000">+ CPV</text>
<text text-anchor="start" x="481.8597" y="-501.5" font-family="Helvetica,sans-Serif" font-size="10.00" fill="#000000">+ EMC</text>
<text text-anchor="start" x="481.8597" y="-490.5" font-family="Helvetica,sans-Serif" font-size="10.00" fill="#000000">+ HMP</text>
<text text-anchor="start" x="481.8597" y="-479.5" font-family="Helvetica,sans-Serif" font-size="10.00" fill="#000000">+ MFT</text>
<text text-anchor="start" x="481.8597" y="-468.5" font-family="Helvetica,sans-Serif" font-size="10.00" fill="#000000">+ MID</text>
<text text-anchor="start" x="481.8597" y="-457.5" font-family="Helvetica,sans-Serif" font-size="10.00" fill="#000000">+ ZDC</text>
<text text-anchor="start" x="481.8597" y="-446.5" font-family="Helvetica,sans-Serif" font-size="10.00" fill="#000000">+ Last</text>
<polyline fill="none" stroke="#000000" points="473.8597,-439.5 587.8597,-439.5 "/>
<text text-anchor="start" x="481.8597" y="-427.5" font-family="Helvetica,sans-Serif" font-size="10.00" fill="#000000">+ DetID()</text>
<text text-anchor="start" x="481.8597" y="-416.5" font-family="Helvetica,sans-Serif" font-size="10.00" fill="#000000">+ DetID()</text>
<text text-anchor="start" x="481.8597" y="-405.5" font-family="Helvetica,sans-Serif" font-size="10.00" fill="#000000">+ DetID()</text>
<text text-anchor="start" x="481.8597" y="-394.5" font-family="Helvetica,sans-Serif" font-size="10.00" fill="#000000">+ operator=()</text>
<text text-anchor="start" x="481.8597" y="-383.5" font-family="Helvetica,sans-Serif" font-size="10.00" fill="#000000">+ getID()</text>
<text text-anchor="start" x="481.8597" y="-372.5" font-family="Helvetica,sans-Serif" font-size="10.00" fill="#000000">+ getMask()</text>
<text text-anchor="start" x="481.8597" y="-361.5" font-family="Helvetica,sans-Serif" font-size="10.00" fill="#000000">+ getDataOrigin()</text>
<text text-anchor="start" x="481.8597" y="-350.5" font-family="Helvetica,sans-Serif" font-size="10.00" fill="#000000">+ getName()</text>
<text text-anchor="start" x="481.8597" y="-339.5" font-family="Helvetica,sans-Serif" font-size="10.00" fill="#000000">+ operator int()</text>
<text text-anchor="start" x="481.8597" y="-328.5" font-family="Helvetica,sans-Serif" font-size="10.00" fill="#000000">+ DetID()</text>
<text text-anchor="start" x="481.8597" y="-317.5" font-family="Helvetica,sans-Serif" font-size="10.00" fill="#000000">+ getNDetectors()</text>
<text text-anchor="start" x="481.8597" y="-306.5" font-family="Helvetica,sans-Serif" font-size="10.00" fill="#000000">+ getName()</text>
<text text-anchor="start" x="481.8597" y="-295.5" font-family="Helvetica,sans-Serif" font-size="10.00" fill="#000000">+ getMask()</text>
<text text-anchor="start" x="481.8597" y="-284.5" font-family="Helvetica,sans-Serif" font-size="10.00" fill="#000000">+ getDataOrigin()</text>
<text text-anchor="start" x="481.8597" y="-273.5" font-family="Helvetica,sans-Serif" font-size="10.00" fill="#000000">+ getMask()</text>
<text text-anchor="start" x="481.8597" y="-262.5" font-family="Helvetica,sans-Serif" font-size="10.00" fill="#000000">+ getNames()</text>
</a>
</g>
</g>
<!-- Node12&#45;&gt;Node3 -->
<g id="edge14" class="edge">
<title>Node12&#45;&gt;Node3</title>
<path fill="none" stroke="#404040" d="M479.5834,-255.3592C472.2763,-241.1483 464.061,-227.4516 454.8597,-215 452.4777,-211.7766 449.9065,-208.627 447.1917,-205.5601"/>
<polygon fill="none" stroke="#404040" points="446.9436,-205.3 439.908,-203.7186 438.6618,-196.616 445.6974,-198.1974 446.9436,-205.3"/>
<text text-anchor="middle" x="482.8597" y="-223.5" font-family="Helvetica,sans-Serif" font-size="10.00" fill="#000000"> #mID</text>
</g>
<!-- Node13 -->
<g id="node12" class="node">
<title>Node13</title>
<polygon fill="none" stroke="#bfbfbf" points="98.8597,-811.5 98.8597,-868.5 142.8597,-868.5 142.8597,-811.5 98.8597,-811.5"/>
<text text-anchor="middle" x="120.8597" y="-856.5" font-family="Helvetica,sans-Serif" font-size="10.00" fill="#000000">static</text>
<polyline fill="none" stroke="#bfbfbf" points="98.8597,-849.5 142.8597,-849.5 "/>
<text text-anchor="middle" x="120.8597" y="-837.5" font-family="Helvetica,sans-Serif" font-size="10.00" fill="#000000"> </text>
<polyline fill="none" stroke="#bfbfbf" points="98.8597,-830.5 142.8597,-830.5 "/>
<text text-anchor="middle" x="120.8597" y="-818.5" font-family="Helvetica,sans-Serif" font-size="10.00" fill="#000000"> </text>
</g>
<!-- Node13&#45;&gt;Node2 -->
<g id="edge19" class="edge">
<title>Node13&#45;&gt;Node2</title>
<path fill="none" stroke="#404040" d="M105.5678,-811.4845C81.2371,-764.3209 34.7383,-666.383 17.8597,-577 -8.6954,-436.3742 -2.1142,-396.7104 17.8597,-255 27.2549,-188.3427 51.5117,-113.7981 67.5887,-69.1776"/>
<polygon fill="none" stroke="#404040" points="67.6683,-68.9596 65.9705,-61.9512 71.7867,-57.6884 73.4846,-64.6968 67.6683,-68.9596"/>
<text text-anchor="middle" x="46.3597" y="-229" font-family="Helvetica,sans-Serif" font-size="10.00" fill="#000000"> +DETID</text>
<text text-anchor="middle" x="46.3597" y="-218" font-family="Helvetica,sans-Serif" font-size="10.00" fill="#000000">+DETOR</text>
</g>
<!-- Node13&#45;&gt;Node12 -->
<g id="edge15" class="edge">
<title>Node13&#45;&gt;Node12</title>
<path fill="none" stroke="#404040" d="M139.897,-811.3077C176.3531,-758.8961 261.4726,-648.1853 362.8597,-595 400.4402,-575.2861 424.9526,-601.1676 463.5,-576.5436"/>
<polygon fill="none" stroke="#404040" points="463.9359,-576.2245 466.4149,-569.4528 473.619,-569.1366 471.1401,-575.9082 463.9359,-576.2245"/>
<text text-anchor="middle" x="393.8597" y="-708" font-family="Helvetica,sans-Serif" font-size="10.00" fill="#000000"> +ACO</text>
<text text-anchor="middle" x="393.8597" y="-697" font-family="Helvetica,sans-Serif" font-size="10.00" fill="#000000">+NONE</text>
<text text-anchor="middle" x="393.8597" y="-686" font-family="Helvetica,sans-Serif" font-size="10.00" fill="#000000">+First</text>
<text text-anchor="middle" x="393.8597" y="-675" font-family="Helvetica,sans-Serif" font-size="10.00" fill="#000000">+MCH</text>
<text text-anchor="middle" x="393.8597" y="-664" font-family="Helvetica,sans-Serif" font-size="10.00" fill="#000000">+FV0</text>
<text text-anchor="middle" x="393.8597" y="-653" font-family="Helvetica,sans-Serif" font-size="10.00" fill="#000000">+FT0</text>
<text text-anchor="middle" x="393.8597" y="-642" font-family="Helvetica,sans-Serif" font-size="10.00" fill="#000000">+FDD</text>
<text text-anchor="middle" x="393.8597" y="-631" font-family="Helvetica,sans-Serif" font-size="10.00" fill="#000000">+TRD</text>
<text text-anchor="middle" x="393.8597" y="-620" font-family="Helvetica,sans-Serif" font-size="10.00" fill="#000000">+nDetectors</text>
<text text-anchor="middle" x="393.8597" y="-609" font-family="Helvetica,sans-Serif" font-size="10.00" fill="#000000">+TPC</text>
<text text-anchor="middle" x="393.8597" y="-598" font-family="Helvetica,sans-Serif" font-size="10.00" fill="#000000">...</text>
</g>
<!-- Node14 -->
<g id="node13" class="node">
<title>Node14</title>
<polygon fill="none" stroke="#bfbfbf" points="158.3597,-387.5 158.3597,-444.5 275.3597,-444.5 275.3597,-387.5 158.3597,-387.5"/>
<text text-anchor="middle" x="216.8597" y="-432.5" font-family="Helvetica,sans-Serif" font-size="10.00" fill="#000000">unique_ptr&lt; TTree &gt;</text>
<polyline fill="none" stroke="#bfbfbf" points="158.3597,-425.5 275.3597,-425.5 "/>
<text text-anchor="middle" x="216.8597" y="-413.5" font-family="Helvetica,sans-Serif" font-size="10.00" fill="#000000"> </text>
<polyline fill="none" stroke="#bfbfbf" points="158.3597,-406.5 275.3597,-406.5 "/>
<text text-anchor="middle" x="216.8597" y="-394.5" font-family="Helvetica,sans-Serif" font-size="10.00" fill="#000000"> </text>
</g>
<!-- Node14&#45;&gt;Node3 -->
<g id="edge16" class="edge">
<title>Node14&#45;&gt;Node3</title>
<path fill="none" stroke="#404040" d="M209.0887,-387.3116C199.5852,-345.672 188.6565,-267.7169 222.8597,-215 236.5269,-193.9349 258.574,-179.1246 281.3067,-168.7848"/>
<polygon fill="none" stroke="#404040" points="281.4341,-168.7311 285.4041,-162.7111 292.4878,-164.0603 288.5179,-170.0803 281.4341,-168.7311"/>
<text text-anchor="middle" x="260.8597" y="-223.5" font-family="Helvetica,sans-Serif" font-size="10.00" fill="#000000"> #mOutTreeDig</text>
</g>
<!-- Node15 -->
<g id="node14" class="node">
<title>Node15</title>
<polygon fill="none" stroke="#bfbfbf" points="293.8597,-387.5 293.8597,-444.5 331.8597,-444.5 331.8597,-387.5 293.8597,-387.5"/>
<text text-anchor="middle" x="312.8597" y="-432.5" font-family="Helvetica,sans-Serif" font-size="10.00" fill="#000000">bool</text>
<polyline fill="none" stroke="#bfbfbf" points="293.8597,-425.5 331.8597,-425.5 "/>
<text text-anchor="middle" x="312.8597" y="-413.5" font-family="Helvetica,sans-Serif" font-size="10.00" fill="#000000"> </text>
<polyline fill="none" stroke="#bfbfbf" points="293.8597,-406.5 331.8597,-406.5 "/>
<text text-anchor="middle" x="312.8597" y="-394.5" font-family="Helvetica,sans-Serif" font-size="10.00" fill="#000000"> </text>
</g>
<!-- Node15&#45;&gt;Node3 -->
<g id="edge18" class="edge">
<title>Node15&#45;&gt;Node3</title>
<path fill="none" stroke="#404040" d="M306.3444,-387.3605C298.6007,-347.4351 289.1494,-273.3825 309.8597,-215 310.7607,-212.46 311.7995,-209.9454 312.9531,-207.4645"/>
<polygon fill="none" stroke="#404040" points="312.9896,-207.3966 312.3097,-200.2176 318.675,-196.8288 319.3548,-204.0078 312.9896,-207.3966"/>
<text text-anchor="middle" x="351.3597" y="-229" font-family="Helvetica,sans-Serif" font-size="10.00" fill="#000000"> #mWithMCTruth</text>
<text text-anchor="middle" x="351.3597" y="-218" font-family="Helvetica,sans-Serif" font-size="10.00" fill="#000000">#mFinished</text>
</g>
</g>
</svg>
