<?xml version="1.0" encoding="UTF-8" standalone="no"?>
<!DOCTYPE svg PUBLIC "-//W3C//DTD SVG 1.1//EN"
 "http://www.w3.org/Graphics/SVG/1.1/DTD/svg11.dtd">
<!-- Generated by graphviz version 2.40.1 (20161225.0304)
 -->
<!-- Title: /home/travis/build/AliceO2Group/AliceO2/Utilities/rANS/src/SymbolStatistics.cxx Pages: 1 -->
<svg width="496pt" height="162pt"
 viewBox="0.00 0.00 495.50 162.00" xmlns="http://www.w3.org/2000/svg" xmlns:xlink="http://www.w3.org/1999/xlink">
<g id="graph0" class="graph" transform="scale(1 1) rotate(0) translate(4 158)">
<title>/home/travis/build/AliceO2Group/AliceO2/Utilities/rANS/src/SymbolStatistics.cxx</title>
<!-- Node0 -->
<g id="node1" class="node">
<title>Node0</title>
<polygon fill="#bfbfbf" stroke="#000000" points="245.5,-112.5 245.5,-153.5 452.5,-153.5 452.5,-112.5 245.5,-112.5"/>
<text text-anchor="start" x="253.5" y="-141.5" font-family="Helvetica,sans-Serif" font-size="10.00" fill="#000000">/home/travis/build</text>
<text text-anchor="start" x="253.5" y="-130.5" font-family="Helvetica,sans-Serif" font-size="10.00" fill="#000000">/AliceO2Group/AliceO2</text>
<text text-anchor="middle" x="349" y="-119.5" font-family="Helvetica,sans-Serif" font-size="10.00" fill="#000000">/Utilities/rANS/src/SymbolStatistics.cxx</text>
</g>
<!-- Node1 -->
<g id="node2" class="node">
<title>Node1</title>
<polygon fill="none" stroke="#bfbfbf" points="369.5,-.5 369.5,-19.5 416.5,-19.5 416.5,-.5 369.5,-.5"/>
<text text-anchor="middle" x="393" y="-7.5" font-family="Helvetica,sans-Serif" font-size="10.00" fill="#000000">cmath</text>
</g>
<!-- Node0&#45;&gt;Node1 -->
<g id="edge1" class="edge">
<title>Node0&#45;&gt;Node1</title>
<path fill="none" stroke="#191970" d="M352.6123,-112.2965C355.7167,-96.539 360.8325,-74.4865 368,-56 371.6842,-46.4978 376.9369,-36.4949 381.6775,-28.2528"/>
<polygon fill="#191970" stroke="#191970" points="384.7682,-29.9034 386.8825,-19.5217 378.7556,-26.319 384.7682,-29.9034"/>
</g>
<!-- Node2 -->
<g id="node3" class="node">
<title>Node2</title>
<g id="a_node3"><a xlink:href="../../d0/d51/SymbolStatistics_8h.html" target="_top" xlink:title="Structure to depict the distribution of symbols in the source message. ">
<polygon fill="none" stroke="#000000" points="164,-56.5 164,-75.5 298,-75.5 298,-56.5 164,-56.5"/>
<text text-anchor="middle" x="231" y="-63.5" font-family="Helvetica,sans-Serif" font-size="10.00" fill="#000000">rANS/SymbolStatistics.h</text>
</a>
</g>
</g>
<!-- Node0&#45;&gt;Node2 -->
<g id="edge2" class="edge">
<title>Node0&#45;&gt;Node2</title>
<path fill="none" stroke="#191970" d="M312.6333,-112.3511C294.6321,-102.1301 273.3178,-90.0279 256.9832,-80.7532"/>
<polygon fill="#191970" stroke="#191970" points="258.4279,-77.5486 248.0037,-75.6546 254.9715,-83.6359 258.4279,-77.5486"/>
</g>
<!-- Node8 -->
<g id="node9" class="node">
<title>Node8</title>
<g id="a_node9"><a xlink:href="../../d4/da1/helper_8h.html" target="_top" xlink:title="various helper functions ">
<polygon fill="none" stroke="#000000" points="377.5,-56.5 377.5,-75.5 460.5,-75.5 460.5,-56.5 377.5,-56.5"/>
<text text-anchor="middle" x="419" y="-63.5" font-family="Helvetica,sans-Serif" font-size="10.00" fill="#000000">rANS/helper.h</text>
</a>
</g>
</g>
<!-- Node0&#45;&gt;Node8 -->
<g id="edge8" class="edge">
<title>Node0&#45;&gt;Node8</title>
<path fill="none" stroke="#191970" d="M370.7647,-112.168C380.5738,-102.7794 392.0093,-91.834 401.2833,-82.9574"/>
<polygon fill="#191970" stroke="#191970" points="403.9775,-85.2235 408.7816,-75.7805 399.1373,-80.1666 403.9775,-85.2235"/>
</g>
<!-- Node3 -->
<g id="node4" class="node">
<title>Node3</title>
<polygon fill="none" stroke="#bfbfbf" points="0,-.5 0,-19.5 64,-19.5 64,-.5 0,-.5"/>
<text text-anchor="middle" x="32" y="-7.5" font-family="Helvetica,sans-Serif" font-size="10.00" fill="#000000">algorithm</text>
</g>
<!-- Node2&#45;&gt;Node3 -->
<g id="edge3" class="edge">
<title>Node2&#45;&gt;Node3</title>
<path fill="none" stroke="#191970" d="M196.7907,-56.3733C162.7624,-46.7975 110.4933,-32.0886 73.9734,-21.8116"/>
<polygon fill="#191970" stroke="#191970" points="74.693,-18.3782 64.1187,-19.0384 72.7967,-25.1165 74.693,-18.3782"/>
</g>
<!-- Node4 -->
<g id="node5" class="node">
<title>Node4</title>
<polygon fill="none" stroke="#bfbfbf" points="82,-.5 82,-19.5 134,-19.5 134,-.5 82,-.5"/>
<text text-anchor="middle" x="108" y="-7.5" font-family="Helvetica,sans-Serif" font-size="10.00" fill="#000000">cassert</text>
</g>
<!-- Node2&#45;&gt;Node4 -->
<g id="edge4" class="edge">
<title>Node2&#45;&gt;Node4</title>
<path fill="none" stroke="#191970" d="M209.8555,-56.3733C190.1108,-47.3838 160.4302,-33.8706 138.1945,-23.7471"/>
<polygon fill="#191970" stroke="#191970" points="139.42,-20.4594 128.8685,-19.5011 136.5194,-26.8302 139.42,-20.4594"/>
</g>
<!-- Node5 -->
<g id="node6" class="node">
<title>Node5</title>
<polygon fill="none" stroke="#bfbfbf" points="152,-.5 152,-19.5 212,-19.5 212,-.5 152,-.5"/>
<text text-anchor="middle" x="182" y="-7.5" font-family="Helvetica,sans-Serif" font-size="10.00" fill="#000000">iostream</text>
</g>
<!-- Node2&#45;&gt;Node5 -->
<g id="edge5" class="edge">
<title>Node2&#45;&gt;Node5</title>
<path fill="none" stroke="#191970" d="M222.4649,-56.2455C215.5088,-48.2958 205.5117,-36.8706 197.1949,-27.3656"/>
<polygon fill="#191970" stroke="#191970" points="199.6564,-24.8637 190.4373,-19.6427 194.3884,-29.4732 199.6564,-24.8637"/>
</g>
<!-- Node6 -->
<g id="node7" class="node">
<title>Node6</title>
<polygon fill="none" stroke="#bfbfbf" points="230,-.5 230,-19.5 286,-19.5 286,-.5 230,-.5"/>
<text text-anchor="middle" x="258" y="-7.5" font-family="Helvetica,sans-Serif" font-size="10.00" fill="#000000">numeric</text>
</g>
<!-- Node2&#45;&gt;Node6 -->
<g id="edge6" class="edge">
<title>Node2&#45;&gt;Node6</title>
<path fill="none" stroke="#191970" d="M235.703,-56.2455C239.3424,-48.6973 244.4924,-38.0158 248.9262,-28.8197"/>
<polygon fill="#191970" stroke="#191970" points="252.1605,-30.1704 253.3509,-19.6427 245.8551,-27.1303 252.1605,-30.1704"/>
</g>
<!-- Node7 -->
<g id="node8" class="node">
<title>Node7</title>
<polygon fill="none" stroke="#bfbfbf" points="304.5,-.5 304.5,-19.5 351.5,-19.5 351.5,-.5 304.5,-.5"/>
<text text-anchor="middle" x="328" y="-7.5" font-family="Helvetica,sans-Serif" font-size="10.00" fill="#000000">vector</text>
</g>
<!-- Node2&#45;&gt;Node7 -->
<g id="edge7" class="edge">
<title>Node2&#45;&gt;Node7</title>
<path fill="none" stroke="#191970" d="M247.8961,-56.2455C262.918,-47.5731 285.1043,-34.7645 302.321,-24.825"/>
<polygon fill="#191970" stroke="#191970" points="304.3871,-27.6737 311.2975,-19.6427 300.8872,-21.6114 304.3871,-27.6737"/>
</g>
<!-- Node8&#45;&gt;Node1 -->
<g id="edge10" class="edge">
<title>Node8&#45;&gt;Node1</title>
<path fill="none" stroke="#191970" d="M414.4711,-56.2455C410.9666,-48.6973 406.0073,-38.0158 401.7377,-28.8197"/>
<polygon fill="#191970" stroke="#191970" points="404.8627,-27.2389 397.477,-19.6427 398.5136,-30.1867 404.8627,-27.2389"/>
</g>
<!-- Node9 -->
<g id="node10" class="node">
<title>Node9</title>
<polygon fill="none" stroke="#bfbfbf" points="434.5,-.5 434.5,-19.5 487.5,-19.5 487.5,-.5 434.5,-.5"/>
<text text-anchor="middle" x="461" y="-7.5" font-family="Helvetica,sans-Serif" font-size="10.00" fill="#000000">cstddef</text>
</g>
<!-- Node8&#45;&gt;Node9 -->
<g id="edge9" class="edge">
<title>Node8&#45;&gt;Node9</title>
<path fill="none" stroke="#191970" d="M426.3158,-56.2455C432.2179,-48.3761 440.6742,-37.101 447.7594,-27.6542"/>
<polygon fill="#191970" stroke="#191970" points="450.568,-29.7427 453.768,-19.6427 444.9679,-25.5427 450.568,-29.7427"/>
</g>
</g>
</svg>
