<?xml version="1.0" encoding="UTF-8" standalone="no"?>
<!DOCTYPE svg PUBLIC "-//W3C//DTD SVG 1.1//EN"
 "http://www.w3.org/Graphics/SVG/1.1/DTD/svg11.dtd">
<!-- Generated by graphviz version 2.40.1 (20161225.0304)
 -->
<!-- Title: /home/travis/build/AliceO2Group/AliceO2/Utilities/rANS/include/rANS/rans.h Pages: 1 -->
<!--zoomable 341 -->
<svg id="main" version="1.1" xmlns="http://www.w3.org/2000/svg" xmlns:xlink="http://www.w3.org/1999/xlink" xml:space="preserve" onload="init(evt)">
<style type="text/css"><![CDATA[
.edge:hover path { stroke: red; }
.edge:hover polygon { stroke: red; fill: red; }
]]></style>
<script type="text/javascript"><![CDATA[
var edges = document.getElementsByTagName('g');
if (edges && edges.length) {
  for (var i=0;i<edges.length;i++) {
    if (edges[i].id.substr(0,4)=='edge') {
      edges[i].setAttribute('class','edge');
    }
  }
}
]]></script>
        <defs>
                <circle id="rim" cx="0" cy="0" r="7"/>
                <circle id="rim2" cx="0" cy="0" r="3.5"/>
                <g id="zoomPlus">
                        <use xlink:href="#rim" fill="#404040">
                                <set attributeName="fill" to="#808080" begin="zoomplus.mouseover" end="zoomplus.mouseout"/>
                        </use>
                        <path d="M-4,0h8M0,-4v8" fill="none" stroke="white" stroke-width="1.5" pointer-events="none"/>
                </g>
                <g id="zoomMin">
                        <use xlink:href="#rim" fill="#404040">
                                <set attributeName="fill" to="#808080" begin="zoomminus.mouseover" end="zoomminus.mouseout"/>
                        </use>
                        <path d="M-4,0h8" fill="none" stroke="white" stroke-width="1.5" pointer-events="none"/>
                </g>
                <g id="dirArrow">
                        <path fill="none" stroke="white" stroke-width="1.5" d="M0,-3.0v7 M-2.5,-0.5L0,-3.0L2.5,-0.5"/>
                </g>
               <g id="resetDef">
                       <use xlink:href="#rim2" fill="#404040">
                               <set attributeName="fill" to="#808080" begin="reset.mouseover" end="reset.mouseout"/>
                       </use>
               </g>
        </defs>

<script type="text/javascript">
var viewWidth = 899;
var viewHeight = 341;
var sectionId = 'dynsection-0';
</script>
<script xlink:href="../../svgpan.js"/>
<svg id="graph" class="graph">
<g id="viewport">
<title>/home/travis/build/AliceO2Group/AliceO2/Utilities/rANS/include/rANS/rans.h</title>
<!-- Node0 -->
<g id="node1" class="node">
<title>Node0</title>
<polygon fill="#bfbfbf" stroke="#000000" points="259.5,-280.5 259.5,-332.5 386.5,-332.5 386.5,-280.5 259.5,-280.5"/>
<text text-anchor="start" x="267.5" y="-320.5" font-family="Helvetica,sans-Serif" font-size="10.00" fill="#000000">/home/travis/build</text>
<text text-anchor="start" x="267.5" y="-309.5" font-family="Helvetica,sans-Serif" font-size="10.00" fill="#000000">/AliceO2Group/AliceO2</text>
<text text-anchor="start" x="267.5" y="-298.5" font-family="Helvetica,sans-Serif" font-size="10.00" fill="#000000">/Utilities/rANS/include</text>
<text text-anchor="middle" x="323" y="-287.5" font-family="Helvetica,sans-Serif" font-size="10.00" fill="#000000">/rANS/rans.h</text>
</g>
<!-- Node1 -->
<g id="node2" class="node">
<title>Node1</title>
<g id="a_node2"><a xlink:href="../../d0/d51/SymbolStatistics_8h.html" target="_top" xlink:title="Structure to depict the distribution of symbols in the source message. ">
<polygon fill="none" stroke="#000000" points="219,-112.5 219,-131.5 353,-131.5 353,-112.5 219,-112.5"/>
<text text-anchor="middle" x="286" y="-119.5" font-family="Helvetica,sans-Serif" font-size="10.00" fill="#000000">rANS/SymbolStatistics.h</text>
</a>
</g>
</g>
<!-- Node0&#45;&gt;Node1 -->
<g id="edge1" class="edge">
<title>Node0&#45;&gt;Node1</title>
<path fill="none" stroke="#191970" d="M293.1599,-280.2873C270.7184,-258.2966 242.0191,-224.6666 231,-188 228.4417,-179.4872 227.2369,-176.053 231,-168 236.9463,-155.2749 248.3358,-144.8307 259.215,-137.129"/>
<polygon fill="#191970" stroke="#191970" points="261.277,-139.9622 267.7167,-131.5491 257.436,-134.1101 261.277,-139.9622"/>
</g>
<!-- Node7 -->
<g id="node8" class="node">
<title>Node7</title>
<g id="a_node8"><a xlink:href="../../dd/d74/Utilities_2rANS_2include_2rANS_2Encoder_8h.html" target="_top" xlink:title="rANS/Encoder.h">
<polygon fill="none" stroke="#000000" points="277.5,-224.5 277.5,-243.5 368.5,-243.5 368.5,-224.5 277.5,-224.5"/>
<text text-anchor="middle" x="323" y="-231.5" font-family="Helvetica,sans-Serif" font-size="10.00" fill="#000000">rANS/Encoder.h</text>
</a>
</g>
</g>
<!-- Node0&#45;&gt;Node7 -->
<g id="edge7" class="edge">
<title>Node0&#45;&gt;Node7</title>
<path fill="none" stroke="#191970" d="M323,-280.3258C323,-271.5142 323,-261.8397 323,-253.621"/>
<polygon fill="#191970" stroke="#191970" points="326.5001,-253.534 323,-243.534 319.5001,-253.534 326.5001,-253.534"/>
</g>
<!-- Node19 -->
<g id="node20" class="node">
<title>Node19</title>
<g id="a_node20"><a xlink:href="../../dc/d62/Utilities_2rANS_2include_2rANS_2Decoder_8h.html" target="_top" xlink:title="rANS/Decoder.h">
<polygon fill="none" stroke="#000000" points="660,-224.5 660,-243.5 752,-243.5 752,-224.5 660,-224.5"/>
<text text-anchor="middle" x="706" y="-231.5" font-family="Helvetica,sans-Serif" font-size="10.00" fill="#000000">rANS/Decoder.h</text>
</a>
</g>
</g>
<!-- Node0&#45;&gt;Node19 -->
<g id="edge29" class="edge">
<title>Node0&#45;&gt;Node19</title>
<path fill="none" stroke="#191970" d="M386.6746,-294.4467C460.1676,-280.5348 579.8866,-257.8726 649.9757,-244.6051"/>
<polygon fill="#191970" stroke="#191970" points="650.7707,-248.0169 659.9452,-242.718 649.4687,-241.139 650.7707,-248.0169"/>
</g>
<!-- Node2 -->
<g id="node3" class="node">
<title>Node2</title>
<polygon fill="none" stroke="#bfbfbf" points="159,-56.5 159,-75.5 223,-75.5 223,-56.5 159,-56.5"/>
<text text-anchor="middle" x="191" y="-63.5" font-family="Helvetica,sans-Serif" font-size="10.00" fill="#000000">algorithm</text>
</g>
<!-- Node1&#45;&gt;Node2 -->
<g id="edge2" class="edge">
<title>Node1&#45;&gt;Node2</title>
<path fill="none" stroke="#191970" d="M269.4523,-112.2455C254.7401,-103.5731 233.0112,-90.7645 216.1495,-80.825"/>
<polygon fill="#191970" stroke="#191970" points="217.7502,-77.7057 207.3581,-75.6427 214.1954,-83.736 217.7502,-77.7057"/>
</g>
<!-- Node3 -->
<g id="node4" class="node">
<title>Node3</title>
<polygon fill="none" stroke="#bfbfbf" points="494,-56.5 494,-75.5 546,-75.5 546,-56.5 494,-56.5"/>
<text text-anchor="middle" x="520" y="-63.5" font-family="Helvetica,sans-Serif" font-size="10.00" fill="#000000">cassert</text>
</g>
<!-- Node1&#45;&gt;Node3 -->
<g id="edge3" class="edge">
<title>Node1&#45;&gt;Node3</title>
<path fill="none" stroke="#191970" d="M325.9602,-112.4369C370.3375,-101.8167 441.3334,-84.8262 484.0324,-74.6076"/>
<polygon fill="#191970" stroke="#191970" points="485.0757,-77.9569 493.9864,-72.2255 483.4464,-71.1491 485.0757,-77.9569"/>
</g>
<!-- Node4 -->
<g id="node5" class="node">
<title>Node4</title>
<polygon fill="none" stroke="#bfbfbf" points="564,-56.5 564,-75.5 624,-75.5 624,-56.5 564,-56.5"/>
<text text-anchor="middle" x="594" y="-63.5" font-family="Helvetica,sans-Serif" font-size="10.00" fill="#000000">iostream</text>
</g>
<!-- Node1&#45;&gt;Node4 -->
<g id="edge4" class="edge">
<title>Node1&#45;&gt;Node4</title>
<path fill="none" stroke="#191970" d="M350.4163,-112.4979C402.7383,-104.4342 478.6326,-91.9571 553.7174,-76.1464"/>
<polygon fill="#191970" stroke="#191970" points="554.7708,-79.5008 563.8238,-73.9968 553.3144,-72.6539 554.7708,-79.5008"/>
</g>
<!-- Node5 -->
<g id="node6" class="node">
<title>Node5</title>
<polygon fill="none" stroke="#bfbfbf" points="258,-56.5 258,-75.5 314,-75.5 314,-56.5 258,-56.5"/>
<text text-anchor="middle" x="286" y="-63.5" font-family="Helvetica,sans-Serif" font-size="10.00" fill="#000000">numeric</text>
</g>
<!-- Node1&#45;&gt;Node5 -->
<g id="edge5" class="edge">
<title>Node1&#45;&gt;Node5</title>
<path fill="none" stroke="#191970" d="M286,-112.2455C286,-104.9382 286,-94.6944 286,-85.7046"/>
<polygon fill="#191970" stroke="#191970" points="289.5001,-85.6426 286,-75.6427 282.5001,-85.6427 289.5001,-85.6426"/>
</g>
<!-- Node6 -->
<g id="node7" class="node">
<title>Node6</title>
<polygon fill="none" stroke="#bfbfbf" points="376.5,-56.5 376.5,-75.5 423.5,-75.5 423.5,-56.5 376.5,-56.5"/>
<text text-anchor="middle" x="400" y="-63.5" font-family="Helvetica,sans-Serif" font-size="10.00" fill="#000000">vector</text>
</g>
<!-- Node1&#45;&gt;Node6 -->
<g id="edge6" class="edge">
<title>Node1&#45;&gt;Node6</title>
<path fill="none" stroke="#191970" d="M305.5973,-112.3733C323.7331,-103.4644 350.9135,-90.1127 371.4587,-80.0203"/>
<polygon fill="#191970" stroke="#191970" points="373.2261,-83.0517 380.6584,-75.5011 370.1397,-76.7688 373.2261,-83.0517"/>
</g>
<!-- Node7&#45;&gt;Node2 -->
<g id="edge9" class="edge">
<title>Node7&#45;&gt;Node2</title>
<path fill="none" stroke="#191970" d="M290.2563,-224.4083C270.7384,-217.2011 246.7713,-205.5186 231,-188 204.7579,-158.8506 195.6928,-112.1343 192.5896,-85.7717"/>
<polygon fill="#191970" stroke="#191970" points="196.0431,-85.1311 191.5672,-75.5282 189.0777,-85.8264 196.0431,-85.1311"/>
</g>
<!-- Node8 -->
<g id="node9" class="node">
<title>Node8</title>
<polygon fill="none" stroke="#bfbfbf" points="240,-168.5 240,-187.5 298,-187.5 298,-168.5 240,-168.5"/>
<text text-anchor="middle" x="269" y="-175.5" font-family="Helvetica,sans-Serif" font-size="10.00" fill="#000000">memory</text>
</g>
<!-- Node7&#45;&gt;Node8 -->
<g id="edge8" class="edge">
<title>Node7&#45;&gt;Node8</title>
<path fill="none" stroke="#191970" d="M313.5939,-224.2455C305.8507,-216.2155 294.688,-204.6394 285.4682,-195.0781"/>
<polygon fill="#191970" stroke="#191970" points="287.7591,-192.4117 278.2983,-187.6427 282.7202,-197.2706 287.7591,-192.4117"/>
</g>
<!-- Node9 -->
<g id="node10" class="node">
<title>Node9</title>
<g id="a_node10"><a xlink:href="../../d8/dd9/SymbolTable_8h.html" target="_top" xlink:title="Container for information needed to encode/decode a symbol of the alphabet. ">
<polygon fill="none" stroke="#000000" points="316,-168.5 316,-187.5 404,-187.5 404,-168.5 316,-168.5"/>
<text text-anchor="middle" x="360" y="-175.5" font-family="Helvetica,sans-Serif" font-size="10.00" fill="#000000">SymbolTable.h</text>
</a>
</g>
</g>
<!-- Node7&#45;&gt;Node9 -->
<g id="edge10" class="edge">
<title>Node7&#45;&gt;Node9</title>
<path fill="none" stroke="#191970" d="M329.4449,-224.2455C334.5382,-216.5367 341.7908,-205.5598 347.952,-196.2348"/>
<polygon fill="#191970" stroke="#191970" points="351.0365,-197.9155 353.6289,-187.6427 345.1962,-194.0566 351.0365,-197.9155"/>
</g>
<!-- Node10 -->
<g id="node11" class="node">
<title>Node10</title>
<g id="a_node11"><a xlink:href="../../d2/d53/EncoderSymbol_8h.html" target="_top" xlink:title="Structure containing all relevant information to encode a symbol. ">
<polygon fill="none" stroke="#000000" points="561.5,-112.5 561.5,-131.5 662.5,-131.5 662.5,-112.5 561.5,-112.5"/>
<text text-anchor="middle" x="612" y="-119.5" font-family="Helvetica,sans-Serif" font-size="10.00" fill="#000000">EncoderSymbol.h</text>
</a>
</g>
</g>
<!-- Node7&#45;&gt;Node10 -->
<g id="edge13" class="edge">
<title>Node7&#45;&gt;Node10</title>
<path fill="none" stroke="#191970" d="M368.7111,-231.9706C436.8717,-228.0163 560.6119,-216.9628 593,-188 605.8907,-176.4726 610.2736,-156.8234 611.6513,-141.9547"/>
<polygon fill="#191970" stroke="#191970" points="615.1591,-141.9061 612.2101,-131.7299 608.1695,-141.524 615.1591,-141.9061"/>
</g>
<!-- Node15 -->
<g id="node16" class="node">
<title>Node15</title>
<g id="a_node16"><a xlink:href="../../d5/d7a/Coder_8h.html" target="_top" xlink:title="Stateless class for coding and decoding symbols using rANS. ">
<polygon fill="none" stroke="#000000" points="640.5,-168.5 640.5,-187.5 693.5,-187.5 693.5,-168.5 640.5,-168.5"/>
<text text-anchor="middle" x="667" y="-175.5" font-family="Helvetica,sans-Serif" font-size="10.00" fill="#000000">Coder.h</text>
</a>
</g>
</g>
<!-- Node7&#45;&gt;Node15 -->
<g id="edge19" class="edge">
<title>Node7&#45;&gt;Node15</title>
<path fill="none" stroke="#191970" d="M368.648,-228.3518C428.1443,-220.6974 535.3041,-205.9084 626,-188 627.4376,-187.7161 628.9008,-187.4156 630.3768,-187.1027"/>
<polygon fill="#191970" stroke="#191970" points="631.1786,-190.5099 640.1692,-184.9047 629.6454,-183.6799 631.1786,-190.5099"/>
</g>
<!-- Node17 -->
<g id="node18" class="node">
<title>Node17</title>
<g id="a_node18"><a xlink:href="../../d4/d8f/StringUtils_8h.html" target="_top" xlink:title="CommonUtils/StringUtils.h">
<polygon fill="none" stroke="#000000" points="0,-168.5 0,-187.5 146,-187.5 146,-168.5 0,-168.5"/>
<text text-anchor="middle" x="73" y="-175.5" font-family="Helvetica,sans-Serif" font-size="10.00" fill="#000000">CommonUtils/StringUtils.h</text>
</a>
</g>
</g>
<!-- Node7&#45;&gt;Node17 -->
<g id="edge27" class="edge">
<title>Node7&#45;&gt;Node17</title>
<path fill="none" stroke="#191970" d="M280.3075,-224.4369C237.4321,-214.8328 171.2995,-200.0191 125.2998,-189.7152"/>
<polygon fill="#191970" stroke="#191970" points="126.0396,-186.2942 115.5164,-187.5237 124.5095,-193.1249 126.0396,-186.2942"/>
</g>
<!-- Node9&#45;&gt;Node1 -->
<g id="edge12" class="edge">
<title>Node9&#45;&gt;Node1</title>
<path fill="none" stroke="#191970" d="M347.1102,-168.2455C336.0746,-159.8943 319.9708,-147.7076 307.0647,-137.9408"/>
<polygon fill="#191970" stroke="#191970" points="308.8283,-134.8862 298.7421,-131.6427 304.6041,-140.4681 308.8283,-134.8862"/>
</g>
<!-- Node9&#45;&gt;Node6 -->
<g id="edge11" class="edge">
<title>Node9&#45;&gt;Node6</title>
<path fill="none" stroke="#191970" d="M363.4104,-168.4509C369.9933,-150.0186 384.5624,-109.2254 393.1989,-85.043"/>
<polygon fill="#191970" stroke="#191970" points="396.5309,-86.1195 396.5983,-75.5249 389.9387,-83.7651 396.5309,-86.1195"/>
</g>
<!-- Node10&#45;&gt;Node3 -->
<g id="edge15" class="edge">
<title>Node10&#45;&gt;Node3</title>
<path fill="none" stroke="#191970" d="M595.9748,-112.2455C581.8592,-103.6534 561.0737,-91.0014 544.8101,-81.1018"/>
<polygon fill="#191970" stroke="#191970" points="546.2034,-77.8525 535.8415,-75.6427 542.5637,-83.8319 546.2034,-77.8525"/>
</g>
<!-- Node11 -->
<g id="node12" class="node">
<title>Node11</title>
<polygon fill="none" stroke="#bfbfbf" points="716,-56.5 716,-75.5 766,-75.5 766,-56.5 716,-56.5"/>
<text text-anchor="middle" x="741" y="-63.5" font-family="Helvetica,sans-Serif" font-size="10.00" fill="#000000">cstdint</text>
</g>
<!-- Node10&#45;&gt;Node11 -->
<g id="edge14" class="edge">
<title>Node10&#45;&gt;Node11</title>
<path fill="none" stroke="#191970" d="M634.1759,-112.3733C654.9766,-103.3435 686.2917,-89.7494 709.6458,-79.6111"/>
<polygon fill="#191970" stroke="#191970" points="711.3343,-82.6938 719.1135,-75.5011 708.5468,-76.2727 711.3343,-82.6938"/>
</g>
<!-- Node12 -->
<g id="node13" class="node">
<title>Node12</title>
<g id="a_node13"><a xlink:href="../../d4/da1/helper_8h.html" target="_top" xlink:title="various helper functions ">
<polygon fill="none" stroke="#000000" points="642,-56.5 642,-75.5 698,-75.5 698,-56.5 642,-56.5"/>
<text text-anchor="middle" x="670" y="-63.5" font-family="Helvetica,sans-Serif" font-size="10.00" fill="#000000">helper.h</text>
</a>
</g>
</g>
<!-- Node10&#45;&gt;Node12 -->
<g id="edge16" class="edge">
<title>Node10&#45;&gt;Node12</title>
<path fill="none" stroke="#191970" d="M622.1028,-112.2455C630.5028,-104.1352 642.6494,-92.4075 652.6084,-82.7919"/>
<polygon fill="#191970" stroke="#191970" points="655.25,-85.1066 660.0129,-75.6427 650.3878,-80.0707 655.25,-85.1066"/>
</g>
<!-- Node13 -->
<g id="node14" class="node">
<title>Node13</title>
<polygon fill="none" stroke="#bfbfbf" points="811.5,-.5 811.5,-19.5 864.5,-19.5 864.5,-.5 811.5,-.5"/>
<text text-anchor="middle" x="838" y="-7.5" font-family="Helvetica,sans-Serif" font-size="10.00" fill="#000000">cstddef</text>
</g>
<!-- Node12&#45;&gt;Node13 -->
<g id="edge17" class="edge">
<title>Node12&#45;&gt;Node13</title>
<path fill="none" stroke="#191970" d="M698.1194,-56.6269C726.6085,-47.1305 770.7922,-32.4026 801.8631,-22.0456"/>
<polygon fill="#191970" stroke="#191970" points="803.0738,-25.3315 811.4538,-18.8487 800.8601,-18.6907 803.0738,-25.3315"/>
</g>
<!-- Node14 -->
<g id="node15" class="node">
<title>Node14</title>
<polygon fill="none" stroke="#bfbfbf" points="646.5,-.5 646.5,-19.5 693.5,-19.5 693.5,-.5 646.5,-.5"/>
<text text-anchor="middle" x="670" y="-7.5" font-family="Helvetica,sans-Serif" font-size="10.00" fill="#000000">cmath</text>
</g>
<!-- Node12&#45;&gt;Node14 -->
<g id="edge18" class="edge">
<title>Node12&#45;&gt;Node14</title>
<path fill="none" stroke="#191970" d="M670,-56.2455C670,-48.9382 670,-38.6944 670,-29.7046"/>
<polygon fill="#191970" stroke="#191970" points="673.5001,-29.6426 670,-19.6427 666.5001,-29.6427 673.5001,-29.6426"/>
</g>
<!-- Node15&#45;&gt;Node3 -->
<g id="edge22" class="edge">
<title>Node15&#45;&gt;Node3</title>
<path fill="none" stroke="#191970" d="M640.0869,-172.8785C614.9214,-166.8778 577.6231,-154.7253 553,-132 539.3642,-119.4152 530.5945,-99.943 525.5495,-85.4058"/>
<polygon fill="#191970" stroke="#191970" points="528.8811,-84.333 522.518,-75.8618 522.2096,-86.4521 528.8811,-84.333"/>
</g>
<!-- Node15&#45;&gt;Node6 -->
<g id="edge20" class="edge">
<title>Node15&#45;&gt;Node6</title>
<path fill="none" stroke="#191970" d="M640.354,-169.7492C613.4418,-161.1757 570.839,-146.9426 535,-132 496.8267,-116.0841 454.1613,-94.5704 427.2064,-80.4954"/>
<polygon fill="#191970" stroke="#191970" points="428.5043,-77.2236 418.0239,-75.6706 425.2483,-83.4203 428.5043,-77.2236"/>
</g>
<!-- Node15&#45;&gt;Node10 -->
<g id="edge25" class="edge">
<title>Node15&#45;&gt;Node10</title>
<path fill="none" stroke="#191970" d="M657.4197,-168.2455C649.4542,-160.1352 637.9359,-148.4075 628.4921,-138.7919"/>
<polygon fill="#191970" stroke="#191970" points="630.9747,-136.3247 621.4705,-131.6427 625.9805,-141.2297 630.9747,-136.3247"/>
</g>
<!-- Node15&#45;&gt;Node11 -->
<g id="edge21" class="edge">
<title>Node15&#45;&gt;Node11</title>
<path fill="none" stroke="#191970" d="M673.3092,-168.4509C685.6515,-149.7707 713.1682,-108.1238 729.0568,-84.0761"/>
<polygon fill="#191970" stroke="#191970" points="732.1143,-85.7977 734.7068,-75.5249 726.274,-81.9388 732.1143,-85.7977"/>
</g>
<!-- Node15&#45;&gt;Node12 -->
<g id="edge26" class="edge">
<title>Node15&#45;&gt;Node12</title>
<path fill="none" stroke="#191970" d="M668.3824,-168.1547C669.6136,-158.8576 671.3219,-144.5134 672,-132 672.8348,-116.5951 672.2392,-99.1473 671.4864,-86.0617"/>
<polygon fill="#191970" stroke="#191970" points="674.9634,-85.5956 670.8164,-75.8462 667.9784,-86.0538 674.9634,-85.5956"/>
</g>
<!-- Node16 -->
<g id="node17" class="node">
<title>Node16</title>
<g id="a_node17"><a xlink:href="../../d7/d99/DecoderSymbol_8h.html" target="_top" xlink:title="Structure containing all relevant information for decoding a rANS encoded symbol. ...">
<polygon fill="none" stroke="#000000" points="757.5,-112.5 757.5,-131.5 860.5,-131.5 860.5,-112.5 757.5,-112.5"/>
<text text-anchor="middle" x="809" y="-119.5" font-family="Helvetica,sans-Serif" font-size="10.00" fill="#000000">DecoderSymbol.h</text>
</a>
</g>
</g>
<!-- Node15&#45;&gt;Node16 -->
<g id="edge23" class="edge">
<title>Node15&#45;&gt;Node16</title>
<path fill="none" stroke="#191970" d="M691.4107,-168.3733C714.6142,-159.2226 749.7038,-145.3844 775.5142,-135.2057"/>
<polygon fill="#191970" stroke="#191970" points="776.8892,-138.4258 784.9079,-131.5011 774.3211,-131.9139 776.8892,-138.4258"/>
</g>
<!-- Node16&#45;&gt;Node11 -->
<g id="edge24" class="edge">
<title>Node16&#45;&gt;Node11</title>
<path fill="none" stroke="#191970" d="M797.1553,-112.2455C787.112,-103.9746 772.5005,-91.9416 760.6996,-82.2232"/>
<polygon fill="#191970" stroke="#191970" points="762.6533,-79.298 752.709,-75.6427 758.2033,-84.7015 762.6533,-79.298"/>
</g>
<!-- Node18 -->
<g id="node19" class="node">
<title>Node18</title>
<polygon fill="none" stroke="#bfbfbf" points="45,-112.5 45,-131.5 101,-131.5 101,-112.5 45,-112.5"/>
<text text-anchor="middle" x="73" y="-119.5" font-family="Helvetica,sans-Serif" font-size="10.00" fill="#000000">sstream</text>
</g>
<!-- Node17&#45;&gt;Node18 -->
<g id="edge28" class="edge">
<title>Node17&#45;&gt;Node18</title>
<path fill="none" stroke="#191970" d="M73,-168.2455C73,-160.9382 73,-150.6944 73,-141.7046"/>
<polygon fill="#191970" stroke="#191970" points="76.5001,-141.6426 73,-131.6427 69.5001,-141.6427 76.5001,-141.6426"/>
</g>
<!-- Node19&#45;&gt;Node4 -->
<g id="edge32" class="edge">
<title>Node19&#45;&gt;Node4</title>
<path fill="none" stroke="#191970" d="M740.4224,-224.483C800.5517,-206.2366 914.2976,-163.5345 870,-112 837.0387,-73.6538 700.1442,-85.2457 634.1249,-75.7661"/>
<polygon fill="#191970" stroke="#191970" points="634.6132,-72.2987 624.1645,-74.0529 633.4265,-79.1974 634.6132,-72.2987"/>
</g>
<!-- Node19&#45;&gt;Node9 -->
<g id="edge33" class="edge">
<title>Node19&#45;&gt;Node9</title>
<path fill="none" stroke="#191970" d="M659.7478,-227.1879C603.9746,-218.8738 507.1298,-204.12 414.3514,-188.1954"/>
<polygon fill="#191970" stroke="#191970" points="414.6773,-184.7 404.228,-186.4502 413.488,-191.5982 414.6773,-184.7"/>
</g>
<!-- Node19&#45;&gt;Node13 -->
<g id="edge30" class="edge">
<title>Node19&#45;&gt;Node13</title>
<path fill="none" stroke="#191970" d="M752.3718,-224.5822C791.7916,-215.8079 844.539,-202.0067 861,-188 888.3004,-164.7701 896.0983,-146.9193 888,-112 880.7251,-80.631 862.3897,-47.7827 850.0626,-28.1034"/>
<polygon fill="#191970" stroke="#191970" points="852.9229,-26.0804 844.5685,-19.5646 847.0362,-29.8681 852.9229,-26.0804"/>
</g>
<!-- Node19&#45;&gt;Node15 -->
<g id="edge39" class="edge">
<title>Node19&#45;&gt;Node15</title>
<path fill="none" stroke="#191970" d="M699.2067,-224.2455C693.7822,-216.4564 686.0339,-205.3308 679.4967,-195.9439"/>
<polygon fill="#191970" stroke="#191970" points="682.3025,-193.8485 673.7154,-187.6427 676.5583,-197.849 682.3025,-193.8485"/>
</g>
<!-- Node19&#45;&gt;Node16 -->
<g id="edge34" class="edge">
<title>Node19&#45;&gt;Node16</title>
<path fill="none" stroke="#191970" d="M735.5625,-224.4668C753.7144,-217.1816 776.0766,-205.3935 790,-188 800.5834,-174.7789 805.2717,-155.9125 807.3485,-141.7345"/>
<polygon fill="#191970" stroke="#191970" points="810.8524,-141.9009 808.5169,-131.5667 803.8981,-141.1017 810.8524,-141.9009"/>
</g>
<!-- Node20 -->
<g id="node21" class="node">
<title>Node20</title>
<polygon fill="none" stroke="#bfbfbf" points="711.5,-168.5 711.5,-187.5 780.5,-187.5 780.5,-168.5 711.5,-168.5"/>
<text text-anchor="middle" x="746" y="-175.5" font-family="Helvetica,sans-Serif" font-size="10.00" fill="#000000">type_traits</text>
</g>
<!-- Node19&#45;&gt;Node20 -->
<g id="edge31" class="edge">
<title>Node19&#45;&gt;Node20</title>
<path fill="none" stroke="#191970" d="M712.9675,-224.2455C718.5311,-216.4564 726.478,-205.3308 733.1829,-195.9439"/>
<polygon fill="#191970" stroke="#191970" points="736.148,-197.8144 739.1124,-187.6427 730.4519,-193.7457 736.148,-197.8144"/>
</g>
<!-- Node21 -->
<g id="node22" class="node">
<title>Node21</title>
<g id="a_node22"><a xlink:href="../../dc/d3b/ReverseSymbolLookupTable_8h.html" target="_top" xlink:title="Maps CDF back to source symbol &#45; needed for the decoder. ">
<polygon fill="none" stroke="#000000" points="422,-168.5 422,-187.5 584,-187.5 584,-168.5 422,-168.5"/>
<text text-anchor="middle" x="503" y="-175.5" font-family="Helvetica,sans-Serif" font-size="10.00" fill="#000000">ReverseSymbolLookupTable.h</text>
</a>
</g>
</g>
<!-- Node19&#45;&gt;Node21 -->
<g id="edge35" class="edge">
<title>Node19&#45;&gt;Node21</title>
<path fill="none" stroke="#191970" d="M671.1031,-224.3733C636.9089,-214.9404 584.6585,-200.5265 547.4958,-190.2747"/>
<polygon fill="#191970" stroke="#191970" points="548.0123,-186.7865 537.4416,-187.5011 546.1507,-193.5345 548.0123,-186.7865"/>
</g>
<!-- Node21&#45;&gt;Node1 -->
<g id="edge37" class="edge">
<title>Node21&#45;&gt;Node1</title>
<path fill="none" stroke="#191970" d="M465.6964,-168.3733C428.8315,-158.8598 372.334,-144.2797 332.5494,-134.0127"/>
<polygon fill="#191970" stroke="#191970" points="333.3742,-130.611 322.8169,-131.5011 331.625,-137.3889 333.3742,-130.611"/>
</g>
<!-- Node21&#45;&gt;Node6 -->
<g id="edge36" class="edge">
<title>Node21&#45;&gt;Node6</title>
<path fill="none" stroke="#191970" d="M487.7958,-168.4713C474.9225,-159.9326 456.4675,-146.5414 443,-132 429.6898,-117.6285 417.8128,-98.6777 409.932,-84.7708"/>
<polygon fill="#191970" stroke="#191970" points="412.8177,-82.7543 404.9364,-75.6736 406.6819,-86.1236 412.8177,-82.7543"/>
</g>
<!-- Node21&#45;&gt;Node12 -->
<g id="edge38" class="edge">
<title>Node21&#45;&gt;Node12</title>
<path fill="none" stroke="#191970" d="M508.1512,-168.1355C516.0365,-153.9092 532.3781,-127.6291 553,-112 565.9322,-102.1988 603.3127,-88.2647 632.3782,-78.3052"/>
<polygon fill="#191970" stroke="#191970" points="633.5198,-81.6139 641.8691,-75.0917 631.2749,-74.9836 633.5198,-81.6139"/>
</g>
</g>
</svg>
        <g id="navigator" transform="translate(0 0)" fill="#404254">
                <rect fill="#f2f5e9" fill-opacity="0.5" stroke="#606060" stroke-width=".5" x="0" y="0" width="60" height="60"/>
                <use id="zoomplus" xlink:href="#zoomPlus" x="17" y="9" onmousedown="handleZoom(evt,'in')"/>
                <use id="zoomminus" xlink:href="#zoomMin" x="42" y="9" onmousedown="handleZoom(evt,'out')"/>
                <use id="reset" xlink:href="#resetDef" x="30" y="36" onmousedown="handleReset()"/>
                <g id="arrowUp" xlink:href="#dirArrow" transform="translate(30 24)" onmousedown="handlePan(0,-1)">
                  <use xlink:href="#rim" fill="#404040">
                        <set attributeName="fill" to="#808080" begin="arrowUp.mouseover" end="arrowUp.mouseout"/>
                  </use>
                  <path fill="none" stroke="white" stroke-width="1.5" d="M0,-3.0v7 M-2.5,-0.5L0,-3.0L2.5,-0.5"/>
                </g>
                <g id="arrowRight" xlink:href="#dirArrow" transform="rotate(90) translate(36 -43)" onmousedown="handlePan(1,0)">
                  <use xlink:href="#rim" fill="#404040">
                        <set attributeName="fill" to="#808080" begin="arrowRight.mouseover" end="arrowRight.mouseout"/>
                  </use>
                  <path fill="none" stroke="white" stroke-width="1.5" d="M0,-3.0v7 M-2.5,-0.5L0,-3.0L2.5,-0.5"/>
                </g>
                <g id="arrowDown" xlink:href="#dirArrow" transform="rotate(180) translate(-30 -48)" onmousedown="handlePan(0,1)">
                  <use xlink:href="#rim" fill="#404040">
                        <set attributeName="fill" to="#808080" begin="arrowDown.mouseover" end="arrowDown.mouseout"/>
                  </use>
                  <path fill="none" stroke="white" stroke-width="1.5" d="M0,-3.0v7 M-2.5,-0.5L0,-3.0L2.5,-0.5"/>
                </g>
                <g id="arrowLeft" xlink:href="#dirArrow" transform="rotate(270) translate(-36 17)" onmousedown="handlePan(-1,0)">
                  <use xlink:href="#rim" fill="#404040">
                        <set attributeName="fill" to="#808080" begin="arrowLeft.mouseover" end="arrowLeft.mouseout"/>
                  </use>
                  <path fill="none" stroke="white" stroke-width="1.5" d="M0,-3.0v7 M-2.5,-0.5L0,-3.0L2.5,-0.5"/>
                </g>
        </g>
        <svg viewBox="0 0 15 15" width="100%" height="30px" preserveAspectRatio="xMaxYMin meet">
         <g id="arrow_out" transform="scale(0.3 0.3)">
          <a xlink:href="rans_8h__incl_org.svg" target="_base">
           <rect id="button" ry="5" rx="5" y="6" x="6" height="38" width="38"
                fill="#f2f5e9" fill-opacity="0.5" stroke="#606060" stroke-width="1.0"/>
           <path id="arrow"
             d="M 11.500037,31.436501 C 11.940474,20.09759 22.043105,11.32322 32.158766,21.979434 L 37.068811,17.246167 C 37.068811,17.246167 37.088388,32 37.088388,32 L 22.160133,31.978069 C 22.160133,31.978069 26.997745,27.140456 26.997745,27.140456 C 18.528582,18.264221 13.291696,25.230495 11.500037,31.436501 z"
             style="fill:#404040;"/>
          </a>
         </g>
        </svg>
</svg>
