<?xml version="1.0" encoding="UTF-8" standalone="no"?>
<!DOCTYPE svg PUBLIC "-//W3C//DTD SVG 1.1//EN"
 "http://www.w3.org/Graphics/SVG/1.1/DTD/svg11.dtd">
<!-- Generated by graphviz version 2.40.1 (20161225.0304)
 -->
<!-- Title: /home/travis/build/AliceO2Group/AliceO2/DataFormats/Detectors/TPC/include/DataFormatsTPC/CTF.h Pages: 1 -->
<!--zoomable 464 -->
<svg id="main" version="1.1" xmlns="http://www.w3.org/2000/svg" xmlns:xlink="http://www.w3.org/1999/xlink" xml:space="preserve" onload="init(evt)">
<style type="text/css"><![CDATA[
.edge:hover path { stroke: red; }
.edge:hover polygon { stroke: red; fill: red; }
]]></style>
<script type="text/javascript"><![CDATA[
var edges = document.getElementsByTagName('g');
if (edges && edges.length) {
  for (var i=0;i<edges.length;i++) {
    if (edges[i].id.substr(0,4)=='edge') {
      edges[i].setAttribute('class','edge');
    }
  }
}
]]></script>
        <defs>
                <circle id="rim" cx="0" cy="0" r="7"/>
                <circle id="rim2" cx="0" cy="0" r="3.5"/>
                <g id="zoomPlus">
                        <use xlink:href="#rim" fill="#404040">
                                <set attributeName="fill" to="#808080" begin="zoomplus.mouseover" end="zoomplus.mouseout"/>
                        </use>
                        <path d="M-4,0h8M0,-4v8" fill="none" stroke="white" stroke-width="1.5" pointer-events="none"/>
                </g>
                <g id="zoomMin">
                        <use xlink:href="#rim" fill="#404040">
                                <set attributeName="fill" to="#808080" begin="zoomminus.mouseover" end="zoomminus.mouseout"/>
                        </use>
                        <path d="M-4,0h8" fill="none" stroke="white" stroke-width="1.5" pointer-events="none"/>
                </g>
                <g id="dirArrow">
                        <path fill="none" stroke="white" stroke-width="1.5" d="M0,-3.0v7 M-2.5,-0.5L0,-3.0L2.5,-0.5"/>
                </g>
               <g id="resetDef">
                       <use xlink:href="#rim2" fill="#404040">
                               <set attributeName="fill" to="#808080" begin="reset.mouseover" end="reset.mouseout"/>
                       </use>
               </g>
        </defs>

<script type="text/javascript">
var viewWidth = 1236;
var viewHeight = 464;
var sectionId = 'dynsection-0';
</script>
<script xlink:href="../../svgpan.js"/>
<svg id="graph" class="graph">
<g id="viewport">
<title>/home/travis/build/AliceO2Group/AliceO2/DataFormats/Detectors/TPC/include/DataFormatsTPC/CTF.h</title>
<!-- Node0 -->
<g id="node1" class="node">
<title>Node0</title>
<polygon fill="#bfbfbf" stroke="#000000" points="430.5,-403.5 430.5,-455.5 620.5,-455.5 620.5,-403.5 430.5,-403.5"/>
<text text-anchor="start" x="438.5" y="-443.5" font-family="Helvetica,sans-Serif" font-size="10.00" fill="#000000">/home/travis/build</text>
<text text-anchor="start" x="438.5" y="-432.5" font-family="Helvetica,sans-Serif" font-size="10.00" fill="#000000">/AliceO2Group/AliceO2</text>
<text text-anchor="start" x="438.5" y="-421.5" font-family="Helvetica,sans-Serif" font-size="10.00" fill="#000000">/DataFormats/Detectors</text>
<text text-anchor="middle" x="525.5" y="-410.5" font-family="Helvetica,sans-Serif" font-size="10.00" fill="#000000">/TPC/include/DataFormatsTPC/CTF.h</text>
</g>
<!-- Node1 -->
<g id="node2" class="node">
<title>Node1</title>
<g id="a_node2"><a xlink:href="../../da/d91/EncodedBlocks_8h.html" target="_top" xlink:title="DetectorsCommonDataFormats\l/EncodedBlocks.h">
<polygon fill="none" stroke="#000000" points="348,-336.5 348,-366.5 519,-366.5 519,-336.5 348,-336.5"/>
<text text-anchor="start" x="356" y="-354.5" font-family="Helvetica,sans-Serif" font-size="10.00" fill="#000000">DetectorsCommonDataFormats</text>
<text text-anchor="middle" x="433.5" y="-343.5" font-family="Helvetica,sans-Serif" font-size="10.00" fill="#000000">/EncodedBlocks.h</text>
</a>
</g>
</g>
<!-- Node0&#45;&gt;Node1 -->
<g id="edge1" class="edge">
<title>Node0&#45;&gt;Node1</title>
<path fill="none" stroke="#191970" d="M494.6094,-403.3101C483.0159,-393.4808 469.9818,-382.4303 458.9385,-373.0674"/>
<polygon fill="#191970" stroke="#191970" points="461.1892,-370.387 451.2982,-366.5897 456.6623,-375.7263 461.1892,-370.387"/>
</g>
<!-- Node27 -->
<g id="node28" class="node">
<title>Node27</title>
<g id="a_node28"><a xlink:href="../../d2/d7d/CompressedClusters_8h.html" target="_top" xlink:title="Container to store compressed TPC cluster data. ">
<polygon fill="none" stroke="#000000" points="537.5,-336.5 537.5,-366.5 699.5,-366.5 699.5,-336.5 537.5,-336.5"/>
<text text-anchor="start" x="545.5" y="-354.5" font-family="Helvetica,sans-Serif" font-size="10.00" fill="#000000">DataFormatsTPC/Compressed</text>
<text text-anchor="middle" x="618.5" y="-343.5" font-family="Helvetica,sans-Serif" font-size="10.00" fill="#000000">Clusters.h</text>
</a>
</g>
</g>
<!-- Node0&#45;&gt;Node27 -->
<g id="edge47" class="edge">
<title>Node0&#45;&gt;Node27</title>
<path fill="none" stroke="#191970" d="M556.7264,-403.3101C568.4459,-393.4808 581.6216,-382.4303 592.785,-373.0674"/>
<polygon fill="#191970" stroke="#191970" points="595.0956,-375.6976 600.5084,-366.5897 590.5973,-370.3342 595.0956,-375.6976"/>
</g>
<!-- Node2 -->
<g id="node3" class="node">
<title>Node2</title>
<polygon fill="none" stroke="#bfbfbf" points="0,-168.5 0,-187.5 69,-187.5 69,-168.5 0,-168.5"/>
<text text-anchor="middle" x="34.5" y="-175.5" font-family="Helvetica,sans-Serif" font-size="10.00" fill="#000000">type_traits</text>
</g>
<!-- Node1&#45;&gt;Node2 -->
<g id="edge2" class="edge">
<title>Node1&#45;&gt;Node2</title>
<path fill="none" stroke="#191970" d="M394.9659,-336.4667C369.47,-326.4045 335.3597,-312.722 305.5,-300 217.1656,-262.3645 114.0536,-214.9777 64.3266,-191.9042"/>
<polygon fill="#191970" stroke="#191970" points="65.6569,-188.6631 55.1132,-187.6238 62.7076,-195.0114 65.6569,-188.6631"/>
</g>
<!-- Node3 -->
<g id="node4" class="node">
<title>Node3</title>
<polygon fill="none" stroke="#bfbfbf" points="272,-224.5 272,-243.5 331,-243.5 331,-224.5 272,-224.5"/>
<text text-anchor="middle" x="301.5" y="-231.5" font-family="Helvetica,sans-Serif" font-size="10.00" fill="#000000">Rtypes.h</text>
</g>
<!-- Node1&#45;&gt;Node3 -->
<g id="edge3" class="edge">
<title>Node1&#45;&gt;Node3</title>
<path fill="none" stroke="#191970" d="M376.4921,-336.4354C356.3345,-328.549 335.0744,-316.8968 320.5,-300 309.4387,-287.176 304.8028,-268.2661 302.8673,-253.9707"/>
<polygon fill="#191970" stroke="#191970" points="306.3167,-253.2944 301.8229,-243.6998 299.3526,-254.0026 306.3167,-253.2944"/>
</g>
<!-- Node4 -->
<g id="node5" class="node">
<title>Node4</title>
<g id="a_node5"><a xlink:href="../../d4/de7/rans_8h.html" target="_top" xlink:title="header for public api ">
<polygon fill="none" stroke="#000000" points="676.5,-280.5 676.5,-299.5 750.5,-299.5 750.5,-280.5 676.5,-280.5"/>
<text text-anchor="middle" x="713.5" y="-287.5" font-family="Helvetica,sans-Serif" font-size="10.00" fill="#000000">rANS/rans.h</text>
</a>
</g>
</g>
<!-- Node1&#45;&gt;Node4 -->
<g id="edge4" class="edge">
<title>Node1&#45;&gt;Node4</title>
<path fill="none" stroke="#191970" d="M501.9957,-336.4554C553.0213,-325.248 621.3694,-310.2358 666.3801,-300.3495"/>
<polygon fill="#191970" stroke="#191970" points="667.1583,-303.7621 676.1746,-298.1983 665.6565,-296.9251 667.1583,-303.7621"/>
</g>
<!-- Node21 -->
<g id="node22" class="node">
<title>Node21</title>
<g id="a_node22"><a xlink:href="../../d4/d8f/StringUtils_8h.html" target="_top" xlink:title="CommonUtils/StringUtils.h">
<polygon fill="none" stroke="#000000" points="899.5,-168.5 899.5,-187.5 1045.5,-187.5 1045.5,-168.5 899.5,-168.5"/>
<text text-anchor="middle" x="972.5" y="-175.5" font-family="Helvetica,sans-Serif" font-size="10.00" fill="#000000">CommonUtils/StringUtils.h</text>
</a>
</g>
</g>
<!-- Node1&#45;&gt;Node21 -->
<g id="edge45" class="edge">
<title>Node1&#45;&gt;Node21</title>
<path fill="none" stroke="#191970" d="M519.2003,-337.4885C522.3392,-336.9845 525.447,-336.4869 528.5,-336 631.109,-319.634 661.4517,-334.3944 759.5,-300 834.7549,-273.6013 913.8089,-220.6032 950.8924,-194.0021"/>
<polygon fill="#191970" stroke="#191970" points="953.3482,-196.5446 959.3882,-187.8401 949.2383,-190.8781 953.3482,-196.5446"/>
</g>
<!-- Node25 -->
<g id="node26" class="node">
<title>Node25</title>
<polygon fill="none" stroke="#bfbfbf" points="329.5,-280.5 329.5,-299.5 381.5,-299.5 381.5,-280.5 329.5,-280.5"/>
<text text-anchor="middle" x="355.5" y="-287.5" font-family="Helvetica,sans-Serif" font-size="10.00" fill="#000000">TTree.h</text>
</g>
<!-- Node1&#45;&gt;Node25 -->
<g id="edge44" class="edge">
<title>Node1&#45;&gt;Node25</title>
<path fill="none" stroke="#191970" d="M414.2191,-336.2977C402.6024,-327.1384 387.8182,-315.4816 375.9908,-306.1562"/>
<polygon fill="#191970" stroke="#191970" points="378.0086,-303.2901 367.9888,-299.8469 373.6744,-308.787 378.0086,-303.2901"/>
</g>
<!-- Node26 -->
<g id="node27" class="node">
<title>Node26</title>
<g id="a_node27"><a xlink:href="../../dd/da4/Logger_8h.html" target="_top" xlink:title="Framework/Logger.h">
<polygon fill="none" stroke="#000000" points="400,-280.5 400,-299.5 515,-299.5 515,-280.5 400,-280.5"/>
<text text-anchor="middle" x="457.5" y="-287.5" font-family="Helvetica,sans-Serif" font-size="10.00" fill="#000000">Framework/Logger.h</text>
</a>
</g>
</g>
<!-- Node1&#45;&gt;Node26 -->
<g id="edge46" class="edge">
<title>Node1&#45;&gt;Node26</title>
<path fill="none" stroke="#191970" d="M439.4326,-336.2977C442.6252,-328.1166 446.5954,-317.943 450.0004,-309.2179"/>
<polygon fill="#191970" stroke="#191970" points="453.2823,-310.4351 453.6573,-299.8469 446.7613,-307.8903 453.2823,-310.4351"/>
</g>
<!-- Node5 -->
<g id="node6" class="node">
<title>Node5</title>
<g id="a_node6"><a xlink:href="../../d0/d51/SymbolStatistics_8h.html" target="_top" xlink:title="Structure to depict the distribution of symbols in the source message. ">
<polygon fill="none" stroke="#000000" points="671.5,-112.5 671.5,-131.5 805.5,-131.5 805.5,-112.5 671.5,-112.5"/>
<text text-anchor="middle" x="738.5" y="-119.5" font-family="Helvetica,sans-Serif" font-size="10.00" fill="#000000">rANS/SymbolStatistics.h</text>
</a>
</g>
</g>
<!-- Node4&#45;&gt;Node5 -->
<g id="edge5" class="edge">
<title>Node4&#45;&gt;Node5</title>
<path fill="none" stroke="#191970" d="M729.6488,-280.302C753.9918,-264.5624 798.8997,-230.8541 814.5,-188 817.5406,-179.6473 818.8646,-175.7436 814.5,-168 806.362,-153.5618 791.6645,-143.1395 777.3484,-135.9057"/>
<polygon fill="#191970" stroke="#191970" points="778.613,-132.6342 768.0685,-131.6024 775.6681,-138.9846 778.613,-132.6342"/>
</g>
<!-- Node11 -->
<g id="node12" class="node">
<title>Node11</title>
<g id="a_node12"><a xlink:href="../../dd/d74/Utilities_2rANS_2include_2rANS_2Encoder_8h.html" target="_top" xlink:title="rANS/Encoder.h">
<polygon fill="none" stroke="#000000" points="668,-224.5 668,-243.5 759,-243.5 759,-224.5 668,-224.5"/>
<text text-anchor="middle" x="713.5" y="-231.5" font-family="Helvetica,sans-Serif" font-size="10.00" fill="#000000">rANS/Encoder.h</text>
</a>
</g>
</g>
<!-- Node4&#45;&gt;Node11 -->
<g id="edge11" class="edge">
<title>Node4&#45;&gt;Node11</title>
<path fill="none" stroke="#191970" d="M713.5,-280.2455C713.5,-272.9382 713.5,-262.6944 713.5,-253.7046"/>
<polygon fill="#191970" stroke="#191970" points="717.0001,-253.6426 713.5,-243.6427 710.0001,-253.6427 717.0001,-253.6426"/>
</g>
<!-- Node23 -->
<g id="node24" class="node">
<title>Node23</title>
<g id="a_node24"><a xlink:href="../../dc/d62/Utilities_2rANS_2include_2rANS_2Decoder_8h.html" target="_top" xlink:title="rANS/Decoder.h">
<polygon fill="none" stroke="#000000" points="349.5,-224.5 349.5,-243.5 441.5,-243.5 441.5,-224.5 349.5,-224.5"/>
<text text-anchor="middle" x="395.5" y="-231.5" font-family="Helvetica,sans-Serif" font-size="10.00" fill="#000000">rANS/Decoder.h</text>
</a>
</g>
</g>
<!-- Node4&#45;&gt;Node23 -->
<g id="edge33" class="edge">
<title>Node4&#45;&gt;Node23</title>
<path fill="none" stroke="#191970" d="M676.3285,-281.9424C673.0084,-281.2678 669.6957,-280.6109 666.5,-280 592.3678,-265.8283 506.3993,-251.61 451.5138,-242.8118"/>
<polygon fill="#191970" stroke="#191970" points="452.0641,-239.3554 441.637,-241.2332 450.9593,-246.2677 452.0641,-239.3554"/>
</g>
<!-- Node6 -->
<g id="node7" class="node">
<title>Node6</title>
<polygon fill="none" stroke="#bfbfbf" points="792.5,-56.5 792.5,-75.5 856.5,-75.5 856.5,-56.5 792.5,-56.5"/>
<text text-anchor="middle" x="824.5" y="-63.5" font-family="Helvetica,sans-Serif" font-size="10.00" fill="#000000">algorithm</text>
</g>
<!-- Node5&#45;&gt;Node6 -->
<g id="edge6" class="edge">
<title>Node5&#45;&gt;Node6</title>
<path fill="none" stroke="#191970" d="M753.4801,-112.2455C766.6751,-103.6534 786.1051,-91.0014 801.3079,-81.1018"/>
<polygon fill="#191970" stroke="#191970" points="803.2215,-84.0325 809.6916,-75.6427 799.4017,-78.1665 803.2215,-84.0325"/>
</g>
<!-- Node7 -->
<g id="node8" class="node">
<title>Node7</title>
<polygon fill="none" stroke="#bfbfbf" points="427.5,-56.5 427.5,-75.5 479.5,-75.5 479.5,-56.5 427.5,-56.5"/>
<text text-anchor="middle" x="453.5" y="-63.5" font-family="Helvetica,sans-Serif" font-size="10.00" fill="#000000">cassert</text>
</g>
<!-- Node5&#45;&gt;Node7 -->
<g id="edge7" class="edge">
<title>Node5&#45;&gt;Node7</title>
<path fill="none" stroke="#191970" d="M689.8306,-112.4369C633.0133,-101.2728 540.3705,-83.0693 489.5971,-73.0928"/>
<polygon fill="#191970" stroke="#191970" points="490.212,-69.6467 479.7248,-71.1529 488.8623,-76.5154 490.212,-69.6467"/>
</g>
<!-- Node8 -->
<g id="node9" class="node">
<title>Node8</title>
<polygon fill="none" stroke="#bfbfbf" points="622.5,-56.5 622.5,-75.5 682.5,-75.5 682.5,-56.5 622.5,-56.5"/>
<text text-anchor="middle" x="652.5" y="-63.5" font-family="Helvetica,sans-Serif" font-size="10.00" fill="#000000">iostream</text>
</g>
<!-- Node5&#45;&gt;Node8 -->
<g id="edge8" class="edge">
<title>Node5&#45;&gt;Node8</title>
<path fill="none" stroke="#191970" d="M723.5199,-112.2455C710.3249,-103.6534 690.8949,-91.0014 675.6921,-81.1018"/>
<polygon fill="#191970" stroke="#191970" points="677.5983,-78.1665 667.3084,-75.6427 673.7785,-84.0325 677.5983,-78.1665"/>
</g>
<!-- Node9 -->
<g id="node10" class="node">
<title>Node9</title>
<polygon fill="none" stroke="#bfbfbf" points="710.5,-56.5 710.5,-75.5 766.5,-75.5 766.5,-56.5 710.5,-56.5"/>
<text text-anchor="middle" x="738.5" y="-63.5" font-family="Helvetica,sans-Serif" font-size="10.00" fill="#000000">numeric</text>
</g>
<!-- Node5&#45;&gt;Node9 -->
<g id="edge9" class="edge">
<title>Node5&#45;&gt;Node9</title>
<path fill="none" stroke="#191970" d="M738.5,-112.2455C738.5,-104.9382 738.5,-94.6944 738.5,-85.7046"/>
<polygon fill="#191970" stroke="#191970" points="742.0001,-85.6426 738.5,-75.6427 735.0001,-85.6427 742.0001,-85.6426"/>
</g>
<!-- Node10 -->
<g id="node11" class="node">
<title>Node10</title>
<polygon fill="none" stroke="#bfbfbf" points="550,-56.5 550,-75.5 597,-75.5 597,-56.5 550,-56.5"/>
<text text-anchor="middle" x="573.5" y="-63.5" font-family="Helvetica,sans-Serif" font-size="10.00" fill="#000000">vector</text>
</g>
<!-- Node5&#45;&gt;Node10 -->
<g id="edge10" class="edge">
<title>Node5&#45;&gt;Node10</title>
<path fill="none" stroke="#191970" d="M710.1355,-112.3733C681.4928,-102.6521 637.2631,-87.6408 606.9321,-77.3467"/>
<polygon fill="#191970" stroke="#191970" points="607.8158,-73.9505 597.2214,-74.0509 605.566,-80.5792 607.8158,-73.9505"/>
</g>
<!-- Node11&#45;&gt;Node6 -->
<g id="edge13" class="edge">
<title>Node11&#45;&gt;Node6</title>
<path fill="none" stroke="#191970" d="M758.7691,-224.4409C779.1371,-217.7327 801.4823,-206.5226 814.5,-188 835.8954,-157.557 832.702,-111.6875 828.5463,-85.7338"/>
<polygon fill="#191970" stroke="#191970" points="831.9431,-84.8496 826.7147,-75.6347 825.0555,-86.0988 831.9431,-84.8496"/>
</g>
<!-- Node12 -->
<g id="node13" class="node">
<title>Node12</title>
<polygon fill="none" stroke="#bfbfbf" points="747.5,-168.5 747.5,-187.5 805.5,-187.5 805.5,-168.5 747.5,-168.5"/>
<text text-anchor="middle" x="776.5" y="-175.5" font-family="Helvetica,sans-Serif" font-size="10.00" fill="#000000">memory</text>
</g>
<!-- Node11&#45;&gt;Node12 -->
<g id="edge12" class="edge">
<title>Node11&#45;&gt;Node12</title>
<path fill="none" stroke="#191970" d="M724.4738,-224.2455C733.6882,-216.0549 747.0532,-204.1749 757.9297,-194.5069"/>
<polygon fill="#191970" stroke="#191970" points="760.5032,-196.9023 765.652,-187.6427 755.8526,-191.6704 760.5032,-196.9023"/>
</g>
<!-- Node13 -->
<g id="node14" class="node">
<title>Node13</title>
<g id="a_node14"><a xlink:href="../../d8/dd9/SymbolTable_8h.html" target="_top" xlink:title="Container for information needed to encode/decode a symbol of the alphabet. ">
<polygon fill="none" stroke="#000000" points="641.5,-168.5 641.5,-187.5 729.5,-187.5 729.5,-168.5 641.5,-168.5"/>
<text text-anchor="middle" x="685.5" y="-175.5" font-family="Helvetica,sans-Serif" font-size="10.00" fill="#000000">SymbolTable.h</text>
</a>
</g>
</g>
<!-- Node11&#45;&gt;Node13 -->
<g id="edge14" class="edge">
<title>Node11&#45;&gt;Node13</title>
<path fill="none" stroke="#191970" d="M708.6228,-224.2455C704.8487,-216.6973 699.5079,-206.0158 694.9099,-196.8197"/>
<polygon fill="#191970" stroke="#191970" points="697.924,-195.0217 690.3213,-187.6427 691.663,-198.1522 697.924,-195.0217"/>
</g>
<!-- Node14 -->
<g id="node15" class="node">
<title>Node14</title>
<g id="a_node15"><a xlink:href="../../d2/d53/EncoderSymbol_8h.html" target="_top" xlink:title="Structure containing all relevant information to encode a symbol. ">
<polygon fill="none" stroke="#000000" points="324,-112.5 324,-131.5 425,-131.5 425,-112.5 324,-112.5"/>
<text text-anchor="middle" x="374.5" y="-119.5" font-family="Helvetica,sans-Serif" font-size="10.00" fill="#000000">EncoderSymbol.h</text>
</a>
</g>
</g>
<!-- Node11&#45;&gt;Node14 -->
<g id="edge17" class="edge">
<title>Node11&#45;&gt;Node14</title>
<path fill="none" stroke="#191970" d="M667.7943,-228.8597C603.4808,-221.1344 489.9425,-205.552 452.5,-188 427.8352,-176.4378 404.6946,-154.9985 390.1247,-139.692"/>
<polygon fill="#191970" stroke="#191970" points="392.3096,-136.8985 382.9567,-131.921 387.1642,-141.6446 392.3096,-136.8985"/>
</g>
<!-- Node19 -->
<g id="node20" class="node">
<title>Node19</title>
<g id="a_node20"><a xlink:href="../../d5/d7a/Coder_8h.html" target="_top" xlink:title="Stateless class for coding and decoding symbols using rANS. ">
<polygon fill="none" stroke="#000000" points="314,-168.5 314,-187.5 367,-187.5 367,-168.5 314,-168.5"/>
<text text-anchor="middle" x="340.5" y="-175.5" font-family="Helvetica,sans-Serif" font-size="10.00" fill="#000000">Coder.h</text>
</a>
</g>
</g>
<!-- Node11&#45;&gt;Node19 -->
<g id="edge23" class="edge">
<title>Node11&#45;&gt;Node19</title>
<path fill="none" stroke="#191970" d="M667.7629,-227.1333C592.8233,-215.8823 445.3902,-193.7476 376.9735,-183.4759"/>
<polygon fill="#191970" stroke="#191970" points="377.491,-180.0145 367.0822,-181.9909 376.4517,-186.9369 377.491,-180.0145"/>
</g>
<!-- Node11&#45;&gt;Node21 -->
<g id="edge31" class="edge">
<title>Node11&#45;&gt;Node21</title>
<path fill="none" stroke="#191970" d="M757.7294,-224.4369C802.2415,-214.8127 870.949,-199.957 918.6169,-189.6504"/>
<polygon fill="#191970" stroke="#191970" points="919.4186,-193.058 928.453,-187.5237 917.9392,-186.2161 919.4186,-193.058"/>
</g>
<!-- Node13&#45;&gt;Node5 -->
<g id="edge16" class="edge">
<title>Node13&#45;&gt;Node5</title>
<path fill="none" stroke="#191970" d="M694.7319,-168.2455C702.3317,-160.2155 713.2877,-148.6394 722.3368,-139.0781"/>
<polygon fill="#191970" stroke="#191970" points="725.0421,-141.3115 729.3739,-131.6427 719.958,-136.4998 725.0421,-141.3115"/>
</g>
<!-- Node13&#45;&gt;Node10 -->
<g id="edge15" class="edge">
<title>Node13&#45;&gt;Node10</title>
<path fill="none" stroke="#191970" d="M675.9509,-168.4509C656.9401,-149.4401 614.1423,-106.6423 590.316,-82.816"/>
<polygon fill="#191970" stroke="#191970" points="592.5709,-80.1211 583.0249,-75.5249 587.6211,-85.0709 592.5709,-80.1211"/>
</g>
<!-- Node14&#45;&gt;Node7 -->
<g id="edge19" class="edge">
<title>Node14&#45;&gt;Node7</title>
<path fill="none" stroke="#191970" d="M388.2607,-112.2455C400.1552,-103.814 417.565,-91.4729 431.4085,-81.6598"/>
<polygon fill="#191970" stroke="#191970" points="433.7628,-84.2811 439.8969,-75.6427 429.7146,-78.5704 433.7628,-84.2811"/>
</g>
<!-- Node15 -->
<g id="node16" class="node">
<title>Node15</title>
<polygon fill="none" stroke="#bfbfbf" points="232.5,-56.5 232.5,-75.5 282.5,-75.5 282.5,-56.5 232.5,-56.5"/>
<text text-anchor="middle" x="257.5" y="-63.5" font-family="Helvetica,sans-Serif" font-size="10.00" fill="#000000">cstdint</text>
</g>
<!-- Node14&#45;&gt;Node15 -->
<g id="edge18" class="edge">
<title>Node14&#45;&gt;Node15</title>
<path fill="none" stroke="#191970" d="M354.387,-112.3733C335.6897,-103.4241 307.6256,-89.9917 286.5066,-79.8835"/>
<polygon fill="#191970" stroke="#191970" points="287.8817,-76.6614 277.3506,-75.5011 284.8595,-82.9755 287.8817,-76.6614"/>
</g>
<!-- Node16 -->
<g id="node17" class="node">
<title>Node16</title>
<g id="a_node17"><a xlink:href="../../d4/da1/helper_8h.html" target="_top" xlink:title="various helper functions ">
<polygon fill="none" stroke="#000000" points="323.5,-56.5 323.5,-75.5 379.5,-75.5 379.5,-56.5 323.5,-56.5"/>
<text text-anchor="middle" x="351.5" y="-63.5" font-family="Helvetica,sans-Serif" font-size="10.00" fill="#000000">helper.h</text>
</a>
</g>
</g>
<!-- Node14&#45;&gt;Node16 -->
<g id="edge20" class="edge">
<title>Node14&#45;&gt;Node16</title>
<path fill="none" stroke="#191970" d="M370.4937,-112.2455C367.4265,-104.7776 363.0997,-94.2427 359.3503,-85.1137"/>
<polygon fill="#191970" stroke="#191970" points="362.4972,-83.5631 355.4604,-75.6427 356.0221,-86.2226 362.4972,-83.5631"/>
</g>
<!-- Node17 -->
<g id="node18" class="node">
<title>Node17</title>
<polygon fill="none" stroke="#bfbfbf" points="176,-.5 176,-19.5 229,-19.5 229,-.5 176,-.5"/>
<text text-anchor="middle" x="202.5" y="-7.5" font-family="Helvetica,sans-Serif" font-size="10.00" fill="#000000">cstddef</text>
</g>
<!-- Node16&#45;&gt;Node17 -->
<g id="edge21" class="edge">
<title>Node16&#45;&gt;Node17</title>
<path fill="none" stroke="#191970" d="M325.886,-56.3733C301.4313,-47.1822 264.3946,-33.2624 237.2791,-23.0713"/>
<polygon fill="#191970" stroke="#191970" points="238.3719,-19.7431 227.7798,-19.5011 235.9091,-26.2956 238.3719,-19.7431"/>
</g>
<!-- Node18 -->
<g id="node19" class="node">
<title>Node18</title>
<polygon fill="none" stroke="#bfbfbf" points="328,-.5 328,-19.5 375,-19.5 375,-.5 328,-.5"/>
<text text-anchor="middle" x="351.5" y="-7.5" font-family="Helvetica,sans-Serif" font-size="10.00" fill="#000000">cmath</text>
</g>
<!-- Node16&#45;&gt;Node18 -->
<g id="edge22" class="edge">
<title>Node16&#45;&gt;Node18</title>
<path fill="none" stroke="#191970" d="M351.5,-56.2455C351.5,-48.9382 351.5,-38.6944 351.5,-29.7046"/>
<polygon fill="#191970" stroke="#191970" points="355.0001,-29.6426 351.5,-19.6427 348.0001,-29.6427 355.0001,-29.6426"/>
</g>
<!-- Node19&#45;&gt;Node7 -->
<g id="edge26" class="edge">
<title>Node19&#45;&gt;Node7</title>
<path fill="none" stroke="#191970" d="M367.4138,-171.0716C388.2602,-164.3721 416.3842,-152.2036 433.5,-132 444.492,-119.0249 449.4434,-100.1315 451.6734,-85.8808"/>
<polygon fill="#191970" stroke="#191970" points="455.1849,-86.0038 452.9418,-75.6491 448.238,-85.1425 455.1849,-86.0038"/>
</g>
<!-- Node19&#45;&gt;Node10 -->
<g id="edge24" class="edge">
<title>Node19&#45;&gt;Node10</title>
<path fill="none" stroke="#191970" d="M366.4502,-168.4233C389.596,-159.6496 424.2449,-145.9418 453.5,-132 487.2283,-115.9265 524.7643,-94.7178 548.7249,-80.7345"/>
<polygon fill="#191970" stroke="#191970" points="550.6575,-83.6585 557.5085,-75.5768 547.113,-77.6223 550.6575,-83.6585"/>
</g>
<!-- Node19&#45;&gt;Node14 -->
<g id="edge29" class="edge">
<title>Node19&#45;&gt;Node14</title>
<path fill="none" stroke="#191970" d="M346.4223,-168.2455C351.1027,-160.5367 357.7673,-149.5598 363.4289,-140.2348"/>
<polygon fill="#191970" stroke="#191970" points="366.4475,-142.007 368.6455,-131.6427 360.4639,-138.3741 366.4475,-142.007"/>
</g>
<!-- Node19&#45;&gt;Node15 -->
<g id="edge25" class="edge">
<title>Node19&#45;&gt;Node15</title>
<path fill="none" stroke="#191970" d="M333.4235,-168.4509C319.5188,-149.688 288.4433,-107.7548 270.6599,-83.758"/>
<polygon fill="#191970" stroke="#191970" points="273.3247,-81.4753 264.5586,-75.5249 267.7006,-85.6431 273.3247,-81.4753"/>
</g>
<!-- Node19&#45;&gt;Node16 -->
<g id="edge30" class="edge">
<title>Node19&#45;&gt;Node16</title>
<path fill="none" stroke="#191970" d="M332.0146,-168.2443C321.9502,-155.4383 307.3802,-132.2114 314.5,-112 318.3309,-101.125 325.9402,-90.9246 333.2672,-82.9061"/>
<polygon fill="#191970" stroke="#191970" points="335.8557,-85.2652 340.3498,-75.6707 330.8534,-80.3686 335.8557,-85.2652"/>
</g>
<!-- Node20 -->
<g id="node21" class="node">
<title>Node20</title>
<g id="a_node21"><a xlink:href="../../d7/d99/DecoderSymbol_8h.html" target="_top" xlink:title="Structure containing all relevant information for decoding a rANS encoded symbol. ...">
<polygon fill="none" stroke="#000000" points="126,-112.5 126,-131.5 229,-131.5 229,-112.5 126,-112.5"/>
<text text-anchor="middle" x="177.5" y="-119.5" font-family="Helvetica,sans-Serif" font-size="10.00" fill="#000000">DecoderSymbol.h</text>
</a>
</g>
</g>
<!-- Node19&#45;&gt;Node20 -->
<g id="edge27" class="edge">
<title>Node19&#45;&gt;Node20</title>
<path fill="none" stroke="#191970" d="M313.9485,-168.878C287.1213,-159.6613 245.4259,-145.3365 215.1843,-134.9468"/>
<polygon fill="#191970" stroke="#191970" points="216.0003,-131.5263 205.4056,-131.5872 213.7258,-138.1465 216.0003,-131.5263"/>
</g>
<!-- Node20&#45;&gt;Node15 -->
<g id="edge28" class="edge">
<title>Node20&#45;&gt;Node15</title>
<path fill="none" stroke="#191970" d="M191.4349,-112.2455C203.5947,-103.7337 221.4464,-91.2375 235.5285,-81.3801"/>
<polygon fill="#191970" stroke="#191970" points="237.5395,-84.2447 243.7248,-75.6427 233.5253,-78.51 237.5395,-84.2447"/>
</g>
<!-- Node22 -->
<g id="node23" class="node">
<title>Node22</title>
<polygon fill="none" stroke="#bfbfbf" points="944.5,-112.5 944.5,-131.5 1000.5,-131.5 1000.5,-112.5 944.5,-112.5"/>
<text text-anchor="middle" x="972.5" y="-119.5" font-family="Helvetica,sans-Serif" font-size="10.00" fill="#000000">sstream</text>
</g>
<!-- Node21&#45;&gt;Node22 -->
<g id="edge32" class="edge">
<title>Node21&#45;&gt;Node22</title>
<path fill="none" stroke="#191970" d="M972.5,-168.2455C972.5,-160.9382 972.5,-150.6944 972.5,-141.7046"/>
<polygon fill="#191970" stroke="#191970" points="976.0001,-141.6426 972.5,-131.6427 969.0001,-141.6427 976.0001,-141.6426"/>
</g>
<!-- Node23&#45;&gt;Node2 -->
<g id="edge35" class="edge">
<title>Node23&#45;&gt;Node2</title>
<path fill="none" stroke="#191970" d="M349.3781,-225.6245C346.0376,-225.0607 342.7184,-224.5135 339.5,-224 226.0377,-205.898 196.731,-207.4967 83.5,-188 82.0561,-187.7514 80.5897,-187.4921 79.1099,-187.2246"/>
<polygon fill="#191970" stroke="#191970" points="79.7239,-183.7788 69.2487,-185.3669 78.4279,-190.6578 79.7239,-183.7788"/>
</g>
<!-- Node23&#45;&gt;Node8 -->
<g id="edge36" class="edge">
<title>Node23&#45;&gt;Node8</title>
<path fill="none" stroke="#191970" d="M401.9182,-224.4495C411.5873,-210.6143 431.0553,-184.8167 452.5,-168 504.3204,-127.3629 574.8548,-95.9366 616.8298,-79.2637"/>
<polygon fill="#191970" stroke="#191970" points="618.3113,-82.4425 626.35,-75.5411 615.7621,-75.9232 618.3113,-82.4425"/>
</g>
<!-- Node23&#45;&gt;Node13 -->
<g id="edge37" class="edge">
<title>Node23&#45;&gt;Node13</title>
<path fill="none" stroke="#191970" d="M441.772,-225.0647C493.408,-215.0936 576.8546,-198.9798 631.4502,-188.4372"/>
<polygon fill="#191970" stroke="#191970" points="632.1394,-191.8689 641.2944,-186.5362 630.8122,-184.9958 632.1394,-191.8689"/>
</g>
<!-- Node23&#45;&gt;Node17 -->
<g id="edge34" class="edge">
<title>Node23&#45;&gt;Node17</title>
<path fill="none" stroke="#191970" d="M351.8604,-224.491C280.4607,-207.9426 143.8543,-171.7895 116.5,-132 89.9515,-93.3825 143.8258,-48.4452 177.7486,-25.3872"/>
<polygon fill="#191970" stroke="#191970" points="179.8735,-28.1784 186.2932,-19.75 176.0186,-22.3354 179.8735,-28.1784"/>
</g>
<!-- Node23&#45;&gt;Node19 -->
<g id="edge43" class="edge">
<title>Node23&#45;&gt;Node19</title>
<path fill="none" stroke="#191970" d="M385.9197,-224.2455C377.9542,-216.1352 366.4359,-204.4075 356.9921,-194.7919"/>
<polygon fill="#191970" stroke="#191970" points="359.4747,-192.3247 349.9705,-187.6427 354.4805,-197.2297 359.4747,-192.3247"/>
</g>
<!-- Node23&#45;&gt;Node20 -->
<g id="edge38" class="edge">
<title>Node23&#45;&gt;Node20</title>
<path fill="none" stroke="#191970" d="M376.2949,-224.3704C357.8558,-215.1064 329.233,-200.6774 304.5,-188 270.1865,-170.412 230.8088,-149.8961 205.1138,-136.4641"/>
<polygon fill="#191970" stroke="#191970" points="206.4582,-133.2175 195.975,-131.6839 203.2138,-139.4202 206.4582,-133.2175"/>
</g>
<!-- Node24 -->
<g id="node25" class="node">
<title>Node24</title>
<g id="a_node25"><a xlink:href="../../dc/d3b/ReverseSymbolLookupTable_8h.html" target="_top" xlink:title="Maps CDF back to source symbol &#45; needed for the decoder. ">
<polygon fill="none" stroke="#000000" points="461.5,-168.5 461.5,-187.5 623.5,-187.5 623.5,-168.5 461.5,-168.5"/>
<text text-anchor="middle" x="542.5" y="-175.5" font-family="Helvetica,sans-Serif" font-size="10.00" fill="#000000">ReverseSymbolLookupTable.h</text>
</a>
</g>
</g>
<!-- Node23&#45;&gt;Node24 -->
<g id="edge39" class="edge">
<title>Node23&#45;&gt;Node24</title>
<path fill="none" stroke="#191970" d="M420.7702,-224.3733C444.8966,-215.1822 481.4362,-201.2624 508.1877,-191.0713"/>
<polygon fill="#191970" stroke="#191970" points="509.4607,-194.3318 517.5596,-187.5011 506.9687,-187.7904 509.4607,-194.3318"/>
</g>
<!-- Node24&#45;&gt;Node5 -->
<g id="edge41" class="edge">
<title>Node24&#45;&gt;Node5</title>
<path fill="none" stroke="#191970" d="M576.1936,-168.3733C609.2087,-158.9404 659.6573,-144.5265 695.5386,-134.2747"/>
<polygon fill="#191970" stroke="#191970" points="696.5924,-137.6137 705.2461,-131.5011 694.6693,-130.8831 696.5924,-137.6137"/>
</g>
<!-- Node24&#45;&gt;Node10 -->
<g id="edge40" class="edge">
<title>Node24&#45;&gt;Node10</title>
<path fill="none" stroke="#191970" d="M545.143,-168.4509C550.222,-150.1013 561.4347,-109.5908 568.1388,-85.3693"/>
<polygon fill="#191970" stroke="#191970" points="571.5692,-86.0962 570.8636,-75.5249 564.8228,-84.2289 571.5692,-86.0962"/>
</g>
<!-- Node24&#45;&gt;Node16 -->
<g id="edge42" class="edge">
<title>Node24&#45;&gt;Node16</title>
<path fill="none" stroke="#191970" d="M527.0735,-168.4377C506.042,-155.4519 467.136,-131.6106 433.5,-112 414.9929,-101.2099 393.91,-89.3933 377.7565,-80.4385"/>
<polygon fill="#191970" stroke="#191970" points="379.3169,-77.3019 368.8719,-75.5262 375.9298,-83.4279 379.3169,-77.3019"/>
</g>
<!-- Node28 -->
<g id="node29" class="node">
<title>Node28</title>
<g id="a_node29"><a xlink:href="../../df/d21/GPUCommonDef_8h.html" target="_top" xlink:title="GPUCommonDef.h">
<polygon fill="none" stroke="#000000" points="958,-280.5 958,-299.5 1065,-299.5 1065,-280.5 958,-280.5"/>
<text text-anchor="middle" x="1011.5" y="-287.5" font-family="Helvetica,sans-Serif" font-size="10.00" fill="#000000">GPUCommonDef.h</text>
</a>
</g>
</g>
<!-- Node27&#45;&gt;Node28 -->
<g id="edge48" class="edge">
<title>Node27&#45;&gt;Node28</title>
<path fill="none" stroke="#191970" d="M699.9299,-338.7572C773.4944,-327.2452 880.2813,-310.5342 947.7835,-299.9709"/>
<polygon fill="#191970" stroke="#191970" points="948.5201,-303.3983 957.8587,-298.3943 947.4378,-296.4825 948.5201,-303.3983"/>
</g>
<!-- Node31 -->
<g id="node32" class="node">
<title>Node31</title>
<g id="a_node32"><a xlink:href="../../d2/d45/GPUCommonRtypes_8h.html" target="_top" xlink:title="GPUCommonRtypes.h">
<polygon fill="none" stroke="#000000" points="533,-280.5 533,-299.5 658,-299.5 658,-280.5 533,-280.5"/>
<text text-anchor="middle" x="595.5" y="-287.5" font-family="Helvetica,sans-Serif" font-size="10.00" fill="#000000">GPUCommonRtypes.h</text>
</a>
</g>
</g>
<!-- Node27&#45;&gt;Node31 -->
<g id="edge51" class="edge">
<title>Node27&#45;&gt;Node31</title>
<path fill="none" stroke="#191970" d="M612.8146,-336.2977C609.755,-328.1166 605.9502,-317.943 602.6872,-309.2179"/>
<polygon fill="#191970" stroke="#191970" points="605.9638,-307.9873 599.1826,-299.8469 599.4073,-310.4394 605.9638,-307.9873"/>
</g>
<!-- Node29 -->
<g id="node30" class="node">
<title>Node29</title>
<g id="a_node30"><a xlink:href="../../d5/d93/GPUCommonDefSettings_8h.html" target="_top" xlink:title="GPUCommonDefSettings.h">
<polygon fill="none" stroke="#000000" points="937.5,-224.5 937.5,-243.5 1085.5,-243.5 1085.5,-224.5 937.5,-224.5"/>
<text text-anchor="middle" x="1011.5" y="-231.5" font-family="Helvetica,sans-Serif" font-size="10.00" fill="#000000">GPUCommonDefSettings.h</text>
</a>
</g>
</g>
<!-- Node28&#45;&gt;Node29 -->
<g id="edge49" class="edge">
<title>Node28&#45;&gt;Node29</title>
<path fill="none" stroke="#191970" d="M1011.5,-280.2455C1011.5,-272.9382 1011.5,-262.6944 1011.5,-253.7046"/>
<polygon fill="#191970" stroke="#191970" points="1015.0001,-253.6426 1011.5,-243.6427 1008.0001,-253.6427 1015.0001,-253.6426"/>
</g>
<!-- Node30 -->
<g id="node31" class="node">
<title>Node30</title>
<g id="a_node31"><a xlink:href="../../da/d5a/GPUCommonDefAPI_8h.html" target="_top" xlink:title="GPUCommonDefAPI.h">
<polygon fill="none" stroke="#000000" points="1103.5,-224.5 1103.5,-243.5 1227.5,-243.5 1227.5,-224.5 1103.5,-224.5"/>
<text text-anchor="middle" x="1165.5" y="-231.5" font-family="Helvetica,sans-Serif" font-size="10.00" fill="#000000">GPUCommonDefAPI.h</text>
</a>
</g>
</g>
<!-- Node28&#45;&gt;Node30 -->
<g id="edge50" class="edge">
<title>Node28&#45;&gt;Node30</title>
<path fill="none" stroke="#191970" d="M1037.9735,-280.3733C1063.3597,-271.1419 1101.8645,-257.1402 1129.922,-246.9375"/>
<polygon fill="#191970" stroke="#191970" points="1131.1701,-250.2079 1139.3719,-243.5011 1128.7778,-243.6293 1131.1701,-250.2079"/>
</g>
<!-- Node31&#45;&gt;Node3 -->
<g id="edge52" class="edge">
<title>Node31&#45;&gt;Node3</title>
<path fill="none" stroke="#191970" d="M535.7474,-280.4802C486.2435,-272.3068 413.8393,-259.695 341.467,-244.0888"/>
<polygon fill="#191970" stroke="#191970" points="341.7731,-240.5736 331.2575,-241.867 340.2845,-247.4135 341.7731,-240.5736"/>
</g>
</g>
</svg>
        <g id="navigator" transform="translate(0 0)" fill="#404254">
                <rect fill="#f2f5e9" fill-opacity="0.5" stroke="#606060" stroke-width=".5" x="0" y="0" width="60" height="60"/>
                <use id="zoomplus" xlink:href="#zoomPlus" x="17" y="9" onmousedown="handleZoom(evt,'in')"/>
                <use id="zoomminus" xlink:href="#zoomMin" x="42" y="9" onmousedown="handleZoom(evt,'out')"/>
                <use id="reset" xlink:href="#resetDef" x="30" y="36" onmousedown="handleReset()"/>
                <g id="arrowUp" xlink:href="#dirArrow" transform="translate(30 24)" onmousedown="handlePan(0,-1)">
                  <use xlink:href="#rim" fill="#404040">
                        <set attributeName="fill" to="#808080" begin="arrowUp.mouseover" end="arrowUp.mouseout"/>
                  </use>
                  <path fill="none" stroke="white" stroke-width="1.5" d="M0,-3.0v7 M-2.5,-0.5L0,-3.0L2.5,-0.5"/>
                </g>
                <g id="arrowRight" xlink:href="#dirArrow" transform="rotate(90) translate(36 -43)" onmousedown="handlePan(1,0)">
                  <use xlink:href="#rim" fill="#404040">
                        <set attributeName="fill" to="#808080" begin="arrowRight.mouseover" end="arrowRight.mouseout"/>
                  </use>
                  <path fill="none" stroke="white" stroke-width="1.5" d="M0,-3.0v7 M-2.5,-0.5L0,-3.0L2.5,-0.5"/>
                </g>
                <g id="arrowDown" xlink:href="#dirArrow" transform="rotate(180) translate(-30 -48)" onmousedown="handlePan(0,1)">
                  <use xlink:href="#rim" fill="#404040">
                        <set attributeName="fill" to="#808080" begin="arrowDown.mouseover" end="arrowDown.mouseout"/>
                  </use>
                  <path fill="none" stroke="white" stroke-width="1.5" d="M0,-3.0v7 M-2.5,-0.5L0,-3.0L2.5,-0.5"/>
                </g>
                <g id="arrowLeft" xlink:href="#dirArrow" transform="rotate(270) translate(-36 17)" onmousedown="handlePan(-1,0)">
                  <use xlink:href="#rim" fill="#404040">
                        <set attributeName="fill" to="#808080" begin="arrowLeft.mouseover" end="arrowLeft.mouseout"/>
                  </use>
                  <path fill="none" stroke="white" stroke-width="1.5" d="M0,-3.0v7 M-2.5,-0.5L0,-3.0L2.5,-0.5"/>
                </g>
        </g>
        <svg viewBox="0 0 15 15" width="100%" height="30px" preserveAspectRatio="xMaxYMin meet">
         <g id="arrow_out" transform="scale(0.3 0.3)">
          <a xlink:href="TPC_2include_2DataFormatsTPC_2CTF_8h__incl_org.svg" target="_base">
           <rect id="button" ry="5" rx="5" y="6" x="6" height="38" width="38"
                fill="#f2f5e9" fill-opacity="0.5" stroke="#606060" stroke-width="1.0"/>
           <path id="arrow"
             d="M 11.500037,31.436501 C 11.940474,20.09759 22.043105,11.32322 32.158766,21.979434 L 37.068811,17.246167 C 37.068811,17.246167 37.088388,32 37.088388,32 L 22.160133,31.978069 C 22.160133,31.978069 26.997745,27.140456 26.997745,27.140456 C 18.528582,18.264221 13.291696,25.230495 11.500037,31.436501 z"
             style="fill:#404040;"/>
          </a>
         </g>
        </svg>
</svg>
