<?xml version="1.0" encoding="UTF-8" standalone="no"?>
<!DOCTYPE svg PUBLIC "-//W3C//DTD SVG 1.1//EN"
 "http://www.w3.org/Graphics/SVG/1.1/DTD/svg11.dtd">
<!-- Generated by graphviz version 2.40.1 (20161225.0304)
 -->
<!-- Title: /home/travis/build/AliceO2Group/AliceO2/Utilities/rANS/include/rANS/Encoder.h Pages: 1 -->
<!--zoomable 285 -->
<svg id="main" version="1.1" xmlns="http://www.w3.org/2000/svg" xmlns:xlink="http://www.w3.org/1999/xlink" xml:space="preserve" onload="init(evt)">
<style type="text/css"><![CDATA[
.edge:hover path { stroke: red; }
.edge:hover polygon { stroke: red; fill: red; }
]]></style>
<script type="text/javascript"><![CDATA[
var edges = document.getElementsByTagName('g');
if (edges && edges.length) {
  for (var i=0;i<edges.length;i++) {
    if (edges[i].id.substr(0,4)=='edge') {
      edges[i].setAttribute('class','edge');
    }
  }
}
]]></script>
        <defs>
                <circle id="rim" cx="0" cy="0" r="7"/>
                <circle id="rim2" cx="0" cy="0" r="3.5"/>
                <g id="zoomPlus">
                        <use xlink:href="#rim" fill="#404040">
                                <set attributeName="fill" to="#808080" begin="zoomplus.mouseover" end="zoomplus.mouseout"/>
                        </use>
                        <path d="M-4,0h8M0,-4v8" fill="none" stroke="white" stroke-width="1.5" pointer-events="none"/>
                </g>
                <g id="zoomMin">
                        <use xlink:href="#rim" fill="#404040">
                                <set attributeName="fill" to="#808080" begin="zoomminus.mouseover" end="zoomminus.mouseout"/>
                        </use>
                        <path d="M-4,0h8" fill="none" stroke="white" stroke-width="1.5" pointer-events="none"/>
                </g>
                <g id="dirArrow">
                        <path fill="none" stroke="white" stroke-width="1.5" d="M0,-3.0v7 M-2.5,-0.5L0,-3.0L2.5,-0.5"/>
                </g>
               <g id="resetDef">
                       <use xlink:href="#rim2" fill="#404040">
                               <set attributeName="fill" to="#808080" begin="reset.mouseover" end="reset.mouseout"/>
                       </use>
               </g>
        </defs>

<script type="text/javascript">
var viewWidth = 736;
var viewHeight = 285;
var sectionId = 'dynsection-0';
</script>
<script xlink:href="../../svgpan.js"/>
<svg id="graph" class="graph">
<g id="viewport">
<title>/home/travis/build/AliceO2Group/AliceO2/Utilities/rANS/include/rANS/Encoder.h</title>
<!-- Node0 -->
<g id="node1" class="node">
<title>Node0</title>
<polygon fill="#bfbfbf" stroke="#000000" points="222.5,-224.5 222.5,-276.5 349.5,-276.5 349.5,-224.5 222.5,-224.5"/>
<text text-anchor="start" x="230.5" y="-264.5" font-family="Helvetica,sans-Serif" font-size="10.00" fill="#000000">/home/travis/build</text>
<text text-anchor="start" x="230.5" y="-253.5" font-family="Helvetica,sans-Serif" font-size="10.00" fill="#000000">/AliceO2Group/AliceO2</text>
<text text-anchor="start" x="230.5" y="-242.5" font-family="Helvetica,sans-Serif" font-size="10.00" fill="#000000">/Utilities/rANS/include</text>
<text text-anchor="middle" x="286" y="-231.5" font-family="Helvetica,sans-Serif" font-size="10.00" fill="#000000">/rANS/Encoder.h</text>
</g>
<!-- Node1 -->
<g id="node2" class="node">
<title>Node1</title>
<polygon fill="none" stroke="#bfbfbf" points="0,-168.5 0,-187.5 58,-187.5 58,-168.5 0,-168.5"/>
<text text-anchor="middle" x="29" y="-175.5" font-family="Helvetica,sans-Serif" font-size="10.00" fill="#000000">memory</text>
</g>
<!-- Node0&#45;&gt;Node1 -->
<g id="edge1" class="edge">
<title>Node0&#45;&gt;Node1</title>
<path fill="none" stroke="#191970" d="M222.4719,-232.5786C174.1003,-218.933 109.06,-200.585 68.0808,-189.0247"/>
<polygon fill="#191970" stroke="#191970" points="68.7803,-185.5855 58.2056,-186.2389 66.8797,-192.3226 68.7803,-185.5855"/>
</g>
<!-- Node2 -->
<g id="node3" class="node">
<title>Node2</title>
<polygon fill="none" stroke="#bfbfbf" points="15,-56.5 15,-75.5 79,-75.5 79,-56.5 15,-56.5"/>
<text text-anchor="middle" x="47" y="-63.5" font-family="Helvetica,sans-Serif" font-size="10.00" fill="#000000">algorithm</text>
</g>
<!-- Node0&#45;&gt;Node2 -->
<g id="edge2" class="edge">
<title>Node0&#45;&gt;Node2</title>
<path fill="none" stroke="#191970" d="M238.9545,-224.4769C200.9185,-202.3469 146.983,-168.4335 105,-132 88.0176,-117.2624 71.3623,-97.6144 60.288,-83.5971"/>
<polygon fill="#191970" stroke="#191970" points="63.0531,-81.4513 54.1608,-75.6912 57.5202,-85.7394 63.0531,-81.4513"/>
</g>
<!-- Node3 -->
<g id="node4" class="node">
<title>Node3</title>
<g id="a_node4"><a xlink:href="../../d8/dd9/SymbolTable_8h.html" target="_top" xlink:title="Container for information needed to encode/decode a symbol of the alphabet. ">
<polygon fill="none" stroke="#000000" points="206,-168.5 206,-187.5 294,-187.5 294,-168.5 206,-168.5"/>
<text text-anchor="middle" x="250" y="-175.5" font-family="Helvetica,sans-Serif" font-size="10.00" fill="#000000">SymbolTable.h</text>
</a>
</g>
</g>
<!-- Node0&#45;&gt;Node3 -->
<g id="edge3" class="edge">
<title>Node0&#45;&gt;Node3</title>
<path fill="none" stroke="#191970" d="M273.0032,-224.3258C268.4288,-215.1136 263.3862,-204.9584 259.191,-196.5096"/>
<polygon fill="#191970" stroke="#191970" points="262.3164,-194.934 254.7341,-187.534 256.0468,-198.0472 262.3164,-194.934"/>
</g>
<!-- Node9 -->
<g id="node10" class="node">
<title>Node9</title>
<g id="a_node10"><a xlink:href="../../d2/d53/EncoderSymbol_8h.html" target="_top" xlink:title="Structure containing all relevant information to encode a symbol. ">
<polygon fill="none" stroke="#000000" points="354.5,-112.5 354.5,-131.5 455.5,-131.5 455.5,-112.5 354.5,-112.5"/>
<text text-anchor="middle" x="405" y="-119.5" font-family="Helvetica,sans-Serif" font-size="10.00" fill="#000000">EncoderSymbol.h</text>
</a>
</g>
</g>
<!-- Node0&#45;&gt;Node9 -->
<g id="edge11" class="edge">
<title>Node0&#45;&gt;Node9</title>
<path fill="none" stroke="#191970" d="M310.0814,-224.4961C333.688,-199.0049 368.9896,-160.8852 389.2266,-139.0326"/>
<polygon fill="#191970" stroke="#191970" points="391.9625,-141.2294 396.1892,-131.5142 386.8266,-136.4731 391.9625,-141.2294"/>
</g>
<!-- Node14 -->
<g id="node15" class="node">
<title>Node14</title>
<g id="a_node15"><a xlink:href="../../d5/d7a/Coder_8h.html" target="_top" xlink:title="Stateless class for coding and decoding symbols using rANS. ">
<polygon fill="none" stroke="#000000" points="378.5,-168.5 378.5,-187.5 431.5,-187.5 431.5,-168.5 378.5,-168.5"/>
<text text-anchor="middle" x="405" y="-175.5" font-family="Helvetica,sans-Serif" font-size="10.00" fill="#000000">Coder.h</text>
</a>
</g>
</g>
<!-- Node0&#45;&gt;Node14 -->
<g id="edge17" class="edge">
<title>Node0&#45;&gt;Node14</title>
<path fill="none" stroke="#191970" d="M328.9617,-224.3258C346.3834,-213.7118 365.86,-201.8458 380.7398,-192.7804"/>
<polygon fill="#191970" stroke="#191970" points="382.6322,-195.7259 389.3511,-187.534 378.9901,-189.748 382.6322,-195.7259"/>
</g>
<!-- Node16 -->
<g id="node17" class="node">
<title>Node16</title>
<g id="a_node17"><a xlink:href="../../d4/d8f/StringUtils_8h.html" target="_top" xlink:title="CommonUtils/StringUtils.h">
<polygon fill="none" stroke="#000000" points="538,-168.5 538,-187.5 684,-187.5 684,-168.5 538,-168.5"/>
<text text-anchor="middle" x="611" y="-175.5" font-family="Helvetica,sans-Serif" font-size="10.00" fill="#000000">CommonUtils/StringUtils.h</text>
</a>
</g>
</g>
<!-- Node0&#45;&gt;Node16 -->
<g id="edge25" class="edge">
<title>Node0&#45;&gt;Node16</title>
<path fill="none" stroke="#191970" d="M349.8218,-236.2628C410.6839,-222.6859 501.2681,-202.4787 558.1839,-189.782"/>
<polygon fill="#191970" stroke="#191970" points="559.06,-193.1727 568.058,-187.5794 557.5359,-186.3407 559.06,-193.1727"/>
</g>
<!-- Node4 -->
<g id="node5" class="node">
<title>Node4</title>
<polygon fill="none" stroke="#bfbfbf" points="249.5,-56.5 249.5,-75.5 296.5,-75.5 296.5,-56.5 249.5,-56.5"/>
<text text-anchor="middle" x="273" y="-63.5" font-family="Helvetica,sans-Serif" font-size="10.00" fill="#000000">vector</text>
</g>
<!-- Node3&#45;&gt;Node4 -->
<g id="edge4" class="edge">
<title>Node3&#45;&gt;Node4</title>
<path fill="none" stroke="#191970" d="M251.961,-168.4509C255.7292,-150.1013 264.0483,-109.5908 269.0224,-85.3693"/>
<polygon fill="#191970" stroke="#191970" points="272.4608,-86.0246 271.044,-75.5249 265.6039,-84.6164 272.4608,-86.0246"/>
</g>
<!-- Node5 -->
<g id="node6" class="node">
<title>Node5</title>
<g id="a_node6"><a xlink:href="../../d0/d51/SymbolStatistics_8h.html" target="_top" xlink:title="Structure to depict the distribution of symbols in the source message. ">
<polygon fill="none" stroke="#000000" points="114.5,-112.5 114.5,-131.5 221.5,-131.5 221.5,-112.5 114.5,-112.5"/>
<text text-anchor="middle" x="168" y="-119.5" font-family="Helvetica,sans-Serif" font-size="10.00" fill="#000000">SymbolStatistics.h</text>
</a>
</g>
</g>
<!-- Node3&#45;&gt;Node5 -->
<g id="edge5" class="edge">
<title>Node3&#45;&gt;Node5</title>
<path fill="none" stroke="#191970" d="M235.7167,-168.2455C223.253,-159.7337 204.9549,-147.2375 190.5208,-137.3801"/>
<polygon fill="#191970" stroke="#191970" points="192.3515,-134.392 182.1196,-131.6427 188.4038,-140.1726 192.3515,-134.392"/>
</g>
<!-- Node5&#45;&gt;Node2 -->
<g id="edge6" class="edge">
<title>Node5&#45;&gt;Node2</title>
<path fill="none" stroke="#191970" d="M147.1994,-112.3733C127.7757,-103.3838 98.5776,-89.8706 76.7036,-79.7471"/>
<polygon fill="#191970" stroke="#191970" points="78.0745,-76.5249 67.5292,-75.5011 75.1344,-82.8776 78.0745,-76.5249"/>
</g>
<!-- Node5&#45;&gt;Node4 -->
<g id="edge10" class="edge">
<title>Node5&#45;&gt;Node4</title>
<path fill="none" stroke="#191970" d="M186.2896,-112.2455C202.7762,-103.4527 227.2352,-90.4079 245.9765,-80.4125"/>
<polygon fill="#191970" stroke="#191970" points="247.7435,-83.4368 254.92,-75.6427 244.4494,-77.2604 247.7435,-83.4368"/>
</g>
<!-- Node6 -->
<g id="node7" class="node">
<title>Node6</title>
<polygon fill="none" stroke="#bfbfbf" points="315,-56.5 315,-75.5 367,-75.5 367,-56.5 315,-56.5"/>
<text text-anchor="middle" x="341" y="-63.5" font-family="Helvetica,sans-Serif" font-size="10.00" fill="#000000">cassert</text>
</g>
<!-- Node5&#45;&gt;Node6 -->
<g id="edge7" class="edge">
<title>Node5&#45;&gt;Node6</title>
<path fill="none" stroke="#191970" d="M197.7398,-112.3733C227.4659,-102.7509 273.2042,-87.9455 304.9725,-77.6621"/>
<polygon fill="#191970" stroke="#191970" points="306.322,-80.9041 314.7581,-74.4945 304.1662,-74.2443 306.322,-80.9041"/>
</g>
<!-- Node7 -->
<g id="node8" class="node">
<title>Node7</title>
<polygon fill="none" stroke="#bfbfbf" points="97,-56.5 97,-75.5 157,-75.5 157,-56.5 97,-56.5"/>
<text text-anchor="middle" x="127" y="-63.5" font-family="Helvetica,sans-Serif" font-size="10.00" fill="#000000">iostream</text>
</g>
<!-- Node5&#45;&gt;Node7 -->
<g id="edge8" class="edge">
<title>Node5&#45;&gt;Node7</title>
<path fill="none" stroke="#191970" d="M160.8583,-112.2455C155.1556,-104.4564 147.01,-93.3308 140.1375,-83.9439"/>
<polygon fill="#191970" stroke="#191970" points="142.7913,-81.6437 134.0598,-75.6427 137.1432,-85.7789 142.7913,-81.6437"/>
</g>
<!-- Node8 -->
<g id="node9" class="node">
<title>Node8</title>
<polygon fill="none" stroke="#bfbfbf" points="175,-56.5 175,-75.5 231,-75.5 231,-56.5 175,-56.5"/>
<text text-anchor="middle" x="203" y="-63.5" font-family="Helvetica,sans-Serif" font-size="10.00" fill="#000000">numeric</text>
</g>
<!-- Node5&#45;&gt;Node8 -->
<g id="edge9" class="edge">
<title>Node5&#45;&gt;Node8</title>
<path fill="none" stroke="#191970" d="M174.0965,-112.2455C178.9145,-104.5367 185.7751,-93.5598 191.6032,-84.2348"/>
<polygon fill="#191970" stroke="#191970" points="194.6413,-85.9777 196.9733,-75.6427 188.7053,-82.2677 194.6413,-85.9777"/>
</g>
<!-- Node9&#45;&gt;Node6 -->
<g id="edge13" class="edge">
<title>Node9&#45;&gt;Node6</title>
<path fill="none" stroke="#191970" d="M393.8521,-112.2455C384.4913,-104.0549 370.9142,-92.1749 359.8651,-82.5069"/>
<polygon fill="#191970" stroke="#191970" points="361.8508,-79.5937 352.0202,-75.6427 357.2412,-84.8618 361.8508,-79.5937"/>
</g>
<!-- Node10 -->
<g id="node11" class="node">
<title>Node10</title>
<polygon fill="none" stroke="#bfbfbf" points="497,-56.5 497,-75.5 547,-75.5 547,-56.5 497,-56.5"/>
<text text-anchor="middle" x="522" y="-63.5" font-family="Helvetica,sans-Serif" font-size="10.00" fill="#000000">cstdint</text>
</g>
<!-- Node9&#45;&gt;Node10 -->
<g id="edge12" class="edge">
<title>Node9&#45;&gt;Node10</title>
<path fill="none" stroke="#191970" d="M425.113,-112.3733C443.8103,-103.4241 471.8744,-89.9917 492.9934,-79.8835"/>
<polygon fill="#191970" stroke="#191970" points="494.6405,-82.9755 502.1494,-75.5011 491.6183,-76.6614 494.6405,-82.9755"/>
</g>
<!-- Node11 -->
<g id="node12" class="node">
<title>Node11</title>
<g id="a_node12"><a xlink:href="../../d4/da1/helper_8h.html" target="_top" xlink:title="various helper functions ">
<polygon fill="none" stroke="#000000" points="412,-56.5 412,-75.5 468,-75.5 468,-56.5 412,-56.5"/>
<text text-anchor="middle" x="440" y="-63.5" font-family="Helvetica,sans-Serif" font-size="10.00" fill="#000000">helper.h</text>
</a>
</g>
</g>
<!-- Node9&#45;&gt;Node11 -->
<g id="edge14" class="edge">
<title>Node9&#45;&gt;Node11</title>
<path fill="none" stroke="#191970" d="M411.0965,-112.2455C415.9145,-104.5367 422.7751,-93.5598 428.6032,-84.2348"/>
<polygon fill="#191970" stroke="#191970" points="431.6413,-85.9777 433.9733,-75.6427 425.7053,-82.2677 431.6413,-85.9777"/>
</g>
<!-- Node12 -->
<g id="node13" class="node">
<title>Node12</title>
<polygon fill="none" stroke="#bfbfbf" points="379.5,-.5 379.5,-19.5 432.5,-19.5 432.5,-.5 379.5,-.5"/>
<text text-anchor="middle" x="406" y="-7.5" font-family="Helvetica,sans-Serif" font-size="10.00" fill="#000000">cstddef</text>
</g>
<!-- Node11&#45;&gt;Node12 -->
<g id="edge15" class="edge">
<title>Node11&#45;&gt;Node12</title>
<path fill="none" stroke="#191970" d="M434.0777,-56.2455C429.3973,-48.5367 422.7327,-37.5598 417.0711,-28.2348"/>
<polygon fill="#191970" stroke="#191970" points="420.0361,-26.3741 411.8545,-19.6427 414.0525,-30.007 420.0361,-26.3741"/>
</g>
<!-- Node13 -->
<g id="node14" class="node">
<title>Node13</title>
<polygon fill="none" stroke="#bfbfbf" points="450.5,-.5 450.5,-19.5 497.5,-19.5 497.5,-.5 450.5,-.5"/>
<text text-anchor="middle" x="474" y="-7.5" font-family="Helvetica,sans-Serif" font-size="10.00" fill="#000000">cmath</text>
</g>
<!-- Node11&#45;&gt;Node13 -->
<g id="edge16" class="edge">
<title>Node11&#45;&gt;Node13</title>
<path fill="none" stroke="#191970" d="M445.9223,-56.2455C450.6027,-48.5367 457.2673,-37.5598 462.9289,-28.2348"/>
<polygon fill="#191970" stroke="#191970" points="465.9475,-30.007 468.1455,-19.6427 459.9639,-26.3741 465.9475,-30.007"/>
</g>
<!-- Node14&#45;&gt;Node4 -->
<g id="edge18" class="edge">
<title>Node14&#45;&gt;Node4</title>
<path fill="none" stroke="#191970" d="M388.1058,-168.4349C373.4252,-159.7729 351.92,-146.2229 335,-132 317.2608,-117.0885 299.394,-97.4668 287.4281,-83.5032"/>
<polygon fill="#191970" stroke="#191970" points="289.9151,-81.0231 280.794,-75.6327 284.5628,-85.5346 289.9151,-81.0231"/>
</g>
<!-- Node14&#45;&gt;Node6 -->
<g id="edge20" class="edge">
<title>Node14&#45;&gt;Node6</title>
<path fill="none" stroke="#191970" d="M384.814,-168.3849C371.0068,-160.6364 353.6875,-148.3416 345,-132 337.5066,-117.9046 336.9739,-99.6475 338.0508,-85.9093"/>
<polygon fill="#191970" stroke="#191970" points="341.5681,-85.9533 339.2164,-75.6227 334.6126,-85.165 341.5681,-85.9533"/>
</g>
<!-- Node14&#45;&gt;Node9 -->
<g id="edge23" class="edge">
<title>Node14&#45;&gt;Node9</title>
<path fill="none" stroke="#191970" d="M405,-168.2455C405,-160.9382 405,-150.6944 405,-141.7046"/>
<polygon fill="#191970" stroke="#191970" points="408.5001,-141.6426 405,-131.6427 401.5001,-141.6427 408.5001,-141.6426"/>
</g>
<!-- Node14&#45;&gt;Node10 -->
<g id="edge19" class="edge">
<title>Node14&#45;&gt;Node10</title>
<path fill="none" stroke="#191970" d="M425.8354,-168.4815C441.9422,-160.4009 464.1006,-147.6382 480,-132 493.8692,-118.3586 505.3667,-99.3208 512.8046,-85.1958"/>
<polygon fill="#191970" stroke="#191970" points="516.1015,-86.4311 517.479,-75.9262 509.8512,-83.2793 516.1015,-86.4311"/>
</g>
<!-- Node14&#45;&gt;Node11 -->
<g id="edge24" class="edge">
<title>Node14&#45;&gt;Node11</title>
<path fill="none" stroke="#191970" d="M425.7852,-168.3756C439.687,-160.6917 456.8691,-148.4793 465,-132 472.8274,-116.1359 463.8746,-97.1737 454.579,-83.6535"/>
<polygon fill="#191970" stroke="#191970" points="457.3828,-81.5585 448.5938,-75.6419 451.7748,-85.7479 457.3828,-81.5585"/>
</g>
<!-- Node15 -->
<g id="node16" class="node">
<title>Node15</title>
<g id="a_node16"><a xlink:href="../../d7/d99/DecoderSymbol_8h.html" target="_top" xlink:title="Structure containing all relevant information for decoding a rANS encoded symbol. ...">
<polygon fill="none" stroke="#000000" points="550.5,-112.5 550.5,-131.5 653.5,-131.5 653.5,-112.5 550.5,-112.5"/>
<text text-anchor="middle" x="602" y="-119.5" font-family="Helvetica,sans-Serif" font-size="10.00" fill="#000000">DecoderSymbol.h</text>
</a>
</g>
</g>
<!-- Node14&#45;&gt;Node15 -->
<g id="edge21" class="edge">
<title>Node14&#45;&gt;Node15</title>
<path fill="none" stroke="#191970" d="M431.5683,-170.4476C464.0582,-161.2119 519.5061,-145.45 558.308,-134.4201"/>
<polygon fill="#191970" stroke="#191970" points="559.6213,-137.6855 568.2832,-131.5845 557.7072,-130.9522 559.6213,-137.6855"/>
</g>
<!-- Node15&#45;&gt;Node10 -->
<g id="edge22" class="edge">
<title>Node15&#45;&gt;Node10</title>
<path fill="none" stroke="#191970" d="M588.0651,-112.2455C575.9053,-103.7337 558.0536,-91.2375 543.9715,-81.3801"/>
<polygon fill="#191970" stroke="#191970" points="545.9747,-78.51 535.7752,-75.6427 541.9605,-84.2447 545.9747,-78.51"/>
</g>
<!-- Node17 -->
<g id="node18" class="node">
<title>Node17</title>
<polygon fill="none" stroke="#bfbfbf" points="672,-112.5 672,-131.5 728,-131.5 728,-112.5 672,-112.5"/>
<text text-anchor="middle" x="700" y="-119.5" font-family="Helvetica,sans-Serif" font-size="10.00" fill="#000000">sstream</text>
</g>
<!-- Node16&#45;&gt;Node17 -->
<g id="edge26" class="edge">
<title>Node16&#45;&gt;Node17</title>
<path fill="none" stroke="#191970" d="M626.5026,-168.2455C640.158,-159.6534 660.2657,-147.0014 675.9989,-137.1018"/>
<polygon fill="#191970" stroke="#191970" points="678.0751,-139.9307 684.675,-131.6427 674.3471,-134.006 678.0751,-139.9307"/>
</g>
</g>
</svg>
        <g id="navigator" transform="translate(0 0)" fill="#404254">
                <rect fill="#f2f5e9" fill-opacity="0.5" stroke="#606060" stroke-width=".5" x="0" y="0" width="60" height="60"/>
                <use id="zoomplus" xlink:href="#zoomPlus" x="17" y="9" onmousedown="handleZoom(evt,'in')"/>
                <use id="zoomminus" xlink:href="#zoomMin" x="42" y="9" onmousedown="handleZoom(evt,'out')"/>
                <use id="reset" xlink:href="#resetDef" x="30" y="36" onmousedown="handleReset()"/>
                <g id="arrowUp" xlink:href="#dirArrow" transform="translate(30 24)" onmousedown="handlePan(0,-1)">
                  <use xlink:href="#rim" fill="#404040">
                        <set attributeName="fill" to="#808080" begin="arrowUp.mouseover" end="arrowUp.mouseout"/>
                  </use>
                  <path fill="none" stroke="white" stroke-width="1.5" d="M0,-3.0v7 M-2.5,-0.5L0,-3.0L2.5,-0.5"/>
                </g>
                <g id="arrowRight" xlink:href="#dirArrow" transform="rotate(90) translate(36 -43)" onmousedown="handlePan(1,0)">
                  <use xlink:href="#rim" fill="#404040">
                        <set attributeName="fill" to="#808080" begin="arrowRight.mouseover" end="arrowRight.mouseout"/>
                  </use>
                  <path fill="none" stroke="white" stroke-width="1.5" d="M0,-3.0v7 M-2.5,-0.5L0,-3.0L2.5,-0.5"/>
                </g>
                <g id="arrowDown" xlink:href="#dirArrow" transform="rotate(180) translate(-30 -48)" onmousedown="handlePan(0,1)">
                  <use xlink:href="#rim" fill="#404040">
                        <set attributeName="fill" to="#808080" begin="arrowDown.mouseover" end="arrowDown.mouseout"/>
                  </use>
                  <path fill="none" stroke="white" stroke-width="1.5" d="M0,-3.0v7 M-2.5,-0.5L0,-3.0L2.5,-0.5"/>
                </g>
                <g id="arrowLeft" xlink:href="#dirArrow" transform="rotate(270) translate(-36 17)" onmousedown="handlePan(-1,0)">
                  <use xlink:href="#rim" fill="#404040">
                        <set attributeName="fill" to="#808080" begin="arrowLeft.mouseover" end="arrowLeft.mouseout"/>
                  </use>
                  <path fill="none" stroke="white" stroke-width="1.5" d="M0,-3.0v7 M-2.5,-0.5L0,-3.0L2.5,-0.5"/>
                </g>
        </g>
        <svg viewBox="0 0 15 15" width="100%" height="30px" preserveAspectRatio="xMaxYMin meet">
         <g id="arrow_out" transform="scale(0.3 0.3)">
          <a xlink:href="Utilities_2rANS_2include_2rANS_2Encoder_8h__incl_org.svg" target="_base">
           <rect id="button" ry="5" rx="5" y="6" x="6" height="38" width="38"
                fill="#f2f5e9" fill-opacity="0.5" stroke="#606060" stroke-width="1.0"/>
           <path id="arrow"
             d="M 11.500037,31.436501 C 11.940474,20.09759 22.043105,11.32322 32.158766,21.979434 L 37.068811,17.246167 C 37.068811,17.246167 37.088388,32 37.088388,32 L 22.160133,31.978069 C 22.160133,31.978069 26.997745,27.140456 26.997745,27.140456 C 18.528582,18.264221 13.291696,25.230495 11.500037,31.436501 z"
             style="fill:#404040;"/>
          </a>
         </g>
        </svg>
</svg>
