<?xml version="1.0" encoding="UTF-8" standalone="no"?>
<!DOCTYPE svg PUBLIC "-//W3C//DTD SVG 1.1//EN"
 "http://www.w3.org/Graphics/SVG/1.1/DTD/svg11.dtd">
<!-- Generated by graphviz version 2.40.1 (20161225.0304)
 -->
<!-- Title: /home/travis/build/AliceO2Group/AliceO2/DataFormats/Detectors/ITSMFT/common/src/CTF.cxx Pages: 1 -->
<!--zoomable 520 -->
<svg id="main" version="1.1" xmlns="http://www.w3.org/2000/svg" xmlns:xlink="http://www.w3.org/1999/xlink" xml:space="preserve" onload="init(evt)">
<style type="text/css"><![CDATA[
.edge:hover path { stroke: red; }
.edge:hover polygon { stroke: red; fill: red; }
]]></style>
<script type="text/javascript"><![CDATA[
var edges = document.getElementsByTagName('g');
if (edges && edges.length) {
  for (var i=0;i<edges.length;i++) {
    if (edges[i].id.substr(0,4)=='edge') {
      edges[i].setAttribute('class','edge');
    }
  }
}
]]></script>
        <defs>
                <circle id="rim" cx="0" cy="0" r="7"/>
                <circle id="rim2" cx="0" cy="0" r="3.5"/>
                <g id="zoomPlus">
                        <use xlink:href="#rim" fill="#404040">
                                <set attributeName="fill" to="#808080" begin="zoomplus.mouseover" end="zoomplus.mouseout"/>
                        </use>
                        <path d="M-4,0h8M0,-4v8" fill="none" stroke="white" stroke-width="1.5" pointer-events="none"/>
                </g>
                <g id="zoomMin">
                        <use xlink:href="#rim" fill="#404040">
                                <set attributeName="fill" to="#808080" begin="zoomminus.mouseover" end="zoomminus.mouseout"/>
                        </use>
                        <path d="M-4,0h8" fill="none" stroke="white" stroke-width="1.5" pointer-events="none"/>
                </g>
                <g id="dirArrow">
                        <path fill="none" stroke="white" stroke-width="1.5" d="M0,-3.0v7 M-2.5,-0.5L0,-3.0L2.5,-0.5"/>
                </g>
               <g id="resetDef">
                       <use xlink:href="#rim2" fill="#404040">
                               <set attributeName="fill" to="#808080" begin="reset.mouseover" end="reset.mouseout"/>
                       </use>
               </g>
        </defs>

<script type="text/javascript">
var viewWidth = 1168;
var viewHeight = 520;
var sectionId = 'dynsection-0';
</script>
<script xlink:href="../../svgpan.js"/>
<svg id="graph" class="graph">
<g id="viewport">
<title>/home/travis/build/AliceO2Group/AliceO2/DataFormats/Detectors/ITSMFT/common/src/CTF.cxx</title>
<!-- Node0 -->
<g id="node1" class="node">
<title>Node0</title>
<polygon fill="#bfbfbf" stroke="#000000" points="166,-459.5 166,-511.5 323,-511.5 323,-459.5 166,-459.5"/>
<text text-anchor="start" x="174" y="-499.5" font-family="Helvetica,sans-Serif" font-size="10.00" fill="#000000">/home/travis/build</text>
<text text-anchor="start" x="174" y="-488.5" font-family="Helvetica,sans-Serif" font-size="10.00" fill="#000000">/AliceO2Group/AliceO2</text>
<text text-anchor="start" x="174" y="-477.5" font-family="Helvetica,sans-Serif" font-size="10.00" fill="#000000">/DataFormats/Detectors</text>
<text text-anchor="middle" x="244.5" y="-466.5" font-family="Helvetica,sans-Serif" font-size="10.00" fill="#000000">/ITSMFT/common/src/CTF.cxx</text>
</g>
<!-- Node1 -->
<g id="node2" class="node">
<title>Node1</title>
<polygon fill="none" stroke="#bfbfbf" points="20,-403.5 20,-422.5 85,-422.5 85,-403.5 20,-403.5"/>
<text text-anchor="middle" x="52.5" y="-410.5" font-family="Helvetica,sans-Serif" font-size="10.00" fill="#000000">stdexcept</text>
</g>
<!-- Node0&#45;&gt;Node1 -->
<g id="edge1" class="edge">
<title>Node0&#45;&gt;Node1</title>
<path fill="none" stroke="#191970" d="M175.4549,-459.4283C145.596,-448.1534 111.9513,-435.449 87.414,-426.1837"/>
<polygon fill="#191970" stroke="#191970" points="88.416,-422.8209 77.8243,-422.5626 85.9432,-429.3696 88.416,-422.8209"/>
</g>
<!-- Node2 -->
<g id="node3" class="node">
<title>Node2</title>
<polygon fill="none" stroke="#bfbfbf" points="103.5,-403.5 103.5,-422.5 153.5,-422.5 153.5,-403.5 103.5,-403.5"/>
<text text-anchor="middle" x="128.5" y="-410.5" font-family="Helvetica,sans-Serif" font-size="10.00" fill="#000000">cstring</text>
</g>
<!-- Node0&#45;&gt;Node2 -->
<g id="edge2" class="edge">
<title>Node0&#45;&gt;Node2</title>
<path fill="none" stroke="#191970" d="M202.6213,-459.3258C185.7991,-448.8119 167.0113,-437.0696 152.5603,-428.0377"/>
<polygon fill="#191970" stroke="#191970" points="154.0894,-424.866 143.7544,-422.534 150.3794,-430.802 154.0894,-424.866"/>
</g>
<!-- Node3 -->
<g id="node4" class="node">
<title>Node3</title>
<g id="a_node4"><a xlink:href="../../dd/da4/Logger_8h.html" target="_top" xlink:title="Framework/Logger.h">
<polygon fill="none" stroke="#000000" points="126,-280.5 126,-299.5 241,-299.5 241,-280.5 126,-280.5"/>
<text text-anchor="middle" x="183.5" y="-287.5" font-family="Helvetica,sans-Serif" font-size="10.00" fill="#000000">Framework/Logger.h</text>
</a>
</g>
</g>
<!-- Node0&#45;&gt;Node3 -->
<g id="edge3" class="edge">
<title>Node0&#45;&gt;Node3</title>
<path fill="none" stroke="#191970" d="M236.2733,-459.134C223.8363,-419.2745 200.535,-344.5958 189.5385,-309.353"/>
<polygon fill="#191970" stroke="#191970" points="192.8663,-308.2674 186.5465,-299.7639 186.184,-310.3525 192.8663,-308.2674"/>
</g>
<!-- Node4 -->
<g id="node5" class="node">
<title>Node4</title>
<g id="a_node5"><a xlink:href="../../dc/d8e/ITSMFT_2common_2include_2DataFormatsITSMFT_2CTF_8h.html" target="_top" xlink:title="DataFormatsITSMFT/CTF.h">
<polygon fill="none" stroke="#000000" points="236,-403.5 236,-422.5 379,-422.5 379,-403.5 236,-403.5"/>
<text text-anchor="middle" x="307.5" y="-410.5" font-family="Helvetica,sans-Serif" font-size="10.00" fill="#000000">DataFormatsITSMFT/CTF.h</text>
</a>
</g>
</g>
<!-- Node0&#45;&gt;Node4 -->
<g id="edge4" class="edge">
<title>Node0&#45;&gt;Node4</title>
<path fill="none" stroke="#191970" d="M267.2444,-459.3258C275.6846,-449.613 285.0357,-438.8518 292.5993,-430.1476"/>
<polygon fill="#191970" stroke="#191970" points="295.2979,-432.3781 299.2153,-422.534 290.0141,-427.7866 295.2979,-432.3781"/>
</g>
<!-- Node30 -->
<g id="node31" class="node">
<title>Node30</title>
<g id="a_node31"><a xlink:href="../../d0/dc6/ITSMFT_2common_2include_2DataFormatsITSMFT_2ROFRecord_8h.html" target="_top" xlink:title="DataFormatsITSMFT/ROFRecord.h">
<polygon fill="none" stroke="#000000" points="535,-403.5 535,-422.5 714,-422.5 714,-403.5 535,-403.5"/>
<text text-anchor="middle" x="624.5" y="-410.5" font-family="Helvetica,sans-Serif" font-size="10.00" fill="#000000">DataFormatsITSMFT/ROFRecord.h</text>
</a>
</g>
</g>
<!-- Node0&#45;&gt;Node30 -->
<g id="edge53" class="edge">
<title>Node0&#45;&gt;Node30</title>
<path fill="none" stroke="#191970" d="M323.2362,-470.478C394.9435,-456.797 499.2967,-436.8875 564.4697,-424.4532"/>
<polygon fill="#191970" stroke="#191970" points="565.4153,-427.836 574.5821,-422.5238 564.1034,-420.96 565.4153,-427.836"/>
</g>
<!-- Node37 -->
<g id="node38" class="node">
<title>Node37</title>
<g id="a_node38"><a xlink:href="../../df/de4/CompCluster_8h.html" target="_top" xlink:title="Definition of the ITSMFT compact cluster. ">
<polygon fill="none" stroke="#000000" points="779.5,-342 779.5,-361 967.5,-361 967.5,-342 779.5,-342"/>
<text text-anchor="middle" x="873.5" y="-349" font-family="Helvetica,sans-Serif" font-size="10.00" fill="#000000">DataFormatsITSMFT/CompCluster.h</text>
</a>
</g>
</g>
<!-- Node0&#45;&gt;Node37 -->
<g id="edge64" class="edge">
<title>Node0&#45;&gt;Node37</title>
<path fill="none" stroke="#191970" d="M323.0312,-482.7191C419.0291,-477.6252 585.6056,-463.2738 722.5,-423 769.2028,-409.2602 819.5713,-382.8039 848.7251,-366.2109"/>
<polygon fill="#191970" stroke="#191970" points="850.5005,-369.2274 857.4136,-361.1988 847.0026,-363.164 850.5005,-369.2274"/>
</g>
<!-- Node5 -->
<g id="node6" class="node">
<title>Node5</title>
<polygon fill="none" stroke="#bfbfbf" points="244,-56.5 244,-75.5 291,-75.5 291,-56.5 244,-56.5"/>
<text text-anchor="middle" x="267.5" y="-63.5" font-family="Helvetica,sans-Serif" font-size="10.00" fill="#000000">vector</text>
</g>
<!-- Node4&#45;&gt;Node5 -->
<g id="edge5" class="edge">
<title>Node4&#45;&gt;Node5</title>
<path fill="none" stroke="#191970" d="M277.862,-403.4128C235.6942,-388.248 158.8163,-354.7011 116.5,-300 97.8227,-275.8564 97.5,-264.5246 97.5,-234 97.5,-234 97.5,-234 97.5,-178 97.5,-145.3626 185.9798,-101.5242 235.2744,-79.6332"/>
<polygon fill="#191970" stroke="#191970" points="236.8193,-82.7775 244.573,-75.5574 234.0091,-76.3664 236.8193,-82.7775"/>
</g>
<!-- Node6 -->
<g id="node7" class="node">
<title>Node6</title>
<polygon fill="none" stroke="#bfbfbf" points="638,-224.5 638,-243.5 697,-243.5 697,-224.5 638,-224.5"/>
<text text-anchor="middle" x="667.5" y="-231.5" font-family="Helvetica,sans-Serif" font-size="10.00" fill="#000000">Rtypes.h</text>
</g>
<!-- Node4&#45;&gt;Node6 -->
<g id="edge6" class="edge">
<title>Node4&#45;&gt;Node6</title>
<path fill="none" stroke="#191970" d="M340.2876,-403.4382C365.1183,-395.4947 399.5995,-382.9315 427.5,-367 446.7282,-356.0205 447.8658,-347.9598 466.5,-336 523.3927,-299.4851 595.0337,-265.8027 635.6094,-247.7585"/>
<polygon fill="#191970" stroke="#191970" points="637.2505,-250.8601 644.9868,-243.6213 634.4249,-244.4557 637.2505,-250.8601"/>
</g>
<!-- Node7 -->
<g id="node8" class="node">
<title>Node7</title>
<g id="a_node8"><a xlink:href="../../da/d91/EncodedBlocks_8h.html" target="_top" xlink:title="DetectorsCommonDataFormats\l/EncodedBlocks.h">
<polygon fill="none" stroke="#000000" points="248,-336.5 248,-366.5 419,-366.5 419,-336.5 248,-336.5"/>
<text text-anchor="start" x="256" y="-354.5" font-family="Helvetica,sans-Serif" font-size="10.00" fill="#000000">DetectorsCommonDataFormats</text>
<text text-anchor="middle" x="333.5" y="-343.5" font-family="Helvetica,sans-Serif" font-size="10.00" fill="#000000">/EncodedBlocks.h</text>
</a>
</g>
</g>
<!-- Node4&#45;&gt;Node7 -->
<g id="edge7" class="edge">
<title>Node4&#45;&gt;Node7</title>
<path fill="none" stroke="#191970" d="M311.5625,-403.3906C314.6903,-395.9922 319.156,-385.4291 323.2428,-375.7623"/>
<polygon fill="#191970" stroke="#191970" points="326.4694,-377.1182 327.1397,-366.5446 320.0219,-374.3924 326.4694,-377.1182"/>
</g>
<!-- Node7&#45;&gt;Node3 -->
<g id="edge52" class="edge">
<title>Node7&#45;&gt;Node3</title>
<path fill="none" stroke="#191970" d="M296.8059,-336.4554C272.1073,-326.329 239.8326,-313.0964 216.0494,-303.3453"/>
<polygon fill="#191970" stroke="#191970" points="217.325,-300.0855 206.7447,-299.5303 214.6694,-306.5623 217.325,-300.0855"/>
</g>
<!-- Node7&#45;&gt;Node6 -->
<g id="edge9" class="edge">
<title>Node7&#45;&gt;Node6</title>
<path fill="none" stroke="#191970" d="M383.5829,-336.4625C414.1981,-326.876 453.9767,-313.7118 488.5,-300 508.0887,-292.2199 511.9323,-287.8327 531.5,-280 563.6503,-267.1306 600.9619,-254.681 628.3626,-245.9862"/>
<polygon fill="#191970" stroke="#191970" points="629.4933,-249.2997 637.9812,-242.9589 627.3917,-242.6225 629.4933,-249.2997"/>
</g>
<!-- Node8 -->
<g id="node9" class="node">
<title>Node8</title>
<polygon fill="none" stroke="#bfbfbf" points="0,-168.5 0,-187.5 69,-187.5 69,-168.5 0,-168.5"/>
<text text-anchor="middle" x="34.5" y="-175.5" font-family="Helvetica,sans-Serif" font-size="10.00" fill="#000000">type_traits</text>
</g>
<!-- Node7&#45;&gt;Node8 -->
<g id="edge8" class="edge">
<title>Node7&#45;&gt;Node8</title>
<path fill="none" stroke="#191970" d="M318.378,-336.4739C302.2693,-321.0053 275.5512,-296.8483 249.5,-280 189.8341,-241.4118 113.295,-208.6339 69.4867,-191.2768"/>
<polygon fill="#191970" stroke="#191970" points="70.7177,-188.0001 60.1301,-187.6074 68.162,-194.5168 70.7177,-188.0001"/>
</g>
<!-- Node9 -->
<g id="node10" class="node">
<title>Node9</title>
<g id="a_node10"><a xlink:href="../../d4/de7/rans_8h.html" target="_top" xlink:title="header for public api ">
<polygon fill="none" stroke="#000000" points="297.5,-280.5 297.5,-299.5 371.5,-299.5 371.5,-280.5 297.5,-280.5"/>
<text text-anchor="middle" x="334.5" y="-287.5" font-family="Helvetica,sans-Serif" font-size="10.00" fill="#000000">rANS/rans.h</text>
</a>
</g>
</g>
<!-- Node7&#45;&gt;Node9 -->
<g id="edge10" class="edge">
<title>Node7&#45;&gt;Node9</title>
<path fill="none" stroke="#191970" d="M333.7472,-336.2977C333.8759,-328.3834 334.0349,-318.6043 334.1736,-310.0759"/>
<polygon fill="#191970" stroke="#191970" points="337.6767,-309.9025 334.3399,-299.8469 330.6777,-309.7887 337.6767,-309.9025"/>
</g>
<!-- Node25 -->
<g id="node26" class="node">
<title>Node25</title>
<g id="a_node26"><a xlink:href="../../d4/d8f/StringUtils_8h.html" target="_top" xlink:title="CommonUtils/StringUtils.h">
<polygon fill="none" stroke="#000000" points="787.5,-168.5 787.5,-187.5 933.5,-187.5 933.5,-168.5 787.5,-168.5"/>
<text text-anchor="middle" x="860.5" y="-175.5" font-family="Helvetica,sans-Serif" font-size="10.00" fill="#000000">CommonUtils/StringUtils.h</text>
</a>
</g>
</g>
<!-- Node7&#45;&gt;Node25 -->
<g id="edge51" class="edge">
<title>Node7&#45;&gt;Node25</title>
<path fill="none" stroke="#191970" d="M346.9604,-336.4015C362.5268,-319.923 389.7239,-294.0221 418.5,-280 488.318,-245.9788 516.2975,-269.9499 589.5,-244 607.8602,-237.4914 610.1019,-230.4005 628.5,-224 676.5435,-207.2861 732.4167,-195.9765 777.2915,-188.7547"/>
<polygon fill="#191970" stroke="#191970" points="777.9409,-192.1957 787.2764,-187.1857 776.8542,-185.2805 777.9409,-192.1957"/>
</g>
<!-- Node29 -->
<g id="node30" class="node">
<title>Node29</title>
<polygon fill="none" stroke="#bfbfbf" points="427.5,-280.5 427.5,-299.5 479.5,-299.5 479.5,-280.5 427.5,-280.5"/>
<text text-anchor="middle" x="453.5" y="-287.5" font-family="Helvetica,sans-Serif" font-size="10.00" fill="#000000">TTree.h</text>
</g>
<!-- Node7&#45;&gt;Node29 -->
<g id="edge50" class="edge">
<title>Node7&#45;&gt;Node29</title>
<path fill="none" stroke="#191970" d="M362.8553,-336.4554C382.0873,-326.599 407.0612,-313.7999 425.9241,-304.1327"/>
<polygon fill="#191970" stroke="#191970" points="427.6013,-307.206 434.9043,-299.5303 424.4086,-300.9765 427.6013,-307.206"/>
</g>
<!-- Node10 -->
<g id="node11" class="node">
<title>Node10</title>
<g id="a_node11"><a xlink:href="../../d0/d51/SymbolStatistics_8h.html" target="_top" xlink:title="Structure to depict the distribution of symbols in the source message. ">
<polygon fill="none" stroke="#000000" points="295.5,-112.5 295.5,-131.5 429.5,-131.5 429.5,-112.5 295.5,-112.5"/>
<text text-anchor="middle" x="362.5" y="-119.5" font-family="Helvetica,sans-Serif" font-size="10.00" fill="#000000">rANS/SymbolStatistics.h</text>
</a>
</g>
</g>
<!-- Node9&#45;&gt;Node10 -->
<g id="edge11" class="edge">
<title>Node9&#45;&gt;Node10</title>
<path fill="none" stroke="#191970" d="M360.3505,-280.4954C394.6236,-266.3171 453.6622,-236.0311 478.5,-188 492.5944,-160.7445 461.0658,-144.0261 427.3438,-134.2366"/>
<polygon fill="#191970" stroke="#191970" points="427.9016,-130.762 417.3351,-131.5366 426.0784,-137.5204 427.9016,-130.762"/>
</g>
<!-- Node15 -->
<g id="node16" class="node">
<title>Node15</title>
<g id="a_node16"><a xlink:href="../../dd/d74/Utilities_2rANS_2include_2rANS_2Encoder_8h.html" target="_top" xlink:title="rANS/Encoder.h">
<polygon fill="none" stroke="#000000" points="490,-224.5 490,-243.5 581,-243.5 581,-224.5 490,-224.5"/>
<text text-anchor="middle" x="535.5" y="-231.5" font-family="Helvetica,sans-Serif" font-size="10.00" fill="#000000">rANS/Encoder.h</text>
</a>
</g>
</g>
<!-- Node9&#45;&gt;Node15 -->
<g id="edge17" class="edge">
<title>Node9&#45;&gt;Node15</title>
<path fill="none" stroke="#191970" d="M369.0531,-280.3733C402.9104,-270.9404 454.646,-256.5265 491.4426,-246.2747"/>
<polygon fill="#191970" stroke="#191970" points="492.704,-249.5566 501.3978,-243.5011 490.8253,-242.8135 492.704,-249.5566"/>
</g>
<!-- Node27 -->
<g id="node28" class="node">
<title>Node27</title>
<g id="a_node28"><a xlink:href="../../dc/d62/Utilities_2rANS_2include_2rANS_2Decoder_8h.html" target="_top" xlink:title="rANS/Decoder.h">
<polygon fill="none" stroke="#000000" points="243.5,-224.5 243.5,-243.5 335.5,-243.5 335.5,-224.5 243.5,-224.5"/>
<text text-anchor="middle" x="289.5" y="-231.5" font-family="Helvetica,sans-Serif" font-size="10.00" fill="#000000">rANS/Decoder.h</text>
</a>
</g>
</g>
<!-- Node9&#45;&gt;Node27 -->
<g id="edge39" class="edge">
<title>Node9&#45;&gt;Node27</title>
<path fill="none" stroke="#191970" d="M326.6616,-280.2455C320.338,-272.3761 311.2776,-261.101 303.6864,-251.6542"/>
<polygon fill="#191970" stroke="#191970" points="306.2408,-249.2454 297.2486,-243.6427 300.7842,-253.6302 306.2408,-249.2454"/>
</g>
<!-- Node10&#45;&gt;Node5 -->
<g id="edge16" class="edge">
<title>Node10&#45;&gt;Node5</title>
<path fill="none" stroke="#191970" d="M345.9523,-112.2455C331.2401,-103.5731 309.5112,-90.7645 292.6495,-80.825"/>
<polygon fill="#191970" stroke="#191970" points="294.2502,-77.7057 283.8581,-75.6427 290.6954,-83.736 294.2502,-77.7057"/>
</g>
<!-- Node11 -->
<g id="node12" class="node">
<title>Node11</title>
<polygon fill="none" stroke="#bfbfbf" points="436.5,-56.5 436.5,-75.5 500.5,-75.5 500.5,-56.5 436.5,-56.5"/>
<text text-anchor="middle" x="468.5" y="-63.5" font-family="Helvetica,sans-Serif" font-size="10.00" fill="#000000">algorithm</text>
</g>
<!-- Node10&#45;&gt;Node11 -->
<g id="edge12" class="edge">
<title>Node10&#45;&gt;Node11</title>
<path fill="none" stroke="#191970" d="M380.9638,-112.2455C397.6074,-103.4527 422.2993,-90.4079 441.2192,-80.4125"/>
<polygon fill="#191970" stroke="#191970" points="443.0408,-83.4086 450.2478,-75.6427 439.7709,-77.2193 443.0408,-83.4086"/>
</g>
<!-- Node12 -->
<g id="node13" class="node">
<title>Node12</title>
<polygon fill="none" stroke="#bfbfbf" points="528.5,-56.5 528.5,-75.5 580.5,-75.5 580.5,-56.5 528.5,-56.5"/>
<text text-anchor="middle" x="554.5" y="-63.5" font-family="Helvetica,sans-Serif" font-size="10.00" fill="#000000">cassert</text>
</g>
<!-- Node10&#45;&gt;Node12 -->
<g id="edge13" class="edge">
<title>Node10&#45;&gt;Node12</title>
<path fill="none" stroke="#191970" d="M395.506,-112.3733C429.7584,-102.383 483.1664,-86.8056 518.4904,-76.5028"/>
<polygon fill="#191970" stroke="#191970" points="519.7667,-79.7765 528.3867,-73.6164 517.8066,-73.0565 519.7667,-79.7765"/>
</g>
<!-- Node13 -->
<g id="node14" class="node">
<title>Node13</title>
<polygon fill="none" stroke="#bfbfbf" points="164.5,-56.5 164.5,-75.5 224.5,-75.5 224.5,-56.5 164.5,-56.5"/>
<text text-anchor="middle" x="194.5" y="-63.5" font-family="Helvetica,sans-Serif" font-size="10.00" fill="#000000">iostream</text>
</g>
<!-- Node10&#45;&gt;Node13 -->
<g id="edge14" class="edge">
<title>Node10&#45;&gt;Node13</title>
<path fill="none" stroke="#191970" d="M333.6198,-112.3733C305.6839,-103.0613 263.1858,-88.8953 232.5131,-78.671"/>
<polygon fill="#191970" stroke="#191970" points="233.597,-75.3431 223.0034,-75.5011 231.3834,-81.9839 233.597,-75.3431"/>
</g>
<!-- Node14 -->
<g id="node15" class="node">
<title>Node14</title>
<polygon fill="none" stroke="#bfbfbf" points="334.5,-56.5 334.5,-75.5 390.5,-75.5 390.5,-56.5 334.5,-56.5"/>
<text text-anchor="middle" x="362.5" y="-63.5" font-family="Helvetica,sans-Serif" font-size="10.00" fill="#000000">numeric</text>
</g>
<!-- Node10&#45;&gt;Node14 -->
<g id="edge15" class="edge">
<title>Node10&#45;&gt;Node14</title>
<path fill="none" stroke="#191970" d="M362.5,-112.2455C362.5,-104.9382 362.5,-94.6944 362.5,-85.7046"/>
<polygon fill="#191970" stroke="#191970" points="366.0001,-85.6426 362.5,-75.6427 359.0001,-85.6427 366.0001,-85.6426"/>
</g>
<!-- Node15&#45;&gt;Node11 -->
<g id="edge19" class="edge">
<title>Node15&#45;&gt;Node11</title>
<path fill="none" stroke="#191970" d="M531.7058,-224.4862C521.023,-197.6994 490.5368,-121.2565 476.1687,-85.2289"/>
<polygon fill="#191970" stroke="#191970" points="479.3749,-83.8199 472.4195,-75.8279 472.8729,-86.413 479.3749,-83.8199"/>
</g>
<!-- Node16 -->
<g id="node17" class="node">
<title>Node16</title>
<polygon fill="none" stroke="#bfbfbf" points="711.5,-168.5 711.5,-187.5 769.5,-187.5 769.5,-168.5 711.5,-168.5"/>
<text text-anchor="middle" x="740.5" y="-175.5" font-family="Helvetica,sans-Serif" font-size="10.00" fill="#000000">memory</text>
</g>
<!-- Node15&#45;&gt;Node16 -->
<g id="edge18" class="edge">
<title>Node15&#45;&gt;Node16</title>
<path fill="none" stroke="#191970" d="M570.7408,-224.3733C607.0507,-214.4544 663.5217,-199.0282 701.2399,-188.7247"/>
<polygon fill="#191970" stroke="#191970" points="702.6245,-191.9748 711.3488,-185.9633 700.7799,-185.2222 702.6245,-191.9748"/>
</g>
<!-- Node17 -->
<g id="node18" class="node">
<title>Node17</title>
<g id="a_node18"><a xlink:href="../../d8/dd9/SymbolTable_8h.html" target="_top" xlink:title="Container for information needed to encode/decode a symbol of the alphabet. ">
<polygon fill="none" stroke="#000000" points="201.5,-168.5 201.5,-187.5 289.5,-187.5 289.5,-168.5 201.5,-168.5"/>
<text text-anchor="middle" x="245.5" y="-175.5" font-family="Helvetica,sans-Serif" font-size="10.00" fill="#000000">SymbolTable.h</text>
</a>
</g>
</g>
<!-- Node15&#45;&gt;Node17 -->
<g id="edge20" class="edge">
<title>Node15&#45;&gt;Node17</title>
<path fill="none" stroke="#191970" d="M489.8685,-225.1884C438.363,-215.2425 354.6275,-199.0729 299.8008,-188.4857"/>
<polygon fill="#191970" stroke="#191970" points="300.3964,-185.0361 289.9142,-186.5765 299.0691,-191.9091 300.3964,-185.0361"/>
</g>
<!-- Node18 -->
<g id="node19" class="node">
<title>Node18</title>
<g id="a_node19"><a xlink:href="../../d2/d53/EncoderSymbol_8h.html" target="_top" xlink:title="Structure containing all relevant information to encode a symbol. ">
<polygon fill="none" stroke="#000000" points="638,-112.5 638,-131.5 739,-131.5 739,-112.5 638,-112.5"/>
<text text-anchor="middle" x="688.5" y="-119.5" font-family="Helvetica,sans-Serif" font-size="10.00" fill="#000000">EncoderSymbol.h</text>
</a>
</g>
</g>
<!-- Node15&#45;&gt;Node18 -->
<g id="edge23" class="edge">
<title>Node15&#45;&gt;Node18</title>
<path fill="none" stroke="#191970" d="M559.3062,-224.468C578.2132,-216.2956 604.8188,-203.4165 625.5,-188 644.2209,-174.0448 662.2704,-154.2781 674.2147,-140.0194"/>
<polygon fill="#191970" stroke="#191970" points="677.1901,-141.91 680.8142,-131.9543 671.7726,-137.477 677.1901,-141.91"/>
</g>
<!-- Node23 -->
<g id="node24" class="node">
<title>Node23</title>
<g id="a_node24"><a xlink:href="../../d5/d7a/Coder_8h.html" target="_top" xlink:title="Stateless class for coding and decoding symbols using rANS. ">
<polygon fill="none" stroke="#000000" points="564,-168.5 564,-187.5 617,-187.5 617,-168.5 564,-168.5"/>
<text text-anchor="middle" x="590.5" y="-175.5" font-family="Helvetica,sans-Serif" font-size="10.00" fill="#000000">Coder.h</text>
</a>
</g>
</g>
<!-- Node15&#45;&gt;Node23 -->
<g id="edge29" class="edge">
<title>Node15&#45;&gt;Node23</title>
<path fill="none" stroke="#191970" d="M545.0803,-224.2455C553.0458,-216.1352 564.5641,-204.4075 574.0079,-194.7919"/>
<polygon fill="#191970" stroke="#191970" points="576.5195,-197.2297 581.0295,-187.6427 571.5253,-192.3247 576.5195,-197.2297"/>
</g>
<!-- Node15&#45;&gt;Node25 -->
<g id="edge37" class="edge">
<title>Node15&#45;&gt;Node25</title>
<path fill="none" stroke="#191970" d="M581.0321,-226.1545C636.8322,-216.5397 731.7767,-200.18 795.3081,-189.2331"/>
<polygon fill="#191970" stroke="#191970" points="795.9636,-192.6718 805.224,-187.5245 794.7749,-185.7734 795.9636,-192.6718"/>
</g>
<!-- Node17&#45;&gt;Node5 -->
<g id="edge21" class="edge">
<title>Node17&#45;&gt;Node5</title>
<path fill="none" stroke="#191970" d="M246.1598,-168.0716C247.1469,-155.0789 249.3521,-131.6504 253.5,-112 255.3701,-103.1405 258.1689,-93.5304 260.7735,-85.3963"/>
<polygon fill="#191970" stroke="#191970" points="264.1501,-86.3344 263.9914,-75.7408 257.5092,-84.1212 264.1501,-86.3344"/>
</g>
<!-- Node17&#45;&gt;Node10 -->
<g id="edge22" class="edge">
<title>Node17&#45;&gt;Node10</title>
<path fill="none" stroke="#191970" d="M265.613,-168.3733C284.3103,-159.4241 312.3744,-145.9917 333.4934,-135.8835"/>
<polygon fill="#191970" stroke="#191970" points="335.1405,-138.9755 342.6494,-131.5011 332.1183,-132.6614 335.1405,-138.9755"/>
</g>
<!-- Node18&#45;&gt;Node12 -->
<g id="edge25" class="edge">
<title>Node18&#45;&gt;Node12</title>
<path fill="none" stroke="#191970" d="M665.4646,-112.3733C643.7612,-103.3032 611.0382,-89.6279 586.745,-79.4755"/>
<polygon fill="#191970" stroke="#191970" points="587.8111,-76.1278 577.2348,-75.5011 585.1119,-82.5865 587.8111,-76.1278"/>
</g>
<!-- Node19 -->
<g id="node20" class="node">
<title>Node19</title>
<polygon fill="none" stroke="#bfbfbf" points="782.5,-56.5 782.5,-75.5 832.5,-75.5 832.5,-56.5 782.5,-56.5"/>
<text text-anchor="middle" x="807.5" y="-63.5" font-family="Helvetica,sans-Serif" font-size="10.00" fill="#000000">cstdint</text>
</g>
<!-- Node18&#45;&gt;Node19 -->
<g id="edge24" class="edge">
<title>Node18&#45;&gt;Node19</title>
<path fill="none" stroke="#191970" d="M708.9568,-112.3733C727.9738,-103.4241 756.5175,-89.9917 777.9976,-79.8835"/>
<polygon fill="#191970" stroke="#191970" points="779.7522,-82.926 787.3101,-75.5011 776.7716,-76.5923 779.7522,-82.926"/>
</g>
<!-- Node20 -->
<g id="node21" class="node">
<title>Node20</title>
<g id="a_node21"><a xlink:href="../../d4/da1/helper_8h.html" target="_top" xlink:title="various helper functions ">
<polygon fill="none" stroke="#000000" points="598.5,-56.5 598.5,-75.5 654.5,-75.5 654.5,-56.5 598.5,-56.5"/>
<text text-anchor="middle" x="626.5" y="-63.5" font-family="Helvetica,sans-Serif" font-size="10.00" fill="#000000">helper.h</text>
</a>
</g>
</g>
<!-- Node18&#45;&gt;Node20 -->
<g id="edge26" class="edge">
<title>Node18&#45;&gt;Node20</title>
<path fill="none" stroke="#191970" d="M677.7004,-112.2455C668.6322,-104.0549 655.4794,-92.1749 644.7755,-82.5069"/>
<polygon fill="#191970" stroke="#191970" points="646.9429,-79.7482 637.1758,-75.6427 642.2509,-84.9429 646.9429,-79.7482"/>
</g>
<!-- Node21 -->
<g id="node22" class="node">
<title>Node21</title>
<polygon fill="none" stroke="#bfbfbf" points="313,-.5 313,-19.5 366,-19.5 366,-.5 313,-.5"/>
<text text-anchor="middle" x="339.5" y="-7.5" font-family="Helvetica,sans-Serif" font-size="10.00" fill="#000000">cstddef</text>
</g>
<!-- Node20&#45;&gt;Node21 -->
<g id="edge27" class="edge">
<title>Node20&#45;&gt;Node21</title>
<path fill="none" stroke="#191970" d="M598.2778,-58.1166C595.3221,-57.3677 592.3553,-56.6474 589.5,-56 514.3184,-38.9538 425.336,-23.7528 376.3919,-15.8156"/>
<polygon fill="#191970" stroke="#191970" points="376.7154,-12.3227 366.286,-14.1879 375.6022,-19.2336 376.7154,-12.3227"/>
</g>
<!-- Node22 -->
<g id="node23" class="node">
<title>Node22</title>
<polygon fill="none" stroke="#bfbfbf" points="853,-.5 853,-19.5 900,-19.5 900,-.5 853,-.5"/>
<text text-anchor="middle" x="876.5" y="-7.5" font-family="Helvetica,sans-Serif" font-size="10.00" fill="#000000">cmath</text>
</g>
<!-- Node20&#45;&gt;Node22 -->
<g id="edge28" class="edge">
<title>Node20&#45;&gt;Node22</title>
<path fill="none" stroke="#191970" d="M654.6922,-59.6849C701.068,-49.2968 793.2508,-28.6478 842.9249,-17.5208"/>
<polygon fill="#191970" stroke="#191970" points="843.8547,-20.8994 852.8478,-15.2981 842.3245,-14.0686 843.8547,-20.8994"/>
</g>
<!-- Node23&#45;&gt;Node5 -->
<g id="edge30" class="edge">
<title>Node23&#45;&gt;Node5</title>
<path fill="none" stroke="#191970" d="M570.7124,-168.2901C542.0579,-154.4882 487.1136,-128.9897 438.5,-112 391.6845,-95.6387 335.9712,-81.632 301.1621,-73.509"/>
<polygon fill="#191970" stroke="#191970" points="301.5941,-70.0168 291.0634,-71.1808 300.0215,-76.8379 301.5941,-70.0168"/>
</g>
<!-- Node23&#45;&gt;Node12 -->
<g id="edge32" class="edge">
<title>Node23&#45;&gt;Node12</title>
<path fill="none" stroke="#191970" d="M587.4307,-168.4509C581.5326,-150.1013 568.5113,-109.5908 560.7259,-85.3693"/>
<polygon fill="#191970" stroke="#191970" points="563.9538,-83.9741 557.5616,-75.5249 557.2896,-86.1162 563.9538,-83.9741"/>
</g>
<!-- Node23&#45;&gt;Node18 -->
<g id="edge35" class="edge">
<title>Node23&#45;&gt;Node18</title>
<path fill="none" stroke="#191970" d="M607.5703,-168.2455C622.747,-159.5731 645.1621,-146.7645 662.5563,-136.825"/>
<polygon fill="#191970" stroke="#191970" points="664.6794,-139.643 671.6253,-131.6427 661.2064,-133.5653 664.6794,-139.643"/>
</g>
<!-- Node23&#45;&gt;Node19 -->
<g id="edge31" class="edge">
<title>Node23&#45;&gt;Node19</title>
<path fill="none" stroke="#191970" d="M617.026,-174.7169C649.7771,-169.6985 706.2036,-157.8332 747.5,-132 767.2869,-119.6222 784.5722,-98.9421 795.4429,-84.0261"/>
<polygon fill="#191970" stroke="#191970" points="798.4697,-85.8059 801.3476,-75.6093 792.7392,-81.7857 798.4697,-85.8059"/>
</g>
<!-- Node23&#45;&gt;Node20 -->
<g id="edge36" class="edge">
<title>Node23&#45;&gt;Node20</title>
<path fill="none" stroke="#191970" d="M593.5693,-168.4509C599.4674,-150.1013 612.4887,-109.5908 620.2741,-85.3693"/>
<polygon fill="#191970" stroke="#191970" points="623.7104,-86.1162 623.4384,-75.5249 617.0462,-83.9741 623.7104,-86.1162"/>
</g>
<!-- Node24 -->
<g id="node25" class="node">
<title>Node24</title>
<g id="a_node25"><a xlink:href="../../d7/d99/DecoderSymbol_8h.html" target="_top" xlink:title="Structure containing all relevant information for decoding a rANS encoded symbol. ...">
<polygon fill="none" stroke="#000000" points="796,-112.5 796,-131.5 899,-131.5 899,-112.5 796,-112.5"/>
<text text-anchor="middle" x="847.5" y="-119.5" font-family="Helvetica,sans-Serif" font-size="10.00" fill="#000000">DecoderSymbol.h</text>
</a>
</g>
</g>
<!-- Node23&#45;&gt;Node24 -->
<g id="edge33" class="edge">
<title>Node23&#45;&gt;Node24</title>
<path fill="none" stroke="#191970" d="M617.0355,-172.2179C658.4817,-163.1869 739.4254,-145.5493 793.4928,-133.7681"/>
<polygon fill="#191970" stroke="#191970" points="794.5684,-137.116 803.5939,-131.5671 793.078,-130.2764 794.5684,-137.116"/>
</g>
<!-- Node24&#45;&gt;Node19 -->
<g id="edge34" class="edge">
<title>Node24&#45;&gt;Node19</title>
<path fill="none" stroke="#191970" d="M840.5325,-112.2455C834.9689,-104.4564 827.022,-93.3308 820.3171,-83.9439"/>
<polygon fill="#191970" stroke="#191970" points="823.0481,-81.7457 814.3876,-75.6427 817.352,-85.8144 823.0481,-81.7457"/>
</g>
<!-- Node26 -->
<g id="node27" class="node">
<title>Node26</title>
<polygon fill="none" stroke="#bfbfbf" points="917.5,-112.5 917.5,-131.5 973.5,-131.5 973.5,-112.5 917.5,-112.5"/>
<text text-anchor="middle" x="945.5" y="-119.5" font-family="Helvetica,sans-Serif" font-size="10.00" fill="#000000">sstream</text>
</g>
<!-- Node25&#45;&gt;Node26 -->
<g id="edge38" class="edge">
<title>Node25&#45;&gt;Node26</title>
<path fill="none" stroke="#191970" d="M875.3059,-168.2455C888.2256,-159.7337 907.1931,-147.2375 922.1552,-137.3801"/>
<polygon fill="#191970" stroke="#191970" points="924.4387,-140.067 930.8638,-131.6427 920.5876,-134.2216 924.4387,-140.067"/>
</g>
<!-- Node27&#45;&gt;Node8 -->
<g id="edge41" class="edge">
<title>Node27&#45;&gt;Node8</title>
<path fill="none" stroke="#191970" d="M245.9537,-224.4369C199.4377,-214.2216 126.0843,-198.1126 79.1493,-187.8053"/>
<polygon fill="#191970" stroke="#191970" points="79.7834,-184.3613 69.2654,-185.6348 78.2819,-191.1983 79.7834,-184.3613"/>
</g>
<!-- Node27&#45;&gt;Node13 -->
<g id="edge42" class="edge">
<title>Node27&#45;&gt;Node13</title>
<path fill="none" stroke="#191970" d="M245.3252,-224.428C225.6017,-217.7169 204.2067,-206.508 192.5,-188 172.6833,-156.6703 180.8943,-111.1635 188.0743,-85.5028"/>
<polygon fill="#191970" stroke="#191970" points="191.4581,-86.4046 191.0036,-75.8196 184.7579,-84.3777 191.4581,-86.4046"/>
</g>
<!-- Node27&#45;&gt;Node17 -->
<g id="edge43" class="edge">
<title>Node27&#45;&gt;Node17</title>
<path fill="none" stroke="#191970" d="M281.8358,-224.2455C275.6527,-216.3761 266.7937,-205.101 259.3711,-195.6542"/>
<polygon fill="#191970" stroke="#191970" points="262.0068,-193.3435 253.0764,-187.6427 256.5025,-197.6683 262.0068,-193.3435"/>
</g>
<!-- Node27&#45;&gt;Node21 -->
<g id="edge40" class="edge">
<title>Node27&#45;&gt;Node21</title>
<path fill="none" stroke="#191970" d="M243.2698,-224.8677C221.2315,-218.2124 196.2941,-206.9223 180.5,-188 142.2384,-142.1603 118.754,-103.0634 155.5,-56 173.4349,-33.0295 254.539,-19.8321 302.8806,-13.8749"/>
<polygon fill="#191970" stroke="#191970" points="303.4369,-17.3335 312.9548,-12.6795 302.612,-10.3823 303.4369,-17.3335"/>
</g>
<!-- Node27&#45;&gt;Node23 -->
<g id="edge49" class="edge">
<title>Node27&#45;&gt;Node23</title>
<path fill="none" stroke="#191970" d="M335.5431,-225.4338C395.4176,-214.2944 498.817,-195.0573 553.7369,-184.8396"/>
<polygon fill="#191970" stroke="#191970" points="554.5357,-188.2512 563.7268,-182.9811 553.2553,-181.3693 554.5357,-188.2512"/>
</g>
<!-- Node27&#45;&gt;Node24 -->
<g id="edge44" class="edge">
<title>Node27&#45;&gt;Node24</title>
<path fill="none" stroke="#191970" d="M335.5382,-229.9474C400.6307,-223.7093 523.0558,-210.1049 625.5,-188 660.4662,-180.4551 754.0663,-151.5163 807.9059,-134.5666"/>
<polygon fill="#191970" stroke="#191970" points="808.9891,-137.895 817.4732,-131.5491 806.8835,-131.2192 808.9891,-137.895"/>
</g>
<!-- Node28 -->
<g id="node29" class="node">
<title>Node28</title>
<g id="a_node29"><a xlink:href="../../dc/d3b/ReverseSymbolLookupTable_8h.html" target="_top" xlink:title="Maps CDF back to source symbol &#45; needed for the decoder. ">
<polygon fill="none" stroke="#000000" points="307.5,-168.5 307.5,-187.5 469.5,-187.5 469.5,-168.5 307.5,-168.5"/>
<text text-anchor="middle" x="388.5" y="-175.5" font-family="Helvetica,sans-Serif" font-size="10.00" fill="#000000">ReverseSymbolLookupTable.h</text>
</a>
</g>
</g>
<!-- Node27&#45;&gt;Node28 -->
<g id="edge45" class="edge">
<title>Node27&#45;&gt;Node28</title>
<path fill="none" stroke="#191970" d="M306.7445,-224.2455C322.0761,-215.5731 344.7199,-202.7645 362.2916,-192.825"/>
<polygon fill="#191970" stroke="#191970" points="364.4724,-195.6126 371.4531,-187.6427 361.0259,-189.5198 364.4724,-195.6126"/>
</g>
<!-- Node28&#45;&gt;Node5 -->
<g id="edge46" class="edge">
<title>Node28&#45;&gt;Node5</title>
<path fill="none" stroke="#191970" d="M347.6877,-168.4459C326.6931,-161.5705 302.2691,-150.209 286.5,-132 275.4133,-119.198 270.7802,-100.2856 268.8522,-85.9837"/>
<polygon fill="#191970" stroke="#191970" points="272.3016,-85.3048 267.8144,-75.7071 265.337,-86.0082 272.3016,-85.3048"/>
</g>
<!-- Node28&#45;&gt;Node10 -->
<g id="edge47" class="edge">
<title>Node28&#45;&gt;Node10</title>
<path fill="none" stroke="#191970" d="M383.9711,-168.2455C380.4666,-160.6973 375.5073,-150.0158 371.2377,-140.8197"/>
<polygon fill="#191970" stroke="#191970" points="374.3627,-139.2389 366.977,-131.6427 368.0136,-142.1867 374.3627,-139.2389"/>
</g>
<!-- Node28&#45;&gt;Node20 -->
<g id="edge48" class="edge">
<title>Node28&#45;&gt;Node20</title>
<path fill="none" stroke="#191970" d="M408.7917,-168.4509C450.9463,-148.6135 548.1388,-102.8758 597.1338,-79.8194"/>
<polygon fill="#191970" stroke="#191970" points="598.7017,-82.9498 606.2596,-75.5249 595.7211,-76.616 598.7017,-82.9498"/>
</g>
<!-- Node31 -->
<g id="node32" class="node">
<title>Node31</title>
<g id="a_node32"><a xlink:href="../../de/d64/RangeReference_8h.html" target="_top" xlink:title="Class to refer to the 1st entry and N elements of some group in the continuous container. ">
<polygon fill="none" stroke="#000000" points="475.5,-342 475.5,-361 685.5,-361 685.5,-342 475.5,-342"/>
<text text-anchor="middle" x="580.5" y="-349" font-family="Helvetica,sans-Serif" font-size="10.00" fill="#000000">CommonDataFormat/RangeReference.h</text>
</a>
</g>
</g>
<!-- Node30&#45;&gt;Node31 -->
<g id="edge54" class="edge">
<title>Node30&#45;&gt;Node31</title>
<path fill="none" stroke="#191970" d="M617.625,-403.3906C611.1407,-394.3273 601.2586,-380.5149 593.3199,-369.4188"/>
<polygon fill="#191970" stroke="#191970" points="596.1371,-367.3412 587.4719,-361.2449 590.4441,-371.4143 596.1371,-367.3412"/>
</g>
<!-- Node33 -->
<g id="node34" class="node">
<title>Node33</title>
<g id="a_node34"><a xlink:href="../../d9/d80/InteractionRecord_8h.html" target="_top" xlink:title="CommonDataFormat/Interaction\lRecord.h">
<polygon fill="none" stroke="#000000" points="985.5,-336.5 985.5,-366.5 1159.5,-366.5 1159.5,-336.5 985.5,-336.5"/>
<text text-anchor="start" x="993.5" y="-354.5" font-family="Helvetica,sans-Serif" font-size="10.00" fill="#000000">CommonDataFormat/Interaction</text>
<text text-anchor="middle" x="1072.5" y="-343.5" font-family="Helvetica,sans-Serif" font-size="10.00" fill="#000000">Record.h</text>
</a>
</g>
</g>
<!-- Node30&#45;&gt;Node33 -->
<g id="edge57" class="edge">
<title>Node30&#45;&gt;Node33</title>
<path fill="none" stroke="#191970" d="M702.5373,-403.4865C771.6281,-394.9062 875.4775,-381.6269 975.4263,-367.1328"/>
<polygon fill="#191970" stroke="#191970" points="976.0054,-370.5855 985.3967,-365.6809 974.9967,-363.6585 976.0054,-370.5855"/>
</g>
<!-- Node36 -->
<g id="node37" class="node">
<title>Node36</title>
<polygon fill="none" stroke="#bfbfbf" points="704,-342 704,-361 761,-361 761,-342 704,-342"/>
<text text-anchor="middle" x="732.5" y="-349" font-family="Helvetica,sans-Serif" font-size="10.00" fill="#000000">gsl/span</text>
</g>
<!-- Node30&#45;&gt;Node36 -->
<g id="edge63" class="edge">
<title>Node30&#45;&gt;Node36</title>
<path fill="none" stroke="#191970" d="M641.375,-403.3906C658.9698,-393.3713 686.7566,-377.5483 707.0241,-366.0071"/>
<polygon fill="#191970" stroke="#191970" points="708.7856,-369.0318 715.7435,-361.0419 705.3217,-362.9489 708.7856,-369.0318"/>
</g>
<!-- Node32 -->
<g id="node33" class="node">
<title>Node32</title>
<g id="a_node33"><a xlink:href="../../d2/d45/GPUCommonRtypes_8h.html" target="_top" xlink:title="GPUCommonRtypes.h">
<polygon fill="none" stroke="#000000" points="605,-280.5 605,-299.5 730,-299.5 730,-280.5 605,-280.5"/>
<text text-anchor="middle" x="667.5" y="-287.5" font-family="Helvetica,sans-Serif" font-size="10.00" fill="#000000">GPUCommonRtypes.h</text>
</a>
</g>
</g>
<!-- Node31&#45;&gt;Node32 -->
<g id="edge55" class="edge">
<title>Node31&#45;&gt;Node32</title>
<path fill="none" stroke="#191970" d="M594.0938,-341.8906C607.8843,-332.1421 629.4472,-316.8994 645.641,-305.4521"/>
<polygon fill="#191970" stroke="#191970" points="647.8563,-308.1723 654.0017,-299.5419 643.8156,-302.4563 647.8563,-308.1723"/>
</g>
<!-- Node32&#45;&gt;Node6 -->
<g id="edge56" class="edge">
<title>Node32&#45;&gt;Node6</title>
<path fill="none" stroke="#191970" d="M667.5,-280.2455C667.5,-272.9382 667.5,-262.6944 667.5,-253.7046"/>
<polygon fill="#191970" stroke="#191970" points="671.0001,-253.6426 667.5,-243.6427 664.0001,-253.6427 671.0001,-253.6426"/>
</g>
<!-- Node33&#45;&gt;Node19 -->
<g id="edge61" class="edge">
<title>Node33&#45;&gt;Node19</title>
<path fill="none" stroke="#191970" d="M1072.5,-336.2899C1072.5,-313.892 1072.5,-270.7188 1072.5,-234 1072.5,-234 1072.5,-234 1072.5,-178 1072.5,-128.3971 1027.2743,-133.3473 982.5,-112 936.69,-90.159 879.0056,-77.565 842.6774,-71.2451"/>
<polygon fill="#191970" stroke="#191970" points="843.0161,-67.7532 832.5755,-69.5541 841.8604,-74.6571 843.0161,-67.7532"/>
</g>
<!-- Node33&#45;&gt;Node22 -->
<g id="edge60" class="edge">
<title>Node33&#45;&gt;Node22</title>
<path fill="none" stroke="#191970" d="M1080.7454,-336.42C1091.9215,-314.5326 1110.5,-272.3768 1110.5,-234 1110.5,-234 1110.5,-234 1110.5,-122 1110.5,-78.0728 974.6398,-36.061 909.9624,-18.5497"/>
<polygon fill="#191970" stroke="#191970" points="910.7891,-15.1479 900.2249,-15.9531 908.9854,-21.9116 910.7891,-15.1479"/>
</g>
<!-- Node33&#45;&gt;Node32 -->
<g id="edge58" class="edge">
<title>Node33&#45;&gt;Node32</title>
<path fill="none" stroke="#191970" d="M985.3865,-337.3869C982.3885,-336.9165 979.4195,-336.453 976.5,-336 895.7767,-323.4752 803.0802,-309.7655 740.4412,-300.6004"/>
<polygon fill="#191970" stroke="#191970" points="740.6677,-297.0964 730.2665,-299.113 739.6551,-304.0228 740.6677,-297.0964"/>
</g>
<!-- Node34 -->
<g id="node35" class="node">
<title>Node34</title>
<polygon fill="none" stroke="#bfbfbf" points="787,-280.5 787,-299.5 836,-299.5 836,-280.5 787,-280.5"/>
<text text-anchor="middle" x="811.5" y="-287.5" font-family="Helvetica,sans-Serif" font-size="10.00" fill="#000000">iosfwd</text>
</g>
<!-- Node33&#45;&gt;Node34 -->
<g id="edge59" class="edge">
<title>Node33&#45;&gt;Node34</title>
<path fill="none" stroke="#191970" d="M1000.9086,-336.467C958.5365,-327.2873 903.6176,-314.9026 846.3017,-300.0939"/>
<polygon fill="#191970" stroke="#191970" points="846.8913,-296.6309 836.3322,-297.4996 845.1284,-303.4052 846.8913,-296.6309"/>
</g>
<!-- Node35 -->
<g id="node36" class="node">
<title>Node35</title>
<g id="a_node36"><a xlink:href="../../d4/dc6/LHCConstants_8h.html" target="_top" xlink:title="Header to collect LHC related constants. ">
<polygon fill="none" stroke="#000000" points="854.5,-280.5 854.5,-299.5 1044.5,-299.5 1044.5,-280.5 854.5,-280.5"/>
<text text-anchor="middle" x="949.5" y="-287.5" font-family="Helvetica,sans-Serif" font-size="10.00" fill="#000000">CommonConstants/LHCConstants.h</text>
</a>
</g>
</g>
<!-- Node33&#45;&gt;Node35 -->
<g id="edge62" class="edge">
<title>Node33&#45;&gt;Node35</title>
<path fill="none" stroke="#191970" d="M1042.4108,-336.4554C1022.6981,-326.599 997.0998,-313.7999 977.7653,-304.1327"/>
<polygon fill="#191970" stroke="#191970" points="979.0702,-300.872 968.5606,-299.5303 975.9397,-307.133 979.0702,-300.872"/>
</g>
<!-- Node37&#45;&gt;Node6 -->
<g id="edge65" class="edge">
<title>Node37&#45;&gt;Node6</title>
<path fill="none" stroke="#191970" d="M854.9523,-341.8877C835.5103,-331.7333 804.1444,-315.1286 777.5,-300 747.675,-283.0655 713.9267,-262.6214 691.7683,-249.0184"/>
<polygon fill="#191970" stroke="#191970" points="693.3774,-245.899 683.0267,-243.6376 689.708,-251.8602 693.3774,-245.899"/>
</g>
</g>
</svg>
        <g id="navigator" transform="translate(0 0)" fill="#404254">
                <rect fill="#f2f5e9" fill-opacity="0.5" stroke="#606060" stroke-width=".5" x="0" y="0" width="60" height="60"/>
                <use id="zoomplus" xlink:href="#zoomPlus" x="17" y="9" onmousedown="handleZoom(evt,'in')"/>
                <use id="zoomminus" xlink:href="#zoomMin" x="42" y="9" onmousedown="handleZoom(evt,'out')"/>
                <use id="reset" xlink:href="#resetDef" x="30" y="36" onmousedown="handleReset()"/>
                <g id="arrowUp" xlink:href="#dirArrow" transform="translate(30 24)" onmousedown="handlePan(0,-1)">
                  <use xlink:href="#rim" fill="#404040">
                        <set attributeName="fill" to="#808080" begin="arrowUp.mouseover" end="arrowUp.mouseout"/>
                  </use>
                  <path fill="none" stroke="white" stroke-width="1.5" d="M0,-3.0v7 M-2.5,-0.5L0,-3.0L2.5,-0.5"/>
                </g>
                <g id="arrowRight" xlink:href="#dirArrow" transform="rotate(90) translate(36 -43)" onmousedown="handlePan(1,0)">
                  <use xlink:href="#rim" fill="#404040">
                        <set attributeName="fill" to="#808080" begin="arrowRight.mouseover" end="arrowRight.mouseout"/>
                  </use>
                  <path fill="none" stroke="white" stroke-width="1.5" d="M0,-3.0v7 M-2.5,-0.5L0,-3.0L2.5,-0.5"/>
                </g>
                <g id="arrowDown" xlink:href="#dirArrow" transform="rotate(180) translate(-30 -48)" onmousedown="handlePan(0,1)">
                  <use xlink:href="#rim" fill="#404040">
                        <set attributeName="fill" to="#808080" begin="arrowDown.mouseover" end="arrowDown.mouseout"/>
                  </use>
                  <path fill="none" stroke="white" stroke-width="1.5" d="M0,-3.0v7 M-2.5,-0.5L0,-3.0L2.5,-0.5"/>
                </g>
                <g id="arrowLeft" xlink:href="#dirArrow" transform="rotate(270) translate(-36 17)" onmousedown="handlePan(-1,0)">
                  <use xlink:href="#rim" fill="#404040">
                        <set attributeName="fill" to="#808080" begin="arrowLeft.mouseover" end="arrowLeft.mouseout"/>
                  </use>
                  <path fill="none" stroke="white" stroke-width="1.5" d="M0,-3.0v7 M-2.5,-0.5L0,-3.0L2.5,-0.5"/>
                </g>
        </g>
        <svg viewBox="0 0 15 15" width="100%" height="30px" preserveAspectRatio="xMaxYMin meet">
         <g id="arrow_out" transform="scale(0.3 0.3)">
          <a xlink:href="CTF_8cxx__incl_org.svg" target="_base">
           <rect id="button" ry="5" rx="5" y="6" x="6" height="38" width="38"
                fill="#f2f5e9" fill-opacity="0.5" stroke="#606060" stroke-width="1.0"/>
           <path id="arrow"
             d="M 11.500037,31.436501 C 11.940474,20.09759 22.043105,11.32322 32.158766,21.979434 L 37.068811,17.246167 C 37.068811,17.246167 37.088388,32 37.088388,32 L 22.160133,31.978069 C 22.160133,31.978069 26.997745,27.140456 26.997745,27.140456 C 18.528582,18.264221 13.291696,25.230495 11.500037,31.436501 z"
             style="fill:#404040;"/>
          </a>
         </g>
        </svg>
</svg>
