<?xml version="1.0" encoding="UTF-8" standalone="no"?>
<!DOCTYPE svg PUBLIC "-//W3C//DTD SVG 1.1//EN"
 "http://www.w3.org/Graphics/SVG/1.1/DTD/svg11.dtd">
<!-- Generated by graphviz version 2.40.1 (20161225.0304)
 -->
<!-- Title: /home/travis/build/AliceO2Group/AliceO2/Detectors/ITSMFT/ITS/reconstruction/include/ITSReconstruction/TrivialClusterer.h Pages: 1 -->
<svg width="2512pt" height="508pt"
 viewBox="0.00 0.00 2512.00 508.00" xmlns="http://www.w3.org/2000/svg" xmlns:xlink="http://www.w3.org/1999/xlink">
<g id="graph0" class="graph" transform="scale(1 1) rotate(0) translate(4 504)">
<title>/home/travis/build/AliceO2Group/AliceO2/Detectors/ITSMFT/ITS/reconstruction/include/ITSReconstruction/TrivialClusterer.h</title>
<!-- Node0 -->
<g id="node1" class="node">
<title>Node0</title>
<polygon fill="#bfbfbf" stroke="#000000" points="928.5,-436.5 928.5,-499.5 1119.5,-499.5 1119.5,-436.5 928.5,-436.5"/>
<text text-anchor="start" x="936.5" y="-487.5" font-family="Helvetica,sans-Serif" font-size="10.00" fill="#000000">/home/travis/build</text>
<text text-anchor="start" x="936.5" y="-476.5" font-family="Helvetica,sans-Serif" font-size="10.00" fill="#000000">/AliceO2Group/AliceO2</text>
<text text-anchor="start" x="936.5" y="-465.5" font-family="Helvetica,sans-Serif" font-size="10.00" fill="#000000">/Detectors/ITSMFT/ITS</text>
<text text-anchor="start" x="936.5" y="-454.5" font-family="Helvetica,sans-Serif" font-size="10.00" fill="#000000">/reconstruction/include</text>
<text text-anchor="middle" x="1024" y="-443.5" font-family="Helvetica,sans-Serif" font-size="10.00" fill="#000000">/ITSReconstruction/TrivialClusterer.h</text>
</g>
<!-- Node1 -->
<g id="node2" class="node">
<title>Node1</title>
<polygon fill="none" stroke="#bfbfbf" points="1036.5,-185 1036.5,-204 1095.5,-204 1095.5,-185 1036.5,-185"/>
<text text-anchor="middle" x="1066" y="-192" font-family="Helvetica,sans-Serif" font-size="10.00" fill="#000000">Rtypes.h</text>
</g>
<!-- Node0&#45;&gt;Node1 -->
<g id="edge1" class="edge">
<title>Node0&#45;&gt;Node1</title>
<path fill="none" stroke="#191970" d="M1016.1006,-436.3799C1013.625,-424.9901 1011.2216,-411.9911 1010,-400 1004.4919,-345.932 1013.5856,-278.8988 1027,-246 1032.1748,-233.3089 1041.296,-220.9989 1049.4168,-211.5981"/>
<polygon fill="#191970" stroke="#191970" points="1052.0467,-213.9082 1056.1714,-204.1492 1046.8612,-209.206 1052.0467,-213.9082"/>
</g>
<!-- Node2 -->
<g id="node3" class="node">
<title>Node2</title>
<g id="a_node3"><a xlink:href="../../d0/d2d/common_2base_2include_2ITSMFTBase_2GeometryTGeo_8h.html" target="_top" xlink:title="ITSMFTBase/GeometryTGeo.h">
<polygon fill="none" stroke="#000000" points="1019.5,-380.5 1019.5,-399.5 1180.5,-399.5 1180.5,-380.5 1019.5,-380.5"/>
<text text-anchor="middle" x="1100" y="-387.5" font-family="Helvetica,sans-Serif" font-size="10.00" fill="#000000">ITSMFTBase/GeometryTGeo.h</text>
</a>
</g>
</g>
<!-- Node0&#45;&gt;Node2 -->
<g id="edge2" class="edge">
<title>Node0&#45;&gt;Node2</title>
<path fill="none" stroke="#191970" d="M1054.9121,-436.2744C1064.7289,-426.1993 1075.1999,-415.4527 1083.5779,-406.8543"/>
<polygon fill="#191970" stroke="#191970" points="1086.1328,-409.2474 1090.6047,-399.6426 1081.1192,-404.3623 1086.1328,-409.2474"/>
</g>
<!-- Node3 -->
<g id="node4" class="node">
<title>Node3</title>
<polygon fill="none" stroke="#bfbfbf" points="1225.5,-319 1225.5,-338 1298.5,-338 1298.5,-319 1225.5,-319"/>
<text text-anchor="middle" x="1262" y="-326" font-family="Helvetica,sans-Serif" font-size="10.00" fill="#000000">TObjArray.h</text>
</g>
<!-- Node2&#45;&gt;Node3 -->
<g id="edge3" class="edge">
<title>Node2&#45;&gt;Node3</title>
<path fill="none" stroke="#191970" d="M1125.3125,-380.3906C1152.7747,-369.9652 1196.7895,-353.2559 1227.4263,-341.6252"/>
<polygon fill="#191970" stroke="#191970" points="1228.7585,-344.8633 1236.8652,-338.0419 1226.274,-338.319 1228.7585,-344.8633"/>
</g>
<!-- Node4 -->
<g id="node5" class="node">
<title>Node4</title>
<polygon fill="none" stroke="#bfbfbf" points="1184,-118 1184,-137 1228,-137 1228,-118 1184,-118"/>
<text text-anchor="middle" x="1206" y="-125" font-family="Helvetica,sans-Serif" font-size="10.00" fill="#000000">string</text>
</g>
<!-- Node2&#45;&gt;Node4 -->
<g id="edge4" class="edge">
<title>Node2&#45;&gt;Node4</title>
<path fill="none" stroke="#191970" d="M1072.3041,-380.4275C1055.9537,-373.1781 1036.6261,-361.4435 1027,-344 991.5686,-279.7942 981.731,-236.6931 1027,-179 1068.5224,-126.0818 1110.7136,-165.7877 1174,-143 1175.5972,-142.4249 1177.2205,-141.7945 1178.8459,-141.1273"/>
<polygon fill="#191970" stroke="#191970" points="1180.3079,-144.3076 1188.0102,-137.0327 1177.4523,-137.9165 1180.3079,-144.3076"/>
</g>
<!-- Node5 -->
<g id="node6" class="node">
<title>Node5</title>
<g id="a_node6"><a xlink:href="../../d4/d20/DetMatrixCache_8h.html" target="_top" xlink:title="DetectorsCommonDataFormats\l/DetMatrixCache.h">
<polygon fill="none" stroke="#000000" points="1036.5,-313.5 1036.5,-343.5 1207.5,-343.5 1207.5,-313.5 1036.5,-313.5"/>
<text text-anchor="start" x="1044.5" y="-331.5" font-family="Helvetica,sans-Serif" font-size="10.00" fill="#000000">DetectorsCommonDataFormats</text>
<text text-anchor="middle" x="1122" y="-320.5" font-family="Helvetica,sans-Serif" font-size="10.00" fill="#000000">/DetMatrixCache.h</text>
</a>
</g>
</g>
<!-- Node2&#45;&gt;Node5 -->
<g id="edge5" class="edge">
<title>Node2&#45;&gt;Node5</title>
<path fill="none" stroke="#191970" d="M1103.4375,-380.3906C1106.0565,-373.0692 1109.7842,-362.6488 1113.2126,-353.0647"/>
<polygon fill="#191970" stroke="#191970" points="1116.5454,-354.1392 1116.6182,-343.5446 1109.9544,-351.7814 1116.5454,-354.1392"/>
</g>
<!-- Node6 -->
<g id="node7" class="node">
<title>Node6</title>
<g id="a_node7"><a xlink:href="../../df/d5b/GPUCommonLogger_8h.html" target="_top" xlink:title="GPUCommonLogger.h">
<polygon fill="none" stroke="#000000" points="2348.5,-252 2348.5,-271 2471.5,-271 2471.5,-252 2348.5,-252"/>
<text text-anchor="middle" x="2410" y="-259" font-family="Helvetica,sans-Serif" font-size="10.00" fill="#000000">GPUCommonLogger.h</text>
</a>
</g>
</g>
<!-- Node5&#45;&gt;Node6 -->
<g id="edge6" class="edge">
<title>Node5&#45;&gt;Node6</title>
<path fill="none" stroke="#191970" d="M1207.7512,-313.9235C1210.5304,-313.5908 1213.2855,-313.2813 1216,-313 1435.5338,-290.2491 2114.805,-269.7444 2338.0681,-263.4652"/>
<polygon fill="#191970" stroke="#191970" points="2338.4533,-266.9559 2348.3513,-263.177 2338.2572,-259.9586 2338.4533,-266.9559"/>
</g>
<!-- Node9 -->
<g id="node10" class="node">
<title>Node9</title>
<g id="a_node10"><a xlink:href="../../d2/d45/GPUCommonRtypes_8h.html" target="_top" xlink:title="GPUCommonRtypes.h">
<polygon fill="none" stroke="#000000" points="1101.5,-252 1101.5,-271 1226.5,-271 1226.5,-252 1101.5,-252"/>
<text text-anchor="middle" x="1164" y="-259" font-family="Helvetica,sans-Serif" font-size="10.00" fill="#000000">GPUCommonRtypes.h</text>
</a>
</g>
</g>
<!-- Node5&#45;&gt;Node9 -->
<g id="edge9" class="edge">
<title>Node5&#45;&gt;Node9</title>
<path fill="none" stroke="#191970" d="M1131.5305,-313.2967C1137.7566,-303.3645 1145.923,-290.3371 1152.5082,-279.8321"/>
<polygon fill="#191970" stroke="#191970" points="1155.6644,-281.3868 1158.0103,-271.055 1149.7334,-277.6689 1155.6644,-281.3868"/>
</g>
<!-- Node10 -->
<g id="node11" class="node">
<title>Node10</title>
<polygon fill="none" stroke="#bfbfbf" points="0,-118 0,-137 42,-137 42,-118 0,-118"/>
<text text-anchor="middle" x="21" y="-125" font-family="Helvetica,sans-Serif" font-size="10.00" fill="#000000">array</text>
</g>
<!-- Node5&#45;&gt;Node10 -->
<g id="edge11" class="edge">
<title>Node5&#45;&gt;Node10</title>
<path fill="none" stroke="#191970" d="M1036.236,-323.7065C797.8851,-309.7231 139.8129,-266.3776 61,-210 40.1241,-195.0667 29.6769,-166.2138 24.8032,-146.9016"/>
<polygon fill="#191970" stroke="#191970" points="28.1981,-146.0452 22.5893,-137.0567 21.3686,-147.581 28.1981,-146.0452"/>
</g>
<!-- Node11 -->
<g id="node12" class="node">
<title>Node11</title>
<polygon fill="none" stroke="#bfbfbf" points="1036.5,-252 1036.5,-271 1083.5,-271 1083.5,-252 1036.5,-252"/>
<text text-anchor="middle" x="1060" y="-259" font-family="Helvetica,sans-Serif" font-size="10.00" fill="#000000">vector</text>
</g>
<!-- Node5&#45;&gt;Node11 -->
<g id="edge12" class="edge">
<title>Node5&#45;&gt;Node11</title>
<path fill="none" stroke="#191970" d="M1107.9312,-313.2967C1098.3651,-302.9591 1085.6962,-289.2684 1075.7857,-278.5588"/>
<polygon fill="#191970" stroke="#191970" points="1078.2027,-276.0175 1068.8419,-271.055 1073.065,-280.7718 1078.2027,-276.0175"/>
</g>
<!-- Node12 -->
<g id="node13" class="node">
<title>Node12</title>
<g id="a_node13"><a xlink:href="../../d6/d31/DetID_8h.html" target="_top" xlink:title="DetectorsCommonDataFormats\l/DetID.h">
<polygon fill="none" stroke="#000000" points="614.5,-246.5 614.5,-276.5 785.5,-276.5 785.5,-246.5 614.5,-246.5"/>
<text text-anchor="start" x="622.5" y="-264.5" font-family="Helvetica,sans-Serif" font-size="10.00" fill="#000000">DetectorsCommonDataFormats</text>
<text text-anchor="middle" x="700" y="-253.5" font-family="Helvetica,sans-Serif" font-size="10.00" fill="#000000">/DetID.h</text>
</a>
</g>
</g>
<!-- Node5&#45;&gt;Node12 -->
<g id="edge13" class="edge">
<title>Node5&#45;&gt;Node12</title>
<path fill="none" stroke="#191970" d="M1036.3478,-314.9012C966.5148,-303.814 867.9467,-288.1645 795.563,-276.6723"/>
<polygon fill="#191970" stroke="#191970" points="795.9539,-273.1906 785.5288,-275.0792 794.8562,-280.104 795.9539,-273.1906"/>
</g>
<!-- Node33 -->
<g id="node34" class="node">
<title>Node33</title>
<g id="a_node34"><a xlink:href="../../dd/d76/Cartesian3D_8h.html" target="_top" xlink:title="MathUtils/Cartesian3D.h">
<polygon fill="none" stroke="#000000" points="1417.5,-252 1417.5,-271 1552.5,-271 1552.5,-252 1417.5,-252"/>
<text text-anchor="middle" x="1485" y="-259" font-family="Helvetica,sans-Serif" font-size="10.00" fill="#000000">MathUtils/Cartesian3D.h</text>
</a>
</g>
</g>
<!-- Node5&#45;&gt;Node33 -->
<g id="edge44" class="edge">
<title>Node5&#45;&gt;Node33</title>
<path fill="none" stroke="#191970" d="M1203.4643,-313.4639C1270.0557,-301.1729 1362.7742,-284.0596 1423.3264,-272.8833"/>
<polygon fill="#191970" stroke="#191970" points="1424.3026,-276.2623 1433.5012,-271.0053 1423.032,-269.3786 1424.3026,-276.2623"/>
</g>
<!-- Node7 -->
<g id="node8" class="node">
<title>Node7</title>
<polygon fill="none" stroke="#bfbfbf" points="2380,-185 2380,-204 2440,-204 2440,-185 2380,-185"/>
<text text-anchor="middle" x="2410" y="-192" font-family="Helvetica,sans-Serif" font-size="10.00" fill="#000000">iostream</text>
</g>
<!-- Node6&#45;&gt;Node7 -->
<g id="edge7" class="edge">
<title>Node6&#45;&gt;Node7</title>
<path fill="none" stroke="#191970" d="M2410,-251.9005C2410,-242.149 2410,-226.7597 2410,-214.3695"/>
<polygon fill="#191970" stroke="#191970" points="2413.5001,-214.0816 2410,-204.0817 2406.5001,-214.0817 2413.5001,-214.0816"/>
</g>
<!-- Node8 -->
<g id="node9" class="node">
<title>Node8</title>
<polygon fill="none" stroke="#bfbfbf" points="2458,-185 2458,-204 2504,-204 2504,-185 2458,-185"/>
<text text-anchor="middle" x="2481" y="-192" font-family="Helvetica,sans-Serif" font-size="10.00" fill="#000000">cstdio</text>
</g>
<!-- Node6&#45;&gt;Node8 -->
<g id="edge8" class="edge">
<title>Node6&#45;&gt;Node8</title>
<path fill="none" stroke="#191970" d="M2420.1726,-251.9005C2431.4553,-241.2535 2449.8601,-223.8856 2463.4742,-211.0385"/>
<polygon fill="#191970" stroke="#191970" points="2465.9754,-213.4905 2470.8463,-204.0817 2461.1712,-208.3994 2465.9754,-213.4905"/>
</g>
<!-- Node9&#45;&gt;Node1 -->
<g id="edge10" class="edge">
<title>Node9&#45;&gt;Node1</title>
<path fill="none" stroke="#191970" d="M1149.959,-251.9005C1133.8762,-240.9052 1107.3094,-222.7422 1088.3684,-209.7927"/>
<polygon fill="#191970" stroke="#191970" points="1090.2455,-206.8362 1080.015,-204.0817 1086.2948,-212.6148 1090.2455,-206.8362"/>
</g>
<!-- Node12&#45;&gt;Node1 -->
<g id="edge14" class="edge">
<title>Node12&#45;&gt;Node1</title>
<path fill="none" stroke="#191970" d="M783.911,-246.4526C840.4672,-236.2691 916.7437,-222.4544 984,-210 997.8498,-207.4353 1013.0063,-204.5832 1026.4796,-202.0318"/>
<polygon fill="#191970" stroke="#191970" points="1027.2326,-205.4515 1036.4051,-200.1491 1025.928,-198.5741 1027.2326,-205.4515"/>
</g>
<!-- Node12&#45;&gt;Node4 -->
<g id="edge20" class="edge">
<title>Node12&#45;&gt;Node4</title>
<path fill="none" stroke="#191970" d="M785.6684,-252.6899C835.2001,-245.4553 897.8427,-232.574 950,-210 971.9537,-200.4983 972.019,-188.4384 994,-179 1068.9656,-146.8106 1096.6666,-168.9913 1174,-143 1175.6493,-142.4457 1177.3234,-141.8255 1178.9968,-141.1607"/>
<polygon fill="#191970" stroke="#191970" points="1180.6603,-144.2523 1188.3961,-137.0129 1177.8342,-137.8481 1180.6603,-144.2523"/>
</g>
<!-- Node12&#45;&gt;Node10 -->
<g id="edge15" class="edge">
<title>Node12&#45;&gt;Node10</title>
<path fill="none" stroke="#191970" d="M614.3186,-257.214C461.1293,-249.0871 152.03,-230.414 107,-210 75.4616,-195.7023 48.4028,-164.837 33.4466,-145.1784"/>
<polygon fill="#191970" stroke="#191970" points="36.1998,-143.0144 27.4539,-137.0344 30.5617,-147.1632 36.1998,-143.0144"/>
</g>
<!-- Node13 -->
<g id="node14" class="node">
<title>Node13</title>
<polygon fill="none" stroke="#bfbfbf" points="536,-185 536,-204 580,-204 580,-185 536,-185"/>
<text text-anchor="middle" x="558" y="-192" font-family="Helvetica,sans-Serif" font-size="10.00" fill="#000000">bitset</text>
</g>
<!-- Node12&#45;&gt;Node13 -->
<g id="edge16" class="edge">
<title>Node12&#45;&gt;Node13</title>
<path fill="none" stroke="#191970" d="M668.1324,-246.4639C643.9847,-235.0702 611.0543,-219.5327 587.5061,-208.4219"/>
<polygon fill="#191970" stroke="#191970" points="588.892,-205.2058 578.3546,-204.1039 585.9049,-211.5365 588.892,-205.2058"/>
</g>
<!-- Node14 -->
<g id="node15" class="node">
<title>Node14</title>
<polygon fill="none" stroke="#bfbfbf" points="482,-118 482,-137 534,-137 534,-118 482,-118"/>
<text text-anchor="middle" x="508" y="-125" font-family="Helvetica,sans-Serif" font-size="10.00" fill="#000000">cassert</text>
</g>
<!-- Node12&#45;&gt;Node14 -->
<g id="edge17" class="edge">
<title>Node12&#45;&gt;Node14</title>
<path fill="none" stroke="#191970" d="M622.8622,-246.4991C583.3041,-237.2948 540.6209,-224.5069 527,-210 511.1703,-193.1406 507.6217,-165.8402 507.2376,-147.3022"/>
<polygon fill="#191970" stroke="#191970" points="510.7394,-147.0935 507.3259,-137.0637 503.7397,-147.0331 510.7394,-147.0935"/>
</g>
<!-- Node15 -->
<g id="node16" class="node">
<title>Node15</title>
<polygon fill="none" stroke="#bfbfbf" points="552,-118 552,-137 602,-137 602,-118 552,-118"/>
<text text-anchor="middle" x="577" y="-125" font-family="Helvetica,sans-Serif" font-size="10.00" fill="#000000">cstdint</text>
</g>
<!-- Node12&#45;&gt;Node15 -->
<g id="edge18" class="edge">
<title>Node12&#45;&gt;Node15</title>
<path fill="none" stroke="#191970" d="M673.3072,-246.4208C658.5068,-237.1913 640.4359,-224.4041 627,-210 609.0587,-190.7658 594.3128,-164.0817 585.594,-146.3273"/>
<polygon fill="#191970" stroke="#191970" points="588.7372,-144.7872 581.2832,-137.258 582.415,-147.7922 588.7372,-144.7872"/>
</g>
<!-- Node16 -->
<g id="node17" class="node">
<title>Node16</title>
<polygon fill="none" stroke="#bfbfbf" points="781.5,-185 781.5,-204 854.5,-204 854.5,-185 781.5,-185"/>
<text text-anchor="middle" x="818" y="-192" font-family="Helvetica,sans-Serif" font-size="10.00" fill="#000000">string_view</text>
</g>
<!-- Node12&#45;&gt;Node16 -->
<g id="edge19" class="edge">
<title>Node12&#45;&gt;Node16</title>
<path fill="none" stroke="#191970" d="M726.4815,-246.4639C746.102,-235.3234 772.7,-220.2212 792.1649,-209.1691"/>
<polygon fill="#191970" stroke="#191970" points="794.1178,-212.0851 801.0856,-204.1039 790.6615,-205.9979 794.1178,-212.0851"/>
</g>
<!-- Node17 -->
<g id="node18" class="node">
<title>Node17</title>
<polygon fill="none" stroke="#bfbfbf" points="872.5,-185 872.5,-204 941.5,-204 941.5,-185 872.5,-185"/>
<text text-anchor="middle" x="907" y="-192" font-family="Helvetica,sans-Serif" font-size="10.00" fill="#000000">type_traits</text>
</g>
<!-- Node12&#45;&gt;Node17 -->
<g id="edge21" class="edge">
<title>Node12&#45;&gt;Node17</title>
<path fill="none" stroke="#191970" d="M748.993,-246.4785C781.428,-236.4213 824.8584,-222.7398 863,-210 865.4198,-209.1918 867.9102,-208.3478 870.4174,-207.489"/>
<polygon fill="#191970" stroke="#191970" points="871.7532,-210.7303 880.0555,-204.1483 869.4607,-204.1164 871.7532,-210.7303"/>
</g>
<!-- Node18 -->
<g id="node19" class="node">
<title>Node18</title>
<g id="a_node19"><a xlink:href="../../d9/d52/Common_2MathUtils_2include_2MathUtils_2Utils_8h.html" target="_top" xlink:title="MathUtils/Utils.h">
<polygon fill="none" stroke="#000000" points="116,-185 116,-204 214,-204 214,-185 116,-185"/>
<text text-anchor="middle" x="165" y="-192" font-family="Helvetica,sans-Serif" font-size="10.00" fill="#000000">MathUtils/Utils.h</text>
</a>
</g>
</g>
<!-- Node12&#45;&gt;Node18 -->
<g id="edge22" class="edge">
<title>Node12&#45;&gt;Node18</title>
<path fill="none" stroke="#191970" d="M614.3397,-250.7725C505.1131,-237.0936 319.0787,-213.7958 224.3001,-201.9264"/>
<polygon fill="#191970" stroke="#191970" points="224.6687,-198.4453 214.3112,-200.6754 223.7988,-205.391 224.6687,-198.4453"/>
</g>
<!-- Node26 -->
<g id="node27" class="node">
<title>Node26</title>
<g id="a_node27"><a xlink:href="../../dc/dcd/DataHeader_8h.html" target="_top" xlink:title="Headers/DataHeader.h">
<polygon fill="none" stroke="#000000" points="636.5,-185 636.5,-204 763.5,-204 763.5,-185 636.5,-185"/>
<text text-anchor="middle" x="700" y="-192" font-family="Helvetica,sans-Serif" font-size="10.00" fill="#000000">Headers/DataHeader.h</text>
</a>
</g>
</g>
<!-- Node12&#45;&gt;Node26 -->
<g id="edge33" class="edge">
<title>Node12&#45;&gt;Node26</title>
<path fill="none" stroke="#191970" d="M700,-246.2967C700,-236.7699 700,-224.3954 700,-214.1306"/>
<polygon fill="#191970" stroke="#191970" points="703.5001,-214.0549 700,-204.055 696.5001,-214.055 703.5001,-214.0549"/>
</g>
<!-- Node18&#45;&gt;Node10 -->
<g id="edge23" class="edge">
<title>Node18&#45;&gt;Node10</title>
<path fill="none" stroke="#191970" d="M144.3683,-184.9005C119.8811,-173.5072 78.8532,-154.4178 50.8907,-141.4075"/>
<polygon fill="#191970" stroke="#191970" points="52.1366,-138.1269 41.5934,-137.0817 49.1836,-144.4736 52.1366,-138.1269"/>
</g>
<!-- Node19 -->
<g id="node20" class="node">
<title>Node19</title>
<polygon fill="none" stroke="#bfbfbf" points="60.5,-56.5 60.5,-75.5 107.5,-75.5 107.5,-56.5 60.5,-56.5"/>
<text text-anchor="middle" x="84" y="-63.5" font-family="Helvetica,sans-Serif" font-size="10.00" fill="#000000">cmath</text>
</g>
<!-- Node18&#45;&gt;Node19 -->
<g id="edge24" class="edge">
<title>Node18&#45;&gt;Node19</title>
<path fill="none" stroke="#191970" d="M155.1387,-184.9188C145.3594,-175.0527 130.3751,-158.9141 120,-143 107.9017,-124.4427 97.6132,-101.172 91.1722,-85.0969"/>
<polygon fill="#191970" stroke="#191970" points="94.4019,-83.7451 87.5147,-75.6942 87.878,-86.2828 94.4019,-83.7451"/>
</g>
<!-- Node20 -->
<g id="node21" class="node">
<title>Node20</title>
<g id="a_node21"><a xlink:href="../../df/d21/GPUCommonDef_8h.html" target="_top" xlink:title="GPUCommonDef.h">
<polygon fill="none" stroke="#000000" points="132.5,-56.5 132.5,-75.5 239.5,-75.5 239.5,-56.5 132.5,-56.5"/>
<text text-anchor="middle" x="186" y="-63.5" font-family="Helvetica,sans-Serif" font-size="10.00" fill="#000000">GPUCommonDef.h</text>
</a>
</g>
</g>
<!-- Node18&#45;&gt;Node20 -->
<g id="edge25" class="edge">
<title>Node18&#45;&gt;Node20</title>
<path fill="none" stroke="#191970" d="M154.6517,-184.7803C139.4687,-169.2854 114.2673,-138.0725 127,-112 133.4041,-98.8865 145.5521,-88.4229 157.1685,-80.8092"/>
<polygon fill="#191970" stroke="#191970" points="159.1098,-83.7252 165.8439,-75.5457 155.4789,-77.7405 159.1098,-83.7252"/>
</g>
<!-- Node23 -->
<g id="node24" class="node">
<title>Node23</title>
<g id="a_node24"><a xlink:href="../../d6/da2/GPUCommonMath_8h.html" target="_top" xlink:title="GPUCommonMath.h">
<polygon fill="none" stroke="#000000" points="136.5,-118 136.5,-137 251.5,-137 251.5,-118 136.5,-118"/>
<text text-anchor="middle" x="194" y="-125" font-family="Helvetica,sans-Serif" font-size="10.00" fill="#000000">GPUCommonMath.h</text>
</a>
</g>
</g>
<!-- Node18&#45;&gt;Node23 -->
<g id="edge28" class="edge">
<title>Node18&#45;&gt;Node23</title>
<path fill="none" stroke="#191970" d="M169.155,-184.9005C173.4619,-174.95 180.3097,-159.1292 185.7265,-146.6147"/>
<polygon fill="#191970" stroke="#191970" points="189.0925,-147.6492 189.8527,-137.0817 182.6684,-144.8686 189.0925,-147.6492"/>
</g>
<!-- Node25 -->
<g id="node26" class="node">
<title>Node25</title>
<g id="a_node26"><a xlink:href="../../d6/d84/MathConstants_8h.html" target="_top" xlink:title="useful math constants ">
<polygon fill="none" stroke="#000000" points="270,-118 270,-137 464,-137 464,-118 270,-118"/>
<text text-anchor="middle" x="367" y="-125" font-family="Helvetica,sans-Serif" font-size="10.00" fill="#000000">CommonConstants/MathConstants.h</text>
</a>
</g>
</g>
<!-- Node18&#45;&gt;Node25 -->
<g id="edge32" class="edge">
<title>Node18&#45;&gt;Node25</title>
<path fill="none" stroke="#191970" d="M193.9417,-184.9005C229.3418,-173.1589 289.3851,-153.2436 328.6145,-140.2318"/>
<polygon fill="#191970" stroke="#191970" points="329.7224,-143.5519 338.112,-137.0817 327.5186,-136.9079 329.7224,-143.5519"/>
</g>
<!-- Node21 -->
<g id="node22" class="node">
<title>Node21</title>
<g id="a_node22"><a xlink:href="../../d5/d93/GPUCommonDefSettings_8h.html" target="_top" xlink:title="GPUCommonDefSettings.h">
<polygon fill="none" stroke="#000000" points="35,-.5 35,-19.5 183,-19.5 183,-.5 35,-.5"/>
<text text-anchor="middle" x="109" y="-7.5" font-family="Helvetica,sans-Serif" font-size="10.00" fill="#000000">GPUCommonDefSettings.h</text>
</a>
</g>
</g>
<!-- Node20&#45;&gt;Node21 -->
<g id="edge26" class="edge">
<title>Node20&#45;&gt;Node21</title>
<path fill="none" stroke="#191970" d="M172.5876,-56.2455C160.9943,-47.814 144.0252,-35.4729 130.5322,-25.6598"/>
<polygon fill="#191970" stroke="#191970" points="132.4047,-22.6938 122.2587,-19.6427 128.2874,-28.355 132.4047,-22.6938"/>
</g>
<!-- Node22 -->
<g id="node23" class="node">
<title>Node22</title>
<g id="a_node23"><a xlink:href="../../da/d5a/GPUCommonDefAPI_8h.html" target="_top" xlink:title="GPUCommonDefAPI.h">
<polygon fill="none" stroke="#000000" points="201,-.5 201,-19.5 325,-19.5 325,-.5 201,-.5"/>
<text text-anchor="middle" x="263" y="-7.5" font-family="Helvetica,sans-Serif" font-size="10.00" fill="#000000">GPUCommonDefAPI.h</text>
</a>
</g>
</g>
<!-- Node20&#45;&gt;Node22 -->
<g id="edge27" class="edge">
<title>Node20&#45;&gt;Node22</title>
<path fill="none" stroke="#191970" d="M199.4124,-56.2455C211.0057,-47.814 227.9748,-35.4729 241.4678,-25.6598"/>
<polygon fill="#191970" stroke="#191970" points="243.7126,-28.355 249.7413,-19.6427 239.5953,-22.6938 243.7126,-28.355"/>
</g>
<!-- Node23&#45;&gt;Node19 -->
<g id="edge30" class="edge">
<title>Node23&#45;&gt;Node19</title>
<path fill="none" stroke="#191970" d="M176.8125,-117.8906C158.8918,-107.8713 130.5905,-92.0483 109.9477,-80.5071"/>
<polygon fill="#191970" stroke="#191970" points="111.5033,-77.367 101.0668,-75.5419 108.0872,-83.4769 111.5033,-77.367"/>
</g>
<!-- Node23&#45;&gt;Node20 -->
<g id="edge29" class="edge">
<title>Node23&#45;&gt;Node20</title>
<path fill="none" stroke="#191970" d="M192.75,-117.8906C191.6411,-109.3657 189.9856,-96.6392 188.5917,-85.9235"/>
<polygon fill="#191970" stroke="#191970" points="192.0284,-85.2098 187.2676,-75.7449 185.0869,-86.1128 192.0284,-85.2098"/>
</g>
<!-- Node24 -->
<g id="node25" class="node">
<title>Node24</title>
<polygon fill="none" stroke="#bfbfbf" points="428,-56.5 428,-75.5 492,-75.5 492,-56.5 428,-56.5"/>
<text text-anchor="middle" x="460" y="-63.5" font-family="Helvetica,sans-Serif" font-size="10.00" fill="#000000">algorithm</text>
</g>
<!-- Node23&#45;&gt;Node24 -->
<g id="edge31" class="edge">
<title>Node23&#45;&gt;Node24</title>
<path fill="none" stroke="#191970" d="M235.1018,-117.9901C243.6609,-116.0102 252.6248,-113.9368 261,-112 315.1872,-99.4692 377.6759,-85.0258 417.9529,-75.7171"/>
<polygon fill="#191970" stroke="#191970" points="418.991,-79.0696 427.9461,-73.4076 417.4147,-72.2493 418.991,-79.0696"/>
</g>
<!-- Node26&#45;&gt;Node4 -->
<g id="edge40" class="edge">
<title>Node26&#45;&gt;Node4</title>
<path fill="none" stroke="#191970" d="M740.2043,-184.9334C750.5215,-182.7298 761.634,-180.5739 772,-179 949.3492,-152.0733 1001.1264,-190.8799 1174,-143 1175.9186,-142.4686 1177.8616,-141.8252 1179.7924,-141.1062"/>
<polygon fill="#191970" stroke="#191970" points="1181.3837,-144.2315 1189.176,-137.053 1178.6079,-137.8054 1181.3837,-144.2315"/>
</g>
<!-- Node26&#45;&gt;Node14 -->
<g id="edge36" class="edge">
<title>Node26&#45;&gt;Node14</title>
<path fill="none" stroke="#191970" d="M667.7972,-184.9693C635.8273,-175.2666 585.5744,-159.363 543,-143 541.3794,-142.3771 539.7251,-141.72 538.0608,-141.042"/>
<polygon fill="#191970" stroke="#191970" points="539.1581,-137.7058 528.5852,-137.0255 536.4262,-144.1507 539.1581,-137.7058"/>
</g>
<!-- Node26&#45;&gt;Node15 -->
<g id="edge34" class="edge">
<title>Node26&#45;&gt;Node15</title>
<path fill="none" stroke="#191970" d="M682.3771,-184.9005C661.7349,-173.6564 627.332,-154.9166 603.476,-141.9219"/>
<polygon fill="#191970" stroke="#191970" points="605.0462,-138.7916 594.5902,-137.0817 601.6977,-144.9388 605.0462,-138.7916"/>
</g>
<!-- Node26&#45;&gt;Node24 -->
<g id="edge38" class="edge">
<title>Node26&#45;&gt;Node24</title>
<path fill="none" stroke="#191970" d="M690.575,-184.7242C671.5616,-165.1825 628.9016,-122.2881 611,-112 576.9512,-92.4321 533.7068,-80.3575 502.2305,-73.5186"/>
<polygon fill="#191970" stroke="#191970" points="502.5408,-70.0082 492.0374,-71.3968 501.1142,-76.8613 502.5408,-70.0082"/>
</g>
<!-- Node27 -->
<g id="node28" class="node">
<title>Node27</title>
<polygon fill="none" stroke="#bfbfbf" points="658,-118 658,-137 716,-137 716,-118 658,-118"/>
<text text-anchor="middle" x="687" y="-125" font-family="Helvetica,sans-Serif" font-size="10.00" fill="#000000">memory</text>
</g>
<!-- Node26&#45;&gt;Node27 -->
<g id="edge35" class="edge">
<title>Node26&#45;&gt;Node27</title>
<path fill="none" stroke="#191970" d="M698.1374,-184.9005C696.226,-175.0495 693.1983,-159.4451 690.7819,-146.9912"/>
<polygon fill="#191970" stroke="#191970" points="694.1999,-146.2319 688.8591,-137.0817 687.3281,-147.5653 694.1999,-146.2319"/>
</g>
<!-- Node28 -->
<g id="node29" class="node">
<title>Node28</title>
<polygon fill="none" stroke="#bfbfbf" points="734,-118 734,-137 784,-137 784,-118 734,-118"/>
<text text-anchor="middle" x="759" y="-125" font-family="Helvetica,sans-Serif" font-size="10.00" fill="#000000">cstring</text>
</g>
<!-- Node26&#45;&gt;Node28 -->
<g id="edge37" class="edge">
<title>Node26&#45;&gt;Node28</title>
<path fill="none" stroke="#191970" d="M708.4533,-184.9005C717.6538,-174.4525 732.5535,-157.5325 743.7978,-144.7635"/>
<polygon fill="#191970" stroke="#191970" points="746.5803,-146.8997 750.5624,-137.0817 741.3269,-142.2735 746.5803,-146.8997"/>
</g>
<!-- Node29 -->
<g id="node30" class="node">
<title>Node29</title>
<polygon fill="none" stroke="#bfbfbf" points="802.5,-118 802.5,-137 867.5,-137 867.5,-118 802.5,-118"/>
<text text-anchor="middle" x="835" y="-125" font-family="Helvetica,sans-Serif" font-size="10.00" fill="#000000">stdexcept</text>
</g>
<!-- Node26&#45;&gt;Node29 -->
<g id="edge39" class="edge">
<title>Node26&#45;&gt;Node29</title>
<path fill="none" stroke="#191970" d="M719.3422,-184.9005C742.1987,-173.5569 780.427,-154.5844 806.6334,-141.5783"/>
<polygon fill="#191970" stroke="#191970" points="808.2921,-144.6624 815.6937,-137.0817 805.1802,-138.3922 808.2921,-144.6624"/>
</g>
<!-- Node30 -->
<g id="node31" class="node">
<title>Node30</title>
<polygon fill="none" stroke="#bfbfbf" points="886,-118 886,-137 936,-137 936,-118 886,-118"/>
<text text-anchor="middle" x="911" y="-125" font-family="Helvetica,sans-Serif" font-size="10.00" fill="#000000">climits</text>
</g>
<!-- Node26&#45;&gt;Node30 -->
<g id="edge41" class="edge">
<title>Node26&#45;&gt;Node30</title>
<path fill="none" stroke="#191970" d="M737.8897,-184.9673C773.8526,-175.5559 829.2095,-160.1214 876,-143 877.6304,-142.4034 879.2926,-141.7671 880.963,-141.1055"/>
<polygon fill="#191970" stroke="#191970" points="882.5796,-144.2234 890.4573,-137.1387 879.881,-137.7645 882.5796,-144.2234"/>
</g>
<!-- Node31 -->
<g id="node32" class="node">
<title>Node31</title>
<g id="a_node32"><a xlink:href="../../d7/df8/Types_8h.html" target="_top" xlink:title="MemoryResources/Types.h">
<polygon fill="none" stroke="#000000" points="954,-118 954,-137 1100,-137 1100,-118 954,-118"/>
<text text-anchor="middle" x="1027" y="-125" font-family="Helvetica,sans-Serif" font-size="10.00" fill="#000000">MemoryResources/Types.h</text>
</a>
</g>
</g>
<!-- Node26&#45;&gt;Node31 -->
<g id="edge42" class="edge">
<title>Node26&#45;&gt;Node31</title>
<path fill="none" stroke="#191970" d="M743.7675,-184.9844C753.0818,-182.9856 762.8627,-180.9061 772,-179 839.3556,-164.9489 916.85,-149.3833 968.5632,-139.0816"/>
<polygon fill="#191970" stroke="#191970" points="969.4272,-142.4784 978.5515,-137.0935 968.0606,-135.6131 969.4272,-142.4784"/>
</g>
<!-- Node32 -->
<g id="node33" class="node">
<title>Node32</title>
<polygon fill="none" stroke="#bfbfbf" points="1118.5,-118 1118.5,-137 1165.5,-137 1165.5,-118 1118.5,-118"/>
<text text-anchor="middle" x="1142" y="-125" font-family="Helvetica,sans-Serif" font-size="10.00" fill="#000000">cerrno</text>
</g>
<!-- Node26&#45;&gt;Node32 -->
<g id="edge43" class="edge">
<title>Node26&#45;&gt;Node32</title>
<path fill="none" stroke="#191970" d="M740.6012,-184.9755C750.8111,-182.7969 761.7741,-180.6422 772,-179 920.7244,-155.1162 963.939,-183.5793 1109,-143 1110.9201,-142.4629 1112.8674,-141.8232 1114.806,-141.1145"/>
<polygon fill="#191970" stroke="#191970" points="1116.3933,-144.2442 1124.2615,-137.1489 1113.686,-137.7889 1116.3933,-144.2442"/>
</g>
<!-- Node33&#45;&gt;Node1 -->
<g id="edge50" class="edge">
<title>Node33&#45;&gt;Node1</title>
<path fill="none" stroke="#191970" d="M1417.2288,-257.526C1340.245,-251.8239 1211.3755,-238.6591 1104,-210 1101.5304,-209.3408 1099.0067,-208.562 1096.4925,-207.7101"/>
<polygon fill="#191970" stroke="#191970" points="1097.5706,-204.3766 1086.9779,-204.1598 1095.1234,-210.935 1097.5706,-204.3766"/>
</g>
<!-- Node34 -->
<g id="node35" class="node">
<title>Node34</title>
<polygon fill="none" stroke="#bfbfbf" points="1626,-179.5 1626,-209.5 1790,-209.5 1790,-179.5 1626,-179.5"/>
<text text-anchor="start" x="1634" y="-197.5" font-family="Helvetica,sans-Serif" font-size="10.00" fill="#000000">Math/GenVector/Displacement</text>
<text text-anchor="middle" x="1708" y="-186.5" font-family="Helvetica,sans-Serif" font-size="10.00" fill="#000000">Vector3D.h</text>
</g>
<!-- Node33&#45;&gt;Node34 -->
<g id="edge45" class="edge">
<title>Node33&#45;&gt;Node34</title>
<path fill="none" stroke="#191970" d="M1516.9505,-251.9005C1551.1397,-241.6284 1606.1503,-225.1006 1648.3818,-212.4122"/>
<polygon fill="#191970" stroke="#191970" points="1649.4322,-215.7512 1658.0022,-209.5218 1647.418,-209.0473 1649.4322,-215.7512"/>
</g>
<!-- Node35 -->
<g id="node36" class="node">
<title>Node35</title>
<polygon fill="none" stroke="#bfbfbf" points="1808.5,-185 1808.5,-204 1997.5,-204 1997.5,-185 1808.5,-185"/>
<text text-anchor="middle" x="1903" y="-192" font-family="Helvetica,sans-Serif" font-size="10.00" fill="#000000">Math/GenVector/PositionVector3D.h</text>
</g>
<!-- Node33&#45;&gt;Node35 -->
<g id="edge46" class="edge">
<title>Node33&#45;&gt;Node35</title>
<path fill="none" stroke="#191970" d="M1544.4453,-251.9717C1620.6384,-239.7589 1752.5195,-218.6201 1833.3402,-205.6656"/>
<polygon fill="#191970" stroke="#191970" points="1834.1017,-209.0883 1843.4217,-204.0496 1832.9938,-202.1765 1834.1017,-209.0883"/>
</g>
<!-- Node36 -->
<g id="node37" class="node">
<title>Node36</title>
<polygon fill="none" stroke="#bfbfbf" points="2016,-185 2016,-204 2176,-204 2176,-185 2016,-185"/>
<text text-anchor="middle" x="2096" y="-192" font-family="Helvetica,sans-Serif" font-size="10.00" fill="#000000">Math/GenVector/Rotation3D.h</text>
</g>
<!-- Node33&#45;&gt;Node36 -->
<g id="edge47" class="edge">
<title>Node33&#45;&gt;Node36</title>
<path fill="none" stroke="#191970" d="M1552.759,-256.4279C1652.496,-248.597 1844.5829,-232.1241 2007,-210 2016.13,-208.7563 2025.7568,-207.2672 2035.1716,-205.7107"/>
<polygon fill="#191970" stroke="#191970" points="2035.994,-209.1214 2045.2708,-204.0037 2034.8273,-202.2193 2035.994,-209.1214"/>
</g>
<!-- Node37 -->
<g id="node38" class="node">
<title>Node37</title>
<polygon fill="none" stroke="#bfbfbf" points="2194,-185 2194,-204 2362,-204 2362,-185 2194,-185"/>
<text text-anchor="middle" x="2278" y="-192" font-family="Helvetica,sans-Serif" font-size="10.00" fill="#000000">Math/GenVector/Transform3D.h</text>
</g>
<!-- Node33&#45;&gt;Node37 -->
<g id="edge48" class="edge">
<title>Node33&#45;&gt;Node37</title>
<path fill="none" stroke="#191970" d="M1552.7729,-258.5828C1677.9898,-252.7338 1953.9087,-237.6993 2185,-210 2194.9951,-208.802 2205.5552,-207.285 2215.8318,-205.6715"/>
<polygon fill="#191970" stroke="#191970" points="2216.6677,-209.082 2225.9827,-204.034 2215.5529,-202.1713 2216.6677,-209.082"/>
</g>
<!-- Node38 -->
<g id="node39" class="node">
<title>Node38</title>
<polygon fill="none" stroke="#bfbfbf" points="1113.5,-185 1113.5,-204 1286.5,-204 1286.5,-185 1113.5,-185"/>
<text text-anchor="middle" x="1200" y="-192" font-family="Helvetica,sans-Serif" font-size="10.00" fill="#000000">Math/GenVector/Translation3D.h</text>
</g>
<!-- Node33&#45;&gt;Node38 -->
<g id="edge49" class="edge">
<title>Node33&#45;&gt;Node38</title>
<path fill="none" stroke="#191970" d="M1444.4691,-251.9717C1393.5439,-239.9998 1306.1324,-219.4504 1250.7958,-206.4415"/>
<polygon fill="#191970" stroke="#191970" points="1251.3881,-202.9854 1240.8525,-204.1039 1249.7861,-209.7996 1251.3881,-202.9854"/>
</g>
<!-- Node39 -->
<g id="node40" class="node">
<title>Node39</title>
<polygon fill="none" stroke="#bfbfbf" points="1305,-185 1305,-204 1387,-204 1387,-185 1305,-185"/>
<text text-anchor="middle" x="1346" y="-192" font-family="Helvetica,sans-Serif" font-size="10.00" fill="#000000">TGeoMatrix.h</text>
</g>
<!-- Node33&#45;&gt;Node39 -->
<g id="edge51" class="edge">
<title>Node33&#45;&gt;Node39</title>
<path fill="none" stroke="#191970" d="M1465.0847,-251.9005C1441.5509,-240.5569 1402.1899,-221.5844 1375.2071,-208.5783"/>
<polygon fill="#191970" stroke="#191970" points="1376.4063,-205.2709 1365.8784,-204.0817 1373.3668,-211.5766 1376.4063,-205.2709"/>
</g>
<!-- Node40 -->
<g id="node41" class="node">
<title>Node40</title>
<polygon fill="none" stroke="#bfbfbf" points="1405.5,-185 1405.5,-204 1454.5,-204 1454.5,-185 1405.5,-185"/>
<text text-anchor="middle" x="1430" y="-192" font-family="Helvetica,sans-Serif" font-size="10.00" fill="#000000">iosfwd</text>
</g>
<!-- Node33&#45;&gt;Node40 -->
<g id="edge52" class="edge">
<title>Node33&#45;&gt;Node40</title>
<path fill="none" stroke="#191970" d="M1477.1198,-251.9005C1468.6248,-241.552 1454.9176,-224.8542 1444.472,-212.1295"/>
<polygon fill="#191970" stroke="#191970" points="1446.9158,-209.5902 1437.8655,-204.0817 1441.5053,-214.0317 1446.9158,-209.5902"/>
</g>
<!-- Node41 -->
<g id="node42" class="node">
<title>Node41</title>
<g id="a_node42"><a xlink:href="../../d2/dd0/Cartesian2D_8h.html" target="_top" xlink:title="MathUtils/Cartesian2D.h">
<polygon fill="none" stroke="#000000" points="1472.5,-185 1472.5,-204 1607.5,-204 1607.5,-185 1472.5,-185"/>
<text text-anchor="middle" x="1540" y="-192" font-family="Helvetica,sans-Serif" font-size="10.00" fill="#000000">MathUtils/Cartesian2D.h</text>
</a>
</g>
</g>
<!-- Node33&#45;&gt;Node41 -->
<g id="edge53" class="edge">
<title>Node33&#45;&gt;Node41</title>
<path fill="none" stroke="#191970" d="M1492.8802,-251.9005C1501.3752,-241.552 1515.0824,-224.8542 1525.528,-212.1295"/>
<polygon fill="#191970" stroke="#191970" points="1528.4947,-214.0317 1532.1345,-204.0817 1523.0842,-209.5902 1528.4947,-214.0317"/>
</g>
<!-- Node42 -->
<g id="node43" class="node">
<title>Node42</title>
<polygon fill="none" stroke="#bfbfbf" points="1556,-112.5 1556,-142.5 1720,-142.5 1720,-112.5 1556,-112.5"/>
<text text-anchor="start" x="1564" y="-130.5" font-family="Helvetica,sans-Serif" font-size="10.00" fill="#000000">Math/GenVector/Displacement</text>
<text text-anchor="middle" x="1638" y="-119.5" font-family="Helvetica,sans-Serif" font-size="10.00" fill="#000000">Vector2D.h</text>
</g>
<!-- Node41&#45;&gt;Node42 -->
<g id="edge54" class="edge">
<title>Node41&#45;&gt;Node42</title>
<path fill="none" stroke="#191970" d="M1554.041,-184.9005C1567.9588,-175.3853 1589.728,-160.5023 1607.612,-148.2755"/>
<polygon fill="#191970" stroke="#191970" points="1609.7481,-151.0549 1616.0279,-142.5218 1605.7974,-145.2763 1609.7481,-151.0549"/>
</g>
<!-- Node43 -->
<g id="node44" class="node">
<title>Node43</title>
<polygon fill="none" stroke="#bfbfbf" points="1348.5,-118 1348.5,-137 1537.5,-137 1537.5,-118 1348.5,-118"/>
<text text-anchor="middle" x="1443" y="-125" font-family="Helvetica,sans-Serif" font-size="10.00" fill="#000000">Math/GenVector/PositionVector2D.h</text>
</g>
<!-- Node41&#45;&gt;Node43 -->
<g id="edge55" class="edge">
<title>Node41&#45;&gt;Node43</title>
<path fill="none" stroke="#191970" d="M1526.1023,-184.9005C1510.1836,-173.9052 1483.8879,-155.7422 1465.1401,-142.7927"/>
<polygon fill="#191970" stroke="#191970" points="1467.0892,-139.8852 1456.872,-137.0817 1463.1108,-145.6448 1467.0892,-139.8852"/>
</g>
</g>
</svg>
