<?xml version="1.0" encoding="UTF-8" standalone="no"?>
<!DOCTYPE svg PUBLIC "-//W3C//DTD SVG 1.1//EN"
 "http://www.w3.org/Graphics/SVG/1.1/DTD/svg11.dtd">
<!-- Generated by graphviz version 2.40.1 (20161225.0304)
 -->
<!-- Title: /home/travis/build/AliceO2Group/AliceO2/Detectors/ITSMFT/MFT/tracking/src/FitterTrackMFT.cxx Pages: 1 -->
<svg width="2362pt" height="676pt"
 viewBox="0.00 0.00 2361.50 676.00" xmlns="http://www.w3.org/2000/svg" xmlns:xlink="http://www.w3.org/1999/xlink">
<g id="graph0" class="graph" transform="scale(1 1) rotate(0) translate(4 672)">
<title>/home/travis/build/AliceO2Group/AliceO2/Detectors/ITSMFT/MFT/tracking/src/FitterTrackMFT.cxx</title>
<!-- Node0 -->
<g id="node1" class="node">
<title>Node0</title>
<polygon fill="#bfbfbf" stroke="#000000" points="2150,-615.5 2150,-667.5 2318,-667.5 2318,-615.5 2150,-615.5"/>
<text text-anchor="start" x="2158" y="-655.5" font-family="Helvetica,sans-Serif" font-size="10.00" fill="#000000">/home/travis/build</text>
<text text-anchor="start" x="2158" y="-644.5" font-family="Helvetica,sans-Serif" font-size="10.00" fill="#000000">/AliceO2Group/AliceO2</text>
<text text-anchor="start" x="2158" y="-633.5" font-family="Helvetica,sans-Serif" font-size="10.00" fill="#000000">/Detectors/ITSMFT/MFT</text>
<text text-anchor="middle" x="2234" y="-622.5" font-family="Helvetica,sans-Serif" font-size="10.00" fill="#000000">/tracking/src/FitterTrackMFT.cxx</text>
</g>
<!-- Node1 -->
<g id="node2" class="node">
<title>Node1</title>
<g id="a_node2"><a xlink:href="../../da/d9a/FitterTrackMFT_8h.html" target="_top" xlink:title="Definition of the MFT track for internal use by the fitter. ">
<polygon fill="none" stroke="#000000" points="1318.5,-559.5 1318.5,-578.5 1475.5,-578.5 1475.5,-559.5 1318.5,-559.5"/>
<text text-anchor="middle" x="1397" y="-566.5" font-family="Helvetica,sans-Serif" font-size="10.00" fill="#000000">MFTTracking/FitterTrackMFT.h</text>
</a>
</g>
</g>
<!-- Node0&#45;&gt;Node1 -->
<g id="edge1" class="edge">
<title>Node0&#45;&gt;Node1</title>
<path fill="none" stroke="#191970" d="M2149.913,-634.2165C1991.1019,-620.4604 1648.436,-590.7791 1485.951,-576.7048"/>
<polygon fill="#191970" stroke="#191970" points="1485.7776,-573.1768 1475.5129,-575.8007 1485.1735,-580.1507 1485.7776,-573.1768"/>
</g>
<!-- Node13 -->
<g id="node14" class="node">
<title>Node13</title>
<polygon fill="none" stroke="#bfbfbf" points="2195,-185 2195,-204 2255,-204 2255,-185 2195,-185"/>
<text text-anchor="middle" x="2225" y="-192" font-family="Helvetica,sans-Serif" font-size="10.00" fill="#000000">iostream</text>
</g>
<!-- Node0&#45;&gt;Node13 -->
<g id="edge71" class="edge">
<title>Node0&#45;&gt;Node13</title>
<path fill="none" stroke="#191970" d="M2234,-615.4123C2234,-589.4505 2234,-548.4714 2234,-513 2234,-513 2234,-513 2234,-328.5 2234,-287.8786 2229.8318,-240.4859 2227.1686,-214.3515"/>
<polygon fill="#191970" stroke="#191970" points="2230.6316,-213.8152 2226.1036,-204.2367 2223.6701,-214.5483 2230.6316,-213.8152"/>
</g>
<!-- Node54 -->
<g id="node55" class="node">
<title>Node54</title>
<polygon fill="none" stroke="#bfbfbf" points="2262.5,-559.5 2262.5,-578.5 2353.5,-578.5 2353.5,-559.5 2262.5,-559.5"/>
<text text-anchor="middle" x="2308" y="-566.5" font-family="Helvetica,sans-Serif" font-size="10.00" fill="#000000">FairMQLogger.h</text>
</g>
<!-- Node0&#45;&gt;Node54 -->
<g id="edge72" class="edge">
<title>Node0&#45;&gt;Node54</title>
<path fill="none" stroke="#191970" d="M2260.7157,-615.3258C2270.8339,-605.4127 2282.0668,-594.4075 2291.0445,-585.6118"/>
<polygon fill="#191970" stroke="#191970" points="2293.575,-588.0324 2298.2687,-578.534 2288.6762,-583.0322 2293.575,-588.0324"/>
</g>
<!-- Node2 -->
<g id="node3" class="node">
<title>Node2</title>
<polygon fill="none" stroke="#bfbfbf" points="1480,-503.5 1480,-522.5 1512,-522.5 1512,-503.5 1480,-503.5"/>
<text text-anchor="middle" x="1496" y="-510.5" font-family="Helvetica,sans-Serif" font-size="10.00" fill="#000000">list</text>
</g>
<!-- Node1&#45;&gt;Node2 -->
<g id="edge2" class="edge">
<title>Node1&#45;&gt;Node2</title>
<path fill="none" stroke="#191970" d="M1414.2445,-559.2455C1429.8565,-550.4145 1453.0508,-537.2945 1470.7507,-527.2824"/>
<polygon fill="#191970" stroke="#191970" points="1472.9549,-530.0568 1479.9357,-522.0869 1469.5085,-523.964 1472.9549,-530.0568"/>
</g>
<!-- Node3 -->
<g id="node4" class="node">
<title>Node3</title>
<polygon fill="none" stroke="#bfbfbf" points="790,-118 790,-137 848,-137 848,-118 790,-118"/>
<text text-anchor="middle" x="819" y="-125" font-family="Helvetica,sans-Serif" font-size="10.00" fill="#000000">memory</text>
</g>
<!-- Node1&#45;&gt;Node3 -->
<g id="edge3" class="edge">
<title>Node1&#45;&gt;Node3</title>
<path fill="none" stroke="#191970" d="M1318.1031,-565.2625C1062.7121,-552.6484 275,-509.4881 275,-457 275,-457 275,-457 275,-261.5 275,-223.8735 265.7398,-203.8418 294,-179 330.3116,-147.0808 663.9069,-132.7796 779.6607,-128.7488"/>
<polygon fill="#191970" stroke="#191970" points="779.9743,-132.2402 789.849,-128.4011 779.7355,-125.2443 779.9743,-132.2402"/>
</g>
<!-- Node4 -->
<g id="node5" class="node">
<title>Node4</title>
<g id="a_node5"><a xlink:href="../../d1/d62/DataFormats_2Detectors_2ITSMFT_2common_2include_2DataFormatsITSMFT_2Cluster_8h.html" target="_top" xlink:title="DataFormatsITSMFT/Cluster.h">
<polygon fill="none" stroke="#000000" points="1424,-447.5 1424,-466.5 1584,-466.5 1584,-447.5 1424,-447.5"/>
<text text-anchor="middle" x="1504" y="-454.5" font-family="Helvetica,sans-Serif" font-size="10.00" fill="#000000">DataFormatsITSMFT/Cluster.h</text>
</a>
</g>
</g>
<!-- Node1&#45;&gt;Node4 -->
<g id="edge4" class="edge">
<title>Node1&#45;&gt;Node4</title>
<path fill="none" stroke="#191970" d="M1406.1228,-559.4509C1424.2849,-540.4401 1465.172,-497.6423 1487.9347,-473.816"/>
<polygon fill="#191970" stroke="#191970" points="1490.5232,-476.1733 1494.9003,-466.5249 1485.4617,-471.3378 1490.5232,-476.1733"/>
</g>
<!-- Node49 -->
<g id="node50" class="node">
<title>Node49</title>
<g id="a_node50"><a xlink:href="../../d3/d5b/TrackParamMFT_8h.html" target="_top" xlink:title="Definition of the MFT track parameters for internal use. ">
<polygon fill="none" stroke="#000000" points="1260.5,-503.5 1260.5,-522.5 1423.5,-522.5 1423.5,-503.5 1260.5,-503.5"/>
<text text-anchor="middle" x="1342" y="-510.5" font-family="Helvetica,sans-Serif" font-size="10.00" fill="#000000">MFTTracking/TrackParamMFT.h</text>
</a>
</g>
</g>
<!-- Node1&#45;&gt;Node49 -->
<g id="edge63" class="edge">
<title>Node1&#45;&gt;Node49</title>
<path fill="none" stroke="#191970" d="M1387.4197,-559.2455C1379.4542,-551.1352 1367.9359,-539.4075 1358.4921,-529.7919"/>
<polygon fill="#191970" stroke="#191970" points="1360.9747,-527.3247 1351.4705,-522.6427 1355.9805,-532.2297 1360.9747,-527.3247"/>
</g>
<!-- Node53 -->
<g id="node54" class="node">
<title>Node53</title>
<g id="a_node54"><a xlink:href="../../d7/dcd/MCCompLabel_8h.html" target="_top" xlink:title="SimulationDataFormat\l/MCCompLabel.h">
<polygon fill="none" stroke="#000000" points="1132.5,-380.5 1132.5,-410.5 1259.5,-410.5 1259.5,-380.5 1132.5,-380.5"/>
<text text-anchor="start" x="1140.5" y="-398.5" font-family="Helvetica,sans-Serif" font-size="10.00" fill="#000000">SimulationDataFormat</text>
<text text-anchor="middle" x="1196" y="-387.5" font-family="Helvetica,sans-Serif" font-size="10.00" fill="#000000">/MCCompLabel.h</text>
</a>
</g>
</g>
<!-- Node1&#45;&gt;Node53 -->
<g id="edge69" class="edge">
<title>Node1&#45;&gt;Node53</title>
<path fill="none" stroke="#191970" d="M1326.5275,-559.4788C1300.2644,-552.9036 1271.8105,-541.7885 1251,-523 1221.0125,-495.9261 1206.7165,-449.6581 1200.4187,-420.9296"/>
<polygon fill="#191970" stroke="#191970" points="1203.794,-419.9619 1198.3806,-410.8545 1196.9329,-421.3499 1203.794,-419.9619"/>
</g>
<!-- Node5 -->
<g id="node6" class="node">
<title>Node5</title>
<g id="a_node6"><a xlink:href="../../d4/de2/BaseCluster_8h.html" target="_top" xlink:title="ReconstructionDataFormats\l/BaseCluster.h">
<polygon fill="none" stroke="#000000" points="1417,-380.5 1417,-410.5 1569,-410.5 1569,-380.5 1417,-380.5"/>
<text text-anchor="start" x="1425" y="-398.5" font-family="Helvetica,sans-Serif" font-size="10.00" fill="#000000">ReconstructionDataFormats</text>
<text text-anchor="middle" x="1493" y="-387.5" font-family="Helvetica,sans-Serif" font-size="10.00" fill="#000000">/BaseCluster.h</text>
</a>
</g>
</g>
<!-- Node4&#45;&gt;Node5 -->
<g id="edge5" class="edge">
<title>Node4&#45;&gt;Node5</title>
<path fill="none" stroke="#191970" d="M1502.2813,-447.3906C1500.9993,-440.2234 1499.1862,-430.0862 1497.5021,-420.671"/>
<polygon fill="#191970" stroke="#191970" points="1500.897,-419.7721 1495.6909,-410.5446 1494.0063,-421.0046 1500.897,-419.7721"/>
</g>
<!-- Node6 -->
<g id="node7" class="node">
<title>Node6</title>
<polygon fill="none" stroke="#bfbfbf" points="1461.5,-319 1461.5,-338 1524.5,-338 1524.5,-319 1461.5,-319"/>
<text text-anchor="middle" x="1493" y="-326" font-family="Helvetica,sans-Serif" font-size="10.00" fill="#000000">TObject.h</text>
</g>
<!-- Node5&#45;&gt;Node6 -->
<g id="edge6" class="edge">
<title>Node5&#45;&gt;Node6</title>
<path fill="none" stroke="#191970" d="M1493,-380.2967C1493,-370.7699 1493,-358.3954 1493,-348.1306"/>
<polygon fill="#191970" stroke="#191970" points="1496.5001,-348.0549 1493,-338.055 1489.5001,-348.055 1496.5001,-348.0549"/>
</g>
<!-- Node7 -->
<g id="node8" class="node">
<title>Node7</title>
<polygon fill="none" stroke="#bfbfbf" points="1427,-185 1427,-204 1471,-204 1471,-185 1427,-185"/>
<text text-anchor="middle" x="1449" y="-192" font-family="Helvetica,sans-Serif" font-size="10.00" fill="#000000">bitset</text>
</g>
<!-- Node5&#45;&gt;Node7 -->
<g id="edge7" class="edge">
<title>Node5&#45;&gt;Node7</title>
<path fill="none" stroke="#191970" d="M1476.223,-380.0702C1467.214,-370.6353 1456.964,-357.7603 1452,-344 1436.135,-300.0216 1441.1071,-243.9325 1445.4504,-214.5372"/>
<polygon fill="#191970" stroke="#191970" points="1448.9592,-214.7627 1447.0966,-204.3329 1442.0485,-213.6478 1448.9592,-214.7627"/>
</g>
<!-- Node8 -->
<g id="node9" class="node">
<title>Node8</title>
<polygon fill="none" stroke="#bfbfbf" points="1543,-319 1543,-338 1599,-338 1599,-319 1543,-319"/>
<text text-anchor="middle" x="1571" y="-326" font-family="Helvetica,sans-Serif" font-size="10.00" fill="#000000">iomanip</text>
</g>
<!-- Node5&#45;&gt;Node8 -->
<g id="edge8" class="edge">
<title>Node5&#45;&gt;Node8</title>
<path fill="none" stroke="#191970" d="M1510.6994,-380.2967C1523.0881,-369.6551 1539.6135,-355.4602 1552.2315,-344.6217"/>
<polygon fill="#191970" stroke="#191970" points="1554.5712,-347.2259 1559.8763,-338.055 1550.01,-341.9159 1554.5712,-347.2259"/>
</g>
<!-- Node9 -->
<g id="node10" class="node">
<title>Node9</title>
<polygon fill="none" stroke="#bfbfbf" points="1198.5,-319 1198.5,-338 1229.5,-338 1229.5,-319 1198.5,-319"/>
<text text-anchor="middle" x="1214" y="-326" font-family="Helvetica,sans-Serif" font-size="10.00" fill="#000000">ios</text>
</g>
<!-- Node5&#45;&gt;Node9 -->
<g id="edge9" class="edge">
<title>Node5&#45;&gt;Node9</title>
<path fill="none" stroke="#191970" d="M1416.7721,-380.8214C1349.7121,-367.7294 1260.2802,-349.7666 1244,-344 1242.3284,-343.4079 1240.6329,-342.7393 1238.9426,-342.0206"/>
<polygon fill="#191970" stroke="#191970" points="1240.0535,-338.6733 1229.5196,-337.5391 1237.0471,-344.9948 1240.0535,-338.6733"/>
</g>
<!-- Node10 -->
<g id="node11" class="node">
<title>Node10</title>
<polygon fill="none" stroke="#bfbfbf" points="44.5,-185 44.5,-204 93.5,-204 93.5,-185 44.5,-185"/>
<text text-anchor="middle" x="69" y="-192" font-family="Helvetica,sans-Serif" font-size="10.00" fill="#000000">iosfwd</text>
</g>
<!-- Node5&#45;&gt;Node10 -->
<g id="edge10" class="edge">
<title>Node5&#45;&gt;Node10</title>
<path fill="none" stroke="#191970" d="M1416.6,-381.5306C1413.3587,-381.0011 1410.1483,-380.4885 1407,-380 829.0151,-290.3223 663.4174,-374.0706 102,-210 100.0862,-209.4407 98.1437,-208.7844 96.2087,-208.0633"/>
<polygon fill="#191970" stroke="#191970" points="97.335,-204.7396 86.7614,-204.0689 94.6089,-211.187 97.335,-204.7396"/>
</g>
<!-- Node11 -->
<g id="node12" class="node">
<title>Node11</title>
<g id="a_node12"><a xlink:href="../../d4/d20/DetMatrixCache_8h.html" target="_top" xlink:title="DetectorsCommonDataFormats\l/DetMatrixCache.h">
<polygon fill="none" stroke="#000000" points="1617.5,-313.5 1617.5,-343.5 1788.5,-343.5 1788.5,-313.5 1617.5,-313.5"/>
<text text-anchor="start" x="1625.5" y="-331.5" font-family="Helvetica,sans-Serif" font-size="10.00" fill="#000000">DetectorsCommonDataFormats</text>
<text text-anchor="middle" x="1703" y="-320.5" font-family="Helvetica,sans-Serif" font-size="10.00" fill="#000000">/DetMatrixCache.h</text>
</a>
</g>
</g>
<!-- Node5&#45;&gt;Node11 -->
<g id="edge11" class="edge">
<title>Node5&#45;&gt;Node11</title>
<path fill="none" stroke="#191970" d="M1540.1281,-380.4639C1571.4961,-370.456 1612.8851,-357.2509 1646.0899,-346.657"/>
<polygon fill="#191970" stroke="#191970" points="1647.2033,-349.9757 1655.6664,-343.6017 1645.0756,-343.3069 1647.2033,-349.9757"/>
</g>
<!-- Node39 -->
<g id="node40" class="node">
<title>Node39</title>
<g id="a_node40"><a xlink:href="../../dd/d76/Cartesian3D_8h.html" target="_top" xlink:title="MathUtils/Cartesian3D.h">
<polygon fill="none" stroke="#000000" points="887.5,-252 887.5,-271 1022.5,-271 1022.5,-252 887.5,-252"/>
<text text-anchor="middle" x="955" y="-259" font-family="Helvetica,sans-Serif" font-size="10.00" fill="#000000">MathUtils/Cartesian3D.h</text>
</a>
</g>
</g>
<!-- Node5&#45;&gt;Node39 -->
<g id="edge62" class="edge">
<title>Node5&#45;&gt;Node39</title>
<path fill="none" stroke="#191970" d="M1451.9732,-380.3577C1401.9899,-362.3467 1314.711,-332.2981 1238,-313 1168.7845,-295.5875 1088.6483,-281.5658 1031.3576,-272.576"/>
<polygon fill="#191970" stroke="#191970" points="1031.7115,-269.089 1021.2925,-271.0114 1030.6363,-276.0059 1031.7115,-269.089"/>
</g>
<!-- Node12 -->
<g id="node13" class="node">
<title>Node12</title>
<g id="a_node13"><a xlink:href="../../df/d5b/GPUCommonLogger_8h.html" target="_top" xlink:title="GPUCommonLogger.h">
<polygon fill="none" stroke="#000000" points="2082.5,-252 2082.5,-271 2205.5,-271 2205.5,-252 2082.5,-252"/>
<text text-anchor="middle" x="2144" y="-259" font-family="Helvetica,sans-Serif" font-size="10.00" fill="#000000">GPUCommonLogger.h</text>
</a>
</g>
</g>
<!-- Node11&#45;&gt;Node12 -->
<g id="edge12" class="edge">
<title>Node11&#45;&gt;Node12</title>
<path fill="none" stroke="#191970" d="M1788.7792,-317.8993C1862.8929,-308.3818 1972.7706,-293.4134 2068,-277 2075.025,-275.7892 2082.3945,-274.4164 2089.6656,-273.0003"/>
<polygon fill="#191970" stroke="#191970" points="2090.3504,-276.4327 2099.4781,-271.0536 2088.9882,-269.5665 2090.3504,-276.4327"/>
</g>
<!-- Node15 -->
<g id="node16" class="node">
<title>Node15</title>
<g id="a_node16"><a xlink:href="../../d2/d45/GPUCommonRtypes_8h.html" target="_top" xlink:title="GPUCommonRtypes.h">
<polygon fill="none" stroke="#000000" points="1233.5,-252 1233.5,-271 1358.5,-271 1358.5,-252 1233.5,-252"/>
<text text-anchor="middle" x="1296" y="-259" font-family="Helvetica,sans-Serif" font-size="10.00" fill="#000000">GPUCommonRtypes.h</text>
</a>
</g>
</g>
<!-- Node11&#45;&gt;Node15 -->
<g id="edge15" class="edge">
<title>Node11&#45;&gt;Node15</title>
<path fill="none" stroke="#191970" d="M1617.1831,-314.3729C1541.716,-301.9496 1433.3501,-284.1105 1363.8135,-272.6634"/>
<polygon fill="#191970" stroke="#191970" points="1364.28,-269.1932 1353.8443,-271.0223 1363.1429,-276.1002 1364.28,-269.1932"/>
</g>
<!-- Node17 -->
<g id="node18" class="node">
<title>Node17</title>
<polygon fill="none" stroke="#bfbfbf" points="2208,-118 2208,-137 2250,-137 2250,-118 2208,-118"/>
<text text-anchor="middle" x="2229" y="-125" font-family="Helvetica,sans-Serif" font-size="10.00" fill="#000000">array</text>
</g>
<!-- Node11&#45;&gt;Node17 -->
<g id="edge17" class="edge">
<title>Node11&#45;&gt;Node17</title>
<path fill="none" stroke="#191970" d="M1747.4304,-313.4489C1777.103,-303.322 1816.9651,-289.5731 1852,-277 1932.3451,-248.1663 1952.3816,-240.7836 2032,-210 2069.2958,-195.58 2162.6406,-159.6406 2199,-143 2199.9862,-142.5487 2200.9865,-142.0816 2201.9937,-141.6035"/>
<polygon fill="#191970" stroke="#191970" points="2203.6386,-144.6947 2211.0523,-137.1259 2200.5367,-138.4195 2203.6386,-144.6947"/>
</g>
<!-- Node18 -->
<g id="node19" class="node">
<title>Node18</title>
<polygon fill="none" stroke="#bfbfbf" points="1795.5,-252 1795.5,-271 1842.5,-271 1842.5,-252 1795.5,-252"/>
<text text-anchor="middle" x="1819" y="-259" font-family="Helvetica,sans-Serif" font-size="10.00" fill="#000000">vector</text>
</g>
<!-- Node11&#45;&gt;Node18 -->
<g id="edge18" class="edge">
<title>Node11&#45;&gt;Node18</title>
<path fill="none" stroke="#191970" d="M1729.0327,-313.4639C1748.3206,-302.3234 1774.4678,-287.2212 1793.6028,-276.1691"/>
<polygon fill="#191970" stroke="#191970" points="1795.4635,-279.1363 1802.3723,-271.1039 1791.9624,-273.0747 1795.4635,-279.1363"/>
</g>
<!-- Node19 -->
<g id="node20" class="node">
<title>Node19</title>
<g id="a_node20"><a xlink:href="../../d6/d31/DetID_8h.html" target="_top" xlink:title="DetectorsCommonDataFormats\l/DetID.h">
<polygon fill="none" stroke="#000000" points="1606.5,-246.5 1606.5,-276.5 1777.5,-276.5 1777.5,-246.5 1606.5,-246.5"/>
<text text-anchor="start" x="1614.5" y="-264.5" font-family="Helvetica,sans-Serif" font-size="10.00" fill="#000000">DetectorsCommonDataFormats</text>
<text text-anchor="middle" x="1692" y="-253.5" font-family="Helvetica,sans-Serif" font-size="10.00" fill="#000000">/DetID.h</text>
</a>
</g>
</g>
<!-- Node11&#45;&gt;Node19 -->
<g id="edge19" class="edge">
<title>Node11&#45;&gt;Node19</title>
<path fill="none" stroke="#191970" d="M1700.5039,-313.2967C1699.21,-305.4156 1697.5962,-295.5857 1696.1231,-286.6135"/>
<polygon fill="#191970" stroke="#191970" points="1699.5601,-285.944 1694.4862,-276.6432 1692.6526,-287.0781 1699.5601,-285.944"/>
</g>
<!-- Node11&#45;&gt;Node39 -->
<g id="edge50" class="edge">
<title>Node11&#45;&gt;Node39</title>
<path fill="none" stroke="#191970" d="M1617.3417,-314.1885C1614.191,-313.7689 1611.0692,-313.3708 1608,-313 1401.004,-287.9947 1155.5607,-272.3906 1032.9169,-265.5476"/>
<polygon fill="#191970" stroke="#191970" points="1033.0464,-262.0495 1022.8681,-264.9912 1032.6593,-269.0388 1033.0464,-262.0495"/>
</g>
<!-- Node12&#45;&gt;Node13 -->
<g id="edge13" class="edge">
<title>Node12&#45;&gt;Node13</title>
<path fill="none" stroke="#191970" d="M2155.6053,-251.9005C2168.5975,-241.1539 2189.8673,-223.5603 2205.4398,-210.6794"/>
<polygon fill="#191970" stroke="#191970" points="2207.9414,-213.1524 2213.4162,-204.0817 2203.4798,-207.7585 2207.9414,-213.1524"/>
</g>
<!-- Node14 -->
<g id="node15" class="node">
<title>Node14</title>
<polygon fill="none" stroke="#bfbfbf" points="2121,-185 2121,-204 2167,-204 2167,-185 2121,-185"/>
<text text-anchor="middle" x="2144" y="-192" font-family="Helvetica,sans-Serif" font-size="10.00" fill="#000000">cstdio</text>
</g>
<!-- Node12&#45;&gt;Node14 -->
<g id="edge14" class="edge">
<title>Node12&#45;&gt;Node14</title>
<path fill="none" stroke="#191970" d="M2144,-251.9005C2144,-242.149 2144,-226.7597 2144,-214.3695"/>
<polygon fill="#191970" stroke="#191970" points="2147.5001,-214.0816 2144,-204.0817 2140.5001,-214.0817 2147.5001,-214.0816"/>
</g>
<!-- Node16 -->
<g id="node17" class="node">
<title>Node16</title>
<polygon fill="none" stroke="#bfbfbf" points="1349.5,-185 1349.5,-204 1408.5,-204 1408.5,-185 1349.5,-185"/>
<text text-anchor="middle" x="1379" y="-192" font-family="Helvetica,sans-Serif" font-size="10.00" fill="#000000">Rtypes.h</text>
</g>
<!-- Node15&#45;&gt;Node16 -->
<g id="edge16" class="edge">
<title>Node15&#45;&gt;Node16</title>
<path fill="none" stroke="#191970" d="M1307.8919,-251.9005C1321.2048,-241.1539 1342.9999,-223.5603 1358.9568,-210.6794"/>
<polygon fill="#191970" stroke="#191970" points="1361.5474,-213.0863 1367.1302,-204.0817 1357.1506,-207.6395 1361.5474,-213.0863"/>
</g>
<!-- Node19&#45;&gt;Node7 -->
<g id="edge22" class="edge">
<title>Node19&#45;&gt;Node7</title>
<path fill="none" stroke="#191970" d="M1611.708,-246.4617C1571.5196,-237.817 1522.5025,-225.5617 1480,-210 1478.5874,-209.4828 1477.1551,-208.9188 1475.7203,-208.3221"/>
<polygon fill="#191970" stroke="#191970" points="1476.9501,-205.0358 1466.4004,-204.0582 1474.0378,-211.4013 1476.9501,-205.0358"/>
</g>
<!-- Node19&#45;&gt;Node16 -->
<g id="edge20" class="edge">
<title>Node19&#45;&gt;Node16</title>
<path fill="none" stroke="#191970" d="M1606.4585,-249.7625C1551.9105,-241.2165 1480.0641,-227.9841 1418,-210 1415.5507,-209.2903 1413.0421,-208.4849 1410.5362,-207.6232"/>
<polygon fill="#191970" stroke="#191970" points="1411.6094,-204.2885 1401.0161,-204.1047 1409.1826,-210.8544 1411.6094,-204.2885"/>
</g>
<!-- Node19&#45;&gt;Node17 -->
<g id="edge21" class="edge">
<title>Node19&#45;&gt;Node17</title>
<path fill="none" stroke="#191970" d="M1777.8803,-247.4796C1866.2845,-232.9757 1991.8828,-212.1391 1997,-210 2018.7369,-200.9133 2018.523,-188.6851 2040,-179 2106.05,-149.2144 2130.9319,-167.8296 2199,-143 2200.2392,-142.548 2201.4923,-142.0557 2202.7473,-141.5337"/>
<polygon fill="#191970" stroke="#191970" points="2204.6198,-144.5225 2212.2055,-137.1261 2201.663,-138.1776 2204.6198,-144.5225"/>
</g>
<!-- Node20 -->
<g id="node21" class="node">
<title>Node20</title>
<polygon fill="none" stroke="#bfbfbf" points="2268,-118 2268,-137 2320,-137 2320,-118 2268,-118"/>
<text text-anchor="middle" x="2294" y="-125" font-family="Helvetica,sans-Serif" font-size="10.00" fill="#000000">cassert</text>
</g>
<!-- Node19&#45;&gt;Node20 -->
<g id="edge23" class="edge">
<title>Node19&#45;&gt;Node20</title>
<path fill="none" stroke="#191970" d="M1777.695,-247.4541C1780.8353,-246.9598 1783.9449,-246.4737 1787,-246 1895.7588,-229.1382 1925.5787,-238.0586 2032,-210 2068.8716,-200.2786 2075.6274,-190.4481 2112,-179 2176.161,-158.8057 2195.3335,-164.7031 2259,-143 2260.8399,-142.3728 2262.7162,-141.6866 2264.5967,-140.963"/>
<polygon fill="#191970" stroke="#191970" points="2265.9726,-144.1816 2273.8837,-137.1343 2263.3045,-137.71 2265.9726,-144.1816"/>
</g>
<!-- Node21 -->
<g id="node22" class="node">
<title>Node21</title>
<polygon fill="none" stroke="#bfbfbf" points="1590,-118 1590,-137 1640,-137 1640,-118 1590,-118"/>
<text text-anchor="middle" x="1615" y="-125" font-family="Helvetica,sans-Serif" font-size="10.00" fill="#000000">cstdint</text>
</g>
<!-- Node19&#45;&gt;Node21 -->
<g id="edge24" class="edge">
<title>Node19&#45;&gt;Node21</title>
<path fill="none" stroke="#191970" d="M1669.4818,-246.3173C1657.538,-237.141 1643.5956,-224.4395 1635,-210 1623.436,-190.5739 1618.5495,-164.8064 1616.4901,-147.2723"/>
<polygon fill="#191970" stroke="#191970" points="1619.9515,-146.704 1615.5033,-137.0882 1612.9842,-147.3792 1619.9515,-146.704"/>
</g>
<!-- Node22 -->
<g id="node23" class="node">
<title>Node22</title>
<polygon fill="none" stroke="#bfbfbf" points="1643.5,-185 1643.5,-204 1716.5,-204 1716.5,-185 1643.5,-185"/>
<text text-anchor="middle" x="1680" y="-192" font-family="Helvetica,sans-Serif" font-size="10.00" fill="#000000">string_view</text>
</g>
<!-- Node19&#45;&gt;Node22 -->
<g id="edge25" class="edge">
<title>Node19&#45;&gt;Node22</title>
<path fill="none" stroke="#191970" d="M1689.277,-246.2967C1687.5707,-236.7699 1685.3544,-224.3954 1683.5159,-214.1306"/>
<polygon fill="#191970" stroke="#191970" points="1686.9196,-213.2813 1681.7113,-204.055 1680.0292,-214.5154 1686.9196,-213.2813"/>
</g>
<!-- Node23 -->
<g id="node24" class="node">
<title>Node23</title>
<polygon fill="none" stroke="#bfbfbf" points="1658,-118 1658,-137 1702,-137 1702,-118 1658,-118"/>
<text text-anchor="middle" x="1680" y="-125" font-family="Helvetica,sans-Serif" font-size="10.00" fill="#000000">string</text>
</g>
<!-- Node19&#45;&gt;Node23 -->
<g id="edge26" class="edge">
<title>Node19&#45;&gt;Node23</title>
<path fill="none" stroke="#191970" d="M1705.3403,-246.49C1713.0198,-236.8135 1721.9323,-223.5445 1726,-210 1729.9629,-196.8045 1730.9118,-191.8725 1726,-179 1720.8066,-165.3895 1710.1791,-153.0965 1700.4465,-143.9368"/>
<polygon fill="#191970" stroke="#191970" points="1702.7595,-141.3099 1692.954,-137.2973 1698.117,-146.549 1702.7595,-141.3099"/>
</g>
<!-- Node24 -->
<g id="node25" class="node">
<title>Node24</title>
<polygon fill="none" stroke="#bfbfbf" points="1773.5,-185 1773.5,-204 1842.5,-204 1842.5,-185 1773.5,-185"/>
<text text-anchor="middle" x="1808" y="-192" font-family="Helvetica,sans-Serif" font-size="10.00" fill="#000000">type_traits</text>
</g>
<!-- Node19&#45;&gt;Node24 -->
<g id="edge27" class="edge">
<title>Node19&#45;&gt;Node24</title>
<path fill="none" stroke="#191970" d="M1718.0327,-246.4639C1737.3206,-235.3234 1763.4678,-220.2212 1782.6028,-209.1691"/>
<polygon fill="#191970" stroke="#191970" points="1784.4635,-212.1363 1791.3723,-204.1039 1780.9624,-206.0747 1784.4635,-212.1363"/>
</g>
<!-- Node25 -->
<g id="node26" class="node">
<title>Node25</title>
<g id="a_node26"><a xlink:href="../../d9/d52/Common_2MathUtils_2include_2MathUtils_2Utils_8h.html" target="_top" xlink:title="MathUtils/Utils.h">
<polygon fill="none" stroke="#000000" points="1489,-185 1489,-204 1587,-204 1587,-185 1489,-185"/>
<text text-anchor="middle" x="1538" y="-192" font-family="Helvetica,sans-Serif" font-size="10.00" fill="#000000">MathUtils/Utils.h</text>
</a>
</g>
</g>
<!-- Node19&#45;&gt;Node25 -->
<g id="edge28" class="edge">
<title>Node19&#45;&gt;Node25</title>
<path fill="none" stroke="#191970" d="M1657.4394,-246.4639C1631.0182,-234.969 1594.9021,-219.2561 1569.3209,-208.1266"/>
<polygon fill="#191970" stroke="#191970" points="1570.6408,-204.884 1560.0747,-204.1039 1567.8481,-211.3028 1570.6408,-204.884"/>
</g>
<!-- Node33 -->
<g id="node34" class="node">
<title>Node33</title>
<g id="a_node34"><a xlink:href="../../dc/dcd/DataHeader_8h.html" target="_top" xlink:title="Headers/DataHeader.h">
<polygon fill="none" stroke="#000000" points="1860.5,-185 1860.5,-204 1987.5,-204 1987.5,-185 1860.5,-185"/>
<text text-anchor="middle" x="1924" y="-192" font-family="Helvetica,sans-Serif" font-size="10.00" fill="#000000">Headers/DataHeader.h</text>
</a>
</g>
</g>
<!-- Node19&#45;&gt;Node33 -->
<g id="edge39" class="edge">
<title>Node19&#45;&gt;Node33</title>
<path fill="none" stroke="#191970" d="M1744.0653,-246.4639C1785.3941,-234.5284 1842.469,-218.0456 1881.1743,-206.8678"/>
<polygon fill="#191970" stroke="#191970" points="1882.4499,-210.1425 1891.0862,-204.0053 1880.5077,-203.4173 1882.4499,-210.1425"/>
</g>
<!-- Node25&#45;&gt;Node17 -->
<g id="edge29" class="edge">
<title>Node25&#45;&gt;Node17</title>
<path fill="none" stroke="#191970" d="M1587.2235,-185.7084C1602.494,-183.2306 1619.4071,-180.7395 1635,-179 1884.6283,-151.1519 1956.9444,-210.0736 2199,-143 2200.6701,-142.5372 2202.3546,-141.9746 2204.0278,-141.3414"/>
<polygon fill="#191970" stroke="#191970" points="2205.6387,-144.4543 2213.3098,-137.1465 2202.7557,-138.0755 2205.6387,-144.4543"/>
</g>
<!-- Node26 -->
<g id="node27" class="node">
<title>Node26</title>
<polygon fill="none" stroke="#bfbfbf" points="1432.5,-56.5 1432.5,-75.5 1479.5,-75.5 1479.5,-56.5 1432.5,-56.5"/>
<text text-anchor="middle" x="1456" y="-63.5" font-family="Helvetica,sans-Serif" font-size="10.00" fill="#000000">cmath</text>
</g>
<!-- Node25&#45;&gt;Node26 -->
<g id="edge30" class="edge">
<title>Node25&#45;&gt;Node26</title>
<path fill="none" stroke="#191970" d="M1505.0308,-184.9881C1496.8919,-182.8342 1488.1657,-180.6877 1480,-179 1426.3252,-167.9064 1271.816,-184.4881 1236,-143 1226.9967,-132.5708 1227.3116,-122.6929 1236,-112 1259.059,-83.6209 1366.272,-72.1397 1422.0593,-68.025"/>
<polygon fill="#191970" stroke="#191970" points="1422.4367,-71.5072 1432.1684,-67.3186 1421.9488,-64.5242 1422.4367,-71.5072"/>
</g>
<!-- Node27 -->
<g id="node28" class="node">
<title>Node27</title>
<g id="a_node28"><a xlink:href="../../df/d21/GPUCommonDef_8h.html" target="_top" xlink:title="GPUCommonDef.h">
<polygon fill="none" stroke="#000000" points="1224.5,-56.5 1224.5,-75.5 1331.5,-75.5 1331.5,-56.5 1224.5,-56.5"/>
<text text-anchor="middle" x="1278" y="-63.5" font-family="Helvetica,sans-Serif" font-size="10.00" fill="#000000">GPUCommonDef.h</text>
</a>
</g>
</g>
<!-- Node25&#45;&gt;Node27 -->
<g id="edge31" class="edge">
<title>Node25&#45;&gt;Node27</title>
<path fill="none" stroke="#191970" d="M1505.0376,-184.9551C1496.8984,-182.8023 1488.1704,-180.6645 1480,-179 1424.1388,-167.6201 1263.3758,-186.0467 1226,-143 1208.8971,-123.3021 1234.1537,-97.7633 1255.0768,-81.6238"/>
<polygon fill="#191970" stroke="#191970" points="1257.3785,-84.2755 1263.3561,-75.528 1253.2282,-78.6386 1257.3785,-84.2755"/>
</g>
<!-- Node30 -->
<g id="node31" class="node">
<title>Node30</title>
<g id="a_node31"><a xlink:href="../../d6/da2/GPUCommonMath_8h.html" target="_top" xlink:title="GPUCommonMath.h">
<polygon fill="none" stroke="#000000" points="1456.5,-118 1456.5,-137 1571.5,-137 1571.5,-118 1456.5,-118"/>
<text text-anchor="middle" x="1514" y="-125" font-family="Helvetica,sans-Serif" font-size="10.00" fill="#000000">GPUCommonMath.h</text>
</a>
</g>
</g>
<!-- Node25&#45;&gt;Node30 -->
<g id="edge34" class="edge">
<title>Node25&#45;&gt;Node30</title>
<path fill="none" stroke="#191970" d="M1534.5614,-184.9005C1530.997,-174.95 1525.3299,-159.1292 1520.8471,-146.6147"/>
<polygon fill="#191970" stroke="#191970" points="1524.0995,-145.3156 1517.4322,-137.0817 1517.5096,-147.6762 1524.0995,-145.3156"/>
</g>
<!-- Node32 -->
<g id="node33" class="node">
<title>Node32</title>
<g id="a_node33"><a xlink:href="../../d6/d84/MathConstants_8h.html" target="_top" xlink:title="useful math constants ">
<polygon fill="none" stroke="#000000" points="1245,-118 1245,-137 1439,-137 1439,-118 1245,-118"/>
<text text-anchor="middle" x="1342" y="-125" font-family="Helvetica,sans-Serif" font-size="10.00" fill="#000000">CommonConstants/MathConstants.h</text>
</a>
</g>
</g>
<!-- Node25&#45;&gt;Node32 -->
<g id="edge38" class="edge">
<title>Node25&#45;&gt;Node32</title>
<path fill="none" stroke="#191970" d="M1509.918,-184.9005C1475.7149,-173.2086 1417.8028,-153.4122 1379.7303,-140.3976"/>
<polygon fill="#191970" stroke="#191970" points="1380.6245,-137.0045 1370.0299,-137.0817 1378.3602,-143.6282 1380.6245,-137.0045"/>
</g>
<!-- Node28 -->
<g id="node29" class="node">
<title>Node28</title>
<g id="a_node29"><a xlink:href="../../d5/d93/GPUCommonDefSettings_8h.html" target="_top" xlink:title="GPUCommonDefSettings.h">
<polygon fill="none" stroke="#000000" points="1127,-.5 1127,-19.5 1275,-19.5 1275,-.5 1127,-.5"/>
<text text-anchor="middle" x="1201" y="-7.5" font-family="Helvetica,sans-Serif" font-size="10.00" fill="#000000">GPUCommonDefSettings.h</text>
</a>
</g>
</g>
<!-- Node27&#45;&gt;Node28 -->
<g id="edge32" class="edge">
<title>Node27&#45;&gt;Node28</title>
<path fill="none" stroke="#191970" d="M1264.5876,-56.2455C1252.9943,-47.814 1236.0252,-35.4729 1222.5322,-25.6598"/>
<polygon fill="#191970" stroke="#191970" points="1224.4047,-22.6938 1214.2587,-19.6427 1220.2874,-28.355 1224.4047,-22.6938"/>
</g>
<!-- Node29 -->
<g id="node30" class="node">
<title>Node29</title>
<g id="a_node30"><a xlink:href="../../da/d5a/GPUCommonDefAPI_8h.html" target="_top" xlink:title="GPUCommonDefAPI.h">
<polygon fill="none" stroke="#000000" points="1293,-.5 1293,-19.5 1417,-19.5 1417,-.5 1293,-.5"/>
<text text-anchor="middle" x="1355" y="-7.5" font-family="Helvetica,sans-Serif" font-size="10.00" fill="#000000">GPUCommonDefAPI.h</text>
</a>
</g>
</g>
<!-- Node27&#45;&gt;Node29 -->
<g id="edge33" class="edge">
<title>Node27&#45;&gt;Node29</title>
<path fill="none" stroke="#191970" d="M1291.4124,-56.2455C1303.0057,-47.814 1319.9748,-35.4729 1333.4678,-25.6598"/>
<polygon fill="#191970" stroke="#191970" points="1335.7126,-28.355 1341.7413,-19.6427 1331.5953,-22.6938 1335.7126,-28.355"/>
</g>
<!-- Node30&#45;&gt;Node26 -->
<g id="edge36" class="edge">
<title>Node30&#45;&gt;Node26</title>
<path fill="none" stroke="#191970" d="M1504.9375,-117.8906C1496.2207,-108.6478 1482.846,-94.466 1472.2804,-83.2628"/>
<polygon fill="#191970" stroke="#191970" points="1474.5976,-80.6186 1465.1903,-75.7449 1469.505,-85.4213 1474.5976,-80.6186"/>
</g>
<!-- Node30&#45;&gt;Node27 -->
<g id="edge35" class="edge">
<title>Node30&#45;&gt;Node27</title>
<path fill="none" stroke="#191970" d="M1477.3839,-117.9581C1436.2189,-107.2308 1369.2899,-89.7895 1324.4709,-78.11"/>
<polygon fill="#191970" stroke="#191970" points="1325.2614,-74.6992 1314.702,-75.5643 1323.4962,-81.473 1325.2614,-74.6992"/>
</g>
<!-- Node31 -->
<g id="node32" class="node">
<title>Node31</title>
<polygon fill="none" stroke="#bfbfbf" points="1539,-56.5 1539,-75.5 1603,-75.5 1603,-56.5 1539,-56.5"/>
<text text-anchor="middle" x="1571" y="-63.5" font-family="Helvetica,sans-Serif" font-size="10.00" fill="#000000">algorithm</text>
</g>
<!-- Node30&#45;&gt;Node31 -->
<g id="edge37" class="edge">
<title>Node30&#45;&gt;Node31</title>
<path fill="none" stroke="#191970" d="M1522.9063,-117.8906C1531.4728,-108.6478 1544.6169,-94.466 1555.0003,-83.2628"/>
<polygon fill="#191970" stroke="#191970" points="1557.7375,-85.4584 1561.9682,-75.7449 1552.6035,-80.7 1557.7375,-85.4584"/>
</g>
<!-- Node33&#45;&gt;Node3 -->
<g id="edge41" class="edge">
<title>Node33&#45;&gt;Node3</title>
<path fill="none" stroke="#191970" d="M1885.34,-184.9717C1874.6049,-182.6559 1862.9022,-180.4356 1852,-179 1752.2294,-165.8621 1035.095,-136.2433 858.3091,-129.0811"/>
<polygon fill="#191970" stroke="#191970" points="858.2944,-125.5778 848.1611,-128.6706 858.0114,-132.5721 858.2944,-125.5778"/>
</g>
<!-- Node33&#45;&gt;Node20 -->
<g id="edge42" class="edge">
<title>Node33&#45;&gt;Node20</title>
<path fill="none" stroke="#191970" d="M1987.8422,-186.7279C2070.3925,-176.325 2209.4441,-157.5035 2259,-143 2261.1247,-142.3782 2263.2891,-141.6557 2265.4468,-140.8693"/>
<polygon fill="#191970" stroke="#191970" points="2266.7575,-144.1147 2274.7209,-137.1265 2264.1377,-137.6234 2266.7575,-144.1147"/>
</g>
<!-- Node33&#45;&gt;Node21 -->
<g id="edge40" class="edge">
<title>Node33&#45;&gt;Node21</title>
<path fill="none" stroke="#191970" d="M1881.0309,-184.981C1871.4866,-182.9417 1861.4103,-180.8467 1852,-179 1762.085,-161.355 1736.4933,-170.2207 1649,-143 1647.0952,-142.4074 1645.1575,-141.7335 1643.2222,-141.0064"/>
<polygon fill="#191970" stroke="#191970" points="1644.3072,-137.6671 1633.7299,-137.0577 1641.6186,-144.1302 1644.3072,-137.6671"/>
</g>
<!-- Node33&#45;&gt;Node23 -->
<g id="edge46" class="edge">
<title>Node33&#45;&gt;Node23</title>
<path fill="none" stroke="#191970" d="M1879.2515,-184.9309C1826.3247,-173.3942 1741.5512,-154.1673 1711,-143 1709.5871,-142.4836 1708.1546,-141.9202 1706.7196,-141.3239"/>
<polygon fill="#191970" stroke="#191970" points="1707.949,-138.0375 1697.3992,-137.0617 1705.0378,-144.4035 1707.949,-138.0375"/>
</g>
<!-- Node33&#45;&gt;Node31 -->
<g id="edge44" class="edge">
<title>Node33&#45;&gt;Node31</title>
<path fill="none" stroke="#191970" d="M1947.2073,-184.9002C1980.2229,-169.9425 2034.1142,-139.8899 2009,-112 1982.8144,-82.9203 1718.4103,-70.933 1613.5325,-67.2974"/>
<polygon fill="#191970" stroke="#191970" points="1613.42,-63.7917 1603.3075,-66.952 1613.1836,-70.7877 1613.42,-63.7917"/>
</g>
<!-- Node34 -->
<g id="node35" class="node">
<title>Node34</title>
<polygon fill="none" stroke="#bfbfbf" points="2056,-118 2056,-137 2106,-137 2106,-118 2056,-118"/>
<text text-anchor="middle" x="2081" y="-125" font-family="Helvetica,sans-Serif" font-size="10.00" fill="#000000">cstring</text>
</g>
<!-- Node33&#45;&gt;Node34 -->
<g id="edge43" class="edge">
<title>Node33&#45;&gt;Node34</title>
<path fill="none" stroke="#191970" d="M1946.4943,-184.9005C1973.4253,-173.4077 2018.7067,-154.0838 2049.2064,-141.068"/>
<polygon fill="#191970" stroke="#191970" points="2050.7237,-144.2259 2058.5475,-137.0817 2047.9762,-137.7876 2050.7237,-144.2259"/>
</g>
<!-- Node35 -->
<g id="node36" class="node">
<title>Node35</title>
<polygon fill="none" stroke="#bfbfbf" points="2124.5,-118 2124.5,-137 2189.5,-137 2189.5,-118 2124.5,-118"/>
<text text-anchor="middle" x="2157" y="-125" font-family="Helvetica,sans-Serif" font-size="10.00" fill="#000000">stdexcept</text>
</g>
<!-- Node33&#45;&gt;Node35 -->
<g id="edge45" class="edge">
<title>Node33&#45;&gt;Node35</title>
<path fill="none" stroke="#191970" d="M1963.4421,-184.9708C2002.2757,-175.3298 2063.134,-159.5259 2115,-143 2117.5503,-142.1874 2120.1745,-141.313 2122.8065,-140.408"/>
<polygon fill="#191970" stroke="#191970" points="2124.0022,-143.6976 2132.2546,-137.0531 2121.6599,-137.1011 2124.0022,-143.6976"/>
</g>
<!-- Node36 -->
<g id="node37" class="node">
<title>Node36</title>
<polygon fill="none" stroke="#bfbfbf" points="1720,-118 1720,-137 1770,-137 1770,-118 1720,-118"/>
<text text-anchor="middle" x="1745" y="-125" font-family="Helvetica,sans-Serif" font-size="10.00" fill="#000000">climits</text>
</g>
<!-- Node33&#45;&gt;Node36 -->
<g id="edge47" class="edge">
<title>Node33&#45;&gt;Node36</title>
<path fill="none" stroke="#191970" d="M1894.8366,-184.9689C1865.3571,-175.1418 1818.6219,-159.0328 1779,-143 1777.6094,-142.4373 1776.1925,-141.8498 1774.7656,-141.2465"/>
<polygon fill="#191970" stroke="#191970" points="1775.9362,-137.9383 1765.372,-137.133 1773.1282,-144.3504 1775.9362,-137.9383"/>
</g>
<!-- Node37 -->
<g id="node38" class="node">
<title>Node37</title>
<g id="a_node38"><a xlink:href="../../d7/df8/Types_8h.html" target="_top" xlink:title="MemoryResources/Types.h">
<polygon fill="none" stroke="#000000" points="1788,-118 1788,-137 1934,-137 1934,-118 1788,-118"/>
<text text-anchor="middle" x="1861" y="-125" font-family="Helvetica,sans-Serif" font-size="10.00" fill="#000000">MemoryResources/Types.h</text>
</a>
</g>
</g>
<!-- Node33&#45;&gt;Node37 -->
<g id="edge48" class="edge">
<title>Node33&#45;&gt;Node37</title>
<path fill="none" stroke="#191970" d="M1914.9736,-184.9005C1905.0558,-174.353 1888.9359,-157.2096 1876.8909,-144.3998"/>
<polygon fill="#191970" stroke="#191970" points="1879.4097,-141.9693 1870.0096,-137.0817 1874.3101,-146.7645 1879.4097,-141.9693"/>
</g>
<!-- Node38 -->
<g id="node39" class="node">
<title>Node38</title>
<polygon fill="none" stroke="#bfbfbf" points="1952.5,-118 1952.5,-137 1999.5,-137 1999.5,-118 1952.5,-118"/>
<text text-anchor="middle" x="1976" y="-125" font-family="Helvetica,sans-Serif" font-size="10.00" fill="#000000">cerrno</text>
</g>
<!-- Node33&#45;&gt;Node38 -->
<g id="edge49" class="edge">
<title>Node33&#45;&gt;Node38</title>
<path fill="none" stroke="#191970" d="M1931.4503,-184.9005C1939.4821,-174.552 1952.4415,-157.8542 1962.3174,-145.1295"/>
<polygon fill="#191970" stroke="#191970" points="1965.1972,-147.1275 1968.5635,-137.0817 1959.6672,-142.8356 1965.1972,-147.1275"/>
</g>
<!-- Node39&#45;&gt;Node10 -->
<g id="edge58" class="edge">
<title>Node39&#45;&gt;Node10</title>
<path fill="none" stroke="#191970" d="M887.356,-260.7C712.7375,-258.1109 250.1611,-247.7856 102,-210 100.022,-209.4955 98.0186,-208.8722 96.0277,-208.1679"/>
<polygon fill="#191970" stroke="#191970" points="96.9291,-204.7525 86.3516,-204.1479 94.2435,-211.2168 96.9291,-204.7525"/>
</g>
<!-- Node39&#45;&gt;Node16 -->
<g id="edge56" class="edge">
<title>Node39&#45;&gt;Node16</title>
<path fill="none" stroke="#191970" d="M1022.7365,-257.4798C1100.4027,-251.716 1231.0423,-238.4765 1340,-210 1342.6192,-209.3155 1345.2997,-208.5031 1347.9685,-207.6145"/>
<polygon fill="#191970" stroke="#191970" points="1349.2575,-210.8699 1357.4519,-204.1541 1346.858,-204.294 1349.2575,-210.8699"/>
</g>
<!-- Node40 -->
<g id="node41" class="node">
<title>Node40</title>
<polygon fill="none" stroke="#bfbfbf" points="303,-179.5 303,-209.5 467,-209.5 467,-179.5 303,-179.5"/>
<text text-anchor="start" x="311" y="-197.5" font-family="Helvetica,sans-Serif" font-size="10.00" fill="#000000">Math/GenVector/Displacement</text>
<text text-anchor="middle" x="385" y="-186.5" font-family="Helvetica,sans-Serif" font-size="10.00" fill="#000000">Vector3D.h</text>
</g>
<!-- Node39&#45;&gt;Node40 -->
<g id="edge51" class="edge">
<title>Node39&#45;&gt;Node40</title>
<path fill="none" stroke="#191970" d="M887.4122,-255.5562C796.5037,-247.2667 629.5875,-231.0114 477.3126,-210.1344"/>
<polygon fill="#191970" stroke="#191970" points="477.6894,-206.6533 467.3047,-208.7526 476.732,-213.5875 477.6894,-206.6533"/>
</g>
<!-- Node41 -->
<g id="node42" class="node">
<title>Node41</title>
<polygon fill="none" stroke="#bfbfbf" points="485.5,-185 485.5,-204 674.5,-204 674.5,-185 485.5,-185"/>
<text text-anchor="middle" x="580" y="-192" font-family="Helvetica,sans-Serif" font-size="10.00" fill="#000000">Math/GenVector/PositionVector3D.h</text>
</g>
<!-- Node39&#45;&gt;Node41 -->
<g id="edge52" class="edge">
<title>Node39&#45;&gt;Node41</title>
<path fill="none" stroke="#191970" d="M901.6699,-251.9717C833.5933,-239.8087 715.9635,-218.7921 643.3821,-205.8243"/>
<polygon fill="#191970" stroke="#191970" points="643.9091,-202.3631 633.4494,-204.0496 642.6779,-209.254 643.9091,-202.3631"/>
</g>
<!-- Node42 -->
<g id="node43" class="node">
<title>Node42</title>
<polygon fill="none" stroke="#bfbfbf" points="693,-185 693,-204 853,-204 853,-185 693,-185"/>
<text text-anchor="middle" x="773" y="-192" font-family="Helvetica,sans-Serif" font-size="10.00" fill="#000000">Math/GenVector/Rotation3D.h</text>
</g>
<!-- Node39&#45;&gt;Node42 -->
<g id="edge53" class="edge">
<title>Node39&#45;&gt;Node42</title>
<path fill="none" stroke="#191970" d="M928.9238,-251.9005C897.2989,-240.2584 843.8456,-220.5805 808.4876,-207.5641"/>
<polygon fill="#191970" stroke="#191970" points="809.6213,-204.2519 799.0278,-204.0817 807.203,-210.8209 809.6213,-204.2519"/>
</g>
<!-- Node43 -->
<g id="node44" class="node">
<title>Node43</title>
<polygon fill="none" stroke="#bfbfbf" points="871,-185 871,-204 1039,-204 1039,-185 871,-185"/>
<text text-anchor="middle" x="955" y="-192" font-family="Helvetica,sans-Serif" font-size="10.00" fill="#000000">Math/GenVector/Transform3D.h</text>
</g>
<!-- Node39&#45;&gt;Node43 -->
<g id="edge54" class="edge">
<title>Node39&#45;&gt;Node43</title>
<path fill="none" stroke="#191970" d="M955,-251.9005C955,-242.149 955,-226.7597 955,-214.3695"/>
<polygon fill="#191970" stroke="#191970" points="958.5001,-214.0816 955,-204.0817 951.5001,-214.0817 958.5001,-214.0816"/>
</g>
<!-- Node44 -->
<g id="node45" class="node">
<title>Node44</title>
<polygon fill="none" stroke="#bfbfbf" points="1057.5,-185 1057.5,-204 1230.5,-204 1230.5,-185 1057.5,-185"/>
<text text-anchor="middle" x="1144" y="-192" font-family="Helvetica,sans-Serif" font-size="10.00" fill="#000000">Math/GenVector/Translation3D.h</text>
</g>
<!-- Node39&#45;&gt;Node44 -->
<g id="edge55" class="edge">
<title>Node39&#45;&gt;Node44</title>
<path fill="none" stroke="#191970" d="M982.0791,-251.9005C1014.9203,-240.2584 1070.4296,-220.5805 1107.1475,-207.5641"/>
<polygon fill="#191970" stroke="#191970" points="1108.7153,-210.7218 1116.9711,-204.0817 1106.3764,-204.1241 1108.7153,-210.7218"/>
</g>
<!-- Node45 -->
<g id="node46" class="node">
<title>Node45</title>
<polygon fill="none" stroke="#bfbfbf" points="1249,-185 1249,-204 1331,-204 1331,-185 1249,-185"/>
<text text-anchor="middle" x="1290" y="-192" font-family="Helvetica,sans-Serif" font-size="10.00" fill="#000000">TGeoMatrix.h</text>
</g>
<!-- Node39&#45;&gt;Node45 -->
<g id="edge57" class="edge">
<title>Node39&#45;&gt;Node45</title>
<path fill="none" stroke="#191970" d="M1019.4537,-251.9922C1077.3073,-242.9421 1164.3575,-228.0465 1239,-210 1242.8861,-209.0605 1246.913,-207.9966 1250.9226,-206.8771"/>
<polygon fill="#191970" stroke="#191970" points="1252.1366,-210.1692 1260.7636,-204.0189 1250.1842,-203.447 1252.1366,-210.1692"/>
</g>
<!-- Node46 -->
<g id="node47" class="node">
<title>Node46</title>
<g id="a_node47"><a xlink:href="../../d2/dd0/Cartesian2D_8h.html" target="_top" xlink:title="MathUtils/Cartesian2D.h">
<polygon fill="none" stroke="#000000" points="111.5,-185 111.5,-204 246.5,-204 246.5,-185 111.5,-185"/>
<text text-anchor="middle" x="179" y="-192" font-family="Helvetica,sans-Serif" font-size="10.00" fill="#000000">MathUtils/Cartesian2D.h</text>
</a>
</g>
</g>
<!-- Node39&#45;&gt;Node46 -->
<g id="edge59" class="edge">
<title>Node39&#45;&gt;Node46</title>
<path fill="none" stroke="#191970" d="M887.324,-257.4875C767.5194,-250.1032 510.33,-232.9878 294,-210 281.4332,-208.6646 268.12,-207.053 255.1807,-205.3807"/>
<polygon fill="#191970" stroke="#191970" points="255.276,-201.8632 244.9053,-204.0306 254.3641,-208.8035 255.276,-201.8632"/>
</g>
<!-- Node47 -->
<g id="node48" class="node">
<title>Node47</title>
<polygon fill="none" stroke="#bfbfbf" points="0,-112.5 0,-142.5 164,-142.5 164,-112.5 0,-112.5"/>
<text text-anchor="start" x="8" y="-130.5" font-family="Helvetica,sans-Serif" font-size="10.00" fill="#000000">Math/GenVector/Displacement</text>
<text text-anchor="middle" x="82" y="-119.5" font-family="Helvetica,sans-Serif" font-size="10.00" fill="#000000">Vector2D.h</text>
</g>
<!-- Node46&#45;&gt;Node47 -->
<g id="edge60" class="edge">
<title>Node46&#45;&gt;Node47</title>
<path fill="none" stroke="#191970" d="M165.1023,-184.9005C151.3265,-175.3853 129.7795,-160.5023 112.0779,-148.2755"/>
<polygon fill="#191970" stroke="#191970" points="113.9651,-145.3253 103.7479,-142.5218 109.9868,-151.0849 113.9651,-145.3253"/>
</g>
<!-- Node48 -->
<g id="node49" class="node">
<title>Node48</title>
<polygon fill="none" stroke="#bfbfbf" points="182.5,-118 182.5,-137 371.5,-137 371.5,-118 182.5,-118"/>
<text text-anchor="middle" x="277" y="-125" font-family="Helvetica,sans-Serif" font-size="10.00" fill="#000000">Math/GenVector/PositionVector2D.h</text>
</g>
<!-- Node46&#45;&gt;Node48 -->
<g id="edge61" class="edge">
<title>Node46&#45;&gt;Node48</title>
<path fill="none" stroke="#191970" d="M193.041,-184.9005C209.1238,-173.9052 235.6906,-155.7422 254.6316,-142.7927"/>
<polygon fill="#191970" stroke="#191970" points="256.7052,-145.6148 262.985,-137.0817 252.7545,-139.8362 256.7052,-145.6148"/>
</g>
<!-- Node49&#45;&gt;Node4 -->
<g id="edge66" class="edge">
<title>Node49&#45;&gt;Node4</title>
<path fill="none" stroke="#191970" d="M1369.8488,-503.3733C1396.6703,-494.1016 1437.4127,-480.0178 1466.9598,-469.804"/>
<polygon fill="#191970" stroke="#191970" points="1468.2069,-473.0762 1476.5146,-466.5011 1465.9198,-466.4603 1468.2069,-473.0762"/>
</g>
<!-- Node50 -->
<g id="node51" class="node">
<title>Node50</title>
<polygon fill="none" stroke="#bfbfbf" points="1262,-447.5 1262,-466.5 1332,-466.5 1332,-447.5 1262,-447.5"/>
<text text-anchor="middle" x="1297" y="-454.5" font-family="Helvetica,sans-Serif" font-size="10.00" fill="#000000">TMatrixD.h</text>
</g>
<!-- Node49&#45;&gt;Node50 -->
<g id="edge64" class="edge">
<title>Node49&#45;&gt;Node50</title>
<path fill="none" stroke="#191970" d="M1334.1616,-503.2455C1327.838,-495.3761 1318.7776,-484.101 1311.1864,-474.6542"/>
<polygon fill="#191970" stroke="#191970" points="1313.7408,-472.2454 1304.7486,-466.6427 1308.2842,-476.6302 1313.7408,-472.2454"/>
</g>
<!-- Node51 -->
<g id="node52" class="node">
<title>Node51</title>
<polygon fill="none" stroke="#bfbfbf" points="1350,-447.5 1350,-466.5 1406,-466.5 1406,-447.5 1350,-447.5"/>
<text text-anchor="middle" x="1378" y="-454.5" font-family="Helvetica,sans-Serif" font-size="10.00" fill="#000000">TMath.h</text>
</g>
<!-- Node49&#45;&gt;Node51 -->
<g id="edge65" class="edge">
<title>Node49&#45;&gt;Node51</title>
<path fill="none" stroke="#191970" d="M1348.2707,-503.2455C1353.2264,-495.5367 1360.283,-484.5598 1366.2776,-475.2348"/>
<polygon fill="#191970" stroke="#191970" points="1369.3376,-476.9471 1371.8011,-466.6427 1363.4494,-473.1618 1369.3376,-476.9471"/>
</g>
<!-- Node52 -->
<g id="node53" class="node">
<title>Node52</title>
<g id="a_node53"><a xlink:href="../../dc/de5/Detectors_2ITSMFT_2MFT_2base_2include_2MFTBase_2Constants_8h.html" target="_top" xlink:title="MFTBase/Constants.h">
<polygon fill="none" stroke="#000000" points="1277.5,-386 1277.5,-405 1398.5,-405 1398.5,-386 1277.5,-386"/>
<text text-anchor="middle" x="1338" y="-393" font-family="Helvetica,sans-Serif" font-size="10.00" fill="#000000">MFTBase/Constants.h</text>
</a>
</g>
</g>
<!-- Node49&#45;&gt;Node52 -->
<g id="edge67" class="edge">
<title>Node49&#45;&gt;Node52</title>
<path fill="none" stroke="#191970" d="M1303.9024,-503.4497C1285.1054,-496.6063 1264.1252,-485.2734 1253,-467 1237.7079,-441.8823 1270.7961,-421.3178 1300.0519,-408.7949"/>
<polygon fill="#191970" stroke="#191970" points="1301.4035,-412.0237 1309.3497,-405.016 1298.7678,-405.5388 1301.4035,-412.0237"/>
</g>
<!-- Node52&#45;&gt;Node16 -->
<g id="edge68" class="edge">
<title>Node52&#45;&gt;Node16</title>
<path fill="none" stroke="#191970" d="M1340.7254,-385.7382C1346.2832,-365.5633 1359.0692,-317.7482 1367,-277 1371.1338,-255.7604 1374.5319,-231.1924 1376.6438,-214.427"/>
<polygon fill="#191970" stroke="#191970" points="1380.1542,-214.5543 1377.8936,-204.2035 1373.2059,-213.7048 1380.1542,-214.5543"/>
</g>
<!-- Node53&#45;&gt;Node15 -->
<g id="edge70" class="edge">
<title>Node53&#45;&gt;Node15</title>
<path fill="none" stroke="#191970" d="M1208.7871,-380.4045C1217.2623,-370.2589 1228.5236,-356.5059 1238,-344 1254.4164,-322.3357 1272.2525,-296.6063 1283.7488,-279.7099"/>
<polygon fill="#191970" stroke="#191970" points="1286.7253,-281.5565 1289.4341,-271.3137 1280.9291,-277.6316 1286.7253,-281.5565"/>
</g>
</g>
</svg>
