<?xml version="1.0" encoding="UTF-8" standalone="no"?>
<!DOCTYPE svg PUBLIC "-//W3C//DTD SVG 1.1//EN"
 "http://www.w3.org/Graphics/SVG/1.1/DTD/svg11.dtd">
<!-- Generated by graphviz version 2.40.1 (20161225.0304)
 -->
<!-- Title: /home/travis/build/AliceO2Group/AliceO2/Utilities/rANS/include/rANS/ReverseSymbolLookupTable.h Pages: 1 -->
<svg width="496pt" height="173pt"
 viewBox="0.00 0.00 496.00 173.00" xmlns="http://www.w3.org/2000/svg" xmlns:xlink="http://www.w3.org/1999/xlink">
<g id="graph0" class="graph" transform="scale(1 1) rotate(0) translate(4 169)">
<title>/home/travis/build/AliceO2Group/AliceO2/Utilities/rANS/include/rANS/ReverseSymbolLookupTable.h</title>
<!-- Node0 -->
<g id="node1" class="node">
<title>Node0</title>
<polygon fill="#bfbfbf" stroke="#000000" points="77.5,-112.5 77.5,-164.5 269.5,-164.5 269.5,-112.5 77.5,-112.5"/>
<text text-anchor="start" x="85.5" y="-152.5" font-family="Helvetica,sans-Serif" font-size="10.00" fill="#000000">/home/travis/build</text>
<text text-anchor="start" x="85.5" y="-141.5" font-family="Helvetica,sans-Serif" font-size="10.00" fill="#000000">/AliceO2Group/AliceO2</text>
<text text-anchor="start" x="85.5" y="-130.5" font-family="Helvetica,sans-Serif" font-size="10.00" fill="#000000">/Utilities/rANS/include</text>
<text text-anchor="middle" x="173.5" y="-119.5" font-family="Helvetica,sans-Serif" font-size="10.00" fill="#000000">/rANS/ReverseSymbolLookupTable.h</text>
</g>
<!-- Node1 -->
<g id="node2" class="node">
<title>Node1</title>
<polygon fill="none" stroke="#bfbfbf" points="0,-.5 0,-19.5 47,-19.5 47,-.5 0,-.5"/>
<text text-anchor="middle" x="23.5" y="-7.5" font-family="Helvetica,sans-Serif" font-size="10.00" fill="#000000">vector</text>
</g>
<!-- Node0&#45;&gt;Node1 -->
<g id="edge1" class="edge">
<title>Node0&#45;&gt;Node1</title>
<path fill="none" stroke="#191970" d="M143.1453,-112.4961C112.9958,-86.6681 67.7126,-47.8754 42.3811,-26.1748"/>
<polygon fill="#191970" stroke="#191970" points="44.4775,-23.362 34.606,-19.5142 39.9233,-28.6781 44.4775,-23.362"/>
</g>
<!-- Node2 -->
<g id="node3" class="node">
<title>Node2</title>
<g id="a_node3"><a xlink:href="../../d0/d51/SymbolStatistics_8h.html" target="_top" xlink:title="Structure to depict the distribution of symbols in the source message. ">
<polygon fill="none" stroke="#000000" points="120,-56.5 120,-75.5 227,-75.5 227,-56.5 120,-56.5"/>
<text text-anchor="middle" x="173.5" y="-63.5" font-family="Helvetica,sans-Serif" font-size="10.00" fill="#000000">SymbolStatistics.h</text>
</a>
</g>
</g>
<!-- Node0&#45;&gt;Node2 -->
<g id="edge2" class="edge">
<title>Node0&#45;&gt;Node2</title>
<path fill="none" stroke="#191970" d="M173.5,-112.3258C173.5,-103.5142 173.5,-93.8397 173.5,-85.621"/>
<polygon fill="#191970" stroke="#191970" points="177.0001,-85.534 173.5,-75.534 170.0001,-85.534 177.0001,-85.534"/>
</g>
<!-- Node7 -->
<g id="node8" class="node">
<title>Node7</title>
<g id="a_node8"><a xlink:href="../../d4/da1/helper_8h.html" target="_top" xlink:title="various helper functions ">
<polygon fill="none" stroke="#000000" points="368.5,-56.5 368.5,-75.5 424.5,-75.5 424.5,-56.5 368.5,-56.5"/>
<text text-anchor="middle" x="396.5" y="-63.5" font-family="Helvetica,sans-Serif" font-size="10.00" fill="#000000">helper.h</text>
</a>
</g>
</g>
<!-- Node0&#45;&gt;Node7 -->
<g id="edge8" class="edge">
<title>Node0&#45;&gt;Node7</title>
<path fill="none" stroke="#191970" d="M253.6931,-112.4283C289.5479,-100.7714 330.1029,-87.5865 358.8086,-78.2539"/>
<polygon fill="#191970" stroke="#191970" points="360.013,-81.5428 368.4409,-75.1224 357.8487,-74.8858 360.013,-81.5428"/>
</g>
<!-- Node2&#45;&gt;Node1 -->
<g id="edge7" class="edge">
<title>Node2&#45;&gt;Node1</title>
<path fill="none" stroke="#191970" d="M147.7141,-56.3733C122.6477,-47.0151 84.45,-32.7547 57.0336,-22.5192"/>
<polygon fill="#191970" stroke="#191970" points="58.0575,-19.1656 47.465,-18.9469 55.6092,-25.7235 58.0575,-19.1656"/>
</g>
<!-- Node3 -->
<g id="node4" class="node">
<title>Node3</title>
<polygon fill="none" stroke="#bfbfbf" points="65.5,-.5 65.5,-19.5 129.5,-19.5 129.5,-.5 65.5,-.5"/>
<text text-anchor="middle" x="97.5" y="-7.5" font-family="Helvetica,sans-Serif" font-size="10.00" fill="#000000">algorithm</text>
</g>
<!-- Node2&#45;&gt;Node3 -->
<g id="edge3" class="edge">
<title>Node2&#45;&gt;Node3</title>
<path fill="none" stroke="#191970" d="M160.2618,-56.2455C148.819,-47.814 132.0704,-35.4729 118.7525,-25.6598"/>
<polygon fill="#191970" stroke="#191970" points="120.7133,-22.757 110.5865,-19.6427 116.5609,-28.3924 120.7133,-22.757"/>
</g>
<!-- Node4 -->
<g id="node5" class="node">
<title>Node4</title>
<polygon fill="none" stroke="#bfbfbf" points="147.5,-.5 147.5,-19.5 199.5,-19.5 199.5,-.5 147.5,-.5"/>
<text text-anchor="middle" x="173.5" y="-7.5" font-family="Helvetica,sans-Serif" font-size="10.00" fill="#000000">cassert</text>
</g>
<!-- Node2&#45;&gt;Node4 -->
<g id="edge4" class="edge">
<title>Node2&#45;&gt;Node4</title>
<path fill="none" stroke="#191970" d="M173.5,-56.2455C173.5,-48.9382 173.5,-38.6944 173.5,-29.7046"/>
<polygon fill="#191970" stroke="#191970" points="177.0001,-29.6426 173.5,-19.6427 170.0001,-29.6427 177.0001,-29.6426"/>
</g>
<!-- Node5 -->
<g id="node6" class="node">
<title>Node5</title>
<polygon fill="none" stroke="#bfbfbf" points="217.5,-.5 217.5,-19.5 277.5,-19.5 277.5,-.5 217.5,-.5"/>
<text text-anchor="middle" x="247.5" y="-7.5" font-family="Helvetica,sans-Serif" font-size="10.00" fill="#000000">iostream</text>
</g>
<!-- Node2&#45;&gt;Node5 -->
<g id="edge5" class="edge">
<title>Node2&#45;&gt;Node5</title>
<path fill="none" stroke="#191970" d="M186.3898,-56.2455C197.4254,-47.8943 213.5292,-35.7076 226.4353,-25.9408"/>
<polygon fill="#191970" stroke="#191970" points="228.8959,-28.4681 234.7579,-19.6427 224.6717,-22.8862 228.8959,-28.4681"/>
</g>
<!-- Node6 -->
<g id="node7" class="node">
<title>Node6</title>
<polygon fill="none" stroke="#bfbfbf" points="295.5,-.5 295.5,-19.5 351.5,-19.5 351.5,-.5 295.5,-.5"/>
<text text-anchor="middle" x="323.5" y="-7.5" font-family="Helvetica,sans-Serif" font-size="10.00" fill="#000000">numeric</text>
</g>
<!-- Node2&#45;&gt;Node6 -->
<g id="edge6" class="edge">
<title>Node2&#45;&gt;Node6</title>
<path fill="none" stroke="#191970" d="M199.2859,-56.3733C223.9047,-47.1822 261.19,-33.2624 288.4875,-23.0713"/>
<polygon fill="#191970" stroke="#191970" points="289.9063,-26.2777 298.0506,-19.5011 287.458,-19.7198 289.9063,-26.2777"/>
</g>
<!-- Node8 -->
<g id="node9" class="node">
<title>Node8</title>
<polygon fill="none" stroke="#bfbfbf" points="370,-.5 370,-19.5 423,-19.5 423,-.5 370,-.5"/>
<text text-anchor="middle" x="396.5" y="-7.5" font-family="Helvetica,sans-Serif" font-size="10.00" fill="#000000">cstddef</text>
</g>
<!-- Node7&#45;&gt;Node8 -->
<g id="edge9" class="edge">
<title>Node7&#45;&gt;Node8</title>
<path fill="none" stroke="#191970" d="M396.5,-56.2455C396.5,-48.9382 396.5,-38.6944 396.5,-29.7046"/>
<polygon fill="#191970" stroke="#191970" points="400.0001,-29.6426 396.5,-19.6427 393.0001,-29.6427 400.0001,-29.6426"/>
</g>
<!-- Node9 -->
<g id="node10" class="node">
<title>Node9</title>
<polygon fill="none" stroke="#bfbfbf" points="441,-.5 441,-19.5 488,-19.5 488,-.5 441,-.5"/>
<text text-anchor="middle" x="464.5" y="-7.5" font-family="Helvetica,sans-Serif" font-size="10.00" fill="#000000">cmath</text>
</g>
<!-- Node7&#45;&gt;Node9 -->
<g id="edge10" class="edge">
<title>Node7&#45;&gt;Node9</title>
<path fill="none" stroke="#191970" d="M408.3447,-56.2455C418.388,-47.9746 432.9995,-35.9416 444.8004,-26.2232"/>
<polygon fill="#191970" stroke="#191970" points="447.2967,-28.7015 452.791,-19.6427 442.8467,-23.298 447.2967,-28.7015"/>
</g>
</g>
</svg>
