<?xml version="1.0" encoding="UTF-8" standalone="no"?>
<!DOCTYPE svg PUBLIC "-//W3C//DTD SVG 1.1//EN"
 "http://www.w3.org/Graphics/SVG/1.1/DTD/svg11.dtd">
<!-- Generated by graphviz version 2.40.1 (20161225.0304)
 -->
<!-- Title: o2::steer::InteractionSampler Pages: 1 -->
<svg width="722pt" height="1108pt"
 viewBox="0.00 0.00 722.00 1108.00" xmlns="http://www.w3.org/2000/svg" xmlns:xlink="http://www.w3.org/1999/xlink">
<g id="graph0" class="graph" transform="scale(1 1) rotate(0) translate(4 1104)">
<title>o2::steer::InteractionSampler</title>
<!-- Node1 -->
<g id="node1" class="node">
<title>Node1</title>
<polygon fill="#bfbfbf" stroke="#000000" points="157,-.5 157,-288.5 315,-288.5 315,-.5 157,-.5"/>
<text text-anchor="middle" x="236" y="-276.5" font-family="Helvetica,sans-Serif" font-size="10.00" fill="#000000">o2::steer::InteractionSampler</text>
<polyline fill="none" stroke="#000000" points="157,-269.5 315,-269.5 "/>
<text text-anchor="middle" x="236" y="-257.5" font-family="Helvetica,sans-Serif" font-size="10.00" fill="#000000"> </text>
<polyline fill="none" stroke="#000000" points="157,-250.5 315,-250.5 "/>
<text text-anchor="start" x="165" y="-238.5" font-family="Helvetica,sans-Serif" font-size="10.00" fill="#000000">+ generateCollisionTime()</text>
<text text-anchor="start" x="165" y="-227.5" font-family="Helvetica,sans-Serif" font-size="10.00" fill="#000000">+ generateCollisionTimes()</text>
<text text-anchor="start" x="165" y="-216.5" font-family="Helvetica,sans-Serif" font-size="10.00" fill="#000000">+ init()</text>
<text text-anchor="start" x="165" y="-205.5" font-family="Helvetica,sans-Serif" font-size="10.00" fill="#000000">+ setInteractionRate()</text>
<text text-anchor="start" x="165" y="-194.5" font-family="Helvetica,sans-Serif" font-size="10.00" fill="#000000">+ getInteractionRate()</text>
<text text-anchor="start" x="165" y="-183.5" font-family="Helvetica,sans-Serif" font-size="10.00" fill="#000000">+ setFirstIR()</text>
<text text-anchor="start" x="165" y="-172.5" font-family="Helvetica,sans-Serif" font-size="10.00" fill="#000000">+ setMuPerBC()</text>
<text text-anchor="start" x="165" y="-161.5" font-family="Helvetica,sans-Serif" font-size="10.00" fill="#000000">+ getMuPerBC()</text>
<text text-anchor="start" x="165" y="-150.5" font-family="Helvetica,sans-Serif" font-size="10.00" fill="#000000">+ setBCTimeRMS()</text>
<text text-anchor="start" x="165" y="-139.5" font-family="Helvetica,sans-Serif" font-size="10.00" fill="#000000">+ getBCTimeRMS()</text>
<text text-anchor="start" x="165" y="-128.5" font-family="Helvetica,sans-Serif" font-size="10.00" fill="#000000">+ getBunchFilling()</text>
<text text-anchor="start" x="165" y="-117.5" font-family="Helvetica,sans-Serif" font-size="10.00" fill="#000000">+ getBunchFilling()</text>
<text text-anchor="start" x="165" y="-106.5" font-family="Helvetica,sans-Serif" font-size="10.00" fill="#000000">+ setBunchFilling()</text>
<text text-anchor="start" x="165" y="-95.5" font-family="Helvetica,sans-Serif" font-size="10.00" fill="#000000">+ setBunchFilling()</text>
<text text-anchor="start" x="165" y="-84.5" font-family="Helvetica,sans-Serif" font-size="10.00" fill="#000000">+ getBCMin()</text>
<text text-anchor="start" x="165" y="-73.5" font-family="Helvetica,sans-Serif" font-size="10.00" fill="#000000">+ getBCMax()</text>
<text text-anchor="start" x="165" y="-62.5" font-family="Helvetica,sans-Serif" font-size="10.00" fill="#000000">+ print()</text>
<text text-anchor="start" x="165" y="-51.5" font-family="Helvetica,sans-Serif" font-size="10.00" fill="#000000"># simulateInteractingBC()</text>
<text text-anchor="start" x="165" y="-40.5" font-family="Helvetica,sans-Serif" font-size="10.00" fill="#000000"># genPoissonZT()</text>
<text text-anchor="start" x="165" y="-29.5" font-family="Helvetica,sans-Serif" font-size="10.00" fill="#000000"># nextCollidingBC()</text>
<text text-anchor="start" x="165" y="-18.5" font-family="Helvetica,sans-Serif" font-size="10.00" fill="#000000"># warnOrbitWrapped()</text>
<text text-anchor="start" x="165" y="-7.5" font-family="Helvetica,sans-Serif" font-size="10.00" fill="#000000"># ClassDefNV()</text>
</g>
<!-- Node2 -->
<g id="node2" class="node">
<title>Node2</title>
<g id="a_node2"><a xlink:href="../../d4/dc3/classfloat.html" target="_top" xlink:title="{float\n||}">
<polygon fill="none" stroke="#000000" points="0,-446.5 0,-503.5 38,-503.5 38,-446.5 0,-446.5"/>
<text text-anchor="middle" x="19" y="-491.5" font-family="Helvetica,sans-Serif" font-size="10.00" fill="#000000">float</text>
<polyline fill="none" stroke="#000000" points="0,-484.5 38,-484.5 "/>
<text text-anchor="middle" x="19" y="-472.5" font-family="Helvetica,sans-Serif" font-size="10.00" fill="#000000"> </text>
<polyline fill="none" stroke="#000000" points="0,-465.5 38,-465.5 "/>
<text text-anchor="middle" x="19" y="-453.5" font-family="Helvetica,sans-Serif" font-size="10.00" fill="#000000"> </text>
</a>
</g>
</g>
<!-- Node2&#45;&gt;Node1 -->
<g id="edge1" class="edge">
<title>Node2&#45;&gt;Node1</title>
<path fill="none" stroke="#404040" d="M16.1895,-446.3158C14.092,-411.233 14.9295,-351.0838 39,-307 63.8757,-261.4417 107.2021,-223.5664 146.9,-195.8754"/>
<polygon fill="none" stroke="#404040" points="146.9864,-195.8166 149.6903,-189.1316 156.901,-189.0563 154.1971,-195.7413 146.9864,-195.8166"/>
<text text-anchor="middle" x="85.5" y="-376" font-family="Helvetica,sans-Serif" font-size="10.00" fill="#000000"> #mMuBCZTRed</text>
<text text-anchor="middle" x="85.5" y="-365" font-family="Helvetica,sans-Serif" font-size="10.00" fill="#000000">+Sec2NanoSec</text>
<text text-anchor="middle" x="85.5" y="-354" font-family="Helvetica,sans-Serif" font-size="10.00" fill="#000000">#mBCTimeRMS</text>
<text text-anchor="middle" x="85.5" y="-343" font-family="Helvetica,sans-Serif" font-size="10.00" fill="#000000">#mProbInteraction</text>
<text text-anchor="middle" x="85.5" y="-332" font-family="Helvetica,sans-Serif" font-size="10.00" fill="#000000">#mIntRate</text>
<text text-anchor="middle" x="85.5" y="-321" font-family="Helvetica,sans-Serif" font-size="10.00" fill="#000000">#DefIntRate</text>
<text text-anchor="middle" x="85.5" y="-310" font-family="Helvetica,sans-Serif" font-size="10.00" fill="#000000">#mMuBC</text>
</g>
<!-- Node3 -->
<g id="node3" class="node">
<title>Node3</title>
<polygon fill="none" stroke="#bfbfbf" points="120.5,-446.5 120.5,-503.5 149.5,-503.5 149.5,-446.5 120.5,-446.5"/>
<text text-anchor="middle" x="135" y="-491.5" font-family="Helvetica,sans-Serif" font-size="10.00" fill="#000000">int</text>
<polyline fill="none" stroke="#bfbfbf" points="120.5,-484.5 149.5,-484.5 "/>
<text text-anchor="middle" x="135" y="-472.5" font-family="Helvetica,sans-Serif" font-size="10.00" fill="#000000"> </text>
<polyline fill="none" stroke="#bfbfbf" points="120.5,-465.5 149.5,-465.5 "/>
<text text-anchor="middle" x="135" y="-453.5" font-family="Helvetica,sans-Serif" font-size="10.00" fill="#000000"> </text>
</g>
<!-- Node3&#45;&gt;Node1 -->
<g id="edge2" class="edge">
<title>Node3&#45;&gt;Node1</title>
<path fill="none" stroke="#404040" d="M133.6384,-446.4092C132.8295,-412.4462 134.0156,-354.42 148,-307 149.4293,-302.1533 151.0158,-297.2879 152.7348,-292.4244"/>
<polygon fill="none" stroke="#404040" points="152.7705,-292.329 151.126,-285.3079 156.9746,-281.0895 158.619,-288.1106 152.7705,-292.329"/>
<text text-anchor="middle" x="187" y="-354" font-family="Helvetica,sans-Serif" font-size="10.00" fill="#000000"> #mIntBCCache</text>
<text text-anchor="middle" x="187" y="-343" font-family="Helvetica,sans-Serif" font-size="10.00" fill="#000000">#mBCMax</text>
<text text-anchor="middle" x="187" y="-332" font-family="Helvetica,sans-Serif" font-size="10.00" fill="#000000">#mBCMin</text>
</g>
<!-- Node4 -->
<g id="node4" class="node">
<title>Node4</title>
<g id="a_node4"><a xlink:href="../../d6/dca/classo2_1_1BunchFilling.html" target="_top" xlink:title="{o2::BunchFilling\n||+ getNBunches()\l+ testBC()\l+ setBC()\l+ setBCTrain()\l+ setBCTrains()\l+ print()\l+ getPattern()\l+ setDefault()\l+ loadFrom()\l}">
<polygon fill="none" stroke="#000000" points="177,-402.5 177,-547.5 277,-547.5 277,-402.5 177,-402.5"/>
<text text-anchor="middle" x="227" y="-535.5" font-family="Helvetica,sans-Serif" font-size="10.00" fill="#000000">o2::BunchFilling</text>
<polyline fill="none" stroke="#000000" points="177,-528.5 277,-528.5 "/>
<text text-anchor="middle" x="227" y="-516.5" font-family="Helvetica,sans-Serif" font-size="10.00" fill="#000000"> </text>
<polyline fill="none" stroke="#000000" points="177,-509.5 277,-509.5 "/>
<text text-anchor="start" x="185" y="-497.5" font-family="Helvetica,sans-Serif" font-size="10.00" fill="#000000">+ getNBunches()</text>
<text text-anchor="start" x="185" y="-486.5" font-family="Helvetica,sans-Serif" font-size="10.00" fill="#000000">+ testBC()</text>
<text text-anchor="start" x="185" y="-475.5" font-family="Helvetica,sans-Serif" font-size="10.00" fill="#000000">+ setBC()</text>
<text text-anchor="start" x="185" y="-464.5" font-family="Helvetica,sans-Serif" font-size="10.00" fill="#000000">+ setBCTrain()</text>
<text text-anchor="start" x="185" y="-453.5" font-family="Helvetica,sans-Serif" font-size="10.00" fill="#000000">+ setBCTrains()</text>
<text text-anchor="start" x="185" y="-442.5" font-family="Helvetica,sans-Serif" font-size="10.00" fill="#000000">+ print()</text>
<text text-anchor="start" x="185" y="-431.5" font-family="Helvetica,sans-Serif" font-size="10.00" fill="#000000">+ getPattern()</text>
<text text-anchor="start" x="185" y="-420.5" font-family="Helvetica,sans-Serif" font-size="10.00" fill="#000000">+ setDefault()</text>
<text text-anchor="start" x="185" y="-409.5" font-family="Helvetica,sans-Serif" font-size="10.00" fill="#000000">+ loadFrom()</text>
</a>
</g>
</g>
<!-- Node4&#45;&gt;Node1 -->
<g id="edge3" class="edge">
<title>Node4&#45;&gt;Node1</title>
<path fill="none" stroke="#404040" d="M228.9751,-402.4704C229.7933,-372.4241 230.7762,-336.3313 231.7439,-300.7925"/>
<polygon fill="none" stroke="#404040" points="231.7445,-300.7666 227.9094,-294.6599 232.0713,-288.771 235.9064,-294.8777 231.7445,-300.7666"/>
<text text-anchor="middle" x="264" y="-343" font-family="Helvetica,sans-Serif" font-size="10.00" fill="#000000"> #mBCFilling</text>
</g>
<!-- Node5 -->
<g id="node5" class="node">
<title>Node5</title>
<polygon fill="none" stroke="#bfbfbf" points="295,-446.5 295,-503.5 387,-503.5 387,-446.5 295,-446.5"/>
<text text-anchor="middle" x="341" y="-491.5" font-family="Helvetica,sans-Serif" font-size="10.00" fill="#000000">vector&lt; float &gt;</text>
<polyline fill="none" stroke="#bfbfbf" points="295,-484.5 387,-484.5 "/>
<text text-anchor="middle" x="341" y="-472.5" font-family="Helvetica,sans-Serif" font-size="10.00" fill="#000000"> </text>
<polyline fill="none" stroke="#bfbfbf" points="295,-465.5 387,-465.5 "/>
<text text-anchor="middle" x="341" y="-453.5" font-family="Helvetica,sans-Serif" font-size="10.00" fill="#000000"> </text>
</g>
<!-- Node5&#45;&gt;Node1 -->
<g id="edge4" class="edge">
<title>Node5&#45;&gt;Node1</title>
<path fill="none" stroke="#404040" d="M335.2675,-446.4362C328.2223,-412.7448 315.3012,-355.2187 300,-307 299.2778,-304.7241 298.5394,-302.4344 297.7866,-300.134"/>
<polygon fill="none" stroke="#404040" points="297.7201,-299.9352 292.022,-295.5157 293.9099,-288.5561 299.608,-292.9756 297.7201,-299.9352"/>
<text text-anchor="middle" x="355.5" y="-343" font-family="Helvetica,sans-Serif" font-size="10.00" fill="#000000"> #mTimeInBC</text>
</g>
<!-- Node6 -->
<g id="node6" class="node">
<title>Node6</title>
<g id="a_node6"><a xlink:href="../../d8/d98/structo2_1_1InteractionTimeRecord.html" target="_top" xlink:title="{o2::InteractionTimeRecord\n||+ InteractionTimeRecord()\l+ InteractionTimeRecord()\l+ InteractionTimeRecord()\l+ setFromNS()\l+ clear()\l+ print()\l+ ClassDefNV()\l}">
<polygon fill="none" stroke="#000000" points="405,-413.5 405,-536.5 551,-536.5 551,-413.5 405,-413.5"/>
<text text-anchor="middle" x="478" y="-524.5" font-family="Helvetica,sans-Serif" font-size="10.00" fill="#000000">o2::InteractionTimeRecord</text>
<polyline fill="none" stroke="#000000" points="405,-517.5 551,-517.5 "/>
<text text-anchor="middle" x="478" y="-505.5" font-family="Helvetica,sans-Serif" font-size="10.00" fill="#000000"> </text>
<polyline fill="none" stroke="#000000" points="405,-498.5 551,-498.5 "/>
<text text-anchor="start" x="413" y="-486.5" font-family="Helvetica,sans-Serif" font-size="10.00" fill="#000000">+ InteractionTimeRecord()</text>
<text text-anchor="start" x="413" y="-475.5" font-family="Helvetica,sans-Serif" font-size="10.00" fill="#000000">+ InteractionTimeRecord()</text>
<text text-anchor="start" x="413" y="-464.5" font-family="Helvetica,sans-Serif" font-size="10.00" fill="#000000">+ InteractionTimeRecord()</text>
<text text-anchor="start" x="413" y="-453.5" font-family="Helvetica,sans-Serif" font-size="10.00" fill="#000000">+ setFromNS()</text>
<text text-anchor="start" x="413" y="-442.5" font-family="Helvetica,sans-Serif" font-size="10.00" fill="#000000">+ clear()</text>
<text text-anchor="start" x="413" y="-431.5" font-family="Helvetica,sans-Serif" font-size="10.00" fill="#000000">+ print()</text>
<text text-anchor="start" x="413" y="-420.5" font-family="Helvetica,sans-Serif" font-size="10.00" fill="#000000">+ ClassDefNV()</text>
</a>
</g>
</g>
<!-- Node6&#45;&gt;Node1 -->
<g id="edge5" class="edge">
<title>Node6&#45;&gt;Node1</title>
<path fill="none" stroke="#404040" d="M452.7057,-413.3595C437.8519,-380.4145 417.4122,-339.9682 394,-307 373.6198,-278.3014 348.1908,-249.8179 323.7297,-224.9031"/>
<polygon fill="none" stroke="#404040" points="323.5853,-224.7578 316.5188,-223.3205 315.1277,-216.2448 322.1942,-217.6821 323.5853,-224.7578"/>
<text text-anchor="middle" x="454.5" y="-343" font-family="Helvetica,sans-Serif" font-size="10.00" fill="#000000"> #mIR</text>
</g>
<!-- Node7 -->
<g id="node7" class="node">
<title>Node7</title>
<g id="a_node7"><a xlink:href="../../d1/d21/structo2_1_1InteractionRecord.html" target="_top" xlink:title="{o2::InteractionRecord\n||+ InteractionRecord()\l+ InteractionRecord()\l+ InteractionRecord()\l+ InteractionRecord()\l+ clear()\l+ isDummy()\l+ setFromNS()\l+ bc2ns()\l+ operator==()\l+ operator!=()\l+ differenceInBC()\l+ toLong()\l+ operator\&gt;()\l+ operator\&gt;=()\l+ operator\&lt;()\l+ operator\&lt;=()\l+ operator&#45;&#45;()\l+ operator&#45;&#45;()\l+ operator++()\l+ operator++()\l+ operator+=()\l+ operator&#45;=()\l+ operator+=()\l+ operator&#45;=()\l+ operator+()\l+ operator&#45;()\l+ operator+()\l+ operator&#45;()\l+ print()\l+ ClassDefNV()\l+ bc2ns()\l+ ns2bc()\l}">
<polygon fill="none" stroke="#000000" points="507.5,-585.5 507.5,-983.5 628.5,-983.5 628.5,-585.5 507.5,-585.5"/>
<text text-anchor="middle" x="568" y="-971.5" font-family="Helvetica,sans-Serif" font-size="10.00" fill="#000000">o2::InteractionRecord</text>
<polyline fill="none" stroke="#000000" points="507.5,-964.5 628.5,-964.5 "/>
<text text-anchor="middle" x="568" y="-952.5" font-family="Helvetica,sans-Serif" font-size="10.00" fill="#000000"> </text>
<polyline fill="none" stroke="#000000" points="507.5,-945.5 628.5,-945.5 "/>
<text text-anchor="start" x="515.5" y="-933.5" font-family="Helvetica,sans-Serif" font-size="10.00" fill="#000000">+ InteractionRecord()</text>
<text text-anchor="start" x="515.5" y="-922.5" font-family="Helvetica,sans-Serif" font-size="10.00" fill="#000000">+ InteractionRecord()</text>
<text text-anchor="start" x="515.5" y="-911.5" font-family="Helvetica,sans-Serif" font-size="10.00" fill="#000000">+ InteractionRecord()</text>
<text text-anchor="start" x="515.5" y="-900.5" font-family="Helvetica,sans-Serif" font-size="10.00" fill="#000000">+ InteractionRecord()</text>
<text text-anchor="start" x="515.5" y="-889.5" font-family="Helvetica,sans-Serif" font-size="10.00" fill="#000000">+ clear()</text>
<text text-anchor="start" x="515.5" y="-878.5" font-family="Helvetica,sans-Serif" font-size="10.00" fill="#000000">+ isDummy()</text>
<text text-anchor="start" x="515.5" y="-867.5" font-family="Helvetica,sans-Serif" font-size="10.00" fill="#000000">+ setFromNS()</text>
<text text-anchor="start" x="515.5" y="-856.5" font-family="Helvetica,sans-Serif" font-size="10.00" fill="#000000">+ bc2ns()</text>
<text text-anchor="start" x="515.5" y="-845.5" font-family="Helvetica,sans-Serif" font-size="10.00" fill="#000000">+ operator==()</text>
<text text-anchor="start" x="515.5" y="-834.5" font-family="Helvetica,sans-Serif" font-size="10.00" fill="#000000">+ operator!=()</text>
<text text-anchor="start" x="515.5" y="-823.5" font-family="Helvetica,sans-Serif" font-size="10.00" fill="#000000">+ differenceInBC()</text>
<text text-anchor="start" x="515.5" y="-812.5" font-family="Helvetica,sans-Serif" font-size="10.00" fill="#000000">+ toLong()</text>
<text text-anchor="start" x="515.5" y="-801.5" font-family="Helvetica,sans-Serif" font-size="10.00" fill="#000000">+ operator&gt;()</text>
<text text-anchor="start" x="515.5" y="-790.5" font-family="Helvetica,sans-Serif" font-size="10.00" fill="#000000">+ operator&gt;=()</text>
<text text-anchor="start" x="515.5" y="-779.5" font-family="Helvetica,sans-Serif" font-size="10.00" fill="#000000">+ operator&lt;()</text>
<text text-anchor="start" x="515.5" y="-768.5" font-family="Helvetica,sans-Serif" font-size="10.00" fill="#000000">+ operator&lt;=()</text>
<text text-anchor="start" x="515.5" y="-757.5" font-family="Helvetica,sans-Serif" font-size="10.00" fill="#000000">+ operator&#45;&#45;()</text>
<text text-anchor="start" x="515.5" y="-746.5" font-family="Helvetica,sans-Serif" font-size="10.00" fill="#000000">+ operator&#45;&#45;()</text>
<text text-anchor="start" x="515.5" y="-735.5" font-family="Helvetica,sans-Serif" font-size="10.00" fill="#000000">+ operator++()</text>
<text text-anchor="start" x="515.5" y="-724.5" font-family="Helvetica,sans-Serif" font-size="10.00" fill="#000000">+ operator++()</text>
<text text-anchor="start" x="515.5" y="-713.5" font-family="Helvetica,sans-Serif" font-size="10.00" fill="#000000">+ operator+=()</text>
<text text-anchor="start" x="515.5" y="-702.5" font-family="Helvetica,sans-Serif" font-size="10.00" fill="#000000">+ operator&#45;=()</text>
<text text-anchor="start" x="515.5" y="-691.5" font-family="Helvetica,sans-Serif" font-size="10.00" fill="#000000">+ operator+=()</text>
<text text-anchor="start" x="515.5" y="-680.5" font-family="Helvetica,sans-Serif" font-size="10.00" fill="#000000">+ operator&#45;=()</text>
<text text-anchor="start" x="515.5" y="-669.5" font-family="Helvetica,sans-Serif" font-size="10.00" fill="#000000">+ operator+()</text>
<text text-anchor="start" x="515.5" y="-658.5" font-family="Helvetica,sans-Serif" font-size="10.00" fill="#000000">+ operator&#45;()</text>
<text text-anchor="start" x="515.5" y="-647.5" font-family="Helvetica,sans-Serif" font-size="10.00" fill="#000000">+ operator+()</text>
<text text-anchor="start" x="515.5" y="-636.5" font-family="Helvetica,sans-Serif" font-size="10.00" fill="#000000">+ operator&#45;()</text>
<text text-anchor="start" x="515.5" y="-625.5" font-family="Helvetica,sans-Serif" font-size="10.00" fill="#000000">+ print()</text>
<text text-anchor="start" x="515.5" y="-614.5" font-family="Helvetica,sans-Serif" font-size="10.00" fill="#000000">+ ClassDefNV()</text>
<text text-anchor="start" x="515.5" y="-603.5" font-family="Helvetica,sans-Serif" font-size="10.00" fill="#000000">+ bc2ns()</text>
<text text-anchor="start" x="515.5" y="-592.5" font-family="Helvetica,sans-Serif" font-size="10.00" fill="#000000">+ ns2bc()</text>
</a>
</g>
</g>
<!-- Node7&#45;&gt;Node6 -->
<g id="edge6" class="edge">
<title>Node7&#45;&gt;Node6</title>
<path fill="none" stroke="#191970" d="M507.297,-575.7492C503.274,-561.9144 499.4424,-548.7379 495.9552,-536.746"/>
<polygon fill="none" stroke="#191970" points="503.9578,-576.8009 510.1109,-585.4258 510.6794,-574.8462 503.9578,-576.8009"/>
</g>
<!-- Node8 -->
<g id="node8" class="node">
<title>Node8</title>
<polygon fill="none" stroke="#bfbfbf" points="431,-1042.5 431,-1099.5 481,-1099.5 481,-1042.5 431,-1042.5"/>
<text text-anchor="middle" x="456" y="-1087.5" font-family="Helvetica,sans-Serif" font-size="10.00" fill="#000000">double</text>
<polyline fill="none" stroke="#bfbfbf" points="431,-1080.5 481,-1080.5 "/>
<text text-anchor="middle" x="456" y="-1068.5" font-family="Helvetica,sans-Serif" font-size="10.00" fill="#000000"> </text>
<polyline fill="none" stroke="#bfbfbf" points="431,-1061.5 481,-1061.5 "/>
<text text-anchor="middle" x="456" y="-1049.5" font-family="Helvetica,sans-Serif" font-size="10.00" fill="#000000"> </text>
</g>
<!-- Node8&#45;&gt;Node6 -->
<g id="edge10" class="edge">
<title>Node8&#45;&gt;Node6</title>
<path fill="none" stroke="#404040" d="M452.93,-1042.3622C445.4448,-967.0697 428.3928,-757.4776 450,-585 451.4881,-573.1213 453.8467,-560.6859 456.5789,-548.6269"/>
<polygon fill="none" stroke="#404040" points="456.6328,-548.4004 454.1342,-541.6361 459.4172,-536.7279 461.9158,-543.4923 456.6328,-548.4004"/>
<text text-anchor="middle" x="474" y="-782" font-family="Helvetica,sans-Serif" font-size="10.00" fill="#000000"> +timeNS</text>
</g>
<!-- Node8&#45;&gt;Node7 -->
<g id="edge7" class="edge">
<title>Node8&#45;&gt;Node7</title>
<path fill="none" stroke="#404040" d="M467.6094,-1042.4361C474.4723,-1025.4778 483.2994,-1003.5393 491,-984 494.9487,-973.9807 498.9912,-963.6705 503.0555,-953.264"/>
<polygon fill="none" stroke="#404040" points="503.1104,-953.123 501.564,-946.0796 507.4709,-941.9432 509.0172,-948.9866 503.1104,-953.123"/>
<text text-anchor="middle" x="522" y="-1010.5" font-family="Helvetica,sans-Serif" font-size="10.00" fill="#000000"> +DummyTime</text>
</g>
<!-- Node9 -->
<g id="node9" class="node">
<title>Node9</title>
<polygon fill="none" stroke="#bfbfbf" points="543,-1042.5 543,-1099.5 599,-1099.5 599,-1042.5 543,-1042.5"/>
<text text-anchor="middle" x="571" y="-1087.5" font-family="Helvetica,sans-Serif" font-size="10.00" fill="#000000">uint16_t</text>
<polyline fill="none" stroke="#bfbfbf" points="543,-1080.5 599,-1080.5 "/>
<text text-anchor="middle" x="571" y="-1068.5" font-family="Helvetica,sans-Serif" font-size="10.00" fill="#000000"> </text>
<polyline fill="none" stroke="#bfbfbf" points="543,-1061.5 599,-1061.5 "/>
<text text-anchor="middle" x="571" y="-1049.5" font-family="Helvetica,sans-Serif" font-size="10.00" fill="#000000"> </text>
</g>
<!-- Node9&#45;&gt;Node7 -->
<g id="edge8" class="edge">
<title>Node9&#45;&gt;Node7</title>
<path fill="none" stroke="#404040" d="M570.7014,-1042.4819C570.5689,-1029.8265 570.4002,-1013.7234 570.2122,-995.7627"/>
<polygon fill="none" stroke="#404040" points="570.2117,-995.7086 566.1491,-989.7508 570.086,-983.7092 574.1486,-989.667 570.2117,-995.7086"/>
<text text-anchor="middle" x="603" y="-1016" font-family="Helvetica,sans-Serif" font-size="10.00" fill="#000000"> +DummyBC</text>
<text text-anchor="middle" x="603" y="-1005" font-family="Helvetica,sans-Serif" font-size="10.00" fill="#000000">+bc</text>
</g>
<!-- Node10 -->
<g id="node10" class="node">
<title>Node10</title>
<g id="a_node10"><a xlink:href="../../d3/d87/classuint32__t.html" target="_top" xlink:title="{uint32_t\n||}">
<polygon fill="none" stroke="#000000" points="630,-1042.5 630,-1099.5 686,-1099.5 686,-1042.5 630,-1042.5"/>
<text text-anchor="middle" x="658" y="-1087.5" font-family="Helvetica,sans-Serif" font-size="10.00" fill="#000000">uint32_t</text>
<polyline fill="none" stroke="#000000" points="630,-1080.5 686,-1080.5 "/>
<text text-anchor="middle" x="658" y="-1068.5" font-family="Helvetica,sans-Serif" font-size="10.00" fill="#000000"> </text>
<polyline fill="none" stroke="#000000" points="630,-1061.5 686,-1061.5 "/>
<text text-anchor="middle" x="658" y="-1049.5" font-family="Helvetica,sans-Serif" font-size="10.00" fill="#000000"> </text>
</a>
</g>
</g>
<!-- Node10&#45;&gt;Node7 -->
<g id="edge9" class="edge">
<title>Node10&#45;&gt;Node7</title>
<path fill="none" stroke="#404040" d="M649.0414,-1042.4819C644.5772,-1028.2707 638.7472,-1009.712 632.2589,-989.0574"/>
<polygon fill="none" stroke="#404040" points="632.1874,-988.8297 626.573,-984.3043 628.591,-977.3813 634.2053,-981.9067 632.1874,-988.8297"/>
<text text-anchor="middle" x="678" y="-1016" font-family="Helvetica,sans-Serif" font-size="10.00" fill="#000000"> +orbit</text>
<text text-anchor="middle" x="678" y="-1005" font-family="Helvetica,sans-Serif" font-size="10.00" fill="#000000">+DummyOrbit</text>
</g>
</g>
</svg>
