<?xml version="1.0" encoding="UTF-8" standalone="no"?>
<!DOCTYPE svg PUBLIC "-//W3C//DTD SVG 1.1//EN"
 "http://www.w3.org/Graphics/SVG/1.1/DTD/svg11.dtd">
<!-- Generated by graphviz version 2.40.1 (20161225.0304)
 -->
<!-- Title: /home/travis/build/AliceO2Group/AliceO2/Detectors/ITSMFT/common/reconstruction/include/ITSMFTReconstruction/RawPixelReader.h Pages: 1 -->
<!--zoomable 519 -->
<svg id="main" version="1.1" xmlns="http://www.w3.org/2000/svg" xmlns:xlink="http://www.w3.org/1999/xlink" xml:space="preserve" onload="init(evt)">
<style type="text/css"><![CDATA[
.edge:hover path { stroke: red; }
.edge:hover polygon { stroke: red; fill: red; }
]]></style>
<script type="text/javascript"><![CDATA[
var edges = document.getElementsByTagName('g');
if (edges && edges.length) {
  for (var i=0;i<edges.length;i++) {
    if (edges[i].id.substr(0,4)=='edge') {
      edges[i].setAttribute('class','edge');
    }
  }
}
]]></script>
        <defs>
                <circle id="rim" cx="0" cy="0" r="7"/>
                <circle id="rim2" cx="0" cy="0" r="3.5"/>
                <g id="zoomPlus">
                        <use xlink:href="#rim" fill="#404040">
                                <set attributeName="fill" to="#808080" begin="zoomplus.mouseover" end="zoomplus.mouseout"/>
                        </use>
                        <path d="M-4,0h8M0,-4v8" fill="none" stroke="white" stroke-width="1.5" pointer-events="none"/>
                </g>
                <g id="zoomMin">
                        <use xlink:href="#rim" fill="#404040">
                                <set attributeName="fill" to="#808080" begin="zoomminus.mouseover" end="zoomminus.mouseout"/>
                        </use>
                        <path d="M-4,0h8" fill="none" stroke="white" stroke-width="1.5" pointer-events="none"/>
                </g>
                <g id="dirArrow">
                        <path fill="none" stroke="white" stroke-width="1.5" d="M0,-3.0v7 M-2.5,-0.5L0,-3.0L2.5,-0.5"/>
                </g>
               <g id="resetDef">
                       <use xlink:href="#rim2" fill="#404040">
                               <set attributeName="fill" to="#808080" begin="reset.mouseover" end="reset.mouseout"/>
                       </use>
               </g>
        </defs>

<script type="text/javascript">
var viewWidth = 3472;
var viewHeight = 519;
var sectionId = 'dynsection-0';
</script>
<script xlink:href="../../svgpan.js"/>
<svg id="graph" class="graph">
<g id="viewport">
<title>/home/travis/build/AliceO2Group/AliceO2/Detectors/ITSMFT/common/reconstruction/include/ITSMFTReconstruction/RawPixelReader.h</title>
<!-- Node0 -->
<g id="node1" class="node">
<title>Node0</title>
<polygon fill="#bfbfbf" stroke="#000000" points="1745.4533,-447.5 1745.4533,-510.5 1961.4533,-510.5 1961.4533,-447.5 1745.4533,-447.5"/>
<text text-anchor="start" x="1753.4533" y="-498.5" font-family="Helvetica,sans-Serif" font-size="10.00" fill="#000000">/home/travis/build</text>
<text text-anchor="start" x="1753.4533" y="-487.5" font-family="Helvetica,sans-Serif" font-size="10.00" fill="#000000">/AliceO2Group/AliceO2</text>
<text text-anchor="start" x="1753.4533" y="-476.5" font-family="Helvetica,sans-Serif" font-size="10.00" fill="#000000">/Detectors/ITSMFT/common</text>
<text text-anchor="start" x="1753.4533" y="-465.5" font-family="Helvetica,sans-Serif" font-size="10.00" fill="#000000">/reconstruction/include</text>
<text text-anchor="middle" x="1853.4533" y="-454.5" font-family="Helvetica,sans-Serif" font-size="10.00" fill="#000000">/ITSMFTReconstruction/RawPixelReader.h</text>
</g>
<!-- Node1 -->
<g id="node2" class="node">
<title>Node1</title>
<g id="a_node2"><a xlink:href="../../d4/d78/DataFormats_2Headers_2include_2Headers_2RAWDataHeader_8h.html" target="_top" xlink:title="Headers/RAWDataHeader.h">
<polygon fill="none" stroke="#000000" points="1617.9533,-118 1617.9533,-137 1766.9533,-137 1766.9533,-118 1617.9533,-118"/>
<text text-anchor="middle" x="1692.4533" y="-125" font-family="Helvetica,sans-Serif" font-size="10.00" fill="#000000">Headers/RAWDataHeader.h</text>
</a>
</g>
</g>
<!-- Node0&#45;&gt;Node1 -->
<g id="edge1" class="edge">
<title>Node0&#45;&gt;Node1</title>
<path fill="none" stroke="#191970" d="M1831.2488,-447.4724C1812.7641,-418.1019 1789.4533,-372.367 1789.4533,-328.5 1789.4533,-328.5 1789.4533,-328.5 1789.4533,-261.5 1789.4533,-210.7474 1743.2304,-166.2103 1714.6006,-143.4924"/>
<polygon fill="#191970" stroke="#191970" points="1716.4146,-140.4726 1706.351,-137.1598 1712.1522,-146.0252 1716.4146,-140.4726"/>
</g>
<!-- Node3 -->
<g id="node4" class="node">
<title>Node3</title>
<g id="a_node4"><a xlink:href="../../d9/d80/InteractionRecord_8h.html" target="_top" xlink:title="CommonDataFormat/Interaction\lRecord.h">
<polygon fill="none" stroke="#000000" points="347.4533,-112.5 347.4533,-142.5 521.4533,-142.5 521.4533,-112.5 347.4533,-112.5"/>
<text text-anchor="start" x="355.4533" y="-130.5" font-family="Helvetica,sans-Serif" font-size="10.00" fill="#000000">CommonDataFormat/Interaction</text>
<text text-anchor="middle" x="434.4533" y="-119.5" font-family="Helvetica,sans-Serif" font-size="10.00" fill="#000000">Record.h</text>
</a>
</g>
</g>
<!-- Node0&#45;&gt;Node3 -->
<g id="edge3" class="edge">
<title>Node0&#45;&gt;Node3</title>
<path fill="none" stroke="#191970" d="M1745.23,-476.2499C1420.6168,-467.6898 473.8444,-440.3304 414.4533,-411 334.7596,-371.6431 280.2654,-332.3199 301.4533,-246 309.4619,-213.3725 312.7264,-202.785 336.4533,-179 349.6158,-165.8052 366.8677,-155.2172 383.2223,-147.1544"/>
<polygon fill="#191970" stroke="#191970" points="385.1467,-150.1175 392.7103,-142.6984 382.171,-143.7815 385.1467,-150.1175"/>
</g>
<!-- Node9 -->
<g id="node10" class="node">
<title>Node9</title>
<g id="a_node10"><a xlink:href="../../df/d2e/PixelReader_8h.html" target="_top" xlink:title="Abstract class for Alpide data reader class. ">
<polygon fill="none" stroke="#000000" points="310.9533,-246.5 310.9533,-276.5 433.9533,-276.5 433.9533,-246.5 310.9533,-246.5"/>
<text text-anchor="start" x="318.9533" y="-264.5" font-family="Helvetica,sans-Serif" font-size="10.00" fill="#000000">ITSMFTReconstruction</text>
<text text-anchor="middle" x="372.4533" y="-253.5" font-family="Helvetica,sans-Serif" font-size="10.00" fill="#000000">/PixelReader.h</text>
</a>
</g>
</g>
<!-- Node0&#45;&gt;Node9 -->
<g id="edge10" class="edge">
<title>Node0&#45;&gt;Node9</title>
<path fill="none" stroke="#191970" d="M1745.1974,-476.7175C1425.2018,-469.5821 502.6221,-446.0594 448.4533,-411 404.8146,-382.756 385.0795,-321.1968 377.1315,-286.526"/>
<polygon fill="#191970" stroke="#191970" points="380.5433,-285.7433 375.0299,-276.696 373.698,-287.2068 380.5433,-285.7433"/>
</g>
<!-- Node10 -->
<g id="node11" class="node">
<title>Node10</title>
<g id="a_node11"><a xlink:href="../../da/d8d/PixelData_8h.html" target="_top" xlink:title="Transient data classes for single pixel and set of pixels from current chip. ">
<polygon fill="none" stroke="#000000" points="462.9533,-179.5 462.9533,-209.5 585.9533,-209.5 585.9533,-179.5 462.9533,-179.5"/>
<text text-anchor="start" x="470.9533" y="-197.5" font-family="Helvetica,sans-Serif" font-size="10.00" fill="#000000">ITSMFTReconstruction</text>
<text text-anchor="middle" x="524.4533" y="-186.5" font-family="Helvetica,sans-Serif" font-size="10.00" fill="#000000">/PixelData.h</text>
</a>
</g>
</g>
<!-- Node0&#45;&gt;Node10 -->
<g id="edge34" class="edge">
<title>Node0&#45;&gt;Node10</title>
<path fill="none" stroke="#191970" d="M1745.2709,-476.3787C1449.4268,-468.7806 645.8962,-445.0968 600.4533,-411 539.2437,-365.0732 527.1018,-266.1647 524.8539,-219.6489"/>
<polygon fill="#191970" stroke="#191970" points="528.347,-219.3915 524.4839,-209.5261 521.3516,-219.6473 528.347,-219.3915"/>
</g>
<!-- Node12 -->
<g id="node13" class="node">
<title>Node12</title>
<polygon fill="none" stroke="#bfbfbf" points="165.4533,-56.5 165.4533,-75.5 215.4533,-75.5 215.4533,-56.5 165.4533,-56.5"/>
<text text-anchor="middle" x="190.4533" y="-63.5" font-family="Helvetica,sans-Serif" font-size="10.00" fill="#000000">climits</text>
</g>
<!-- Node0&#45;&gt;Node12 -->
<g id="edge134" class="edge">
<title>Node0&#45;&gt;Node12</title>
<path fill="none" stroke="#191970" d="M1745.3472,-476.8655C1448.3045,-470.5583 623.961,-449.9648 355.4533,-411 204.5594,-389.1029 22.4533,-480.9744 22.4533,-328.5 22.4533,-328.5 22.4533,-328.5 22.4533,-261.5 22.4533,-210.1147 61.5864,-208.7928 103.4533,-179 133.9056,-157.3299 157.2781,-173.0865 179.4533,-143 191.5612,-126.5724 193.2072,-102.7064 192.5237,-85.9091"/>
<polygon fill="#191970" stroke="#191970" points="195.9896,-85.3098 191.7783,-75.5879 189.0078,-85.814 195.9896,-85.3098"/>
</g>
<!-- Node13 -->
<g id="node14" class="node">
<title>Node13</title>
<polygon fill="none" stroke="#bfbfbf" points="821.9533,-118 821.9533,-137 868.9533,-137 868.9533,-118 821.9533,-118"/>
<text text-anchor="middle" x="845.4533" y="-125" font-family="Helvetica,sans-Serif" font-size="10.00" fill="#000000">vector</text>
</g>
<!-- Node0&#45;&gt;Node13 -->
<g id="edge132" class="edge">
<title>Node0&#45;&gt;Node13</title>
<path fill="none" stroke="#191970" d="M1745.3977,-477.1346C1443.7315,-470.503 614.4533,-441.955 614.4533,-328.5 614.4533,-328.5 614.4533,-328.5 614.4533,-261.5 614.4533,-223.8735 607.0068,-205.7645 633.4533,-179 646.0156,-166.2866 755.3027,-144.3238 811.8525,-133.6623"/>
<polygon fill="#191970" stroke="#191970" points="812.5771,-137.0876 821.7627,-131.8079 811.2895,-130.207 812.5771,-137.0876"/>
</g>
<!-- Node17 -->
<g id="node18" class="node">
<title>Node17</title>
<polygon fill="none" stroke="#bfbfbf" points="2456.4533,-118 2456.4533,-137 2508.4533,-137 2508.4533,-118 2456.4533,-118"/>
<text text-anchor="middle" x="2482.4533" y="-125" font-family="Helvetica,sans-Serif" font-size="10.00" fill="#000000">cassert</text>
</g>
<!-- Node0&#45;&gt;Node17 -->
<g id="edge137" class="edge">
<title>Node0&#45;&gt;Node17</title>
<path fill="none" stroke="#191970" d="M1961.7495,-470.6839C2175.9719,-451.7471 2641.4607,-397.4018 2737.4533,-277 2746.0422,-266.227 2745.4777,-257.1998 2737.4533,-246 2708.4758,-205.5555 2676.9531,-230.1302 2631.4533,-210 2585.5818,-189.7053 2535.0763,-160.0804 2506.2211,-142.4025"/>
<polygon fill="#191970" stroke="#191970" points="2507.9945,-139.3841 2497.6467,-137.1097 2504.3176,-145.3407 2507.9945,-139.3841"/>
</g>
<!-- Node22 -->
<g id="node23" class="node">
<title>Node22</title>
<polygon fill="none" stroke="#bfbfbf" points="1371.4533,-118 1371.4533,-137 1429.4533,-137 1429.4533,-118 1371.4533,-118"/>
<text text-anchor="middle" x="1400.4533" y="-125" font-family="Helvetica,sans-Serif" font-size="10.00" fill="#000000">memory</text>
</g>
<!-- Node0&#45;&gt;Node22 -->
<g id="edge135" class="edge">
<title>Node0&#45;&gt;Node22</title>
<path fill="none" stroke="#191970" d="M1745.4124,-454.5276C1677.0119,-434.4293 1590.4706,-399.9465 1530.4533,-344 1470.4071,-288.0266 1494.0008,-246.6158 1447.4533,-179 1438.8735,-166.5369 1427.4668,-153.9662 1418.0393,-144.3645"/>
<polygon fill="#191970" stroke="#191970" points="1420.2524,-141.6295 1410.6913,-137.0649 1415.319,-146.5956 1420.2524,-141.6295"/>
</g>
<!-- Node23 -->
<g id="node24" class="node">
<title>Node23</title>
<g id="a_node24"><a xlink:href="../../d3/d57/ChipMappingITS_8h.html" target="_top" xlink:title="ITSMFTReconstruction\l/ChipMappingITS.h">
<polygon fill="none" stroke="#000000" points="2285.9533,-313.5 2285.9533,-343.5 2408.9533,-343.5 2408.9533,-313.5 2285.9533,-313.5"/>
<text text-anchor="start" x="2293.9533" y="-331.5" font-family="Helvetica,sans-Serif" font-size="10.00" fill="#000000">ITSMFTReconstruction</text>
<text text-anchor="middle" x="2347.4533" y="-320.5" font-family="Helvetica,sans-Serif" font-size="10.00" fill="#000000">/ChipMappingITS.h</text>
</a>
</g>
</g>
<!-- Node0&#45;&gt;Node23 -->
<g id="edge35" class="edge">
<title>Node0&#45;&gt;Node23</title>
<path fill="none" stroke="#191970" d="M1957.0119,-447.4503C2057.6043,-416.8042 2206.7708,-371.3597 2288.5404,-346.4482"/>
<polygon fill="#191970" stroke="#191970" points="2289.6245,-349.7768 2298.1704,-343.5143 2287.5845,-343.0806 2289.6245,-349.7768"/>
</g>
<!-- Node24 -->
<g id="node25" class="node">
<title>Node24</title>
<polygon fill="none" stroke="#bfbfbf" points="3099.4533,-118 3099.4533,-137 3141.4533,-137 3141.4533,-118 3099.4533,-118"/>
<text text-anchor="middle" x="3120.4533" y="-125" font-family="Helvetica,sans-Serif" font-size="10.00" fill="#000000">array</text>
</g>
<!-- Node0&#45;&gt;Node24 -->
<g id="edge140" class="edge">
<title>Node0&#45;&gt;Node24</title>
<path fill="none" stroke="#191970" d="M1961.6526,-476.4693C2253.4025,-468.2166 3034.4533,-436.0772 3034.4533,-328.5 3034.4533,-328.5 3034.4533,-328.5 3034.4533,-261.5 3034.4533,-212.6109 3075.4996,-167.3166 3100.878,-143.9841"/>
<polygon fill="#191970" stroke="#191970" points="3103.353,-146.4668 3108.4953,-137.2035 3098.6988,-141.2381 3103.353,-146.4668"/>
</g>
<!-- Node28 -->
<g id="node29" class="node">
<title>Node28</title>
<polygon fill="none" stroke="#bfbfbf" points="3001.4533,-56.5 3001.4533,-75.5 3065.4533,-75.5 3065.4533,-56.5 3001.4533,-56.5"/>
<text text-anchor="middle" x="3033.4533" y="-63.5" font-family="Helvetica,sans-Serif" font-size="10.00" fill="#000000">algorithm</text>
</g>
<!-- Node0&#45;&gt;Node28 -->
<g id="edge136" class="edge">
<title>Node0&#45;&gt;Node28</title>
<path fill="none" stroke="#191970" d="M1961.6931,-477.3434C2193.7119,-472.9279 2732.1725,-457.8205 2908.4533,-411 3063.5612,-369.803 3112.1965,-298.8591 3150.4533,-143 3153.7376,-129.6194 3158.2112,-123.3861 3150.4533,-112 3141.5373,-98.9142 3105.1422,-85.8847 3075.2819,-77.0515"/>
<polygon fill="#191970" stroke="#191970" points="3076.033,-73.6257 3065.455,-74.2228 3074.0966,-80.3525 3076.033,-73.6257"/>
</g>
<!-- Node33 -->
<g id="node34" class="node">
<title>Node33</title>
<polygon fill="none" stroke="#bfbfbf" points="2794.4533,-185 2794.4533,-204 2838.4533,-204 2838.4533,-185 2794.4533,-185"/>
<text text-anchor="middle" x="2816.4533" y="-192" font-family="Helvetica,sans-Serif" font-size="10.00" fill="#000000">bitset</text>
</g>
<!-- Node0&#45;&gt;Node33 -->
<g id="edge141" class="edge">
<title>Node0&#45;&gt;Node33</title>
<path fill="none" stroke="#191970" d="M1961.5585,-478.1456C2191.0101,-475.3193 2710.7011,-463.1671 2770.4533,-411 2828.114,-360.6589 2823.8924,-257.5758 2819.1804,-214.3103"/>
<polygon fill="#191970" stroke="#191970" points="2822.6352,-213.727 2817.9492,-204.2248 2815.6868,-214.5752 2822.6352,-213.727"/>
</g>
<!-- Node34 -->
<g id="node35" class="node">
<title>Node34</title>
<polygon fill="none" stroke="#bfbfbf" points="2856.9533,-185 2856.9533,-204 2929.9533,-204 2929.9533,-185 2856.9533,-185"/>
<text text-anchor="middle" x="2893.4533" y="-192" font-family="Helvetica,sans-Serif" font-size="10.00" fill="#000000">string_view</text>
</g>
<!-- Node0&#45;&gt;Node34 -->
<g id="edge139" class="edge">
<title>Node0&#45;&gt;Node34</title>
<path fill="none" stroke="#191970" d="M1961.5334,-477.2575C2194.5835,-472.6392 2728.865,-457.1011 2796.4533,-411 2864.689,-364.4573 2885.543,-257.9754 2891.3759,-214.0255"/>
<polygon fill="#191970" stroke="#191970" points="2894.8563,-214.3976 2892.5791,-204.0504 2887.9067,-213.5593 2894.8563,-214.3976"/>
</g>
<!-- Node41 -->
<g id="node42" class="node">
<title>Node41</title>
<g id="a_node42"><a xlink:href="../../d8/da2/AlpideCoder_8h.html" target="_top" xlink:title="class for the ALPIDE data decoding/encoding ">
<polygon fill="none" stroke="#000000" points="826.9533,-246.5 826.9533,-276.5 949.9533,-276.5 949.9533,-246.5 826.9533,-246.5"/>
<text text-anchor="start" x="834.9533" y="-264.5" font-family="Helvetica,sans-Serif" font-size="10.00" fill="#000000">ITSMFTReconstruction</text>
<text text-anchor="middle" x="888.4533" y="-253.5" font-family="Helvetica,sans-Serif" font-size="10.00" fill="#000000">/AlpideCoder.h</text>
</a>
</g>
</g>
<!-- Node0&#45;&gt;Node41 -->
<g id="edge76" class="edge">
<title>Node0&#45;&gt;Node41</title>
<path fill="none" stroke="#191970" d="M1745.0698,-474.3457C1536.3009,-464.7549 1093.364,-441.1398 1030.4533,-411 972.0725,-383.0304 925.3135,-319.9747 902.8894,-285.3601"/>
<polygon fill="#191970" stroke="#191970" points="905.7788,-283.3808 897.4699,-276.8071 899.8658,-287.1275 905.7788,-283.3808"/>
</g>
<!-- Node43 -->
<g id="node44" class="node">
<title>Node43</title>
<polygon fill="none" stroke="#bfbfbf" points="642.9533,-185 642.9533,-204 717.9533,-204 717.9533,-185 642.9533,-185"/>
<text text-anchor="middle" x="680.4533" y="-192" font-family="Helvetica,sans-Serif" font-size="10.00" fill="#000000">FairLogger.h</text>
</g>
<!-- Node0&#45;&gt;Node43 -->
<g id="edge131" class="edge">
<title>Node0&#45;&gt;Node43</title>
<path fill="none" stroke="#191970" d="M1745.1039,-477.8344C1543.3319,-474.4712 1118.0097,-461.4347 980.4533,-411 856.9502,-365.7179 739.0513,-254.3264 696.8325,-211.5817"/>
<polygon fill="#191970" stroke="#191970" points="699.1225,-208.9171 689.6314,-204.2086 694.1146,-213.8082 699.1225,-208.9171"/>
</g>
<!-- Node45 -->
<g id="node46" class="node">
<title>Node45</title>
<g id="a_node46"><a xlink:href="../../d0/d35/PayLoadCont_8h.html" target="_top" xlink:title="Declaration of class for continuos buffer of ALPIDE data. ">
<polygon fill="none" stroke="#000000" points="954.9533,-185 954.9533,-204 1043.9533,-204 1043.9533,-185 954.9533,-185"/>
<text text-anchor="middle" x="999.4533" y="-192" font-family="Helvetica,sans-Serif" font-size="10.00" fill="#000000">PayLoadCont.h</text>
</a>
</g>
</g>
<!-- Node0&#45;&gt;Node45 -->
<g id="edge95" class="edge">
<title>Node0&#45;&gt;Node45</title>
<path fill="none" stroke="#191970" d="M1745.3831,-472.5036C1598.8992,-462.6973 1345.602,-441.9137 1258.4533,-411 1145.2877,-370.8575 1047.3647,-256.2949 1012.7721,-212.1461"/>
<polygon fill="#191970" stroke="#191970" points="1015.4206,-209.8492 1006.5399,-204.0713 1009.8791,-214.1262 1015.4206,-209.8492"/>
</g>
<!-- Node47 -->
<g id="node48" class="node">
<title>Node47</title>
<g id="a_node48"><a xlink:href="../../dd/d86/GBTWord_8h.html" target="_top" xlink:title="ITSMFTReconstruction\l/GBTWord.h">
<polygon fill="none" stroke="#000000" points="1855.9533,-313.5 1855.9533,-343.5 1978.9533,-343.5 1978.9533,-313.5 1855.9533,-313.5"/>
<text text-anchor="start" x="1863.9533" y="-331.5" font-family="Helvetica,sans-Serif" font-size="10.00" fill="#000000">ITSMFTReconstruction</text>
<text text-anchor="middle" x="1917.4533" y="-320.5" font-family="Helvetica,sans-Serif" font-size="10.00" fill="#000000">/GBTWord.h</text>
</a>
</g>
</g>
<!-- Node0&#45;&gt;Node47 -->
<g id="edge90" class="edge">
<title>Node0&#45;&gt;Node47</title>
<path fill="none" stroke="#191970" d="M1866.8698,-447.4503C1878.8425,-419.2957 1896.1265,-378.6513 1907.072,-352.9123"/>
<polygon fill="#191970" stroke="#191970" points="1910.3759,-354.0865 1911.0685,-343.5143 1903.9342,-351.3471 1910.3759,-354.0865"/>
</g>
<!-- Node48 -->
<g id="node49" class="node">
<title>Node48</title>
<g id="a_node49"><a xlink:href="../../de/da4/Triggers_8h.html" target="_top" xlink:title="Definition of the 32 Central Trigger System (CTS) Trigger Types defined in https://twiki.cern.ch/twiki/pub/ALICE/NoteForFEDevelopers/CTS_CRU_FE_interface.pdf. ">
<polygon fill="none" stroke="#000000" points="2107.4533,-319 2107.4533,-338 2267.4533,-338 2267.4533,-319 2107.4533,-319"/>
<text text-anchor="middle" x="2187.4533" y="-326" font-family="Helvetica,sans-Serif" font-size="10.00" fill="#000000">CommonConstants/Triggers.h</text>
</a>
</g>
</g>
<!-- Node0&#45;&gt;Node48 -->
<g id="edge93" class="edge">
<title>Node0&#45;&gt;Node48</title>
<path fill="none" stroke="#191970" d="M1923.4706,-447.4503C1995.5026,-414.9928 2104.3732,-365.9358 2156.9311,-342.2532"/>
<polygon fill="#191970" stroke="#191970" points="2158.3887,-345.4355 2166.0679,-338.1362 2155.5129,-339.0534 2158.3887,-345.4355"/>
</g>
<!-- Node49 -->
<g id="node50" class="node">
<title>Node49</title>
<g id="a_node50"><a xlink:href="../../d4/d20/PayLoadSG_8h.html" target="_top" xlink:title="Declaration of class for scatter&#45;gather buffer. ">
<polygon fill="none" stroke="#000000" points="1100.9533,-179.5 1100.9533,-209.5 1223.9533,-209.5 1223.9533,-179.5 1100.9533,-179.5"/>
<text text-anchor="start" x="1108.9533" y="-197.5" font-family="Helvetica,sans-Serif" font-size="10.00" fill="#000000">ITSMFTReconstruction</text>
<text text-anchor="middle" x="1162.4533" y="-186.5" font-family="Helvetica,sans-Serif" font-size="10.00" fill="#000000">/PayLoadSG.h</text>
</a>
</g>
</g>
<!-- Node0&#45;&gt;Node49 -->
<g id="edge96" class="edge">
<title>Node0&#45;&gt;Node49</title>
<path fill="none" stroke="#191970" d="M1745.3338,-474.6468C1619.1937,-467.7823 1419.9208,-450.8508 1357.4533,-411 1313.8004,-383.1519 1328.0193,-352.426 1294.4533,-313 1262.43,-275.3861 1218.7128,-238.3845 1190.5289,-215.9956"/>
<polygon fill="#191970" stroke="#191970" points="1192.3348,-212.9631 1182.311,-209.5319 1188.0072,-218.4652 1192.3348,-212.9631"/>
</g>
<!-- Node50 -->
<g id="node51" class="node">
<title>Node50</title>
<g id="a_node51"><a xlink:href="../../d0/dd1/GBTLink_8h.html" target="_top" xlink:title="Declarations of helper classes for the ITS/MFT raw data decoding. ">
<polygon fill="none" stroke="#000000" points="1366.9533,-380.5 1366.9533,-410.5 1489.9533,-410.5 1489.9533,-380.5 1366.9533,-380.5"/>
<text text-anchor="start" x="1374.9533" y="-398.5" font-family="Helvetica,sans-Serif" font-size="10.00" fill="#000000">ITSMFTReconstruction</text>
<text text-anchor="middle" x="1428.4533" y="-387.5" font-family="Helvetica,sans-Serif" font-size="10.00" fill="#000000">/GBTLink.h</text>
</a>
</g>
</g>
<!-- Node0&#45;&gt;Node50 -->
<g id="edge100" class="edge">
<title>Node0&#45;&gt;Node50</title>
<path fill="none" stroke="#191970" d="M1745.3221,-458.1845C1676.3656,-444.8477 1585.1202,-427.0842 1504.4533,-411 1503.0089,-410.712 1501.5491,-410.4203 1500.0781,-410.1258"/>
<polygon fill="#191970" stroke="#191970" points="1500.7396,-406.6888 1490.2459,-408.1495 1499.3601,-413.5516 1500.7396,-406.6888"/>
</g>
<!-- Node51 -->
<g id="node52" class="node">
<title>Node51</title>
<g id="a_node52"><a xlink:href="../../db/d0e/RUDecodeData_8h.html" target="_top" xlink:title="Declaration of the Readout Unite decoder class. ">
<polygon fill="none" stroke="#000000" points="1162.9533,-313.5 1162.9533,-343.5 1285.9533,-343.5 1285.9533,-313.5 1162.9533,-313.5"/>
<text text-anchor="start" x="1170.9533" y="-331.5" font-family="Helvetica,sans-Serif" font-size="10.00" fill="#000000">ITSMFTReconstruction</text>
<text text-anchor="middle" x="1224.4533" y="-320.5" font-family="Helvetica,sans-Serif" font-size="10.00" fill="#000000">/RUDecodeData.h</text>
</a>
</g>
</g>
<!-- Node0&#45;&gt;Node51 -->
<g id="edge128" class="edge">
<title>Node0&#45;&gt;Node51</title>
<path fill="none" stroke="#191970" d="M1745.3101,-474.5119C1606.8466,-467.2667 1375.8002,-449.6886 1300.4533,-411 1274.3133,-397.5778 1252.5847,-371.3167 1239.1485,-352.0146"/>
<polygon fill="#191970" stroke="#191970" points="1242.0517,-350.0596 1233.5726,-343.7069 1236.2394,-353.9606 1242.0517,-350.0596"/>
</g>
<!-- Node55 -->
<g id="node56" class="node">
<title>Node55</title>
<polygon fill="none" stroke="#bfbfbf" points="3100.4533,-386 3100.4533,-405 3152.4533,-405 3152.4533,-386 3100.4533,-386"/>
<text text-anchor="middle" x="3126.4533" y="-393" font-family="Helvetica,sans-Serif" font-size="10.00" fill="#000000">TTree.h</text>
</g>
<!-- Node0&#45;&gt;Node55 -->
<g id="edge129" class="edge">
<title>Node0&#45;&gt;Node55</title>
<path fill="none" stroke="#191970" d="M1961.805,-477.3782C2221.4633,-472.7905 2873.4772,-456.9265 3086.4533,-411 3089.486,-410.346 3092.5908,-409.4945 3095.664,-408.527"/>
<polygon fill="#191970" stroke="#191970" points="3096.983,-411.773 3105.2457,-405.1414 3094.6509,-405.1729 3096.983,-411.773"/>
</g>
<!-- Node56 -->
<g id="node57" class="node">
<title>Node56</title>
<polygon fill="none" stroke="#bfbfbf" points="3170.9533,-386 3170.9533,-405 3253.9533,-405 3253.9533,-386 3170.9533,-386"/>
<text text-anchor="middle" x="3212.4533" y="-393" font-family="Helvetica,sans-Serif" font-size="10.00" fill="#000000">TStopwatch.h</text>
</g>
<!-- Node0&#45;&gt;Node56 -->
<g id="edge130" class="edge">
<title>Node0&#45;&gt;Node56</title>
<path fill="none" stroke="#191970" d="M1961.6659,-476.7582C2232.0802,-470.6125 2932.0176,-451.2104 3161.4533,-411 3166.1618,-410.1748 3171.0467,-409.0515 3175.845,-407.784"/>
<polygon fill="#191970" stroke="#191970" points="3176.8344,-411.1415 3185.4884,-405.0292 3174.9116,-404.4107 3176.8344,-411.1415"/>
</g>
<!-- Node57 -->
<g id="node58" class="node">
<title>Node57</title>
<polygon fill="none" stroke="#bfbfbf" points="3272.4533,-386 3272.4533,-405 3316.4533,-405 3316.4533,-386 3272.4533,-386"/>
<text text-anchor="middle" x="3294.4533" y="-393" font-family="Helvetica,sans-Serif" font-size="10.00" fill="#000000">limits</text>
</g>
<!-- Node0&#45;&gt;Node57 -->
<g id="edge133" class="edge">
<title>Node0&#45;&gt;Node57</title>
<path fill="none" stroke="#191970" d="M1961.6121,-476.3571C2269.9135,-468.4627 3138.9788,-443.5695 3263.4533,-411 3265.3743,-410.4974 3267.3152,-409.8667 3269.2388,-409.1495"/>
<polygon fill="#191970" stroke="#191970" points="3270.8141,-412.2799 3278.5426,-405.0328 3267.9816,-405.8785 3270.8141,-412.2799"/>
</g>
<!-- Node58 -->
<g id="node59" class="node">
<title>Node58</title>
<polygon fill="none" stroke="#bfbfbf" points="3334.9533,-386 3334.9533,-405 3389.9533,-405 3389.9533,-386 3334.9533,-386"/>
<text text-anchor="middle" x="3362.4533" y="-393" font-family="Helvetica,sans-Serif" font-size="10.00" fill="#000000">fstream</text>
</g>
<!-- Node0&#45;&gt;Node58 -->
<g id="edge138" class="edge">
<title>Node0&#45;&gt;Node58</title>
<path fill="none" stroke="#191970" d="M1961.7092,-476.1827C2279.1852,-467.6148 3193.799,-440.639 3325.4533,-411 3328.256,-410.369 3331.1161,-409.539 3333.9424,-408.5903"/>
<polygon fill="#191970" stroke="#191970" points="3335.1926,-411.8595 3343.2887,-405.0255 3332.6979,-405.3192 3335.1926,-411.8595"/>
</g>
<!-- Node59 -->
<g id="node60" class="node">
<title>Node59</title>
<polygon fill="none" stroke="#bfbfbf" points="3408.4533,-386 3408.4533,-405 3464.4533,-405 3464.4533,-386 3408.4533,-386"/>
<text text-anchor="middle" x="3436.4533" y="-393" font-family="Helvetica,sans-Serif" font-size="10.00" fill="#000000">iomanip</text>
</g>
<!-- Node0&#45;&gt;Node59 -->
<g id="edge142" class="edge">
<title>Node0&#45;&gt;Node59</title>
<path fill="none" stroke="#191970" d="M1961.5798,-476.4435C2289.742,-468.3777 3260.3817,-442.1476 3399.4533,-411 3402.2567,-410.3721 3405.1173,-409.5442 3407.9439,-408.5969"/>
<polygon fill="#191970" stroke="#191970" points="3409.1931,-411.8664 3417.2906,-405.034 3406.6997,-405.3255 3409.1931,-411.8664"/>
</g>
<!-- Node2 -->
<g id="node3" class="node">
<title>Node2</title>
<polygon fill="none" stroke="#bfbfbf" points="1718.4533,-56.5 1718.4533,-75.5 1768.4533,-75.5 1768.4533,-56.5 1718.4533,-56.5"/>
<text text-anchor="middle" x="1743.4533" y="-63.5" font-family="Helvetica,sans-Serif" font-size="10.00" fill="#000000">cstdint</text>
</g>
<!-- Node1&#45;&gt;Node2 -->
<g id="edge2" class="edge">
<title>Node1&#45;&gt;Node2</title>
<path fill="none" stroke="#191970" d="M1700.422,-117.8906C1708.0124,-108.7376 1719.6194,-94.7409 1728.8665,-83.59"/>
<polygon fill="#191970" stroke="#191970" points="1731.6829,-85.6766 1735.3722,-75.7449 1726.2946,-81.2083 1731.6829,-85.6766"/>
</g>
<!-- Node3&#45;&gt;Node2 -->
<g id="edge8" class="edge">
<title>Node3&#45;&gt;Node2</title>
<path fill="none" stroke="#191970" d="M521.5135,-112.9677C524.5267,-112.6165 527.5133,-112.292 530.4533,-112 767.9577,-88.4122 1534.7888,-70.5535 1708.3219,-66.7517"/>
<polygon fill="#191970" stroke="#191970" points="1708.5099,-70.2485 1718.4312,-66.5315 1708.3573,-63.2502 1708.5099,-70.2485"/>
</g>
<!-- Node4 -->
<g id="node5" class="node">
<title>Node4</title>
<g id="a_node5"><a xlink:href="../../d2/d45/GPUCommonRtypes_8h.html" target="_top" xlink:title="GPUCommonRtypes.h">
<polygon fill="none" stroke="#000000" points="233.9533,-56.5 233.9533,-75.5 358.9533,-75.5 358.9533,-56.5 233.9533,-56.5"/>
<text text-anchor="middle" x="296.4533" y="-63.5" font-family="Helvetica,sans-Serif" font-size="10.00" fill="#000000">GPUCommonRtypes.h</text>
</a>
</g>
</g>
<!-- Node3&#45;&gt;Node4 -->
<g id="edge4" class="edge">
<title>Node3&#45;&gt;Node4</title>
<path fill="none" stroke="#191970" d="M400.6947,-112.4554C378.174,-102.419 348.8066,-89.3314 326.9841,-79.6061"/>
<polygon fill="#191970" stroke="#191970" points="328.3971,-76.4041 317.8384,-75.5303 325.5477,-82.7979 328.3971,-76.4041"/>
</g>
<!-- Node6 -->
<g id="node7" class="node">
<title>Node6</title>
<polygon fill="none" stroke="#bfbfbf" points="585.9533,-56.5 585.9533,-75.5 634.9533,-75.5 634.9533,-56.5 585.9533,-56.5"/>
<text text-anchor="middle" x="610.4533" y="-63.5" font-family="Helvetica,sans-Serif" font-size="10.00" fill="#000000">iosfwd</text>
</g>
<!-- Node3&#45;&gt;Node6 -->
<g id="edge6" class="edge">
<title>Node3&#45;&gt;Node6</title>
<path fill="none" stroke="#191970" d="M477.5077,-112.4554C507.7801,-101.8773 547.7526,-87.9096 575.9353,-78.0617"/>
<polygon fill="#191970" stroke="#191970" points="577.4595,-81.2367 585.7451,-74.6338 575.1503,-74.6285 577.4595,-81.2367"/>
</g>
<!-- Node7 -->
<g id="node8" class="node">
<title>Node7</title>
<polygon fill="none" stroke="#bfbfbf" points="2923.9533,-56.5 2923.9533,-75.5 2970.9533,-75.5 2970.9533,-56.5 2923.9533,-56.5"/>
<text text-anchor="middle" x="2947.4533" y="-63.5" font-family="Helvetica,sans-Serif" font-size="10.00" fill="#000000">cmath</text>
</g>
<!-- Node3&#45;&gt;Node7 -->
<g id="edge7" class="edge">
<title>Node3&#45;&gt;Node7</title>
<path fill="none" stroke="#191970" d="M521.5058,-112.8855C524.5211,-112.5577 527.5103,-112.2604 530.4533,-112 1014.8483,-69.1338 2232.3847,-90.6089 2718.4533,-76 2787.8678,-73.9137 2869.0586,-70.0249 2913.7144,-67.7606"/>
<polygon fill="#191970" stroke="#191970" points="2913.9168,-71.2549 2923.7251,-67.249 2913.5595,-64.264 2913.9168,-71.2549"/>
</g>
<!-- Node8 -->
<g id="node9" class="node">
<title>Node8</title>
<g id="a_node9"><a xlink:href="../../d4/dc6/LHCConstants_8h.html" target="_top" xlink:title="Header to collect LHC related constants. ">
<polygon fill="none" stroke="#000000" points="377.4533,-56.5 377.4533,-75.5 567.4533,-75.5 567.4533,-56.5 377.4533,-56.5"/>
<text text-anchor="middle" x="472.4533" y="-63.5" font-family="Helvetica,sans-Serif" font-size="10.00" fill="#000000">CommonConstants/LHCConstants.h</text>
</a>
</g>
</g>
<!-- Node3&#45;&gt;Node8 -->
<g id="edge9" class="edge">
<title>Node3&#45;&gt;Node8</title>
<path fill="none" stroke="#191970" d="M443.8465,-112.2977C449.0664,-103.8498 455.599,-93.2773 461.1033,-84.369"/>
<polygon fill="#191970" stroke="#191970" points="464.09,-86.1938 466.369,-75.8469 458.1351,-82.5143 464.09,-86.1938"/>
</g>
<!-- Node5 -->
<g id="node6" class="node">
<title>Node5</title>
<polygon fill="none" stroke="#bfbfbf" points="999.9533,-.5 999.9533,-19.5 1058.9533,-19.5 1058.9533,-.5 999.9533,-.5"/>
<text text-anchor="middle" x="1029.4533" y="-7.5" font-family="Helvetica,sans-Serif" font-size="10.00" fill="#000000">Rtypes.h</text>
</g>
<!-- Node4&#45;&gt;Node5 -->
<g id="edge5" class="edge">
<title>Node4&#45;&gt;Node5</title>
<path fill="none" stroke="#191970" d="M359.2511,-57.02C362.3603,-56.6564 365.4408,-56.3137 368.4533,-56 603.2771,-31.551 886.4279,-16.7381 989.4887,-11.8249"/>
<polygon fill="#191970" stroke="#191970" points="989.9199,-15.3085 999.7436,-11.3404 989.5896,-8.3163 989.9199,-15.3085"/>
</g>
<!-- Node9&#45;&gt;Node3 -->
<g id="edge32" class="edge">
<title>Node9&#45;&gt;Node3</title>
<path fill="none" stroke="#191970" d="M360.059,-246.4422C347.5579,-229.3012 331.7815,-200.8508 344.4533,-179 352.3802,-165.331 365.4515,-154.9811 379.2076,-147.2812"/>
<polygon fill="#191970" stroke="#191970" points="381.0136,-150.288 388.2991,-142.5956 377.8067,-144.0657 381.0136,-150.288"/>
</g>
<!-- Node9&#45;&gt;Node5 -->
<g id="edge11" class="edge">
<title>Node9&#45;&gt;Node5</title>
<path fill="none" stroke="#191970" d="M310.8076,-259.2464C190.5137,-252.3524 -57.8721,-224.4656 12.4533,-112 42.5937,-63.7988 72.4007,-70.1779 127.4533,-56 211.5888,-34.3323 826.1232,-15.7039 989.6009,-11.0929"/>
<polygon fill="#191970" stroke="#191970" points="989.8082,-14.5886 999.7062,-10.8096 989.612,-7.5913 989.8082,-14.5886"/>
</g>
<!-- Node9&#45;&gt;Node10 -->
<g id="edge12" class="edge">
<title>Node9&#45;&gt;Node10</title>
<path fill="none" stroke="#191970" d="M406.565,-246.4639C428.4899,-236.7996 457.1786,-224.154 480.7652,-213.7572"/>
<polygon fill="#191970" stroke="#191970" points="482.454,-216.8379 490.1927,-209.6017 479.6305,-210.4325 482.454,-216.8379"/>
</g>
<!-- Node9&#45;&gt;Node13 -->
<g id="edge33" class="edge">
<title>Node9&#45;&gt;Node13</title>
<path fill="none" stroke="#191970" d="M382.4408,-246.3266C396.0105,-227.0981 422.1983,-194.5866 453.4533,-179 516.1984,-147.7095 728.4435,-133.5627 811.6191,-129.1246"/>
<polygon fill="#191970" stroke="#191970" points="811.9842,-132.6104 821.7891,-128.5963 811.621,-125.6199 811.9842,-132.6104"/>
</g>
<!-- Node15 -->
<g id="node16" class="node">
<title>Node15</title>
<g id="a_node16"><a xlink:href="../../d7/dcd/MCCompLabel_8h.html" target="_top" xlink:title="SimulationDataFormat\l/MCCompLabel.h">
<polygon fill="none" stroke="#000000" points="126.9533,-179.5 126.9533,-209.5 253.9533,-209.5 253.9533,-179.5 126.9533,-179.5"/>
<text text-anchor="start" x="134.9533" y="-197.5" font-family="Helvetica,sans-Serif" font-size="10.00" fill="#000000">SimulationDataFormat</text>
<text text-anchor="middle" x="190.4533" y="-186.5" font-family="Helvetica,sans-Serif" font-size="10.00" fill="#000000">/MCCompLabel.h</text>
</a>
</g>
</g>
<!-- Node9&#45;&gt;Node15 -->
<g id="edge20" class="edge">
<title>Node9&#45;&gt;Node15</title>
<path fill="none" stroke="#191970" d="M331.6089,-246.4639C304.7734,-236.5849 269.4751,-223.5905 240.8904,-213.0675"/>
<polygon fill="#191970" stroke="#191970" points="242.0692,-209.7719 231.4758,-209.6017 239.6509,-216.3409 242.0692,-209.7719"/>
</g>
<!-- Node16 -->
<g id="node17" class="node">
<title>Node16</title>
<g id="a_node17"><a xlink:href="../../db/d14/MCTruthContainer_8h.html" target="_top" xlink:title="Definition of a container to keep Monte Carlo truth external to simulation objects. ">
<polygon fill="none" stroke="#000000" points="1241.9533,-179.5 1241.9533,-209.5 1368.9533,-209.5 1368.9533,-179.5 1241.9533,-179.5"/>
<text text-anchor="start" x="1249.9533" y="-197.5" font-family="Helvetica,sans-Serif" font-size="10.00" fill="#000000">SimulationDataFormat</text>
<text text-anchor="middle" x="1305.4533" y="-186.5" font-family="Helvetica,sans-Serif" font-size="10.00" fill="#000000">/MCTruthContainer.h</text>
</a>
</g>
</g>
<!-- Node9&#45;&gt;Node16 -->
<g id="edge22" class="edge">
<title>Node9&#45;&gt;Node16</title>
<path fill="none" stroke="#191970" d="M434.0239,-259.0115C600.7553,-252.0852 1059.4489,-231.7404 1231.89,-209.8965"/>
<polygon fill="#191970" stroke="#191970" points="1232.3904,-213.3609 1241.8499,-208.5894 1231.4795,-206.4204 1232.3904,-213.3609"/>
</g>
<!-- Node10&#45;&gt;Node2 -->
<g id="edge19" class="edge">
<title>Node10&#45;&gt;Node2</title>
<path fill="none" stroke="#191970" d="M565.7362,-179.4166C621.0471,-159.9662 722.6579,-126.8763 812.4533,-112 989.6248,-82.6481 1559.3729,-69.6152 1707.8183,-66.6672"/>
<polygon fill="#191970" stroke="#191970" points="1708.229,-70.1599 1718.1586,-66.4648 1708.0919,-63.1613 1708.229,-70.1599"/>
</g>
<!-- Node10&#45;&gt;Node3 -->
<g id="edge16" class="edge">
<title>Node10&#45;&gt;Node3</title>
<path fill="none" stroke="#191970" d="M504.0309,-179.2967C491.9485,-170.302 476.4561,-158.7687 463.1585,-148.8694"/>
<polygon fill="#191970" stroke="#191970" points="464.9062,-145.8072 454.7949,-142.6432 460.7262,-151.4221 464.9062,-145.8072"/>
</g>
<!-- Node11 -->
<g id="node12" class="node">
<title>Node11</title>
<g id="a_node12"><a xlink:href="../../d3/d1e/DataFormats_2Detectors_2ITSMFT_2common_2include_2DataFormatsITSMFT_2Digit_8h.html" target="_top" xlink:title="DataFormatsITSMFT/Digit.h">
<polygon fill="none" stroke="#000000" points="21.9533,-118 21.9533,-137 170.9533,-137 170.9533,-118 21.9533,-118"/>
<text text-anchor="middle" x="96.4533" y="-125" font-family="Helvetica,sans-Serif" font-size="10.00" fill="#000000">DataFormatsITSMFT/Digit.h</text>
</a>
</g>
</g>
<!-- Node10&#45;&gt;Node11 -->
<g id="edge13" class="edge">
<title>Node10&#45;&gt;Node11</title>
<path fill="none" stroke="#191970" d="M462.6755,-184.8292C384.3402,-172.5664 249.5832,-151.4713 167.2011,-138.575"/>
<polygon fill="#191970" stroke="#191970" points="167.5951,-135.0941 157.1741,-137.0054 166.5124,-142.0099 167.5951,-135.0941"/>
</g>
<!-- Node10&#45;&gt;Node13 -->
<g id="edge17" class="edge">
<title>Node10&#45;&gt;Node13</title>
<path fill="none" stroke="#191970" d="M585.9655,-181.661C653.2089,-167.6258 758.4841,-145.6524 811.9181,-134.4996"/>
<polygon fill="#191970" stroke="#191970" points="812.8131,-137.8883 821.887,-132.4188 811.3828,-131.0359 812.8131,-137.8883"/>
</g>
<!-- Node14 -->
<g id="node15" class="node">
<title>Node14</title>
<polygon fill="none" stroke="#bfbfbf" points="539.9533,-118 539.9533,-137 584.9533,-137 584.9533,-118 539.9533,-118"/>
<text text-anchor="middle" x="562.4533" y="-125" font-family="Helvetica,sans-Serif" font-size="10.00" fill="#000000">utility</text>
</g>
<!-- Node10&#45;&gt;Node14 -->
<g id="edge18" class="edge">
<title>Node10&#45;&gt;Node14</title>
<path fill="none" stroke="#191970" d="M533.0761,-179.2967C538.7092,-169.3645 546.0979,-156.3371 552.056,-145.8321"/>
<polygon fill="#191970" stroke="#191970" points="555.145,-147.4801 557.034,-137.055 549.0562,-144.0266 555.145,-147.4801"/>
</g>
<!-- Node11&#45;&gt;Node5 -->
<g id="edge14" class="edge">
<title>Node11&#45;&gt;Node5</title>
<path fill="none" stroke="#191970" d="M101.1338,-117.9237C109.6117,-101.7837 129.1908,-69.5968 156.4533,-56 231.55,-18.5466 828.4868,-11.4741 989.537,-10.2429"/>
<polygon fill="#191970" stroke="#191970" points="989.9622,-13.74 999.9364,-10.167 989.9111,-6.7402 989.9622,-13.74"/>
</g>
<!-- Node11&#45;&gt;Node12 -->
<g id="edge15" class="edge">
<title>Node11&#45;&gt;Node12</title>
<path fill="none" stroke="#191970" d="M111.1408,-117.8906C126.1789,-108.0519 149.7709,-92.6167 167.32,-81.1351"/>
<polygon fill="#191970" stroke="#191970" points="169.417,-83.9457 175.8689,-75.5419 165.5845,-78.088 169.417,-83.9457"/>
</g>
<!-- Node15&#45;&gt;Node4 -->
<g id="edge21" class="edge">
<title>Node15&#45;&gt;Node4</title>
<path fill="none" stroke="#191970" d="M211.1125,-179.493C223.4284,-169.9176 238.8682,-156.7544 250.4533,-143 265.739,-124.852 279.125,-101.0283 287.4574,-84.7149"/>
<polygon fill="#191970" stroke="#191970" points="290.6482,-86.1588 291.9642,-75.646 284.3796,-83.0435 290.6482,-86.1588"/>
</g>
<!-- Node16&#45;&gt;Node2 -->
<g id="edge24" class="edge">
<title>Node16&#45;&gt;Node2</title>
<path fill="none" stroke="#191970" d="M1305.1573,-179.3442C1305.6856,-160.4456 1309.7022,-128.6084 1329.4533,-112 1358.1996,-87.8276 1612.9222,-72.5946 1707.9318,-67.7106"/>
<polygon fill="#191970" stroke="#191970" points="1708.3726,-71.1929 1718.183,-67.1921 1708.0189,-64.2018 1708.3726,-71.1929"/>
</g>
<!-- Node16&#45;&gt;Node4 -->
<g id="edge23" class="edge">
<title>Node16&#45;&gt;Node4</title>
<path fill="none" stroke="#191970" d="M1299.9594,-179.3638C1291.9756,-159.8551 1275.1376,-126.7007 1248.4533,-112 1165.0839,-66.0709 503.572,-83.7001 369.2911,-75.8138"/>
<polygon fill="#191970" stroke="#191970" points="369.4674,-72.3175 359.2408,-75.0862 368.9619,-79.2992 369.4674,-72.3175"/>
</g>
<!-- Node16&#45;&gt;Node13 -->
<g id="edge31" class="edge">
<title>Node16&#45;&gt;Node13</title>
<path fill="none" stroke="#191970" d="M1241.81,-180.6718C1238.6505,-180.0842 1235.5185,-179.523 1232.4533,-179 1109.641,-158.0448 1077.9066,-159.7704 954.4533,-143 929.2246,-139.5728 900.7397,-135.5157 879.2175,-132.4121"/>
<polygon fill="#191970" stroke="#191970" points="879.6541,-128.9389 869.2562,-130.972 878.6525,-135.8669 879.6541,-128.9389"/>
</g>
<!-- Node16&#45;&gt;Node17 -->
<g id="edge25" class="edge">
<title>Node16&#45;&gt;Node17</title>
<path fill="none" stroke="#191970" d="M1369.2092,-190.4217C1422.4602,-187.0924 1500.3871,-182.3993 1568.4533,-179 1763.707,-169.2487 2257.0561,-187.3625 2447.4533,-143 2449.9451,-142.4194 2452.479,-141.6629 2454.986,-140.7965"/>
<polygon fill="#191970" stroke="#191970" points="2456.3849,-144.0067 2464.3758,-137.05 2453.7907,-137.5051 2456.3849,-144.0067"/>
</g>
<!-- Node18 -->
<g id="node19" class="node">
<title>Node18</title>
<polygon fill="none" stroke="#bfbfbf" points="1534.9533,-118 1534.9533,-137 1599.9533,-137 1599.9533,-118 1534.9533,-118"/>
<text text-anchor="middle" x="1567.4533" y="-125" font-family="Helvetica,sans-Serif" font-size="10.00" fill="#000000">stdexcept</text>
</g>
<!-- Node16&#45;&gt;Node18 -->
<g id="edge26" class="edge">
<title>Node16&#45;&gt;Node18</title>
<path fill="none" stroke="#191970" d="M1369.0633,-181.7873C1413.2945,-172.4186 1473.4197,-158.6265 1525.4533,-143 1528.0842,-142.2099 1530.7893,-141.3425 1533.4978,-140.4342"/>
<polygon fill="#191970" stroke="#191970" points="1534.9188,-143.6449 1543.1957,-137.031 1532.6009,-137.0398 1534.9188,-143.6449"/>
</g>
<!-- Node19 -->
<g id="node20" class="node">
<title>Node19</title>
<polygon fill="none" stroke="#bfbfbf" points="1047.4533,-118 1047.4533,-137 1095.4533,-137 1095.4533,-118 1047.4533,-118"/>
<text text-anchor="middle" x="1071.4533" y="-125" font-family="Helvetica,sans-Serif" font-size="10.00" fill="#000000">gsl/gsl</text>
</g>
<!-- Node16&#45;&gt;Node19 -->
<g id="edge27" class="edge">
<title>Node16&#45;&gt;Node19</title>
<path fill="none" stroke="#191970" d="M1252.9391,-179.4639C1207.7906,-166.5368 1144.0114,-148.2752 1105.3209,-137.1971"/>
<polygon fill="#191970" stroke="#191970" points="1106.1579,-133.7962 1095.5807,-134.4083 1104.231,-140.5258 1106.1579,-133.7962"/>
</g>
<!-- Node20 -->
<g id="node21" class="node">
<title>Node20</title>
<polygon fill="none" stroke="#bfbfbf" points="1447.9533,-118 1447.9533,-137 1516.9533,-137 1516.9533,-118 1447.9533,-118"/>
<text text-anchor="middle" x="1482.4533" y="-125" font-family="Helvetica,sans-Serif" font-size="10.00" fill="#000000">type_traits</text>
</g>
<!-- Node16&#45;&gt;Node20 -->
<g id="edge28" class="edge">
<title>Node16&#45;&gt;Node20</title>
<path fill="none" stroke="#191970" d="M1345.1755,-179.4639C1376.0357,-167.7824 1418.4033,-151.7449 1447.8766,-140.5884"/>
<polygon fill="#191970" stroke="#191970" points="1449.229,-143.8189 1457.3423,-137.0053 1446.7508,-137.2722 1449.229,-143.8189"/>
</g>
<!-- Node21 -->
<g id="node22" class="node">
<title>Node21</title>
<polygon fill="none" stroke="#bfbfbf" points="1189.4533,-118 1189.4533,-137 1239.4533,-137 1239.4533,-118 1189.4533,-118"/>
<text text-anchor="middle" x="1214.4533" y="-125" font-family="Helvetica,sans-Serif" font-size="10.00" fill="#000000">cstring</text>
</g>
<!-- Node16&#45;&gt;Node21 -->
<g id="edge29" class="edge">
<title>Node16&#45;&gt;Node21</title>
<path fill="none" stroke="#191970" d="M1284.804,-179.2967C1270.0751,-168.4524 1250.3347,-153.9182 1235.5137,-143.006"/>
<polygon fill="#191970" stroke="#191970" points="1237.5589,-140.1655 1227.4309,-137.055 1233.4086,-145.8025 1237.5589,-140.1655"/>
</g>
<!-- Node16&#45;&gt;Node22 -->
<g id="edge30" class="edge">
<title>Node16&#45;&gt;Node22</title>
<path fill="none" stroke="#191970" d="M1327.0103,-179.2967C1342.3865,-168.4524 1362.9947,-153.9182 1378.4671,-143.006"/>
<polygon fill="#191970" stroke="#191970" points="1380.7503,-145.6787 1386.9052,-137.055 1376.7159,-139.9582 1380.7503,-145.6787"/>
</g>
<!-- Node23&#45;&gt;Node2 -->
<g id="edge39" class="edge">
<title>Node23&#45;&gt;Node2</title>
<path fill="none" stroke="#191970" d="M2285.8808,-315.0527C2282.6925,-314.3581 2279.5353,-313.6706 2276.4533,-313 2202.6865,-296.9492 2179.5726,-307.3591 2110.4533,-277 1993.9419,-225.825 1989.703,-170.0369 1876.4533,-112 1844.8336,-95.7959 1806.2201,-83.1579 1778.7618,-75.2633"/>
<polygon fill="#191970" stroke="#191970" points="1779.396,-71.8061 1768.8221,-72.4723 1777.5036,-78.5455 1779.396,-71.8061"/>
</g>
<!-- Node23&#45;&gt;Node5 -->
<g id="edge36" class="edge">
<title>Node23&#45;&gt;Node5</title>
<path fill="none" stroke="#191970" d="M2321.4146,-313.3533C2242.2268,-267.3058 2007.5472,-130.9635 1972.4533,-112 1923.8406,-85.7314 1914.8346,-70.2714 1861.4533,-56 1784.5205,-35.4322 1224.4119,-16.2149 1069.221,-11.2411"/>
<polygon fill="#191970" stroke="#191970" points="1069.282,-7.7413 1059.1756,-10.9209 1069.059,-14.7378 1069.282,-7.7413"/>
</g>
<!-- Node23&#45;&gt;Node24 -->
<g id="edge37" class="edge">
<title>Node23&#45;&gt;Node24</title>
<path fill="none" stroke="#191970" d="M2409.3493,-326.3755C2524.99,-320.3687 2779.5752,-297.4303 2972.4533,-210 2995.5835,-199.5152 2998.4716,-191.7178 3020.4533,-179 3043.9465,-165.4077 3071.4062,-151.3941 3091.6005,-141.4233"/>
<polygon fill="#191970" stroke="#191970" points="3093.1664,-144.5536 3100.6037,-137.0079 3090.0842,-138.2687 3093.1664,-144.5536"/>
</g>
<!-- Node25 -->
<g id="node26" class="node">
<title>Node25</title>
<polygon fill="none" stroke="#bfbfbf" points="2678.9533,-252 2678.9533,-271 2727.9533,-271 2727.9533,-252 2678.9533,-252"/>
<text text-anchor="middle" x="2703.4533" y="-259" font-family="Helvetica,sans-Serif" font-size="10.00" fill="#000000">cstdlib</text>
</g>
<!-- Node23&#45;&gt;Node25 -->
<g id="edge38" class="edge">
<title>Node23&#45;&gt;Node25</title>
<path fill="none" stroke="#191970" d="M2409.0719,-322.5019C2473.575,-315.2954 2577.3927,-301.0642 2664.4533,-277 2667.0626,-276.2788 2669.7361,-275.4404 2672.4001,-274.534"/>
<polygon fill="#191970" stroke="#191970" points="2673.7024,-277.7842 2681.875,-271.0419 2671.2816,-271.2161 2673.7024,-277.7842"/>
</g>
<!-- Node26 -->
<g id="node27" class="node">
<title>Node26</title>
<polygon fill="none" stroke="#bfbfbf" points="2394.4533,-118 2394.4533,-137 2438.4533,-137 2438.4533,-118 2394.4533,-118"/>
<text text-anchor="middle" x="2416.4533" y="-125" font-family="Helvetica,sans-Serif" font-size="10.00" fill="#000000">string</text>
</g>
<!-- Node23&#45;&gt;Node26 -->
<g id="edge40" class="edge">
<title>Node23&#45;&gt;Node26</title>
<path fill="none" stroke="#191970" d="M2352.6395,-313.3923C2364.9844,-277.431 2396.1026,-186.7824 2409.803,-146.8727"/>
<polygon fill="#191970" stroke="#191970" points="2413.1676,-147.8508 2413.1041,-137.2562 2406.5468,-145.578 2413.1676,-147.8508"/>
</g>
<!-- Node27 -->
<g id="node28" class="node">
<title>Node27</title>
<g id="a_node28"><a xlink:href="../../dc/dcd/DataHeader_8h.html" target="_top" xlink:title="Headers/DataHeader.h">
<polygon fill="none" stroke="#000000" points="2152.9533,-185 2152.9533,-204 2279.9533,-204 2279.9533,-185 2152.9533,-185"/>
<text text-anchor="middle" x="2216.4533" y="-192" font-family="Helvetica,sans-Serif" font-size="10.00" fill="#000000">Headers/DataHeader.h</text>
</a>
</g>
</g>
<!-- Node23&#45;&gt;Node27 -->
<g id="edge41" class="edge">
<title>Node23&#45;&gt;Node27</title>
<path fill="none" stroke="#191970" d="M2332.6806,-313.389C2308.0605,-288.2051 2258.803,-237.8195 2233.0327,-211.4592"/>
<polygon fill="#191970" stroke="#191970" points="2235.3358,-208.8081 2225.8424,-204.1042 2230.3303,-213.7016 2235.3358,-208.8081"/>
</g>
<!-- Node31 -->
<g id="node32" class="node">
<title>Node31</title>
<g id="a_node32"><a xlink:href="../../dc/dd8/RUInfo_8h.html" target="_top" xlink:title="ITSMFTReconstruction\l/RUInfo.h">
<polygon fill="none" stroke="#000000" points="1894.9533,-246.5 1894.9533,-276.5 2017.9533,-276.5 2017.9533,-246.5 1894.9533,-246.5"/>
<text text-anchor="start" x="1902.9533" y="-264.5" font-family="Helvetica,sans-Serif" font-size="10.00" fill="#000000">ITSMFTReconstruction</text>
<text text-anchor="middle" x="1956.4533" y="-253.5" font-family="Helvetica,sans-Serif" font-size="10.00" fill="#000000">/RUInfo.h</text>
</a>
</g>
</g>
<!-- Node23&#45;&gt;Node31 -->
<g id="edge52" class="edge">
<title>Node23&#45;&gt;Node31</title>
<path fill="none" stroke="#191970" d="M2285.9223,-314.8489C2282.7232,-314.2075 2279.5523,-313.5872 2276.4533,-313 2191.4369,-296.8917 2093.0951,-281.5533 2028.1114,-271.8719"/>
<polygon fill="#191970" stroke="#191970" points="2028.3811,-268.3737 2017.9755,-270.3675 2027.3533,-275.2978 2028.3811,-268.3737"/>
</g>
<!-- Node32 -->
<g id="node33" class="node">
<title>Node32</title>
<g id="a_node33"><a xlink:href="../../d6/d31/DetID_8h.html" target="_top" xlink:title="DetectorsCommonDataFormats\l/DetID.h">
<polygon fill="none" stroke="#000000" points="2412.9533,-246.5 2412.9533,-276.5 2583.9533,-276.5 2583.9533,-246.5 2412.9533,-246.5"/>
<text text-anchor="start" x="2420.9533" y="-264.5" font-family="Helvetica,sans-Serif" font-size="10.00" fill="#000000">DetectorsCommonDataFormats</text>
<text text-anchor="middle" x="2498.4533" y="-253.5" font-family="Helvetica,sans-Serif" font-size="10.00" fill="#000000">/DetID.h</text>
</a>
</g>
</g>
<!-- Node23&#45;&gt;Node32 -->
<g id="edge55" class="edge">
<title>Node23&#45;&gt;Node32</title>
<path fill="none" stroke="#191970" d="M2381.3406,-313.4639C2403.1213,-303.7996 2431.6212,-291.154 2455.0526,-280.7572"/>
<polygon fill="#191970" stroke="#191970" points="2456.6971,-283.8567 2464.4181,-276.6017 2453.858,-277.4583 2456.6971,-283.8567"/>
</g>
<!-- Node27&#45;&gt;Node2 -->
<g id="edge42" class="edge">
<title>Node27&#45;&gt;Node2</title>
<path fill="none" stroke="#191970" d="M2189.8173,-184.9124C2143.5814,-168.4968 2045.2827,-134.5958 1960.4533,-112 1897.0247,-95.1047 1821.8628,-80.3157 1778.7096,-72.3179"/>
<polygon fill="#191970" stroke="#191970" points="1779.1806,-68.8459 1768.7126,-70.4807 1777.9153,-75.7306 1779.1806,-68.8459"/>
</g>
<!-- Node27&#45;&gt;Node12 -->
<g id="edge49" class="edge">
<title>Node27&#45;&gt;Node12</title>
<path fill="none" stroke="#191970" d="M2170.6106,-184.9481C2074.0142,-164.9818 1852.1479,-120.0107 1775.4533,-112 1435.824,-76.526 581.5708,-128.0981 225.6614,-75.716"/>
<polygon fill="#191970" stroke="#191970" points="225.9489,-72.2195 215.5364,-74.1763 224.8965,-79.14 225.9489,-72.2195"/>
</g>
<!-- Node27&#45;&gt;Node17 -->
<g id="edge44" class="edge">
<title>Node27&#45;&gt;Node17</title>
<path fill="none" stroke="#191970" d="M2273.785,-184.9793C2321.0507,-176.358 2389.4981,-162.0853 2447.4533,-143 2449.3469,-142.3764 2451.2774,-141.6861 2453.2101,-140.9533"/>
<polygon fill="#191970" stroke="#191970" points="2454.8081,-144.0808 2462.7313,-137.047 2452.1511,-137.6047 2454.8081,-144.0808"/>
</g>
<!-- Node27&#45;&gt;Node18 -->
<g id="edge47" class="edge">
<title>Node27&#45;&gt;Node18</title>
<path fill="none" stroke="#191970" d="M2152.7179,-191.3384C2018.507,-184.3159 1710.7313,-166.1907 1608.4533,-143 1605.2621,-142.2764 1601.9862,-141.3586 1598.7441,-140.3322"/>
<polygon fill="#191970" stroke="#191970" points="1599.8324,-137.0051 1589.2375,-137.0131 1597.5249,-143.6138 1599.8324,-137.0051"/>
</g>
<!-- Node27&#45;&gt;Node21 -->
<g id="edge45" class="edge">
<title>Node27&#45;&gt;Node21</title>
<path fill="none" stroke="#191970" d="M2152.9088,-191.6285C2011.004,-185.0054 1657.5893,-167.3418 1362.4533,-143 1323.7595,-139.8087 1279.4926,-135.0227 1249.53,-131.6141"/>
<polygon fill="#191970" stroke="#191970" points="1249.8948,-128.1331 1239.5611,-130.4708 1249.0971,-135.0875 1249.8948,-128.1331"/>
</g>
<!-- Node27&#45;&gt;Node22 -->
<g id="edge43" class="edge">
<title>Node27&#45;&gt;Node22</title>
<path fill="none" stroke="#191970" d="M2152.8092,-192.9118C1992.2335,-188.4845 1573.8173,-174.2232 1438.4533,-143 1435.6545,-142.3544 1432.7949,-141.5278 1429.9631,-140.5932"/>
<polygon fill="#191970" stroke="#191970" points="1431.1634,-137.3055 1420.5704,-137.1056 1428.7267,-143.8677 1431.1634,-137.3055"/>
</g>
<!-- Node27&#45;&gt;Node26 -->
<g id="edge48" class="edge">
<title>Node27&#45;&gt;Node26</title>
<path fill="none" stroke="#191970" d="M2253.3849,-184.939C2287.8003,-175.618 2340.2997,-160.3424 2384.4533,-143 2385.8538,-142.4499 2387.2777,-141.8641 2388.7079,-141.2542"/>
<polygon fill="#191970" stroke="#191970" points="2390.3988,-144.3303 2398.0552,-137.007 2387.503,-137.9574 2390.3988,-144.3303"/>
</g>
<!-- Node27&#45;&gt;Node28 -->
<g id="edge46" class="edge">
<title>Node27&#45;&gt;Node28</title>
<path fill="none" stroke="#191970" d="M2280.1342,-192.4302C2464.3299,-186.1757 2986.4188,-166.4535 3014.4533,-143 3030.9044,-129.237 3034.3696,-103.7123 3034.5614,-85.8361"/>
<polygon fill="#191970" stroke="#191970" points="3038.056,-85.5493 3034.3317,-75.6307 3031.0577,-85.707 3038.056,-85.5493"/>
</g>
<!-- Node29 -->
<g id="node30" class="node">
<title>Node29</title>
<g id="a_node30"><a xlink:href="../../d7/df8/Types_8h.html" target="_top" xlink:title="MemoryResources/Types.h">
<polygon fill="none" stroke="#000000" points="2164.4533,-118 2164.4533,-137 2310.4533,-137 2310.4533,-118 2164.4533,-118"/>
<text text-anchor="middle" x="2237.4533" y="-125" font-family="Helvetica,sans-Serif" font-size="10.00" fill="#000000">MemoryResources/Types.h</text>
</a>
</g>
</g>
<!-- Node27&#45;&gt;Node29 -->
<g id="edge50" class="edge">
<title>Node27&#45;&gt;Node29</title>
<path fill="none" stroke="#191970" d="M2219.4621,-184.9005C2222.5497,-175.0495 2227.4406,-159.4451 2231.3441,-146.9912"/>
<polygon fill="#191970" stroke="#191970" points="2234.7989,-147.6707 2234.4501,-137.0817 2228.1194,-145.5771 2234.7989,-147.6707"/>
</g>
<!-- Node30 -->
<g id="node31" class="node">
<title>Node30</title>
<polygon fill="none" stroke="#bfbfbf" points="2328.9533,-118 2328.9533,-137 2375.9533,-137 2375.9533,-118 2328.9533,-118"/>
<text text-anchor="middle" x="2352.4533" y="-125" font-family="Helvetica,sans-Serif" font-size="10.00" fill="#000000">cerrno</text>
</g>
<!-- Node27&#45;&gt;Node30 -->
<g id="edge51" class="edge">
<title>Node27&#45;&gt;Node30</title>
<path fill="none" stroke="#191970" d="M2235.9388,-184.9005C2258.9646,-173.5569 2297.4761,-154.5844 2323.8765,-141.5783"/>
<polygon fill="#191970" stroke="#191970" points="2325.5802,-144.6407 2333.0039,-137.0817 2322.4867,-138.3613 2325.5802,-144.6407"/>
</g>
<!-- Node31&#45;&gt;Node2 -->
<g id="edge54" class="edge">
<title>Node31&#45;&gt;Node2</title>
<path fill="none" stroke="#191970" d="M1948.788,-246.3425C1933.2025,-216.8533 1895.1314,-151.2226 1846.4533,-112 1826.311,-95.7703 1799.5348,-84.0427 1778.332,-76.4918"/>
<polygon fill="#191970" stroke="#191970" points="1779.3206,-73.1311 1768.7261,-73.2173 1777.062,-79.7568 1779.3206,-73.1311"/>
</g>
<!-- Node31&#45;&gt;Node5 -->
<g id="edge53" class="edge">
<title>Node31&#45;&gt;Node5</title>
<path fill="none" stroke="#191970" d="M1954.0161,-246.4903C1950.8128,-229.3936 1944.1693,-200.9838 1932.4533,-179 1891.0918,-101.3898 1861.7725,-80.9878 1777.4533,-56 1709.4542,-35.8487 1214.6542,-16.6538 1069.4232,-11.4049"/>
<polygon fill="#191970" stroke="#191970" points="1069.3082,-7.8986 1059.1889,-11.0372 1069.0568,-14.894 1069.3082,-7.8986"/>
</g>
<!-- Node32&#45;&gt;Node2 -->
<g id="edge60" class="edge">
<title>Node32&#45;&gt;Node2</title>
<path fill="none" stroke="#191970" d="M2507.1354,-246.4049C2523.1038,-216.4373 2552.4427,-149.1307 2517.4533,-112 2491.813,-84.7907 1927.6265,-70.161 1779.0478,-66.7713"/>
<polygon fill="#191970" stroke="#191970" points="1778.7653,-63.2642 1768.689,-66.538 1778.6076,-70.2624 1778.7653,-63.2642"/>
</g>
<!-- Node32&#45;&gt;Node5 -->
<g id="edge56" class="edge">
<title>Node32&#45;&gt;Node5</title>
<path fill="none" stroke="#191970" d="M2516.5449,-246.3413C2526.2421,-236.9968 2537.2421,-224.1218 2542.4533,-210 2549.2299,-191.6359 2549.4979,-123.0831 2539.4533,-112 2422.1549,17.4261 2324.3859,-72.0461 2150.4533,-56 1728.4862,-17.0716 1214.1245,-11.0865 1069.154,-10.1669"/>
<polygon fill="#191970" stroke="#191970" points="1068.9921,-6.6659 1058.9716,-10.1069 1068.9508,-13.6658 1068.9921,-6.6659"/>
</g>
<!-- Node32&#45;&gt;Node17 -->
<g id="edge59" class="edge">
<title>Node32&#45;&gt;Node17</title>
<path fill="none" stroke="#191970" d="M2493.3075,-246.3803C2490.1095,-236.2244 2486.272,-222.4691 2484.4533,-210 2481.3619,-188.8052 2481.1991,-164.2297 2481.5986,-147.4502"/>
<polygon fill="#191970" stroke="#191970" points="2485.1045,-147.3265 2481.936,-137.2165 2478.1083,-147.0957 2485.1045,-147.3265"/>
</g>
<!-- Node32&#45;&gt;Node20 -->
<g id="edge63" class="edge">
<title>Node32&#45;&gt;Node20</title>
<path fill="none" stroke="#191970" d="M2412.6916,-258.3647C2189.7888,-249.9998 1606.7809,-226.6572 1568.4533,-210 1551.7958,-202.7607 1517.5363,-166.6471 1497.6532,-144.6695"/>
<polygon fill="#191970" stroke="#191970" points="1500.0846,-142.1382 1490.8035,-137.0282 1494.8722,-146.8107 1500.0846,-142.1382"/>
</g>
<!-- Node32&#45;&gt;Node24 -->
<g id="edge57" class="edge">
<title>Node32&#45;&gt;Node24</title>
<path fill="none" stroke="#191970" d="M2584.1067,-254.038C2633.694,-247.2535 2696.2311,-234.3729 2747.4533,-210 2767.1347,-200.635 2765.5083,-187.7898 2785.4533,-179 2886.1651,-134.6161 2921.7699,-160.341 3030.4533,-143 3050.0318,-139.8761 3071.9573,-136.1058 3089.2655,-133.0659"/>
<polygon fill="#191970" stroke="#191970" points="3090.1441,-136.465 3099.3834,-131.2798 3088.9272,-129.5716 3090.1441,-136.465"/>
</g>
<!-- Node32&#45;&gt;Node26 -->
<g id="edge62" class="edge">
<title>Node32&#45;&gt;Node26</title>
<path fill="none" stroke="#191970" d="M2489.2062,-246.389C2474.0609,-221.6393 2444.0209,-172.5495 2427.6786,-145.8438"/>
<polygon fill="#191970" stroke="#191970" points="2430.5355,-143.807 2422.3305,-137.1042 2424.5648,-147.4607 2430.5355,-143.807"/>
</g>
<!-- Node32&#45;&gt;Node27 -->
<g id="edge75" class="edge">
<title>Node32&#45;&gt;Node27</title>
<path fill="none" stroke="#191970" d="M2435.167,-246.4639C2384.183,-234.3507 2313.4848,-217.5536 2266.4216,-206.3719"/>
<polygon fill="#191970" stroke="#191970" points="2266.9988,-202.9117 2256.4606,-204.0053 2265.3807,-209.7221 2266.9988,-202.9117"/>
</g>
<!-- Node32&#45;&gt;Node33 -->
<g id="edge58" class="edge">
<title>Node32&#45;&gt;Node33</title>
<path fill="none" stroke="#191970" d="M2584.1695,-250.9825C2640.6817,-242.8004 2715.9033,-229.5159 2780.4533,-210 2782.6231,-209.344 2784.8378,-208.5962 2787.049,-207.7917"/>
<polygon fill="#191970" stroke="#191970" points="2788.5685,-210.9542 2796.5702,-204.0099 2785.9845,-204.4486 2788.5685,-210.9542"/>
</g>
<!-- Node32&#45;&gt;Node34 -->
<g id="edge61" class="edge">
<title>Node32&#45;&gt;Node34</title>
<path fill="none" stroke="#191970" d="M2584.3483,-250.6124C2671.0943,-239.2956 2798.9927,-221.6414 2847.4533,-210 2850.9179,-209.1677 2854.4928,-208.1875 2858.0472,-207.131"/>
<polygon fill="#191970" stroke="#191970" points="2859.4241,-210.3664 2867.9009,-204.0108 2857.3109,-203.693 2859.4241,-210.3664"/>
</g>
<!-- Node35 -->
<g id="node36" class="node">
<title>Node35</title>
<g id="a_node36"><a xlink:href="../../d9/d52/Common_2MathUtils_2include_2MathUtils_2Utils_8h.html" target="_top" xlink:title="MathUtils/Utils.h">
<polygon fill="none" stroke="#000000" points="2640.4533,-185 2640.4533,-204 2738.4533,-204 2738.4533,-185 2640.4533,-185"/>
<text text-anchor="middle" x="2689.4533" y="-192" font-family="Helvetica,sans-Serif" font-size="10.00" fill="#000000">MathUtils/Utils.h</text>
</a>
</g>
</g>
<!-- Node32&#45;&gt;Node35 -->
<g id="edge64" class="edge">
<title>Node32&#45;&gt;Node35</title>
<path fill="none" stroke="#191970" d="M2541.3174,-246.4639C2574.7632,-234.7316 2620.7349,-218.6054 2652.5557,-207.4431"/>
<polygon fill="#191970" stroke="#191970" points="2654.0784,-210.6182 2662.3561,-204.0053 2651.7613,-204.0128 2654.0784,-210.6182"/>
</g>
<!-- Node35&#45;&gt;Node7 -->
<g id="edge66" class="edge">
<title>Node35&#45;&gt;Node7</title>
<path fill="none" stroke="#191970" d="M2725.2915,-184.9942C2734.1313,-182.8402 2743.6026,-180.692 2752.4533,-179 2810.1772,-167.9647 2975.829,-187.2944 3014.4533,-143 3023.5083,-132.6157 3020.8714,-124.1916 3014.4533,-112 3007.0837,-98.001 2993.3168,-87.4404 2980.1703,-79.9918"/>
<polygon fill="#191970" stroke="#191970" points="2981.7375,-76.8617 2971.2542,-75.3282 2978.4931,-83.0644 2981.7375,-76.8617"/>
</g>
<!-- Node35&#45;&gt;Node24 -->
<g id="edge65" class="edge">
<title>Node35&#45;&gt;Node24</title>
<path fill="none" stroke="#191970" d="M2724.5964,-184.9741C2733.6246,-182.7697 2743.3573,-180.6032 2752.4533,-179 2899.0558,-153.1603 2941.6824,-181.5995 3085.4533,-143 3087.6435,-142.412 3089.8718,-141.7053 3092.0889,-140.922"/>
<polygon fill="#191970" stroke="#191970" points="3093.5982,-144.0881 3101.5865,-137.1285 3091.0016,-137.5875 3093.5982,-144.0881"/>
</g>
<!-- Node36 -->
<g id="node37" class="node">
<title>Node36</title>
<g id="a_node37"><a xlink:href="../../df/d21/GPUCommonDef_8h.html" target="_top" xlink:title="GPUCommonDef.h">
<polygon fill="none" stroke="#000000" points="2602.9533,-56.5 2602.9533,-75.5 2709.9533,-75.5 2709.9533,-56.5 2602.9533,-56.5"/>
<text text-anchor="middle" x="2656.4533" y="-63.5" font-family="Helvetica,sans-Serif" font-size="10.00" fill="#000000">GPUCommonDef.h</text>
</a>
</g>
</g>
<!-- Node35&#45;&gt;Node36 -->
<g id="edge67" class="edge">
<title>Node35&#45;&gt;Node36</title>
<path fill="none" stroke="#191970" d="M2685.0133,-184.8276C2680.4932,-174.6243 2673.5804,-157.9801 2669.4533,-143 2664.1796,-123.8582 2660.6852,-101.4173 2658.6603,-85.7168"/>
<polygon fill="#191970" stroke="#191970" points="2662.1147,-85.1275 2657.4412,-75.6192 2655.1652,-85.9666 2662.1147,-85.1275"/>
</g>
<!-- Node39 -->
<g id="node40" class="node">
<title>Node39</title>
<g id="a_node40"><a xlink:href="../../d6/da2/GPUCommonMath_8h.html" target="_top" xlink:title="GPUCommonMath.h">
<polygon fill="none" stroke="#000000" points="2889.9533,-118 2889.9533,-137 3004.9533,-137 3004.9533,-118 2889.9533,-118"/>
<text text-anchor="middle" x="2947.4533" y="-125" font-family="Helvetica,sans-Serif" font-size="10.00" fill="#000000">GPUCommonMath.h</text>
</a>
</g>
</g>
<!-- Node35&#45;&gt;Node39 -->
<g id="edge70" class="edge">
<title>Node35&#45;&gt;Node39</title>
<path fill="none" stroke="#191970" d="M2726.1444,-184.9717C2771.9582,-173.0743 2850.3918,-152.7059 2900.531,-139.6852"/>
<polygon fill="#191970" stroke="#191970" points="2901.6718,-143.0052 2910.471,-137.1039 2899.9123,-136.2299 2901.6718,-143.0052"/>
</g>
<!-- Node40 -->
<g id="node41" class="node">
<title>Node40</title>
<g id="a_node41"><a xlink:href="../../d6/d84/MathConstants_8h.html" target="_top" xlink:title="useful math constants ">
<polygon fill="none" stroke="#000000" points="2678.4533,-118 2678.4533,-137 2872.4533,-137 2872.4533,-118 2678.4533,-118"/>
<text text-anchor="middle" x="2775.4533" y="-125" font-family="Helvetica,sans-Serif" font-size="10.00" fill="#000000">CommonConstants/MathConstants.h</text>
</a>
</g>
</g>
<!-- Node35&#45;&gt;Node40 -->
<g id="edge74" class="edge">
<title>Node35&#45;&gt;Node40</title>
<path fill="none" stroke="#191970" d="M2701.775,-184.9005C2715.6968,-174.0544 2738.5709,-156.2339 2755.1433,-143.3229"/>
<polygon fill="#191970" stroke="#191970" points="2757.4169,-145.9885 2763.1544,-137.0817 2753.1148,-140.4664 2757.4169,-145.9885"/>
</g>
<!-- Node37 -->
<g id="node38" class="node">
<title>Node37</title>
<g id="a_node38"><a xlink:href="../../d5/d93/GPUCommonDefSettings_8h.html" target="_top" xlink:title="GPUCommonDefSettings.h">
<polygon fill="none" stroke="#000000" points="2659.4533,-.5 2659.4533,-19.5 2807.4533,-19.5 2807.4533,-.5 2659.4533,-.5"/>
<text text-anchor="middle" x="2733.4533" y="-7.5" font-family="Helvetica,sans-Serif" font-size="10.00" fill="#000000">GPUCommonDefSettings.h</text>
</a>
</g>
</g>
<!-- Node36&#45;&gt;Node37 -->
<g id="edge68" class="edge">
<title>Node36&#45;&gt;Node37</title>
<path fill="none" stroke="#191970" d="M2669.8657,-56.2455C2681.459,-47.814 2698.428,-35.4729 2711.9211,-25.6598"/>
<polygon fill="#191970" stroke="#191970" points="2714.1658,-28.355 2720.1946,-19.6427 2710.0486,-22.6938 2714.1658,-28.355"/>
</g>
<!-- Node38 -->
<g id="node39" class="node">
<title>Node38</title>
<g id="a_node39"><a xlink:href="../../da/d5a/GPUCommonDefAPI_8h.html" target="_top" xlink:title="GPUCommonDefAPI.h">
<polygon fill="none" stroke="#000000" points="2517.4533,-.5 2517.4533,-19.5 2641.4533,-19.5 2641.4533,-.5 2517.4533,-.5"/>
<text text-anchor="middle" x="2579.4533" y="-7.5" font-family="Helvetica,sans-Serif" font-size="10.00" fill="#000000">GPUCommonDefAPI.h</text>
</a>
</g>
</g>
<!-- Node36&#45;&gt;Node38 -->
<g id="edge69" class="edge">
<title>Node36&#45;&gt;Node38</title>
<path fill="none" stroke="#191970" d="M2643.0409,-56.2455C2631.4476,-47.814 2614.4785,-35.4729 2600.9855,-25.6598"/>
<polygon fill="#191970" stroke="#191970" points="2602.858,-22.6938 2592.712,-19.6427 2598.7407,-28.355 2602.858,-22.6938"/>
</g>
<!-- Node39&#45;&gt;Node7 -->
<g id="edge72" class="edge">
<title>Node39&#45;&gt;Node7</title>
<path fill="none" stroke="#191970" d="M2947.4533,-117.8906C2947.4533,-109.3657 2947.4533,-96.6392 2947.4533,-85.9235"/>
<polygon fill="#191970" stroke="#191970" points="2950.9534,-85.7448 2947.4533,-75.7449 2943.9534,-85.7449 2950.9534,-85.7448"/>
</g>
<!-- Node39&#45;&gt;Node28 -->
<g id="edge73" class="edge">
<title>Node39&#45;&gt;Node28</title>
<path fill="none" stroke="#191970" d="M2960.8908,-117.8906C2974.5228,-108.1421 2995.8379,-92.8994 3011.8455,-81.4521"/>
<polygon fill="#191970" stroke="#191970" points="3014.0119,-84.2057 3020.1101,-75.5419 3009.9401,-78.5118 3014.0119,-84.2057"/>
</g>
<!-- Node39&#45;&gt;Node36 -->
<g id="edge71" class="edge">
<title>Node39&#45;&gt;Node36</title>
<path fill="none" stroke="#191970" d="M2907.7087,-117.9693C2899.0642,-115.9514 2889.9604,-113.8682 2881.4533,-112 2825.1554,-99.6371 2760.6892,-86.5678 2715.2336,-77.5324"/>
<polygon fill="#191970" stroke="#191970" points="2715.748,-74.0663 2705.2581,-75.5536 2714.386,-80.9325 2715.748,-74.0663"/>
</g>
<!-- Node41&#45;&gt;Node2 -->
<g id="edge79" class="edge">
<title>Node41&#45;&gt;Node2</title>
<path fill="none" stroke="#191970" d="M950.3964,-259.5159C1075.6086,-254.8652 1349.3604,-241.2069 1377.4533,-210 1406.9336,-177.2519 1333.2231,-144.9716 1362.4533,-112 1385.2253,-86.3132 1618.2543,-72.1721 1708.2516,-67.6345"/>
<polygon fill="#191970" stroke="#191970" points="1708.432,-71.13 1718.2471,-67.1406 1708.0865,-64.1385 1708.432,-71.13"/>
</g>
<!-- Node41&#45;&gt;Node5 -->
<g id="edge77" class="edge">
<title>Node41&#45;&gt;Node5</title>
<path fill="none" stroke="#191970" d="M891.4617,-246.45C899.2294,-210.4982 922.6993,-118.0038 969.4533,-56 978.7104,-43.7235 992.0586,-33.0504 1003.8156,-25.0839"/>
<polygon fill="#191970" stroke="#191970" points="1005.9009,-27.9036 1012.4019,-19.5377 1002.1028,-22.0236 1005.9009,-27.9036"/>
</g>
<!-- Node41&#45;&gt;Node10 -->
<g id="edge89" class="edge">
<title>Node41&#45;&gt;Node10</title>
<path fill="none" stroke="#191970" d="M826.7056,-250.1344C762.9424,-238.3977 663.5352,-220.1002 596.2916,-207.723"/>
<polygon fill="#191970" stroke="#191970" points="596.6677,-204.2335 586.1993,-205.8653 595.4005,-211.1178 596.6677,-204.2335"/>
</g>
<!-- Node41&#45;&gt;Node13 -->
<g id="edge80" class="edge">
<title>Node41&#45;&gt;Node13</title>
<path fill="none" stroke="#191970" d="M885.9473,-246.331C882.9532,-229.5763 877.3399,-201.9332 869.4533,-179 865.5963,-167.7845 860.0683,-155.7439 855.2896,-146.1273"/>
<polygon fill="#191970" stroke="#191970" points="858.3522,-144.4287 850.6825,-137.1193 852.12,-147.6162 858.3522,-144.4287"/>
</g>
<!-- Node41&#45;&gt;Node26 -->
<g id="edge81" class="edge">
<title>Node41&#45;&gt;Node26</title>
<path fill="none" stroke="#191970" d="M950.3644,-260.2051C1212.9745,-254.5868 2224.3187,-231.6292 2288.4533,-210 2311.1206,-202.3555 2312.4684,-192.1473 2332.4533,-179 2351.9871,-166.1495 2374.6086,-152.3397 2391.4518,-142.2585"/>
<polygon fill="#191970" stroke="#191970" points="2393.3589,-145.1964 2400.1583,-137.0712 2389.776,-139.1828 2393.3589,-145.1964"/>
</g>
<!-- Node42 -->
<g id="node43" class="node">
<title>Node42</title>
<polygon fill="none" stroke="#bfbfbf" points="736.4533,-185 736.4533,-204 782.4533,-204 782.4533,-185 736.4533,-185"/>
<text text-anchor="middle" x="759.4533" y="-192" font-family="Helvetica,sans-Serif" font-size="10.00" fill="#000000">cstdio</text>
</g>
<!-- Node41&#45;&gt;Node42 -->
<g id="edge78" class="edge">
<title>Node41&#45;&gt;Node42</title>
<path fill="none" stroke="#191970" d="M859.5032,-246.4639C837.7611,-235.1715 808.1817,-219.8086 786.8305,-208.7192"/>
<polygon fill="#191970" stroke="#191970" points="788.4321,-205.6071 777.9444,-204.1039 785.2056,-211.8192 788.4321,-205.6071"/>
</g>
<!-- Node41&#45;&gt;Node43 -->
<g id="edge82" class="edge">
<title>Node41&#45;&gt;Node43</title>
<path fill="none" stroke="#191970" d="M840.865,-246.4009C808.795,-236.1953 765.5518,-222.3753 727.4533,-210 724.6953,-209.1042 721.8477,-208.1751 718.9819,-207.2372"/>
<polygon fill="#191970" stroke="#191970" points="719.8656,-203.8436 709.2727,-204.0495 717.682,-210.4943 719.8656,-203.8436"/>
</g>
<!-- Node44 -->
<g id="node45" class="node">
<title>Node44</title>
<polygon fill="none" stroke="#bfbfbf" points="800.4533,-185 800.4533,-204 860.4533,-204 860.4533,-185 800.4533,-185"/>
<text text-anchor="middle" x="830.4533" y="-192" font-family="Helvetica,sans-Serif" font-size="10.00" fill="#000000">iostream</text>
</g>
<!-- Node41&#45;&gt;Node44 -->
<g id="edge83" class="edge">
<title>Node41&#45;&gt;Node44</title>
<path fill="none" stroke="#191970" d="M875.2922,-246.2967C866.431,-236.0605 854.7237,-222.5366 845.494,-211.8746"/>
<polygon fill="#191970" stroke="#191970" points="847.916,-209.3248 838.7247,-204.055 842.6236,-213.9064 847.916,-209.3248"/>
</g>
<!-- Node41&#45;&gt;Node45 -->
<g id="edge84" class="edge">
<title>Node41&#45;&gt;Node45</title>
<path fill="none" stroke="#191970" d="M913.3638,-246.4639C931.7365,-235.3741 956.6133,-220.3584 974.9007,-209.32"/>
<polygon fill="#191970" stroke="#191970" points="976.7897,-212.268 983.5423,-204.1039 973.1723,-206.2751 976.7897,-212.268"/>
</g>
<!-- Node45&#45;&gt;Node5 -->
<g id="edge88" class="edge">
<title>Node45&#45;&gt;Node5</title>
<path fill="none" stroke="#191970" d="M986.7746,-184.6407C975.858,-175.2782 960.8787,-160.1188 954.4533,-143 949.6117,-130.1009 950.1584,-125.0912 954.4533,-112 965.6646,-77.8271 993.1837,-45.6685 1011.5839,-26.9098"/>
<polygon fill="#191970" stroke="#191970" points="1014.1965,-29.2483 1018.8372,-19.7239 1009.2699,-24.2754 1014.1965,-29.2483"/>
</g>
<!-- Node45&#45;&gt;Node13 -->
<g id="edge86" class="edge">
<title>Node45&#45;&gt;Node13</title>
<path fill="none" stroke="#191970" d="M977.3888,-184.9005C951.0867,-173.4574 906.9405,-154.2509 877.0287,-141.2374"/>
<polygon fill="#191970" stroke="#191970" points="878.0429,-137.8617 867.4768,-137.0817 875.2502,-144.2806 878.0429,-137.8617"/>
</g>
<!-- Node45&#45;&gt;Node21 -->
<g id="edge85" class="edge">
<title>Node45&#45;&gt;Node21</title>
<path fill="none" stroke="#191970" d="M1030.2575,-184.9005C1069.8393,-172.5657 1138.367,-151.2106 1179.7494,-138.3147"/>
<polygon fill="#191970" stroke="#191970" points="1180.8948,-141.6239 1189.4006,-135.3071 1178.8121,-134.9408 1180.8948,-141.6239"/>
</g>
<!-- Node46 -->
<g id="node47" class="node">
<title>Node46</title>
<polygon fill="none" stroke="#bfbfbf" points="963.9533,-118 963.9533,-137 1028.9533,-137 1028.9533,-118 963.9533,-118"/>
<text text-anchor="middle" x="996.4533" y="-125" font-family="Helvetica,sans-Serif" font-size="10.00" fill="#000000">functional</text>
</g>
<!-- Node45&#45;&gt;Node46 -->
<g id="edge87" class="edge">
<title>Node45&#45;&gt;Node46</title>
<path fill="none" stroke="#191970" d="M999.0235,-184.9005C998.5868,-175.149 997.8977,-159.7597 997.343,-147.3695"/>
<polygon fill="#191970" stroke="#191970" points="1000.8262,-146.9151 996.8823,-137.0817 993.8332,-147.2282 1000.8262,-146.9151"/>
</g>
<!-- Node47&#45;&gt;Node2 -->
<g id="edge92" class="edge">
<title>Node47&#45;&gt;Node2</title>
<path fill="none" stroke="#191970" d="M1892.7971,-313.4701C1879.2469,-304.2565 1862.9142,-291.4689 1851.4533,-277 1801.3214,-213.7109 1815.5511,-182.0777 1775.4533,-112 1769.9182,-102.3265 1762.9286,-92.0988 1756.8949,-83.7501"/>
<polygon fill="#191970" stroke="#191970" points="1759.5918,-81.5103 1750.8368,-75.5436 1753.9601,-85.6677 1759.5918,-81.5103"/>
</g>
<!-- Node47&#45;&gt;Node5 -->
<g id="edge91" class="edge">
<title>Node47&#45;&gt;Node5</title>
<path fill="none" stroke="#191970" d="M1978.7916,-313.4253C1997.3081,-305.697 2015.5885,-294.1497 2026.4533,-277 2033.8267,-265.3613 2031.1814,-258.9411 2026.4533,-246 1983.5983,-128.7042 1938.8388,-92.6327 1819.4533,-56 1747.4658,-33.9111 1219.3765,-15.9187 1069.1932,-11.2068"/>
<polygon fill="#191970" stroke="#191970" points="1069.1487,-7.7038 1059.0445,-10.8906 1068.9307,-14.7004 1069.1487,-7.7038"/>
</g>
<!-- Node48&#45;&gt;Node2 -->
<g id="edge94" class="edge">
<title>Node48&#45;&gt;Node2</title>
<path fill="none" stroke="#191970" d="M2107.1797,-322.7708C2029.9884,-315.8725 1920.0708,-301.9692 1885.4533,-277 1818.047,-228.3805 1849.5572,-176.7505 1797.4533,-112 1788.4055,-100.7562 1776.3257,-90.1672 1765.8856,-81.9897"/>
<polygon fill="#191970" stroke="#191970" points="1767.6913,-78.967 1757.6042,-75.7262 1763.4687,-84.55 1767.6913,-78.967"/>
</g>
<!-- Node49&#45;&gt;Node2 -->
<g id="edge97" class="edge">
<title>Node49&#45;&gt;Node2</title>
<path fill="none" stroke="#191970" d="M1160.8833,-179.3729C1159.8558,-160.5045 1161.3655,-128.6992 1180.4533,-112 1220.1326,-77.2861 1590.3928,-68.434 1707.8693,-66.49"/>
<polygon fill="#191970" stroke="#191970" points="1708.1715,-69.9857 1718.1147,-66.3275 1708.0605,-62.9866 1708.1715,-69.9857"/>
</g>
<!-- Node49&#45;&gt;Node5 -->
<g id="edge99" class="edge">
<title>Node49&#45;&gt;Node5</title>
<path fill="none" stroke="#191970" d="M1151.8598,-179.226C1140.3047,-162.614 1121.216,-135.3127 1104.4533,-112 1083.0883,-82.2868 1057.7889,-48.0771 1042.7104,-27.7889"/>
<polygon fill="#191970" stroke="#191970" points="1045.3301,-25.4464 1036.5526,-19.513 1039.7142,-29.6251 1045.3301,-25.4464"/>
</g>
<!-- Node49&#45;&gt;Node13 -->
<g id="edge98" class="edge">
<title>Node49&#45;&gt;Node13</title>
<path fill="none" stroke="#191970" d="M1100.58,-181.4227C1034.3634,-167.4274 931.7629,-145.7421 879.124,-134.6165"/>
<polygon fill="#191970" stroke="#191970" points="879.7956,-131.1812 869.2879,-132.5376 878.348,-138.0299 879.7956,-131.1812"/>
</g>
<!-- Node50&#45;&gt;Node1 -->
<g id="edge114" class="edge">
<title>Node50&#45;&gt;Node1</title>
<path fill="none" stroke="#191970" d="M1490.2372,-389.0111C1556.9022,-381.0282 1657.7808,-365.8004 1689.4533,-344 1728.4874,-317.1325 1737.654,-292.9796 1731.4533,-246 1726.6362,-209.5039 1711.0238,-169.2335 1701.0744,-146.2887"/>
<polygon fill="#191970" stroke="#191970" points="1704.2231,-144.7555 1696.9607,-137.0414 1697.8274,-147.6008 1704.2231,-144.7555"/>
</g>
<!-- Node50&#45;&gt;Node3 -->
<g id="edge127" class="edge">
<title>Node50&#45;&gt;Node3</title>
<path fill="none" stroke="#191970" d="M1366.7453,-391.003C1190.4431,-377.5783 687.3303,-335.0905 533.4533,-277 483.4031,-258.1054 458.6423,-257.1968 433.4533,-210 424.0702,-192.419 425.1811,-169.581 428.1511,-152.3924"/>
<polygon fill="#191970" stroke="#191970" points="431.5961,-153.0152 430.1635,-142.5176 424.7371,-151.6173 431.5961,-153.0152"/>
</g>
<!-- Node50&#45;&gt;Node19 -->
<g id="edge103" class="edge">
<title>Node50&#45;&gt;Node19</title>
<path fill="none" stroke="#191970" d="M1414.0606,-380.3808C1396.639,-362.6648 1365.8433,-333.1722 1335.4533,-313 1277.9814,-274.8515 1259.2593,-272.2129 1195.4533,-246 1150.2094,-227.4128 1124.3514,-246.1968 1091.4533,-210 1075.9388,-192.93 1071.9192,-165.8946 1071.138,-147.46"/>
<polygon fill="#191970" stroke="#191970" points="1074.635,-147.2096 1070.9963,-137.2593 1067.6356,-147.307 1074.635,-147.2096"/>
</g>
<!-- Node50&#45;&gt;Node22 -->
<g id="edge102" class="edge">
<title>Node50&#45;&gt;Node22</title>
<path fill="none" stroke="#191970" d="M1435.7562,-380.1245C1440.1077,-370.0924 1445.2082,-356.5714 1447.4533,-344 1449.8754,-330.4368 1448.4228,-326.7436 1447.4533,-313 1443.2206,-252.9979 1447.3417,-236.1087 1428.4533,-179 1424.6184,-167.4053 1418.2264,-155.3647 1412.5172,-145.8439"/>
<polygon fill="#191970" stroke="#191970" points="1415.4262,-143.8946 1407.1555,-137.2729 1409.4917,-147.607 1415.4262,-143.8946"/>
</g>
<!-- Node50&#45;&gt;Node26 -->
<g id="edge101" class="edge">
<title>Node50&#45;&gt;Node26</title>
<path fill="none" stroke="#191970" d="M1490.3944,-392.0347C1615.5292,-384.6668 1894.4532,-366.2825 1987.4533,-344 2065.827,-325.2219 2255.9469,-252.4492 2324.4533,-210 2354.3425,-191.4795 2383.67,-162.8576 2400.9036,-144.6601"/>
<polygon fill="#191970" stroke="#191970" points="2403.6816,-146.8124 2407.9293,-137.1063 2398.556,-142.045 2403.6816,-146.8124"/>
</g>
<!-- Node50&#45;&gt;Node31 -->
<g id="edge113" class="edge">
<title>Node50&#45;&gt;Node31</title>
<path fill="none" stroke="#191970" d="M1490.0363,-390.8519C1558.3842,-384.6014 1671.4487,-370.9998 1765.4533,-344 1794.6849,-335.6042 1868.1065,-302.5555 1914.9324,-280.9205"/>
<polygon fill="#191970" stroke="#191970" points="1916.6061,-284.0025 1924.2085,-276.6233 1913.6636,-277.651 1916.6061,-284.0025"/>
</g>
<!-- Node50&#45;&gt;Node45 -->
<g id="edge104" class="edge">
<title>Node50&#45;&gt;Node45</title>
<path fill="none" stroke="#191970" d="M1406.3657,-380.2802C1380.3388,-362.7333 1335.4373,-333.6597 1294.4533,-313 1205.1857,-268.001 1094.563,-227.3582 1037.4894,-207.4331"/>
<polygon fill="#191970" stroke="#191970" points="1038.3992,-204.0441 1027.8044,-204.0717 1036.104,-210.6572 1038.3992,-204.0441"/>
</g>
<!-- Node50&#45;&gt;Node47 -->
<g id="edge106" class="edge">
<title>Node50&#45;&gt;Node47</title>
<path fill="none" stroke="#191970" d="M1490.2409,-389.2989C1571.1766,-380.8323 1717.3855,-364.356 1841.4533,-344 1842.9067,-343.7615 1844.3747,-343.5152 1845.8532,-343.262"/>
<polygon fill="#191970" stroke="#191970" points="1846.4936,-346.7031 1855.725,-341.504 1845.2662,-339.8115 1846.4936,-346.7031"/>
</g>
<!-- Node50&#45;&gt;Node49 -->
<g id="edge105" class="edge">
<title>Node50&#45;&gt;Node49</title>
<path fill="none" stroke="#191970" d="M1431.0414,-380.3981C1435.2401,-350.4182 1439.8351,-283.0906 1404.4533,-246 1352.7558,-191.8058 1312.2483,-223.5685 1234.4694,-210.2039"/>
<polygon fill="#191970" stroke="#191970" points="1234.7643,-206.6961 1224.2813,-208.2312 1233.4335,-213.5684 1234.7643,-206.6961"/>
</g>
<!-- Node50&#45;&gt;Node51 -->
<g id="edge107" class="edge">
<title>Node50&#45;&gt;Node51</title>
<path fill="none" stroke="#191970" d="M1382.6717,-380.4639C1352.3307,-370.499 1312.3384,-357.3642 1280.1531,-346.7936"/>
<polygon fill="#191970" stroke="#191970" points="1281.0274,-343.3968 1270.4345,-343.6017 1278.8431,-350.0473 1281.0274,-343.3968"/>
</g>
<!-- Node52 -->
<g id="node53" class="node">
<title>Node52</title>
<g id="a_node53"><a xlink:href="../../d6/dec/Raw_2include_2DetectorsRaw_2RDHUtils_8h.html" target="_top" xlink:title="DetectorsRaw/RDHUtils.h">
<polygon fill="none" stroke="#000000" points="1539.9533,-319 1539.9533,-338 1680.9533,-338 1680.9533,-319 1539.9533,-319"/>
<text text-anchor="middle" x="1610.4533" y="-326" font-family="Helvetica,sans-Serif" font-size="10.00" fill="#000000">DetectorsRaw/RDHUtils.h</text>
</a>
</g>
</g>
<!-- Node50&#45;&gt;Node52 -->
<g id="edge115" class="edge">
<title>Node50&#45;&gt;Node52</title>
<path fill="none" stroke="#191970" d="M1469.2976,-380.4639C1501.0295,-368.7824 1544.5939,-352.7449 1574.8998,-341.5884"/>
<polygon fill="#191970" stroke="#191970" points="1576.4578,-344.7445 1584.6329,-338.0053 1574.0395,-338.1755 1576.4578,-344.7445"/>
</g>
<!-- Node51&#45;&gt;Node10 -->
<g id="edge110" class="edge">
<title>Node51&#45;&gt;Node10</title>
<path fill="none" stroke="#191970" d="M1162.622,-323.5569C1082.454,-316.4913 938.5582,-301.57 817.4533,-277 733.3669,-259.9404 638.0865,-231.3363 579.632,-212.6926"/>
<polygon fill="#191970" stroke="#191970" points="580.4572,-209.2818 569.8661,-209.5611 578.3198,-215.9475 580.4572,-209.2818"/>
</g>
<!-- Node51&#45;&gt;Node22 -->
<g id="edge109" class="edge">
<title>Node51&#45;&gt;Node22</title>
<path fill="none" stroke="#191970" d="M1271.9626,-313.4149C1316.9927,-296.2875 1381.9949,-263.5426 1411.4533,-210 1422.2398,-190.3947 1415.9512,-164.3197 1409.2985,-146.7763"/>
<polygon fill="#191970" stroke="#191970" points="1412.3382,-144.972 1405.2586,-137.0897 1405.8776,-147.6665 1412.3382,-144.972"/>
</g>
<!-- Node51&#45;&gt;Node24 -->
<g id="edge108" class="edge">
<title>Node51&#45;&gt;Node24</title>
<path fill="none" stroke="#191970" d="M1285.9802,-325.0806C1347.7613,-321.7184 1445.686,-316.5834 1530.4533,-313 1766.3781,-303.0268 2361.3147,-325.3213 2592.4533,-277 2628.9681,-269.3663 2634.3616,-255.4339 2670.4533,-246 2787.1539,-215.496 2830.5064,-261.7698 2939.4533,-210 2957.6287,-201.3633 2955.2404,-189.4238 2972.4533,-179 3009.7734,-156.3996 3058.4162,-141.9046 3089.5496,-134.2291"/>
<polygon fill="#191970" stroke="#191970" points="3090.4772,-137.6061 3099.395,-131.8856 3088.8563,-130.7964 3090.4772,-137.6061"/>
</g>
<!-- Node51&#45;&gt;Node41 -->
<g id="edge112" class="edge">
<title>Node51&#45;&gt;Node41</title>
<path fill="none" stroke="#191970" d="M1162.8257,-316.2112C1105.4872,-304.7776 1020.0655,-287.7441 959.7964,-275.7262"/>
<polygon fill="#191970" stroke="#191970" points="960.4653,-272.2907 949.9739,-273.7675 959.0964,-279.1556 960.4653,-272.2907"/>
</g>
<!-- Node51&#45;&gt;Node45 -->
<g id="edge111" class="edge">
<title>Node51&#45;&gt;Node45</title>
<path fill="none" stroke="#191970" d="M1199.0803,-313.389C1155.6092,-287.4995 1067.4174,-234.9764 1024.306,-209.3012"/>
<polygon fill="#191970" stroke="#191970" points="1025.9623,-206.214 1015.5797,-204.1042 1022.3805,-212.2282 1025.9623,-206.214"/>
</g>
<!-- Node52&#45;&gt;Node1 -->
<g id="edge118" class="edge">
<title>Node52&#45;&gt;Node1</title>
<path fill="none" stroke="#191970" d="M1607.6265,-318.8649C1603.4056,-302.3776 1597.4527,-268.3713 1612.4533,-246 1634.6198,-212.9418 1672.689,-243.3244 1694.4533,-210 1706.7078,-191.2365 1703.24,-164.6016 1698.6881,-146.7198"/>
<polygon fill="#191970" stroke="#191970" points="1702.048,-145.7392 1695.9192,-137.0969 1695.321,-147.6749 1702.048,-145.7392"/>
</g>
<!-- Node52&#45;&gt;Node3 -->
<g id="edge124" class="edge">
<title>Node52&#45;&gt;Node3</title>
<path fill="none" stroke="#191970" d="M1539.8104,-324.9775C1372.6053,-316.4675 956.2497,-294.2206 817.4533,-277 735.8314,-266.8731 512.8858,-266.8548 453.4533,-210 438.1827,-195.3917 434.0719,-171.1685 433.4023,-152.7389"/>
<polygon fill="#191970" stroke="#191970" points="436.902,-152.6544 433.3474,-142.6737 429.9021,-152.6927 436.902,-152.6544"/>
</g>
<!-- Node52&#45;&gt;Node4 -->
<g id="edge117" class="edge">
<title>Node52&#45;&gt;Node4</title>
<path fill="none" stroke="#191970" d="M1539.8686,-324.7793C1475.8356,-321.4655 1378.8269,-316.5986 1294.4533,-313 1073.8422,-303.5908 518.1769,-319.2924 301.4533,-277 216.034,-260.3309 167.3669,-281.2948 117.4533,-210 70.2112,-142.5212 197.1834,-152.4059 212.4533,-143 226.8774,-134.115 259.5977,-102.6554 279.6779,-82.803"/>
<polygon fill="#191970" stroke="#191970" points="282.3088,-85.1227 286.9338,-75.5906 277.374,-80.158 282.3088,-85.1227"/>
</g>
<!-- Node52&#45;&gt;Node36 -->
<g id="edge116" class="edge">
<title>Node52&#45;&gt;Node36</title>
<path fill="none" stroke="#191970" d="M1681.1729,-323.5335C1728.0444,-320.3211 1790.9064,-316.1641 1846.4533,-313 1929.3043,-308.2805 2527.0106,-328.0277 2592.4533,-277 2607.9944,-264.8821 2639.9446,-135.7307 2651.8491,-85.6697"/>
<polygon fill="#191970" stroke="#191970" points="2655.2988,-86.29 2654.1903,-75.7533 2648.4861,-84.6815 2655.2988,-86.29"/>
</g>
<!-- Node53 -->
<g id="node54" class="node">
<title>Node53</title>
<g id="a_node54"><a xlink:href="../../d6/d89/RDHAny_8h.html" target="_top" xlink:title="Headers/RDHAny.h">
<polygon fill="none" stroke="#000000" points="1577.4533,-185 1577.4533,-204 1685.4533,-204 1685.4533,-185 1577.4533,-185"/>
<text text-anchor="middle" x="1631.4533" y="-192" font-family="Helvetica,sans-Serif" font-size="10.00" fill="#000000">Headers/RDHAny.h</text>
</a>
</g>
</g>
<!-- Node52&#45;&gt;Node53 -->
<g id="edge119" class="edge">
<title>Node52&#45;&gt;Node53</title>
<path fill="none" stroke="#191970" d="M1601.9046,-318.7593C1589.3723,-303.2357 1568.6167,-271.9841 1579.4533,-246 1585.3771,-231.7957 1597.3363,-219.5036 1608.2935,-210.4942"/>
<polygon fill="#191970" stroke="#191970" points="1610.5833,-213.1482 1616.3607,-204.2672 1606.306,-207.607 1610.5833,-213.1482"/>
</g>
<!-- Node54 -->
<g id="node55" class="node">
<title>Node54</title>
<g id="a_node55"><a xlink:href="../../d7/d34/DAQID_8h.html" target="_top" xlink:title="Headers/DAQID.h">
<polygon fill="none" stroke="#000000" points="1621.9533,-252 1621.9533,-271 1722.9533,-271 1722.9533,-252 1621.9533,-252"/>
<text text-anchor="middle" x="1672.4533" y="-259" font-family="Helvetica,sans-Serif" font-size="10.00" fill="#000000">Headers/DAQID.h</text>
</a>
</g>
</g>
<!-- Node52&#45;&gt;Node54 -->
<g id="edge125" class="edge">
<title>Node52&#45;&gt;Node54</title>
<path fill="none" stroke="#191970" d="M1619.3364,-318.9005C1629.0047,-308.4525 1644.662,-291.5325 1656.4781,-278.7635"/>
<polygon fill="#191970" stroke="#191970" points="1659.3636,-280.7985 1663.5867,-271.0817 1654.2259,-276.0441 1659.3636,-280.7985"/>
</g>
<!-- Node53&#45;&gt;Node1 -->
<g id="edge121" class="edge">
<title>Node53&#45;&gt;Node1</title>
<path fill="none" stroke="#191970" d="M1640.1931,-184.9005C1649.7055,-174.4525 1665.1103,-157.5325 1676.7357,-144.7635"/>
<polygon fill="#191970" stroke="#191970" points="1679.5855,-146.8324 1683.7297,-137.0817 1674.4094,-142.1198 1679.5855,-146.8324"/>
</g>
<!-- Node53&#45;&gt;Node18 -->
<g id="edge123" class="edge">
<title>Node53&#45;&gt;Node18</title>
<path fill="none" stroke="#191970" d="M1622.2836,-184.9005C1612.2083,-174.353 1595.8326,-157.2096 1583.5964,-144.3998"/>
<polygon fill="#191970" stroke="#191970" points="1586.0442,-141.8952 1576.6059,-137.0817 1580.9824,-146.7304 1586.0442,-141.8952"/>
</g>
<!-- Node53&#45;&gt;Node20 -->
<g id="edge122" class="edge">
<title>Node53&#45;&gt;Node20</title>
<path fill="none" stroke="#191970" d="M1610.1052,-184.9005C1584.6571,-173.4574 1541.9441,-154.2509 1513.0036,-141.2374"/>
<polygon fill="#191970" stroke="#191970" points="1514.3175,-137.9907 1503.7617,-137.0817 1511.4467,-144.3749 1514.3175,-137.9907"/>
</g>
<!-- Node53&#45;&gt;Node36 -->
<g id="edge120" class="edge">
<title>Node53&#45;&gt;Node36</title>
<path fill="none" stroke="#191970" d="M1684.4753,-184.9899C1778.8952,-168.315 1982.5028,-133.5319 2155.4533,-112 2312.2571,-92.4783 2497.6355,-77.5757 2592.897,-70.5127"/>
<polygon fill="#191970" stroke="#191970" points="2593.2299,-73.9978 2602.9456,-69.7721 2592.7153,-67.0167 2593.2299,-73.9978"/>
</g>
<!-- Node54&#45;&gt;Node27 -->
<g id="edge126" class="edge">
<title>Node54&#45;&gt;Node27</title>
<path fill="none" stroke="#191970" d="M1723.143,-255.257C1819.7002,-243.3648 2030.3649,-217.419 2142.6068,-203.5951"/>
<polygon fill="#191970" stroke="#191970" points="2143.3275,-207.0328 2152.8247,-202.3366 2142.4718,-200.0853 2143.3275,-207.0328"/>
</g>
</g>
</svg>
        <g id="navigator" transform="translate(0 0)" fill="#404254">
                <rect fill="#f2f5e9" fill-opacity="0.5" stroke="#606060" stroke-width=".5" x="0" y="0" width="60" height="60"/>
                <use id="zoomplus" xlink:href="#zoomPlus" x="17" y="9" onmousedown="handleZoom(evt,'in')"/>
                <use id="zoomminus" xlink:href="#zoomMin" x="42" y="9" onmousedown="handleZoom(evt,'out')"/>
                <use id="reset" xlink:href="#resetDef" x="30" y="36" onmousedown="handleReset()"/>
                <g id="arrowUp" xlink:href="#dirArrow" transform="translate(30 24)" onmousedown="handlePan(0,-1)">
                  <use xlink:href="#rim" fill="#404040">
                        <set attributeName="fill" to="#808080" begin="arrowUp.mouseover" end="arrowUp.mouseout"/>
                  </use>
                  <path fill="none" stroke="white" stroke-width="1.5" d="M0,-3.0v7 M-2.5,-0.5L0,-3.0L2.5,-0.5"/>
                </g>
                <g id="arrowRight" xlink:href="#dirArrow" transform="rotate(90) translate(36 -43)" onmousedown="handlePan(1,0)">
                  <use xlink:href="#rim" fill="#404040">
                        <set attributeName="fill" to="#808080" begin="arrowRight.mouseover" end="arrowRight.mouseout"/>
                  </use>
                  <path fill="none" stroke="white" stroke-width="1.5" d="M0,-3.0v7 M-2.5,-0.5L0,-3.0L2.5,-0.5"/>
                </g>
                <g id="arrowDown" xlink:href="#dirArrow" transform="rotate(180) translate(-30 -48)" onmousedown="handlePan(0,1)">
                  <use xlink:href="#rim" fill="#404040">
                        <set attributeName="fill" to="#808080" begin="arrowDown.mouseover" end="arrowDown.mouseout"/>
                  </use>
                  <path fill="none" stroke="white" stroke-width="1.5" d="M0,-3.0v7 M-2.5,-0.5L0,-3.0L2.5,-0.5"/>
                </g>
                <g id="arrowLeft" xlink:href="#dirArrow" transform="rotate(270) translate(-36 17)" onmousedown="handlePan(-1,0)">
                  <use xlink:href="#rim" fill="#404040">
                        <set attributeName="fill" to="#808080" begin="arrowLeft.mouseover" end="arrowLeft.mouseout"/>
                  </use>
                  <path fill="none" stroke="white" stroke-width="1.5" d="M0,-3.0v7 M-2.5,-0.5L0,-3.0L2.5,-0.5"/>
                </g>
        </g>
        <svg viewBox="0 0 15 15" width="100%" height="30px" preserveAspectRatio="xMaxYMin meet">
         <g id="arrow_out" transform="scale(0.3 0.3)">
          <a xlink:href="RawPixelReader_8h__incl_org.svg" target="_base">
           <rect id="button" ry="5" rx="5" y="6" x="6" height="38" width="38"
                fill="#f2f5e9" fill-opacity="0.5" stroke="#606060" stroke-width="1.0"/>
           <path id="arrow"
             d="M 11.500037,31.436501 C 11.940474,20.09759 22.043105,11.32322 32.158766,21.979434 L 37.068811,17.246167 C 37.068811,17.246167 37.088388,32 37.088388,32 L 22.160133,31.978069 C 22.160133,31.978069 26.997745,27.140456 26.997745,27.140456 C 18.528582,18.264221 13.291696,25.230495 11.500037,31.436501 z"
             style="fill:#404040;"/>
          </a>
         </g>
        </svg>
</svg>
