<?xml version="1.0" encoding="UTF-8" standalone="no"?>
<!DOCTYPE svg PUBLIC "-//W3C//DTD SVG 1.1//EN"
 "http://www.w3.org/Graphics/SVG/1.1/DTD/svg11.dtd">
<!-- Generated by graphviz version 2.40.1 (20161225.0304)
 -->
<!-- Title: /home/travis/build/AliceO2Group/AliceO2/DataFormats/Detectors/ITSMFT/common/include/DataFormatsITSMFT/CTF.h Pages: 1 -->
<!--zoomable 475 -->
<svg id="main" version="1.1" xmlns="http://www.w3.org/2000/svg" xmlns:xlink="http://www.w3.org/1999/xlink" xml:space="preserve" onload="init(evt)">
<style type="text/css"><![CDATA[
.edge:hover path { stroke: red; }
.edge:hover polygon { stroke: red; fill: red; }
]]></style>
<script type="text/javascript"><![CDATA[
var edges = document.getElementsByTagName('g');
if (edges && edges.length) {
  for (var i=0;i<edges.length;i++) {
    if (edges[i].id.substr(0,4)=='edge') {
      edges[i].setAttribute('class','edge');
    }
  }
}
]]></script>
        <defs>
                <circle id="rim" cx="0" cy="0" r="7"/>
                <circle id="rim2" cx="0" cy="0" r="3.5"/>
                <g id="zoomPlus">
                        <use xlink:href="#rim" fill="#404040">
                                <set attributeName="fill" to="#808080" begin="zoomplus.mouseover" end="zoomplus.mouseout"/>
                        </use>
                        <path d="M-4,0h8M0,-4v8" fill="none" stroke="white" stroke-width="1.5" pointer-events="none"/>
                </g>
                <g id="zoomMin">
                        <use xlink:href="#rim" fill="#404040">
                                <set attributeName="fill" to="#808080" begin="zoomminus.mouseover" end="zoomminus.mouseout"/>
                        </use>
                        <path d="M-4,0h8" fill="none" stroke="white" stroke-width="1.5" pointer-events="none"/>
                </g>
                <g id="dirArrow">
                        <path fill="none" stroke="white" stroke-width="1.5" d="M0,-3.0v7 M-2.5,-0.5L0,-3.0L2.5,-0.5"/>
                </g>
               <g id="resetDef">
                       <use xlink:href="#rim2" fill="#404040">
                               <set attributeName="fill" to="#808080" begin="reset.mouseover" end="reset.mouseout"/>
                       </use>
               </g>
        </defs>

<script type="text/javascript">
var viewWidth = 932;
var viewHeight = 475;
var sectionId = 'dynsection-0';
</script>
<script xlink:href="../../svgpan.js"/>
<svg id="graph" class="graph">
<g id="viewport">
<title>/home/travis/build/AliceO2Group/AliceO2/DataFormats/Detectors/ITSMFT/common/include/DataFormatsITSMFT/CTF.h</title>
<!-- Node0 -->
<g id="node1" class="node">
<title>Node0</title>
<polygon fill="#bfbfbf" stroke="#000000" points="371,-403.5 371,-466.5 517,-466.5 517,-403.5 371,-403.5"/>
<text text-anchor="start" x="379" y="-454.5" font-family="Helvetica,sans-Serif" font-size="10.00" fill="#000000">/home/travis/build</text>
<text text-anchor="start" x="379" y="-443.5" font-family="Helvetica,sans-Serif" font-size="10.00" fill="#000000">/AliceO2Group/AliceO2</text>
<text text-anchor="start" x="379" y="-432.5" font-family="Helvetica,sans-Serif" font-size="10.00" fill="#000000">/DataFormats/Detectors</text>
<text text-anchor="start" x="379" y="-421.5" font-family="Helvetica,sans-Serif" font-size="10.00" fill="#000000">/ITSMFT/common/include</text>
<text text-anchor="middle" x="444" y="-410.5" font-family="Helvetica,sans-Serif" font-size="10.00" fill="#000000">/DataFormatsITSMFT/CTF.h</text>
</g>
<!-- Node1 -->
<g id="node2" class="node">
<title>Node1</title>
<polygon fill="none" stroke="#bfbfbf" points="693.5,-56.5 693.5,-75.5 740.5,-75.5 740.5,-56.5 693.5,-56.5"/>
<text text-anchor="middle" x="717" y="-63.5" font-family="Helvetica,sans-Serif" font-size="10.00" fill="#000000">vector</text>
</g>
<!-- Node0&#45;&gt;Node1 -->
<g id="edge1" class="edge">
<title>Node0&#45;&gt;Node1</title>
<path fill="none" stroke="#191970" d="M517.1627,-428.2122C651.5335,-413.7094 924,-373.9514 924,-290 924,-290 924,-290 924,-234 924,-145.6195 808.8288,-95.6146 750.3012,-75.9092"/>
<polygon fill="#191970" stroke="#191970" points="751.338,-72.5659 740.7455,-72.7919 749.1669,-79.2207 751.338,-72.5659"/>
</g>
<!-- Node2 -->
<g id="node3" class="node">
<title>Node2</title>
<polygon fill="none" stroke="#bfbfbf" points="181.5,-280.5 181.5,-299.5 240.5,-299.5 240.5,-280.5 181.5,-280.5"/>
<text text-anchor="middle" x="211" y="-287.5" font-family="Helvetica,sans-Serif" font-size="10.00" fill="#000000">Rtypes.h</text>
</g>
<!-- Node0&#45;&gt;Node2 -->
<g id="edge2" class="edge">
<title>Node0&#45;&gt;Node2</title>
<path fill="none" stroke="#191970" d="M393.1551,-403.3583C344.1491,-372.861 272.1298,-328.0421 235.0376,-304.959"/>
<polygon fill="#191970" stroke="#191970" points="236.7347,-301.8928 226.3952,-299.5807 233.0361,-307.8359 236.7347,-301.8928"/>
</g>
<!-- Node3 -->
<g id="node4" class="node">
<title>Node3</title>
<g id="a_node4"><a xlink:href="../../da/d91/EncodedBlocks_8h.html" target="_top" xlink:title="DetectorsCommonDataFormats\l/EncodedBlocks.h">
<polygon fill="none" stroke="#000000" points="358.5,-336.5 358.5,-366.5 529.5,-366.5 529.5,-336.5 358.5,-336.5"/>
<text text-anchor="start" x="366.5" y="-354.5" font-family="Helvetica,sans-Serif" font-size="10.00" fill="#000000">DetectorsCommonDataFormats</text>
<text text-anchor="middle" x="444" y="-343.5" font-family="Helvetica,sans-Serif" font-size="10.00" fill="#000000">/EncodedBlocks.h</text>
</a>
</g>
</g>
<!-- Node0&#45;&gt;Node3 -->
<g id="edge3" class="edge">
<title>Node0&#45;&gt;Node3</title>
<path fill="none" stroke="#191970" d="M444,-403.4322C444,-394.6979 444,-385.3303 444,-376.989"/>
<polygon fill="#191970" stroke="#191970" points="447.5001,-376.7544 444,-366.7545 440.5001,-376.7545 447.5001,-376.7544"/>
</g>
<!-- Node3&#45;&gt;Node2 -->
<g id="edge5" class="edge">
<title>Node3&#45;&gt;Node2</title>
<path fill="none" stroke="#191970" d="M387.0018,-336.4554C344.7623,-325.3063 288.2576,-310.392 250.797,-300.5044"/>
<polygon fill="#191970" stroke="#191970" points="251.326,-297.0242 240.7639,-297.8561 249.5395,-303.7924 251.326,-297.0242"/>
</g>
<!-- Node4 -->
<g id="node5" class="node">
<title>Node4</title>
<polygon fill="none" stroke="#bfbfbf" points="426.5,-168.5 426.5,-187.5 495.5,-187.5 495.5,-168.5 426.5,-168.5"/>
<text text-anchor="middle" x="461" y="-175.5" font-family="Helvetica,sans-Serif" font-size="10.00" fill="#000000">type_traits</text>
</g>
<!-- Node3&#45;&gt;Node4 -->
<g id="edge4" class="edge">
<title>Node3&#45;&gt;Node4</title>
<path fill="none" stroke="#191970" d="M440.9989,-336.2484C439.1459,-326.0369 436.9473,-312.269 436,-300 433.1568,-263.1737 445.2414,-221.168 453.5966,-197.2953"/>
<polygon fill="#191970" stroke="#191970" points="456.9629,-198.2804 457.1059,-187.6866 450.3877,-195.8789 456.9629,-198.2804"/>
</g>
<!-- Node5 -->
<g id="node6" class="node">
<title>Node5</title>
<g id="a_node6"><a xlink:href="../../d4/de7/rans_8h.html" target="_top" xlink:title="header for public api ">
<polygon fill="none" stroke="#000000" points="649,-280.5 649,-299.5 723,-299.5 723,-280.5 649,-280.5"/>
<text text-anchor="middle" x="686" y="-287.5" font-family="Helvetica,sans-Serif" font-size="10.00" fill="#000000">rANS/rans.h</text>
</a>
</g>
</g>
<!-- Node3&#45;&gt;Node5 -->
<g id="edge6" class="edge">
<title>Node3&#45;&gt;Node5</title>
<path fill="none" stroke="#191970" d="M503.1999,-336.4554C544.9463,-325.8463 600.1086,-311.8278 638.8778,-301.9753"/>
<polygon fill="#191970" stroke="#191970" points="640.0274,-305.2945 648.8572,-299.4392 638.3032,-298.5101 640.0274,-305.2945"/>
</g>
<!-- Node21 -->
<g id="node22" class="node">
<title>Node21</title>
<g id="a_node22"><a xlink:href="../../d4/d8f/StringUtils_8h.html" target="_top" xlink:title="CommonUtils/StringUtils.h">
<polygon fill="none" stroke="#000000" points="0,-168.5 0,-187.5 146,-187.5 146,-168.5 0,-168.5"/>
<text text-anchor="middle" x="73" y="-175.5" font-family="Helvetica,sans-Serif" font-size="10.00" fill="#000000">CommonUtils/StringUtils.h</text>
</a>
</g>
</g>
<!-- Node3&#45;&gt;Node21 -->
<g id="edge47" class="edge">
<title>Node3&#45;&gt;Node21</title>
<path fill="none" stroke="#191970" d="M411.7252,-336.4065C340.6488,-303.1673 171.4767,-224.0531 102.7711,-191.9226"/>
<polygon fill="#191970" stroke="#191970" points="103.928,-188.5998 93.3869,-187.534 100.9626,-194.9407 103.928,-188.5998"/>
</g>
<!-- Node25 -->
<g id="node26" class="node">
<title>Node25</title>
<polygon fill="none" stroke="#bfbfbf" points="445,-280.5 445,-299.5 497,-299.5 497,-280.5 445,-280.5"/>
<text text-anchor="middle" x="471" y="-287.5" font-family="Helvetica,sans-Serif" font-size="10.00" fill="#000000">TTree.h</text>
</g>
<!-- Node3&#45;&gt;Node25 -->
<g id="edge46" class="edge">
<title>Node3&#45;&gt;Node25</title>
<path fill="none" stroke="#191970" d="M450.6742,-336.2977C454.2659,-328.1166 458.7324,-317.943 462.5629,-309.2179"/>
<polygon fill="#191970" stroke="#191970" points="465.8618,-310.4104 466.677,-299.8469 459.4522,-307.5964 465.8618,-310.4104"/>
</g>
<!-- Node26 -->
<g id="node27" class="node">
<title>Node26</title>
<g id="a_node27"><a xlink:href="../../dd/da4/Logger_8h.html" target="_top" xlink:title="Framework/Logger.h">
<polygon fill="none" stroke="#000000" points="515.5,-280.5 515.5,-299.5 630.5,-299.5 630.5,-280.5 515.5,-280.5"/>
<text text-anchor="middle" x="573" y="-287.5" font-family="Helvetica,sans-Serif" font-size="10.00" fill="#000000">Framework/Logger.h</text>
</a>
</g>
</g>
<!-- Node3&#45;&gt;Node26 -->
<g id="edge48" class="edge">
<title>Node3&#45;&gt;Node26</title>
<path fill="none" stroke="#191970" d="M475.557,-336.4554C496.4201,-326.509 523.5691,-313.5659 543.9098,-303.8686"/>
<polygon fill="#191970" stroke="#191970" points="545.4891,-306.9931 553.0096,-299.5303 542.4767,-300.6744 545.4891,-306.9931"/>
</g>
<!-- Node6 -->
<g id="node7" class="node">
<title>Node6</title>
<g id="a_node7"><a xlink:href="../../d0/d51/SymbolStatistics_8h.html" target="_top" xlink:title="Structure to depict the distribution of symbols in the source message. ">
<polygon fill="none" stroke="#000000" points="555,-112.5 555,-131.5 689,-131.5 689,-112.5 555,-112.5"/>
<text text-anchor="middle" x="622" y="-119.5" font-family="Helvetica,sans-Serif" font-size="10.00" fill="#000000">rANS/SymbolStatistics.h</text>
</a>
</g>
</g>
<!-- Node5&#45;&gt;Node6 -->
<g id="edge7" class="edge">
<title>Node5&#45;&gt;Node6</title>
<path fill="none" stroke="#191970" d="M705.783,-280.363C744.6353,-260.1608 824.342,-211.6304 791,-168 779.1705,-152.5202 736.8406,-141.012 697.5081,-133.3778"/>
<polygon fill="#191970" stroke="#191970" points="698.0668,-129.9216 687.5933,-131.5203 696.7777,-136.8019 698.0668,-129.9216"/>
</g>
<!-- Node11 -->
<g id="node12" class="node">
<title>Node11</title>
<g id="a_node12"><a xlink:href="../../dd/d74/Utilities_2rANS_2include_2rANS_2Encoder_8h.html" target="_top" xlink:title="rANS/Encoder.h">
<polygon fill="none" stroke="#000000" points="297.5,-224.5 297.5,-243.5 388.5,-243.5 388.5,-224.5 297.5,-224.5"/>
<text text-anchor="middle" x="343" y="-231.5" font-family="Helvetica,sans-Serif" font-size="10.00" fill="#000000">rANS/Encoder.h</text>
</a>
</g>
</g>
<!-- Node5&#45;&gt;Node11 -->
<g id="edge13" class="edge">
<title>Node5&#45;&gt;Node11</title>
<path fill="none" stroke="#191970" d="M648.8375,-281.8943C645.5155,-281.2299 642.1998,-280.5886 639,-280 555.4745,-264.6364 458.0633,-250.1555 398.4698,-241.6828"/>
<polygon fill="#191970" stroke="#191970" points="398.9088,-238.2102 388.5169,-240.2737 397.9275,-245.1411 398.9088,-238.2102"/>
</g>
<!-- Node23 -->
<g id="node24" class="node">
<title>Node23</title>
<g id="a_node24"><a xlink:href="../../dc/d62/Utilities_2rANS_2include_2rANS_2Decoder_8h.html" target="_top" xlink:title="rANS/Decoder.h">
<polygon fill="none" stroke="#000000" points="594,-224.5 594,-243.5 686,-243.5 686,-224.5 594,-224.5"/>
<text text-anchor="middle" x="640" y="-231.5" font-family="Helvetica,sans-Serif" font-size="10.00" fill="#000000">rANS/Decoder.h</text>
</a>
</g>
</g>
<!-- Node5&#45;&gt;Node23 -->
<g id="edge35" class="edge">
<title>Node5&#45;&gt;Node23</title>
<path fill="none" stroke="#191970" d="M677.9874,-280.2455C671.5232,-272.3761 662.2615,-261.101 654.5017,-251.6542"/>
<polygon fill="#191970" stroke="#191970" points="656.9727,-249.1484 647.9208,-243.6427 651.5636,-253.5916 656.9727,-249.1484"/>
</g>
<!-- Node6&#45;&gt;Node1 -->
<g id="edge12" class="edge">
<title>Node6&#45;&gt;Node1</title>
<path fill="none" stroke="#191970" d="M638.5477,-112.2455C653.2599,-103.5731 674.9888,-90.7645 691.8505,-80.825"/>
<polygon fill="#191970" stroke="#191970" points="693.8046,-83.736 700.6419,-75.6427 690.2498,-77.7057 693.8046,-83.736"/>
</g>
<!-- Node7 -->
<g id="node8" class="node">
<title>Node7</title>
<polygon fill="none" stroke="#bfbfbf" points="503,-56.5 503,-75.5 567,-75.5 567,-56.5 503,-56.5"/>
<text text-anchor="middle" x="535" y="-63.5" font-family="Helvetica,sans-Serif" font-size="10.00" fill="#000000">algorithm</text>
</g>
<!-- Node6&#45;&gt;Node7 -->
<g id="edge8" class="edge">
<title>Node6&#45;&gt;Node7</title>
<path fill="none" stroke="#191970" d="M606.8458,-112.2455C593.4973,-103.6534 573.8414,-91.0014 558.4617,-81.1018"/>
<polygon fill="#191970" stroke="#191970" points="560.2836,-78.1121 549.9806,-75.6427 556.4949,-83.9982 560.2836,-78.1121"/>
</g>
<!-- Node8 -->
<g id="node9" class="node">
<title>Node8</title>
<polygon fill="none" stroke="#bfbfbf" points="421,-56.5 421,-75.5 473,-75.5 473,-56.5 421,-56.5"/>
<text text-anchor="middle" x="447" y="-63.5" font-family="Helvetica,sans-Serif" font-size="10.00" fill="#000000">cassert</text>
</g>
<!-- Node6&#45;&gt;Node8 -->
<g id="edge9" class="edge">
<title>Node6&#45;&gt;Node8</title>
<path fill="none" stroke="#191970" d="M591.9164,-112.3733C561.7584,-102.7227 515.3081,-87.8586 483.1616,-77.5717"/>
<polygon fill="#191970" stroke="#191970" points="483.8568,-74.1194 473.2658,-74.4051 481.7233,-80.7864 483.8568,-74.1194"/>
</g>
<!-- Node9 -->
<g id="node10" class="node">
<title>Node9</title>
<polygon fill="none" stroke="#bfbfbf" points="778,-56.5 778,-75.5 838,-75.5 838,-56.5 778,-56.5"/>
<text text-anchor="middle" x="808" y="-63.5" font-family="Helvetica,sans-Serif" font-size="10.00" fill="#000000">iostream</text>
</g>
<!-- Node6&#45;&gt;Node9 -->
<g id="edge10" class="edge">
<title>Node6&#45;&gt;Node9</title>
<path fill="none" stroke="#191970" d="M653.9745,-112.3733C685.644,-102.8384 734.2171,-88.2142 768.3302,-77.9436"/>
<polygon fill="#191970" stroke="#191970" points="769.4131,-81.2728 777.9795,-75.0384 767.395,-74.57 769.4131,-81.2728"/>
</g>
<!-- Node10 -->
<g id="node11" class="node">
<title>Node10</title>
<polygon fill="none" stroke="#bfbfbf" points="594,-56.5 594,-75.5 650,-75.5 650,-56.5 594,-56.5"/>
<text text-anchor="middle" x="622" y="-63.5" font-family="Helvetica,sans-Serif" font-size="10.00" fill="#000000">numeric</text>
</g>
<!-- Node6&#45;&gt;Node10 -->
<g id="edge11" class="edge">
<title>Node6&#45;&gt;Node10</title>
<path fill="none" stroke="#191970" d="M622,-112.2455C622,-104.9382 622,-94.6944 622,-85.7046"/>
<polygon fill="#191970" stroke="#191970" points="625.5001,-85.6426 622,-75.6427 618.5001,-85.6427 625.5001,-85.6426"/>
</g>
<!-- Node11&#45;&gt;Node7 -->
<g id="edge15" class="edge">
<title>Node11&#45;&gt;Node7</title>
<path fill="none" stroke="#191970" d="M353.738,-224.3288C368.0944,-211.4203 394.3624,-187.877 417,-168 451.7952,-137.4478 492.7557,-102.2009 516.12,-82.1629"/>
<polygon fill="#191970" stroke="#191970" points="518.5726,-84.6706 523.8878,-75.5055 514.0173,-79.3555 518.5726,-84.6706"/>
</g>
<!-- Node12 -->
<g id="node13" class="node">
<title>Node12</title>
<polygon fill="none" stroke="#bfbfbf" points="202,-168.5 202,-187.5 260,-187.5 260,-168.5 202,-168.5"/>
<text text-anchor="middle" x="231" y="-175.5" font-family="Helvetica,sans-Serif" font-size="10.00" fill="#000000">memory</text>
</g>
<!-- Node11&#45;&gt;Node12 -->
<g id="edge14" class="edge">
<title>Node11&#45;&gt;Node12</title>
<path fill="none" stroke="#191970" d="M323.7465,-224.3733C305.9288,-215.4644 279.2253,-202.1127 259.0406,-192.0203"/>
<polygon fill="#191970" stroke="#191970" points="260.5118,-188.8428 250.0022,-187.5011 257.3813,-195.1038 260.5118,-188.8428"/>
</g>
<!-- Node13 -->
<g id="node14" class="node">
<title>Node13</title>
<g id="a_node14"><a xlink:href="../../d8/dd9/SymbolTable_8h.html" target="_top" xlink:title="Container for information needed to encode/decode a symbol of the alphabet. ">
<polygon fill="none" stroke="#000000" points="694,-168.5 694,-187.5 782,-187.5 782,-168.5 694,-168.5"/>
<text text-anchor="middle" x="738" y="-175.5" font-family="Helvetica,sans-Serif" font-size="10.00" fill="#000000">SymbolTable.h</text>
</a>
</g>
</g>
<!-- Node11&#45;&gt;Node13 -->
<g id="edge16" class="edge">
<title>Node11&#45;&gt;Node13</title>
<path fill="none" stroke="#191970" d="M388.7511,-228.6253C452.5324,-220.9609 572.0177,-205.9819 683.6956,-188.1459"/>
<polygon fill="#191970" stroke="#191970" points="684.4669,-191.5669 693.7842,-186.5233 683.3553,-184.6557 684.4669,-191.5669"/>
</g>
<!-- Node14 -->
<g id="node15" class="node">
<title>Node14</title>
<g id="a_node15"><a xlink:href="../../d2/d53/EncoderSymbol_8h.html" target="_top" xlink:title="Structure containing all relevant information to encode a symbol. ">
<polygon fill="none" stroke="#000000" points="245.5,-112.5 245.5,-131.5 346.5,-131.5 346.5,-112.5 245.5,-112.5"/>
<text text-anchor="middle" x="296" y="-119.5" font-family="Helvetica,sans-Serif" font-size="10.00" fill="#000000">EncoderSymbol.h</text>
</a>
</g>
</g>
<!-- Node11&#45;&gt;Node14 -->
<g id="edge19" class="edge">
<title>Node11&#45;&gt;Node14</title>
<path fill="none" stroke="#191970" d="M297.2387,-226.096C257.8912,-218.2574 205.5494,-204.9748 193,-188 174.6505,-163.1798 210.333,-145.2693 244.6117,-134.4226"/>
<polygon fill="#191970" stroke="#191970" points="245.6221,-137.7737 254.1968,-131.5507 243.613,-131.0682 245.6221,-137.7737"/>
</g>
<!-- Node19 -->
<g id="node20" class="node">
<title>Node19</title>
<g id="a_node20"><a xlink:href="../../d5/d7a/Coder_8h.html" target="_top" xlink:title="Stateless class for coding and decoding symbols using rANS. ">
<polygon fill="none" stroke="#000000" points="316.5,-168.5 316.5,-187.5 369.5,-187.5 369.5,-168.5 316.5,-168.5"/>
<text text-anchor="middle" x="343" y="-175.5" font-family="Helvetica,sans-Serif" font-size="10.00" fill="#000000">Coder.h</text>
</a>
</g>
</g>
<!-- Node11&#45;&gt;Node19 -->
<g id="edge25" class="edge">
<title>Node11&#45;&gt;Node19</title>
<path fill="none" stroke="#191970" d="M343,-224.2455C343,-216.9382 343,-206.6944 343,-197.7046"/>
<polygon fill="#191970" stroke="#191970" points="346.5001,-197.6426 343,-187.6427 339.5001,-197.6427 346.5001,-197.6426"/>
</g>
<!-- Node11&#45;&gt;Node21 -->
<g id="edge33" class="edge">
<title>Node11&#45;&gt;Node21</title>
<path fill="none" stroke="#191970" d="M297.1982,-224.5004C250.7486,-214.8664 178.7987,-199.9434 128.9901,-189.6128"/>
<polygon fill="#191970" stroke="#191970" points="129.5289,-186.1501 119.0265,-187.5462 128.1073,-193.0042 129.5289,-186.1501"/>
</g>
<!-- Node13&#45;&gt;Node1 -->
<g id="edge17" class="edge">
<title>Node13&#45;&gt;Node1</title>
<path fill="none" stroke="#191970" d="M737.5349,-168.0707C736.7925,-155.077 734.9941,-131.6475 731,-112 729.1962,-103.1267 726.4076,-93.5146 723.7925,-85.3826"/>
<polygon fill="#191970" stroke="#191970" points="727.0532,-84.0976 720.5522,-75.7317 720.4172,-86.3257 727.0532,-84.0976"/>
</g>
<!-- Node13&#45;&gt;Node6 -->
<g id="edge18" class="edge">
<title>Node13&#45;&gt;Node6</title>
<path fill="none" stroke="#191970" d="M718.0589,-168.3733C699.5214,-159.4241 671.6972,-145.9917 650.7587,-135.8835"/>
<polygon fill="#191970" stroke="#191970" points="652.2081,-132.6967 641.6809,-131.5011 649.1648,-139.0006 652.2081,-132.6967"/>
</g>
<!-- Node14&#45;&gt;Node8 -->
<g id="edge21" class="edge">
<title>Node14&#45;&gt;Node8</title>
<path fill="none" stroke="#191970" d="M321.9578,-112.3733C346.7407,-103.1822 384.2746,-89.2624 411.754,-79.0713"/>
<polygon fill="#191970" stroke="#191970" points="413.2219,-82.26 421.3809,-75.5011 410.7879,-75.6968 413.2219,-82.26"/>
</g>
<!-- Node15 -->
<g id="node16" class="node">
<title>Node15</title>
<polygon fill="none" stroke="#bfbfbf" points="192,-56.5 192,-75.5 242,-75.5 242,-56.5 192,-56.5"/>
<text text-anchor="middle" x="217" y="-63.5" font-family="Helvetica,sans-Serif" font-size="10.00" fill="#000000">cstdint</text>
</g>
<!-- Node14&#45;&gt;Node15 -->
<g id="edge20" class="edge">
<title>Node14&#45;&gt;Node15</title>
<path fill="none" stroke="#191970" d="M282.2393,-112.2455C270.3448,-103.814 252.935,-91.4729 239.0915,-81.6598"/>
<polygon fill="#191970" stroke="#191970" points="240.7854,-78.5704 230.6031,-75.6427 236.7372,-84.2811 240.7854,-78.5704"/>
</g>
<!-- Node16 -->
<g id="node17" class="node">
<title>Node16</title>
<g id="a_node17"><a xlink:href="../../d4/da1/helper_8h.html" target="_top" xlink:title="various helper functions ">
<polygon fill="none" stroke="#000000" points="347,-56.5 347,-75.5 403,-75.5 403,-56.5 347,-56.5"/>
<text text-anchor="middle" x="375" y="-63.5" font-family="Helvetica,sans-Serif" font-size="10.00" fill="#000000">helper.h</text>
</a>
</g>
</g>
<!-- Node14&#45;&gt;Node16 -->
<g id="edge22" class="edge">
<title>Node14&#45;&gt;Node16</title>
<path fill="none" stroke="#191970" d="M309.7607,-112.2455C321.6552,-103.814 339.065,-91.4729 352.9085,-81.6598"/>
<polygon fill="#191970" stroke="#191970" points="355.2628,-84.2811 361.3969,-75.6427 351.2146,-78.5704 355.2628,-84.2811"/>
</g>
<!-- Node17 -->
<g id="node18" class="node">
<title>Node17</title>
<polygon fill="none" stroke="#bfbfbf" points="629.5,-.5 629.5,-19.5 682.5,-19.5 682.5,-.5 629.5,-.5"/>
<text text-anchor="middle" x="656" y="-7.5" font-family="Helvetica,sans-Serif" font-size="10.00" fill="#000000">cstddef</text>
</g>
<!-- Node16&#45;&gt;Node17 -->
<g id="edge23" class="edge">
<title>Node16&#45;&gt;Node17</title>
<path fill="none" stroke="#191970" d="M403.2251,-58.1295C406.1802,-57.378 409.1461,-56.6536 412,-56 485.009,-39.2785 571.3129,-24.0652 619.233,-16.0156"/>
<polygon fill="#191970" stroke="#191970" points="619.8539,-19.4605 629.1411,-14.3616 618.7012,-12.556 619.8539,-19.4605"/>
</g>
<!-- Node18 -->
<g id="node19" class="node">
<title>Node18</title>
<polygon fill="none" stroke="#bfbfbf" points="351.5,-.5 351.5,-19.5 398.5,-19.5 398.5,-.5 351.5,-.5"/>
<text text-anchor="middle" x="375" y="-7.5" font-family="Helvetica,sans-Serif" font-size="10.00" fill="#000000">cmath</text>
</g>
<!-- Node16&#45;&gt;Node18 -->
<g id="edge24" class="edge">
<title>Node16&#45;&gt;Node18</title>
<path fill="none" stroke="#191970" d="M375,-56.2455C375,-48.9382 375,-38.6944 375,-29.7046"/>
<polygon fill="#191970" stroke="#191970" points="378.5001,-29.6426 375,-19.6427 371.5001,-29.6427 378.5001,-29.6426"/>
</g>
<!-- Node19&#45;&gt;Node1 -->
<g id="edge26" class="edge">
<title>Node19&#45;&gt;Node1</title>
<path fill="none" stroke="#191970" d="M369.7884,-168.8025C408.4969,-155.6239 482.4072,-130.8775 546,-112 593.4081,-97.9269 648.7541,-83.3774 683.3441,-74.5067"/>
<polygon fill="#191970" stroke="#191970" points="684.5582,-77.809 693.3808,-71.9428 682.8257,-71.0268 684.5582,-77.809"/>
</g>
<!-- Node19&#45;&gt;Node8 -->
<g id="edge28" class="edge">
<title>Node19&#45;&gt;Node8</title>
<path fill="none" stroke="#191970" d="M351.867,-168.4509C369.4432,-149.5227 408.9155,-107.014 431.0955,-83.1279"/>
<polygon fill="#191970" stroke="#191970" points="433.9157,-85.2344 438.1555,-75.5249 428.7861,-80.4713 433.9157,-85.2344"/>
</g>
<!-- Node19&#45;&gt;Node14 -->
<g id="edge31" class="edge">
<title>Node19&#45;&gt;Node14</title>
<path fill="none" stroke="#191970" d="M334.8132,-168.2455C328.1411,-160.2958 318.5521,-148.8706 310.5747,-139.3656"/>
<polygon fill="#191970" stroke="#191970" points="313.2026,-137.0524 304.093,-131.6427 307.8408,-141.5525 313.2026,-137.0524"/>
</g>
<!-- Node19&#45;&gt;Node15 -->
<g id="edge27" class="edge">
<title>Node19&#45;&gt;Node15</title>
<path fill="none" stroke="#191970" d="M316.4866,-169.524C288.543,-160.0996 247.0649,-144.5514 236,-132 224.8008,-119.2963 220.18,-100.3732 218.2853,-86.0422"/>
<polygon fill="#191970" stroke="#191970" points="221.7345,-85.3514 217.2767,-75.7401 214.7678,-86.0335 221.7345,-85.3514"/>
</g>
<!-- Node19&#45;&gt;Node16 -->
<g id="edge32" class="edge">
<title>Node19&#45;&gt;Node16</title>
<path fill="none" stroke="#191970" d="M345.7283,-168.4509C350.9711,-150.1013 362.5455,-109.5908 369.4659,-85.3693"/>
<polygon fill="#191970" stroke="#191970" points="372.8967,-86.1017 372.2786,-75.5249 366.166,-84.1786 372.8967,-86.1017"/>
</g>
<!-- Node20 -->
<g id="node21" class="node">
<title>Node20</title>
<g id="a_node21"><a xlink:href="../../d7/d99/DecoderSymbol_8h.html" target="_top" xlink:title="Structure containing all relevant information for decoding a rANS encoded symbol. ...">
<polygon fill="none" stroke="#000000" points="85.5,-112.5 85.5,-131.5 188.5,-131.5 188.5,-112.5 85.5,-112.5"/>
<text text-anchor="middle" x="137" y="-119.5" font-family="Helvetica,sans-Serif" font-size="10.00" fill="#000000">DecoderSymbol.h</text>
</a>
</g>
</g>
<!-- Node19&#45;&gt;Node20 -->
<g id="edge29" class="edge">
<title>Node19&#45;&gt;Node20</title>
<path fill="none" stroke="#191970" d="M316.4908,-170.7936C282.4589,-161.5422 222.904,-145.3526 181.7827,-134.1739"/>
<polygon fill="#191970" stroke="#191970" points="182.5796,-130.7636 172.0116,-131.5177 180.7433,-137.5185 182.5796,-130.7636"/>
</g>
<!-- Node20&#45;&gt;Node15 -->
<g id="edge30" class="edge">
<title>Node20&#45;&gt;Node15</title>
<path fill="none" stroke="#191970" d="M150.9349,-112.2455C163.0947,-103.7337 180.9464,-91.2375 195.0285,-81.3801"/>
<polygon fill="#191970" stroke="#191970" points="197.0395,-84.2447 203.2248,-75.6427 193.0253,-78.51 197.0395,-84.2447"/>
</g>
<!-- Node22 -->
<g id="node23" class="node">
<title>Node22</title>
<polygon fill="none" stroke="#bfbfbf" points="11,-112.5 11,-131.5 67,-131.5 67,-112.5 11,-112.5"/>
<text text-anchor="middle" x="39" y="-119.5" font-family="Helvetica,sans-Serif" font-size="10.00" fill="#000000">sstream</text>
</g>
<!-- Node21&#45;&gt;Node22 -->
<g id="edge34" class="edge">
<title>Node21&#45;&gt;Node22</title>
<path fill="none" stroke="#191970" d="M67.0777,-168.2455C62.3973,-160.5367 55.7327,-149.5598 50.0711,-140.2348"/>
<polygon fill="#191970" stroke="#191970" points="53.0361,-138.3741 44.8545,-131.6427 47.0525,-142.007 53.0361,-138.3741"/>
</g>
<!-- Node23&#45;&gt;Node4 -->
<g id="edge37" class="edge">
<title>Node23&#45;&gt;Node4</title>
<path fill="none" stroke="#191970" d="M609.2288,-224.3733C579.335,-215.021 533.7907,-200.7725 501.0783,-190.5385"/>
<polygon fill="#191970" stroke="#191970" points="501.9586,-187.1466 491.3697,-187.5011 499.8685,-193.8273 501.9586,-187.1466"/>
</g>
<!-- Node23&#45;&gt;Node9 -->
<g id="edge38" class="edge">
<title>Node23&#45;&gt;Node9</title>
<path fill="none" stroke="#191970" d="M686.2863,-225.5539C725.4369,-217.4338 777.297,-204.047 791,-188 815.5456,-159.2558 814.301,-112.0467 811.1781,-85.5724"/>
<polygon fill="#191970" stroke="#191970" points="814.6369,-85.0333 809.7944,-75.6099 807.7034,-85.9964 814.6369,-85.0333"/>
</g>
<!-- Node23&#45;&gt;Node13 -->
<g id="edge39" class="edge">
<title>Node23&#45;&gt;Node13</title>
<path fill="none" stroke="#191970" d="M657.0703,-224.2455C672.247,-215.5731 694.6621,-202.7645 712.0563,-192.825"/>
<polygon fill="#191970" stroke="#191970" points="714.1794,-195.643 721.1253,-187.6427 710.7064,-189.5653 714.1794,-195.643"/>
</g>
<!-- Node23&#45;&gt;Node17 -->
<g id="edge36" class="edge">
<title>Node23&#45;&gt;Node17</title>
<path fill="none" stroke="#191970" d="M686.1796,-226.6771C730.4593,-218.7794 793.1394,-205.0196 811,-188 848.8522,-151.9301 838.9023,-127.6551 847,-76 848.3767,-67.2184 852.5006,-62.9826 847,-56 828.182,-32.1118 742.9099,-19.1839 692.8909,-13.5376"/>
<polygon fill="#191970" stroke="#191970" points="693.1082,-10.0408 682.7891,-12.442 692.3533,-16.9999 693.1082,-10.0408"/>
</g>
<!-- Node23&#45;&gt;Node19 -->
<g id="edge45" class="edge">
<title>Node23&#45;&gt;Node19</title>
<path fill="none" stroke="#191970" d="M593.9196,-225.3114C534.8353,-214.171 433.5759,-195.0783 379.5217,-184.8862"/>
<polygon fill="#191970" stroke="#191970" points="380.158,-181.4446 369.6826,-183.0311 378.8609,-188.3234 380.158,-181.4446"/>
</g>
<!-- Node23&#45;&gt;Node20 -->
<g id="edge40" class="edge">
<title>Node23&#45;&gt;Node20</title>
<path fill="none" stroke="#191970" d="M593.9167,-232.6539C528.6054,-229.6308 406.0429,-219.8216 307,-188 288.8296,-182.162 286.5042,-175.6058 269,-168 239.2965,-155.0934 204.6909,-143.1427 178.3659,-134.6586"/>
<polygon fill="#191970" stroke="#191970" points="179.3001,-131.283 168.7095,-131.582 177.175,-137.9526 179.3001,-131.283"/>
</g>
<!-- Node24 -->
<g id="node25" class="node">
<title>Node24</title>
<g id="a_node25"><a xlink:href="../../dc/d3b/ReverseSymbolLookupTable_8h.html" target="_top" xlink:title="Maps CDF back to source symbol &#45; needed for the decoder. ">
<polygon fill="none" stroke="#000000" points="514,-168.5 514,-187.5 676,-187.5 676,-168.5 514,-168.5"/>
<text text-anchor="middle" x="595" y="-175.5" font-family="Helvetica,sans-Serif" font-size="10.00" fill="#000000">ReverseSymbolLookupTable.h</text>
</a>
</g>
</g>
<!-- Node23&#45;&gt;Node24 -->
<g id="edge41" class="edge">
<title>Node23&#45;&gt;Node24</title>
<path fill="none" stroke="#191970" d="M632.1616,-224.2455C625.838,-216.3761 616.7776,-205.101 609.1864,-195.6542"/>
<polygon fill="#191970" stroke="#191970" points="611.7408,-193.2454 602.7486,-187.6427 606.2842,-197.6302 611.7408,-193.2454"/>
</g>
<!-- Node24&#45;&gt;Node1 -->
<g id="edge42" class="edge">
<title>Node24&#45;&gt;Node1</title>
<path fill="none" stroke="#191970" d="M636.4631,-168.4581C657.604,-161.602 682.1331,-150.2546 698,-132 709.11,-119.2182 713.7406,-100.3036 715.6616,-85.9957"/>
<polygon fill="#191970" stroke="#191970" points="719.1773,-86.0134 716.6934,-75.7139 712.2123,-85.3144 719.1773,-86.0134"/>
</g>
<!-- Node24&#45;&gt;Node6 -->
<g id="edge43" class="edge">
<title>Node24&#45;&gt;Node6</title>
<path fill="none" stroke="#191970" d="M599.703,-168.2455C603.3424,-160.6973 608.4924,-150.0158 612.9262,-140.8197"/>
<polygon fill="#191970" stroke="#191970" points="616.1605,-142.1704 617.3509,-131.6427 609.8551,-139.1303 616.1605,-142.1704"/>
</g>
<!-- Node24&#45;&gt;Node16 -->
<g id="edge44" class="edge">
<title>Node24&#45;&gt;Node16</title>
<path fill="none" stroke="#191970" d="M576.2429,-168.4509C537.4389,-148.6961 448.1825,-103.2565 402.7136,-80.1088"/>
<polygon fill="#191970" stroke="#191970" points="404.2092,-76.9427 393.7096,-75.5249 401.0333,-83.1808 404.2092,-76.9427"/>
</g>
</g>
</svg>
        <g id="navigator" transform="translate(0 0)" fill="#404254">
                <rect fill="#f2f5e9" fill-opacity="0.5" stroke="#606060" stroke-width=".5" x="0" y="0" width="60" height="60"/>
                <use id="zoomplus" xlink:href="#zoomPlus" x="17" y="9" onmousedown="handleZoom(evt,'in')"/>
                <use id="zoomminus" xlink:href="#zoomMin" x="42" y="9" onmousedown="handleZoom(evt,'out')"/>
                <use id="reset" xlink:href="#resetDef" x="30" y="36" onmousedown="handleReset()"/>
                <g id="arrowUp" xlink:href="#dirArrow" transform="translate(30 24)" onmousedown="handlePan(0,-1)">
                  <use xlink:href="#rim" fill="#404040">
                        <set attributeName="fill" to="#808080" begin="arrowUp.mouseover" end="arrowUp.mouseout"/>
                  </use>
                  <path fill="none" stroke="white" stroke-width="1.5" d="M0,-3.0v7 M-2.5,-0.5L0,-3.0L2.5,-0.5"/>
                </g>
                <g id="arrowRight" xlink:href="#dirArrow" transform="rotate(90) translate(36 -43)" onmousedown="handlePan(1,0)">
                  <use xlink:href="#rim" fill="#404040">
                        <set attributeName="fill" to="#808080" begin="arrowRight.mouseover" end="arrowRight.mouseout"/>
                  </use>
                  <path fill="none" stroke="white" stroke-width="1.5" d="M0,-3.0v7 M-2.5,-0.5L0,-3.0L2.5,-0.5"/>
                </g>
                <g id="arrowDown" xlink:href="#dirArrow" transform="rotate(180) translate(-30 -48)" onmousedown="handlePan(0,1)">
                  <use xlink:href="#rim" fill="#404040">
                        <set attributeName="fill" to="#808080" begin="arrowDown.mouseover" end="arrowDown.mouseout"/>
                  </use>
                  <path fill="none" stroke="white" stroke-width="1.5" d="M0,-3.0v7 M-2.5,-0.5L0,-3.0L2.5,-0.5"/>
                </g>
                <g id="arrowLeft" xlink:href="#dirArrow" transform="rotate(270) translate(-36 17)" onmousedown="handlePan(-1,0)">
                  <use xlink:href="#rim" fill="#404040">
                        <set attributeName="fill" to="#808080" begin="arrowLeft.mouseover" end="arrowLeft.mouseout"/>
                  </use>
                  <path fill="none" stroke="white" stroke-width="1.5" d="M0,-3.0v7 M-2.5,-0.5L0,-3.0L2.5,-0.5"/>
                </g>
        </g>
        <svg viewBox="0 0 15 15" width="100%" height="30px" preserveAspectRatio="xMaxYMin meet">
         <g id="arrow_out" transform="scale(0.3 0.3)">
          <a xlink:href="ITSMFT_2common_2include_2DataFormatsITSMFT_2CTF_8h__incl_org.svg" target="_base">
           <rect id="button" ry="5" rx="5" y="6" x="6" height="38" width="38"
                fill="#f2f5e9" fill-opacity="0.5" stroke="#606060" stroke-width="1.0"/>
           <path id="arrow"
             d="M 11.500037,31.436501 C 11.940474,20.09759 22.043105,11.32322 32.158766,21.979434 L 37.068811,17.246167 C 37.068811,17.246167 37.088388,32 37.088388,32 L 22.160133,31.978069 C 22.160133,31.978069 26.997745,27.140456 26.997745,27.140456 C 18.528582,18.264221 13.291696,25.230495 11.500037,31.436501 z"
             style="fill:#404040;"/>
          </a>
         </g>
        </svg>
</svg>
