<?xml version="1.0" encoding="UTF-8" standalone="no"?>
<!DOCTYPE svg PUBLIC "-//W3C//DTD SVG 1.1//EN"
 "http://www.w3.org/Graphics/SVG/1.1/DTD/svg11.dtd">
<!-- Generated by graphviz version 2.40.1 (20161225.0304)
 -->
<!-- Title: /home/travis/build/AliceO2Group/AliceO2/GPU/GPUTracking/Merger/GPUTPCGMMergerGPU.h Pages: 1 -->
<svg width="1606pt" height="565pt"
 viewBox="0.00 0.00 1605.50 565.00" xmlns="http://www.w3.org/2000/svg" xmlns:xlink="http://www.w3.org/1999/xlink">
<g id="graph0" class="graph" transform="scale(1 1) rotate(0) translate(4 561)">
<title>/home/travis/build/AliceO2Group/AliceO2/GPU/GPUTracking/Merger/GPUTPCGMMergerGPU.h</title>
<!-- Node0 -->
<g id="node1" class="node">
<title>Node0</title>
<polygon fill="#bfbfbf" stroke="#000000" points="1355,-504.5 1355,-556.5 1497,-556.5 1497,-504.5 1355,-504.5"/>
<text text-anchor="start" x="1363" y="-544.5" font-family="Helvetica,sans-Serif" font-size="10.00" fill="#000000">/home/travis/build</text>
<text text-anchor="start" x="1363" y="-533.5" font-family="Helvetica,sans-Serif" font-size="10.00" fill="#000000">/AliceO2Group/AliceO2</text>
<text text-anchor="start" x="1363" y="-522.5" font-family="Helvetica,sans-Serif" font-size="10.00" fill="#000000">/GPU/GPUTracking/Merger</text>
<text text-anchor="middle" x="1426" y="-511.5" font-family="Helvetica,sans-Serif" font-size="10.00" fill="#000000">/GPUTPCGMMergerGPU.h</text>
</g>
<!-- Node1 -->
<g id="node2" class="node">
<title>Node1</title>
<g id="a_node2"><a xlink:href="../../d9/de5/GPUGeneralKernels_8h.html" target="_top" xlink:title="GPUGeneralKernels.h">
<polygon fill="none" stroke="#000000" points="1368.5,-224.5 1368.5,-243.5 1489.5,-243.5 1489.5,-224.5 1368.5,-224.5"/>
<text text-anchor="middle" x="1429" y="-231.5" font-family="Helvetica,sans-Serif" font-size="10.00" fill="#000000">GPUGeneralKernels.h</text>
</a>
</g>
</g>
<!-- Node0&#45;&gt;Node1 -->
<g id="edge1" class="edge">
<title>Node0&#45;&gt;Node1</title>
<path fill="none" stroke="#191970" d="M1426,-504.4123C1426,-478.4505 1426,-437.4714 1426,-402 1426,-402 1426,-402 1426,-346 1426,-313.7 1427.2622,-276.1791 1428.1492,-253.8005"/>
<polygon fill="#191970" stroke="#191970" points="1431.6553,-253.7217 1428.5702,-243.5861 1424.6613,-253.4334 1431.6553,-253.7217"/>
</g>
<!-- Node14 -->
<g id="node15" class="node">
<title>Node14</title>
<g id="a_node15"><a xlink:href="../../db/df8/GPUConstantMem_8h.html" target="_top" xlink:title="GPUConstantMem.h">
<polygon fill="none" stroke="#000000" points="269,-448.5 269,-467.5 383,-467.5 383,-448.5 269,-448.5"/>
<text text-anchor="middle" x="326" y="-455.5" font-family="Helvetica,sans-Serif" font-size="10.00" fill="#000000">GPUConstantMem.h</text>
</a>
</g>
</g>
<!-- Node0&#45;&gt;Node14 -->
<g id="edge15" class="edge">
<title>Node0&#45;&gt;Node14</title>
<path fill="none" stroke="#191970" d="M1354.6735,-525.7989C1154.375,-512.5974 588.6664,-475.3121 393.3268,-462.4374"/>
<polygon fill="#191970" stroke="#191970" points="393.4099,-458.9354 383.2013,-461.7701 392.9494,-465.9203 393.4099,-458.9354"/>
</g>
<!-- Node36 -->
<g id="node37" class="node">
<title>Node36</title>
<g id="a_node37"><a xlink:href="../../de/d4c/GPUTPCGMMergerTypes_8h.html" target="_top" xlink:title="GPUTPCGMMergerTypes.h">
<polygon fill="none" stroke="#000000" points="1454.5,-280.5 1454.5,-299.5 1597.5,-299.5 1597.5,-280.5 1454.5,-280.5"/>
<text text-anchor="middle" x="1526" y="-287.5" font-family="Helvetica,sans-Serif" font-size="10.00" fill="#000000">GPUTPCGMMergerTypes.h</text>
</a>
</g>
</g>
<!-- Node0&#45;&gt;Node36 -->
<g id="edge64" class="edge">
<title>Node0&#45;&gt;Node36</title>
<path fill="none" stroke="#191970" d="M1436.8921,-504.3045C1457.1881,-455.4927 1500.3404,-351.7114 1518.1059,-308.9853"/>
<polygon fill="#191970" stroke="#191970" points="1521.3479,-310.3043 1521.9555,-299.7269 1514.8844,-307.6168 1521.3479,-310.3043"/>
</g>
<!-- Node2 -->
<g id="node3" class="node">
<title>Node2</title>
<g id="a_node3"><a xlink:href="../../d2/d6d/GPUDef_8h.html" target="_top" xlink:title="GPUDef.h">
<polygon fill="none" stroke="#000000" points="674.5,-112.5 674.5,-131.5 737.5,-131.5 737.5,-112.5 674.5,-112.5"/>
<text text-anchor="middle" x="706" y="-119.5" font-family="Helvetica,sans-Serif" font-size="10.00" fill="#000000">GPUDef.h</text>
</a>
</g>
</g>
<!-- Node1&#45;&gt;Node2 -->
<g id="edge2" class="edge">
<title>Node1&#45;&gt;Node2</title>
<path fill="none" stroke="#191970" d="M1389.4428,-224.4583C1329.9731,-210.3989 1213.8516,-184.0529 1114,-168 981.0151,-146.6203 822.063,-131.7406 747.9289,-125.4133"/>
<polygon fill="#191970" stroke="#191970" points="747.8789,-121.8967 737.6197,-124.542 747.2894,-128.8718 747.8789,-121.8967"/>
</g>
<!-- Node12 -->
<g id="node13" class="node">
<title>Node12</title>
<g id="a_node13"><a xlink:href="../../d4/dc5/GPUDataTypes_8h.html" target="_top" xlink:title="GPUDataTypes.h">
<polygon fill="none" stroke="#000000" points="60,-168.5 60,-187.5 158,-187.5 158,-168.5 60,-168.5"/>
<text text-anchor="middle" x="109" y="-175.5" font-family="Helvetica,sans-Serif" font-size="10.00" fill="#000000">GPUDataTypes.h</text>
</a>
</g>
</g>
<!-- Node1&#45;&gt;Node12 -->
<g id="edge12" class="edge">
<title>Node1&#45;&gt;Node12</title>
<path fill="none" stroke="#191970" d="M1368.2932,-229.3814C1342.0721,-227.5057 1311.0371,-225.445 1283,-224 821.114,-200.1946 704.8112,-213.2146 243,-188 218.5492,-186.665 191.621,-184.7436 168.3577,-182.941"/>
<polygon fill="#191970" stroke="#191970" points="168.534,-179.4442 158.2908,-182.1509 167.9862,-186.4227 168.534,-179.4442"/>
</g>
<!-- Node3 -->
<g id="node4" class="node">
<title>Node3</title>
<g id="a_node4"><a xlink:href="../../df/d21/GPUCommonDef_8h.html" target="_top" xlink:title="GPUCommonDef.h">
<polygon fill="none" stroke="#000000" points="280.5,-56.5 280.5,-75.5 387.5,-75.5 387.5,-56.5 280.5,-56.5"/>
<text text-anchor="middle" x="334" y="-63.5" font-family="Helvetica,sans-Serif" font-size="10.00" fill="#000000">GPUCommonDef.h</text>
</a>
</g>
</g>
<!-- Node2&#45;&gt;Node3 -->
<g id="edge3" class="edge">
<title>Node2&#45;&gt;Node3</title>
<path fill="none" stroke="#191970" d="M674.3417,-115.9213C667.0152,-114.5746 659.2437,-113.1942 652,-112 563.9671,-97.4874 461.8055,-83.1531 397.5334,-74.4393"/>
<polygon fill="#191970" stroke="#191970" points="397.9302,-70.9612 387.5514,-73.0899 396.9924,-77.8981 397.9302,-70.9612"/>
</g>
<!-- Node6 -->
<g id="node7" class="node">
<title>Node6</title>
<g id="a_node7"><a xlink:href="../../d2/d37/GPUDefConstantsAndSettings_8h.html" target="_top" xlink:title="GPUDefConstantsAndSettings.h">
<polygon fill="none" stroke="#000000" points="931.5,-56.5 931.5,-75.5 1102.5,-75.5 1102.5,-56.5 931.5,-56.5"/>
<text text-anchor="middle" x="1017" y="-63.5" font-family="Helvetica,sans-Serif" font-size="10.00" fill="#000000">GPUDefConstantsAndSettings.h</text>
</a>
</g>
</g>
<!-- Node2&#45;&gt;Node6 -->
<g id="edge6" class="edge">
<title>Node2&#45;&gt;Node6</title>
<path fill="none" stroke="#191970" d="M737.5318,-116.3222C788.1028,-107.2162 888.3131,-89.1719 953.9745,-77.3486"/>
<polygon fill="#191970" stroke="#191970" points="954.9818,-80.7236 964.2032,-75.5068 953.7412,-73.8344 954.9818,-80.7236"/>
</g>
<!-- Node7 -->
<g id="node8" class="node">
<title>Node7</title>
<g id="a_node8"><a xlink:href="../../dc/de9/GPUDefGPUParameters_8h.html" target="_top" xlink:title="GPUDefGPUParameters.h">
<polygon fill="none" stroke="#000000" points="448,-56.5 448,-75.5 588,-75.5 588,-56.5 448,-56.5"/>
<text text-anchor="middle" x="518" y="-63.5" font-family="Helvetica,sans-Serif" font-size="10.00" fill="#000000">GPUDefGPUParameters.h</text>
</a>
</g>
</g>
<!-- Node2&#45;&gt;Node7 -->
<g id="edge7" class="edge">
<title>Node2&#45;&gt;Node7</title>
<path fill="none" stroke="#191970" d="M674.1084,-112.5004C642.6435,-103.1278 594.3735,-88.7495 559.8429,-78.4638"/>
<polygon fill="#191970" stroke="#191970" points="560.6311,-75.0467 550.0481,-75.5462 558.6328,-81.7554 560.6311,-75.0467"/>
</g>
<!-- Node9 -->
<g id="node10" class="node">
<title>Node9</title>
<g id="a_node10"><a xlink:href="../../d3/d4c/GPUDefOpenCL12Templates_8h.html" target="_top" xlink:title="GPUDefOpenCL12Templates.h">
<polygon fill="none" stroke="#000000" points="606,-56.5 606,-75.5 770,-75.5 770,-56.5 606,-56.5"/>
<text text-anchor="middle" x="688" y="-63.5" font-family="Helvetica,sans-Serif" font-size="10.00" fill="#000000">GPUDefOpenCL12Templates.h</text>
</a>
</g>
</g>
<!-- Node2&#45;&gt;Node9 -->
<g id="edge9" class="edge">
<title>Node2&#45;&gt;Node9</title>
<path fill="none" stroke="#191970" d="M702.8646,-112.2455C700.49,-104.8579 697.1507,-94.4689 694.2385,-85.4087"/>
<polygon fill="#191970" stroke="#191970" points="697.4917,-84.0919 691.0994,-75.6427 690.8275,-86.234 697.4917,-84.0919"/>
</g>
<!-- Node10 -->
<g id="node11" class="node">
<title>Node10</title>
<g id="a_node11"><a xlink:href="../../d2/d45/GPUCommonRtypes_8h.html" target="_top" xlink:title="GPUCommonRtypes.h">
<polygon fill="none" stroke="#000000" points="788.5,-56.5 788.5,-75.5 913.5,-75.5 913.5,-56.5 788.5,-56.5"/>
<text text-anchor="middle" x="851" y="-63.5" font-family="Helvetica,sans-Serif" font-size="10.00" fill="#000000">GPUCommonRtypes.h</text>
</a>
</g>
</g>
<!-- Node2&#45;&gt;Node10 -->
<g id="edge10" class="edge">
<title>Node2&#45;&gt;Node10</title>
<path fill="none" stroke="#191970" d="M730.9264,-112.3733C754.6202,-103.2226 790.4511,-89.3844 816.8068,-79.2057"/>
<polygon fill="#191970" stroke="#191970" points="818.3314,-82.3689 826.3989,-75.5011 815.8094,-75.8389 818.3314,-82.3689"/>
</g>
<!-- Node4 -->
<g id="node5" class="node">
<title>Node4</title>
<g id="a_node5"><a xlink:href="../../d5/d93/GPUCommonDefSettings_8h.html" target="_top" xlink:title="GPUCommonDefSettings.h">
<polygon fill="none" stroke="#000000" points="125,-.5 125,-19.5 273,-19.5 273,-.5 125,-.5"/>
<text text-anchor="middle" x="199" y="-7.5" font-family="Helvetica,sans-Serif" font-size="10.00" fill="#000000">GPUCommonDefSettings.h</text>
</a>
</g>
</g>
<!-- Node3&#45;&gt;Node4 -->
<g id="edge4" class="edge">
<title>Node3&#45;&gt;Node4</title>
<path fill="none" stroke="#191970" d="M310.7927,-56.3733C288.8301,-47.2629 255.6668,-33.5062 231.1599,-23.3404"/>
<polygon fill="#191970" stroke="#191970" points="232.4824,-20.0999 221.9045,-19.5011 229.8003,-26.5657 232.4824,-20.0999"/>
</g>
<!-- Node5 -->
<g id="node6" class="node">
<title>Node5</title>
<g id="a_node6"><a xlink:href="../../da/d5a/GPUCommonDefAPI_8h.html" target="_top" xlink:title="GPUCommonDefAPI.h">
<polygon fill="none" stroke="#000000" points="291,-.5 291,-19.5 415,-19.5 415,-.5 291,-.5"/>
<text text-anchor="middle" x="353" y="-7.5" font-family="Helvetica,sans-Serif" font-size="10.00" fill="#000000">GPUCommonDefAPI.h</text>
</a>
</g>
</g>
<!-- Node3&#45;&gt;Node5 -->
<g id="edge5" class="edge">
<title>Node3&#45;&gt;Node5</title>
<path fill="none" stroke="#191970" d="M337.3095,-56.2455C339.8433,-48.7776 343.4177,-38.2427 346.515,-29.1137"/>
<polygon fill="#191970" stroke="#191970" points="349.8298,-30.237 349.7284,-19.6427 343.2009,-27.9879 349.8298,-30.237"/>
</g>
<!-- Node8 -->
<g id="node9" class="node">
<title>Node8</title>
<g id="a_node9"><a xlink:href="../../d6/dff/GPUDefMacros_8h.html" target="_top" xlink:title="GPUDefMacros.h">
<polygon fill="none" stroke="#000000" points="469,-.5 469,-19.5 567,-19.5 567,-.5 469,-.5"/>
<text text-anchor="middle" x="518" y="-7.5" font-family="Helvetica,sans-Serif" font-size="10.00" fill="#000000">GPUDefMacros.h</text>
</a>
</g>
</g>
<!-- Node7&#45;&gt;Node8 -->
<g id="edge8" class="edge">
<title>Node7&#45;&gt;Node8</title>
<path fill="none" stroke="#191970" d="M518,-56.2455C518,-48.9382 518,-38.6944 518,-29.7046"/>
<polygon fill="#191970" stroke="#191970" points="521.5001,-29.6426 518,-19.6427 514.5001,-29.6427 521.5001,-29.6426"/>
</g>
<!-- Node11 -->
<g id="node12" class="node">
<title>Node11</title>
<polygon fill="none" stroke="#bfbfbf" points="821.5,-.5 821.5,-19.5 880.5,-19.5 880.5,-.5 821.5,-.5"/>
<text text-anchor="middle" x="851" y="-7.5" font-family="Helvetica,sans-Serif" font-size="10.00" fill="#000000">Rtypes.h</text>
</g>
<!-- Node10&#45;&gt;Node11 -->
<g id="edge11" class="edge">
<title>Node10&#45;&gt;Node11</title>
<path fill="none" stroke="#191970" d="M851,-56.2455C851,-48.9382 851,-38.6944 851,-29.7046"/>
<polygon fill="#191970" stroke="#191970" points="854.5001,-29.6426 851,-19.6427 847.5001,-29.6427 854.5001,-29.6426"/>
</g>
<!-- Node12&#45;&gt;Node3 -->
<g id="edge13" class="edge">
<title>Node12&#45;&gt;Node3</title>
<path fill="none" stroke="#191970" d="M115.5604,-168.3759C125.885,-153.9657 147.312,-126.8881 172,-112 201.9339,-93.9483 239.2431,-82.7246 270.5092,-75.8885"/>
<polygon fill="#191970" stroke="#191970" points="271.356,-79.2873 280.4313,-73.8201 269.9274,-72.4346 271.356,-79.2873"/>
</g>
<!-- Node13 -->
<g id="node14" class="node">
<title>Node13</title>
<polygon fill="none" stroke="#bfbfbf" points="214.5,-112.5 214.5,-131.5 267.5,-131.5 267.5,-112.5 214.5,-112.5"/>
<text text-anchor="middle" x="241" y="-119.5" font-family="Helvetica,sans-Serif" font-size="10.00" fill="#000000">cstddef</text>
</g>
<!-- Node12&#45;&gt;Node13 -->
<g id="edge14" class="edge">
<title>Node12&#45;&gt;Node13</title>
<path fill="none" stroke="#191970" d="M131.6916,-168.3733C153.0711,-159.3032 185.3057,-145.6279 209.2362,-135.4755"/>
<polygon fill="#191970" stroke="#191970" points="210.7656,-138.6287 218.6045,-131.5011 208.0317,-132.1846 210.7656,-138.6287"/>
</g>
<!-- Node14&#45;&gt;Node12 -->
<g id="edge58" class="edge">
<title>Node14&#45;&gt;Node12</title>
<path fill="none" stroke="#191970" d="M268.6801,-450.3041C240.0173,-444.0022 206.3444,-432.5947 182,-412 156.8084,-390.6887 148,-378.9968 148,-346 148,-346 148,-346 148,-290 148,-255.5398 131.3304,-218.2666 119.7876,-196.5877"/>
<polygon fill="#191970" stroke="#191970" points="122.8252,-194.8481 114.9233,-187.7906 116.6994,-198.2355 122.8252,-194.8481"/>
</g>
<!-- Node15 -->
<g id="node16" class="node">
<title>Node15</title>
<g id="a_node16"><a xlink:href="../../d6/d25/GPUTPCTracker_8h.html" target="_top" xlink:title="GPUTPCTracker.h">
<polygon fill="none" stroke="#000000" points="1021,-392.5 1021,-411.5 1121,-411.5 1121,-392.5 1021,-392.5"/>
<text text-anchor="middle" x="1071" y="-399.5" font-family="Helvetica,sans-Serif" font-size="10.00" fill="#000000">GPUTPCTracker.h</text>
</a>
</g>
</g>
<!-- Node14&#45;&gt;Node15 -->
<g id="edge16" class="edge">
<title>Node14&#45;&gt;Node15</title>
<path fill="none" stroke="#191970" d="M383.2219,-453.6988C520.838,-443.3545 869.3329,-417.1589 1010.365,-406.5578"/>
<polygon fill="#191970" stroke="#191970" points="1010.8472,-410.0315 1020.5567,-405.7917 1010.3225,-403.0512 1010.8472,-410.0315"/>
</g>
<!-- Node25 -->
<g id="node26" class="node">
<title>Node25</title>
<g id="a_node26"><a xlink:href="../../df/d13/GPUParam_8h.html" target="_top" xlink:title="GPUParam.h">
<polygon fill="none" stroke="#000000" points="351.5,-280.5 351.5,-299.5 428.5,-299.5 428.5,-280.5 351.5,-280.5"/>
<text text-anchor="middle" x="390" y="-287.5" font-family="Helvetica,sans-Serif" font-size="10.00" fill="#000000">GPUParam.h</text>
</a>
</g>
</g>
<!-- Node14&#45;&gt;Node25 -->
<g id="edge57" class="edge">
<title>Node14&#45;&gt;Node25</title>
<path fill="none" stroke="#191970" d="M329.6243,-448.4862C339.8288,-421.6994 368.9499,-345.2565 382.6747,-309.2289"/>
<polygon fill="#191970" stroke="#191970" points="385.9667,-310.4188 386.256,-299.8279 379.4253,-307.9268 385.9667,-310.4188"/>
</g>
<!-- Node34 -->
<g id="node35" class="node">
<title>Node34</title>
<g id="a_node35"><a xlink:href="../../d7/d4f/GPUTRDDef_8h.html" target="_top" xlink:title="GPUTRDDef.h">
<polygon fill="none" stroke="#000000" points="191.5,-392.5 191.5,-411.5 274.5,-411.5 274.5,-392.5 191.5,-392.5"/>
<text text-anchor="middle" x="233" y="-399.5" font-family="Helvetica,sans-Serif" font-size="10.00" fill="#000000">GPUTRDDef.h</text>
</a>
</g>
</g>
<!-- Node14&#45;&gt;Node34 -->
<g id="edge59" class="edge">
<title>Node14&#45;&gt;Node34</title>
<path fill="none" stroke="#191970" d="M309.8006,-448.2455C295.3982,-439.5731 274.1268,-426.7645 257.6201,-416.825"/>
<polygon fill="#191970" stroke="#191970" points="259.386,-413.8028 249.0137,-411.6427 255.775,-419.7996 259.386,-413.8028"/>
</g>
<!-- Node35 -->
<g id="node36" class="node">
<title>Node35</title>
<g id="a_node36"><a xlink:href="../../da/d28/GPUO2FakeClasses_8h.html" target="_top" xlink:title="GPUO2FakeClasses.h">
<polygon fill="none" stroke="#000000" points="0,-224.5 0,-243.5 120,-243.5 120,-224.5 0,-224.5"/>
<text text-anchor="middle" x="60" y="-231.5" font-family="Helvetica,sans-Serif" font-size="10.00" fill="#000000">GPUO2FakeClasses.h</text>
</a>
</g>
</g>
<!-- Node14&#45;&gt;Node35 -->
<g id="edge61" class="edge">
<title>Node14&#45;&gt;Node35</title>
<path fill="none" stroke="#191970" d="M268.8892,-450.142C219.9105,-442.3769 154.1497,-429.1788 134,-412 85.0704,-370.2847 67.9038,-290.9277 62.3834,-253.9237"/>
<polygon fill="#191970" stroke="#191970" points="65.8345,-253.3266 61.0218,-243.888 58.8981,-254.2678 65.8345,-253.3266"/>
</g>
<!-- Node16 -->
<g id="node17" class="node">
<title>Node16</title>
<g id="a_node17"><a xlink:href="../../da/dab/GPUTPCDef_8h.html" target="_top" xlink:title="GPUTPCDef.h">
<polygon fill="none" stroke="#000000" points="1023,-168.5 1023,-187.5 1105,-187.5 1105,-168.5 1023,-168.5"/>
<text text-anchor="middle" x="1064" y="-175.5" font-family="Helvetica,sans-Serif" font-size="10.00" fill="#000000">GPUTPCDef.h</text>
</a>
</g>
</g>
<!-- Node15&#45;&gt;Node16 -->
<g id="edge17" class="edge">
<title>Node15&#45;&gt;Node16</title>
<path fill="none" stroke="#191970" d="M1121.2089,-395.4415C1175.6042,-385.3609 1259.8486,-360.4058 1299,-300 1317.3714,-271.6552 1320.5343,-250.0233 1299,-224 1273.4992,-193.1834 1166.9578,-195.9949 1115.029,-188.6671"/>
<polygon fill="#191970" stroke="#191970" points="1115.5614,-185.2075 1105.1183,-186.9939 1114.396,-192.1098 1115.5614,-185.2075"/>
</g>
<!-- Node17 -->
<g id="node18" class="node">
<title>Node17</title>
<polygon fill="none" stroke="#bfbfbf" points="1338,-336.5 1338,-355.5 1398,-355.5 1398,-336.5 1338,-336.5"/>
<text text-anchor="middle" x="1368" y="-343.5" font-family="Helvetica,sans-Serif" font-size="10.00" fill="#000000">iostream</text>
</g>
<!-- Node15&#45;&gt;Node17 -->
<g id="edge19" class="edge">
<title>Node15&#45;&gt;Node17</title>
<path fill="none" stroke="#191970" d="M1121.0482,-393.5634C1172.1767,-384.7893 1253.7989,-370.3522 1324,-356 1325.252,-355.744 1326.523,-355.4801 1327.8057,-355.2102"/>
<polygon fill="#191970" stroke="#191970" points="1328.7079,-358.5961 1337.7409,-353.0594 1327.2267,-351.7546 1328.7079,-358.5961"/>
</g>
<!-- Node18 -->
<g id="node19" class="node">
<title>Node18</title>
<g id="a_node19"><a xlink:href="../../dd/d7b/GPUTPCHitId_8h.html" target="_top" xlink:title="GPUTPCHitId.h">
<polygon fill="none" stroke="#000000" points="989.5,-336.5 989.5,-355.5 1078.5,-355.5 1078.5,-336.5 989.5,-336.5"/>
<text text-anchor="middle" x="1034" y="-343.5" font-family="Helvetica,sans-Serif" font-size="10.00" fill="#000000">GPUTPCHitId.h</text>
</a>
</g>
</g>
<!-- Node15&#45;&gt;Node18 -->
<g id="edge20" class="edge">
<title>Node15&#45;&gt;Node18</title>
<path fill="none" stroke="#191970" d="M1064.5551,-392.2455C1059.4618,-384.5367 1052.2092,-373.5598 1046.048,-364.2348"/>
<polygon fill="#191970" stroke="#191970" points="1048.8038,-362.0566 1040.3711,-355.6427 1042.9635,-365.9155 1048.8038,-362.0566"/>
</g>
<!-- Node19 -->
<g id="node20" class="node">
<title>Node19</title>
<g id="a_node20"><a xlink:href="../../df/d4a/GPUTPCSliceData_8h.html" target="_top" xlink:title="GPUTPCSliceData.h">
<polygon fill="none" stroke="#000000" points="784,-336.5 784,-355.5 896,-355.5 896,-336.5 784,-336.5"/>
<text text-anchor="middle" x="840" y="-343.5" font-family="Helvetica,sans-Serif" font-size="10.00" fill="#000000">GPUTPCSliceData.h</text>
</a>
</g>
</g>
<!-- Node15&#45;&gt;Node19 -->
<g id="edge21" class="edge">
<title>Node15&#45;&gt;Node19</title>
<path fill="none" stroke="#191970" d="M1031.5522,-392.4369C992.1844,-382.8932 931.5966,-368.2052 889.1292,-357.9101"/>
<polygon fill="#191970" stroke="#191970" points="889.8283,-354.4783 879.2851,-355.5237 888.179,-361.2812 889.8283,-354.4783"/>
</g>
<!-- Node30 -->
<g id="node31" class="node">
<title>Node30</title>
<g id="a_node31"><a xlink:href="../../d6/d57/GPUProcessor_8h.html" target="_top" xlink:title="GPUProcessor.h">
<polygon fill="none" stroke="#000000" points="516.5,-168.5 516.5,-187.5 609.5,-187.5 609.5,-168.5 516.5,-168.5"/>
<text text-anchor="middle" x="563" y="-175.5" font-family="Helvetica,sans-Serif" font-size="10.00" fill="#000000">GPUProcessor.h</text>
</a>
</g>
</g>
<!-- Node15&#45;&gt;Node30 -->
<g id="edge56" class="edge">
<title>Node15&#45;&gt;Node30</title>
<path fill="none" stroke="#191970" d="M1020.7963,-398.585C961.1207,-393.5299 859.0416,-381.7218 775,-356 663.2136,-321.7866 599.6398,-342.7067 537,-244 527.473,-228.9875 536.9612,-209.9163 547.047,-196.1392"/>
<polygon fill="#191970" stroke="#191970" points="550.0789,-197.9501 553.5672,-187.946 544.6016,-193.5912 550.0789,-197.9501"/>
</g>
<!-- Node31 -->
<g id="node32" class="node">
<title>Node31</title>
<g id="a_node32"><a xlink:href="../../de/d15/GPUTPCTrackParam_8h.html" target="_top" xlink:title="GPUTPCTrackParam.h">
<polygon fill="none" stroke="#000000" points="1046,-280.5 1046,-299.5 1168,-299.5 1168,-280.5 1046,-280.5"/>
<text text-anchor="middle" x="1107" y="-287.5" font-family="Helvetica,sans-Serif" font-size="10.00" fill="#000000">GPUTPCTrackParam.h</text>
</a>
</g>
</g>
<!-- Node15&#45;&gt;Node31 -->
<g id="edge48" class="edge">
<title>Node15&#45;&gt;Node31</title>
<path fill="none" stroke="#191970" d="M1074.8593,-392.2032C1078.4513,-382.9405 1083.8579,-368.6195 1088,-356 1093.0548,-340.5996 1098.0988,-322.9448 1101.7181,-309.7721"/>
<polygon fill="#191970" stroke="#191970" points="1105.1533,-310.4767 1104.3922,-299.9092 1098.3972,-308.6449 1105.1533,-310.4767"/>
</g>
<!-- Node33 -->
<g id="node34" class="node">
<title>Node33</title>
<g id="a_node34"><a xlink:href="../../db/d6e/GPUTPCTracklet_8h.html" target="_top" xlink:title="GPUTPCTracklet.h">
<polygon fill="none" stroke="#000000" points="1186,-280.5 1186,-299.5 1290,-299.5 1290,-280.5 1186,-280.5"/>
<text text-anchor="middle" x="1238" y="-287.5" font-family="Helvetica,sans-Serif" font-size="10.00" fill="#000000">GPUTPCTracklet.h</text>
</a>
</g>
</g>
<!-- Node15&#45;&gt;Node33 -->
<g id="edge53" class="edge">
<title>Node15&#45;&gt;Node33</title>
<path fill="none" stroke="#191970" d="M1085.2383,-392.4509C1114.2012,-373.0268 1180.1907,-328.7703 1215.2023,-305.2895"/>
<polygon fill="#191970" stroke="#191970" points="1217.442,-308.0017 1223.7977,-299.5249 1213.543,-302.188 1217.442,-308.0017"/>
</g>
<!-- Node16&#45;&gt;Node2 -->
<g id="edge18" class="edge">
<title>Node16&#45;&gt;Node2</title>
<path fill="none" stroke="#191970" d="M1022.9328,-171.5761C954.278,-160.8368 816.9336,-139.3527 747.796,-128.5379"/>
<polygon fill="#191970" stroke="#191970" points="748.1271,-125.0472 737.7063,-126.9596 747.0452,-131.9631 748.1271,-125.0472"/>
</g>
<!-- Node19&#45;&gt;Node16 -->
<g id="edge22" class="edge">
<title>Node19&#45;&gt;Node16</title>
<path fill="none" stroke="#191970" d="M848.0636,-336.3594C866.9755,-314.2077 916.422,-258.9052 967,-224 986.1589,-210.7779 1009.7122,-199.5081 1028.8115,-191.4328"/>
<polygon fill="#191970" stroke="#191970" points="1030.1551,-194.6648 1038.0679,-187.6195 1027.4886,-188.1925 1030.1551,-194.6648"/>
</g>
<!-- Node20 -->
<g id="node21" class="node">
<title>Node20</title>
<g id="a_node21"><a xlink:href="../../d8/dff/GPUTPCRow_8h.html" target="_top" xlink:title="GPUTPCRow.h">
<polygon fill="none" stroke="#000000" points="942.5,-280.5 942.5,-299.5 1027.5,-299.5 1027.5,-280.5 942.5,-280.5"/>
<text text-anchor="middle" x="985" y="-287.5" font-family="Helvetica,sans-Serif" font-size="10.00" fill="#000000">GPUTPCRow.h</text>
</a>
</g>
</g>
<!-- Node19&#45;&gt;Node20 -->
<g id="edge23" class="edge">
<title>Node19&#45;&gt;Node20</title>
<path fill="none" stroke="#191970" d="M864.9264,-336.3733C888.6202,-327.2226 924.4511,-313.3844 950.8068,-303.2057"/>
<polygon fill="#191970" stroke="#191970" points="952.3314,-306.3689 960.3989,-299.5011 949.8094,-299.8389 952.3314,-306.3689"/>
</g>
<!-- Node22 -->
<g id="node23" class="node">
<title>Node22</title>
<g id="a_node23"><a xlink:href="../../d6/da2/GPUCommonMath_8h.html" target="_top" xlink:title="GPUCommonMath.h">
<polygon fill="none" stroke="#000000" points="383.5,-168.5 383.5,-187.5 498.5,-187.5 498.5,-168.5 383.5,-168.5"/>
<text text-anchor="middle" x="441" y="-175.5" font-family="Helvetica,sans-Serif" font-size="10.00" fill="#000000">GPUCommonMath.h</text>
</a>
</g>
</g>
<!-- Node19&#45;&gt;Node22 -->
<g id="edge27" class="edge">
<title>Node19&#45;&gt;Node22</title>
<path fill="none" stroke="#191970" d="M783.9091,-339.3535C712.3698,-328.7395 587.142,-302.8157 497,-244 478.0318,-231.6237 461.9877,-210.9434 451.9994,-196.0269"/>
<polygon fill="#191970" stroke="#191970" points="454.9413,-194.1306 446.5908,-187.6098 449.0522,-197.9148 454.9413,-194.1306"/>
</g>
<!-- Node19&#45;&gt;Node25 -->
<g id="edge31" class="edge">
<title>Node19&#45;&gt;Node25</title>
<path fill="none" stroke="#191970" d="M783.9171,-339.0208C694.918,-327.9454 522.8247,-306.5293 438.6924,-296.0595"/>
<polygon fill="#191970" stroke="#191970" points="438.9923,-292.5699 428.6366,-294.8081 438.1278,-299.5163 438.9923,-292.5699"/>
</g>
<!-- Node29 -->
<g id="node30" class="node">
<title>Node29</title>
<g id="a_node30"><a xlink:href="../../d5/da6/GPUMemoryResource_8h.html" target="_top" xlink:title="GPUMemoryResource.h">
<polygon fill="none" stroke="#000000" points="546.5,-224.5 546.5,-243.5 677.5,-243.5 677.5,-224.5 546.5,-224.5"/>
<text text-anchor="middle" x="612" y="-231.5" font-family="Helvetica,sans-Serif" font-size="10.00" fill="#000000">GPUMemoryResource.h</text>
</a>
</g>
</g>
<!-- Node19&#45;&gt;Node29 -->
<g id="edge41" class="edge">
<title>Node19&#45;&gt;Node29</title>
<path fill="none" stroke="#191970" d="M820.5608,-336.4509C780.2616,-316.6548 687.4564,-271.0663 640.4262,-247.9638"/>
<polygon fill="#191970" stroke="#191970" points="641.9087,-244.7925 631.3899,-243.5249 638.8223,-251.0754 641.9087,-244.7925"/>
</g>
<!-- Node20&#45;&gt;Node16 -->
<g id="edge24" class="edge">
<title>Node20&#45;&gt;Node16</title>
<path fill="none" stroke="#191970" d="M980.2719,-280.2537C974.4071,-266.6323 966.398,-241.5983 977,-224 986.0536,-208.9718 1001.8423,-198.5985 1017.5061,-191.5638"/>
<polygon fill="#191970" stroke="#191970" points="1019.2528,-194.6308 1027.1816,-187.6034 1016.601,-188.1525 1019.2528,-194.6308"/>
</g>
<!-- Node21 -->
<g id="node22" class="node">
<title>Node21</title>
<g id="a_node22"><a xlink:href="../../d3/da7/GPUTPCGrid_8h.html" target="_top" xlink:title="GPUTPCGrid.h">
<polygon fill="none" stroke="#000000" points="986,-224.5 986,-243.5 1072,-243.5 1072,-224.5 986,-224.5"/>
<text text-anchor="middle" x="1029" y="-231.5" font-family="Helvetica,sans-Serif" font-size="10.00" fill="#000000">GPUTPCGrid.h</text>
</a>
</g>
</g>
<!-- Node20&#45;&gt;Node21 -->
<g id="edge25" class="edge">
<title>Node20&#45;&gt;Node21</title>
<path fill="none" stroke="#191970" d="M992.6642,-280.2455C998.8473,-272.3761 1007.7063,-261.101 1015.1289,-251.6542"/>
<polygon fill="#191970" stroke="#191970" points="1017.9975,-253.6683 1021.4236,-243.6427 1012.4932,-249.3435 1017.9975,-253.6683"/>
</g>
<!-- Node21&#45;&gt;Node16 -->
<g id="edge26" class="edge">
<title>Node21&#45;&gt;Node16</title>
<path fill="none" stroke="#191970" d="M1035.0965,-224.2455C1039.9145,-216.5367 1046.7751,-205.5598 1052.6032,-196.2348"/>
<polygon fill="#191970" stroke="#191970" points="1055.6413,-197.9777 1057.9733,-187.6427 1049.7053,-194.2677 1055.6413,-197.9777"/>
</g>
<!-- Node22&#45;&gt;Node3 -->
<g id="edge28" class="edge">
<title>Node22&#45;&gt;Node3</title>
<path fill="none" stroke="#191970" d="M440.3827,-168.4003C439.0262,-154.5037 434.707,-128.6304 421,-112 408.9184,-97.3416 390.9215,-86.7392 374.426,-79.4345"/>
<polygon fill="#191970" stroke="#191970" points="375.5216,-76.1001 364.9432,-75.509 372.8441,-82.5678 375.5216,-76.1001"/>
</g>
<!-- Node23 -->
<g id="node24" class="node">
<title>Node23</title>
<polygon fill="none" stroke="#bfbfbf" points="365.5,-112.5 365.5,-131.5 412.5,-131.5 412.5,-112.5 365.5,-112.5"/>
<text text-anchor="middle" x="389" y="-119.5" font-family="Helvetica,sans-Serif" font-size="10.00" fill="#000000">cmath</text>
</g>
<!-- Node22&#45;&gt;Node23 -->
<g id="edge29" class="edge">
<title>Node22&#45;&gt;Node23</title>
<path fill="none" stroke="#191970" d="M431.9423,-168.2455C424.4858,-160.2155 413.7366,-148.6394 404.8583,-139.0781"/>
<polygon fill="#191970" stroke="#191970" points="407.3232,-136.589 397.9539,-131.6427 402.1937,-141.3522 407.3232,-136.589"/>
</g>
<!-- Node24 -->
<g id="node25" class="node">
<title>Node24</title>
<polygon fill="none" stroke="#bfbfbf" points="470,-112.5 470,-131.5 534,-131.5 534,-112.5 470,-112.5"/>
<text text-anchor="middle" x="502" y="-119.5" font-family="Helvetica,sans-Serif" font-size="10.00" fill="#000000">algorithm</text>
</g>
<!-- Node22&#45;&gt;Node24 -->
<g id="edge30" class="edge">
<title>Node22&#45;&gt;Node24</title>
<path fill="none" stroke="#191970" d="M451.6254,-168.2455C460.5473,-160.0549 473.488,-148.1749 484.0192,-138.5069"/>
<polygon fill="#191970" stroke="#191970" points="486.4968,-140.9837 491.4964,-131.6427 481.7629,-135.8271 486.4968,-140.9837"/>
</g>
<!-- Node25&#45;&gt;Node2 -->
<g id="edge34" class="edge">
<title>Node25&#45;&gt;Node2</title>
<path fill="none" stroke="#191970" d="M428.6078,-286.5545C504.8456,-279.3908 668.937,-262.0479 687,-244 713.9347,-217.0878 712.6393,-168.7877 709.3216,-141.7358"/>
<polygon fill="#191970" stroke="#191970" points="712.7465,-140.964 707.8523,-131.5674 705.8184,-141.9652 712.7465,-140.964"/>
</g>
<!-- Node25&#45;&gt;Node3 -->
<g id="edge32" class="edge">
<title>Node25&#45;&gt;Node3</title>
<path fill="none" stroke="#191970" d="M351.326,-282.0811C326.5843,-275.3871 295.1011,-263.6514 273,-244 251.8995,-225.2383 249.8734,-215.386 243,-188 240.8361,-179.3785 239.7776,-176.2842 243,-168 250.8686,-147.7714 261.5019,-148.1529 276,-132 290.5433,-115.7967 306.8996,-97.1445 318.5261,-83.8114"/>
<polygon fill="#191970" stroke="#191970" points="321.4901,-85.7372 325.4168,-75.8969 316.2106,-81.1407 321.4901,-85.7372"/>
</g>
<!-- Node25&#45;&gt;Node22 -->
<g id="edge33" class="edge">
<title>Node25&#45;&gt;Node22</title>
<path fill="none" stroke="#191970" d="M394.3482,-280.4509C402.7791,-261.936 421.4838,-220.8591 432.4763,-196.7187"/>
<polygon fill="#191970" stroke="#191970" points="435.7039,-198.0762 436.6628,-187.5249 429.3333,-195.1753 435.7039,-198.0762"/>
</g>
<!-- Node26 -->
<g id="node27" class="node">
<title>Node26</title>
<g id="a_node27"><a xlink:href="../../dd/dc6/GPUSettings_8h.html" target="_top" xlink:title="GPUSettings.h">
<polygon fill="none" stroke="#000000" points="290,-224.5 290,-243.5 376,-243.5 376,-224.5 290,-224.5"/>
<text text-anchor="middle" x="333" y="-231.5" font-family="Helvetica,sans-Serif" font-size="10.00" fill="#000000">GPUSettings.h</text>
</a>
</g>
</g>
<!-- Node25&#45;&gt;Node26 -->
<g id="edge35" class="edge">
<title>Node25&#45;&gt;Node26</title>
<path fill="none" stroke="#191970" d="M380.0714,-280.2455C371.8162,-272.1352 359.8791,-260.4075 350.0918,-250.7919"/>
<polygon fill="#191970" stroke="#191970" points="352.4011,-248.1542 342.8149,-243.6427 347.4954,-253.1476 352.4011,-248.1542"/>
</g>
<!-- Node27 -->
<g id="node28" class="node">
<title>Node27</title>
<g id="a_node28"><a xlink:href="../../d6/d1b/GPUTPCGeometry_8h.html" target="_top" xlink:title="GPUTPCGeometry.h">
<polygon fill="none" stroke="#000000" points="252.5,-168.5 252.5,-187.5 365.5,-187.5 365.5,-168.5 252.5,-168.5"/>
<text text-anchor="middle" x="309" y="-175.5" font-family="Helvetica,sans-Serif" font-size="10.00" fill="#000000">GPUTPCGeometry.h</text>
</a>
</g>
</g>
<!-- Node25&#45;&gt;Node27 -->
<g id="edge37" class="edge">
<title>Node25&#45;&gt;Node27</title>
<path fill="none" stroke="#191970" d="M351.3223,-284.6223C326.6786,-278.9742 296.5556,-267.4489 281,-244 270.8574,-228.7109 281.6786,-209.1465 292.6843,-195.2993"/>
<polygon fill="#191970" stroke="#191970" points="295.5168,-197.3731 299.3749,-187.5057 290.2055,-192.8135 295.5168,-197.3731"/>
</g>
<!-- Node28 -->
<g id="node29" class="node">
<title>Node28</title>
<g id="a_node29"><a xlink:href="../../d9/d9c/GPUTPCGMPolynomialField_8h.html" target="_top" xlink:title="GPUTPCGMPolynomialField.h">
<polygon fill="none" stroke="#000000" points="734,-224.5 734,-243.5 892,-243.5 892,-224.5 734,-224.5"/>
<text text-anchor="middle" x="813" y="-231.5" font-family="Helvetica,sans-Serif" font-size="10.00" fill="#000000">GPUTPCGMPolynomialField.h</text>
</a>
</g>
</g>
<!-- Node25&#45;&gt;Node28 -->
<g id="edge39" class="edge">
<title>Node25&#45;&gt;Node28</title>
<path fill="none" stroke="#191970" d="M428.6598,-284.8819C496.8733,-275.8513 639.976,-256.9062 731.017,-244.8535"/>
<polygon fill="#191970" stroke="#191970" points="731.5754,-248.3102 741.0295,-243.528 730.6566,-241.3708 731.5754,-248.3102"/>
</g>
<!-- Node26&#45;&gt;Node22 -->
<g id="edge36" class="edge">
<title>Node26&#45;&gt;Node22</title>
<path fill="none" stroke="#191970" d="M351.8122,-224.2455C368.8473,-215.4125 394.1575,-202.2887 413.4681,-192.2758"/>
<polygon fill="#191970" stroke="#191970" points="415.137,-195.353 422.4034,-187.6427 411.9147,-189.1388 415.137,-195.353"/>
</g>
<!-- Node27&#45;&gt;Node3 -->
<g id="edge38" class="edge">
<title>Node27&#45;&gt;Node3</title>
<path fill="none" stroke="#191970" d="M311.1315,-168.4509C315.2274,-150.1013 324.2699,-109.5908 329.6765,-85.3693"/>
<polygon fill="#191970" stroke="#191970" points="333.1112,-86.0472 331.8739,-75.5249 326.2794,-84.5222 333.1112,-86.0472"/>
</g>
<!-- Node28&#45;&gt;Node16 -->
<g id="edge40" class="edge">
<title>Node28&#45;&gt;Node16</title>
<path fill="none" stroke="#191970" d="M855.8632,-224.4369C899.432,-214.7164 966.9203,-199.6592 1013.1614,-189.3425"/>
<polygon fill="#191970" stroke="#191970" points="1013.9814,-192.7457 1022.9793,-187.152 1012.4571,-185.9136 1013.9814,-192.7457"/>
</g>
<!-- Node29&#45;&gt;Node3 -->
<g id="edge42" class="edge">
<title>Node29&#45;&gt;Node3</title>
<path fill="none" stroke="#191970" d="M615.612,-224.1938C619.9009,-210.9316 625.5789,-186.7781 618,-168 605.0595,-135.9376 594.3347,-128.5911 564,-112 535.8999,-96.6311 455.4905,-82.7812 397.6671,-74.3865"/>
<polygon fill="#191970" stroke="#191970" points="397.907,-70.8852 387.5122,-72.9342 396.916,-77.8147 397.907,-70.8852"/>
</g>
<!-- Node29&#45;&gt;Node30 -->
<g id="edge43" class="edge">
<title>Node29&#45;&gt;Node30</title>
<path fill="none" stroke="#191970" d="M603.4649,-224.2455C596.5088,-216.2958 586.5117,-204.8706 578.1949,-195.3656"/>
<polygon fill="#191970" stroke="#191970" points="580.6564,-192.8637 571.4373,-187.6427 575.3884,-197.4732 580.6564,-192.8637"/>
</g>
<!-- Node30&#45;&gt;Node2 -->
<g id="edge45" class="edge">
<title>Node30&#45;&gt;Node2</title>
<path fill="none" stroke="#191970" d="M587.5826,-168.3733C610.9496,-159.2226 646.2862,-145.3844 672.2784,-135.2057"/>
<polygon fill="#191970" stroke="#191970" points="673.703,-138.4066 681.7382,-131.5011 671.1505,-131.8886 673.703,-138.4066"/>
</g>
<!-- Node30&#45;&gt;Node3 -->
<g id="edge44" class="edge">
<title>Node30&#45;&gt;Node3</title>
<path fill="none" stroke="#191970" d="M562.962,-168.3536C562.3554,-153.9142 558.9943,-126.7991 543,-112 522.1202,-92.6806 451.4386,-80.0147 398.0056,-72.955"/>
<polygon fill="#191970" stroke="#191970" points="398.2715,-69.4605 387.9074,-71.6596 397.3808,-76.4036 398.2715,-69.4605"/>
</g>
<!-- Node30&#45;&gt;Node13 -->
<g id="edge46" class="edge">
<title>Node30&#45;&gt;Node13</title>
<path fill="none" stroke="#191970" d="M516.2525,-169.6325C513.1216,-169.0782 510.0153,-168.5299 507,-168 425.1673,-153.6179 329.106,-137.0946 277.7695,-128.2932"/>
<polygon fill="#191970" stroke="#191970" points="278.2629,-124.8268 267.8154,-126.5873 277.0805,-131.7263 278.2629,-124.8268"/>
</g>
<!-- Node30&#45;&gt;Node24 -->
<g id="edge47" class="edge">
<title>Node30&#45;&gt;Node24</title>
<path fill="none" stroke="#191970" d="M552.3746,-168.2455C543.4527,-160.0549 530.512,-148.1749 519.9808,-138.5069"/>
<polygon fill="#191970" stroke="#191970" points="522.2371,-135.8271 512.5036,-131.6427 517.5032,-140.9837 522.2371,-135.8271"/>
</g>
<!-- Node31&#45;&gt;Node16 -->
<g id="edge51" class="edge">
<title>Node31&#45;&gt;Node16</title>
<path fill="none" stroke="#191970" d="M1103.3338,-280.4509C1096.2572,-262.0186 1080.5955,-221.2254 1071.3112,-197.043"/>
<polygon fill="#191970" stroke="#191970" points="1074.5086,-195.606 1067.6569,-187.5249 1067.9737,-198.115 1074.5086,-195.606"/>
</g>
<!-- Node31&#45;&gt;Node22 -->
<g id="edge52" class="edge">
<title>Node31&#45;&gt;Node22</title>
<path fill="none" stroke="#191970" d="M1045.9482,-281.0216C1042.9249,-280.6576 1039.9295,-280.3143 1037,-280 926.237,-268.1156 642.1296,-280.8434 537,-244 506.6542,-233.3651 476.9744,-210.4845 458.8373,-194.6698"/>
<polygon fill="#191970" stroke="#191970" points="460.6898,-191.6298 450.9084,-187.5584 456.0159,-196.8409 460.6898,-191.6298"/>
</g>
<!-- Node32 -->
<g id="node33" class="node">
<title>Node32</title>
<g id="a_node33"><a xlink:href="../../df/d00/GPUTPCBaseTrackParam_8h.html" target="_top" xlink:title="GPUTPCBaseTrackParam.h">
<polygon fill="none" stroke="#000000" points="1128,-224.5 1128,-243.5 1274,-243.5 1274,-224.5 1128,-224.5"/>
<text text-anchor="middle" x="1201" y="-231.5" font-family="Helvetica,sans-Serif" font-size="10.00" fill="#000000">GPUTPCBaseTrackParam.h</text>
</a>
</g>
</g>
<!-- Node31&#45;&gt;Node32 -->
<g id="edge49" class="edge">
<title>Node31&#45;&gt;Node32</title>
<path fill="none" stroke="#191970" d="M1123.3736,-280.2455C1137.9308,-271.5731 1159.431,-258.7645 1176.1152,-248.825"/>
<polygon fill="#191970" stroke="#191970" points="1178.0144,-251.7676 1184.8141,-243.6427 1174.4317,-245.7539 1178.0144,-251.7676"/>
</g>
<!-- Node32&#45;&gt;Node16 -->
<g id="edge50" class="edge">
<title>Node32&#45;&gt;Node16</title>
<path fill="none" stroke="#191970" d="M1177.4489,-224.3733C1155.1609,-215.2629 1121.5063,-201.5062 1096.6363,-191.3404"/>
<polygon fill="#191970" stroke="#191970" points="1097.8247,-188.0451 1087.2438,-187.5011 1095.1761,-194.5247 1097.8247,-188.0451"/>
</g>
<!-- Node33&#45;&gt;Node16 -->
<g id="edge55" class="edge">
<title>Node33&#45;&gt;Node16</title>
<path fill="none" stroke="#191970" d="M1252.631,-280.4682C1271.0364,-267.3131 1298.4707,-243.0579 1283,-224 1262.2688,-198.462 1173.1451,-186.5824 1115.1768,-181.4658"/>
<polygon fill="#191970" stroke="#191970" points="1115.3525,-177.9683 1105.0938,-180.6159 1114.7644,-184.9436 1115.3525,-177.9683"/>
</g>
<!-- Node33&#45;&gt;Node32 -->
<g id="edge54" class="edge">
<title>Node33&#45;&gt;Node32</title>
<path fill="none" stroke="#191970" d="M1231.5551,-280.2455C1226.4618,-272.5367 1219.2092,-261.5598 1213.048,-252.2348"/>
<polygon fill="#191970" stroke="#191970" points="1215.8038,-250.0566 1207.3711,-243.6427 1209.9635,-253.9155 1215.8038,-250.0566"/>
</g>
<!-- Node34&#45;&gt;Node3 -->
<g id="edge60" class="edge">
<title>Node34&#45;&gt;Node3</title>
<path fill="none" stroke="#191970" d="M225.8617,-392.3839C212.7136,-373.6891 186,-330.6982 186,-290 186,-290 186,-290 186,-178 186,-147.4754 184.0978,-134.2452 205,-112 222.1671,-93.7299 247.0757,-82.7063 270.4369,-76.0593"/>
<polygon fill="#191970" stroke="#191970" points="271.5395,-79.3887 280.3271,-73.4702 269.7666,-72.6169 271.5395,-79.3887"/>
</g>
<!-- Node35&#45;&gt;Node3 -->
<g id="edge62" class="edge">
<title>Node35&#45;&gt;Node3</title>
<path fill="none" stroke="#191970" d="M55.1702,-224.3368C49.1538,-210.8142 40.8299,-185.8968 51,-168 75.0261,-125.7201 99.9854,-130.3991 145,-112 185.1458,-95.591 232.5772,-84.0689 269.8809,-76.6602"/>
<polygon fill="#191970" stroke="#191970" points="270.9665,-80.0151 280.1195,-74.679 269.6366,-73.1426 270.9665,-80.0151"/>
</g>
<!-- Node35&#45;&gt;Node12 -->
<g id="edge63" class="edge">
<title>Node35&#45;&gt;Node12</title>
<path fill="none" stroke="#191970" d="M68.5351,-224.2455C75.4912,-216.2958 85.4883,-204.8706 93.8051,-195.3656"/>
<polygon fill="#191970" stroke="#191970" points="96.6116,-197.4732 100.5627,-187.6427 91.3436,-192.8637 96.6116,-197.4732"/>
</g>
<!-- Node36&#45;&gt;Node1 -->
<g id="edge66" class="edge">
<title>Node36&#45;&gt;Node1</title>
<path fill="none" stroke="#191970" d="M1509.1039,-280.2455C1494.082,-271.5731 1471.8957,-258.7645 1454.679,-248.825"/>
<polygon fill="#191970" stroke="#191970" points="1456.1128,-245.6114 1445.7025,-243.6427 1452.6129,-251.6737 1456.1128,-245.6114"/>
</g>
<!-- Node36&#45;&gt;Node16 -->
<g id="edge65" class="edge">
<title>Node36&#45;&gt;Node16</title>
<path fill="none" stroke="#191970" d="M1525.0532,-280.0346C1523.0643,-265.1785 1517.0198,-237.5265 1499,-224 1468.8462,-201.3651 1223.694,-186.1658 1115.2629,-180.4873"/>
<polygon fill="#191970" stroke="#191970" points="1115.3756,-176.9886 1105.2082,-179.9676 1115.0141,-183.9793 1115.3756,-176.9886"/>
</g>
</g>
</svg>
