<?xml version="1.0" encoding="UTF-8" standalone="no"?>
<!DOCTYPE svg PUBLIC "-//W3C//DTD SVG 1.1//EN"
 "http://www.w3.org/Graphics/SVG/1.1/DTD/svg11.dtd">
<!-- Generated by graphviz version 2.40.1 (20161225.0304)
 -->
<!-- Title: o2::itsmft::MFTDPLDigitWriter Pages: 1 -->
<svg width="901pt" height="1091pt"
 viewBox="0.00 0.00 901.18 1091.00" xmlns="http://www.w3.org/2000/svg" xmlns:xlink="http://www.w3.org/1999/xlink">
<g id="graph0" class="graph" transform="scale(1 1) rotate(0) translate(4 1087)">
<title>o2::itsmft::MFTDPLDigitWriter</title>
<!-- Node2 -->
<g id="node1" class="node">
<title>Node2</title>
<polygon fill="#bfbfbf" stroke="#000000" points="720.6842,-.5 720.6842,-57.5 881.6842,-57.5 881.6842,-.5 720.6842,-.5"/>
<text text-anchor="middle" x="801.1842" y="-45.5" font-family="Helvetica,sans-Serif" font-size="10.00" fill="#000000">o2::itsmft::MFTDPLDigitWriter</text>
<polyline fill="none" stroke="#000000" points="720.6842,-38.5 881.6842,-38.5 "/>
<text text-anchor="middle" x="801.1842" y="-26.5" font-family="Helvetica,sans-Serif" font-size="10.00" fill="#000000"> </text>
<polyline fill="none" stroke="#000000" points="720.6842,-19.5 881.6842,-19.5 "/>
<text text-anchor="start" x="728.6842" y="-7.5" font-family="Helvetica,sans-Serif" font-size="10.00" fill="#000000">+ MFTDPLDigitWriter()</text>
</g>
<!-- Node3 -->
<g id="node2" class="node">
<title>Node3</title>
<g id="a_node2"><a xlink:href="../../da/dc9/classo2_1_1itsmft_1_1ITSMFTDPLDigitWriter.html" target="_top" xlink:title="{o2::itsmft::ITSMFTDPLDigit\lWriter\n||+ init()\l+ run()\l# ITSMFTDPLDigitWriter()\l# fillBranch()\l}">
<polygon fill="none" stroke="#000000" points="352.1842,-105.5 352.1842,-206.5 498.1842,-206.5 498.1842,-105.5 352.1842,-105.5"/>
<text text-anchor="start" x="360.1842" y="-194.5" font-family="Helvetica,sans-Serif" font-size="10.00" fill="#000000">o2::itsmft::ITSMFTDPLDigit</text>
<text text-anchor="middle" x="425.1842" y="-183.5" font-family="Helvetica,sans-Serif" font-size="10.00" fill="#000000">Writer</text>
<polyline fill="none" stroke="#000000" points="352.1842,-176.5 498.1842,-176.5 "/>
<text text-anchor="middle" x="425.1842" y="-164.5" font-family="Helvetica,sans-Serif" font-size="10.00" fill="#000000"> </text>
<polyline fill="none" stroke="#000000" points="352.1842,-157.5 498.1842,-157.5 "/>
<text text-anchor="start" x="360.1842" y="-145.5" font-family="Helvetica,sans-Serif" font-size="10.00" fill="#000000">+ init()</text>
<text text-anchor="start" x="360.1842" y="-134.5" font-family="Helvetica,sans-Serif" font-size="10.00" fill="#000000">+ run()</text>
<text text-anchor="start" x="360.1842" y="-123.5" font-family="Helvetica,sans-Serif" font-size="10.00" fill="#000000"># ITSMFTDPLDigitWriter()</text>
<text text-anchor="start" x="360.1842" y="-112.5" font-family="Helvetica,sans-Serif" font-size="10.00" fill="#000000"># fillBranch()</text>
</a>
</g>
</g>
<!-- Node3&#45;&gt;Node2 -->
<g id="edge1" class="edge">
<title>Node3&#45;&gt;Node2</title>
<path fill="none" stroke="#191970" d="M508.1155,-127.9886C571.3152,-106.6419 657.8494,-77.4136 720.4894,-56.256"/>
<polygon fill="none" stroke="#191970" points="506.9275,-124.6956 498.5734,-131.2116 509.1676,-131.3275 506.9275,-124.6956"/>
</g>
<!-- Node4 -->
<g id="node3" class="node">
<title>Node4</title>
<polygon fill="none" stroke="#bfbfbf" points="511.1842,-392 511.1842,-460 617.1842,-460 617.1842,-392 511.1842,-392"/>
<text text-anchor="start" x="519.1842" y="-448" font-family="Helvetica,sans-Serif" font-size="10.00" fill="#000000">vector&lt; o2::itsmft</text>
<text text-anchor="middle" x="564.1842" y="-437" font-family="Helvetica,sans-Serif" font-size="10.00" fill="#000000">::Digit &gt;</text>
<polyline fill="none" stroke="#bfbfbf" points="511.1842,-430 617.1842,-430 "/>
<text text-anchor="middle" x="564.1842" y="-418" font-family="Helvetica,sans-Serif" font-size="10.00" fill="#000000"> </text>
<polyline fill="none" stroke="#bfbfbf" points="511.1842,-411 617.1842,-411 "/>
<text text-anchor="middle" x="564.1842" y="-399" font-family="Helvetica,sans-Serif" font-size="10.00" fill="#000000"> </text>
</g>
<!-- Node4&#45;&gt;Node3 -->
<g id="edge2" class="edge">
<title>Node4&#45;&gt;Node3</title>
<path fill="none" stroke="#404040" d="M569.6877,-391.6576C574.6481,-349.0114 576.8479,-275.7075 544.1842,-225 535.2345,-211.1063 522.4275,-199.682 508.5026,-190.4073"/>
<polygon fill="none" stroke="#404040" points="508.4065,-190.3479 501.1994,-190.5892 498.2047,-184.0293 505.4118,-183.788 508.4065,-190.3479"/>
<text text-anchor="middle" x="580.1842" y="-233.5" font-family="Helvetica,sans-Serif" font-size="10.00" fill="#000000"> #mDigits</text>
</g>
<!-- Node5 -->
<g id="node4" class="node">
<title>Node5</title>
<g id="a_node4"><a xlink:href="../../d9/db3/structo2_1_1header_1_1Descriptor.html" target="_top" xlink:title="{o2::header::Descriptor\l\&lt; gSizeDataOriginString,\l printDataOrigin \&gt;\n||+ Descriptor()\l+ Descriptor()\l+ Descriptor()\l+ Descriptor()\l+ operator=()\l+ operator ItgType()\l+ runtimeInit()\l+ operator==()\l+ operator==()\l+ operator\&lt;()\l+ operator!=()\l+ operator!=()\l+ as()\l+ print()\l}">
<polygon fill="none" stroke="#000000" points="635.1842,-315 635.1842,-537 773.1842,-537 773.1842,-315 635.1842,-315"/>
<text text-anchor="start" x="643.1842" y="-525" font-family="Helvetica,sans-Serif" font-size="10.00" fill="#000000">o2::header::Descriptor</text>
<text text-anchor="start" x="643.1842" y="-514" font-family="Helvetica,sans-Serif" font-size="10.00" fill="#000000">&lt; gSizeDataOriginString,</text>
<text text-anchor="middle" x="704.1842" y="-503" font-family="Helvetica,sans-Serif" font-size="10.00" fill="#000000"> printDataOrigin &gt;</text>
<polyline fill="none" stroke="#000000" points="635.1842,-496 773.1842,-496 "/>
<text text-anchor="middle" x="704.1842" y="-484" font-family="Helvetica,sans-Serif" font-size="10.00" fill="#000000"> </text>
<polyline fill="none" stroke="#000000" points="635.1842,-477 773.1842,-477 "/>
<text text-anchor="start" x="643.1842" y="-465" font-family="Helvetica,sans-Serif" font-size="10.00" fill="#000000">+ Descriptor()</text>
<text text-anchor="start" x="643.1842" y="-454" font-family="Helvetica,sans-Serif" font-size="10.00" fill="#000000">+ Descriptor()</text>
<text text-anchor="start" x="643.1842" y="-443" font-family="Helvetica,sans-Serif" font-size="10.00" fill="#000000">+ Descriptor()</text>
<text text-anchor="start" x="643.1842" y="-432" font-family="Helvetica,sans-Serif" font-size="10.00" fill="#000000">+ Descriptor()</text>
<text text-anchor="start" x="643.1842" y="-421" font-family="Helvetica,sans-Serif" font-size="10.00" fill="#000000">+ operator=()</text>
<text text-anchor="start" x="643.1842" y="-410" font-family="Helvetica,sans-Serif" font-size="10.00" fill="#000000">+ operator ItgType()</text>
<text text-anchor="start" x="643.1842" y="-399" font-family="Helvetica,sans-Serif" font-size="10.00" fill="#000000">+ runtimeInit()</text>
<text text-anchor="start" x="643.1842" y="-388" font-family="Helvetica,sans-Serif" font-size="10.00" fill="#000000">+ operator==()</text>
<text text-anchor="start" x="643.1842" y="-377" font-family="Helvetica,sans-Serif" font-size="10.00" fill="#000000">+ operator==()</text>
<text text-anchor="start" x="643.1842" y="-366" font-family="Helvetica,sans-Serif" font-size="10.00" fill="#000000">+ operator&lt;()</text>
<text text-anchor="start" x="643.1842" y="-355" font-family="Helvetica,sans-Serif" font-size="10.00" fill="#000000">+ operator!=()</text>
<text text-anchor="start" x="643.1842" y="-344" font-family="Helvetica,sans-Serif" font-size="10.00" fill="#000000">+ operator!=()</text>
<text text-anchor="start" x="643.1842" y="-333" font-family="Helvetica,sans-Serif" font-size="10.00" fill="#000000">+ as()</text>
<text text-anchor="start" x="643.1842" y="-322" font-family="Helvetica,sans-Serif" font-size="10.00" fill="#000000">+ print()</text>
</a>
</g>
</g>
<!-- Node5&#45;&gt;Node3 -->
<g id="edge3" class="edge">
<title>Node5&#45;&gt;Node3</title>
<path fill="none" stroke="#404040" d="M669.808,-314.8736C655.3531,-282.4842 635.5942,-249.3103 609.1842,-225 581.7905,-199.7841 544.314,-183.5278 510.3296,-173.1747"/>
<polygon fill="none" stroke="#404040" points="510.0063,-173.0814 503.1324,-175.2608 498.4769,-169.7538 505.3508,-167.5745 510.0063,-173.0814"/>
<text text-anchor="middle" x="655.6842" y="-233.5" font-family="Helvetica,sans-Serif" font-size="10.00" fill="#000000"> #mOrigin</text>
</g>
<!-- Node6 -->
<g id="node5" class="node">
<title>Node6</title>
<polygon fill="none" stroke="#bfbfbf" points="844.6842,-1025.5 844.6842,-1082.5 883.6842,-1082.5 883.6842,-1025.5 844.6842,-1025.5"/>
<text text-anchor="middle" x="864.1842" y="-1070.5" font-family="Helvetica,sans-Serif" font-size="10.00" fill="#000000">Type</text>
<polyline fill="none" stroke="#bfbfbf" points="844.6842,-1063.5 883.6842,-1063.5 "/>
<text text-anchor="middle" x="864.1842" y="-1051.5" font-family="Helvetica,sans-Serif" font-size="10.00" fill="#000000"> </text>
<polyline fill="none" stroke="#bfbfbf" points="844.6842,-1044.5 883.6842,-1044.5 "/>
<text text-anchor="middle" x="864.1842" y="-1032.5" font-family="Helvetica,sans-Serif" font-size="10.00" fill="#000000"> </text>
</g>
<!-- Node6&#45;&gt;Node5 -->
<g id="edge4" class="edge">
<title>Node6&#45;&gt;Node5</title>
<path fill="none" stroke="#404040" d="M866.2309,-1025.4117C870.385,-952.3921 874.866,-754.2594 815.1842,-605 805.691,-581.2582 793.1022,-557.1313 779.8173,-534.6011"/>
<polygon fill="none" stroke="#404040" points="779.6429,-534.3108 773.124,-531.2279 773.4625,-524.0247 779.9814,-527.1076 779.6429,-534.3108"/>
<text text-anchor="middle" x="880.6842" y="-847.5" font-family="Helvetica,sans-Serif" font-size="10.00" fill="#000000"> +itg</text>
</g>
<!-- Node10 -->
<g id="node9" class="node">
<title>Node10</title>
<g id="a_node9"><a xlink:href="../../d9/db3/structo2_1_1header_1_1Descriptor.html" target="_top" xlink:title="{o2::header::Descriptor\l\&lt; N, PrinterPolicy \&gt;\n||+ Descriptor()\l+ Descriptor()\l+ Descriptor()\l+ operator=()\l+ operator ItgType()\l+ Descriptor()\l+ runtimeInit()\l+ operator==()\l+ operator\&lt;()\l+ operator!=()\l+ operator==()\l+ operator!=()\l+ as()\l+ print()\l}">
<polygon fill="none" stroke="#000000" points="642.6842,-744.5 642.6842,-955.5 767.6842,-955.5 767.6842,-744.5 642.6842,-744.5"/>
<text text-anchor="start" x="650.6842" y="-943.5" font-family="Helvetica,sans-Serif" font-size="10.00" fill="#000000">o2::header::Descriptor</text>
<text text-anchor="middle" x="705.1842" y="-932.5" font-family="Helvetica,sans-Serif" font-size="10.00" fill="#000000">&lt; N, PrinterPolicy &gt;</text>
<polyline fill="none" stroke="#000000" points="642.6842,-925.5 767.6842,-925.5 "/>
<text text-anchor="middle" x="705.1842" y="-913.5" font-family="Helvetica,sans-Serif" font-size="10.00" fill="#000000"> </text>
<polyline fill="none" stroke="#000000" points="642.6842,-906.5 767.6842,-906.5 "/>
<text text-anchor="start" x="650.6842" y="-894.5" font-family="Helvetica,sans-Serif" font-size="10.00" fill="#000000">+ Descriptor()</text>
<text text-anchor="start" x="650.6842" y="-883.5" font-family="Helvetica,sans-Serif" font-size="10.00" fill="#000000">+ Descriptor()</text>
<text text-anchor="start" x="650.6842" y="-872.5" font-family="Helvetica,sans-Serif" font-size="10.00" fill="#000000">+ Descriptor()</text>
<text text-anchor="start" x="650.6842" y="-861.5" font-family="Helvetica,sans-Serif" font-size="10.00" fill="#000000">+ operator=()</text>
<text text-anchor="start" x="650.6842" y="-850.5" font-family="Helvetica,sans-Serif" font-size="10.00" fill="#000000">+ operator ItgType()</text>
<text text-anchor="start" x="650.6842" y="-839.5" font-family="Helvetica,sans-Serif" font-size="10.00" fill="#000000">+ Descriptor()</text>
<text text-anchor="start" x="650.6842" y="-828.5" font-family="Helvetica,sans-Serif" font-size="10.00" fill="#000000">+ runtimeInit()</text>
<text text-anchor="start" x="650.6842" y="-817.5" font-family="Helvetica,sans-Serif" font-size="10.00" fill="#000000">+ operator==()</text>
<text text-anchor="start" x="650.6842" y="-806.5" font-family="Helvetica,sans-Serif" font-size="10.00" fill="#000000">+ operator&lt;()</text>
<text text-anchor="start" x="650.6842" y="-795.5" font-family="Helvetica,sans-Serif" font-size="10.00" fill="#000000">+ operator!=()</text>
<text text-anchor="start" x="650.6842" y="-784.5" font-family="Helvetica,sans-Serif" font-size="10.00" fill="#000000">+ operator==()</text>
<text text-anchor="start" x="650.6842" y="-773.5" font-family="Helvetica,sans-Serif" font-size="10.00" fill="#000000">+ operator!=()</text>
<text text-anchor="start" x="650.6842" y="-762.5" font-family="Helvetica,sans-Serif" font-size="10.00" fill="#000000">+ as()</text>
<text text-anchor="start" x="650.6842" y="-751.5" font-family="Helvetica,sans-Serif" font-size="10.00" fill="#000000">+ print()</text>
</a>
</g>
</g>
<!-- Node6&#45;&gt;Node10 -->
<g id="edge9" class="edge">
<title>Node6&#45;&gt;Node10</title>
<path fill="none" stroke="#404040" d="M844.3683,-1028.5757C826.9416,-1006.2169 800.4982,-972.2896 775.3244,-939.9911"/>
<polygon fill="none" stroke="#404040" points="775.2934,-939.9514 768.45,-937.678 767.9165,-930.4866 774.7599,-932.76 775.2934,-939.9514"/>
<text text-anchor="middle" x="837.6842" y="-988" font-family="Helvetica,sans-Serif" font-size="10.00" fill="#000000"> +itg</text>
</g>
<!-- Node7 -->
<g id="node6" class="node">
<title>Node7</title>
<polygon fill="none" stroke="#bfbfbf" points="742.1842,-1025.5 742.1842,-1082.5 780.1842,-1082.5 780.1842,-1025.5 742.1842,-1025.5"/>
<text text-anchor="middle" x="761.1842" y="-1070.5" font-family="Helvetica,sans-Serif" font-size="10.00" fill="#000000">char</text>
<polyline fill="none" stroke="#bfbfbf" points="742.1842,-1063.5 780.1842,-1063.5 "/>
<text text-anchor="middle" x="761.1842" y="-1051.5" font-family="Helvetica,sans-Serif" font-size="10.00" fill="#000000"> </text>
<polyline fill="none" stroke="#bfbfbf" points="742.1842,-1044.5 780.1842,-1044.5 "/>
<text text-anchor="middle" x="761.1842" y="-1032.5" font-family="Helvetica,sans-Serif" font-size="10.00" fill="#000000"> </text>
</g>
<!-- Node7&#45;&gt;Node5 -->
<g id="edge5" class="edge">
<title>Node7&#45;&gt;Node5</title>
<path fill="none" stroke="#404040" d="M780.2211,-1042.4036C791.833,-1034.1437 805.6588,-1021.8876 812.1842,-1007 818.0721,-993.5671 812.6011,-988.6607 812.1842,-974 807.5157,-809.801 832.5607,-763.9689 791.1842,-605 786.26,-586.0812 779.2629,-566.7816 771.3497,-548.1936"/>
<polygon fill="none" stroke="#404040" points="771.2744,-548.0217 765.2013,-544.1335 766.4547,-537.0321 772.5277,-540.9203 771.2744,-548.0217"/>
<text text-anchor="middle" x="827.6842" y="-847.5" font-family="Helvetica,sans-Serif" font-size="10.00" fill="#000000"> +str</text>
</g>
<!-- Node7&#45;&gt;Node10 -->
<g id="edge10" class="edge">
<title>Node7&#45;&gt;Node10</title>
<path fill="none" stroke="#404040" d="M746.5273,-1025.3357C743.8332,-1019.3749 741.23,-1013.0607 739.1842,-1007 734.9072,-994.3288 731.0396,-980.8959 727.578,-967.4313"/>
<polygon fill="none" stroke="#404040" points="727.5342,-967.2548 722.2053,-962.3965 724.6404,-955.6089 729.9692,-960.4673 727.5342,-967.2548"/>
<text text-anchor="middle" x="751.6842" y="-988" font-family="Helvetica,sans-Serif" font-size="10.00" fill="#000000"> +str</text>
</g>
<!-- Node8 -->
<g id="node7" class="node">
<title>Node8</title>
<polygon fill="none" stroke="#bfbfbf" points="458.6842,-1025.5 458.6842,-1082.5 487.6842,-1082.5 487.6842,-1025.5 458.6842,-1025.5"/>
<text text-anchor="middle" x="473.1842" y="-1070.5" font-family="Helvetica,sans-Serif" font-size="10.00" fill="#000000">int</text>
<polyline fill="none" stroke="#bfbfbf" points="458.6842,-1063.5 487.6842,-1063.5 "/>
<text text-anchor="middle" x="473.1842" y="-1051.5" font-family="Helvetica,sans-Serif" font-size="10.00" fill="#000000"> </text>
<polyline fill="none" stroke="#bfbfbf" points="458.6842,-1044.5 487.6842,-1044.5 "/>
<text text-anchor="middle" x="473.1842" y="-1032.5" font-family="Helvetica,sans-Serif" font-size="10.00" fill="#000000"> </text>
</g>
<!-- Node8&#45;&gt;Node3 -->
<g id="edge17" class="edge">
<title>Node8&#45;&gt;Node3</title>
<path fill="none" stroke="#404040" d="M458.4845,-1052.3946C415.309,-1046.9463 287.2651,-1025.4477 213.1842,-956 81.8549,-832.8841 84.1493,-762.9648 46.1842,-587 16.002,-447.1078 -39.8971,-379.3276 46.1842,-265 81.5036,-218.0912 239.6406,-185.1086 340.1564,-168.4494"/>
<polygon fill="none" stroke="#404040" points="340.2731,-168.4305 345.551,-163.5169 352.1167,-166.4989 346.8388,-171.4126 340.2731,-168.4305"/>
<text text-anchor="middle" x="119.1842" y="-668.5" font-family="Helvetica,sans-Serif" font-size="10.00" fill="#000000"> #mTreeNameDig</text>
<text text-anchor="middle" x="119.1842" y="-657.5" font-family="Helvetica,sans-Serif" font-size="10.00" fill="#000000">#mFileName</text>
</g>
<!-- Node8&#45;&gt;Node5 -->
<g id="edge6" class="edge">
<title>Node8&#45;&gt;Node5</title>
<path fill="none" stroke="#404040" d="M474.0043,-1025.3691C476.3574,-969.6593 485.4201,-843.4285 520.1842,-744 543.7096,-676.7152 551.9249,-657.4569 600.1842,-605 609.6999,-594.6567 617.0422,-597.6749 626.1842,-587 636.3267,-575.1569 645.4908,-561.7672 653.6703,-547.8928"/>
<polygon fill="none" stroke="#404040" points="653.8118,-547.6435 653.2934,-540.451 659.7332,-537.2062 660.2516,-544.3987 653.8118,-547.6435"/>
<text text-anchor="middle" x="549.1842" y="-858.5" font-family="Helvetica,sans-Serif" font-size="10.00" fill="#000000"> +arraySize</text>
<text text-anchor="middle" x="549.1842" y="-847.5" font-family="Helvetica,sans-Serif" font-size="10.00" fill="#000000">+size</text>
<text text-anchor="middle" x="549.1842" y="-836.5" font-family="Helvetica,sans-Serif" font-size="10.00" fill="#000000">+bitcount</text>
</g>
<!-- Node8&#45;&gt;Node10 -->
<g id="edge11" class="edge">
<title>Node8&#45;&gt;Node10</title>
<path fill="none" stroke="#404040" d="M487.6873,-1044.475C512.6886,-1027.7892 565.0766,-991.6464 605.1842,-956 614.8122,-947.4429 624.566,-938.0968 634.0146,-928.6139"/>
<polygon fill="none" stroke="#404040" points="634.182,-928.4436 635.5352,-921.3606 642.5938,-919.8855 641.2407,-926.9685 634.182,-928.4436"/>
<text text-anchor="middle" x="610.1842" y="-999" font-family="Helvetica,sans-Serif" font-size="10.00" fill="#000000"> +arraySize</text>
<text text-anchor="middle" x="610.1842" y="-988" font-family="Helvetica,sans-Serif" font-size="10.00" fill="#000000">+size</text>
<text text-anchor="middle" x="610.1842" y="-977" font-family="Helvetica,sans-Serif" font-size="10.00" fill="#000000">+bitcount</text>
</g>
<!-- Node9 -->
<g id="node8" class="node">
<title>Node9</title>
<polygon fill="none" stroke="#bfbfbf" points="553.6842,-1025.5 553.6842,-1082.5 660.6842,-1082.5 660.6842,-1025.5 553.6842,-1025.5"/>
<text text-anchor="middle" x="607.1842" y="-1070.5" font-family="Helvetica,sans-Serif" font-size="10.00" fill="#000000">anonymous:+@38</text>
<polyline fill="none" stroke="#bfbfbf" points="553.6842,-1063.5 660.6842,-1063.5 "/>
<text text-anchor="middle" x="607.1842" y="-1051.5" font-family="Helvetica,sans-Serif" font-size="10.00" fill="#000000"> </text>
<polyline fill="none" stroke="#bfbfbf" points="553.6842,-1044.5 660.6842,-1044.5 "/>
<text text-anchor="middle" x="607.1842" y="-1032.5" font-family="Helvetica,sans-Serif" font-size="10.00" fill="#000000"> </text>
</g>
<!-- Node9&#45;&gt;Node5 -->
<g id="edge7" class="edge">
<title>Node9&#45;&gt;Node5</title>
<path fill="none" stroke="#404040" d="M588.4071,-1025.3754C585.4228,-1019.5161 582.7926,-1013.23 581.1842,-1007 577.5181,-992.7989 580.6116,-988.6555 581.1842,-974 585.1873,-871.5434 578.9635,-844.5212 599.1842,-744 612.4325,-678.1403 635.1122,-606.9494 656.0105,-548.6569"/>
<polygon fill="none" stroke="#404040" points="656.0815,-548.4604 654.3607,-541.4576 660.163,-537.1758 661.8838,-544.1786 656.0815,-548.4604"/>
<text text-anchor="middle" x="616.1842" y="-847.5" font-family="Helvetica,sans-Serif" font-size="10.00" fill="#000000"> +@38</text>
</g>
<!-- Node9&#45;&gt;Node10 -->
<g id="edge12" class="edge">
<title>Node9&#45;&gt;Node10</title>
<path fill="none" stroke="#404040" d="M644.0733,-1025.4757C649.7245,-1019.8325 655.0444,-1013.5967 659.1842,-1007 666.9277,-994.661 673.4148,-980.9643 678.8382,-966.9492"/>
<polygon fill="none" stroke="#404040" points="678.8444,-966.932 677.1468,-959.9236 682.9632,-955.661 684.6608,-962.6695 678.8444,-966.932"/>
<text text-anchor="middle" x="693.1842" y="-988" font-family="Helvetica,sans-Serif" font-size="10.00" fill="#000000"> +@38</text>
</g>
<!-- Node10&#45;&gt;Node2 -->
<g id="edge20" class="edge">
<title>Node10&#45;&gt;Node2</title>
<path fill="none" stroke="#404040" d="M767.8767,-768.8948C775.7388,-755.2049 782.6142,-740.6607 787.1842,-726 825.6589,-602.5745 809.668,-199.7479 803.3218,-69.8048"/>
<polygon fill="none" stroke="#404040" points="803.3186,-69.737 799.0254,-63.9432 802.7223,-57.7518 807.0155,-63.5457 803.3186,-69.737"/>
<text text-anchor="middle" x="832.1842" y="-233.5" font-family="Helvetica,sans-Serif" font-size="10.00" fill="#000000"> +DETOR</text>
</g>
<!-- Node10&#45;&gt;Node5 -->
<g id="edge8" class="edge">
<title>Node10&#45;&gt;Node5</title>
<path fill="none" stroke="#ffa500" d="M663.7878,-734.5877C663.2001,-731.7093 662.6633,-728.8437 662.1842,-726 651.7001,-663.7674 660.2734,-593.9599 672.3414,-537.3531"/>
<polygon fill="#ffa500" stroke="#ffa500" points="660.3846,-735.4083 665.9717,-744.4102 667.2178,-733.8889 660.3846,-735.4083"/>
<text text-anchor="start" x="662.1842" y="-668.5" font-family="Helvetica,sans-Serif" font-size="10.00" fill="#000000"> &lt; gSizeDataOriginString,</text>
<text text-anchor="middle" x="724.6842" y="-657.5" font-family="Helvetica,sans-Serif" font-size="10.00" fill="#000000"> printDataOrigin &gt;</text>
</g>
<!-- Node11 -->
<g id="node10" class="node">
<title>Node11</title>
<polygon fill="none" stroke="#bfbfbf" points="55.6842,-397.5 55.6842,-454.5 168.6842,-454.5 168.6842,-397.5 55.6842,-397.5"/>
<text text-anchor="middle" x="112.1842" y="-442.5" font-family="Helvetica,sans-Serif" font-size="10.00" fill="#000000">unique_ptr&lt; TFile &gt;</text>
<polyline fill="none" stroke="#bfbfbf" points="55.6842,-435.5 168.6842,-435.5 "/>
<text text-anchor="middle" x="112.1842" y="-423.5" font-family="Helvetica,sans-Serif" font-size="10.00" fill="#000000"> </text>
<polyline fill="none" stroke="#bfbfbf" points="55.6842,-416.5 168.6842,-416.5 "/>
<text text-anchor="middle" x="112.1842" y="-404.5" font-family="Helvetica,sans-Serif" font-size="10.00" fill="#000000"> </text>
</g>
<!-- Node11&#45;&gt;Node3 -->
<g id="edge13" class="edge">
<title>Node11&#45;&gt;Node3</title>
<path fill="none" stroke="#404040" d="M117.4004,-397.2843C125.1165,-362.1552 142.6665,-302.717 178.1842,-265 221.4271,-219.0796 287.4608,-191.3172 340.3748,-175.3118"/>
<polygon fill="none" stroke="#404040" points="340.6202,-175.2403 345.2597,-169.7199 352.1399,-171.8793 347.5004,-177.3997 340.6202,-175.2403"/>
<text text-anchor="middle" x="250.6842" y="-233.5" font-family="Helvetica,sans-Serif" font-size="10.00" fill="#000000"> #mOutFile</text>
</g>
<!-- Node12 -->
<g id="node11" class="node">
<title>Node12</title>
<g id="a_node11"><a xlink:href="../../d6/dd5/classo2_1_1detectors_1_1DetID.html" target="_top" xlink:title="Static class with identifiers, bitmasks and names for ALICE detectors. ">
<polygon fill="none" stroke="#000000" points="187.1842,-265.5 187.1842,-586.5 301.1842,-586.5 301.1842,-265.5 187.1842,-265.5"/>
<text text-anchor="middle" x="244.1842" y="-574.5" font-family="Helvetica,sans-Serif" font-size="10.00" fill="#000000">o2::detectors::DetID</text>
<polyline fill="none" stroke="#000000" points="187.1842,-567.5 301.1842,-567.5 "/>
<text text-anchor="start" x="195.1842" y="-555.5" font-family="Helvetica,sans-Serif" font-size="10.00" fill="#000000">+ ITS</text>
<text text-anchor="start" x="195.1842" y="-544.5" font-family="Helvetica,sans-Serif" font-size="10.00" fill="#000000">+ TOF</text>
<text text-anchor="start" x="195.1842" y="-533.5" font-family="Helvetica,sans-Serif" font-size="10.00" fill="#000000">+ PHS</text>
<text text-anchor="start" x="195.1842" y="-522.5" font-family="Helvetica,sans-Serif" font-size="10.00" fill="#000000">+ CPV</text>
<text text-anchor="start" x="195.1842" y="-511.5" font-family="Helvetica,sans-Serif" font-size="10.00" fill="#000000">+ EMC</text>
<text text-anchor="start" x="195.1842" y="-500.5" font-family="Helvetica,sans-Serif" font-size="10.00" fill="#000000">+ HMP</text>
<text text-anchor="start" x="195.1842" y="-489.5" font-family="Helvetica,sans-Serif" font-size="10.00" fill="#000000">+ MFT</text>
<text text-anchor="start" x="195.1842" y="-478.5" font-family="Helvetica,sans-Serif" font-size="10.00" fill="#000000">+ MID</text>
<text text-anchor="start" x="195.1842" y="-467.5" font-family="Helvetica,sans-Serif" font-size="10.00" fill="#000000">+ ZDC</text>
<text text-anchor="start" x="195.1842" y="-456.5" font-family="Helvetica,sans-Serif" font-size="10.00" fill="#000000">+ Last</text>
<polyline fill="none" stroke="#000000" points="187.1842,-449.5 301.1842,-449.5 "/>
<text text-anchor="start" x="195.1842" y="-437.5" font-family="Helvetica,sans-Serif" font-size="10.00" fill="#000000">+ DetID()</text>
<text text-anchor="start" x="195.1842" y="-426.5" font-family="Helvetica,sans-Serif" font-size="10.00" fill="#000000">+ DetID()</text>
<text text-anchor="start" x="195.1842" y="-415.5" font-family="Helvetica,sans-Serif" font-size="10.00" fill="#000000">+ DetID()</text>
<text text-anchor="start" x="195.1842" y="-404.5" font-family="Helvetica,sans-Serif" font-size="10.00" fill="#000000">+ operator=()</text>
<text text-anchor="start" x="195.1842" y="-393.5" font-family="Helvetica,sans-Serif" font-size="10.00" fill="#000000">+ getID()</text>
<text text-anchor="start" x="195.1842" y="-382.5" font-family="Helvetica,sans-Serif" font-size="10.00" fill="#000000">+ getMask()</text>
<text text-anchor="start" x="195.1842" y="-371.5" font-family="Helvetica,sans-Serif" font-size="10.00" fill="#000000">+ getDataOrigin()</text>
<text text-anchor="start" x="195.1842" y="-360.5" font-family="Helvetica,sans-Serif" font-size="10.00" fill="#000000">+ getName()</text>
<text text-anchor="start" x="195.1842" y="-349.5" font-family="Helvetica,sans-Serif" font-size="10.00" fill="#000000">+ operator int()</text>
<text text-anchor="start" x="195.1842" y="-338.5" font-family="Helvetica,sans-Serif" font-size="10.00" fill="#000000">+ DetID()</text>
<text text-anchor="start" x="195.1842" y="-327.5" font-family="Helvetica,sans-Serif" font-size="10.00" fill="#000000">+ getNDetectors()</text>
<text text-anchor="start" x="195.1842" y="-316.5" font-family="Helvetica,sans-Serif" font-size="10.00" fill="#000000">+ getName()</text>
<text text-anchor="start" x="195.1842" y="-305.5" font-family="Helvetica,sans-Serif" font-size="10.00" fill="#000000">+ getMask()</text>
<text text-anchor="start" x="195.1842" y="-294.5" font-family="Helvetica,sans-Serif" font-size="10.00" fill="#000000">+ getDataOrigin()</text>
<text text-anchor="start" x="195.1842" y="-283.5" font-family="Helvetica,sans-Serif" font-size="10.00" fill="#000000">+ getMask()</text>
<text text-anchor="start" x="195.1842" y="-272.5" font-family="Helvetica,sans-Serif" font-size="10.00" fill="#000000">+ getNames()</text>
</a>
</g>
</g>
<!-- Node12&#45;&gt;Node3 -->
<g id="edge14" class="edge">
<title>Node12&#45;&gt;Node3</title>
<path fill="none" stroke="#404040" d="M301.2516,-272.2854C311.0953,-255.3157 322.3673,-239.1031 335.1842,-225 338.2091,-221.6716 341.4108,-218.3877 344.7337,-215.167"/>
<polygon fill="none" stroke="#404040" points="344.9663,-214.9518 346.6536,-207.9408 353.7742,-206.8018 352.0869,-213.8128 344.9663,-214.9518"/>
<text text-anchor="middle" x="351.1842" y="-233.5" font-family="Helvetica,sans-Serif" font-size="10.00" fill="#000000"> #mID</text>
</g>
<!-- Node13 -->
<g id="node12" class="node">
<title>Node13</title>
<polygon fill="none" stroke="#bfbfbf" points="222.1842,-821.5 222.1842,-878.5 266.1842,-878.5 266.1842,-821.5 222.1842,-821.5"/>
<text text-anchor="middle" x="244.1842" y="-866.5" font-family="Helvetica,sans-Serif" font-size="10.00" fill="#000000">static</text>
<polyline fill="none" stroke="#bfbfbf" points="222.1842,-859.5 266.1842,-859.5 "/>
<text text-anchor="middle" x="244.1842" y="-847.5" font-family="Helvetica,sans-Serif" font-size="10.00" fill="#000000"> </text>
<polyline fill="none" stroke="#bfbfbf" points="222.1842,-840.5 266.1842,-840.5 "/>
<text text-anchor="middle" x="244.1842" y="-828.5" font-family="Helvetica,sans-Serif" font-size="10.00" fill="#000000"> </text>
</g>
<!-- Node13&#45;&gt;Node12 -->
<g id="edge15" class="edge">
<title>Node13&#45;&gt;Node12</title>
<path fill="none" stroke="#404040" d="M244.1842,-821.1901C244.1842,-775.4423 244.1842,-682.7389 244.1842,-598.6122"/>
<polygon fill="none" stroke="#404040" points="244.1843,-598.5368 240.1843,-592.5368 244.1842,-586.5368 248.1843,-592.5367 244.1843,-598.5368"/>
<text text-anchor="middle" x="275.1842" y="-718" font-family="Helvetica,sans-Serif" font-size="10.00" fill="#000000"> +ACO</text>
<text text-anchor="middle" x="275.1842" y="-707" font-family="Helvetica,sans-Serif" font-size="10.00" fill="#000000">+NONE</text>
<text text-anchor="middle" x="275.1842" y="-696" font-family="Helvetica,sans-Serif" font-size="10.00" fill="#000000">+First</text>
<text text-anchor="middle" x="275.1842" y="-685" font-family="Helvetica,sans-Serif" font-size="10.00" fill="#000000">+MCH</text>
<text text-anchor="middle" x="275.1842" y="-674" font-family="Helvetica,sans-Serif" font-size="10.00" fill="#000000">+FV0</text>
<text text-anchor="middle" x="275.1842" y="-663" font-family="Helvetica,sans-Serif" font-size="10.00" fill="#000000">+FT0</text>
<text text-anchor="middle" x="275.1842" y="-652" font-family="Helvetica,sans-Serif" font-size="10.00" fill="#000000">+FDD</text>
<text text-anchor="middle" x="275.1842" y="-641" font-family="Helvetica,sans-Serif" font-size="10.00" fill="#000000">+TRD</text>
<text text-anchor="middle" x="275.1842" y="-630" font-family="Helvetica,sans-Serif" font-size="10.00" fill="#000000">+nDetectors</text>
<text text-anchor="middle" x="275.1842" y="-619" font-family="Helvetica,sans-Serif" font-size="10.00" fill="#000000">+TPC</text>
<text text-anchor="middle" x="275.1842" y="-608" font-family="Helvetica,sans-Serif" font-size="10.00" fill="#000000">...</text>
</g>
<!-- Node14 -->
<g id="node13" class="node">
<title>Node14</title>
<polygon fill="none" stroke="#bfbfbf" points="319.6842,-397.5 319.6842,-454.5 436.6842,-454.5 436.6842,-397.5 319.6842,-397.5"/>
<text text-anchor="middle" x="378.1842" y="-442.5" font-family="Helvetica,sans-Serif" font-size="10.00" fill="#000000">unique_ptr&lt; TTree &gt;</text>
<polyline fill="none" stroke="#bfbfbf" points="319.6842,-435.5 436.6842,-435.5 "/>
<text text-anchor="middle" x="378.1842" y="-423.5" font-family="Helvetica,sans-Serif" font-size="10.00" fill="#000000"> </text>
<polyline fill="none" stroke="#bfbfbf" points="319.6842,-416.5 436.6842,-416.5 "/>
<text text-anchor="middle" x="378.1842" y="-404.5" font-family="Helvetica,sans-Serif" font-size="10.00" fill="#000000"> </text>
</g>
<!-- Node14&#45;&gt;Node3 -->
<g id="edge16" class="edge">
<title>Node14&#45;&gt;Node3</title>
<path fill="none" stroke="#404040" d="M372.3681,-397.2023C365.556,-357.4067 357.4146,-283.8479 376.1842,-225 377.0004,-222.441 377.9499,-219.8957 379.0095,-217.3751"/>
<polygon fill="none" stroke="#404040" points="379.0419,-217.3083 378.0678,-210.1633 384.2886,-206.5161 385.2627,-213.6611 379.0419,-217.3083"/>
<text text-anchor="middle" x="414.1842" y="-233.5" font-family="Helvetica,sans-Serif" font-size="10.00" fill="#000000"> #mOutTreeDig</text>
</g>
<!-- Node15 -->
<g id="node14" class="node">
<title>Node15</title>
<polygon fill="none" stroke="#bfbfbf" points="455.1842,-397.5 455.1842,-454.5 493.1842,-454.5 493.1842,-397.5 455.1842,-397.5"/>
<text text-anchor="middle" x="474.1842" y="-442.5" font-family="Helvetica,sans-Serif" font-size="10.00" fill="#000000">bool</text>
<polyline fill="none" stroke="#bfbfbf" points="455.1842,-435.5 493.1842,-435.5 "/>
<text text-anchor="middle" x="474.1842" y="-423.5" font-family="Helvetica,sans-Serif" font-size="10.00" fill="#000000"> </text>
<polyline fill="none" stroke="#bfbfbf" points="455.1842,-416.5 493.1842,-416.5 "/>
<text text-anchor="middle" x="474.1842" y="-404.5" font-family="Helvetica,sans-Serif" font-size="10.00" fill="#000000"> </text>
</g>
<!-- Node15&#45;&gt;Node3 -->
<g id="edge18" class="edge">
<title>Node15&#45;&gt;Node3</title>
<path fill="none" stroke="#404040" d="M473.4155,-397.2943C471.8267,-357.9146 466.9724,-285.1683 452.1842,-225 451.6546,-222.8452 451.0738,-220.6674 450.451,-218.4797"/>
<polygon fill="none" stroke="#404040" points="450.3656,-218.2071 444.7531,-213.6794 446.7739,-206.7572 452.3864,-211.2849 450.3656,-218.2071"/>
<text text-anchor="middle" x="498.6842" y="-239" font-family="Helvetica,sans-Serif" font-size="10.00" fill="#000000"> #mWithMCTruth</text>
<text text-anchor="middle" x="498.6842" y="-228" font-family="Helvetica,sans-Serif" font-size="10.00" fill="#000000">#mFinished</text>
</g>
<!-- Node16 -->
<g id="node15" class="node">
<title>Node16</title>
<polygon fill="none" stroke="#bfbfbf" points="829.6842,-127.5 829.6842,-184.5 858.6842,-184.5 858.6842,-127.5 829.6842,-127.5"/>
<text text-anchor="middle" x="844.1842" y="-172.5" font-family="Helvetica,sans-Serif" font-size="10.00" fill="#000000">ID</text>
<polyline fill="none" stroke="#bfbfbf" points="829.6842,-165.5 858.6842,-165.5 "/>
<text text-anchor="middle" x="844.1842" y="-153.5" font-family="Helvetica,sans-Serif" font-size="10.00" fill="#000000"> </text>
<polyline fill="none" stroke="#bfbfbf" points="829.6842,-146.5 858.6842,-146.5 "/>
<text text-anchor="middle" x="844.1842" y="-134.5" font-family="Helvetica,sans-Serif" font-size="10.00" fill="#000000"> </text>
</g>
<!-- Node16&#45;&gt;Node2 -->
<g id="edge19" class="edge">
<title>Node16&#45;&gt;Node2</title>
<path fill="none" stroke="#404040" d="M834.5342,-127.4987C828.7381,-110.38 821.2711,-88.3262 814.8724,-69.4279"/>
<polygon fill="none" stroke="#404040" points="814.7993,-69.2117 809.0863,-64.8115 810.9508,-57.8456 816.6638,-62.2458 814.7993,-69.2117"/>
<text text-anchor="middle" x="840.1842" y="-79" font-family="Helvetica,sans-Serif" font-size="10.00" fill="#000000"> +DETID</text>
</g>
</g>
</svg>
