<?xml version="1.0" encoding="UTF-8" standalone="no"?>
<!DOCTYPE svg PUBLIC "-//W3C//DTD SVG 1.1//EN"
 "http://www.w3.org/Graphics/SVG/1.1/DTD/svg11.dtd">
<!-- Generated by graphviz version 2.40.1 (20161225.0304)
 -->
<!-- Title: /home/travis/build/AliceO2Group/AliceO2/GPU/GPUTracking/Merger/GPUTPCGMMergerGPU.cxx Pages: 1 -->
<!--zoomable 621 -->
<svg id="main" version="1.1" xmlns="http://www.w3.org/2000/svg" xmlns:xlink="http://www.w3.org/1999/xlink" xml:space="preserve" onload="init(evt)">
<style type="text/css"><![CDATA[
.edge:hover path { stroke: red; }
.edge:hover polygon { stroke: red; fill: red; }
]]></style>
<script type="text/javascript"><![CDATA[
var edges = document.getElementsByTagName('g');
if (edges && edges.length) {
  for (var i=0;i<edges.length;i++) {
    if (edges[i].id.substr(0,4)=='edge') {
      edges[i].setAttribute('class','edge');
    }
  }
}
]]></script>
        <defs>
                <circle id="rim" cx="0" cy="0" r="7"/>
                <circle id="rim2" cx="0" cy="0" r="3.5"/>
                <g id="zoomPlus">
                        <use xlink:href="#rim" fill="#404040">
                                <set attributeName="fill" to="#808080" begin="zoomplus.mouseover" end="zoomplus.mouseout"/>
                        </use>
                        <path d="M-4,0h8M0,-4v8" fill="none" stroke="white" stroke-width="1.5" pointer-events="none"/>
                </g>
                <g id="zoomMin">
                        <use xlink:href="#rim" fill="#404040">
                                <set attributeName="fill" to="#808080" begin="zoomminus.mouseover" end="zoomminus.mouseout"/>
                        </use>
                        <path d="M-4,0h8" fill="none" stroke="white" stroke-width="1.5" pointer-events="none"/>
                </g>
                <g id="dirArrow">
                        <path fill="none" stroke="white" stroke-width="1.5" d="M0,-3.0v7 M-2.5,-0.5L0,-3.0L2.5,-0.5"/>
                </g>
               <g id="resetDef">
                       <use xlink:href="#rim2" fill="#404040">
                               <set attributeName="fill" to="#808080" begin="reset.mouseover" end="reset.mouseout"/>
                       </use>
               </g>
        </defs>

<script type="text/javascript">
var viewWidth = 1715;
var viewHeight = 621;
var sectionId = 'dynsection-0';
</script>
<script xlink:href="../../svgpan.js"/>
<svg id="graph" class="graph">
<g id="viewport">
<title>/home/travis/build/AliceO2Group/AliceO2/GPU/GPUTracking/Merger/GPUTPCGMMergerGPU.cxx</title>
<!-- Node0 -->
<g id="node1" class="node">
<title>Node0</title>
<polygon fill="#bfbfbf" stroke="#000000" points="234.5,-560.5 234.5,-612.5 384.5,-612.5 384.5,-560.5 234.5,-560.5"/>
<text text-anchor="start" x="242.5" y="-600.5" font-family="Helvetica,sans-Serif" font-size="10.00" fill="#000000">/home/travis/build</text>
<text text-anchor="start" x="242.5" y="-589.5" font-family="Helvetica,sans-Serif" font-size="10.00" fill="#000000">/AliceO2Group/AliceO2</text>
<text text-anchor="start" x="242.5" y="-578.5" font-family="Helvetica,sans-Serif" font-size="10.00" fill="#000000">/GPU/GPUTracking/Merger</text>
<text text-anchor="middle" x="309.5" y="-567.5" font-family="Helvetica,sans-Serif" font-size="10.00" fill="#000000">/GPUTPCGMMergerGPU.cxx</text>
</g>
<!-- Node1 -->
<g id="node2" class="node">
<title>Node1</title>
<g id="a_node2"><a xlink:href="../../dc/d95/GPUTPCGMMergerGPU_8h.html" target="_top" xlink:title="GPUTPCGMMergerGPU.h">
<polygon fill="none" stroke="#000000" points="1017.5,-504.5 1017.5,-523.5 1153.5,-523.5 1153.5,-504.5 1017.5,-504.5"/>
<text text-anchor="middle" x="1085.5" y="-511.5" font-family="Helvetica,sans-Serif" font-size="10.00" fill="#000000">GPUTPCGMMergerGPU.h</text>
</a>
</g>
</g>
<!-- Node0&#45;&gt;Node1 -->
<g id="edge1" class="edge">
<title>Node0&#45;&gt;Node1</title>
<path fill="none" stroke="#191970" d="M384.6112,-579.4825C531.9451,-565.7174 857.5087,-535.3007 1007.2977,-521.3063"/>
<polygon fill="#191970" stroke="#191970" points="1007.7091,-524.7832 1017.3401,-520.368 1007.0579,-517.8135 1007.7091,-524.7832"/>
</g>
<!-- Node38 -->
<g id="node39" class="node">
<title>Node38</title>
<g id="a_node39"><a xlink:href="../../dd/d0b/GPUCommonAlgorithm_8h.html" target="_top" xlink:title="GPUCommonAlgorithm.h">
<polygon fill="none" stroke="#000000" points="0,-168.5 0,-187.5 139,-187.5 139,-168.5 0,-168.5"/>
<text text-anchor="middle" x="69.5" y="-175.5" font-family="Helvetica,sans-Serif" font-size="10.00" fill="#000000">GPUCommonAlgorithm.h</text>
</a>
</g>
</g>
<!-- Node0&#45;&gt;Node38 -->
<g id="edge68" class="edge">
<title>Node0&#45;&gt;Node38</title>
<path fill="none" stroke="#191970" d="M234.2783,-572.4347C174.0211,-556.3055 99.5,-523.182 99.5,-458 99.5,-458 99.5,-458 99.5,-290 99.5,-256.4397 86.7764,-219.0899 77.9016,-197.12"/>
<polygon fill="#191970" stroke="#191970" points="81.0255,-195.5191 73.9266,-187.6542 74.5714,-198.2294 81.0255,-195.5191"/>
</g>
<!-- Node2 -->
<g id="node3" class="node">
<title>Node2</title>
<g id="a_node3"><a xlink:href="../../d9/de5/GPUGeneralKernels_8h.html" target="_top" xlink:title="GPUGeneralKernels.h">
<polygon fill="none" stroke="#000000" points="1526,-224.5 1526,-243.5 1647,-243.5 1647,-224.5 1526,-224.5"/>
<text text-anchor="middle" x="1586.5" y="-231.5" font-family="Helvetica,sans-Serif" font-size="10.00" fill="#000000">GPUGeneralKernels.h</text>
</a>
</g>
</g>
<!-- Node1&#45;&gt;Node2 -->
<g id="edge2" class="edge">
<title>Node1&#45;&gt;Node2</title>
<path fill="none" stroke="#191970" d="M1153.8453,-511.1049C1279.7314,-503.8963 1535.5,-479.6906 1535.5,-402 1535.5,-402 1535.5,-402 1535.5,-346 1535.5,-310.0802 1557.4955,-273.0352 1572.5967,-251.8345"/>
<polygon fill="#191970" stroke="#191970" points="1575.6163,-253.638 1578.7542,-243.5185 1569.9906,-249.4725 1575.6163,-253.638"/>
</g>
<!-- Node15 -->
<g id="node16" class="node">
<title>Node15</title>
<g id="a_node16"><a xlink:href="../../db/df8/GPUConstantMem_8h.html" target="_top" xlink:title="GPUConstantMem.h">
<polygon fill="none" stroke="#000000" points="548.5,-448.5 548.5,-467.5 662.5,-467.5 662.5,-448.5 548.5,-448.5"/>
<text text-anchor="middle" x="605.5" y="-455.5" font-family="Helvetica,sans-Serif" font-size="10.00" fill="#000000">GPUConstantMem.h</text>
</a>
</g>
</g>
<!-- Node1&#45;&gt;Node15 -->
<g id="edge16" class="edge">
<title>Node1&#45;&gt;Node15</title>
<path fill="none" stroke="#191970" d="M1017.4918,-506.0657C925.8812,-495.3778 763.8342,-476.4723 672.6605,-465.8354"/>
<polygon fill="#191970" stroke="#191970" points="673.0514,-462.3573 662.7132,-464.6749 672.2402,-469.3102 673.0514,-462.3573"/>
</g>
<!-- Node37 -->
<g id="node38" class="node">
<title>Node37</title>
<g id="a_node38"><a xlink:href="../../de/d4c/GPUTPCGMMergerTypes_8h.html" target="_top" xlink:title="GPUTPCGMMergerTypes.h">
<polygon fill="none" stroke="#000000" points="1564,-280.5 1564,-299.5 1707,-299.5 1707,-280.5 1564,-280.5"/>
<text text-anchor="middle" x="1635.5" y="-287.5" font-family="Helvetica,sans-Serif" font-size="10.00" fill="#000000">GPUTPCGMMergerTypes.h</text>
</a>
</g>
</g>
<!-- Node1&#45;&gt;Node37 -->
<g id="edge65" class="edge">
<title>Node1&#45;&gt;Node37</title>
<path fill="none" stroke="#191970" d="M1153.9211,-510.8906C1275.1203,-504.8472 1517.8123,-490.1362 1549.5,-468 1603.81,-430.0604 1625.1135,-348.1324 1632.3077,-310.1239"/>
<polygon fill="#191970" stroke="#191970" points="1635.8319,-310.2892 1634.1084,-299.8355 1628.9367,-309.0824 1635.8319,-310.2892"/>
</g>
<!-- Node3 -->
<g id="node4" class="node">
<title>Node3</title>
<g id="a_node4"><a xlink:href="../../d2/d6d/GPUDef_8h.html" target="_top" xlink:title="GPUDef.h">
<polygon fill="none" stroke="#000000" points="827,-112.5 827,-131.5 890,-131.5 890,-112.5 827,-112.5"/>
<text text-anchor="middle" x="858.5" y="-119.5" font-family="Helvetica,sans-Serif" font-size="10.00" fill="#000000">GPUDef.h</text>
</a>
</g>
</g>
<!-- Node2&#45;&gt;Node3 -->
<g id="edge3" class="edge">
<title>Node2&#45;&gt;Node3</title>
<path fill="none" stroke="#191970" d="M1549.5908,-224.4323C1493.5347,-210.2189 1383.4131,-183.5377 1288.5,-168 1147.1487,-144.8602 977.6705,-130.6626 900.4873,-124.9302"/>
<polygon fill="#191970" stroke="#191970" points="900.4507,-121.4182 890.2215,-124.1774 899.9388,-128.3995 900.4507,-121.4182"/>
</g>
<!-- Node13 -->
<g id="node14" class="node">
<title>Node13</title>
<g id="a_node14"><a xlink:href="../../d4/dc5/GPUDataTypes_8h.html" target="_top" xlink:title="GPUDataTypes.h">
<polygon fill="none" stroke="#000000" points="582.5,-168.5 582.5,-187.5 680.5,-187.5 680.5,-168.5 582.5,-168.5"/>
<text text-anchor="middle" x="631.5" y="-175.5" font-family="Helvetica,sans-Serif" font-size="10.00" fill="#000000">GPUDataTypes.h</text>
</a>
</g>
</g>
<!-- Node2&#45;&gt;Node13 -->
<g id="edge13" class="edge">
<title>Node2&#45;&gt;Node13</title>
<path fill="none" stroke="#191970" d="M1525.7812,-229.5976C1499.558,-227.7593 1468.5247,-225.6681 1440.5,-224 1124.2111,-205.1736 1044.419,-212.2546 728.5,-188 716.3676,-187.0685 703.4016,-185.8718 691.0264,-184.6323"/>
<polygon fill="#191970" stroke="#191970" points="691.1059,-181.1222 680.8015,-183.5858 690.3932,-188.0858 691.1059,-181.1222"/>
</g>
<!-- Node4 -->
<g id="node5" class="node">
<title>Node4</title>
<g id="a_node5"><a xlink:href="../../df/d21/GPUCommonDef_8h.html" target="_top" xlink:title="GPUCommonDef.h">
<polygon fill="none" stroke="#000000" points="457,-56.5 457,-75.5 564,-75.5 564,-56.5 457,-56.5"/>
<text text-anchor="middle" x="510.5" y="-63.5" font-family="Helvetica,sans-Serif" font-size="10.00" fill="#000000">GPUCommonDef.h</text>
</a>
</g>
</g>
<!-- Node3&#45;&gt;Node4 -->
<g id="edge4" class="edge">
<title>Node3&#45;&gt;Node4</title>
<path fill="none" stroke="#191970" d="M826.6948,-116.8819C769.6453,-107.7015 648.9247,-88.2752 574.257,-76.2597"/>
<polygon fill="#191970" stroke="#191970" points="574.4672,-72.7486 564.0381,-74.6153 573.355,-79.6597 574.4672,-72.7486"/>
</g>
<!-- Node7 -->
<g id="node8" class="node">
<title>Node7</title>
<g id="a_node8"><a xlink:href="../../d2/d37/GPUDefConstantsAndSettings_8h.html" target="_top" xlink:title="GPUDefConstantsAndSettings.h">
<polygon fill="none" stroke="#000000" points="1084,-56.5 1084,-75.5 1255,-75.5 1255,-56.5 1084,-56.5"/>
<text text-anchor="middle" x="1169.5" y="-63.5" font-family="Helvetica,sans-Serif" font-size="10.00" fill="#000000">GPUDefConstantsAndSettings.h</text>
</a>
</g>
</g>
<!-- Node3&#45;&gt;Node7 -->
<g id="edge7" class="edge">
<title>Node3&#45;&gt;Node7</title>
<path fill="none" stroke="#191970" d="M890.0318,-116.3222C940.6028,-107.2162 1040.8131,-89.1719 1106.4745,-77.3486"/>
<polygon fill="#191970" stroke="#191970" points="1107.4818,-80.7236 1116.7032,-75.5068 1106.2412,-73.8344 1107.4818,-80.7236"/>
</g>
<!-- Node8 -->
<g id="node9" class="node">
<title>Node8</title>
<g id="a_node9"><a xlink:href="../../dc/de9/GPUDefGPUParameters_8h.html" target="_top" xlink:title="GPUDefGPUParameters.h">
<polygon fill="none" stroke="#000000" points="600.5,-56.5 600.5,-75.5 740.5,-75.5 740.5,-56.5 600.5,-56.5"/>
<text text-anchor="middle" x="670.5" y="-63.5" font-family="Helvetica,sans-Serif" font-size="10.00" fill="#000000">GPUDefGPUParameters.h</text>
</a>
</g>
</g>
<!-- Node3&#45;&gt;Node8 -->
<g id="edge8" class="edge">
<title>Node3&#45;&gt;Node8</title>
<path fill="none" stroke="#191970" d="M826.6084,-112.5004C795.1435,-103.1278 746.8735,-88.7495 712.3429,-78.4638"/>
<polygon fill="#191970" stroke="#191970" points="713.1311,-75.0467 702.5481,-75.5462 711.1328,-81.7554 713.1311,-75.0467"/>
</g>
<!-- Node10 -->
<g id="node11" class="node">
<title>Node10</title>
<g id="a_node11"><a xlink:href="../../d3/d4c/GPUDefOpenCL12Templates_8h.html" target="_top" xlink:title="GPUDefOpenCL12Templates.h">
<polygon fill="none" stroke="#000000" points="758.5,-56.5 758.5,-75.5 922.5,-75.5 922.5,-56.5 758.5,-56.5"/>
<text text-anchor="middle" x="840.5" y="-63.5" font-family="Helvetica,sans-Serif" font-size="10.00" fill="#000000">GPUDefOpenCL12Templates.h</text>
</a>
</g>
</g>
<!-- Node3&#45;&gt;Node10 -->
<g id="edge10" class="edge">
<title>Node3&#45;&gt;Node10</title>
<path fill="none" stroke="#191970" d="M855.3646,-112.2455C852.99,-104.8579 849.6507,-94.4689 846.7385,-85.4087"/>
<polygon fill="#191970" stroke="#191970" points="849.9917,-84.0919 843.5994,-75.6427 843.3275,-86.234 849.9917,-84.0919"/>
</g>
<!-- Node11 -->
<g id="node12" class="node">
<title>Node11</title>
<g id="a_node12"><a xlink:href="../../d2/d45/GPUCommonRtypes_8h.html" target="_top" xlink:title="GPUCommonRtypes.h">
<polygon fill="none" stroke="#000000" points="941,-56.5 941,-75.5 1066,-75.5 1066,-56.5 941,-56.5"/>
<text text-anchor="middle" x="1003.5" y="-63.5" font-family="Helvetica,sans-Serif" font-size="10.00" fill="#000000">GPUCommonRtypes.h</text>
</a>
</g>
</g>
<!-- Node3&#45;&gt;Node11 -->
<g id="edge11" class="edge">
<title>Node3&#45;&gt;Node11</title>
<path fill="none" stroke="#191970" d="M883.4264,-112.3733C907.1202,-103.2226 942.9511,-89.3844 969.3068,-79.2057"/>
<polygon fill="#191970" stroke="#191970" points="970.8314,-82.3689 978.8989,-75.5011 968.3094,-75.8389 970.8314,-82.3689"/>
</g>
<!-- Node5 -->
<g id="node6" class="node">
<title>Node5</title>
<g id="a_node6"><a xlink:href="../../d5/d93/GPUCommonDefSettings_8h.html" target="_top" xlink:title="GPUCommonDefSettings.h">
<polygon fill="none" stroke="#000000" points="307.5,-.5 307.5,-19.5 455.5,-19.5 455.5,-.5 307.5,-.5"/>
<text text-anchor="middle" x="381.5" y="-7.5" font-family="Helvetica,sans-Serif" font-size="10.00" fill="#000000">GPUCommonDefSettings.h</text>
</a>
</g>
</g>
<!-- Node4&#45;&gt;Node5 -->
<g id="edge5" class="edge">
<title>Node4&#45;&gt;Node5</title>
<path fill="none" stroke="#191970" d="M488.3241,-56.3733C467.5234,-47.3435 436.2083,-33.7494 412.8542,-23.6111"/>
<polygon fill="#191970" stroke="#191970" points="413.9532,-20.2727 403.3865,-19.5011 411.1657,-26.6938 413.9532,-20.2727"/>
</g>
<!-- Node6 -->
<g id="node7" class="node">
<title>Node6</title>
<g id="a_node7"><a xlink:href="../../da/d5a/GPUCommonDefAPI_8h.html" target="_top" xlink:title="GPUCommonDefAPI.h">
<polygon fill="none" stroke="#000000" points="473.5,-.5 473.5,-19.5 597.5,-19.5 597.5,-.5 473.5,-.5"/>
<text text-anchor="middle" x="535.5" y="-7.5" font-family="Helvetica,sans-Serif" font-size="10.00" fill="#000000">GPUCommonDefAPI.h</text>
</a>
</g>
</g>
<!-- Node4&#45;&gt;Node6 -->
<g id="edge6" class="edge">
<title>Node4&#45;&gt;Node6</title>
<path fill="none" stroke="#191970" d="M514.8547,-56.2455C518.2244,-48.6973 522.993,-38.0158 527.0983,-28.8197"/>
<polygon fill="#191970" stroke="#191970" points="530.3147,-30.2009 531.1952,-19.6427 523.9227,-27.3473 530.3147,-30.2009"/>
</g>
<!-- Node9 -->
<g id="node10" class="node">
<title>Node9</title>
<g id="a_node10"><a xlink:href="../../d6/dff/GPUDefMacros_8h.html" target="_top" xlink:title="GPUDefMacros.h">
<polygon fill="none" stroke="#000000" points="621.5,-.5 621.5,-19.5 719.5,-19.5 719.5,-.5 621.5,-.5"/>
<text text-anchor="middle" x="670.5" y="-7.5" font-family="Helvetica,sans-Serif" font-size="10.00" fill="#000000">GPUDefMacros.h</text>
</a>
</g>
</g>
<!-- Node8&#45;&gt;Node9 -->
<g id="edge9" class="edge">
<title>Node8&#45;&gt;Node9</title>
<path fill="none" stroke="#191970" d="M670.5,-56.2455C670.5,-48.9382 670.5,-38.6944 670.5,-29.7046"/>
<polygon fill="#191970" stroke="#191970" points="674.0001,-29.6426 670.5,-19.6427 667.0001,-29.6427 674.0001,-29.6426"/>
</g>
<!-- Node12 -->
<g id="node13" class="node">
<title>Node12</title>
<polygon fill="none" stroke="#bfbfbf" points="974,-.5 974,-19.5 1033,-19.5 1033,-.5 974,-.5"/>
<text text-anchor="middle" x="1003.5" y="-7.5" font-family="Helvetica,sans-Serif" font-size="10.00" fill="#000000">Rtypes.h</text>
</g>
<!-- Node11&#45;&gt;Node12 -->
<g id="edge12" class="edge">
<title>Node11&#45;&gt;Node12</title>
<path fill="none" stroke="#191970" d="M1003.5,-56.2455C1003.5,-48.9382 1003.5,-38.6944 1003.5,-29.7046"/>
<polygon fill="#191970" stroke="#191970" points="1007.0001,-29.6426 1003.5,-19.6427 1000.0001,-29.6427 1007.0001,-29.6426"/>
</g>
<!-- Node13&#45;&gt;Node4 -->
<g id="edge14" class="edge">
<title>Node13&#45;&gt;Node4</title>
<path fill="none" stroke="#191970" d="M624.3883,-168.4178C614.1754,-154.9916 594.3863,-130.1879 574.5,-112 562.1499,-100.7047 546.9914,-89.7021 534.5274,-81.2909"/>
<polygon fill="#191970" stroke="#191970" points="536.2785,-78.2529 526.0066,-75.6571 532.4178,-84.092 536.2785,-78.2529"/>
</g>
<!-- Node14 -->
<g id="node15" class="node">
<title>Node14</title>
<polygon fill="none" stroke="#bfbfbf" points="627,-112.5 627,-131.5 680,-131.5 680,-112.5 627,-112.5"/>
<text text-anchor="middle" x="653.5" y="-119.5" font-family="Helvetica,sans-Serif" font-size="10.00" fill="#000000">cstddef</text>
</g>
<!-- Node13&#45;&gt;Node14 -->
<g id="edge15" class="edge">
<title>Node13&#45;&gt;Node14</title>
<path fill="none" stroke="#191970" d="M635.3321,-168.2455C638.2659,-160.7776 642.4047,-150.2427 645.991,-141.1137"/>
<polygon fill="#191970" stroke="#191970" points="649.3129,-142.23 649.7118,-131.6427 642.7976,-139.6704 649.3129,-142.23"/>
</g>
<!-- Node15&#45;&gt;Node13 -->
<g id="edge59" class="edge">
<title>Node15&#45;&gt;Node13</title>
<path fill="none" stroke="#191970" d="M610.2217,-448.3774C619.123,-429.3222 637.5,-385.2317 637.5,-346 637.5,-346 637.5,-346 637.5,-290 637.5,-257.6653 634.9755,-220.1547 633.2016,-197.7876"/>
<polygon fill="#191970" stroke="#191970" points="636.6698,-197.2576 632.3597,-187.5791 629.6935,-197.833 636.6698,-197.2576"/>
</g>
<!-- Node16 -->
<g id="node17" class="node">
<title>Node16</title>
<g id="a_node17"><a xlink:href="../../d6/d25/GPUTPCTracker_8h.html" target="_top" xlink:title="GPUTPCTracker.h">
<polygon fill="none" stroke="#000000" points="904.5,-392.5 904.5,-411.5 1004.5,-411.5 1004.5,-392.5 904.5,-392.5"/>
<text text-anchor="middle" x="954.5" y="-399.5" font-family="Helvetica,sans-Serif" font-size="10.00" fill="#000000">GPUTPCTracker.h</text>
</a>
</g>
</g>
<!-- Node15&#45;&gt;Node16 -->
<g id="edge17" class="edge">
<title>Node15&#45;&gt;Node16</title>
<path fill="none" stroke="#191970" d="M662.7395,-448.8154C726.5264,-438.5803 829.2202,-422.1022 894.2149,-411.6733"/>
<polygon fill="#191970" stroke="#191970" points="894.9916,-415.0935 904.3107,-410.0533 893.8825,-408.1819 894.9916,-415.0935"/>
</g>
<!-- Node26 -->
<g id="node27" class="node">
<title>Node26</title>
<g id="a_node27"><a xlink:href="../../df/d13/GPUParam_8h.html" target="_top" xlink:title="GPUParam.h">
<polygon fill="none" stroke="#000000" points="309,-280.5 309,-299.5 386,-299.5 386,-280.5 309,-280.5"/>
<text text-anchor="middle" x="347.5" y="-287.5" font-family="Helvetica,sans-Serif" font-size="10.00" fill="#000000">GPUParam.h</text>
</a>
</g>
</g>
<!-- Node15&#45;&gt;Node26 -->
<g id="edge58" class="edge">
<title>Node15&#45;&gt;Node26</title>
<path fill="none" stroke="#191970" d="M590.8896,-448.4862C548.1514,-420.6567 423.1034,-339.2301 370.8594,-305.2108"/>
<polygon fill="#191970" stroke="#191970" points="372.5598,-302.1414 362.27,-299.6177 368.7401,-308.0074 372.5598,-302.1414"/>
</g>
<!-- Node35 -->
<g id="node36" class="node">
<title>Node35</title>
<g id="a_node36"><a xlink:href="../../d7/d4f/GPUTRDDef_8h.html" target="_top" xlink:title="GPUTRDDef.h">
<polygon fill="none" stroke="#000000" points="203,-392.5 203,-411.5 286,-411.5 286,-392.5 203,-392.5"/>
<text text-anchor="middle" x="244.5" y="-399.5" font-family="Helvetica,sans-Serif" font-size="10.00" fill="#000000">GPUTRDDef.h</text>
</a>
</g>
</g>
<!-- Node15&#45;&gt;Node35 -->
<g id="edge60" class="edge">
<title>Node15&#45;&gt;Node35</title>
<path fill="none" stroke="#191970" d="M548.2985,-449.1266C478.8968,-438.3607 362.911,-420.3685 296.124,-410.0082"/>
<polygon fill="#191970" stroke="#191970" points="296.6589,-406.5493 286.2405,-408.475 295.5858,-413.4666 296.6589,-406.5493"/>
</g>
<!-- Node36 -->
<g id="node37" class="node">
<title>Node36</title>
<g id="a_node37"><a xlink:href="../../da/d28/GPUO2FakeClasses_8h.html" target="_top" xlink:title="GPUO2FakeClasses.h">
<polygon fill="none" stroke="#000000" points="489.5,-224.5 489.5,-243.5 609.5,-243.5 609.5,-224.5 489.5,-224.5"/>
<text text-anchor="middle" x="549.5" y="-231.5" font-family="Helvetica,sans-Serif" font-size="10.00" fill="#000000">GPUO2FakeClasses.h</text>
</a>
</g>
</g>
<!-- Node15&#45;&gt;Node36 -->
<g id="edge62" class="edge">
<title>Node15&#45;&gt;Node36</title>
<path fill="none" stroke="#191970" d="M603.0938,-448.375C594.6033,-414.4133 565.9368,-299.7472 554.3848,-253.5392"/>
<polygon fill="#191970" stroke="#191970" points="557.7182,-252.4417 551.8973,-243.5891 550.9272,-254.1395 557.7182,-252.4417"/>
</g>
<!-- Node17 -->
<g id="node18" class="node">
<title>Node17</title>
<g id="a_node18"><a xlink:href="../../da/dab/GPUTPCDef_8h.html" target="_top" xlink:title="GPUTPCDef.h">
<polygon fill="none" stroke="#000000" points="1197.5,-168.5 1197.5,-187.5 1279.5,-187.5 1279.5,-168.5 1197.5,-168.5"/>
<text text-anchor="middle" x="1238.5" y="-175.5" font-family="Helvetica,sans-Serif" font-size="10.00" fill="#000000">GPUTPCDef.h</text>
</a>
</g>
</g>
<!-- Node16&#45;&gt;Node17 -->
<g id="edge18" class="edge">
<title>Node16&#45;&gt;Node17</title>
<path fill="none" stroke="#191970" d="M1004.7814,-399.7442C1121.6327,-393.3384 1405.9441,-370.6654 1463.5,-300 1474.8161,-286.1065 1477.9957,-247.334 1456.5,-224 1405.8572,-169.0261 1364.5705,-201.2282 1289.8907,-188.8988"/>
<polygon fill="#191970" stroke="#191970" points="1290.1023,-185.3769 1279.626,-186.9569 1288.8011,-192.2549 1290.1023,-185.3769"/>
</g>
<!-- Node18 -->
<g id="node19" class="node">
<title>Node18</title>
<polygon fill="none" stroke="#bfbfbf" points="795.5,-336.5 795.5,-355.5 855.5,-355.5 855.5,-336.5 795.5,-336.5"/>
<text text-anchor="middle" x="825.5" y="-343.5" font-family="Helvetica,sans-Serif" font-size="10.00" fill="#000000">iostream</text>
</g>
<!-- Node16&#45;&gt;Node18 -->
<g id="edge20" class="edge">
<title>Node16&#45;&gt;Node18</title>
<path fill="none" stroke="#191970" d="M932.3241,-392.3733C911.5234,-383.3435 880.2083,-369.7494 856.8542,-359.6111"/>
<polygon fill="#191970" stroke="#191970" points="857.9532,-356.2727 847.3865,-355.5011 855.1657,-362.6938 857.9532,-356.2727"/>
</g>
<!-- Node19 -->
<g id="node20" class="node">
<title>Node19</title>
<g id="a_node20"><a xlink:href="../../dd/d7b/GPUTPCHitId_8h.html" target="_top" xlink:title="GPUTPCHitId.h">
<polygon fill="none" stroke="#000000" points="874,-336.5 874,-355.5 963,-355.5 963,-336.5 874,-336.5"/>
<text text-anchor="middle" x="918.5" y="-343.5" font-family="Helvetica,sans-Serif" font-size="10.00" fill="#000000">GPUTPCHitId.h</text>
</a>
</g>
</g>
<!-- Node16&#45;&gt;Node19 -->
<g id="edge21" class="edge">
<title>Node16&#45;&gt;Node19</title>
<path fill="none" stroke="#191970" d="M948.2293,-392.2455C943.2736,-384.5367 936.217,-373.5598 930.2224,-364.2348"/>
<polygon fill="#191970" stroke="#191970" points="933.0506,-362.1618 924.6989,-355.6427 927.1624,-365.9471 933.0506,-362.1618"/>
</g>
<!-- Node20 -->
<g id="node21" class="node">
<title>Node20</title>
<g id="a_node21"><a xlink:href="../../df/d4a/GPUTPCSliceData_8h.html" target="_top" xlink:title="GPUTPCSliceData.h">
<polygon fill="none" stroke="#000000" points="665.5,-336.5 665.5,-355.5 777.5,-355.5 777.5,-336.5 665.5,-336.5"/>
<text text-anchor="middle" x="721.5" y="-343.5" font-family="Helvetica,sans-Serif" font-size="10.00" fill="#000000">GPUTPCSliceData.h</text>
</a>
</g>
</g>
<!-- Node16&#45;&gt;Node20 -->
<g id="edge22" class="edge">
<title>Node16&#45;&gt;Node20</title>
<path fill="none" stroke="#191970" d="M914.7106,-392.4369C875.002,-382.8932 813.8896,-368.2052 771.0545,-357.9101"/>
<polygon fill="#191970" stroke="#191970" points="771.6663,-354.4575 761.1253,-355.5237 770.0305,-361.2637 771.6663,-354.4575"/>
</g>
<!-- Node31 -->
<g id="node32" class="node">
<title>Node31</title>
<g id="a_node32"><a xlink:href="../../d6/d57/GPUProcessor_8h.html" target="_top" xlink:title="GPUProcessor.h">
<polygon fill="none" stroke="#000000" points="737,-168.5 737,-187.5 830,-187.5 830,-168.5 737,-168.5"/>
<text text-anchor="middle" x="783.5" y="-175.5" font-family="Helvetica,sans-Serif" font-size="10.00" fill="#000000">GPUProcessor.h</text>
</a>
</g>
</g>
<!-- Node16&#45;&gt;Node31 -->
<g id="edge57" class="edge">
<title>Node16&#45;&gt;Node31</title>
<path fill="none" stroke="#191970" d="M961.268,-392.2402C969.5243,-379.0307 981.3515,-354.9366 972.5,-336 954.6729,-297.8611 852.4857,-224.9376 806.2349,-193.2876"/>
<polygon fill="#191970" stroke="#191970" points="808.009,-190.2614 797.7721,-187.5305 804.0716,-196.0491 808.009,-190.2614"/>
</g>
<!-- Node32 -->
<g id="node33" class="node">
<title>Node32</title>
<g id="a_node33"><a xlink:href="../../de/d15/GPUTPCTrackParam_8h.html" target="_top" xlink:title="GPUTPCTrackParam.h">
<polygon fill="none" stroke="#000000" points="1210.5,-280.5 1210.5,-299.5 1332.5,-299.5 1332.5,-280.5 1210.5,-280.5"/>
<text text-anchor="middle" x="1271.5" y="-287.5" font-family="Helvetica,sans-Serif" font-size="10.00" fill="#000000">GPUTPCTrackParam.h</text>
</a>
</g>
</g>
<!-- Node16&#45;&gt;Node32 -->
<g id="edge49" class="edge">
<title>Node16&#45;&gt;Node32</title>
<path fill="none" stroke="#191970" d="M981.5272,-392.4509C1038.3761,-372.3655 1170.376,-325.7284 1234.8031,-302.9655"/>
<polygon fill="#191970" stroke="#191970" points="1236.2783,-306.1563 1244.5412,-299.5249 1233.9464,-299.5562 1236.2783,-306.1563"/>
</g>
<!-- Node34 -->
<g id="node35" class="node">
<title>Node34</title>
<g id="a_node35"><a xlink:href="../../db/d6e/GPUTPCTracklet_8h.html" target="_top" xlink:title="GPUTPCTracklet.h">
<polygon fill="none" stroke="#000000" points="1350.5,-280.5 1350.5,-299.5 1454.5,-299.5 1454.5,-280.5 1350.5,-280.5"/>
<text text-anchor="middle" x="1402.5" y="-287.5" font-family="Helvetica,sans-Serif" font-size="10.00" fill="#000000">GPUTPCTracklet.h</text>
</a>
</g>
</g>
<!-- Node16&#45;&gt;Node34 -->
<g id="edge54" class="edge">
<title>Node16&#45;&gt;Node34</title>
<path fill="none" stroke="#191970" d="M992.6962,-392.4509C1074.1951,-372.0762 1264.9825,-324.3794 1354.5124,-301.9969"/>
<polygon fill="#191970" stroke="#191970" points="1355.5479,-305.3458 1364.4005,-299.5249 1353.8501,-298.5548 1355.5479,-305.3458"/>
</g>
<!-- Node17&#45;&gt;Node3 -->
<g id="edge19" class="edge">
<title>Node17&#45;&gt;Node3</title>
<path fill="none" stroke="#191970" d="M1197.4723,-171.9538C1124.6712,-161.2252 973.6717,-138.9727 900.3126,-128.1619"/>
<polygon fill="#191970" stroke="#191970" points="900.4745,-124.648 890.071,-126.6526 899.4539,-131.5732 900.4745,-124.648"/>
</g>
<!-- Node20&#45;&gt;Node17 -->
<g id="edge23" class="edge">
<title>Node20&#45;&gt;Node17</title>
<path fill="none" stroke="#191970" d="M777.8467,-337.1617C780.7714,-336.7561 783.6692,-336.3661 786.5,-336 938.5158,-316.3405 987.508,-357.7372 1129.5,-300 1166.7295,-284.8616 1174.2213,-274.4079 1200.5,-244 1212.8831,-229.6712 1223.3052,-210.7152 1230.0841,-196.7956"/>
<polygon fill="#191970" stroke="#191970" points="1233.2779,-198.2285 1234.3524,-187.6883 1226.9394,-195.2579 1233.2779,-198.2285"/>
</g>
<!-- Node21 -->
<g id="node22" class="node">
<title>Node21</title>
<g id="a_node22"><a xlink:href="../../d8/dff/GPUTPCRow_8h.html" target="_top" xlink:title="GPUTPCRow.h">
<polygon fill="none" stroke="#000000" points="1035,-280.5 1035,-299.5 1120,-299.5 1120,-280.5 1035,-280.5"/>
<text text-anchor="middle" x="1077.5" y="-287.5" font-family="Helvetica,sans-Serif" font-size="10.00" fill="#000000">GPUTPCRow.h</text>
</a>
</g>
</g>
<!-- Node20&#45;&gt;Node21 -->
<g id="edge24" class="edge">
<title>Node20&#45;&gt;Node21</title>
<path fill="none" stroke="#191970" d="M777.5166,-337.1884C845.2648,-326.5314 958.4385,-308.7288 1024.7064,-298.3046"/>
<polygon fill="#191970" stroke="#191970" points="1025.5905,-301.7087 1034.9251,-296.6972 1024.5027,-294.7937 1025.5905,-301.7087"/>
</g>
<!-- Node23 -->
<g id="node24" class="node">
<title>Node23</title>
<g id="a_node24"><a xlink:href="../../d6/da2/GPUCommonMath_8h.html" target="_top" xlink:title="GPUCommonMath.h">
<polygon fill="none" stroke="#000000" points="290,-168.5 290,-187.5 405,-187.5 405,-168.5 290,-168.5"/>
<text text-anchor="middle" x="347.5" y="-175.5" font-family="Helvetica,sans-Serif" font-size="10.00" fill="#000000">GPUCommonMath.h</text>
</a>
</g>
</g>
<!-- Node20&#45;&gt;Node23 -->
<g id="edge28" class="edge">
<title>Node20&#45;&gt;Node23</title>
<path fill="none" stroke="#191970" d="M677.0753,-336.4727C616.7902,-322.3117 507.0221,-292.0922 423.5,-244 400.4997,-230.7564 378.0409,-209.9973 363.5762,-195.3013"/>
<polygon fill="#191970" stroke="#191970" points="365.8636,-192.6303 356.4101,-187.8468 360.8172,-197.4815 365.8636,-192.6303"/>
</g>
<!-- Node20&#45;&gt;Node26 -->
<g id="edge32" class="edge">
<title>Node20&#45;&gt;Node26</title>
<path fill="none" stroke="#191970" d="M665.4262,-338.7279C601.2686,-330.2303 493.1118,-315.365 400.5,-300 399.0566,-299.7605 397.592,-299.5131 396.1142,-299.2594"/>
<polygon fill="#191970" stroke="#191970" points="396.7088,-295.8103 386.2522,-297.516 395.4902,-302.7035 396.7088,-295.8103"/>
</g>
<!-- Node30 -->
<g id="node31" class="node">
<title>Node30</title>
<g id="a_node31"><a xlink:href="../../d5/da6/GPUMemoryResource_8h.html" target="_top" xlink:title="GPUMemoryResource.h">
<polygon fill="none" stroke="#000000" points="666,-224.5 666,-243.5 797,-243.5 797,-224.5 666,-224.5"/>
<text text-anchor="middle" x="731.5" y="-231.5" font-family="Helvetica,sans-Serif" font-size="10.00" fill="#000000">GPUMemoryResource.h</text>
</a>
</g>
</g>
<!-- Node20&#45;&gt;Node30 -->
<g id="edge42" class="edge">
<title>Node20&#45;&gt;Node30</title>
<path fill="none" stroke="#191970" d="M722.3526,-336.4509C723.9836,-318.184 727.5754,-277.9553 729.7413,-253.6976"/>
<polygon fill="#191970" stroke="#191970" points="733.2463,-253.7966 730.6496,-243.5249 726.274,-253.174 733.2463,-253.7966"/>
</g>
<!-- Node21&#45;&gt;Node17 -->
<g id="edge25" class="edge">
<title>Node21&#45;&gt;Node17</title>
<path fill="none" stroke="#191970" d="M1077.5834,-280.0814C1078.2455,-265.7877 1081.5759,-239.4245 1096.5,-224 1109.3334,-210.7363 1151.8468,-197.9916 1187.0391,-189.2946"/>
<polygon fill="#191970" stroke="#191970" points="1188.3108,-192.5883 1197.2112,-186.8409 1186.6693,-185.7835 1188.3108,-192.5883"/>
</g>
<!-- Node22 -->
<g id="node23" class="node">
<title>Node22</title>
<g id="a_node23"><a xlink:href="../../d3/da7/GPUTPCGrid_8h.html" target="_top" xlink:title="GPUTPCGrid.h">
<polygon fill="none" stroke="#000000" points="1105.5,-224.5 1105.5,-243.5 1191.5,-243.5 1191.5,-224.5 1105.5,-224.5"/>
<text text-anchor="middle" x="1148.5" y="-231.5" font-family="Helvetica,sans-Serif" font-size="10.00" fill="#000000">GPUTPCGrid.h</text>
</a>
</g>
</g>
<!-- Node21&#45;&gt;Node22 -->
<g id="edge26" class="edge">
<title>Node21&#45;&gt;Node22</title>
<path fill="none" stroke="#191970" d="M1089.8673,-280.2455C1100.4554,-271.8943 1115.9064,-259.7076 1128.2893,-249.9408"/>
<polygon fill="#191970" stroke="#191970" points="1130.5903,-252.5837 1136.2745,-243.6427 1126.2553,-247.0875 1130.5903,-252.5837"/>
</g>
<!-- Node22&#45;&gt;Node17 -->
<g id="edge27" class="edge">
<title>Node22&#45;&gt;Node17</title>
<path fill="none" stroke="#191970" d="M1164.1768,-224.2455C1177.9856,-215.6534 1198.3193,-203.0014 1214.2292,-193.1018"/>
<polygon fill="#191970" stroke="#191970" points="1216.3613,-195.8974 1223.0028,-187.6427 1212.6632,-189.954 1216.3613,-195.8974"/>
</g>
<!-- Node23&#45;&gt;Node4 -->
<g id="edge29" class="edge">
<title>Node23&#45;&gt;Node4</title>
<path fill="none" stroke="#191970" d="M316.8745,-168.4174C285.0544,-156.8914 242.4909,-136.0618 262.5,-112 285.489,-84.3548 381.0309,-73.2485 446.5861,-68.8382"/>
<polygon fill="#191970" stroke="#191970" points="447.0765,-72.3142 456.8341,-68.1864 446.6321,-65.3283 447.0765,-72.3142"/>
</g>
<!-- Node24 -->
<g id="node25" class="node">
<title>Node24</title>
<polygon fill="none" stroke="#bfbfbf" points="354,-112.5 354,-131.5 401,-131.5 401,-112.5 354,-112.5"/>
<text text-anchor="middle" x="377.5" y="-119.5" font-family="Helvetica,sans-Serif" font-size="10.00" fill="#000000">cmath</text>
</g>
<!-- Node23&#45;&gt;Node24 -->
<g id="edge30" class="edge">
<title>Node23&#45;&gt;Node24</title>
<path fill="none" stroke="#191970" d="M352.7256,-168.2455C356.8123,-160.617 362.6135,-149.7881 367.575,-140.5267"/>
<polygon fill="#191970" stroke="#191970" points="370.6972,-142.1103 372.3343,-131.6427 364.5268,-138.8047 370.6972,-142.1103"/>
</g>
<!-- Node25 -->
<g id="node26" class="node">
<title>Node25</title>
<polygon fill="none" stroke="#bfbfbf" points="271.5,-112.5 271.5,-131.5 335.5,-131.5 335.5,-112.5 271.5,-112.5"/>
<text text-anchor="middle" x="303.5" y="-119.5" font-family="Helvetica,sans-Serif" font-size="10.00" fill="#000000">algorithm</text>
</g>
<!-- Node23&#45;&gt;Node25 -->
<g id="edge31" class="edge">
<title>Node23&#45;&gt;Node25</title>
<path fill="none" stroke="#191970" d="M339.8358,-168.2455C333.6527,-160.3761 324.7937,-149.101 317.3711,-139.6542"/>
<polygon fill="#191970" stroke="#191970" points="320.0068,-137.3435 311.0764,-131.6427 314.5025,-141.6683 320.0068,-137.3435"/>
</g>
<!-- Node26&#45;&gt;Node3 -->
<g id="edge35" class="edge">
<title>Node26&#45;&gt;Node3</title>
<path fill="none" stroke="#191970" d="M386.1589,-288.1217C490.3327,-282.7826 771.4185,-266.441 806.5,-244 841.4459,-221.6457 852.9594,-170.325 856.714,-141.8849"/>
<polygon fill="#191970" stroke="#191970" points="860.2345,-141.8948 857.865,-131.5683 853.2777,-141.1185 860.2345,-141.8948"/>
</g>
<!-- Node26&#45;&gt;Node4 -->
<g id="edge33" class="edge">
<title>Node26&#45;&gt;Node4</title>
<path fill="none" stroke="#191970" d="M308.9313,-280.6968C276.7087,-272.0517 234.4732,-258.3776 224.5,-244 200.2898,-209.0979 154.3467,-203.8669 253.5,-112 280.9751,-86.5439 380.0837,-74.7842 446.8862,-69.646"/>
<polygon fill="#191970" stroke="#191970" points="447.1896,-73.1333 456.9046,-68.9061 446.674,-66.1523 447.1896,-73.1333"/>
</g>
<!-- Node26&#45;&gt;Node23 -->
<g id="edge34" class="edge">
<title>Node26&#45;&gt;Node23</title>
<path fill="none" stroke="#191970" d="M347.5,-280.4509C347.5,-262.184 347.5,-221.9553 347.5,-197.6976"/>
<polygon fill="#191970" stroke="#191970" points="351.0001,-197.5249 347.5,-187.5249 344.0001,-197.5249 351.0001,-197.5249"/>
</g>
<!-- Node27 -->
<g id="node28" class="node">
<title>Node27</title>
<g id="a_node28"><a xlink:href="../../dd/dc6/GPUSettings_8h.html" target="_top" xlink:title="GPUSettings.h">
<polygon fill="none" stroke="#000000" points="233.5,-224.5 233.5,-243.5 319.5,-243.5 319.5,-224.5 233.5,-224.5"/>
<text text-anchor="middle" x="276.5" y="-231.5" font-family="Helvetica,sans-Serif" font-size="10.00" fill="#000000">GPUSettings.h</text>
</a>
</g>
</g>
<!-- Node26&#45;&gt;Node27 -->
<g id="edge36" class="edge">
<title>Node26&#45;&gt;Node27</title>
<path fill="none" stroke="#191970" d="M335.1327,-280.2455C324.5446,-271.8943 309.0936,-259.7076 296.7107,-249.9408"/>
<polygon fill="#191970" stroke="#191970" points="298.7447,-247.0875 288.7255,-243.6427 294.4097,-252.5837 298.7447,-247.0875"/>
</g>
<!-- Node28 -->
<g id="node29" class="node">
<title>Node28</title>
<g id="a_node29"><a xlink:href="../../d6/d1b/GPUTPCGeometry_8h.html" target="_top" xlink:title="GPUTPCGeometry.h">
<polygon fill="none" stroke="#000000" points="419,-112.5 419,-131.5 532,-131.5 532,-112.5 419,-112.5"/>
<text text-anchor="middle" x="475.5" y="-119.5" font-family="Helvetica,sans-Serif" font-size="10.00" fill="#000000">GPUTPCGeometry.h</text>
</a>
</g>
</g>
<!-- Node26&#45;&gt;Node28 -->
<g id="edge38" class="edge">
<title>Node26&#45;&gt;Node28</title>
<path fill="none" stroke="#191970" d="M354.7486,-280.4862C375.4204,-253.3545 434.9059,-175.2798 461.8942,-139.8576"/>
<polygon fill="#191970" stroke="#191970" points="464.7356,-141.9034 468.0121,-131.8279 459.1676,-137.6611 464.7356,-141.9034"/>
</g>
<!-- Node29 -->
<g id="node30" class="node">
<title>Node29</title>
<g id="a_node30"><a xlink:href="../../d9/d9c/GPUTPCGMPolynomialField_8h.html" target="_top" xlink:title="GPUTPCGMPolynomialField.h">
<polygon fill="none" stroke="#000000" points="891.5,-224.5 891.5,-243.5 1049.5,-243.5 1049.5,-224.5 891.5,-224.5"/>
<text text-anchor="middle" x="970.5" y="-231.5" font-family="Helvetica,sans-Serif" font-size="10.00" fill="#000000">GPUTPCGMPolynomialField.h</text>
</a>
</g>
</g>
<!-- Node26&#45;&gt;Node29 -->
<g id="edge40" class="edge">
<title>Node26&#45;&gt;Node29</title>
<path fill="none" stroke="#191970" d="M386.0013,-286.5392C483.7029,-277.757 743.2689,-254.4253 881.2891,-242.019"/>
<polygon fill="#191970" stroke="#191970" points="881.7718,-245.4898 891.4182,-241.1085 881.145,-238.5179 881.7718,-245.4898"/>
</g>
<!-- Node27&#45;&gt;Node23 -->
<g id="edge37" class="edge">
<title>Node27&#45;&gt;Node23</title>
<path fill="none" stroke="#191970" d="M288.8673,-224.2455C299.4554,-215.8943 314.9064,-203.7076 327.2893,-193.9408"/>
<polygon fill="#191970" stroke="#191970" points="329.5903,-196.5837 335.2745,-187.6427 325.2553,-191.0875 329.5903,-196.5837"/>
</g>
<!-- Node28&#45;&gt;Node4 -->
<g id="edge39" class="edge">
<title>Node28&#45;&gt;Node4</title>
<path fill="none" stroke="#191970" d="M481.5965,-112.2455C486.4145,-104.5367 493.2751,-93.5598 499.1032,-84.2348"/>
<polygon fill="#191970" stroke="#191970" points="502.1413,-85.9777 504.4733,-75.6427 496.2053,-82.2677 502.1413,-85.9777"/>
</g>
<!-- Node29&#45;&gt;Node17 -->
<g id="edge41" class="edge">
<title>Node29&#45;&gt;Node17</title>
<path fill="none" stroke="#191970" d="M1016.2663,-224.4369C1063.8202,-214.5003 1138.0619,-198.9871 1187.477,-188.6615"/>
<polygon fill="#191970" stroke="#191970" points="1188.2471,-192.0763 1197.3198,-186.6048 1186.8153,-185.2243 1188.2471,-192.0763"/>
</g>
<!-- Node30&#45;&gt;Node4 -->
<g id="edge43" class="edge">
<title>Node30&#45;&gt;Node4</title>
<path fill="none" stroke="#191970" d="M731.0534,-224.4409C729.4475,-201.4755 722.0918,-142.8213 688.5,-112 671.6995,-96.5851 618.2107,-84.0486 574.2171,-75.9789"/>
<polygon fill="#191970" stroke="#191970" points="574.5911,-72.4904 564.1311,-74.1752 573.3588,-79.3811 574.5911,-72.4904"/>
</g>
<!-- Node30&#45;&gt;Node31 -->
<g id="edge44" class="edge">
<title>Node30&#45;&gt;Node31</title>
<path fill="none" stroke="#191970" d="M740.5577,-224.2455C748.0142,-216.2155 758.7634,-204.6394 767.6417,-195.0781"/>
<polygon fill="#191970" stroke="#191970" points="770.3063,-197.3522 774.5461,-187.6427 765.1768,-192.589 770.3063,-197.3522"/>
</g>
<!-- Node31&#45;&gt;Node3 -->
<g id="edge46" class="edge">
<title>Node31&#45;&gt;Node3</title>
<path fill="none" stroke="#191970" d="M796.564,-168.2455C807.8562,-159.814 824.3845,-147.4729 837.5271,-137.6598"/>
<polygon fill="#191970" stroke="#191970" points="839.6669,-140.4301 845.5857,-131.6427 835.4789,-134.8211 839.6669,-140.4301"/>
</g>
<!-- Node31&#45;&gt;Node4 -->
<g id="edge45" class="edge">
<title>Node31&#45;&gt;Node4</title>
<path fill="none" stroke="#191970" d="M777.336,-168.176C767.5849,-153.5046 747.1547,-126.0904 722.5,-112 697.541,-97.7356 626.9598,-84.1257 574.0443,-75.4623"/>
<polygon fill="#191970" stroke="#191970" points="574.4801,-71.9874 564.0502,-73.85 573.3652,-78.8981 574.4801,-71.9874"/>
</g>
<!-- Node31&#45;&gt;Node14 -->
<g id="edge47" class="edge">
<title>Node31&#45;&gt;Node14</title>
<path fill="none" stroke="#191970" d="M761.1522,-168.3733C740.0967,-159.3032 708.3505,-145.6279 684.7825,-135.4755"/>
<polygon fill="#191970" stroke="#191970" points="686.125,-132.243 675.5562,-131.5011 683.3556,-138.6719 686.125,-132.243"/>
</g>
<!-- Node31&#45;&gt;Node25 -->
<g id="edge48" class="edge">
<title>Node31&#45;&gt;Node25</title>
<path fill="none" stroke="#191970" d="M736.6449,-172.9967C721.5908,-171.3942 704.8419,-169.6165 689.5,-168 539.4768,-152.1928 498.1633,-158.0575 345.8388,-132.0357"/>
<polygon fill="#191970" stroke="#191970" points="346.0924,-128.5278 335.6426,-130.275 344.9012,-135.4257 346.0924,-128.5278"/>
</g>
<!-- Node32&#45;&gt;Node17 -->
<g id="edge52" class="edge">
<title>Node32&#45;&gt;Node17</title>
<path fill="none" stroke="#191970" d="M1268.6864,-280.4509C1263.2798,-262.1013 1251.3437,-221.5908 1244.207,-197.3693"/>
<polygon fill="#191970" stroke="#191970" points="1247.4901,-196.128 1241.3064,-187.5249 1240.7755,-198.1064 1247.4901,-196.128"/>
</g>
<!-- Node32&#45;&gt;Node23 -->
<g id="edge53" class="edge">
<title>Node32&#45;&gt;Node23</title>
<path fill="none" stroke="#191970" d="M1210.3552,-285.4938C1185.3009,-283.6996 1156.0149,-281.6689 1129.5,-280 985.3413,-270.9263 620.1623,-280.8579 480.5,-244 439.4343,-233.1625 396.1356,-208.9354 370.4894,-193.0436"/>
<polygon fill="#191970" stroke="#191970" points="372.2006,-189.9849 361.8763,-187.6061 368.4638,-195.904 372.2006,-189.9849"/>
</g>
<!-- Node33 -->
<g id="node34" class="node">
<title>Node33</title>
<g id="a_node34"><a xlink:href="../../df/d00/GPUTPCBaseTrackParam_8h.html" target="_top" xlink:title="GPUTPCBaseTrackParam.h">
<polygon fill="none" stroke="#000000" points="1285.5,-224.5 1285.5,-243.5 1431.5,-243.5 1431.5,-224.5 1285.5,-224.5"/>
<text text-anchor="middle" x="1358.5" y="-231.5" font-family="Helvetica,sans-Serif" font-size="10.00" fill="#000000">GPUTPCBaseTrackParam.h</text>
</a>
</g>
</g>
<!-- Node32&#45;&gt;Node33 -->
<g id="edge50" class="edge">
<title>Node32&#45;&gt;Node33</title>
<path fill="none" stroke="#191970" d="M1286.6542,-280.2455C1300.0027,-271.6534 1319.6586,-259.0014 1335.0383,-249.1018"/>
<polygon fill="#191970" stroke="#191970" points="1337.0051,-251.9982 1343.5194,-243.6427 1333.2164,-246.1121 1337.0051,-251.9982"/>
</g>
<!-- Node33&#45;&gt;Node17 -->
<g id="edge51" class="edge">
<title>Node33&#45;&gt;Node17</title>
<path fill="none" stroke="#191970" d="M1337.8713,-224.3733C1318.6081,-215.3838 1289.6514,-201.8706 1267.9581,-191.7471"/>
<polygon fill="#191970" stroke="#191970" points="1269.4015,-188.5584 1258.8595,-187.5011 1266.4413,-194.9017 1269.4015,-188.5584"/>
</g>
<!-- Node34&#45;&gt;Node17 -->
<g id="edge56" class="edge">
<title>Node34&#45;&gt;Node17</title>
<path fill="none" stroke="#191970" d="M1415.0214,-280.476C1431.0731,-267.1188 1455.1783,-242.3967 1440.5,-224 1421.9549,-200.757 1343.1004,-188.349 1289.5773,-182.4759"/>
<polygon fill="#191970" stroke="#191970" points="1289.8792,-178.9884 1279.5673,-181.4206 1289.1452,-185.9498 1289.8792,-178.9884"/>
</g>
<!-- Node34&#45;&gt;Node33 -->
<g id="edge55" class="edge">
<title>Node34&#45;&gt;Node33</title>
<path fill="none" stroke="#191970" d="M1394.8358,-280.2455C1388.6527,-272.3761 1379.7937,-261.101 1372.3711,-251.6542"/>
<polygon fill="#191970" stroke="#191970" points="1375.0068,-249.3435 1366.0764,-243.6427 1369.5025,-253.6683 1375.0068,-249.3435"/>
</g>
<!-- Node35&#45;&gt;Node4 -->
<g id="edge61" class="edge">
<title>Node35&#45;&gt;Node4</title>
<path fill="none" stroke="#191970" d="M231.785,-392.4453C209.9149,-374.8115 167.5,-334.8332 167.5,-290 167.5,-290 167.5,-290 167.5,-178 167.5,-137.7538 193.9791,-130.9213 229.5,-112 266.1467,-92.479 375.6977,-78.7697 446.6925,-71.6507"/>
<polygon fill="#191970" stroke="#191970" points="447.2653,-75.1113 456.8742,-70.6482 446.5793,-68.145 447.2653,-75.1113"/>
</g>
<!-- Node36&#45;&gt;Node4 -->
<g id="edge63" class="edge">
<title>Node36&#45;&gt;Node4</title>
<path fill="none" stroke="#191970" d="M550.3958,-224.1856C551.982,-203.0335 553.9581,-151.8398 540.5,-112 537.0939,-101.917 530.9544,-91.8812 525.1127,-83.7686"/>
<polygon fill="#191970" stroke="#191970" points="527.8853,-81.6324 519.0343,-75.8091 522.322,-85.8809 527.8853,-81.6324"/>
</g>
<!-- Node36&#45;&gt;Node13 -->
<g id="edge64" class="edge">
<title>Node36&#45;&gt;Node13</title>
<path fill="none" stroke="#191970" d="M563.7833,-224.2455C576.247,-215.7337 594.5451,-203.2375 608.9792,-193.3801"/>
<polygon fill="#191970" stroke="#191970" points="611.0962,-196.1726 617.3804,-187.6427 607.1485,-190.392 611.0962,-196.1726"/>
</g>
<!-- Node37&#45;&gt;Node2 -->
<g id="edge67" class="edge">
<title>Node37&#45;&gt;Node2</title>
<path fill="none" stroke="#191970" d="M1626.9649,-280.2455C1620.0088,-272.2958 1610.0117,-260.8706 1601.6949,-251.3656"/>
<polygon fill="#191970" stroke="#191970" points="1604.1564,-248.8637 1594.9373,-243.6427 1598.8884,-253.4732 1604.1564,-248.8637"/>
</g>
<!-- Node37&#45;&gt;Node17 -->
<g id="edge66" class="edge">
<title>Node37&#45;&gt;Node17</title>
<path fill="none" stroke="#191970" d="M1643.7724,-280.2653C1654.6936,-266.2006 1670.9432,-240.1199 1656.5,-224 1632.4246,-197.1298 1396.317,-184.3295 1289.9678,-179.8913"/>
<polygon fill="#191970" stroke="#191970" points="1289.9224,-176.3866 1279.7879,-179.4755 1289.6367,-183.3808 1289.9224,-176.3866"/>
</g>
<!-- Node38&#45;&gt;Node4 -->
<g id="edge69" class="edge">
<title>Node38&#45;&gt;Node4</title>
<path fill="none" stroke="#191970" d="M78.228,-168.4061C92.4034,-153.5187 122.0296,-125.1965 153.5,-112 204.9853,-90.4107 358.5097,-76.5497 446.5562,-70.146"/>
<polygon fill="#191970" stroke="#191970" points="446.9715,-73.6253 456.6962,-69.4204 446.4718,-66.6432 446.9715,-73.6253"/>
</g>
<!-- Node38&#45;&gt;Node25 -->
<g id="edge70" class="edge">
<title>Node38&#45;&gt;Node25</title>
<path fill="none" stroke="#191970" d="M109.4602,-168.4369C151.7561,-158.3148 218.2322,-142.406 261.3433,-132.0888"/>
<polygon fill="#191970" stroke="#191970" points="262.326,-135.4525 271.2368,-129.7211 260.6968,-128.6447 262.326,-135.4525"/>
</g>
</g>
</svg>
        <g id="navigator" transform="translate(0 0)" fill="#404254">
                <rect fill="#f2f5e9" fill-opacity="0.5" stroke="#606060" stroke-width=".5" x="0" y="0" width="60" height="60"/>
                <use id="zoomplus" xlink:href="#zoomPlus" x="17" y="9" onmousedown="handleZoom(evt,'in')"/>
                <use id="zoomminus" xlink:href="#zoomMin" x="42" y="9" onmousedown="handleZoom(evt,'out')"/>
                <use id="reset" xlink:href="#resetDef" x="30" y="36" onmousedown="handleReset()"/>
                <g id="arrowUp" xlink:href="#dirArrow" transform="translate(30 24)" onmousedown="handlePan(0,-1)">
                  <use xlink:href="#rim" fill="#404040">
                        <set attributeName="fill" to="#808080" begin="arrowUp.mouseover" end="arrowUp.mouseout"/>
                  </use>
                  <path fill="none" stroke="white" stroke-width="1.5" d="M0,-3.0v7 M-2.5,-0.5L0,-3.0L2.5,-0.5"/>
                </g>
                <g id="arrowRight" xlink:href="#dirArrow" transform="rotate(90) translate(36 -43)" onmousedown="handlePan(1,0)">
                  <use xlink:href="#rim" fill="#404040">
                        <set attributeName="fill" to="#808080" begin="arrowRight.mouseover" end="arrowRight.mouseout"/>
                  </use>
                  <path fill="none" stroke="white" stroke-width="1.5" d="M0,-3.0v7 M-2.5,-0.5L0,-3.0L2.5,-0.5"/>
                </g>
                <g id="arrowDown" xlink:href="#dirArrow" transform="rotate(180) translate(-30 -48)" onmousedown="handlePan(0,1)">
                  <use xlink:href="#rim" fill="#404040">
                        <set attributeName="fill" to="#808080" begin="arrowDown.mouseover" end="arrowDown.mouseout"/>
                  </use>
                  <path fill="none" stroke="white" stroke-width="1.5" d="M0,-3.0v7 M-2.5,-0.5L0,-3.0L2.5,-0.5"/>
                </g>
                <g id="arrowLeft" xlink:href="#dirArrow" transform="rotate(270) translate(-36 17)" onmousedown="handlePan(-1,0)">
                  <use xlink:href="#rim" fill="#404040">
                        <set attributeName="fill" to="#808080" begin="arrowLeft.mouseover" end="arrowLeft.mouseout"/>
                  </use>
                  <path fill="none" stroke="white" stroke-width="1.5" d="M0,-3.0v7 M-2.5,-0.5L0,-3.0L2.5,-0.5"/>
                </g>
        </g>
        <svg viewBox="0 0 15 15" width="100%" height="30px" preserveAspectRatio="xMaxYMin meet">
         <g id="arrow_out" transform="scale(0.3 0.3)">
          <a xlink:href="GPUTPCGMMergerGPU_8cxx__incl_org.svg" target="_base">
           <rect id="button" ry="5" rx="5" y="6" x="6" height="38" width="38"
                fill="#f2f5e9" fill-opacity="0.5" stroke="#606060" stroke-width="1.0"/>
           <path id="arrow"
             d="M 11.500037,31.436501 C 11.940474,20.09759 22.043105,11.32322 32.158766,21.979434 L 37.068811,17.246167 C 37.068811,17.246167 37.088388,32 37.088388,32 L 22.160133,31.978069 C 22.160133,31.978069 26.997745,27.140456 26.997745,27.140456 C 18.528582,18.264221 13.291696,25.230495 11.500037,31.436501 z"
             style="fill:#404040;"/>
          </a>
         </g>
        </svg>
</svg>
