<?xml version="1.0" encoding="UTF-8" standalone="no"?>
<!DOCTYPE svg PUBLIC "-//W3C//DTD SVG 1.1//EN"
 "http://www.w3.org/Graphics/SVG/1.1/DTD/svg11.dtd">
<!-- Generated by graphviz version 2.40.1 (20161225.0304)
 -->
<!-- Title: o2::itsmft::ITSMFTDPLDigitWriter Pages: 1 -->
<svg width="931pt" height="986pt"
 viewBox="0.00 0.00 931.29 986.00" xmlns="http://www.w3.org/2000/svg" xmlns:xlink="http://www.w3.org/1999/xlink">
<g id="graph0" class="graph" transform="scale(1 1) rotate(0) translate(4 982)">
<title>o2::itsmft::ITSMFTDPLDigitWriter</title>
<!-- Node3 -->
<g id="node1" class="node">
<title>Node3</title>
<polygon fill="#bfbfbf" stroke="#000000" points="454.2873,-.5 454.2873,-101.5 600.2873,-101.5 600.2873,-.5 454.2873,-.5"/>
<text text-anchor="start" x="462.2873" y="-89.5" font-family="Helvetica,sans-Serif" font-size="10.00" fill="#000000">o2::itsmft::ITSMFTDPLDigit</text>
<text text-anchor="middle" x="527.2873" y="-78.5" font-family="Helvetica,sans-Serif" font-size="10.00" fill="#000000">Writer</text>
<polyline fill="none" stroke="#000000" points="454.2873,-71.5 600.2873,-71.5 "/>
<text text-anchor="middle" x="527.2873" y="-59.5" font-family="Helvetica,sans-Serif" font-size="10.00" fill="#000000"> </text>
<polyline fill="none" stroke="#000000" points="454.2873,-52.5 600.2873,-52.5 "/>
<text text-anchor="start" x="462.2873" y="-40.5" font-family="Helvetica,sans-Serif" font-size="10.00" fill="#000000">+ init()</text>
<text text-anchor="start" x="462.2873" y="-29.5" font-family="Helvetica,sans-Serif" font-size="10.00" fill="#000000">+ run()</text>
<text text-anchor="start" x="462.2873" y="-18.5" font-family="Helvetica,sans-Serif" font-size="10.00" fill="#000000"># ITSMFTDPLDigitWriter()</text>
<text text-anchor="start" x="462.2873" y="-7.5" font-family="Helvetica,sans-Serif" font-size="10.00" fill="#000000"># fillBranch()</text>
</g>
<!-- Node4 -->
<g id="node2" class="node">
<title>Node4</title>
<polygon fill="none" stroke="#bfbfbf" points="102.2873,-287 102.2873,-355 208.2873,-355 208.2873,-287 102.2873,-287"/>
<text text-anchor="start" x="110.2873" y="-343" font-family="Helvetica,sans-Serif" font-size="10.00" fill="#000000">vector&lt; o2::itsmft</text>
<text text-anchor="middle" x="155.2873" y="-332" font-family="Helvetica,sans-Serif" font-size="10.00" fill="#000000">::Digit &gt;</text>
<polyline fill="none" stroke="#bfbfbf" points="102.2873,-325 208.2873,-325 "/>
<text text-anchor="middle" x="155.2873" y="-313" font-family="Helvetica,sans-Serif" font-size="10.00" fill="#000000"> </text>
<polyline fill="none" stroke="#bfbfbf" points="102.2873,-306 208.2873,-306 "/>
<text text-anchor="middle" x="155.2873" y="-294" font-family="Helvetica,sans-Serif" font-size="10.00" fill="#000000"> </text>
</g>
<!-- Node4&#45;&gt;Node3 -->
<g id="edge1" class="edge">
<title>Node4&#45;&gt;Node3</title>
<path fill="none" stroke="#404040" d="M160.5429,-286.6772C167.6595,-250.9309 183.5775,-195.3166 217.2873,-160 276.2775,-98.1979 372.3373,-71.4017 441.9083,-59.8048"/>
<polygon fill="none" stroke="#404040" points="442.2859,-59.7453 447.5896,-54.8595 454.1395,-57.876 448.8358,-62.7618 442.2859,-59.7453"/>
<text text-anchor="middle" x="290.2873" y="-128.5" font-family="Helvetica,sans-Serif" font-size="10.00" fill="#000000"> #mDigits</text>
</g>
<!-- Node5 -->
<g id="node3" class="node">
<title>Node5</title>
<g id="a_node3"><a xlink:href="../../d9/db3/structo2_1_1header_1_1Descriptor.html" target="_top" xlink:title="{o2::header::Descriptor\l\&lt; gSizeDataOriginString,\l printDataOrigin \&gt;\n||+ Descriptor()\l+ Descriptor()\l+ Descriptor()\l+ Descriptor()\l+ operator=()\l+ operator ItgType()\l+ runtimeInit()\l+ operator==()\l+ operator==()\l+ operator\&lt;()\l+ operator!=()\l+ operator!=()\l+ as()\l+ print()\l}">
<polygon fill="none" stroke="#000000" points="226.2873,-210 226.2873,-432 364.2873,-432 364.2873,-210 226.2873,-210"/>
<text text-anchor="start" x="234.2873" y="-420" font-family="Helvetica,sans-Serif" font-size="10.00" fill="#000000">o2::header::Descriptor</text>
<text text-anchor="start" x="234.2873" y="-409" font-family="Helvetica,sans-Serif" font-size="10.00" fill="#000000">&lt; gSizeDataOriginString,</text>
<text text-anchor="middle" x="295.2873" y="-398" font-family="Helvetica,sans-Serif" font-size="10.00" fill="#000000"> printDataOrigin &gt;</text>
<polyline fill="none" stroke="#000000" points="226.2873,-391 364.2873,-391 "/>
<text text-anchor="middle" x="295.2873" y="-379" font-family="Helvetica,sans-Serif" font-size="10.00" fill="#000000"> </text>
<polyline fill="none" stroke="#000000" points="226.2873,-372 364.2873,-372 "/>
<text text-anchor="start" x="234.2873" y="-360" font-family="Helvetica,sans-Serif" font-size="10.00" fill="#000000">+ Descriptor()</text>
<text text-anchor="start" x="234.2873" y="-349" font-family="Helvetica,sans-Serif" font-size="10.00" fill="#000000">+ Descriptor()</text>
<text text-anchor="start" x="234.2873" y="-338" font-family="Helvetica,sans-Serif" font-size="10.00" fill="#000000">+ Descriptor()</text>
<text text-anchor="start" x="234.2873" y="-327" font-family="Helvetica,sans-Serif" font-size="10.00" fill="#000000">+ Descriptor()</text>
<text text-anchor="start" x="234.2873" y="-316" font-family="Helvetica,sans-Serif" font-size="10.00" fill="#000000">+ operator=()</text>
<text text-anchor="start" x="234.2873" y="-305" font-family="Helvetica,sans-Serif" font-size="10.00" fill="#000000">+ operator ItgType()</text>
<text text-anchor="start" x="234.2873" y="-294" font-family="Helvetica,sans-Serif" font-size="10.00" fill="#000000">+ runtimeInit()</text>
<text text-anchor="start" x="234.2873" y="-283" font-family="Helvetica,sans-Serif" font-size="10.00" fill="#000000">+ operator==()</text>
<text text-anchor="start" x="234.2873" y="-272" font-family="Helvetica,sans-Serif" font-size="10.00" fill="#000000">+ operator==()</text>
<text text-anchor="start" x="234.2873" y="-261" font-family="Helvetica,sans-Serif" font-size="10.00" fill="#000000">+ operator&lt;()</text>
<text text-anchor="start" x="234.2873" y="-250" font-family="Helvetica,sans-Serif" font-size="10.00" fill="#000000">+ operator!=()</text>
<text text-anchor="start" x="234.2873" y="-239" font-family="Helvetica,sans-Serif" font-size="10.00" fill="#000000">+ operator!=()</text>
<text text-anchor="start" x="234.2873" y="-228" font-family="Helvetica,sans-Serif" font-size="10.00" fill="#000000">+ as()</text>
<text text-anchor="start" x="234.2873" y="-217" font-family="Helvetica,sans-Serif" font-size="10.00" fill="#000000">+ print()</text>
</a>
</g>
</g>
<!-- Node5&#45;&gt;Node3 -->
<g id="edge2" class="edge">
<title>Node5&#45;&gt;Node3</title>
<path fill="none" stroke="#404040" d="M323.7111,-209.7981C336.0734,-177.8731 353.3775,-144.9803 377.2873,-120 395.2534,-101.2294 419.3026,-87.1007 442.8745,-76.6799"/>
<polygon fill="none" stroke="#404040" points="442.9474,-76.6494 446.9312,-70.6386 454.0119,-72.0042 450.028,-78.015 442.9474,-76.6494"/>
<text text-anchor="middle" x="402.7873" y="-128.5" font-family="Helvetica,sans-Serif" font-size="10.00" fill="#000000"> #mOrigin</text>
</g>
<!-- Node6 -->
<g id="node4" class="node">
<title>Node6</title>
<polygon fill="none" stroke="#bfbfbf" points="5.7873,-920.5 5.7873,-977.5 44.7873,-977.5 44.7873,-920.5 5.7873,-920.5"/>
<text text-anchor="middle" x="25.2873" y="-965.5" font-family="Helvetica,sans-Serif" font-size="10.00" fill="#000000">Type</text>
<polyline fill="none" stroke="#bfbfbf" points="5.7873,-958.5 44.7873,-958.5 "/>
<text text-anchor="middle" x="25.2873" y="-946.5" font-family="Helvetica,sans-Serif" font-size="10.00" fill="#000000"> </text>
<polyline fill="none" stroke="#bfbfbf" points="5.7873,-939.5 44.7873,-939.5 "/>
<text text-anchor="middle" x="25.2873" y="-927.5" font-family="Helvetica,sans-Serif" font-size="10.00" fill="#000000"> </text>
</g>
<!-- Node6&#45;&gt;Node5 -->
<g id="edge3" class="edge">
<title>Node6&#45;&gt;Node5</title>
<path fill="none" stroke="#404040" d="M18.5378,-920.4396C1.3591,-839.7455 -34.3836,-608.8671 89.2873,-500 132.4084,-462.0406 170.8563,-515.8306 217.2873,-482 231.5642,-471.5975 243.3474,-457.8704 253.0401,-442.8095"/>
<polygon fill="none" stroke="#404040" points="253.2389,-442.4789 252.9019,-435.2756 259.4215,-432.1941 259.7584,-439.3974 253.2389,-442.4789"/>
<text text-anchor="middle" x="24.7873" y="-742.5" font-family="Helvetica,sans-Serif" font-size="10.00" fill="#000000"> +itg</text>
</g>
<!-- Node10 -->
<g id="node8" class="node">
<title>Node10</title>
<g id="a_node8"><a xlink:href="../../d9/db3/structo2_1_1header_1_1Descriptor.html" target="_top" xlink:title="{o2::header::Descriptor\l\&lt; N, PrinterPolicy \&gt;\n||+ Descriptor()\l+ Descriptor()\l+ Descriptor()\l+ operator=()\l+ operator ItgType()\l+ Descriptor()\l+ runtimeInit()\l+ operator==()\l+ operator\&lt;()\l+ operator!=()\l+ operator==()\l+ operator!=()\l+ as()\l+ print()\l}">
<polygon fill="none" stroke="#000000" points="133.7873,-639.5 133.7873,-850.5 258.7873,-850.5 258.7873,-639.5 133.7873,-639.5"/>
<text text-anchor="start" x="141.7873" y="-838.5" font-family="Helvetica,sans-Serif" font-size="10.00" fill="#000000">o2::header::Descriptor</text>
<text text-anchor="middle" x="196.2873" y="-827.5" font-family="Helvetica,sans-Serif" font-size="10.00" fill="#000000">&lt; N, PrinterPolicy &gt;</text>
<polyline fill="none" stroke="#000000" points="133.7873,-820.5 258.7873,-820.5 "/>
<text text-anchor="middle" x="196.2873" y="-808.5" font-family="Helvetica,sans-Serif" font-size="10.00" fill="#000000"> </text>
<polyline fill="none" stroke="#000000" points="133.7873,-801.5 258.7873,-801.5 "/>
<text text-anchor="start" x="141.7873" y="-789.5" font-family="Helvetica,sans-Serif" font-size="10.00" fill="#000000">+ Descriptor()</text>
<text text-anchor="start" x="141.7873" y="-778.5" font-family="Helvetica,sans-Serif" font-size="10.00" fill="#000000">+ Descriptor()</text>
<text text-anchor="start" x="141.7873" y="-767.5" font-family="Helvetica,sans-Serif" font-size="10.00" fill="#000000">+ Descriptor()</text>
<text text-anchor="start" x="141.7873" y="-756.5" font-family="Helvetica,sans-Serif" font-size="10.00" fill="#000000">+ operator=()</text>
<text text-anchor="start" x="141.7873" y="-745.5" font-family="Helvetica,sans-Serif" font-size="10.00" fill="#000000">+ operator ItgType()</text>
<text text-anchor="start" x="141.7873" y="-734.5" font-family="Helvetica,sans-Serif" font-size="10.00" fill="#000000">+ Descriptor()</text>
<text text-anchor="start" x="141.7873" y="-723.5" font-family="Helvetica,sans-Serif" font-size="10.00" fill="#000000">+ runtimeInit()</text>
<text text-anchor="start" x="141.7873" y="-712.5" font-family="Helvetica,sans-Serif" font-size="10.00" fill="#000000">+ operator==()</text>
<text text-anchor="start" x="141.7873" y="-701.5" font-family="Helvetica,sans-Serif" font-size="10.00" fill="#000000">+ operator&lt;()</text>
<text text-anchor="start" x="141.7873" y="-690.5" font-family="Helvetica,sans-Serif" font-size="10.00" fill="#000000">+ operator!=()</text>
<text text-anchor="start" x="141.7873" y="-679.5" font-family="Helvetica,sans-Serif" font-size="10.00" fill="#000000">+ operator==()</text>
<text text-anchor="start" x="141.7873" y="-668.5" font-family="Helvetica,sans-Serif" font-size="10.00" fill="#000000">+ operator!=()</text>
<text text-anchor="start" x="141.7873" y="-657.5" font-family="Helvetica,sans-Serif" font-size="10.00" fill="#000000">+ as()</text>
<text text-anchor="start" x="141.7873" y="-646.5" font-family="Helvetica,sans-Serif" font-size="10.00" fill="#000000">+ print()</text>
</a>
</g>
</g>
<!-- Node6&#45;&gt;Node10 -->
<g id="edge8" class="edge">
<title>Node6&#45;&gt;Node10</title>
<path fill="none" stroke="#404040" d="M44.8216,-930.2002C64.4213,-910.9844 95.091,-879.9375 119.2873,-851 121.5442,-848.3008 123.8096,-845.5407 126.0741,-842.7371"/>
<polygon fill="none" stroke="#404040" points="126.2945,-842.4595 126.8929,-835.2732 133.7565,-833.0616 133.1581,-840.2479 126.2945,-842.4595"/>
<text text-anchor="middle" x="114.7873" y="-883" font-family="Helvetica,sans-Serif" font-size="10.00" fill="#000000"> +itg</text>
</g>
<!-- Node7 -->
<g id="node5" class="node">
<title>Node7</title>
<polygon fill="none" stroke="#bfbfbf" points="213.2873,-920.5 213.2873,-977.5 251.2873,-977.5 251.2873,-920.5 213.2873,-920.5"/>
<text text-anchor="middle" x="232.2873" y="-965.5" font-family="Helvetica,sans-Serif" font-size="10.00" fill="#000000">char</text>
<polyline fill="none" stroke="#bfbfbf" points="213.2873,-958.5 251.2873,-958.5 "/>
<text text-anchor="middle" x="232.2873" y="-946.5" font-family="Helvetica,sans-Serif" font-size="10.00" fill="#000000"> </text>
<polyline fill="none" stroke="#bfbfbf" points="213.2873,-939.5 251.2873,-939.5 "/>
<text text-anchor="middle" x="232.2873" y="-927.5" font-family="Helvetica,sans-Serif" font-size="10.00" fill="#000000"> </text>
</g>
<!-- Node7&#45;&gt;Node5 -->
<g id="edge4" class="edge">
<title>Node7&#45;&gt;Node5</title>
<path fill="none" stroke="#404040" d="M244.9008,-920.455C252.79,-901.2249 262.3599,-875.0712 267.2873,-851 295.3772,-713.7743 299.9799,-552.6357 299.0846,-444.3717"/>
<polygon fill="none" stroke="#404040" points="299.0818,-444.0937 295.02,-438.1354 298.9576,-432.0944 303.0195,-438.0526 299.0818,-444.0937"/>
<text text-anchor="middle" x="306.7873" y="-742.5" font-family="Helvetica,sans-Serif" font-size="10.00" fill="#000000"> +str</text>
</g>
<!-- Node7&#45;&gt;Node10 -->
<g id="edge9" class="edge">
<title>Node7&#45;&gt;Node10</title>
<path fill="none" stroke="#404040" d="M217.771,-920.4533C215.2401,-914.4834 212.9046,-908.1358 211.2873,-902 207.9745,-889.4318 205.3745,-876.1265 203.3369,-862.7896"/>
<polygon fill="none" stroke="#404040" points="203.2873,-862.4362 198.4922,-857.0505 201.6194,-850.5527 206.4145,-855.9385 203.2873,-862.4362"/>
<text text-anchor="middle" x="223.7873" y="-883" font-family="Helvetica,sans-Serif" font-size="10.00" fill="#000000"> +str</text>
</g>
<!-- Node8 -->
<g id="node6" class="node">
<title>Node8</title>
<polygon fill="none" stroke="#bfbfbf" points="341.7873,-920.5 341.7873,-977.5 370.7873,-977.5 370.7873,-920.5 341.7873,-920.5"/>
<text text-anchor="middle" x="356.2873" y="-965.5" font-family="Helvetica,sans-Serif" font-size="10.00" fill="#000000">int</text>
<polyline fill="none" stroke="#bfbfbf" points="341.7873,-958.5 370.7873,-958.5 "/>
<text text-anchor="middle" x="356.2873" y="-946.5" font-family="Helvetica,sans-Serif" font-size="10.00" fill="#000000"> </text>
<polyline fill="none" stroke="#bfbfbf" points="341.7873,-939.5 370.7873,-939.5 "/>
<text text-anchor="middle" x="356.2873" y="-927.5" font-family="Helvetica,sans-Serif" font-size="10.00" fill="#000000"> </text>
</g>
<!-- Node8&#45;&gt;Node3 -->
<g id="edge16" class="edge">
<title>Node8&#45;&gt;Node3</title>
<path fill="none" stroke="#404040" d="M370.8295,-928.3369C383.4239,-909.2406 400.8997,-879.5824 409.2873,-851 496.0075,-555.4819 367.3987,-453.3194 461.2873,-160 466.5242,-143.6392 474.6567,-127.1749 483.4462,-112.1752"/>
<polygon fill="none" stroke="#404040" points="483.686,-111.7816 483.3925,-104.5765 489.9305,-101.5343 490.224,-108.7395 483.686,-111.7816"/>
<text text-anchor="middle" x="485.2873" y="-563.5" font-family="Helvetica,sans-Serif" font-size="10.00" fill="#000000"> #mTreeNameDig</text>
<text text-anchor="middle" x="485.2873" y="-552.5" font-family="Helvetica,sans-Serif" font-size="10.00" fill="#000000">#mFileName</text>
</g>
<!-- Node8&#45;&gt;Node5 -->
<g id="edge5" class="edge">
<title>Node8&#45;&gt;Node5</title>
<path fill="none" stroke="#404040" d="M353.5077,-920.3843C345.4631,-837.5643 321.8066,-594.0184 307.2428,-444.0831"/>
<polygon fill="none" stroke="#404040" points="307.2403,-444.0566 302.6789,-438.4715 306.0801,-432.1128 310.6414,-437.698 307.2403,-444.0566"/>
<text text-anchor="middle" x="376.2873" y="-753.5" font-family="Helvetica,sans-Serif" font-size="10.00" fill="#000000"> +arraySize</text>
<text text-anchor="middle" x="376.2873" y="-742.5" font-family="Helvetica,sans-Serif" font-size="10.00" fill="#000000">+size</text>
<text text-anchor="middle" x="376.2873" y="-731.5" font-family="Helvetica,sans-Serif" font-size="10.00" fill="#000000">+bitcount</text>
</g>
<!-- Node8&#45;&gt;Node10 -->
<g id="edge10" class="edge">
<title>Node8&#45;&gt;Node10</title>
<path fill="none" stroke="#404040" d="M341.5514,-942.0821C325.8516,-934.1434 301.0045,-919.8846 284.2873,-902 272.7585,-889.6662 262.1762,-875.545 252.6544,-860.9403"/>
<polygon fill="none" stroke="#404040" points="252.6388,-860.9155 246.0536,-857.977 246.2333,-850.7682 252.8185,-853.7067 252.6388,-860.9155"/>
<text text-anchor="middle" x="313.2873" y="-894" font-family="Helvetica,sans-Serif" font-size="10.00" fill="#000000"> +arraySize</text>
<text text-anchor="middle" x="313.2873" y="-883" font-family="Helvetica,sans-Serif" font-size="10.00" fill="#000000">+size</text>
<text text-anchor="middle" x="313.2873" y="-872" font-family="Helvetica,sans-Serif" font-size="10.00" fill="#000000">+bitcount</text>
</g>
<!-- Node9 -->
<g id="node7" class="node">
<title>Node9</title>
<polygon fill="none" stroke="#bfbfbf" points="68.7873,-920.5 68.7873,-977.5 175.7873,-977.5 175.7873,-920.5 68.7873,-920.5"/>
<text text-anchor="middle" x="122.2873" y="-965.5" font-family="Helvetica,sans-Serif" font-size="10.00" fill="#000000">anonymous:+@38</text>
<polyline fill="none" stroke="#bfbfbf" points="68.7873,-958.5 175.7873,-958.5 "/>
<text text-anchor="middle" x="122.2873" y="-946.5" font-family="Helvetica,sans-Serif" font-size="10.00" fill="#000000"> </text>
<polyline fill="none" stroke="#bfbfbf" points="68.7873,-939.5 175.7873,-939.5 "/>
<text text-anchor="middle" x="122.2873" y="-927.5" font-family="Helvetica,sans-Serif" font-size="10.00" fill="#000000"> </text>
</g>
<!-- Node9&#45;&gt;Node5 -->
<g id="edge6" class="edge">
<title>Node9&#45;&gt;Node5</title>
<path fill="none" stroke="#404040" d="M110.3069,-920.4336C102.9047,-901.1945 94.1126,-875.0388 90.2873,-851 75.4799,-757.9486 76.8206,-732.2549 90.2873,-639 99.4929,-575.2521 83.9472,-543.6745 131.2873,-500 159.9889,-473.5207 186.5093,-506.0345 217.2873,-482 231.011,-471.2831 242.4646,-457.5388 251.9843,-442.607"/>
<polygon fill="none" stroke="#404040" points="252.1083,-442.3998 251.7567,-435.1972 258.27,-432.1025 258.6216,-439.305 252.1083,-442.3998"/>
<text text-anchor="middle" x="107.2873" y="-742.5" font-family="Helvetica,sans-Serif" font-size="10.00" fill="#000000"> +@38</text>
</g>
<!-- Node9&#45;&gt;Node10 -->
<g id="edge11" class="edge">
<title>Node9&#45;&gt;Node10</title>
<path fill="none" stroke="#404040" d="M132.7327,-920.2045C138.4663,-904.3984 145.9979,-883.6356 153.8638,-861.9513"/>
<polygon fill="none" stroke="#404040" points="153.9077,-861.8299 152.1935,-854.8255 157.9998,-850.5491 159.714,-857.5535 153.9077,-861.8299"/>
<text text-anchor="middle" x="168.2873" y="-883" font-family="Helvetica,sans-Serif" font-size="10.00" fill="#000000"> +@38</text>
</g>
<!-- Node10&#45;&gt;Node5 -->
<g id="edge7" class="edge">
<title>Node10&#45;&gt;Node5</title>
<path fill="none" stroke="#ffa500" d="M143.2374,-629.7535C131.1197,-585.4973 128.7609,-536.8223 156.2873,-500 173.2118,-477.3599 195.7277,-500.2811 217.2873,-482 233.2774,-468.4414 246.2581,-450.8396 256.7046,-432.2695"/>
<polygon fill="#ffa500" stroke="#ffa500" points="139.8958,-630.7968 146.0545,-639.4177 146.6161,-628.8377 139.8958,-630.7968"/>
<text text-anchor="start" x="156.2873" y="-563.5" font-family="Helvetica,sans-Serif" font-size="10.00" fill="#000000"> &lt; gSizeDataOriginString,</text>
<text text-anchor="middle" x="218.7873" y="-552.5" font-family="Helvetica,sans-Serif" font-size="10.00" fill="#000000"> printDataOrigin &gt;</text>
</g>
<!-- Node11 -->
<g id="node9" class="node">
<title>Node11</title>
<polygon fill="none" stroke="#bfbfbf" points="470.7873,-292.5 470.7873,-349.5 583.7873,-349.5 583.7873,-292.5 470.7873,-292.5"/>
<text text-anchor="middle" x="527.2873" y="-337.5" font-family="Helvetica,sans-Serif" font-size="10.00" fill="#000000">unique_ptr&lt; TFile &gt;</text>
<polyline fill="none" stroke="#bfbfbf" points="470.7873,-330.5 583.7873,-330.5 "/>
<text text-anchor="middle" x="527.2873" y="-318.5" font-family="Helvetica,sans-Serif" font-size="10.00" fill="#000000"> </text>
<polyline fill="none" stroke="#bfbfbf" points="470.7873,-311.5 583.7873,-311.5 "/>
<text text-anchor="middle" x="527.2873" y="-299.5" font-family="Helvetica,sans-Serif" font-size="10.00" fill="#000000"> </text>
</g>
<!-- Node11&#45;&gt;Node3 -->
<g id="edge12" class="edge">
<title>Node11&#45;&gt;Node3</title>
<path fill="none" stroke="#404040" d="M527.2873,-292.3609C527.2873,-250.1551 527.2873,-170.1779 527.2873,-113.8831"/>
<polygon fill="none" stroke="#404040" points="527.2874,-113.5433 523.2873,-107.5433 527.2873,-101.5433 531.2873,-107.5433 527.2874,-113.5433"/>
<text text-anchor="middle" x="554.7873" y="-128.5" font-family="Helvetica,sans-Serif" font-size="10.00" fill="#000000"> #mOutFile</text>
</g>
<!-- Node12 -->
<g id="node10" class="node">
<title>Node12</title>
<g id="a_node10"><a xlink:href="../../d6/dd5/classo2_1_1detectors_1_1DetID.html" target="_top" xlink:title="Static class with identifiers, bitmasks and names for ALICE detectors. ">
<polygon fill="none" stroke="#000000" points="602.2873,-160.5 602.2873,-481.5 716.2873,-481.5 716.2873,-160.5 602.2873,-160.5"/>
<text text-anchor="middle" x="659.2873" y="-469.5" font-family="Helvetica,sans-Serif" font-size="10.00" fill="#000000">o2::detectors::DetID</text>
<polyline fill="none" stroke="#000000" points="602.2873,-462.5 716.2873,-462.5 "/>
<text text-anchor="start" x="610.2873" y="-450.5" font-family="Helvetica,sans-Serif" font-size="10.00" fill="#000000">+ ITS</text>
<text text-anchor="start" x="610.2873" y="-439.5" font-family="Helvetica,sans-Serif" font-size="10.00" fill="#000000">+ TOF</text>
<text text-anchor="start" x="610.2873" y="-428.5" font-family="Helvetica,sans-Serif" font-size="10.00" fill="#000000">+ PHS</text>
<text text-anchor="start" x="610.2873" y="-417.5" font-family="Helvetica,sans-Serif" font-size="10.00" fill="#000000">+ CPV</text>
<text text-anchor="start" x="610.2873" y="-406.5" font-family="Helvetica,sans-Serif" font-size="10.00" fill="#000000">+ EMC</text>
<text text-anchor="start" x="610.2873" y="-395.5" font-family="Helvetica,sans-Serif" font-size="10.00" fill="#000000">+ HMP</text>
<text text-anchor="start" x="610.2873" y="-384.5" font-family="Helvetica,sans-Serif" font-size="10.00" fill="#000000">+ MFT</text>
<text text-anchor="start" x="610.2873" y="-373.5" font-family="Helvetica,sans-Serif" font-size="10.00" fill="#000000">+ MID</text>
<text text-anchor="start" x="610.2873" y="-362.5" font-family="Helvetica,sans-Serif" font-size="10.00" fill="#000000">+ ZDC</text>
<text text-anchor="start" x="610.2873" y="-351.5" font-family="Helvetica,sans-Serif" font-size="10.00" fill="#000000">+ Last</text>
<polyline fill="none" stroke="#000000" points="602.2873,-344.5 716.2873,-344.5 "/>
<text text-anchor="start" x="610.2873" y="-332.5" font-family="Helvetica,sans-Serif" font-size="10.00" fill="#000000">+ DetID()</text>
<text text-anchor="start" x="610.2873" y="-321.5" font-family="Helvetica,sans-Serif" font-size="10.00" fill="#000000">+ DetID()</text>
<text text-anchor="start" x="610.2873" y="-310.5" font-family="Helvetica,sans-Serif" font-size="10.00" fill="#000000">+ DetID()</text>
<text text-anchor="start" x="610.2873" y="-299.5" font-family="Helvetica,sans-Serif" font-size="10.00" fill="#000000">+ operator=()</text>
<text text-anchor="start" x="610.2873" y="-288.5" font-family="Helvetica,sans-Serif" font-size="10.00" fill="#000000">+ getID()</text>
<text text-anchor="start" x="610.2873" y="-277.5" font-family="Helvetica,sans-Serif" font-size="10.00" fill="#000000">+ getMask()</text>
<text text-anchor="start" x="610.2873" y="-266.5" font-family="Helvetica,sans-Serif" font-size="10.00" fill="#000000">+ getDataOrigin()</text>
<text text-anchor="start" x="610.2873" y="-255.5" font-family="Helvetica,sans-Serif" font-size="10.00" fill="#000000">+ getName()</text>
<text text-anchor="start" x="610.2873" y="-244.5" font-family="Helvetica,sans-Serif" font-size="10.00" fill="#000000">+ operator int()</text>
<text text-anchor="start" x="610.2873" y="-233.5" font-family="Helvetica,sans-Serif" font-size="10.00" fill="#000000">+ DetID()</text>
<text text-anchor="start" x="610.2873" y="-222.5" font-family="Helvetica,sans-Serif" font-size="10.00" fill="#000000">+ getNDetectors()</text>
<text text-anchor="start" x="610.2873" y="-211.5" font-family="Helvetica,sans-Serif" font-size="10.00" fill="#000000">+ getName()</text>
<text text-anchor="start" x="610.2873" y="-200.5" font-family="Helvetica,sans-Serif" font-size="10.00" fill="#000000">+ getMask()</text>
<text text-anchor="start" x="610.2873" y="-189.5" font-family="Helvetica,sans-Serif" font-size="10.00" fill="#000000">+ getDataOrigin()</text>
<text text-anchor="start" x="610.2873" y="-178.5" font-family="Helvetica,sans-Serif" font-size="10.00" fill="#000000">+ getMask()</text>
<text text-anchor="start" x="610.2873" y="-167.5" font-family="Helvetica,sans-Serif" font-size="10.00" fill="#000000">+ getNames()</text>
</a>
</g>
</g>
<!-- Node12&#45;&gt;Node3 -->
<g id="edge13" class="edge">
<title>Node12&#45;&gt;Node3</title>
<path fill="none" stroke="#404040" d="M606.934,-160.324C600.6062,-146.3842 593.721,-132.7486 586.2873,-120 584.6684,-117.2237 582.9331,-114.4519 581.1102,-111.7015"/>
<polygon fill="none" stroke="#404040" points="581.0914,-111.6748 574.3652,-109.0751 574.1778,-101.8664 580.9041,-104.4661 581.0914,-111.6748"/>
<text text-anchor="middle" x="613.2873" y="-128.5" font-family="Helvetica,sans-Serif" font-size="10.00" fill="#000000"> #mID</text>
</g>
<!-- Node13 -->
<g id="node11" class="node">
<title>Node13</title>
<polygon fill="none" stroke="#bfbfbf" points="637.2873,-716.5 637.2873,-773.5 681.2873,-773.5 681.2873,-716.5 637.2873,-716.5"/>
<text text-anchor="middle" x="659.2873" y="-761.5" font-family="Helvetica,sans-Serif" font-size="10.00" fill="#000000">static</text>
<polyline fill="none" stroke="#bfbfbf" points="637.2873,-754.5 681.2873,-754.5 "/>
<text text-anchor="middle" x="659.2873" y="-742.5" font-family="Helvetica,sans-Serif" font-size="10.00" fill="#000000"> </text>
<polyline fill="none" stroke="#bfbfbf" points="637.2873,-735.5 681.2873,-735.5 "/>
<text text-anchor="middle" x="659.2873" y="-723.5" font-family="Helvetica,sans-Serif" font-size="10.00" fill="#000000"> </text>
</g>
<!-- Node13&#45;&gt;Node12 -->
<g id="edge14" class="edge">
<title>Node13&#45;&gt;Node12</title>
<path fill="none" stroke="#404040" d="M659.2873,-716.1901C659.2873,-670.4423 659.2873,-577.7389 659.2873,-493.6122"/>
<polygon fill="none" stroke="#404040" points="659.2874,-493.5368 655.2873,-487.5368 659.2873,-481.5368 663.2873,-487.5367 659.2874,-493.5368"/>
<text text-anchor="middle" x="690.2873" y="-613" font-family="Helvetica,sans-Serif" font-size="10.00" fill="#000000"> +ACO</text>
<text text-anchor="middle" x="690.2873" y="-602" font-family="Helvetica,sans-Serif" font-size="10.00" fill="#000000">+NONE</text>
<text text-anchor="middle" x="690.2873" y="-591" font-family="Helvetica,sans-Serif" font-size="10.00" fill="#000000">+First</text>
<text text-anchor="middle" x="690.2873" y="-580" font-family="Helvetica,sans-Serif" font-size="10.00" fill="#000000">+MCH</text>
<text text-anchor="middle" x="690.2873" y="-569" font-family="Helvetica,sans-Serif" font-size="10.00" fill="#000000">+FV0</text>
<text text-anchor="middle" x="690.2873" y="-558" font-family="Helvetica,sans-Serif" font-size="10.00" fill="#000000">+FT0</text>
<text text-anchor="middle" x="690.2873" y="-547" font-family="Helvetica,sans-Serif" font-size="10.00" fill="#000000">+FDD</text>
<text text-anchor="middle" x="690.2873" y="-536" font-family="Helvetica,sans-Serif" font-size="10.00" fill="#000000">+TRD</text>
<text text-anchor="middle" x="690.2873" y="-525" font-family="Helvetica,sans-Serif" font-size="10.00" fill="#000000">+nDetectors</text>
<text text-anchor="middle" x="690.2873" y="-514" font-family="Helvetica,sans-Serif" font-size="10.00" fill="#000000">+TPC</text>
<text text-anchor="middle" x="690.2873" y="-503" font-family="Helvetica,sans-Serif" font-size="10.00" fill="#000000">...</text>
</g>
<!-- Node14 -->
<g id="node12" class="node">
<title>Node14</title>
<polygon fill="none" stroke="#bfbfbf" points="734.7873,-292.5 734.7873,-349.5 851.7873,-349.5 851.7873,-292.5 734.7873,-292.5"/>
<text text-anchor="middle" x="793.2873" y="-337.5" font-family="Helvetica,sans-Serif" font-size="10.00" fill="#000000">unique_ptr&lt; TTree &gt;</text>
<polyline fill="none" stroke="#bfbfbf" points="734.7873,-330.5 851.7873,-330.5 "/>
<text text-anchor="middle" x="793.2873" y="-318.5" font-family="Helvetica,sans-Serif" font-size="10.00" fill="#000000"> </text>
<polyline fill="none" stroke="#bfbfbf" points="734.7873,-311.5 851.7873,-311.5 "/>
<text text-anchor="middle" x="793.2873" y="-299.5" font-family="Helvetica,sans-Serif" font-size="10.00" fill="#000000"> </text>
</g>
<!-- Node14&#45;&gt;Node3 -->
<g id="edge15" class="edge">
<title>Node14&#45;&gt;Node3</title>
<path fill="none" stroke="#404040" d="M787.2651,-292.2846C778.6969,-257.4275 760.0269,-198.5388 725.2873,-160 694.56,-125.9123 650.5825,-100.2208 611.8751,-82.3684"/>
<polygon fill="none" stroke="#404040" points="611.5356,-82.2164 604.4246,-83.4137 600.5843,-77.3103 607.6953,-76.1129 611.5356,-82.2164"/>
<text text-anchor="middle" x="741.2873" y="-128.5" font-family="Helvetica,sans-Serif" font-size="10.00" fill="#000000"> #mOutTreeDig</text>
</g>
<!-- Node15 -->
<g id="node13" class="node">
<title>Node15</title>
<polygon fill="none" stroke="#bfbfbf" points="871.2873,-292.5 871.2873,-349.5 909.2873,-349.5 909.2873,-292.5 871.2873,-292.5"/>
<text text-anchor="middle" x="890.2873" y="-337.5" font-family="Helvetica,sans-Serif" font-size="10.00" fill="#000000">bool</text>
<polyline fill="none" stroke="#bfbfbf" points="871.2873,-330.5 909.2873,-330.5 "/>
<text text-anchor="middle" x="890.2873" y="-318.5" font-family="Helvetica,sans-Serif" font-size="10.00" fill="#000000"> </text>
<polyline fill="none" stroke="#bfbfbf" points="871.2873,-311.5 909.2873,-311.5 "/>
<text text-anchor="middle" x="890.2873" y="-299.5" font-family="Helvetica,sans-Serif" font-size="10.00" fill="#000000"> </text>
</g>
<!-- Node15&#45;&gt;Node3 -->
<g id="edge17" class="edge">
<title>Node15&#45;&gt;Node3</title>
<path fill="none" stroke="#404040" d="M892.3802,-292.4453C893.424,-257.7502 890.1963,-199.0247 861.2873,-160 831.3045,-119.5258 700.9914,-85.9076 612.2837,-67.1453"/>
<polygon fill="none" stroke="#404040" points="612.0762,-67.1021 605.3861,-69.7933 600.3288,-64.653 607.0188,-61.9617 612.0762,-67.1021"/>
<text text-anchor="middle" x="881.7873" y="-134" font-family="Helvetica,sans-Serif" font-size="10.00" fill="#000000"> #mWithMCTruth</text>
<text text-anchor="middle" x="881.7873" y="-123" font-family="Helvetica,sans-Serif" font-size="10.00" fill="#000000">#mFinished</text>
</g>
</g>
</svg>
