<?xml version="1.0" encoding="UTF-8" standalone="no"?>
<!DOCTYPE svg PUBLIC "-//W3C//DTD SVG 1.1//EN"
 "http://www.w3.org/Graphics/SVG/1.1/DTD/svg11.dtd">
<!-- Generated by graphviz version 2.40.1 (20161225.0304)
 -->
<!-- Title: /home/travis/build/AliceO2Group/AliceO2/DataFormats/Detectors/Common/src/EncodedBlocks.cxx Pages: 1 -->
<!--zoomable 464 -->
<svg id="main" version="1.1" xmlns="http://www.w3.org/2000/svg" xmlns:xlink="http://www.w3.org/1999/xlink" xml:space="preserve" onload="init(evt)">
<style type="text/css"><![CDATA[
.edge:hover path { stroke: red; }
.edge:hover polygon { stroke: red; fill: red; }
]]></style>
<script type="text/javascript"><![CDATA[
var edges = document.getElementsByTagName('g');
if (edges && edges.length) {
  for (var i=0;i<edges.length;i++) {
    if (edges[i].id.substr(0,4)=='edge') {
      edges[i].setAttribute('class','edge');
    }
  }
}
]]></script>
        <defs>
                <circle id="rim" cx="0" cy="0" r="7"/>
                <circle id="rim2" cx="0" cy="0" r="3.5"/>
                <g id="zoomPlus">
                        <use xlink:href="#rim" fill="#404040">
                                <set attributeName="fill" to="#808080" begin="zoomplus.mouseover" end="zoomplus.mouseout"/>
                        </use>
                        <path d="M-4,0h8M0,-4v8" fill="none" stroke="white" stroke-width="1.5" pointer-events="none"/>
                </g>
                <g id="zoomMin">
                        <use xlink:href="#rim" fill="#404040">
                                <set attributeName="fill" to="#808080" begin="zoomminus.mouseover" end="zoomminus.mouseout"/>
                        </use>
                        <path d="M-4,0h8" fill="none" stroke="white" stroke-width="1.5" pointer-events="none"/>
                </g>
                <g id="dirArrow">
                        <path fill="none" stroke="white" stroke-width="1.5" d="M0,-3.0v7 M-2.5,-0.5L0,-3.0L2.5,-0.5"/>
                </g>
               <g id="resetDef">
                       <use xlink:href="#rim2" fill="#404040">
                               <set attributeName="fill" to="#808080" begin="reset.mouseover" end="reset.mouseout"/>
                       </use>
               </g>
        </defs>

<script type="text/javascript">
var viewWidth = 944;
var viewHeight = 464;
var sectionId = 'dynsection-0';
</script>
<script xlink:href="../../svgpan.js"/>
<svg id="graph" class="graph">
<g id="viewport">
<title>/home/travis/build/AliceO2Group/AliceO2/DataFormats/Detectors/Common/src/EncodedBlocks.cxx</title>
<!-- Node0 -->
<g id="node1" class="node">
<title>Node0</title>
<polygon fill="#bfbfbf" stroke="#000000" points="600.5,-403.5 600.5,-455.5 778.5,-455.5 778.5,-403.5 600.5,-403.5"/>
<text text-anchor="start" x="608.5" y="-443.5" font-family="Helvetica,sans-Serif" font-size="10.00" fill="#000000">/home/travis/build</text>
<text text-anchor="start" x="608.5" y="-432.5" font-family="Helvetica,sans-Serif" font-size="10.00" fill="#000000">/AliceO2Group/AliceO2</text>
<text text-anchor="start" x="608.5" y="-421.5" font-family="Helvetica,sans-Serif" font-size="10.00" fill="#000000">/DataFormats/Detectors</text>
<text text-anchor="middle" x="689.5" y="-410.5" font-family="Helvetica,sans-Serif" font-size="10.00" fill="#000000">/Common/src/EncodedBlocks.cxx</text>
</g>
<!-- Node1 -->
<g id="node2" class="node">
<title>Node1</title>
<g id="a_node2"><a xlink:href="../../da/d91/EncodedBlocks_8h.html" target="_top" xlink:title="DetectorsCommonDataFormats\l/EncodedBlocks.h">
<polygon fill="none" stroke="#000000" points="604,-336.5 604,-366.5 775,-366.5 775,-336.5 604,-336.5"/>
<text text-anchor="start" x="612" y="-354.5" font-family="Helvetica,sans-Serif" font-size="10.00" fill="#000000">DetectorsCommonDataFormats</text>
<text text-anchor="middle" x="689.5" y="-343.5" font-family="Helvetica,sans-Serif" font-size="10.00" fill="#000000">/EncodedBlocks.h</text>
</a>
</g>
</g>
<!-- Node0&#45;&gt;Node1 -->
<g id="edge1" class="edge">
<title>Node0&#45;&gt;Node1</title>
<path fill="none" stroke="#191970" d="M689.5,-403.0928C689.5,-394.516 689.5,-385.0289 689.5,-376.5538"/>
<polygon fill="#191970" stroke="#191970" points="693.0001,-376.5045 689.5,-366.5046 686.0001,-376.5046 693.0001,-376.5045"/>
</g>
<!-- Node2 -->
<g id="node3" class="node">
<title>Node2</title>
<polygon fill="none" stroke="#bfbfbf" points="39,-168.5 39,-187.5 108,-187.5 108,-168.5 39,-168.5"/>
<text text-anchor="middle" x="73.5" y="-175.5" font-family="Helvetica,sans-Serif" font-size="10.00" fill="#000000">type_traits</text>
</g>
<!-- Node1&#45;&gt;Node2 -->
<g id="edge2" class="edge">
<title>Node1&#45;&gt;Node2</title>
<path fill="none" stroke="#191970" d="M636.1796,-336.482C516.2903,-302.7145 227.3414,-221.3303 117.1728,-190.3007"/>
<polygon fill="#191970" stroke="#191970" points="117.9626,-186.887 107.3882,-187.5448 116.0648,-193.6249 117.9626,-186.887"/>
</g>
<!-- Node3 -->
<g id="node4" class="node">
<title>Node3</title>
<polygon fill="none" stroke="#bfbfbf" points="543,-280.5 543,-299.5 602,-299.5 602,-280.5 543,-280.5"/>
<text text-anchor="middle" x="572.5" y="-287.5" font-family="Helvetica,sans-Serif" font-size="10.00" fill="#000000">Rtypes.h</text>
</g>
<!-- Node1&#45;&gt;Node3 -->
<g id="edge3" class="edge">
<title>Node1&#45;&gt;Node3</title>
<path fill="none" stroke="#191970" d="M660.8786,-336.4554C642.213,-326.644 618.0001,-313.9167 599.6388,-304.2653"/>
<polygon fill="#191970" stroke="#191970" points="601.111,-301.0851 590.6308,-299.5303 597.854,-307.2812 601.111,-301.0851"/>
</g>
<!-- Node4 -->
<g id="node5" class="node">
<title>Node4</title>
<g id="a_node5"><a xlink:href="../../d4/de7/rans_8h.html" target="_top" xlink:title="header for public api ">
<polygon fill="none" stroke="#000000" points="620.5,-280.5 620.5,-299.5 694.5,-299.5 694.5,-280.5 620.5,-280.5"/>
<text text-anchor="middle" x="657.5" y="-287.5" font-family="Helvetica,sans-Serif" font-size="10.00" fill="#000000">rANS/rans.h</text>
</a>
</g>
</g>
<!-- Node1&#45;&gt;Node4 -->
<g id="edge4" class="edge">
<title>Node1&#45;&gt;Node4</title>
<path fill="none" stroke="#191970" d="M681.5899,-336.2977C677.2868,-328.0277 671.9242,-317.7215 667.3518,-308.9339"/>
<polygon fill="#191970" stroke="#191970" points="670.3443,-307.1024 662.6236,-299.8469 664.1346,-310.3335 670.3443,-307.1024"/>
</g>
<!-- Node21 -->
<g id="node22" class="node">
<title>Node21</title>
<g id="a_node22"><a xlink:href="../../d4/d8f/StringUtils_8h.html" target="_top" xlink:title="CommonUtils/StringUtils.h">
<polygon fill="none" stroke="#000000" points="788.5,-168.5 788.5,-187.5 934.5,-187.5 934.5,-168.5 788.5,-168.5"/>
<text text-anchor="middle" x="861.5" y="-175.5" font-family="Helvetica,sans-Serif" font-size="10.00" fill="#000000">CommonUtils/StringUtils.h</text>
</a>
</g>
</g>
<!-- Node1&#45;&gt;Node21 -->
<g id="edge45" class="edge">
<title>Node1&#45;&gt;Node21</title>
<path fill="none" stroke="#191970" d="M698.9096,-336.4749C708.6657,-321.4371 724.8043,-298.0099 741.5,-280 772.9271,-246.0991 815.1822,-212.4884 840.2564,-193.5704"/>
<polygon fill="#191970" stroke="#191970" points="842.4458,-196.3037 848.363,-187.5153 838.2567,-190.6955 842.4458,-196.3037"/>
</g>
<!-- Node25 -->
<g id="node26" class="node">
<title>Node25</title>
<polygon fill="none" stroke="#bfbfbf" points="750.5,-280.5 750.5,-299.5 802.5,-299.5 802.5,-280.5 750.5,-280.5"/>
<text text-anchor="middle" x="776.5" y="-287.5" font-family="Helvetica,sans-Serif" font-size="10.00" fill="#000000">TTree.h</text>
</g>
<!-- Node1&#45;&gt;Node25 -->
<g id="edge44" class="edge">
<title>Node1&#45;&gt;Node25</title>
<path fill="none" stroke="#191970" d="M711.0056,-336.2977C724.2968,-326.9022 741.3057,-314.8787 754.6588,-305.4395"/>
<polygon fill="#191970" stroke="#191970" points="756.6846,-308.2937 762.83,-299.6633 752.6439,-302.5776 756.6846,-308.2937"/>
</g>
<!-- Node26 -->
<g id="node27" class="node">
<title>Node26</title>
<g id="a_node27"><a xlink:href="../../dd/da4/Logger_8h.html" target="_top" xlink:title="Framework/Logger.h">
<polygon fill="none" stroke="#000000" points="821,-280.5 821,-299.5 936,-299.5 936,-280.5 821,-280.5"/>
<text text-anchor="middle" x="878.5" y="-287.5" font-family="Helvetica,sans-Serif" font-size="10.00" fill="#000000">Framework/Logger.h</text>
</a>
</g>
</g>
<!-- Node1&#45;&gt;Node26 -->
<g id="edge46" class="edge">
<title>Node1&#45;&gt;Node26</title>
<path fill="none" stroke="#191970" d="M735.7346,-336.4554C767.5464,-326.104 809.333,-312.5067 839.4694,-302.7004"/>
<polygon fill="#191970" stroke="#191970" points="840.7855,-305.9529 849.2117,-299.5303 838.6195,-299.2964 840.7855,-305.9529"/>
</g>
<!-- Node5 -->
<g id="node6" class="node">
<title>Node5</title>
<g id="a_node6"><a xlink:href="../../d0/d51/SymbolStatistics_8h.html" target="_top" xlink:title="Structure to depict the distribution of symbols in the source message. ">
<polygon fill="none" stroke="#000000" points="545.5,-112.5 545.5,-131.5 679.5,-131.5 679.5,-112.5 545.5,-112.5"/>
<text text-anchor="middle" x="612.5" y="-119.5" font-family="Helvetica,sans-Serif" font-size="10.00" fill="#000000">rANS/SymbolStatistics.h</text>
</a>
</g>
</g>
<!-- Node4&#45;&gt;Node5 -->
<g id="edge5" class="edge">
<title>Node4&#45;&gt;Node5</title>
<path fill="none" stroke="#191970" d="M661.1206,-280.2642C668.4729,-258.8334 683.0315,-206.4298 665.5,-168 659.8111,-155.5296 648.8869,-145.1361 638.4274,-137.4023"/>
<polygon fill="#191970" stroke="#191970" points="640.1037,-134.3082 629.8758,-131.5442 636.1477,-140.0832 640.1037,-134.3082"/>
</g>
<!-- Node11 -->
<g id="node12" class="node">
<title>Node11</title>
<g id="a_node12"><a xlink:href="../../dd/d74/Utilities_2rANS_2include_2rANS_2Encoder_8h.html" target="_top" xlink:title="rANS/Encoder.h">
<polygon fill="none" stroke="#000000" points="565,-224.5 565,-243.5 656,-243.5 656,-224.5 565,-224.5"/>
<text text-anchor="middle" x="610.5" y="-231.5" font-family="Helvetica,sans-Serif" font-size="10.00" fill="#000000">rANS/Encoder.h</text>
</a>
</g>
</g>
<!-- Node4&#45;&gt;Node11 -->
<g id="edge11" class="edge">
<title>Node4&#45;&gt;Node11</title>
<path fill="none" stroke="#191970" d="M649.3132,-280.2455C642.6411,-272.2958 633.0521,-260.8706 625.0747,-251.3656"/>
<polygon fill="#191970" stroke="#191970" points="627.7026,-249.0524 618.593,-243.6427 622.3408,-253.5525 627.7026,-249.0524"/>
</g>
<!-- Node23 -->
<g id="node24" class="node">
<title>Node23</title>
<g id="a_node24"><a xlink:href="../../dc/d62/Utilities_2rANS_2include_2rANS_2Decoder_8h.html" target="_top" xlink:title="rANS/Decoder.h">
<polygon fill="none" stroke="#000000" points="343.5,-224.5 343.5,-243.5 435.5,-243.5 435.5,-224.5 343.5,-224.5"/>
<text text-anchor="middle" x="389.5" y="-231.5" font-family="Helvetica,sans-Serif" font-size="10.00" fill="#000000">rANS/Decoder.h</text>
</a>
</g>
</g>
<!-- Node4&#45;&gt;Node23 -->
<g id="edge33" class="edge">
<title>Node4&#45;&gt;Node23</title>
<path fill="none" stroke="#191970" d="M620.3496,-281.8913C617.3562,-281.2479 614.378,-280.611 611.5,-280 555.1227,-268.0314 490.6096,-254.7051 445.7119,-245.4899"/>
<polygon fill="#191970" stroke="#191970" points="446.3729,-242.0527 435.8736,-243.4719 444.9664,-248.9099 446.3729,-242.0527"/>
</g>
<!-- Node6 -->
<g id="node7" class="node">
<title>Node6</title>
<polygon fill="none" stroke="#bfbfbf" points="728.5,-56.5 728.5,-75.5 792.5,-75.5 792.5,-56.5 728.5,-56.5"/>
<text text-anchor="middle" x="760.5" y="-63.5" font-family="Helvetica,sans-Serif" font-size="10.00" fill="#000000">algorithm</text>
</g>
<!-- Node5&#45;&gt;Node6 -->
<g id="edge6" class="edge">
<title>Node5&#45;&gt;Node6</title>
<path fill="none" stroke="#191970" d="M637.9421,-112.3733C662.2326,-103.1822 699.0208,-89.2624 725.9543,-79.0713"/>
<polygon fill="#191970" stroke="#191970" points="727.2757,-82.3136 735.3899,-75.5011 724.7984,-75.7666 727.2757,-82.3136"/>
</g>
<!-- Node7 -->
<g id="node8" class="node">
<title>Node7</title>
<polygon fill="none" stroke="#bfbfbf" points="285.5,-56.5 285.5,-75.5 337.5,-75.5 337.5,-56.5 285.5,-56.5"/>
<text text-anchor="middle" x="311.5" y="-63.5" font-family="Helvetica,sans-Serif" font-size="10.00" fill="#000000">cassert</text>
</g>
<!-- Node5&#45;&gt;Node7 -->
<g id="edge7" class="edge">
<title>Node5&#45;&gt;Node7</title>
<path fill="none" stroke="#191970" d="M561.0983,-112.4369C500.3364,-101.1323 400.7796,-82.6102 347.6209,-72.7202"/>
<polygon fill="#191970" stroke="#191970" points="348.1045,-69.2502 337.633,-70.862 346.8241,-76.1321 348.1045,-69.2502"/>
</g>
<!-- Node8 -->
<g id="node9" class="node">
<title>Node8</title>
<polygon fill="none" stroke="#bfbfbf" points="650.5,-56.5 650.5,-75.5 710.5,-75.5 710.5,-56.5 650.5,-56.5"/>
<text text-anchor="middle" x="680.5" y="-63.5" font-family="Helvetica,sans-Serif" font-size="10.00" fill="#000000">iostream</text>
</g>
<!-- Node5&#45;&gt;Node8 -->
<g id="edge8" class="edge">
<title>Node5&#45;&gt;Node8</title>
<path fill="none" stroke="#191970" d="M624.3447,-112.2455C634.388,-103.9746 648.9995,-91.9416 660.8004,-82.2232"/>
<polygon fill="#191970" stroke="#191970" points="663.2967,-84.7015 668.791,-75.6427 658.8467,-79.298 663.2967,-84.7015"/>
</g>
<!-- Node9 -->
<g id="node10" class="node">
<title>Node9</title>
<polygon fill="none" stroke="#bfbfbf" points="576.5,-56.5 576.5,-75.5 632.5,-75.5 632.5,-56.5 576.5,-56.5"/>
<text text-anchor="middle" x="604.5" y="-63.5" font-family="Helvetica,sans-Serif" font-size="10.00" fill="#000000">numeric</text>
</g>
<!-- Node5&#45;&gt;Node9 -->
<g id="edge9" class="edge">
<title>Node5&#45;&gt;Node9</title>
<path fill="none" stroke="#191970" d="M611.1065,-112.2455C610.0626,-104.9382 608.5992,-94.6944 607.3149,-85.7046"/>
<polygon fill="#191970" stroke="#191970" points="610.7566,-85.0472 605.8775,-75.6427 603.827,-86.0372 610.7566,-85.0472"/>
</g>
<!-- Node10 -->
<g id="node11" class="node">
<title>Node10</title>
<polygon fill="none" stroke="#bfbfbf" points="475,-56.5 475,-75.5 522,-75.5 522,-56.5 475,-56.5"/>
<text text-anchor="middle" x="498.5" y="-63.5" font-family="Helvetica,sans-Serif" font-size="10.00" fill="#000000">vector</text>
</g>
<!-- Node5&#45;&gt;Node10 -->
<g id="edge10" class="edge">
<title>Node5&#45;&gt;Node10</title>
<path fill="none" stroke="#191970" d="M592.9027,-112.3733C574.7669,-103.4644 547.5865,-90.1127 527.0413,-80.0203"/>
<polygon fill="#191970" stroke="#191970" points="528.3603,-76.7688 517.8416,-75.5011 525.2739,-83.0517 528.3603,-76.7688"/>
</g>
<!-- Node11&#45;&gt;Node6 -->
<g id="edge13" class="edge">
<title>Node11&#45;&gt;Node6</title>
<path fill="none" stroke="#191970" d="M656.1775,-228.585C683.3972,-222.9483 716.446,-211.4499 736.5,-188 761.1869,-159.1326 763.2756,-112.3106 762.1684,-85.8544"/>
<polygon fill="#191970" stroke="#191970" points="765.643,-85.3352 761.5298,-75.5714 758.6565,-85.7691 765.643,-85.3352"/>
</g>
<!-- Node12 -->
<g id="node13" class="node">
<title>Node12</title>
<polygon fill="none" stroke="#bfbfbf" points="274.5,-168.5 274.5,-187.5 332.5,-187.5 332.5,-168.5 274.5,-168.5"/>
<text text-anchor="middle" x="303.5" y="-175.5" font-family="Helvetica,sans-Serif" font-size="10.00" fill="#000000">memory</text>
</g>
<!-- Node11&#45;&gt;Node12 -->
<g id="edge12" class="edge">
<title>Node11&#45;&gt;Node12</title>
<path fill="none" stroke="#191970" d="M564.5687,-226.7972C511.7858,-218.3346 422.6384,-203.4739 346.5,-188 345.2325,-187.7424 343.9453,-187.4753 342.6465,-187.2011"/>
<polygon fill="#191970" stroke="#191970" points="343.1134,-183.7205 332.596,-184.9989 341.6151,-190.5583 343.1134,-183.7205"/>
</g>
<!-- Node13 -->
<g id="node14" class="node">
<title>Node13</title>
<g id="a_node14"><a xlink:href="../../d8/dd9/SymbolTable_8h.html" target="_top" xlink:title="Container for information needed to encode/decode a symbol of the alphabet. ">
<polygon fill="none" stroke="#000000" points="568.5,-168.5 568.5,-187.5 656.5,-187.5 656.5,-168.5 568.5,-168.5"/>
<text text-anchor="middle" x="612.5" y="-175.5" font-family="Helvetica,sans-Serif" font-size="10.00" fill="#000000">SymbolTable.h</text>
</a>
</g>
</g>
<!-- Node11&#45;&gt;Node13 -->
<g id="edge14" class="edge">
<title>Node11&#45;&gt;Node13</title>
<path fill="none" stroke="#191970" d="M610.8484,-224.2455C611.1093,-216.9382 611.4752,-206.6944 611.7963,-197.7046"/>
<polygon fill="#191970" stroke="#191970" points="615.2964,-197.7613 612.1556,-187.6427 608.3008,-197.5113 615.2964,-197.7613"/>
</g>
<!-- Node14 -->
<g id="node15" class="node">
<title>Node14</title>
<g id="a_node15"><a xlink:href="../../d2/d53/EncoderSymbol_8h.html" target="_top" xlink:title="Structure containing all relevant information to encode a symbol. ">
<polygon fill="none" stroke="#000000" points="198,-112.5 198,-131.5 299,-131.5 299,-112.5 198,-112.5"/>
<text text-anchor="middle" x="248.5" y="-119.5" font-family="Helvetica,sans-Serif" font-size="10.00" fill="#000000">EncoderSymbol.h</text>
</a>
</g>
</g>
<!-- Node11&#45;&gt;Node14 -->
<g id="edge17" class="edge">
<title>Node11&#45;&gt;Node14</title>
<path fill="none" stroke="#191970" d="M564.7541,-228.8394C517.3907,-222.5907 441.748,-210.0559 379.5,-188 361.5106,-181.626 358.4993,-176.6759 341.5,-168 320.0497,-157.0524 295.6391,-144.9934 277.2106,-135.9697"/>
<polygon fill="#191970" stroke="#191970" points="278.6876,-132.796 268.1663,-131.5495 275.6139,-139.085 278.6876,-132.796"/>
</g>
<!-- Node19 -->
<g id="node20" class="node">
<title>Node19</title>
<g id="a_node20"><a xlink:href="../../d5/d7a/Coder_8h.html" target="_top" xlink:title="Stateless class for coding and decoding symbols using rANS. ">
<polygon fill="none" stroke="#000000" points="165,-168.5 165,-187.5 218,-187.5 218,-168.5 165,-168.5"/>
<text text-anchor="middle" x="191.5" y="-175.5" font-family="Helvetica,sans-Serif" font-size="10.00" fill="#000000">Coder.h</text>
</a>
</g>
</g>
<!-- Node11&#45;&gt;Node19 -->
<g id="edge23" class="edge">
<title>Node11&#45;&gt;Node19</title>
<path fill="none" stroke="#191970" d="M564.7353,-227.9243C498.6609,-219.1462 372.7008,-202.39 265.5,-188 253.376,-186.3725 240.136,-184.5862 228.2498,-182.9793"/>
<polygon fill="#191970" stroke="#191970" points="228.594,-179.494 218.215,-181.6217 227.6555,-186.4308 228.594,-179.494"/>
</g>
<!-- Node11&#45;&gt;Node21 -->
<g id="edge31" class="edge">
<title>Node11&#45;&gt;Node21</title>
<path fill="none" stroke="#191970" d="M653.3632,-224.4369C696.4102,-214.8328 762.8073,-200.0191 808.991,-189.7152"/>
<polygon fill="#191970" stroke="#191970" points="809.8157,-193.1173 818.8135,-187.5237 808.2913,-186.2853 809.8157,-193.1173"/>
</g>
<!-- Node13&#45;&gt;Node5 -->
<g id="edge16" class="edge">
<title>Node13&#45;&gt;Node5</title>
<path fill="none" stroke="#191970" d="M612.5,-168.2455C612.5,-160.9382 612.5,-150.6944 612.5,-141.7046"/>
<polygon fill="#191970" stroke="#191970" points="616.0001,-141.6426 612.5,-131.6427 609.0001,-141.6427 616.0001,-141.6426"/>
</g>
<!-- Node13&#45;&gt;Node10 -->
<g id="edge15" class="edge">
<title>Node13&#45;&gt;Node10</title>
<path fill="none" stroke="#191970" d="M590.5064,-168.4058C574.137,-160.4454 552.0316,-147.8751 536.5,-132 523.2559,-118.463 512.9363,-99.4128 506.4147,-85.2566"/>
<polygon fill="#191970" stroke="#191970" points="509.5636,-83.7218 502.3496,-75.9624 503.1502,-86.5269 509.5636,-83.7218"/>
</g>
<!-- Node14&#45;&gt;Node7 -->
<g id="edge19" class="edge">
<title>Node14&#45;&gt;Node7</title>
<path fill="none" stroke="#191970" d="M259.4738,-112.2455C268.6882,-104.0549 282.0532,-92.1749 292.9297,-82.5069"/>
<polygon fill="#191970" stroke="#191970" points="295.5032,-84.9023 300.652,-75.6427 290.8526,-79.6704 295.5032,-84.9023"/>
</g>
<!-- Node15 -->
<g id="node16" class="node">
<title>Node15</title>
<polygon fill="none" stroke="#bfbfbf" points="106.5,-56.5 106.5,-75.5 156.5,-75.5 156.5,-56.5 106.5,-56.5"/>
<text text-anchor="middle" x="131.5" y="-63.5" font-family="Helvetica,sans-Serif" font-size="10.00" fill="#000000">cstdint</text>
</g>
<!-- Node14&#45;&gt;Node15 -->
<g id="edge18" class="edge">
<title>Node14&#45;&gt;Node15</title>
<path fill="none" stroke="#191970" d="M228.387,-112.3733C209.6897,-103.4241 181.6256,-89.9917 160.5066,-79.8835"/>
<polygon fill="#191970" stroke="#191970" points="161.8817,-76.6614 151.3506,-75.5011 158.8595,-82.9755 161.8817,-76.6614"/>
</g>
<!-- Node16 -->
<g id="node17" class="node">
<title>Node16</title>
<g id="a_node17"><a xlink:href="../../d4/da1/helper_8h.html" target="_top" xlink:title="various helper functions ">
<polygon fill="none" stroke="#000000" points="211.5,-56.5 211.5,-75.5 267.5,-75.5 267.5,-56.5 211.5,-56.5"/>
<text text-anchor="middle" x="239.5" y="-63.5" font-family="Helvetica,sans-Serif" font-size="10.00" fill="#000000">helper.h</text>
</a>
</g>
</g>
<!-- Node14&#45;&gt;Node16 -->
<g id="edge20" class="edge">
<title>Node14&#45;&gt;Node16</title>
<path fill="none" stroke="#191970" d="M246.9323,-112.2455C245.7579,-104.9382 244.1116,-94.6944 242.6668,-85.7046"/>
<polygon fill="#191970" stroke="#191970" points="246.0922,-84.9606 241.0497,-75.6427 239.1809,-86.0714 246.0922,-84.9606"/>
</g>
<!-- Node17 -->
<g id="node18" class="node">
<title>Node17</title>
<polygon fill="none" stroke="#bfbfbf" points="310,-.5 310,-19.5 363,-19.5 363,-.5 310,-.5"/>
<text text-anchor="middle" x="336.5" y="-7.5" font-family="Helvetica,sans-Serif" font-size="10.00" fill="#000000">cstddef</text>
</g>
<!-- Node16&#45;&gt;Node17 -->
<g id="edge21" class="edge">
<title>Node16&#45;&gt;Node17</title>
<path fill="none" stroke="#191970" d="M256.3961,-56.2455C271.418,-47.5731 293.6043,-34.7645 310.821,-24.825"/>
<polygon fill="#191970" stroke="#191970" points="312.8871,-27.6737 319.7975,-19.6427 309.3872,-21.6114 312.8871,-27.6737"/>
</g>
<!-- Node18 -->
<g id="node19" class="node">
<title>Node18</title>
<polygon fill="none" stroke="#bfbfbf" points="216,-.5 216,-19.5 263,-19.5 263,-.5 216,-.5"/>
<text text-anchor="middle" x="239.5" y="-7.5" font-family="Helvetica,sans-Serif" font-size="10.00" fill="#000000">cmath</text>
</g>
<!-- Node16&#45;&gt;Node18 -->
<g id="edge22" class="edge">
<title>Node16&#45;&gt;Node18</title>
<path fill="none" stroke="#191970" d="M239.5,-56.2455C239.5,-48.9382 239.5,-38.6944 239.5,-29.7046"/>
<polygon fill="#191970" stroke="#191970" points="243.0001,-29.6426 239.5,-19.6427 236.0001,-29.6427 243.0001,-29.6426"/>
</g>
<!-- Node19&#45;&gt;Node7 -->
<g id="edge26" class="edge">
<title>Node19&#45;&gt;Node7</title>
<path fill="none" stroke="#191970" d="M218.0402,-171.1741C249.0882,-162.6043 297.6448,-147.1792 308.5,-132 317.9765,-118.7486 317.8612,-99.8855 315.8802,-85.7165"/>
<polygon fill="#191970" stroke="#191970" points="319.2662,-84.7722 314.0392,-75.5565 312.3784,-86.0204 319.2662,-84.7722"/>
</g>
<!-- Node19&#45;&gt;Node10 -->
<g id="edge24" class="edge">
<title>Node19&#45;&gt;Node10</title>
<path fill="none" stroke="#191970" d="M218.0348,-169.1853C245.136,-160.1136 288.3833,-145.4465 325.5,-132 374.3276,-114.3109 430.4245,-92.6637 465.1707,-79.0986"/>
<polygon fill="#191970" stroke="#191970" points="466.7703,-82.2312 474.8086,-75.3293 464.2207,-75.712 466.7703,-82.2312"/>
</g>
<!-- Node19&#45;&gt;Node14 -->
<g id="edge29" class="edge">
<title>Node19&#45;&gt;Node14</title>
<path fill="none" stroke="#191970" d="M201.4286,-168.2455C209.6838,-160.1352 221.6209,-148.4075 231.4082,-138.7919"/>
<polygon fill="#191970" stroke="#191970" points="234.0046,-141.1476 238.6851,-131.6427 229.0989,-136.1542 234.0046,-141.1476"/>
</g>
<!-- Node19&#45;&gt;Node15 -->
<g id="edge25" class="edge">
<title>Node19&#45;&gt;Node15</title>
<path fill="none" stroke="#191970" d="M186.3844,-168.4509C176.4214,-149.8533 154.2635,-108.4919 141.3552,-84.3964"/>
<polygon fill="#191970" stroke="#191970" points="144.4101,-82.6869 136.6026,-75.5249 138.2397,-85.9925 144.4101,-82.6869"/>
</g>
<!-- Node19&#45;&gt;Node16 -->
<g id="edge30" class="edge">
<title>Node19&#45;&gt;Node16</title>
<path fill="none" stroke="#191970" d="M188.401,-168.0964C184.7911,-154.7239 180.2969,-130.4457 188.5,-112 193.9508,-99.7432 204.4599,-89.3755 214.5289,-81.6036"/>
<polygon fill="#191970" stroke="#191970" points="216.6744,-84.3721 222.7627,-75.7012 212.596,-78.6828 216.6744,-84.3721"/>
</g>
<!-- Node20 -->
<g id="node21" class="node">
<title>Node20</title>
<g id="a_node21"><a xlink:href="../../d7/d99/DecoderSymbol_8h.html" target="_top" xlink:title="Structure containing all relevant information for decoding a rANS encoded symbol. ...">
<polygon fill="none" stroke="#000000" points="0,-112.5 0,-131.5 103,-131.5 103,-112.5 0,-112.5"/>
<text text-anchor="middle" x="51.5" y="-119.5" font-family="Helvetica,sans-Serif" font-size="10.00" fill="#000000">DecoderSymbol.h</text>
</a>
</g>
</g>
<!-- Node19&#45;&gt;Node20 -->
<g id="edge27" class="edge">
<title>Node19&#45;&gt;Node20</title>
<path fill="none" stroke="#191970" d="M167.4331,-168.3733C144.6572,-159.2629 110.2656,-145.5062 84.851,-135.3404"/>
<polygon fill="#191970" stroke="#191970" points="85.8375,-131.9654 75.2528,-131.5011 83.2377,-138.4648 85.8375,-131.9654"/>
</g>
<!-- Node20&#45;&gt;Node15 -->
<g id="edge28" class="edge">
<title>Node20&#45;&gt;Node15</title>
<path fill="none" stroke="#191970" d="M65.4349,-112.2455C77.5947,-103.7337 95.4464,-91.2375 109.5285,-81.3801"/>
<polygon fill="#191970" stroke="#191970" points="111.5395,-84.2447 117.7248,-75.6427 107.5253,-78.51 111.5395,-84.2447"/>
</g>
<!-- Node22 -->
<g id="node23" class="node">
<title>Node22</title>
<polygon fill="none" stroke="#bfbfbf" points="833.5,-112.5 833.5,-131.5 889.5,-131.5 889.5,-112.5 833.5,-112.5"/>
<text text-anchor="middle" x="861.5" y="-119.5" font-family="Helvetica,sans-Serif" font-size="10.00" fill="#000000">sstream</text>
</g>
<!-- Node21&#45;&gt;Node22 -->
<g id="edge32" class="edge">
<title>Node21&#45;&gt;Node22</title>
<path fill="none" stroke="#191970" d="M861.5,-168.2455C861.5,-160.9382 861.5,-150.6944 861.5,-141.7046"/>
<polygon fill="#191970" stroke="#191970" points="865.0001,-141.6426 861.5,-131.6427 858.0001,-141.6427 865.0001,-141.6426"/>
</g>
<!-- Node23&#45;&gt;Node2 -->
<g id="edge35" class="edge">
<title>Node23&#45;&gt;Node2</title>
<path fill="none" stroke="#191970" d="M343.117,-226.4527C289.7989,-217.6739 199.6976,-202.5237 122.5,-188 121.0335,-187.7241 119.543,-187.4402 118.0384,-187.1505"/>
<polygon fill="#191970" stroke="#191970" points="118.4945,-183.6733 108.0075,-185.1807 117.1456,-190.5421 118.4945,-183.6733"/>
</g>
<!-- Node23&#45;&gt;Node8 -->
<g id="edge36" class="edge">
<title>Node23&#45;&gt;Node8</title>
<path fill="none" stroke="#191970" d="M435.5509,-231.6716C504.6432,-227.3097 630.7465,-215.7104 665.5,-188 695.5493,-164.0404 690.7433,-113.4137 685.2513,-85.4977"/>
<polygon fill="#191970" stroke="#191970" points="688.6637,-84.7181 683.108,-75.6968 681.8253,-86.2137 688.6637,-84.7181"/>
</g>
<!-- Node23&#45;&gt;Node13 -->
<g id="edge37" class="edge">
<title>Node23&#45;&gt;Node13</title>
<path fill="none" stroke="#191970" d="M427.5817,-224.4369C465.5059,-214.9133 523.8289,-200.2672 564.8126,-189.9753"/>
<polygon fill="#191970" stroke="#191970" points="565.729,-193.3539 574.5754,-187.5237 564.024,-186.5647 565.729,-193.3539"/>
</g>
<!-- Node23&#45;&gt;Node17 -->
<g id="edge34" class="edge">
<title>Node23&#45;&gt;Node17</title>
<path fill="none" stroke="#191970" d="M349.6671,-224.4857C317.3115,-215.8563 275.4652,-202.3255 265.5,-188 237.9021,-148.3264 316.5689,-142.7209 325.5,-132 347.9299,-105.0751 350.2436,-90.843 346.5,-56 345.5637,-47.285 343.6567,-37.7985 341.7568,-29.7166"/>
<polygon fill="#191970" stroke="#191970" points="345.0899,-28.6187 339.2621,-19.7707 338.3002,-30.3218 345.0899,-28.6187"/>
</g>
<!-- Node23&#45;&gt;Node19 -->
<g id="edge43" class="edge">
<title>Node23&#45;&gt;Node19</title>
<path fill="none" stroke="#191970" d="M355.4626,-224.3733C319.8871,-214.3115 264.2739,-198.5825 227.8561,-188.2825"/>
<polygon fill="#191970" stroke="#191970" points="228.7011,-184.8843 218.126,-185.5306 226.796,-191.6201 228.7011,-184.8843"/>
</g>
<!-- Node23&#45;&gt;Node20 -->
<g id="edge38" class="edge">
<title>Node23&#45;&gt;Node20</title>
<path fill="none" stroke="#191970" d="M343.2169,-230.0062C294.9518,-224.6815 217.7926,-212.8656 155.5,-188 138.7112,-181.2983 98.7381,-154.6626 73.5256,-137.3453"/>
<polygon fill="#191970" stroke="#191970" points="75.5033,-134.4576 65.2855,-131.6565 71.5264,-140.2182 75.5033,-134.4576"/>
</g>
<!-- Node24 -->
<g id="node25" class="node">
<title>Node24</title>
<g id="a_node25"><a xlink:href="../../dc/d3b/ReverseSymbolLookupTable_8h.html" target="_top" xlink:title="Maps CDF back to source symbol &#45; needed for the decoder. ">
<polygon fill="none" stroke="#000000" points="388.5,-168.5 388.5,-187.5 550.5,-187.5 550.5,-168.5 388.5,-168.5"/>
<text text-anchor="middle" x="469.5" y="-175.5" font-family="Helvetica,sans-Serif" font-size="10.00" fill="#000000">ReverseSymbolLookupTable.h</text>
</a>
</g>
</g>
<!-- Node23&#45;&gt;Node24 -->
<g id="edge39" class="edge">
<title>Node23&#45;&gt;Node24</title>
<path fill="none" stroke="#191970" d="M403.4349,-224.2455C415.5947,-215.7337 433.4464,-203.2375 447.5285,-193.3801"/>
<polygon fill="#191970" stroke="#191970" points="449.5395,-196.2447 455.7248,-187.6427 445.5253,-190.51 449.5395,-196.2447"/>
</g>
<!-- Node24&#45;&gt;Node5 -->
<g id="edge41" class="edge">
<title>Node24&#45;&gt;Node5</title>
<path fill="none" stroke="#191970" d="M494.0826,-168.3733C517.4496,-159.2226 552.7862,-145.3844 578.7784,-135.2057"/>
<polygon fill="#191970" stroke="#191970" points="580.203,-138.4066 588.2382,-131.5011 577.6505,-131.8886 580.203,-138.4066"/>
</g>
<!-- Node24&#45;&gt;Node10 -->
<g id="edge40" class="edge">
<title>Node24&#45;&gt;Node10</title>
<path fill="none" stroke="#191970" d="M471.9725,-168.4509C476.7238,-150.1013 487.2131,-109.5908 493.4847,-85.3693"/>
<polygon fill="#191970" stroke="#191970" points="496.9153,-86.083 496.0337,-75.5249 490.1388,-84.3283 496.9153,-86.083"/>
</g>
<!-- Node24&#45;&gt;Node16 -->
<g id="edge42" class="edge">
<title>Node24&#45;&gt;Node16</title>
<path fill="none" stroke="#191970" d="M449.8903,-168.4509C409.2376,-148.6548 315.6183,-103.0663 268.1756,-79.9638"/>
<polygon fill="#191970" stroke="#191970" points="269.5831,-76.7563 259.06,-75.5249 266.5184,-83.0498 269.5831,-76.7563"/>
</g>
</g>
</svg>
        <g id="navigator" transform="translate(0 0)" fill="#404254">
                <rect fill="#f2f5e9" fill-opacity="0.5" stroke="#606060" stroke-width=".5" x="0" y="0" width="60" height="60"/>
                <use id="zoomplus" xlink:href="#zoomPlus" x="17" y="9" onmousedown="handleZoom(evt,'in')"/>
                <use id="zoomminus" xlink:href="#zoomMin" x="42" y="9" onmousedown="handleZoom(evt,'out')"/>
                <use id="reset" xlink:href="#resetDef" x="30" y="36" onmousedown="handleReset()"/>
                <g id="arrowUp" xlink:href="#dirArrow" transform="translate(30 24)" onmousedown="handlePan(0,-1)">
                  <use xlink:href="#rim" fill="#404040">
                        <set attributeName="fill" to="#808080" begin="arrowUp.mouseover" end="arrowUp.mouseout"/>
                  </use>
                  <path fill="none" stroke="white" stroke-width="1.5" d="M0,-3.0v7 M-2.5,-0.5L0,-3.0L2.5,-0.5"/>
                </g>
                <g id="arrowRight" xlink:href="#dirArrow" transform="rotate(90) translate(36 -43)" onmousedown="handlePan(1,0)">
                  <use xlink:href="#rim" fill="#404040">
                        <set attributeName="fill" to="#808080" begin="arrowRight.mouseover" end="arrowRight.mouseout"/>
                  </use>
                  <path fill="none" stroke="white" stroke-width="1.5" d="M0,-3.0v7 M-2.5,-0.5L0,-3.0L2.5,-0.5"/>
                </g>
                <g id="arrowDown" xlink:href="#dirArrow" transform="rotate(180) translate(-30 -48)" onmousedown="handlePan(0,1)">
                  <use xlink:href="#rim" fill="#404040">
                        <set attributeName="fill" to="#808080" begin="arrowDown.mouseover" end="arrowDown.mouseout"/>
                  </use>
                  <path fill="none" stroke="white" stroke-width="1.5" d="M0,-3.0v7 M-2.5,-0.5L0,-3.0L2.5,-0.5"/>
                </g>
                <g id="arrowLeft" xlink:href="#dirArrow" transform="rotate(270) translate(-36 17)" onmousedown="handlePan(-1,0)">
                  <use xlink:href="#rim" fill="#404040">
                        <set attributeName="fill" to="#808080" begin="arrowLeft.mouseover" end="arrowLeft.mouseout"/>
                  </use>
                  <path fill="none" stroke="white" stroke-width="1.5" d="M0,-3.0v7 M-2.5,-0.5L0,-3.0L2.5,-0.5"/>
                </g>
        </g>
        <svg viewBox="0 0 15 15" width="100%" height="30px" preserveAspectRatio="xMaxYMin meet">
         <g id="arrow_out" transform="scale(0.3 0.3)">
          <a xlink:href="EncodedBlocks_8cxx__incl_org.svg" target="_base">
           <rect id="button" ry="5" rx="5" y="6" x="6" height="38" width="38"
                fill="#f2f5e9" fill-opacity="0.5" stroke="#606060" stroke-width="1.0"/>
           <path id="arrow"
             d="M 11.500037,31.436501 C 11.940474,20.09759 22.043105,11.32322 32.158766,21.979434 L 37.068811,17.246167 C 37.068811,17.246167 37.088388,32 37.088388,32 L 22.160133,31.978069 C 22.160133,31.978069 26.997745,27.140456 26.997745,27.140456 C 18.528582,18.264221 13.291696,25.230495 11.500037,31.436501 z"
             style="fill:#404040;"/>
          </a>
         </g>
        </svg>
</svg>
