<?xml version="1.0" encoding="UTF-8" standalone="no"?>
<!DOCTYPE svg PUBLIC "-//W3C//DTD SVG 1.1//EN"
 "http://www.w3.org/Graphics/SVG/1.1/DTD/svg11.dtd">
<!-- Generated by graphviz version 2.40.1 (20161225.0304)
 -->
<!-- Title: /home/travis/build/AliceO2Group/AliceO2/Steer/include/Steer/HitProcessingManager.h Pages: 1 -->
<svg width="1538pt" height="486pt"
 viewBox="0.00 0.00 1537.98 486.00" xmlns="http://www.w3.org/2000/svg" xmlns:xlink="http://www.w3.org/1999/xlink">
<g id="graph0" class="graph" transform="scale(1 1) rotate(0) translate(4 482)">
<title>/home/travis/build/AliceO2Group/AliceO2/Steer/include/Steer/HitProcessingManager.h</title>
<!-- Node0 -->
<g id="node1" class="node">
<title>Node0</title>
<polygon fill="#bfbfbf" stroke="#000000" points="814.4838,-425.5 814.4838,-477.5 996.4838,-477.5 996.4838,-425.5 814.4838,-425.5"/>
<text text-anchor="start" x="822.4838" y="-465.5" font-family="Helvetica,sans-Serif" font-size="10.00" fill="#000000">/home/travis/build</text>
<text text-anchor="start" x="822.4838" y="-454.5" font-family="Helvetica,sans-Serif" font-size="10.00" fill="#000000">/AliceO2Group/AliceO2</text>
<text text-anchor="start" x="822.4838" y="-443.5" font-family="Helvetica,sans-Serif" font-size="10.00" fill="#000000">/Steer/include/Steer/HitProcessing</text>
<text text-anchor="middle" x="905.4838" y="-432.5" font-family="Helvetica,sans-Serif" font-size="10.00" fill="#000000">Manager.h</text>
</g>
<!-- Node1 -->
<g id="node2" class="node">
<title>Node1</title>
<g id="a_node2"><a xlink:href="../../d9/d80/InteractionRecord_8h.html" target="_top" xlink:title="CommonDataFormat/Interaction\lRecord.h">
<polygon fill="none" stroke="#000000" points="169.4838,-291.5 169.4838,-321.5 343.4838,-321.5 343.4838,-291.5 169.4838,-291.5"/>
<text text-anchor="start" x="177.4838" y="-309.5" font-family="Helvetica,sans-Serif" font-size="10.00" fill="#000000">CommonDataFormat/Interaction</text>
<text text-anchor="middle" x="256.4838" y="-298.5" font-family="Helvetica,sans-Serif" font-size="10.00" fill="#000000">Record.h</text>
</a>
</g>
</g>
<!-- Node0&#45;&gt;Node1 -->
<g id="edge1" class="edge">
<title>Node0&#45;&gt;Node1</title>
<path fill="none" stroke="#191970" d="M814.2321,-443.6735C727.227,-434.9104 593.0118,-417.9893 479.4838,-389 415.3927,-372.6343 344.1635,-344.4325 299.8437,-325.6243"/>
<polygon fill="#191970" stroke="#191970" points="301.1067,-322.3579 290.5359,-321.6443 298.3545,-328.7942 301.1067,-322.3579"/>
</g>
<!-- Node8 -->
<g id="node9" class="node">
<title>Node8</title>
<g id="a_node9"><a xlink:href="../../d1/def/DigitizationContext_8h.html" target="_top" xlink:title="SimulationDataFormat\l/DigitizationContext.h">
<polygon fill="none" stroke="#000000" points="488.9838,-358.5 488.9838,-388.5 615.9838,-388.5 615.9838,-358.5 488.9838,-358.5"/>
<text text-anchor="start" x="496.9838" y="-376.5" font-family="Helvetica,sans-Serif" font-size="10.00" fill="#000000">SimulationDataFormat</text>
<text text-anchor="middle" x="552.4838" y="-365.5" font-family="Helvetica,sans-Serif" font-size="10.00" fill="#000000">/DigitizationContext.h</text>
</a>
</g>
</g>
<!-- Node0&#45;&gt;Node8 -->
<g id="edge8" class="edge">
<title>Node0&#45;&gt;Node8</title>
<path fill="none" stroke="#191970" d="M814.1185,-431.3116C755.6555,-418.3934 680.8053,-401.8543 626.1534,-389.7783"/>
<polygon fill="#191970" stroke="#191970" points="626.7119,-386.3173 616.1923,-387.5772 625.2016,-393.1524 626.7119,-386.3173"/>
</g>
<!-- Node9 -->
<g id="node10" class="node">
<title>Node9</title>
<polygon fill="none" stroke="#bfbfbf" points="646.9838,-297 646.9838,-316 693.9838,-316 693.9838,-297 646.9838,-297"/>
<text text-anchor="middle" x="670.4838" y="-304" font-family="Helvetica,sans-Serif" font-size="10.00" fill="#000000">vector</text>
</g>
<!-- Node0&#45;&gt;Node9 -->
<g id="edge71" class="edge">
<title>Node0&#45;&gt;Node9</title>
<path fill="none" stroke="#191970" d="M842.7916,-425.4402C820.3249,-415.1689 795.1981,-402.5766 773.4838,-389 741.5276,-369.0196 708.1107,-340.6524 688.3053,-322.9267"/>
<polygon fill="#191970" stroke="#191970" points="690.457,-320.1535 680.6946,-316.037 685.7592,-325.3429 690.457,-320.1535"/>
</g>
<!-- Node10 -->
<g id="node11" class="node">
<title>Node10</title>
<polygon fill="none" stroke="#bfbfbf" points="8.9838,-297 8.9838,-316 67.9838,-316 67.9838,-297 8.9838,-297"/>
<text text-anchor="middle" x="38.4838" y="-304" font-family="Helvetica,sans-Serif" font-size="10.00" fill="#000000">TChain.h</text>
</g>
<!-- Node0&#45;&gt;Node10 -->
<g id="edge74" class="edge">
<title>Node0&#45;&gt;Node10</title>
<path fill="none" stroke="#191970" d="M814.3993,-443.308C709.7491,-433.273 533.0656,-414.4216 382.4838,-389 245.2046,-365.8241 209.4289,-363.3321 76.4838,-322 74.1876,-321.2861 71.8363,-320.491 69.4845,-319.6486"/>
<polygon fill="#191970" stroke="#191970" points="70.543,-316.3063 59.9524,-316.0055 68.0439,-322.845 70.543,-316.3063"/>
</g>
<!-- Node14 -->
<g id="node15" class="node">
<title>Node14</title>
<polygon fill="none" stroke="#bfbfbf" points="1338.4838,-112.5 1338.4838,-131.5 1382.4838,-131.5 1382.4838,-112.5 1338.4838,-112.5"/>
<text text-anchor="middle" x="1360.4838" y="-119.5" font-family="Helvetica,sans-Serif" font-size="10.00" fill="#000000">string</text>
</g>
<!-- Node0&#45;&gt;Node14 -->
<g id="edge70" class="edge">
<title>Node0&#45;&gt;Node14</title>
<path fill="none" stroke="#191970" d="M996.853,-436.5071C1111.0185,-415.798 1296.7551,-374.9226 1340.4838,-322 1383.8696,-269.4925 1372.7221,-180.7844 1364.9784,-141.6047"/>
<polygon fill="#191970" stroke="#191970" points="1368.3839,-140.7919 1362.8865,-131.735 1361.5361,-142.2434 1368.3839,-140.7919"/>
</g>
<!-- Node38 -->
<g id="node39" class="node">
<title>Node38</title>
<g id="a_node39"><a xlink:href="../../df/dff/InteractionSampler_8h.html" target="_top" xlink:title="Steer/InteractionSampler.h">
<polygon fill="none" stroke="#000000" points="782.4838,-364 782.4838,-383 928.4838,-383 928.4838,-364 782.4838,-364"/>
<text text-anchor="middle" x="855.4838" y="-371" font-family="Helvetica,sans-Serif" font-size="10.00" fill="#000000">Steer/InteractionSampler.h</text>
</a>
</g>
</g>
<!-- Node0&#45;&gt;Node38 -->
<g id="edge56" class="edge">
<title>Node0&#45;&gt;Node38</title>
<path fill="none" stroke="#191970" d="M888.5561,-425.0928C881.5141,-414.1073 873.5149,-401.6285 867.1476,-391.6954"/>
<polygon fill="#191970" stroke="#191970" points="869.9706,-389.6138 861.6274,-383.0839 864.0775,-393.3915 869.9706,-389.6138"/>
</g>
<!-- Node41 -->
<g id="node42" class="node">
<title>Node41</title>
<g id="a_node42"><a xlink:href="../../d7/d61/NameConf_8h.html" target="_top" xlink:title="Definition of the Names Generator class. ">
<polygon fill="none" stroke="#000000" points="1160.9838,-291.5 1160.9838,-321.5 1331.9838,-321.5 1331.9838,-291.5 1160.9838,-291.5"/>
<text text-anchor="start" x="1168.9838" y="-309.5" font-family="Helvetica,sans-Serif" font-size="10.00" fill="#000000">DetectorsCommonDataFormats</text>
<text text-anchor="middle" x="1246.4838" y="-298.5" font-family="Helvetica,sans-Serif" font-size="10.00" fill="#000000">/NameConf.h</text>
</a>
</g>
</g>
<!-- Node0&#45;&gt;Node41 -->
<g id="edge64" class="edge">
<title>Node0&#45;&gt;Node41</title>
<path fill="none" stroke="#191970" d="M966.8416,-425.4094C1034.5504,-396.6183 1141.8753,-350.9817 1201.9674,-325.4293"/>
<polygon fill="#191970" stroke="#191970" points="1203.36,-328.6405 1211.193,-321.5064 1200.6208,-322.1986 1203.36,-328.6405"/>
</g>
<!-- Node44 -->
<g id="node45" class="node">
<title>Node44</title>
<polygon fill="none" stroke="#bfbfbf" points="1298.4838,-364 1298.4838,-383 1390.4838,-383 1390.4838,-364 1298.4838,-364"/>
<text text-anchor="middle" x="1344.4838" y="-371" font-family="Helvetica,sans-Serif" font-size="10.00" fill="#000000">TGeoManager.h</text>
</g>
<!-- Node0&#45;&gt;Node44 -->
<g id="edge69" class="edge">
<title>Node0&#45;&gt;Node44</title>
<path fill="none" stroke="#191970" d="M996.655,-438.8016C1073.6916,-427.5142 1186.7746,-409.6342 1284.4838,-389 1289.4872,-387.9434 1294.701,-386.7448 1299.8746,-385.4934"/>
<polygon fill="#191970" stroke="#191970" points="1300.8501,-388.8575 1309.7083,-383.0452 1299.159,-382.0648 1300.8501,-388.8575"/>
</g>
<!-- Node45 -->
<g id="node46" class="node">
<title>Node45</title>
<polygon fill="none" stroke="#bfbfbf" points="1408.4838,-364 1408.4838,-383 1446.4838,-383 1446.4838,-364 1408.4838,-364"/>
<text text-anchor="middle" x="1427.4838" y="-371" font-family="Helvetica,sans-Serif" font-size="10.00" fill="#000000">map</text>
</g>
<!-- Node0&#45;&gt;Node45 -->
<g id="edge72" class="edge">
<title>Node0&#45;&gt;Node45</title>
<path fill="none" stroke="#191970" d="M996.5458,-444.1267C1118.1517,-433.5682 1326.7077,-412.7717 1399.4838,-389 1400.7316,-388.5924 1401.9876,-388.1281 1403.2395,-387.6209"/>
<polygon fill="#191970" stroke="#191970" points="1405.0713,-390.6233 1412.5576,-383.1262 1402.0301,-384.3184 1405.0713,-390.6233"/>
</g>
<!-- Node46 -->
<g id="node47" class="node">
<title>Node46</title>
<polygon fill="none" stroke="#bfbfbf" points="1464.9838,-364 1464.9838,-383 1529.9838,-383 1529.9838,-364 1464.9838,-364"/>
<text text-anchor="middle" x="1497.4838" y="-371" font-family="Helvetica,sans-Serif" font-size="10.00" fill="#000000">functional</text>
</g>
<!-- Node0&#45;&gt;Node46 -->
<g id="edge73" class="edge">
<title>Node0&#45;&gt;Node46</title>
<path fill="none" stroke="#191970" d="M996.6634,-447.8425C1106.7152,-441.898 1296.7742,-426.7215 1455.4838,-389 1458.6598,-388.2452 1461.9241,-387.3208 1465.1623,-386.3028"/>
<polygon fill="#191970" stroke="#191970" points="1466.3562,-389.5936 1474.6842,-383.0442 1464.0896,-382.9707 1466.3562,-389.5936"/>
</g>
<!-- Node2 -->
<g id="node3" class="node">
<title>Node2</title>
<g id="a_node3"><a xlink:href="../../d2/d45/GPUCommonRtypes_8h.html" target="_top" xlink:title="GPUCommonRtypes.h">
<polygon fill="none" stroke="#000000" points="158.9838,-230 158.9838,-249 283.9838,-249 283.9838,-230 158.9838,-230"/>
<text text-anchor="middle" x="221.4838" y="-237" font-family="Helvetica,sans-Serif" font-size="10.00" fill="#000000">GPUCommonRtypes.h</text>
</a>
</g>
</g>
<!-- Node1&#45;&gt;Node2 -->
<g id="edge2" class="edge">
<title>Node1&#45;&gt;Node2</title>
<path fill="none" stroke="#191970" d="M248.5418,-291.2967C243.4063,-281.4658 236.6867,-268.6026 231.2287,-258.1545"/>
<polygon fill="#191970" stroke="#191970" points="234.2077,-256.2979 226.4753,-249.055 228.0033,-259.5391 234.2077,-256.2979"/>
</g>
<!-- Node4 -->
<g id="node5" class="node">
<title>Node4</title>
<polygon fill="none" stroke="#bfbfbf" points="14.9838,-230 14.9838,-249 63.9838,-249 63.9838,-230 14.9838,-230"/>
<text text-anchor="middle" x="39.4838" y="-237" font-family="Helvetica,sans-Serif" font-size="10.00" fill="#000000">iosfwd</text>
</g>
<!-- Node1&#45;&gt;Node4 -->
<g id="edge4" class="edge">
<title>Node1&#45;&gt;Node4</title>
<path fill="none" stroke="#191970" d="M199.1291,-291.4217C164.0293,-281.8203 118.3534,-268.6547 78.4838,-255 76.3557,-254.2711 74.1735,-253.4926 71.9814,-252.687"/>
<polygon fill="#191970" stroke="#191970" points="73.0341,-249.3427 62.4433,-249.0518 70.5411,-255.8837 73.0341,-249.3427"/>
</g>
<!-- Node5 -->
<g id="node6" class="node">
<title>Node5</title>
<polygon fill="none" stroke="#bfbfbf" points="480.9838,-56.5 480.9838,-75.5 527.9838,-75.5 527.9838,-56.5 480.9838,-56.5"/>
<text text-anchor="middle" x="504.4838" y="-63.5" font-family="Helvetica,sans-Serif" font-size="10.00" fill="#000000">cmath</text>
</g>
<!-- Node1&#45;&gt;Node5 -->
<g id="edge5" class="edge">
<title>Node1&#45;&gt;Node5</title>
<path fill="none" stroke="#191970" d="M170.2405,-291.4619C99.7562,-278.7564 10.87,-261.6035 5.4838,-255 -3.2246,-244.3234 .1273,-236.6939 5.4838,-224 33.2215,-158.2672 56.1083,-142.7565 120.4838,-112 182.2238,-82.5027 389.0588,-70.8165 470.8172,-67.2779"/>
<polygon fill="#191970" stroke="#191970" points="470.9799,-70.7743 480.8246,-66.8587 470.6869,-63.7804 470.9799,-70.7743"/>
</g>
<!-- Node6 -->
<g id="node7" class="node">
<title>Node6</title>
<polygon fill="none" stroke="#bfbfbf" points="129.4838,-112.5 129.4838,-131.5 179.4838,-131.5 179.4838,-112.5 129.4838,-112.5"/>
<text text-anchor="middle" x="154.4838" y="-119.5" font-family="Helvetica,sans-Serif" font-size="10.00" fill="#000000">cstdint</text>
</g>
<!-- Node1&#45;&gt;Node6 -->
<g id="edge6" class="edge">
<title>Node1&#45;&gt;Node6</title>
<path fill="none" stroke="#191970" d="M195.5054,-291.4964C162.3443,-281.9711 126.1526,-268.8589 116.4838,-255 94.3599,-223.2882 103.3988,-204.3853 116.4838,-168 120.4275,-157.0341 128.2435,-146.8227 135.7669,-138.8204"/>
<polygon fill="#191970" stroke="#191970" points="138.4031,-141.1354 143.0385,-131.6084 133.4737,-136.1653 138.4031,-141.1354"/>
</g>
<!-- Node7 -->
<g id="node8" class="node">
<title>Node7</title>
<g id="a_node8"><a xlink:href="../../d4/dc6/LHCConstants_8h.html" target="_top" xlink:title="Header to collect LHC related constants. ">
<polygon fill="none" stroke="#000000" points="546.4838,-230 546.4838,-249 736.4838,-249 736.4838,-230 546.4838,-230"/>
<text text-anchor="middle" x="641.4838" y="-237" font-family="Helvetica,sans-Serif" font-size="10.00" fill="#000000">CommonConstants/LHCConstants.h</text>
</a>
</g>
</g>
<!-- Node1&#45;&gt;Node7 -->
<g id="edge7" class="edge">
<title>Node1&#45;&gt;Node7</title>
<path fill="none" stroke="#191970" d="M342.8854,-291.4639C413.8045,-279.1221 512.6636,-261.9181 576.8668,-250.745"/>
<polygon fill="#191970" stroke="#191970" points="577.6121,-254.168 586.8639,-249.0053 576.4119,-247.2717 577.6121,-254.168"/>
</g>
<!-- Node3 -->
<g id="node4" class="node">
<title>Node3</title>
<polygon fill="none" stroke="#bfbfbf" points="394.9838,-168.5 394.9838,-187.5 453.9838,-187.5 453.9838,-168.5 394.9838,-168.5"/>
<text text-anchor="middle" x="424.4838" y="-175.5" font-family="Helvetica,sans-Serif" font-size="10.00" fill="#000000">Rtypes.h</text>
</g>
<!-- Node2&#45;&gt;Node3 -->
<g id="edge3" class="edge">
<title>Node2&#45;&gt;Node3</title>
<path fill="none" stroke="#191970" d="M253.2026,-229.8906C288.8252,-219.0986 346.6739,-201.573 385.146,-189.9176"/>
<polygon fill="#191970" stroke="#191970" points="386.4103,-193.1918 394.9659,-186.9426 384.3806,-186.4925 386.4103,-193.1918"/>
</g>
<!-- Node8&#45;&gt;Node1 -->
<g id="edge12" class="edge">
<title>Node8&#45;&gt;Node1</title>
<path fill="none" stroke="#191970" d="M488.6207,-359.0445C442.829,-348.6795 380.946,-334.6722 332.589,-323.7265"/>
<polygon fill="#191970" stroke="#191970" points="333.3228,-320.3041 322.7968,-321.51 331.7774,-327.1314 333.3228,-320.3041"/>
</g>
<!-- Node8&#45;&gt;Node9 -->
<g id="edge9" class="edge">
<title>Node8&#45;&gt;Node9</title>
<path fill="none" stroke="#191970" d="M578.9654,-358.4639C598.5859,-347.3234 625.1839,-332.2212 644.6488,-321.1691"/>
<polygon fill="#191970" stroke="#191970" points="646.6016,-324.0851 653.5695,-316.1039 643.1453,-317.9979 646.6016,-324.0851"/>
</g>
<!-- Node8&#45;&gt;Node10 -->
<g id="edge10" class="edge">
<title>Node8&#45;&gt;Node10</title>
<path fill="none" stroke="#191970" d="M488.7093,-368.8201C377.5679,-360.2945 152.9413,-341.3221 76.4838,-322 73.8546,-321.3355 71.1671,-320.526 68.4969,-319.6293"/>
<polygon fill="#191970" stroke="#191970" points="69.6295,-316.3162 59.0368,-316.1028 67.1844,-322.8753 69.6295,-316.3162"/>
</g>
<!-- Node11 -->
<g id="node12" class="node">
<title>Node11</title>
<polygon fill="none" stroke="#bfbfbf" points="85.9838,-297 85.9838,-316 150.9838,-316 150.9838,-297 85.9838,-297"/>
<text text-anchor="middle" x="118.4838" y="-304" font-family="Helvetica,sans-Serif" font-size="10.00" fill="#000000">TBranch.h</text>
</g>
<!-- Node8&#45;&gt;Node11 -->
<g id="edge11" class="edge">
<title>Node8&#45;&gt;Node11</title>
<path fill="none" stroke="#191970" d="M488.8789,-369.5179C410.6594,-363.6243 274.2696,-350.0969 160.4838,-322 157.4868,-321.2599 154.4087,-320.3764 151.3469,-319.4117"/>
<polygon fill="#191970" stroke="#191970" points="152.336,-316.0511 141.7414,-316.1304 150.073,-322.6752 152.336,-316.0511"/>
</g>
<!-- Node12 -->
<g id="node13" class="node">
<title>Node12</title>
<g id="a_node13"><a xlink:href="../../d4/d5f/BunchFilling_8h.html" target="_top" xlink:title="CommonDataFormat/BunchFilling.h">
<polygon fill="none" stroke="#000000" points="788.9838,-297 788.9838,-316 977.9838,-316 977.9838,-297 788.9838,-297"/>
<text text-anchor="middle" x="883.4838" y="-304" font-family="Helvetica,sans-Serif" font-size="10.00" fill="#000000">CommonDataFormat/BunchFilling.h</text>
</a>
</g>
</g>
<!-- Node8&#45;&gt;Node12 -->
<g id="edge13" class="edge">
<title>Node8&#45;&gt;Node12</title>
<path fill="none" stroke="#191970" d="M616.304,-360.5817C677.2164,-348.252 768.1315,-329.8493 826.6199,-318.0102"/>
<polygon fill="#191970" stroke="#191970" points="827.3263,-321.4383 836.4331,-316.0239 825.9374,-314.5775 827.3263,-321.4383"/>
</g>
<!-- Node15 -->
<g id="node16" class="node">
<title>Node15</title>
<g id="a_node16"><a xlink:href="../../d6/d31/DetID_8h.html" target="_top" xlink:title="DetectorsCommonDataFormats\l/DetID.h">
<polygon fill="none" stroke="#000000" points="792.9838,-224.5 792.9838,-254.5 963.9838,-254.5 963.9838,-224.5 792.9838,-224.5"/>
<text text-anchor="start" x="800.9838" y="-242.5" font-family="Helvetica,sans-Serif" font-size="10.00" fill="#000000">DetectorsCommonDataFormats</text>
<text text-anchor="middle" x="878.4838" y="-231.5" font-family="Helvetica,sans-Serif" font-size="10.00" fill="#000000">/DetID.h</text>
</a>
</g>
</g>
<!-- Node8&#45;&gt;Node15 -->
<g id="edge17" class="edge">
<title>Node8&#45;&gt;Node15</title>
<path fill="none" stroke="#191970" d="M566.1934,-358.3091C585.7675,-336.9635 621.1577,-299.7187 637.4838,-291 662.6283,-277.5721 726.8904,-264.1701 782.7358,-254.405"/>
<polygon fill="#191970" stroke="#191970" points="783.4347,-257.8362 792.6936,-252.6862 782.244,-250.9382 783.4347,-257.8362"/>
</g>
<!-- Node34 -->
<g id="node35" class="node">
<title>Node34</title>
<g id="a_node35"><a xlink:href="../../de/d28/GRPObject_8h.html" target="_top" xlink:title="Header of the General Run Parameters object. ">
<polygon fill="none" stroke="#000000" points="361.9838,-291.5 361.9838,-321.5 496.9838,-321.5 496.9838,-291.5 361.9838,-291.5"/>
<text text-anchor="start" x="369.9838" y="-309.5" font-family="Helvetica,sans-Serif" font-size="10.00" fill="#000000">DataFormatsParameters</text>
<text text-anchor="middle" x="429.4838" y="-298.5" font-family="Helvetica,sans-Serif" font-size="10.00" fill="#000000">/GRPObject.h</text>
</a>
</g>
</g>
<!-- Node8&#45;&gt;Node34 -->
<g id="edge48" class="edge">
<title>Node8&#45;&gt;Node34</title>
<path fill="none" stroke="#191970" d="M524.8802,-358.4639C507.5935,-349.0475 485.1107,-336.8008 466.3136,-326.5617"/>
<polygon fill="#191970" stroke="#191970" points="467.8768,-323.4277 457.4209,-321.7177 464.5283,-329.5749 467.8768,-323.4277"/>
</g>
<!-- Node37 -->
<g id="node38" class="node">
<title>Node37</title>
<polygon fill="none" stroke="#bfbfbf" points="514.9838,-297 514.9838,-316 589.9838,-316 589.9838,-297 514.9838,-297"/>
<text text-anchor="middle" x="552.4838" y="-304" font-family="Helvetica,sans-Serif" font-size="10.00" fill="#000000">FairLogger.h</text>
</g>
<!-- Node8&#45;&gt;Node37 -->
<g id="edge55" class="edge">
<title>Node8&#45;&gt;Node37</title>
<path fill="none" stroke="#191970" d="M552.4838,-358.2967C552.4838,-348.7699 552.4838,-336.3954 552.4838,-326.1306"/>
<polygon fill="#191970" stroke="#191970" points="555.9839,-326.0549 552.4838,-316.055 548.9839,-326.055 555.9839,-326.0549"/>
</g>
<!-- Node12&#45;&gt;Node7 -->
<g id="edge14" class="edge">
<title>Node12&#45;&gt;Node7</title>
<path fill="none" stroke="#191970" d="M849.0682,-296.9717C806.2749,-285.124 733.1399,-264.8758 686.0867,-251.8487"/>
<polygon fill="#191970" stroke="#191970" points="686.744,-248.3991 676.1726,-249.1039 684.8762,-255.1453 686.744,-248.3991"/>
</g>
<!-- Node13 -->
<g id="node14" class="node">
<title>Node13</title>
<polygon fill="none" stroke="#bfbfbf" points="998.4838,-168.5 998.4838,-187.5 1042.4838,-187.5 1042.4838,-168.5 998.4838,-168.5"/>
<text text-anchor="middle" x="1020.4838" y="-175.5" font-family="Helvetica,sans-Serif" font-size="10.00" fill="#000000">bitset</text>
</g>
<!-- Node12&#45;&gt;Node13 -->
<g id="edge15" class="edge">
<title>Node12&#45;&gt;Node13</title>
<path fill="none" stroke="#191970" d="M906.7266,-296.9009C925.9924,-288.1017 953.2407,-273.6211 972.4838,-255 989.9207,-238.1268 1003.7518,-213.6824 1012.0036,-196.8863"/>
<polygon fill="#191970" stroke="#191970" points="1015.3052,-198.0906 1016.4028,-187.5528 1008.9733,-195.1061 1015.3052,-198.0906"/>
</g>
<!-- Node12&#45;&gt;Node14 -->
<g id="edge16" class="edge">
<title>Node12&#45;&gt;Node14</title>
<path fill="none" stroke="#191970" d="M911.1952,-296.8755C935.2855,-287.8727 970.599,-273.1132 998.4838,-255 1047.0484,-223.4538 1043.3294,-193.1713 1095.4838,-168 1181.5549,-126.4596 1213.4118,-148.8605 1307.4838,-132 1314.1373,-130.8075 1321.2527,-129.4924 1328.0404,-128.2186"/>
<polygon fill="#191970" stroke="#191970" points="1329.1479,-131.5713 1338.3237,-126.2746 1327.8476,-124.6932 1329.1479,-131.5713"/>
</g>
<!-- Node15&#45;&gt;Node3 -->
<g id="edge18" class="edge">
<title>Node15&#45;&gt;Node3</title>
<path fill="none" stroke="#191970" d="M792.8702,-226.01C788.0057,-225.312 783.1844,-224.637 778.4838,-224 641.0365,-205.3739 605.1988,-211.4039 468.4838,-188 467.0361,-187.7522 465.5644,-187.487 464.08,-187.2083"/>
<polygon fill="#191970" stroke="#191970" points="464.7141,-183.7658 454.2188,-185.2149 463.327,-190.627 464.7141,-183.7658"/>
</g>
<!-- Node15&#45;&gt;Node6 -->
<g id="edge22" class="edge">
<title>Node15&#45;&gt;Node6</title>
<path fill="none" stroke="#191970" d="M792.8613,-226.0741C787.9991,-225.3598 783.1807,-224.6637 778.4838,-224 653.3762,-206.3218 616.0434,-228.8651 496.4838,-188 479.8945,-182.3298 479.0255,-173.8078 462.4838,-168 356.9804,-130.9578 323.9478,-149.3441 213.4838,-132 205.7767,-130.7899 197.5144,-129.4293 189.6858,-128.1105"/>
<polygon fill="#191970" stroke="#191970" points="190.1726,-124.6432 179.7274,-126.4173 188.9992,-131.5441 190.1726,-124.6432"/>
</g>
<!-- Node15&#45;&gt;Node13 -->
<g id="edge20" class="edge">
<title>Node15&#45;&gt;Node13</title>
<path fill="none" stroke="#191970" d="M913.221,-224.4554C936.3944,-214.419 966.613,-201.3314 989.0681,-191.6061"/>
<polygon fill="#191970" stroke="#191970" points="990.6936,-194.7164 998.4789,-187.5303 987.9115,-188.2929 990.6936,-194.7164"/>
</g>
<!-- Node15&#45;&gt;Node14 -->
<g id="edge24" class="edge">
<title>Node15&#45;&gt;Node14</title>
<path fill="none" stroke="#191970" d="M899.572,-224.2533C926.1708,-205.3217 970.6993,-174.6974 989.4838,-168 1123.4592,-120.2327 1166.8366,-153.2003 1307.4838,-132 1314.1678,-130.9925 1321.2965,-129.7581 1328.0876,-128.5048"/>
<polygon fill="#191970" stroke="#191970" points="1329.199,-131.8562 1338.3691,-126.5497 1327.8913,-124.9795 1329.199,-131.8562"/>
</g>
<!-- Node16 -->
<g id="node17" class="node">
<title>Node16</title>
<polygon fill="none" stroke="#bfbfbf" points="222.4838,-112.5 222.4838,-131.5 264.4838,-131.5 264.4838,-112.5 222.4838,-112.5"/>
<text text-anchor="middle" x="243.4838" y="-119.5" font-family="Helvetica,sans-Serif" font-size="10.00" fill="#000000">array</text>
</g>
<!-- Node15&#45;&gt;Node16 -->
<g id="edge19" class="edge">
<title>Node15&#45;&gt;Node16</title>
<path fill="none" stroke="#191970" d="M792.9235,-226.2208C706.8255,-212.7581 583.6752,-193.1907 561.4838,-188 532.0528,-181.1159 525.9184,-174.8694 496.4838,-168 401.772,-145.8961 372.7811,-155.3117 274.4061,-131.9018"/>
<polygon fill="#191970" stroke="#191970" points="275.2089,-128.4951 264.6649,-129.5317 273.5539,-135.2967 275.2089,-128.4951"/>
</g>
<!-- Node17 -->
<g id="node18" class="node">
<title>Node17</title>
<polygon fill="none" stroke="#bfbfbf" points="532.4838,-112.5 532.4838,-131.5 584.4838,-131.5 584.4838,-112.5 532.4838,-112.5"/>
<text text-anchor="middle" x="558.4838" y="-119.5" font-family="Helvetica,sans-Serif" font-size="10.00" fill="#000000">cassert</text>
</g>
<!-- Node15&#45;&gt;Node17 -->
<g id="edge21" class="edge">
<title>Node15&#45;&gt;Node17</title>
<path fill="none" stroke="#191970" d="M792.9666,-225.9861C705.4219,-211.9862 581.558,-191.6459 577.4838,-188 564.5972,-176.4681 560.2137,-156.8195 558.8349,-141.9521"/>
<polygon fill="#191970" stroke="#191970" points="562.3167,-141.5222 558.2751,-131.7285 555.3271,-141.905 562.3167,-141.5222"/>
</g>
<!-- Node18 -->
<g id="node19" class="node">
<title>Node18</title>
<polygon fill="none" stroke="#bfbfbf" points="1104.9838,-168.5 1104.9838,-187.5 1177.9838,-187.5 1177.9838,-168.5 1104.9838,-168.5"/>
<text text-anchor="middle" x="1141.4838" y="-175.5" font-family="Helvetica,sans-Serif" font-size="10.00" fill="#000000">string_view</text>
</g>
<!-- Node15&#45;&gt;Node18 -->
<g id="edge23" class="edge">
<title>Node15&#45;&gt;Node18</title>
<path fill="none" stroke="#191970" d="M942.8209,-224.4554C989.9839,-213.4268 1052.9029,-198.7138 1095.185,-188.8265"/>
<polygon fill="#191970" stroke="#191970" points="1095.9972,-192.2311 1104.9375,-186.546 1094.4032,-185.415 1095.9972,-192.2311"/>
</g>
<!-- Node19 -->
<g id="node20" class="node">
<title>Node19</title>
<polygon fill="none" stroke="#bfbfbf" points="586.9838,-168.5 586.9838,-187.5 655.9838,-187.5 655.9838,-168.5 586.9838,-168.5"/>
<text text-anchor="middle" x="621.4838" y="-175.5" font-family="Helvetica,sans-Serif" font-size="10.00" fill="#000000">type_traits</text>
</g>
<!-- Node15&#45;&gt;Node19 -->
<g id="edge25" class="edge">
<title>Node15&#45;&gt;Node19</title>
<path fill="none" stroke="#191970" d="M815.6146,-224.4554C769.2129,-213.3515 707.2038,-198.5127 665.8831,-188.6247"/>
<polygon fill="#191970" stroke="#191970" points="666.6444,-185.2081 656.1044,-186.2847 665.0152,-192.0159 666.6444,-185.2081"/>
</g>
<!-- Node20 -->
<g id="node21" class="node">
<title>Node20</title>
<g id="a_node21"><a xlink:href="../../d9/d52/Common_2MathUtils_2include_2MathUtils_2Utils_8h.html" target="_top" xlink:title="MathUtils/Utils.h">
<polygon fill="none" stroke="#000000" points="674.4838,-168.5 674.4838,-187.5 772.4838,-187.5 772.4838,-168.5 674.4838,-168.5"/>
<text text-anchor="middle" x="723.4838" y="-175.5" font-family="Helvetica,sans-Serif" font-size="10.00" fill="#000000">MathUtils/Utils.h</text>
</a>
</g>
</g>
<!-- Node15&#45;&gt;Node20 -->
<g id="edge26" class="edge">
<title>Node15&#45;&gt;Node20</title>
<path fill="none" stroke="#191970" d="M840.5666,-224.4554C815.0447,-214.329 781.6942,-201.0964 757.1183,-191.3453"/>
<polygon fill="#191970" stroke="#191970" points="758.0893,-187.9651 747.5033,-187.5303 755.5076,-194.4717 758.0893,-187.9651"/>
</g>
<!-- Node27 -->
<g id="node28" class="node">
<title>Node27</title>
<g id="a_node28"><a xlink:href="../../dc/dcd/DataHeader_8h.html" target="_top" xlink:title="Headers/DataHeader.h">
<polygon fill="none" stroke="#000000" points="814.9838,-168.5 814.9838,-187.5 941.9838,-187.5 941.9838,-168.5 814.9838,-168.5"/>
<text text-anchor="middle" x="878.4838" y="-175.5" font-family="Helvetica,sans-Serif" font-size="10.00" fill="#000000">Headers/DataHeader.h</text>
</a>
</g>
</g>
<!-- Node15&#45;&gt;Node27 -->
<g id="edge37" class="edge">
<title>Node15&#45;&gt;Node27</title>
<path fill="none" stroke="#191970" d="M878.4838,-224.2977C878.4838,-216.3834 878.4838,-206.6043 878.4838,-198.0759"/>
<polygon fill="#191970" stroke="#191970" points="881.9839,-197.8469 878.4838,-187.8469 874.9839,-197.847 881.9839,-197.8469"/>
</g>
<!-- Node20&#45;&gt;Node5 -->
<g id="edge28" class="edge">
<title>Node20&#45;&gt;Node5</title>
<path fill="none" stroke="#191970" d="M674.1669,-169.3497C618.569,-159.1821 534.4451,-142.3823 523.4838,-132 510.9288,-120.108 506.5012,-100.5073 505.0218,-85.7491"/>
<polygon fill="#191970" stroke="#191970" points="508.5051,-85.3737 504.3794,-75.6152 501.5191,-85.8167 508.5051,-85.3737"/>
</g>
<!-- Node20&#45;&gt;Node16 -->
<g id="edge27" class="edge">
<title>Node20&#45;&gt;Node16</title>
<path fill="none" stroke="#191970" d="M674.2705,-169.3709C670.9626,-168.8797 667.6774,-168.417 664.4838,-168 494.6511,-145.8217 446.0724,-167.0127 274.4881,-131.7757"/>
<polygon fill="#191970" stroke="#191970" points="275.1272,-128.3337 264.6229,-129.716 273.6965,-135.1859 275.1272,-128.3337"/>
</g>
<!-- Node21 -->
<g id="node22" class="node">
<title>Node21</title>
<g id="a_node22"><a xlink:href="../../df/d21/GPUCommonDef_8h.html" target="_top" xlink:title="GPUCommonDef.h">
<polygon fill="none" stroke="#000000" points="601.9838,-56.5 601.9838,-75.5 708.9838,-75.5 708.9838,-56.5 601.9838,-56.5"/>
<text text-anchor="middle" x="655.4838" y="-63.5" font-family="Helvetica,sans-Serif" font-size="10.00" fill="#000000">GPUCommonDef.h</text>
</a>
</g>
</g>
<!-- Node20&#45;&gt;Node21 -->
<g id="edge29" class="edge">
<title>Node20&#45;&gt;Node21</title>
<path fill="none" stroke="#191970" d="M683.1913,-168.4495C664.018,-161.6623 642.8436,-150.3805 631.4838,-132 622.1244,-116.856 631.2495,-97.516 640.8179,-83.6933"/>
<polygon fill="#191970" stroke="#191970" points="643.7628,-85.6007 646.9798,-75.506 638.1699,-81.3912 643.7628,-85.6007"/>
</g>
<!-- Node24 -->
<g id="node25" class="node">
<title>Node24</title>
<g id="a_node25"><a xlink:href="../../d6/da2/GPUCommonMath_8h.html" target="_top" xlink:title="GPUCommonMath.h">
<polygon fill="none" stroke="#000000" points="640.9838,-112.5 640.9838,-131.5 755.9838,-131.5 755.9838,-112.5 640.9838,-112.5"/>
<text text-anchor="middle" x="698.4838" y="-119.5" font-family="Helvetica,sans-Serif" font-size="10.00" fill="#000000">GPUCommonMath.h</text>
</a>
</g>
</g>
<!-- Node20&#45;&gt;Node24 -->
<g id="edge32" class="edge">
<title>Node20&#45;&gt;Node24</title>
<path fill="none" stroke="#191970" d="M719.1292,-168.2455C715.7594,-160.6973 710.9909,-150.0158 706.8855,-140.8197"/>
<polygon fill="#191970" stroke="#191970" points="710.0612,-139.3473 702.7886,-131.6427 703.6692,-142.2009 710.0612,-139.3473"/>
</g>
<!-- Node26 -->
<g id="node27" class="node">
<title>Node26</title>
<g id="a_node27"><a xlink:href="../../d6/d84/MathConstants_8h.html" target="_top" xlink:title="useful math constants ">
<polygon fill="none" stroke="#000000" points="282.4838,-112.5 282.4838,-131.5 476.4838,-131.5 476.4838,-112.5 282.4838,-112.5"/>
<text text-anchor="middle" x="379.4838" y="-119.5" font-family="Helvetica,sans-Serif" font-size="10.00" fill="#000000">CommonConstants/MathConstants.h</text>
</a>
</g>
</g>
<!-- Node20&#45;&gt;Node26 -->
<g id="edge36" class="edge">
<title>Node20&#45;&gt;Node26</title>
<path fill="none" stroke="#191970" d="M674.2333,-169.6226C670.9344,-169.0707 667.6613,-168.5257 664.4838,-168 591.132,-155.8643 507.0925,-142.3472 449.3817,-133.1245"/>
<polygon fill="#191970" stroke="#191970" points="449.7062,-129.632 439.2793,-131.5109 448.6021,-136.5444 449.7062,-129.632"/>
</g>
<!-- Node22 -->
<g id="node23" class="node">
<title>Node22</title>
<g id="a_node23"><a xlink:href="../../d5/d93/GPUCommonDefSettings_8h.html" target="_top" xlink:title="GPUCommonDefSettings.h">
<polygon fill="none" stroke="#000000" points="504.4838,-.5 504.4838,-19.5 652.4838,-19.5 652.4838,-.5 504.4838,-.5"/>
<text text-anchor="middle" x="578.4838" y="-7.5" font-family="Helvetica,sans-Serif" font-size="10.00" fill="#000000">GPUCommonDefSettings.h</text>
</a>
</g>
</g>
<!-- Node21&#45;&gt;Node22 -->
<g id="edge30" class="edge">
<title>Node21&#45;&gt;Node22</title>
<path fill="none" stroke="#191970" d="M642.0715,-56.2455C630.4781,-47.814 613.5091,-35.4729 600.016,-25.6598"/>
<polygon fill="#191970" stroke="#191970" points="601.8885,-22.6938 591.7425,-19.6427 597.7713,-28.355 601.8885,-22.6938"/>
</g>
<!-- Node23 -->
<g id="node24" class="node">
<title>Node23</title>
<g id="a_node24"><a xlink:href="../../da/d5a/GPUCommonDefAPI_8h.html" target="_top" xlink:title="GPUCommonDefAPI.h">
<polygon fill="none" stroke="#000000" points="670.4838,-.5 670.4838,-19.5 794.4838,-19.5 794.4838,-.5 670.4838,-.5"/>
<text text-anchor="middle" x="732.4838" y="-7.5" font-family="Helvetica,sans-Serif" font-size="10.00" fill="#000000">GPUCommonDefAPI.h</text>
</a>
</g>
</g>
<!-- Node21&#45;&gt;Node23 -->
<g id="edge31" class="edge">
<title>Node21&#45;&gt;Node23</title>
<path fill="none" stroke="#191970" d="M668.8962,-56.2455C680.4896,-47.814 697.4586,-35.4729 710.9517,-25.6598"/>
<polygon fill="#191970" stroke="#191970" points="713.1964,-28.355 719.2252,-19.6427 709.0792,-22.6938 713.1964,-28.355"/>
</g>
<!-- Node24&#45;&gt;Node5 -->
<g id="edge34" class="edge">
<title>Node24&#45;&gt;Node5</title>
<path fill="none" stroke="#191970" d="M665.1341,-112.3733C629.6375,-102.1268 573.7804,-86.0031 538.1597,-75.7209"/>
<polygon fill="#191970" stroke="#191970" points="538.8201,-72.2687 528.2417,-72.8579 536.8787,-78.9941 538.8201,-72.2687"/>
</g>
<!-- Node24&#45;&gt;Node21 -->
<g id="edge33" class="edge">
<title>Node24&#45;&gt;Node21</title>
<path fill="none" stroke="#191970" d="M690.9938,-112.2455C684.9512,-104.3761 676.2936,-93.101 669.0397,-83.6542"/>
<polygon fill="#191970" stroke="#191970" points="671.7544,-81.4426 662.888,-75.6427 666.2023,-85.7058 671.7544,-81.4426"/>
</g>
<!-- Node25 -->
<g id="node26" class="node">
<title>Node25</title>
<polygon fill="none" stroke="#bfbfbf" points="1024.4838,-56.5 1024.4838,-75.5 1088.4838,-75.5 1088.4838,-56.5 1024.4838,-56.5"/>
<text text-anchor="middle" x="1056.4838" y="-63.5" font-family="Helvetica,sans-Serif" font-size="10.00" fill="#000000">algorithm</text>
</g>
<!-- Node24&#45;&gt;Node25 -->
<g id="edge35" class="edge">
<title>Node24&#45;&gt;Node25</title>
<path fill="none" stroke="#191970" d="M756.0027,-113.0026C828.0862,-101.727 949.9349,-82.6669 1014.0803,-72.633"/>
<polygon fill="#191970" stroke="#191970" points="1014.8993,-76.0475 1024.2382,-71.044 1013.8174,-69.1316 1014.8993,-76.0475"/>
</g>
<!-- Node27&#45;&gt;Node6 -->
<g id="edge38" class="edge">
<title>Node27&#45;&gt;Node6</title>
<path fill="none" stroke="#191970" d="M814.861,-171.0786C803.7427,-169.9726 792.2814,-168.8984 781.4838,-168 529.4039,-147.026 464.7467,-161.175 213.4838,-132 205.7343,-131.1002 197.4545,-129.8678 189.6224,-128.5754"/>
<polygon fill="#191970" stroke="#191970" points="190.1146,-125.1088 179.6663,-126.8647 188.9292,-132.0077 190.1146,-125.1088"/>
</g>
<!-- Node27&#45;&gt;Node14 -->
<g id="edge44" class="edge">
<title>Node27&#45;&gt;Node14</title>
<path fill="none" stroke="#191970" d="M942.3157,-169.6581C947.1082,-169.0803 951.8713,-168.5212 956.4838,-168 1119.7811,-149.5491 1162.9286,-162.1049 1324.4838,-132 1325.7393,-131.7661 1327.0146,-131.5089 1328.2992,-131.2336"/>
<polygon fill="#191970" stroke="#191970" points="1329.2597,-134.6023 1338.1561,-128.8485 1327.6134,-127.7986 1329.2597,-134.6023"/>
</g>
<!-- Node27&#45;&gt;Node17 -->
<g id="edge40" class="edge">
<title>Node27&#45;&gt;Node17</title>
<path fill="none" stroke="#191970" d="M823.8375,-168.4369C758.4347,-156.9914 650.7534,-138.1472 594.7942,-128.3543"/>
<polygon fill="#191970" stroke="#191970" points="595.0979,-124.8543 584.6443,-126.5781 593.8912,-131.7496 595.0979,-124.8543"/>
</g>
<!-- Node27&#45;&gt;Node25 -->
<g id="edge42" class="edge">
<title>Node27&#45;&gt;Node25</title>
<path fill="none" stroke="#191970" d="M942.3217,-169.7093C947.1127,-169.1197 951.874,-168.5439 956.4838,-168 1030.6218,-159.253 1240.6054,-187.5435 1290.4838,-132 1296.4229,-125.3864 1296.1306,-118.8649 1290.4838,-112 1266.6775,-83.0582 1159.5296,-72.046 1098.8123,-68.0783"/>
<polygon fill="#191970" stroke="#191970" points="1098.9625,-64.581 1088.7659,-67.4583 1098.5313,-71.5677 1098.9625,-64.581"/>
</g>
<!-- Node28 -->
<g id="node29" class="node">
<title>Node28</title>
<polygon fill="none" stroke="#bfbfbf" points="774.4838,-112.5 774.4838,-131.5 832.4838,-131.5 832.4838,-112.5 774.4838,-112.5"/>
<text text-anchor="middle" x="803.4838" y="-119.5" font-family="Helvetica,sans-Serif" font-size="10.00" fill="#000000">memory</text>
</g>
<!-- Node27&#45;&gt;Node28 -->
<g id="edge39" class="edge">
<title>Node27&#45;&gt;Node28</title>
<path fill="none" stroke="#191970" d="M865.4198,-168.2455C854.1276,-159.814 837.5994,-147.4729 824.4567,-137.6598"/>
<polygon fill="#191970" stroke="#191970" points="826.505,-134.8211 816.3981,-131.6427 822.3169,-140.4301 826.505,-134.8211"/>
</g>
<!-- Node29 -->
<g id="node30" class="node">
<title>Node29</title>
<polygon fill="none" stroke="#bfbfbf" points="850.4838,-112.5 850.4838,-131.5 900.4838,-131.5 900.4838,-112.5 850.4838,-112.5"/>
<text text-anchor="middle" x="875.4838" y="-119.5" font-family="Helvetica,sans-Serif" font-size="10.00" fill="#000000">cstring</text>
</g>
<!-- Node27&#45;&gt;Node29 -->
<g id="edge41" class="edge">
<title>Node27&#45;&gt;Node29</title>
<path fill="none" stroke="#191970" d="M877.9613,-168.2455C877.5698,-160.9382 877.021,-150.6944 876.5395,-141.7046"/>
<polygon fill="#191970" stroke="#191970" points="880.0305,-141.4411 876.0004,-131.6427 873.0405,-141.8156 880.0305,-141.4411"/>
</g>
<!-- Node30 -->
<g id="node31" class="node">
<title>Node30</title>
<polygon fill="none" stroke="#bfbfbf" points="918.9838,-112.5 918.9838,-131.5 983.9838,-131.5 983.9838,-112.5 918.9838,-112.5"/>
<text text-anchor="middle" x="951.4838" y="-119.5" font-family="Helvetica,sans-Serif" font-size="10.00" fill="#000000">stdexcept</text>
</g>
<!-- Node27&#45;&gt;Node30 -->
<g id="edge43" class="edge">
<title>Node27&#45;&gt;Node30</title>
<path fill="none" stroke="#191970" d="M891.1995,-168.2455C902.0859,-159.8943 917.9721,-147.7076 930.7039,-137.9408"/>
<polygon fill="#191970" stroke="#191970" points="933.1099,-140.5063 938.9139,-131.6427 928.8493,-134.9523 933.1099,-140.5063"/>
</g>
<!-- Node31 -->
<g id="node32" class="node">
<title>Node31</title>
<polygon fill="none" stroke="#bfbfbf" points="1002.4838,-112.5 1002.4838,-131.5 1052.4838,-131.5 1052.4838,-112.5 1002.4838,-112.5"/>
<text text-anchor="middle" x="1027.4838" y="-119.5" font-family="Helvetica,sans-Serif" font-size="10.00" fill="#000000">climits</text>
</g>
<!-- Node27&#45;&gt;Node31 -->
<g id="edge45" class="edge">
<title>Node27&#45;&gt;Node31</title>
<path fill="none" stroke="#191970" d="M904.0979,-168.3733C928.5525,-159.1822 965.5893,-145.2624 992.7047,-135.0713"/>
<polygon fill="#191970" stroke="#191970" points="994.0747,-138.2956 1002.2041,-131.5011 991.612,-131.7431 994.0747,-138.2956"/>
</g>
<!-- Node32 -->
<g id="node33" class="node">
<title>Node32</title>
<g id="a_node33"><a xlink:href="../../d7/df8/Types_8h.html" target="_top" xlink:title="MemoryResources/Types.h">
<polygon fill="none" stroke="#000000" points="1070.4838,-112.5 1070.4838,-131.5 1216.4838,-131.5 1216.4838,-112.5 1070.4838,-112.5"/>
<text text-anchor="middle" x="1143.4838" y="-119.5" font-family="Helvetica,sans-Serif" font-size="10.00" fill="#000000">MemoryResources/Types.h</text>
</a>
</g>
</g>
<!-- Node27&#45;&gt;Node32 -->
<g id="edge46" class="edge">
<title>Node27&#45;&gt;Node32</title>
<path fill="none" stroke="#191970" d="M923.7379,-168.4369C969.2811,-158.8127 1039.5804,-143.957 1088.3524,-133.6504"/>
<polygon fill="#191970" stroke="#191970" points="1089.3562,-137.0157 1098.4165,-131.5237 1087.9089,-130.1669 1089.3562,-137.0157"/>
</g>
<!-- Node33 -->
<g id="node34" class="node">
<title>Node33</title>
<polygon fill="none" stroke="#bfbfbf" points="1234.9838,-112.5 1234.9838,-131.5 1281.9838,-131.5 1281.9838,-112.5 1234.9838,-112.5"/>
<text text-anchor="middle" x="1258.4838" y="-119.5" font-family="Helvetica,sans-Serif" font-size="10.00" fill="#000000">cerrno</text>
</g>
<!-- Node27&#45;&gt;Node33 -->
<g id="edge47" class="edge">
<title>Node27&#45;&gt;Node33</title>
<path fill="none" stroke="#191970" d="M942.1471,-169.8319C1029.6902,-158.5646 1180.6567,-138.9956 1224.857,-131.5434"/>
<polygon fill="#191970" stroke="#191970" points="1225.6283,-134.9598 1234.8116,-129.6761 1224.3378,-128.0798 1225.6283,-134.9598"/>
</g>
<!-- Node34&#45;&gt;Node3 -->
<g id="edge49" class="edge">
<title>Node34&#45;&gt;Node3</title>
<path fill="none" stroke="#191970" d="M461.9381,-291.3708C476.2108,-282.8631 491.5169,-270.7522 499.4838,-255 505.7021,-242.7053 506.2136,-236.0224 499.4838,-224 491.405,-209.5676 476.7424,-199.1145 462.5109,-191.8565"/>
<polygon fill="#191970" stroke="#191970" points="463.835,-188.6118 453.2946,-187.5387 460.8652,-194.9506 463.835,-188.6118"/>
</g>
<!-- Node34&#45;&gt;Node6 -->
<g id="edge50" class="edge">
<title>Node34&#45;&gt;Node6</title>
<path fill="none" stroke="#191970" d="M361.895,-292.8025C358.7149,-292.187 355.5655,-291.5833 352.4838,-291 307.4683,-282.4789 178.9159,-290.1108 149.4838,-255 122.6326,-222.9679 136.2242,-169.7984 146.511,-141.3563"/>
<polygon fill="#191970" stroke="#191970" points="149.878,-142.3518 150.2005,-131.7619 143.3444,-139.8393 149.878,-142.3518"/>
</g>
<!-- Node34&#45;&gt;Node7 -->
<g id="edge52" class="edge">
<title>Node34&#45;&gt;Node7</title>
<path fill="none" stroke="#191970" d="M477.0608,-291.4639C514.5053,-279.63 566.0947,-263.3258 601.4434,-252.1543"/>
<polygon fill="#191970" stroke="#191970" points="602.927,-255.3561 611.4074,-249.0053 600.8175,-248.6815 602.927,-255.3561"/>
</g>
<!-- Node34&#45;&gt;Node15 -->
<g id="edge54" class="edge">
<title>Node34&#45;&gt;Node15</title>
<path fill="none" stroke="#191970" d="M496.9867,-292.4996C499.8548,-291.9785 502.6964,-291.4762 505.4838,-291 599.3749,-274.9607 707.2215,-260.4959 782.7208,-251.0093"/>
<polygon fill="#191970" stroke="#191970" points="783.2022,-254.4764 792.6903,-249.7619 782.3331,-247.5306 783.2022,-254.4764"/>
</g>
<!-- Node35 -->
<g id="node36" class="node">
<title>Node35</title>
<polygon fill="none" stroke="#bfbfbf" points="302.4838,-230 302.4838,-249 346.4838,-249 346.4838,-230 302.4838,-230"/>
<text text-anchor="middle" x="324.4838" y="-237" font-family="Helvetica,sans-Serif" font-size="10.00" fill="#000000">ctime</text>
</g>
<!-- Node34&#45;&gt;Node35 -->
<g id="edge51" class="edge">
<title>Node34&#45;&gt;Node35</title>
<path fill="none" stroke="#191970" d="M405.9198,-291.4639C388.7783,-280.526 365.6517,-265.769 348.4236,-254.7759"/>
<polygon fill="#191970" stroke="#191970" points="349.8475,-251.5326 339.5348,-249.1039 346.0821,-257.4336 349.8475,-251.5326"/>
</g>
<!-- Node36 -->
<g id="node37" class="node">
<title>Node36</title>
<g id="a_node37"><a xlink:href="../../da/d58/Units_8h.html" target="_top" xlink:title="Header to collect definitions for different units. ">
<polygon fill="none" stroke="#000000" points="364.4838,-230 364.4838,-249 490.4838,-249 490.4838,-230 364.4838,-230"/>
<text text-anchor="middle" x="427.4838" y="-237" font-family="Helvetica,sans-Serif" font-size="10.00" fill="#000000">CommonTypes/Units.h</text>
</a>
</g>
</g>
<!-- Node34&#45;&gt;Node36 -->
<g id="edge53" class="edge">
<title>Node34&#45;&gt;Node36</title>
<path fill="none" stroke="#191970" d="M429.03,-291.2967C428.7456,-281.7699 428.3762,-269.3954 428.0698,-259.1306"/>
<polygon fill="#191970" stroke="#191970" points="431.566,-258.9461 427.7691,-249.055 424.5691,-259.155 431.566,-258.9461"/>
</g>
<!-- Node38&#45;&gt;Node1 -->
<g id="edge61" class="edge">
<title>Node38&#45;&gt;Node1</title>
<path fill="none" stroke="#191970" d="M782.4423,-367.3611C686.437,-358.9925 512.3291,-342.7856 353.5261,-322.0929"/>
<polygon fill="#191970" stroke="#191970" points="353.9427,-318.6177 343.5724,-320.7873 353.0322,-325.5582 353.9427,-318.6177"/>
</g>
<!-- Node38&#45;&gt;Node3 -->
<g id="edge57" class="edge">
<title>Node38&#45;&gt;Node3</title>
<path fill="none" stroke="#191970" d="M834.3293,-363.9037C817.3163,-355.1947 793.9427,-340.8394 779.4838,-322 751.415,-285.4272 781.3081,-253.0182 745.4838,-224 697.8777,-185.4383 537.4615,-199.5915 464.2298,-188.794"/>
<polygon fill="#191970" stroke="#191970" points="464.5364,-185.2944 454.0816,-187.0107 463.3249,-192.1887 464.5364,-185.2944"/>
</g>
<!-- Node38&#45;&gt;Node7 -->
<g id="edge63" class="edge">
<title>Node38&#45;&gt;Node7</title>
<path fill="none" stroke="#191970" d="M831.2944,-363.9233C808.6565,-354.5364 774.2558,-339.168 746.4838,-322 729.1216,-311.267 685.9634,-276.2641 660.7126,-255.4585"/>
<polygon fill="#191970" stroke="#191970" points="662.8374,-252.674 652.899,-249.0026 658.3787,-258.0703 662.8374,-252.674"/>
</g>
<!-- Node38&#45;&gt;Node9 -->
<g id="edge60" class="edge">
<title>Node38&#45;&gt;Node9</title>
<path fill="none" stroke="#191970" d="M826.8746,-363.9529C797.1387,-353.9188 749.3237,-337.4719 708.4838,-322 706.6349,-321.2995 704.7403,-320.5688 702.8317,-319.8226"/>
<polygon fill="#191970" stroke="#191970" points="703.9031,-316.482 693.3179,-316.0311 701.3116,-322.9846 703.9031,-316.482"/>
</g>
<!-- Node38&#45;&gt;Node12 -->
<g id="edge62" class="edge">
<title>Node38&#45;&gt;Node12</title>
<path fill="none" stroke="#191970" d="M859.4956,-363.9005C863.654,-353.95 870.2657,-338.1292 875.4956,-325.6147"/>
<polygon fill="#191970" stroke="#191970" points="878.8529,-326.658 879.4796,-316.0817 872.3942,-323.9588 878.8529,-326.658"/>
</g>
<!-- Node39 -->
<g id="node40" class="node">
<title>Node39</title>
<polygon fill="none" stroke="#bfbfbf" points="996.4838,-297 996.4838,-316 1052.4838,-316 1052.4838,-297 996.4838,-297"/>
<text text-anchor="middle" x="1024.4838" y="-304" font-family="Helvetica,sans-Serif" font-size="10.00" fill="#000000">TMath.h</text>
</g>
<!-- Node38&#45;&gt;Node39 -->
<g id="edge58" class="edge">
<title>Node38&#45;&gt;Node39</title>
<path fill="none" stroke="#191970" d="M880.148,-363.9116C906.5084,-353.6386 949.5061,-336.8093 986.4838,-322 988.1209,-321.3444 989.7965,-320.6707 991.4881,-319.9885"/>
<polygon fill="#191970" stroke="#191970" points="993.2382,-323.0557 1001.1912,-316.0556 990.6087,-316.5684 993.2382,-323.0557"/>
</g>
<!-- Node40 -->
<g id="node41" class="node">
<title>Node40</title>
<polygon fill="none" stroke="#bfbfbf" points="1070.4838,-297 1070.4838,-316 1142.4838,-316 1142.4838,-297 1070.4838,-297"/>
<text text-anchor="middle" x="1106.4838" y="-304" font-family="Helvetica,sans-Serif" font-size="10.00" fill="#000000">TRandom.h</text>
</g>
<!-- Node38&#45;&gt;Node40 -->
<g id="edge59" class="edge">
<title>Node38&#45;&gt;Node40</title>
<path fill="none" stroke="#191970" d="M898.3861,-363.9188C940.2607,-354.2987 1005.6425,-338.5633 1061.4838,-322 1064.4001,-321.135 1067.4081,-320.1983 1070.4213,-319.2283"/>
<polygon fill="#191970" stroke="#191970" points="1071.5678,-322.5356 1079.9566,-316.0642 1069.3632,-315.8918 1071.5678,-322.5356"/>
</g>
<!-- Node41&#45;&gt;Node15 -->
<g id="edge65" class="edge">
<title>Node41&#45;&gt;Node15</title>
<path fill="none" stroke="#191970" d="M1163.8975,-291.4639C1106.7054,-281.0512 1030.5033,-267.1775 971.2237,-256.3847"/>
<polygon fill="#191970" stroke="#191970" points="971.5775,-252.8917 961.1123,-254.5438 970.3236,-259.7785 971.5775,-252.8917"/>
</g>
<!-- Node41&#45;&gt;Node18 -->
<g id="edge68" class="edge">
<title>Node41&#45;&gt;Node18</title>
<path fill="none" stroke="#191970" d="M1210.7414,-291.2861C1194.5404,-282.7591 1176.3893,-270.6564 1164.4838,-255 1151.8588,-238.3972 1146.1355,-214.926 1143.5586,-198.2707"/>
<polygon fill="#191970" stroke="#191970" points="1146.9838,-197.4662 1142.2311,-187.9972 1140.0415,-198.3633 1146.9838,-197.4662"/>
</g>
<!-- Node42 -->
<g id="node43" class="node">
<title>Node42</title>
<g id="a_node43"><a xlink:href="../../d4/d8f/StringUtils_8h.html" target="_top" xlink:title="CommonUtils/StringUtils.h">
<polygon fill="none" stroke="#000000" points="1173.4838,-230 1173.4838,-249 1319.4838,-249 1319.4838,-230 1173.4838,-230"/>
<text text-anchor="middle" x="1246.4838" y="-237" font-family="Helvetica,sans-Serif" font-size="10.00" fill="#000000">CommonUtils/StringUtils.h</text>
</a>
</g>
</g>
<!-- Node41&#45;&gt;Node42 -->
<g id="edge66" class="edge">
<title>Node41&#45;&gt;Node42</title>
<path fill="none" stroke="#191970" d="M1246.4838,-291.2967C1246.4838,-281.7699 1246.4838,-269.3954 1246.4838,-259.1306"/>
<polygon fill="#191970" stroke="#191970" points="1249.9839,-259.0549 1246.4838,-249.055 1242.9839,-259.055 1249.9839,-259.0549"/>
</g>
<!-- Node43 -->
<g id="node44" class="node">
<title>Node43</title>
<polygon fill="none" stroke="#bfbfbf" points="1218.4838,-168.5 1218.4838,-187.5 1274.4838,-187.5 1274.4838,-168.5 1218.4838,-168.5"/>
<text text-anchor="middle" x="1246.4838" y="-175.5" font-family="Helvetica,sans-Serif" font-size="10.00" fill="#000000">sstream</text>
</g>
<!-- Node42&#45;&gt;Node43 -->
<g id="edge67" class="edge">
<title>Node42&#45;&gt;Node43</title>
<path fill="none" stroke="#191970" d="M1246.4838,-229.8906C1246.4838,-221.3657 1246.4838,-208.6392 1246.4838,-197.9235"/>
<polygon fill="#191970" stroke="#191970" points="1249.9839,-197.7448 1246.4838,-187.7449 1242.9839,-197.7449 1249.9839,-197.7448"/>
</g>
</g>
</svg>
