<?xml version="1.0" encoding="UTF-8" standalone="no"?>
<!DOCTYPE svg PUBLIC "-//W3C//DTD SVG 1.1//EN"
 "http://www.w3.org/Graphics/SVG/1.1/DTD/svg11.dtd">
<!-- Generated by graphviz version 2.40.1 (20161225.0304)
 -->
<!-- Title: /home/travis/build/AliceO2Group/AliceO2/Detectors/ITSMFT/ITS/tracking/src/TrackerTraitsCPU.cxx Pages: 1 -->
<svg width="4078pt" height="698pt"
 viewBox="0.00 0.00 4078.00 698.00" xmlns="http://www.w3.org/2000/svg" xmlns:xlink="http://www.w3.org/1999/xlink">
<g id="graph0" class="graph" transform="scale(1 1) rotate(0) translate(4 694)">
<title>/home/travis/build/AliceO2Group/AliceO2/Detectors/ITSMFT/ITS/tracking/src/TrackerTraitsCPU.cxx</title>
<!-- Node0 -->
<g id="node1" class="node">
<title>Node0</title>
<polygon fill="#bfbfbf" stroke="#000000" points="1475,-637.5 1475,-689.5 1657,-689.5 1657,-637.5 1475,-637.5"/>
<text text-anchor="start" x="1483" y="-677.5" font-family="Helvetica,sans-Serif" font-size="10.00" fill="#000000">/home/travis/build</text>
<text text-anchor="start" x="1483" y="-666.5" font-family="Helvetica,sans-Serif" font-size="10.00" fill="#000000">/AliceO2Group/AliceO2</text>
<text text-anchor="start" x="1483" y="-655.5" font-family="Helvetica,sans-Serif" font-size="10.00" fill="#000000">/Detectors/ITSMFT/ITS</text>
<text text-anchor="middle" x="1566" y="-644.5" font-family="Helvetica,sans-Serif" font-size="10.00" fill="#000000">/tracking/src/TrackerTraitsCPU.cxx</text>
</g>
<!-- Node1 -->
<g id="node2" class="node">
<title>Node1</title>
<g id="a_node2"><a xlink:href="../../de/dbc/TrackerTraitsCPU_8h.html" target="_top" xlink:title="ITStracking/TrackerTraits\lCPU.h">
<polygon fill="none" stroke="#000000" points="964,-570.5 964,-600.5 1100,-600.5 1100,-570.5 964,-570.5"/>
<text text-anchor="start" x="972" y="-588.5" font-family="Helvetica,sans-Serif" font-size="10.00" fill="#000000">ITStracking/TrackerTraits</text>
<text text-anchor="middle" x="1032" y="-577.5" font-family="Helvetica,sans-Serif" font-size="10.00" fill="#000000">CPU.h</text>
</a>
</g>
</g>
<!-- Node0&#45;&gt;Node1 -->
<g id="edge1" class="edge">
<title>Node0&#45;&gt;Node1</title>
<path fill="none" stroke="#191970" d="M1474.8089,-650.1799C1372.2429,-635.1984 1207.3689,-611.1157 1110.3747,-596.948"/>
<polygon fill="#191970" stroke="#191970" points="1110.7388,-593.4641 1100.3379,-595.4819 1109.727,-600.3906 1110.7388,-593.4641"/>
</g>
<!-- Node15 -->
<g id="node16" class="node">
<title>Node15</title>
<g id="a_node16"><a xlink:href="../../d0/d86/Detectors_2ITSMFT_2ITS_2tracking_2include_2ITStracking_2Constants_8h.html" target="_top" xlink:title="ITStracking/Constants.h">
<polygon fill="none" stroke="#000000" points="338,-185 338,-204 470,-204 470,-185 338,-185"/>
<text text-anchor="middle" x="404" y="-192" font-family="Helvetica,sans-Serif" font-size="10.00" fill="#000000">ITStracking/Constants.h</text>
</a>
</g>
</g>
<!-- Node0&#45;&gt;Node15 -->
<g id="edge92" class="edge">
<title>Node0&#45;&gt;Node15</title>
<path fill="none" stroke="#191970" d="M1474.7426,-660.6432C1246.6855,-653.1324 656.3043,-631.302 462,-601 326.8394,-579.9215 164,-660.7943 164,-524 164,-524 164,-524 164,-395.5 164,-292.674 295.0847,-232.0504 363.4994,-207.4126"/>
<polygon fill="#191970" stroke="#191970" points="364.8387,-210.6519 373.1155,-204.0378 362.5207,-204.0468 364.8387,-210.6519"/>
</g>
<!-- Node21 -->
<g id="node22" class="node">
<title>Node21</title>
<polygon fill="none" stroke="#bfbfbf" points="2113,-118 2113,-137 2165,-137 2165,-118 2113,-118"/>
<text text-anchor="middle" x="2139" y="-125" font-family="Helvetica,sans-Serif" font-size="10.00" fill="#000000">cassert</text>
</g>
<!-- Node0&#45;&gt;Node21 -->
<g id="edge156" class="edge">
<title>Node0&#45;&gt;Node21</title>
<path fill="none" stroke="#191970" d="M1657.0595,-663.2045C2102.6552,-661.1738 4032,-645.3732 4032,-524 4032,-524 4032,-524 4032,-462.5 4032,-396.0569 3990.5332,-218.3557 3937,-179 3858.0696,-120.9732 2269.6323,-164.2505 2174,-143 2171.5024,-142.445 2168.9644,-141.7064 2166.4546,-140.8519"/>
<polygon fill="#191970" stroke="#191970" points="2167.6462,-137.5593 2157.0603,-137.1256 2165.0652,-144.0661 2167.6462,-137.5593"/>
</g>
<!-- Node22 -->
<g id="node23" class="node">
<title>Node22</title>
<polygon fill="none" stroke="#bfbfbf" points="1502,-185 1502,-204 1562,-204 1562,-185 1502,-185"/>
<text text-anchor="middle" x="1532" y="-192" font-family="Helvetica,sans-Serif" font-size="10.00" fill="#000000">iostream</text>
</g>
<!-- Node0&#45;&gt;Node22 -->
<g id="edge157" class="edge">
<title>Node0&#45;&gt;Node22</title>
<path fill="none" stroke="#191970" d="M1577.7535,-637.485C1609.0877,-566.4533 1690.1754,-370.6656 1659,-313 1645.106,-287.3 1626.0332,-296.1851 1604,-277 1581.1694,-257.1206 1558.8826,-230.0507 1545.2971,-212.4279"/>
<polygon fill="#191970" stroke="#191970" points="1547.8601,-210.0152 1539.0291,-204.1616 1542.2822,-214.2446 1547.8601,-210.0152"/>
</g>
<!-- Node24 -->
<g id="node25" class="node">
<title>Node24</title>
<g id="a_node25"><a xlink:href="../../d6/da2/GPUCommonMath_8h.html" target="_top" xlink:title="GPUCommonMath.h">
<polygon fill="none" stroke="#000000" points="1297.5,-118 1297.5,-137 1412.5,-137 1412.5,-118 1297.5,-118"/>
<text text-anchor="middle" x="1355" y="-125" font-family="Helvetica,sans-Serif" font-size="10.00" fill="#000000">GPUCommonMath.h</text>
</a>
</g>
</g>
<!-- Node0&#45;&gt;Node24 -->
<g id="edge158" class="edge">
<title>Node0&#45;&gt;Node24</title>
<path fill="none" stroke="#191970" d="M1588.422,-637.2964C1596.89,-626.5335 1606.129,-613.6447 1613,-601 1675.5591,-485.8724 1718.7463,-436.8578 1676,-313 1651.3161,-241.4783 1634.6952,-219.8358 1571,-179 1546.5962,-163.3544 1476.3214,-148.318 1422.4923,-138.5745"/>
<polygon fill="#191970" stroke="#191970" points="1423.1067,-135.1289 1412.6473,-136.8178 1421.877,-142.0201 1423.1067,-135.1289"/>
</g>
<!-- Node26 -->
<g id="node27" class="node">
<title>Node26</title>
<g id="a_node27"><a xlink:href="../../d6/d84/MathConstants_8h.html" target="_top" xlink:title="useful math constants ">
<polygon fill="none" stroke="#000000" points="1645,-118 1645,-137 1839,-137 1839,-118 1645,-118"/>
<text text-anchor="middle" x="1742" y="-125" font-family="Helvetica,sans-Serif" font-size="10.00" fill="#000000">CommonConstants/MathConstants.h</text>
</a>
</g>
</g>
<!-- Node0&#45;&gt;Node26 -->
<g id="edge90" class="edge">
<title>Node0&#45;&gt;Node26</title>
<path fill="none" stroke="#191970" d="M1657.4253,-645.3836C1684.4747,-636.0716 1712.1331,-622.0528 1732,-601 1756.6021,-574.9294 1756,-559.846 1756,-524 1756,-524 1756,-524 1756,-462.5 1756,-400.4393 1746.2873,-209.3519 1743.0418,-147.2321"/>
<polygon fill="#191970" stroke="#191970" points="1746.5344,-146.9967 1742.5149,-137.1939 1739.544,-147.3637 1746.5344,-146.9967"/>
</g>
<!-- Node28 -->
<g id="node29" class="node">
<title>Node28</title>
<g id="a_node29"><a xlink:href="../../d3/d78/Detectors_2ITSMFT_2ITS_2tracking_2include_2ITStracking_2Cell_8h.html" target="_top" xlink:title="ITStracking/Cell.h">
<polygon fill="none" stroke="#000000" points="142,-185 142,-204 244,-204 244,-185 142,-185"/>
<text text-anchor="middle" x="193" y="-192" font-family="Helvetica,sans-Serif" font-size="10.00" fill="#000000">ITStracking/Cell.h</text>
</a>
</g>
</g>
<!-- Node0&#45;&gt;Node28 -->
<g id="edge91" class="edge">
<title>Node0&#45;&gt;Node28</title>
<path fill="none" stroke="#191970" d="M1474.7811,-661.9105C1184.8695,-656.5118 296.3001,-637.1713 172,-601 106.0478,-581.8079 38,-592.6879 38,-524 38,-524 38,-524 38,-395.5 38,-310.574 125.8451,-239.6013 169.2716,-209.7043"/>
<polygon fill="#191970" stroke="#191970" points="171.2291,-212.6058 177.5713,-204.1189 167.3209,-206.7983 171.2291,-212.6058"/>
</g>
<!-- Node30 -->
<g id="node31" class="node">
<title>Node30</title>
<g id="a_node31"><a xlink:href="../../d8/db3/ITSMFT_2ITS_2tracking_2include_2ITStracking_2Tracklet_8h.html" target="_top" xlink:title="ITStracking/Tracklet.h">
<polygon fill="none" stroke="#000000" points="1038,-386 1038,-405 1160,-405 1160,-386 1038,-386"/>
<text text-anchor="middle" x="1099" y="-393" font-family="Helvetica,sans-Serif" font-size="10.00" fill="#000000">ITStracking/Tracklet.h</text>
</a>
</g>
</g>
<!-- Node0&#45;&gt;Node30 -->
<g id="edge94" class="edge">
<title>Node0&#45;&gt;Node30</title>
<path fill="none" stroke="#191970" d="M1553.5401,-637.4048C1529.8031,-590.7821 1473.3881,-493.698 1395,-447 1358.0325,-424.9775 1245.7663,-409.9501 1170.6152,-402.0487"/>
<polygon fill="#191970" stroke="#191970" points="1170.5755,-398.5261 1160.2691,-400.9811 1169.857,-405.4891 1170.5755,-398.5261"/>
</g>
<!-- Node32 -->
<g id="node33" class="node">
<title>Node32</title>
<g id="a_node33"><a xlink:href="../../dc/ddf/ITS_2tracking_2include_2ITStracking_2IndexTableUtils_8h.html" target="_top" xlink:title="ITStracking/IndexTableUtils.h">
<polygon fill="none" stroke="#000000" points="598,-252 598,-271 756,-271 756,-252 598,-252"/>
<text text-anchor="middle" x="677" y="-259" font-family="Helvetica,sans-Serif" font-size="10.00" fill="#000000">ITStracking/IndexTableUtils.h</text>
</a>
</g>
</g>
<!-- Node0&#45;&gt;Node32 -->
<g id="edge93" class="edge">
<title>Node0&#45;&gt;Node32</title>
<path fill="none" stroke="#191970" d="M1474.8198,-662.0973C1200.8892,-656.6856 404,-631.6879 404,-524 404,-524 404,-524 404,-395.5 404,-345.5396 553.1997,-296.214 631.0016,-273.889"/>
<polygon fill="#191970" stroke="#191970" points="632.3623,-277.1413 641.0293,-271.0476 630.4539,-270.4064 632.3623,-277.1413"/>
</g>
<!-- Node33 -->
<g id="node34" class="node">
<title>Node33</title>
<g id="a_node34"><a xlink:href="../../d7/d8b/DataFormats_2Reconstruction_2include_2ReconstructionDataFormats_2Track_8h.html" target="_top" xlink:title="ReconstructionDataFormats\l/Track.h">
<polygon fill="none" stroke="#000000" points="1932,-447.5 1932,-477.5 2084,-477.5 2084,-447.5 1932,-447.5"/>
<text text-anchor="start" x="1940" y="-465.5" font-family="Helvetica,sans-Serif" font-size="10.00" fill="#000000">ReconstructionDataFormats</text>
<text text-anchor="middle" x="2008" y="-454.5" font-family="Helvetica,sans-Serif" font-size="10.00" fill="#000000">/Track.h</text>
</a>
</g>
</g>
<!-- Node0&#45;&gt;Node33 -->
<g id="edge95" class="edge">
<title>Node0&#45;&gt;Node33</title>
<path fill="none" stroke="#191970" d="M1657.2378,-640.3997C1693.0594,-630.0844 1734.1089,-616.6917 1770,-601 1848.2715,-566.7795 1933.2315,-512.8523 1977.408,-483.4019"/>
<polygon fill="#191970" stroke="#191970" points="1979.5868,-486.155 1985.9422,-477.678 1975.6876,-480.3415 1979.5868,-486.155"/>
</g>
<!-- Node2 -->
<g id="node3" class="node">
<title>Node2</title>
<polygon fill="none" stroke="#bfbfbf" points="911,-56.5 911,-75.5 953,-75.5 953,-56.5 911,-56.5"/>
<text text-anchor="middle" x="932" y="-63.5" font-family="Helvetica,sans-Serif" font-size="10.00" fill="#000000">array</text>
</g>
<!-- Node1&#45;&gt;Node2 -->
<g id="edge2" class="edge">
<title>Node1&#45;&gt;Node2</title>
<path fill="none" stroke="#191970" d="M963.8528,-581.8527C826.1624,-574.1468 519.1557,-555.1686 416,-534 225.1112,-494.8278 0,-590.3666 0,-395.5 0,-395.5 0,-395.5 0,-194.5 0,-139.5787 41.2627,-133.0256 92,-112 167.7766,-80.5981 757.4091,-68.8857 900.6981,-66.4879"/>
<polygon fill="#191970" stroke="#191970" points="901.03,-69.983 910.9712,-66.3193 900.9151,-62.9839 901.03,-69.983"/>
</g>
<!-- Node3 -->
<g id="node4" class="node">
<title>Node3</title>
<polygon fill="none" stroke="#bfbfbf" points="769,-453 769,-472 819,-472 819,-453 769,-453"/>
<text text-anchor="middle" x="794" y="-460" font-family="Helvetica,sans-Serif" font-size="10.00" fill="#000000">chrono</text>
</g>
<!-- Node1&#45;&gt;Node3 -->
<g id="edge3" class="edge">
<title>Node1&#45;&gt;Node3</title>
<path fill="none" stroke="#191970" d="M1002.8165,-570.4178C956.463,-546.462 866.6408,-500.0413 821.4187,-476.6702"/>
<polygon fill="#191970" stroke="#191970" points="822.9681,-473.5312 812.4774,-472.0493 819.7542,-479.7498 822.9681,-473.5312"/>
</g>
<!-- Node4 -->
<g id="node5" class="node">
<title>Node4</title>
<polygon fill="none" stroke="#bfbfbf" points="1417.5,-56.5 1417.5,-75.5 1464.5,-75.5 1464.5,-56.5 1417.5,-56.5"/>
<text text-anchor="middle" x="1441" y="-63.5" font-family="Helvetica,sans-Serif" font-size="10.00" fill="#000000">cmath</text>
</g>
<!-- Node1&#45;&gt;Node4 -->
<g id="edge4" class="edge">
<title>Node1&#45;&gt;Node4</title>
<path fill="none" stroke="#191970" d="M1100.1116,-580.6418C1188.8934,-573.4594 1338.6544,-558.1882 1388,-534 1420.1747,-518.2286 1425.1895,-507.1697 1446,-478 1529.6517,-360.7469 1605.3351,-318.882 1571,-179 1562.9913,-146.3725 1560.115,-135.3914 1536,-112 1518.6714,-95.1913 1494.019,-83.5005 1474.1699,-76.1115"/>
<polygon fill="#191970" stroke="#191970" points="1475.174,-72.7544 1464.5792,-72.7308 1472.8468,-79.3563 1475.174,-72.7544"/>
</g>
<!-- Node5 -->
<g id="node6" class="node">
<title>Node5</title>
<polygon fill="none" stroke="#bfbfbf" points="1330.5,-453 1330.5,-472 1385.5,-472 1385.5,-453 1330.5,-453"/>
<text text-anchor="middle" x="1358" y="-460" font-family="Helvetica,sans-Serif" font-size="10.00" fill="#000000">fstream</text>
</g>
<!-- Node1&#45;&gt;Node5 -->
<g id="edge5" class="edge">
<title>Node1&#45;&gt;Node5</title>
<path fill="none" stroke="#191970" d="M1071.974,-570.4178C1136.3965,-546.1111 1262.1166,-498.6769 1323.125,-475.6584"/>
<polygon fill="#191970" stroke="#191970" points="1324.5699,-478.8541 1332.6906,-472.0493 1322.0988,-472.3047 1324.5699,-478.8541"/>
</g>
<!-- Node6 -->
<g id="node7" class="node">
<title>Node6</title>
<polygon fill="none" stroke="#bfbfbf" points="1594,-319 1594,-338 1650,-338 1650,-319 1594,-319"/>
<text text-anchor="middle" x="1622" y="-326" font-family="Helvetica,sans-Serif" font-size="10.00" fill="#000000">iomanip</text>
</g>
<!-- Node1&#45;&gt;Node6 -->
<g id="edge6" class="edge">
<title>Node1&#45;&gt;Node6</title>
<path fill="none" stroke="#191970" d="M1100.1945,-582.5461C1231.0555,-576.3121 1507.5541,-560.1911 1542,-534 1602.2996,-488.1508 1617.178,-390.4175 1620.8259,-348.3897"/>
<polygon fill="#191970" stroke="#191970" points="1624.3236,-348.5488 1621.5724,-338.3175 1617.3427,-348.0314 1624.3236,-348.5488"/>
</g>
<!-- Node7 -->
<g id="node8" class="node">
<title>Node7</title>
<polygon fill="none" stroke="#bfbfbf" points="1886.5,-185 1886.5,-204 1935.5,-204 1935.5,-185 1886.5,-185"/>
<text text-anchor="middle" x="1911" y="-192" font-family="Helvetica,sans-Serif" font-size="10.00" fill="#000000">iosfwd</text>
</g>
<!-- Node1&#45;&gt;Node7 -->
<g id="edge7" class="edge">
<title>Node1&#45;&gt;Node7</title>
<path fill="none" stroke="#191970" d="M1100.1138,-584.5219C1224.7409,-581.8189 1484.1067,-571.7003 1565,-534 1728.3008,-457.8938 1860.4457,-271.6548 1899.3427,-212.705"/>
<polygon fill="#191970" stroke="#191970" points="1902.4333,-214.373 1904.9612,-204.0842 1896.5688,-210.5509 1902.4333,-214.373"/>
</g>
<!-- Node8 -->
<g id="node9" class="node">
<title>Node8</title>
<polygon fill="none" stroke="#bfbfbf" points="1469,-118 1469,-137 1527,-137 1527,-118 1469,-118"/>
<text text-anchor="middle" x="1498" y="-125" font-family="Helvetica,sans-Serif" font-size="10.00" fill="#000000">memory</text>
</g>
<!-- Node1&#45;&gt;Node8 -->
<g id="edge8" class="edge">
<title>Node1&#45;&gt;Node8</title>
<path fill="none" stroke="#191970" d="M1100.2397,-578.6161C1180.8475,-569.7857 1309.6039,-553.2864 1354,-534 1391.1826,-517.8473 1404.5974,-512.4294 1426,-478 1461.2704,-421.2621 1488.0988,-212.4458 1495.7733,-147.1487"/>
<polygon fill="#191970" stroke="#191970" points="1499.2746,-147.3391 1496.9462,-137.0033 1492.3209,-146.5351 1499.2746,-147.3391"/>
</g>
<!-- Node9 -->
<g id="node10" class="node">
<title>Node9</title>
<polygon fill="none" stroke="#bfbfbf" points="792.5,-185 792.5,-204 837.5,-204 837.5,-185 792.5,-185"/>
<text text-anchor="middle" x="815" y="-192" font-family="Helvetica,sans-Serif" font-size="10.00" fill="#000000">utility</text>
</g>
<!-- Node1&#45;&gt;Node9 -->
<g id="edge9" class="edge">
<title>Node1&#45;&gt;Node9</title>
<path fill="none" stroke="#191970" d="M963.9092,-578.6443C878.7334,-569.3704 742.1453,-551.917 727,-534 684.6455,-483.8943 775.9602,-277.5637 805.9105,-213.538"/>
<polygon fill="#191970" stroke="#191970" points="809.2054,-214.7569 810.3084,-204.2196 802.875,-211.7692 809.2054,-214.7569"/>
</g>
<!-- Node10 -->
<g id="node11" class="node">
<title>Node10</title>
<g id="a_node11"><a xlink:href="../../d2/dee/TrackerTraits_8h.html" target="_top" xlink:title="ITStracking/TrackerTraits.h">
<polygon fill="none" stroke="#000000" points="959.5,-514.5 959.5,-533.5 1104.5,-533.5 1104.5,-514.5 959.5,-514.5"/>
<text text-anchor="middle" x="1032" y="-521.5" font-family="Helvetica,sans-Serif" font-size="10.00" fill="#000000">ITStracking/TrackerTraits.h</text>
</a>
</g>
</g>
<!-- Node1&#45;&gt;Node10 -->
<g id="edge10" class="edge">
<title>Node1&#45;&gt;Node10</title>
<path fill="none" stroke="#191970" d="M1032,-570.2977C1032,-562.3834 1032,-552.6043 1032,-544.0759"/>
<polygon fill="#191970" stroke="#191970" points="1035.5001,-543.8469 1032,-533.8469 1028.5001,-543.847 1035.5001,-543.8469"/>
</g>
<!-- Node12 -->
<g id="node13" class="node">
<title>Node12</title>
<g id="a_node13"><a xlink:href="../../d3/d59/Configuration_8h.html" target="_top" xlink:title="ITStracking/Configuration.h">
<polygon fill="none" stroke="#000000" points="431.5,-252 431.5,-271 580.5,-271 580.5,-252 431.5,-252"/>
<text text-anchor="middle" x="506" y="-259" font-family="Helvetica,sans-Serif" font-size="10.00" fill="#000000">ITStracking/Configuration.h</text>
</a>
</g>
</g>
<!-- Node1&#45;&gt;Node12 -->
<g id="edge85" class="edge">
<title>Node1&#45;&gt;Node12</title>
<path fill="none" stroke="#191970" d="M963.9674,-582.6223C834.5216,-575.4768 561.0917,-551.7894 510,-478 467.8535,-417.1296 488.1871,-321.7827 499.8116,-281.031"/>
<polygon fill="#191970" stroke="#191970" points="503.2194,-281.8512 502.7344,-271.2675 496.5135,-279.8436 503.2194,-281.8512"/>
</g>
<!-- Node16 -->
<g id="node17" class="node">
<title>Node16</title>
<g id="a_node17"><a xlink:href="../../df/d3d/Definitions_8h.html" target="_top" xlink:title="ITStracking/Definitions.h">
<polygon fill="none" stroke="#000000" points="816,-118 816,-137 952,-137 952,-118 816,-118"/>
<text text-anchor="middle" x="884" y="-125" font-family="Helvetica,sans-Serif" font-size="10.00" fill="#000000">ITStracking/Definitions.h</text>
</a>
</g>
</g>
<!-- Node1&#45;&gt;Node16 -->
<g id="edge86" class="edge">
<title>Node1&#45;&gt;Node16</title>
<path fill="none" stroke="#191970" d="M972.4562,-570.4455C900.0339,-550.7778 784.3922,-514.5258 760,-478 752.3484,-466.5422 757.0768,-460.4641 760,-447 784.5591,-333.8808 832.7354,-320.2521 868,-210 874.6449,-189.2251 878.9854,-164.579 881.4468,-147.6682"/>
<polygon fill="#191970" stroke="#191970" points="884.972,-147.7205 882.8558,-137.3392 878.0362,-146.7743 884.972,-147.7205"/>
</g>
<!-- Node20 -->
<g id="node21" class="node">
<title>Node20</title>
<g id="a_node21"><a xlink:href="../../dc/d3e/MathUtils_8h.html" target="_top" xlink:title="ITStracking/MathUtils.h">
<polygon fill="none" stroke="#000000" points="1202,-252 1202,-271 1332,-271 1332,-252 1202,-252"/>
<text text-anchor="middle" x="1267" y="-259" font-family="Helvetica,sans-Serif" font-size="10.00" fill="#000000">ITStracking/MathUtils.h</text>
</a>
</g>
</g>
<!-- Node1&#45;&gt;Node20 -->
<g id="edge87" class="edge">
<title>Node1&#45;&gt;Node20</title>
<path fill="none" stroke="#191970" d="M1100.2939,-577.7076C1210.1707,-563.2475 1414,-527.6439 1414,-462.5 1414,-462.5 1414,-462.5 1414,-395.5 1414,-335.143 1345.4785,-294.7404 1302.0001,-275.1792"/>
<polygon fill="#191970" stroke="#191970" points="1303.172,-271.8724 1292.6054,-271.099 1300.3834,-278.293 1303.172,-271.8724"/>
</g>
<!-- Node27 -->
<g id="node28" class="node">
<title>Node27</title>
<g id="a_node28"><a xlink:href="../../d3/da9/PrimaryVertexContext_8h.html" target="_top" xlink:title="ITStracking/PrimaryVertex\lContext.h">
<polygon fill="none" stroke="#000000" points="519,-447.5 519,-477.5 663,-477.5 663,-447.5 519,-447.5"/>
<text text-anchor="start" x="527" y="-465.5" font-family="Helvetica,sans-Serif" font-size="10.00" fill="#000000">ITStracking/PrimaryVertex</text>
<text text-anchor="middle" x="591" y="-454.5" font-family="Helvetica,sans-Serif" font-size="10.00" fill="#000000">Context.h</text>
</a>
</g>
</g>
<!-- Node1&#45;&gt;Node27 -->
<g id="edge88" class="edge">
<title>Node1&#45;&gt;Node27</title>
<path fill="none" stroke="#191970" d="M963.8855,-579.1589C878.5026,-570.5411 737.4607,-553.9014 689,-534 660.659,-522.3612 632.8824,-500.8618 614.1804,-484.4667"/>
<polygon fill="#191970" stroke="#191970" points="616.2806,-481.6487 606.5015,-477.572 611.604,-486.8573 616.2806,-481.6487"/>
</g>
<!-- Node29 -->
<g id="node30" class="node">
<title>Node29</title>
<g id="a_node30"><a xlink:href="../../d4/d5a/ITS_2tracking_2include_2ITStracking_2Road_8h.html" target="_top" xlink:title="ITStracking/Road.h">
<polygon fill="none" stroke="#000000" points="192.5,-386 192.5,-405 299.5,-405 299.5,-386 192.5,-386"/>
<text text-anchor="middle" x="246" y="-393" font-family="Helvetica,sans-Serif" font-size="10.00" fill="#000000">ITStracking/Road.h</text>
</a>
</g>
</g>
<!-- Node1&#45;&gt;Node29 -->
<g id="edge89" class="edge">
<title>Node1&#45;&gt;Node29</title>
<path fill="none" stroke="#191970" d="M963.9363,-583.2805C834.2386,-578.4 556.5427,-564.6393 466,-534 383.6766,-506.1421 300.7239,-441.8301 264.6673,-411.6673"/>
<polygon fill="#191970" stroke="#191970" points="266.8166,-408.9011 256.9241,-405.1078 262.292,-414.2422 266.8166,-408.9011"/>
</g>
<!-- Node10&#45;&gt;Node2 -->
<g id="edge11" class="edge">
<title>Node10&#45;&gt;Node2</title>
<path fill="none" stroke="#191970" d="M1029.6237,-514.2958C1023.0938,-487.3868 1004.5939,-409.4899 993,-344 974.8553,-241.5064 996.67,-209.7846 961,-112 957.3801,-102.0764 951.3845,-92.04 945.7815,-83.8851"/>
<polygon fill="#191970" stroke="#191970" points="948.47,-81.6302 939.7699,-75.5837 942.8005,-85.7359 948.47,-81.6302"/>
</g>
<!-- Node10&#45;&gt;Node3 -->
<g id="edge12" class="edge">
<title>Node10&#45;&gt;Node3</title>
<path fill="none" stroke="#191970" d="M981.1374,-514.4521C940.5894,-506.3133 882.5861,-493.4872 833,-478 830.7115,-477.2852 828.3669,-476.4981 826.0185,-475.6691"/>
<polygon fill="#191970" stroke="#191970" points="827.0694,-472.3254 816.4769,-472.1027 824.6186,-478.8823 827.0694,-472.3254"/>
</g>
<!-- Node10&#45;&gt;Node4 -->
<g id="edge13" class="edge">
<title>Node10&#45;&gt;Node4</title>
<path fill="none" stroke="#191970" d="M1104.7503,-514.4443C1134.9928,-507.8383 1169.2108,-496.7099 1196,-478 1343.2458,-375.1619 1353.2503,-308.9231 1422,-143 1429.719,-124.3707 1434.8245,-101.856 1437.7805,-85.9983"/>
<polygon fill="#191970" stroke="#191970" points="1441.2925,-86.231 1439.5596,-75.7788 1434.3963,-85.0303 1441.2925,-86.231"/>
</g>
<!-- Node10&#45;&gt;Node5 -->
<g id="edge14" class="edge">
<title>Node10&#45;&gt;Node5</title>
<path fill="none" stroke="#191970" d="M1104.5859,-516.1626C1162.4522,-508.9792 1245.2304,-496.6036 1316,-478 1318.9857,-477.2151 1322.0559,-476.3007 1325.1125,-475.3158"/>
<polygon fill="#191970" stroke="#191970" points="1326.3996,-478.5743 1334.7098,-472.0022 1324.115,-471.9575 1326.3996,-478.5743"/>
</g>
<!-- Node10&#45;&gt;Node6 -->
<g id="edge15" class="edge">
<title>Node10&#45;&gt;Node6</title>
<path fill="none" stroke="#191970" d="M1104.5879,-518.6405C1154.8586,-512.9823 1222.4578,-501.4379 1278,-478 1300.0397,-468.6996 1300.9494,-458.3631 1322,-447 1411.7199,-398.5691 1525.565,-359.088 1583.838,-340.3234"/>
<polygon fill="#191970" stroke="#191970" points="1585.2541,-343.5454 1593.7161,-337.17 1583.1253,-336.877 1585.2541,-343.5454"/>
</g>
<!-- Node10&#45;&gt;Node7 -->
<g id="edge16" class="edge">
<title>Node10&#45;&gt;Node7</title>
<path fill="none" stroke="#191970" d="M1104.5303,-516.3997C1145.7998,-510.0423 1197.5602,-498.5517 1240,-478 1259.6168,-468.5004 1259.9931,-459.2806 1278,-447 1400.9948,-363.1178 1442.6432,-356.5717 1585,-313 1646.4333,-294.1969 1664.2919,-298.0269 1725,-277 1782.6667,-257.0265 1847.2072,-226.44 1883.0826,-208.6604"/>
<polygon fill="#191970" stroke="#191970" points="1885.0269,-211.6018 1892.4117,-204.0048 1881.9011,-205.3385 1885.0269,-211.6018"/>
</g>
<!-- Node10&#45;&gt;Node8 -->
<g id="edge17" class="edge">
<title>Node10&#45;&gt;Node8</title>
<path fill="none" stroke="#191970" d="M1036.3593,-514.4257C1044.0658,-498.4541 1061.5256,-466.2336 1085,-447 1116.4183,-421.2576 1134.0244,-431.6515 1169,-411 1252.4449,-361.7297 1267.5987,-340.2682 1341,-277 1394.1601,-231.1787 1453.1747,-172.791 1481.3106,-144.4543"/>
<polygon fill="#191970" stroke="#191970" points="1483.8502,-146.8638 1488.397,-137.2942 1478.8749,-141.9397 1483.8502,-146.8638"/>
</g>
<!-- Node10&#45;&gt;Node9 -->
<g id="edge18" class="edge">
<title>Node10&#45;&gt;Node9</title>
<path fill="none" stroke="#191970" d="M1004.5873,-514.4358C986.3324,-506.9093 962.8725,-494.8594 947,-478 870.5356,-396.7811 831.7829,-263.3188 819.4621,-213.7885"/>
<polygon fill="#191970" stroke="#191970" points="822.8606,-212.9514 817.1153,-204.0497 816.0554,-214.5914 822.8606,-212.9514"/>
</g>
<!-- Node11 -->
<g id="node12" class="node">
<title>Node11</title>
<polygon fill="none" stroke="#bfbfbf" points="1094.5,-453 1094.5,-472 1159.5,-472 1159.5,-453 1094.5,-453"/>
<text text-anchor="middle" x="1127" y="-460" font-family="Helvetica,sans-Serif" font-size="10.00" fill="#000000">functional</text>
</g>
<!-- Node10&#45;&gt;Node11 -->
<g id="edge19" class="edge">
<title>Node10&#45;&gt;Node11</title>
<path fill="none" stroke="#191970" d="M1046.8438,-514.3906C1062.0418,-504.5519 1085.8848,-489.1167 1103.6206,-477.6351"/>
<polygon fill="#191970" stroke="#191970" points="1105.768,-480.4144 1112.2605,-472.0419 1101.9639,-474.5382 1105.768,-480.4144"/>
</g>
<!-- Node10&#45;&gt;Node12 -->
<g id="edge20" class="edge">
<title>Node10&#45;&gt;Node12</title>
<path fill="none" stroke="#191970" d="M999.9961,-514.4261C974.6175,-506.2728 938.6171,-493.4399 909,-478 887.4643,-466.7731 884.8225,-459.5 864,-447 746.0736,-376.2075 598.272,-304.8069 535.9266,-275.436"/>
<polygon fill="#191970" stroke="#191970" points="537.2113,-272.1726 526.672,-271.0895 534.2356,-278.5086 537.2113,-272.1726"/>
</g>
<!-- Node10&#45;&gt;Node16 -->
<g id="edge33" class="edge">
<title>Node10&#45;&gt;Node16</title>
<path fill="none" stroke="#191970" d="M1018.3541,-514.2285C1007.6477,-505.8296 993.224,-492.7616 985,-478 918.7207,-359.0327 971.2801,-304.3292 918,-179 912.9177,-167.0451 905.0225,-154.8617 898.1191,-145.3482"/>
<polygon fill="#191970" stroke="#191970" points="900.7442,-143.0162 891.9285,-137.1396 895.1554,-147.2311 900.7442,-143.0162"/>
</g>
<!-- Node10&#45;&gt;Node20 -->
<g id="edge34" class="edge">
<title>Node10&#45;&gt;Node20</title>
<path fill="none" stroke="#191970" d="M1090.503,-514.4682C1116.5645,-507.8111 1146.2209,-496.6357 1168,-478 1230.2662,-424.7206 1255.4683,-324.0951 1263.6674,-281.4287"/>
<polygon fill="#191970" stroke="#191970" points="1267.1357,-281.9176 1265.4724,-271.4542 1260.2475,-280.6711 1267.1357,-281.9176"/>
</g>
<!-- Node10&#45;&gt;Node27 -->
<g id="edge51" class="edge">
<title>Node10&#45;&gt;Node27</title>
<path fill="none" stroke="#191970" d="M963.5776,-514.4581C885.2316,-503.5323 756.9438,-485.6418 673.2318,-473.9677"/>
<polygon fill="#191970" stroke="#191970" points="673.638,-470.4906 663.2503,-472.5757 672.6711,-477.4235 673.638,-470.4906"/>
</g>
<!-- Node10&#45;&gt;Node29 -->
<g id="edge84" class="edge">
<title>Node10&#45;&gt;Node29</title>
<path fill="none" stroke="#191970" d="M982.1256,-514.4419C949.4714,-507.0654 906.4432,-495.1852 871,-478 849.8008,-467.7212 850.0788,-455.2211 828,-447 734.5205,-412.1928 441.1661,-400.4711 310.2208,-396.9075"/>
<polygon fill="#191970" stroke="#191970" points="310.036,-393.4015 299.9469,-396.6357 309.8508,-400.3991 310.036,-393.4015"/>
</g>
<!-- Node12&#45;&gt;Node2 -->
<g id="edge21" class="edge">
<title>Node12&#45;&gt;Node2</title>
<path fill="none" stroke="#191970" d="M508.7699,-251.7518C517.0917,-224.4225 544.6526,-146.7994 598,-112 647.5457,-79.6805 827.0645,-69.7208 900.4306,-66.9602"/>
<polygon fill="#191970" stroke="#191970" points="900.9887,-70.4427 910.8581,-66.5899 900.7402,-63.4471 900.9887,-70.4427"/>
</g>
<!-- Node12&#45;&gt;Node4 -->
<g id="edge24" class="edge">
<title>Node12&#45;&gt;Node4</title>
<path fill="none" stroke="#191970" d="M520.2141,-251.8818C561.976,-224.2059 688.8022,-144.2936 807,-112 864.9985,-96.1539 1283.6785,-73.9524 1406.9434,-67.6986"/>
<polygon fill="#191970" stroke="#191970" points="1407.4682,-71.1766 1417.2789,-67.1765 1407.115,-64.1855 1407.4682,-71.1766"/>
</g>
<!-- Node13 -->
<g id="node14" class="node">
<title>Node13</title>
<polygon fill="none" stroke="#bfbfbf" points="458,-118 458,-137 508,-137 508,-118 458,-118"/>
<text text-anchor="middle" x="483" y="-125" font-family="Helvetica,sans-Serif" font-size="10.00" fill="#000000">climits</text>
</g>
<!-- Node12&#45;&gt;Node13 -->
<g id="edge22" class="edge">
<title>Node12&#45;&gt;Node13</title>
<path fill="none" stroke="#191970" d="M504.3459,-251.8631C500.5995,-230.0364 491.4037,-176.4605 486.3914,-147.2589"/>
<polygon fill="#191970" stroke="#191970" points="489.7804,-146.3134 484.6391,-137.0496 482.8813,-147.4976 489.7804,-146.3134"/>
</g>
<!-- Node14 -->
<g id="node15" class="node">
<title>Node14</title>
<polygon fill="none" stroke="#bfbfbf" points="333.5,-118 333.5,-137 380.5,-137 380.5,-118 333.5,-118"/>
<text text-anchor="middle" x="357" y="-125" font-family="Helvetica,sans-Serif" font-size="10.00" fill="#000000">vector</text>
</g>
<!-- Node12&#45;&gt;Node14 -->
<g id="edge23" class="edge">
<title>Node12&#45;&gt;Node14</title>
<path fill="none" stroke="#191970" d="M446.1245,-251.9371C400.5382,-243.2909 343.2637,-229.0054 329,-210 314.4648,-190.6329 329.0596,-163.2245 342.035,-145.4065"/>
<polygon fill="#191970" stroke="#191970" points="345.1479,-147.1037 348.5098,-137.0564 339.6161,-142.8142 345.1479,-147.1037"/>
</g>
<!-- Node12&#45;&gt;Node15 -->
<g id="edge25" class="edge">
<title>Node12&#45;&gt;Node15</title>
<path fill="none" stroke="#191970" d="M491.3859,-251.9005C474.571,-240.8554 446.7451,-222.5776 427.0142,-209.6172"/>
<polygon fill="#191970" stroke="#191970" points="428.8667,-206.6465 418.587,-204.0817 425.0236,-212.4972 428.8667,-206.6465"/>
</g>
<!-- Node15&#45;&gt;Node13 -->
<g id="edge26" class="edge">
<title>Node15&#45;&gt;Node13</title>
<path fill="none" stroke="#191970" d="M415.3188,-184.9005C427.9901,-174.1539 448.7348,-156.5603 463.9227,-143.6794"/>
<polygon fill="#191970" stroke="#191970" points="466.3395,-146.2191 471.7022,-137.0817 461.8118,-140.8805 466.3395,-146.2191"/>
</g>
<!-- Node15&#45;&gt;Node14 -->
<g id="edge27" class="edge">
<title>Node15&#45;&gt;Node14</title>
<path fill="none" stroke="#191970" d="M397.266,-184.9005C390.0764,-174.6515 378.5181,-158.1747 369.6252,-145.4976"/>
<polygon fill="#191970" stroke="#191970" points="372.3296,-143.2582 363.7215,-137.0817 366.599,-147.2783 372.3296,-143.2582"/>
</g>
<!-- Node15&#45;&gt;Node16 -->
<g id="edge28" class="edge">
<title>Node15&#45;&gt;Node16</title>
<path fill="none" stroke="#191970" d="M470.238,-185.2543C557.9552,-173.0104 712.4186,-151.4499 805.7756,-138.4188"/>
<polygon fill="#191970" stroke="#191970" points="806.3109,-141.8781 815.731,-137.0292 805.3431,-134.9453 806.3109,-141.8781"/>
</g>
<!-- Node16&#45;&gt;Node2 -->
<g id="edge29" class="edge">
<title>Node16&#45;&gt;Node2</title>
<path fill="none" stroke="#191970" d="M891.5,-117.8906C898.5738,-108.8273 909.3542,-95.0149 918.0146,-83.9188"/>
<polygon fill="#191970" stroke="#191970" points="921.0006,-85.7815 924.3943,-75.7449 915.4824,-81.4746 921.0006,-85.7815"/>
</g>
<!-- Node17 -->
<g id="node18" class="node">
<title>Node17</title>
<g id="a_node18"><a xlink:href="../../df/d21/GPUCommonDef_8h.html" target="_top" xlink:title="GPUCommonDef.h">
<polygon fill="none" stroke="#000000" points="1049.5,-56.5 1049.5,-75.5 1156.5,-75.5 1156.5,-56.5 1049.5,-56.5"/>
<text text-anchor="middle" x="1103" y="-63.5" font-family="Helvetica,sans-Serif" font-size="10.00" fill="#000000">GPUCommonDef.h</text>
</a>
</g>
</g>
<!-- Node16&#45;&gt;Node17 -->
<g id="edge30" class="edge">
<title>Node16&#45;&gt;Node17</title>
<path fill="none" stroke="#191970" d="M918.2188,-117.8906C956.2275,-107.2169 1017.6911,-89.9566 1059.1884,-78.3033"/>
<polygon fill="#191970" stroke="#191970" points="1060.3402,-81.6153 1069.0215,-75.5419 1058.4477,-74.8759 1060.3402,-81.6153"/>
</g>
<!-- Node18 -->
<g id="node19" class="node">
<title>Node18</title>
<g id="a_node19"><a xlink:href="../../d5/d93/GPUCommonDefSettings_8h.html" target="_top" xlink:title="GPUCommonDefSettings.h">
<polygon fill="none" stroke="#000000" points="952,-.5 952,-19.5 1100,-19.5 1100,-.5 952,-.5"/>
<text text-anchor="middle" x="1026" y="-7.5" font-family="Helvetica,sans-Serif" font-size="10.00" fill="#000000">GPUCommonDefSettings.h</text>
</a>
</g>
</g>
<!-- Node17&#45;&gt;Node18 -->
<g id="edge31" class="edge">
<title>Node17&#45;&gt;Node18</title>
<path fill="none" stroke="#191970" d="M1089.5876,-56.2455C1077.9943,-47.814 1061.0252,-35.4729 1047.5322,-25.6598"/>
<polygon fill="#191970" stroke="#191970" points="1049.4047,-22.6938 1039.2587,-19.6427 1045.2874,-28.355 1049.4047,-22.6938"/>
</g>
<!-- Node19 -->
<g id="node20" class="node">
<title>Node19</title>
<g id="a_node20"><a xlink:href="../../da/d5a/GPUCommonDefAPI_8h.html" target="_top" xlink:title="GPUCommonDefAPI.h">
<polygon fill="none" stroke="#000000" points="1118,-.5 1118,-19.5 1242,-19.5 1242,-.5 1118,-.5"/>
<text text-anchor="middle" x="1180" y="-7.5" font-family="Helvetica,sans-Serif" font-size="10.00" fill="#000000">GPUCommonDefAPI.h</text>
</a>
</g>
</g>
<!-- Node17&#45;&gt;Node19 -->
<g id="edge32" class="edge">
<title>Node17&#45;&gt;Node19</title>
<path fill="none" stroke="#191970" d="M1116.4124,-56.2455C1128.0057,-47.814 1144.9748,-35.4729 1158.4678,-25.6598"/>
<polygon fill="#191970" stroke="#191970" points="1160.7126,-28.355 1166.7413,-19.6427 1156.5953,-22.6938 1160.7126,-28.355"/>
</g>
<!-- Node20&#45;&gt;Node2 -->
<g id="edge35" class="edge">
<title>Node20&#45;&gt;Node2</title>
<path fill="none" stroke="#191970" d="M1254.4498,-251.889C1211.8491,-219.2763 1075.1265,-114.7046 1070,-112 1035.3854,-93.7385 992.1091,-80.7297 963.3421,-73.3059"/>
<polygon fill="#191970" stroke="#191970" points="963.9941,-69.8611 953.4432,-70.8242 962.2918,-76.651 963.9941,-69.8611"/>
</g>
<!-- Node20&#45;&gt;Node4 -->
<g id="edge36" class="edge">
<title>Node20&#45;&gt;Node4</title>
<path fill="none" stroke="#191970" d="M1265.212,-251.6858C1261.0412,-225.4914 1253.5396,-153.1292 1289,-112 1304.4851,-94.0394 1367.7945,-79.4456 1407.6626,-71.804"/>
<polygon fill="#191970" stroke="#191970" points="1408.3061,-75.2444 1417.4941,-69.9688 1407.0216,-68.3632 1408.3061,-75.2444"/>
</g>
<!-- Node20&#45;&gt;Node15 -->
<g id="edge48" class="edge">
<title>Node20&#45;&gt;Node15</title>
<path fill="none" stroke="#191970" d="M1201.781,-256.4366C1045.0489,-244.2686 647.8433,-213.4311 480.3513,-200.4276"/>
<polygon fill="#191970" stroke="#191970" points="480.3782,-196.9193 470.1373,-199.6346 479.8363,-203.8983 480.3782,-196.9193"/>
</g>
<!-- Node20&#45;&gt;Node17 -->
<g id="edge50" class="edge">
<title>Node20&#45;&gt;Node17</title>
<path fill="none" stroke="#191970" d="M1259.5855,-251.8616C1241.0011,-227.8101 1190.7136,-163.3873 1146,-112 1137.5166,-102.2505 1127.6986,-91.6958 1119.5876,-83.1588"/>
<polygon fill="#191970" stroke="#191970" points="1121.8764,-80.4884 1112.4334,-75.6842 1116.8194,-85.3285 1121.8764,-80.4884"/>
</g>
<!-- Node20&#45;&gt;Node21 -->
<g id="edge37" class="edge">
<title>Node20&#45;&gt;Node21</title>
<path fill="none" stroke="#191970" d="M1287.317,-251.9534C1326.2403,-234.1499 1414.4429,-196.1371 1493,-179 1610.7882,-153.3047 1984.0907,-134.5389 2102.5538,-129.1082"/>
<polygon fill="#191970" stroke="#191970" points="2103.0571,-132.5891 2112.8879,-128.6388 2102.7394,-125.5963 2103.0571,-132.5891"/>
</g>
<!-- Node20&#45;&gt;Node22 -->
<g id="edge38" class="edge">
<title>Node20&#45;&gt;Node22</title>
<path fill="none" stroke="#191970" d="M1304.6866,-251.9717C1354.2834,-239.4321 1441.0997,-217.4824 1491.8802,-204.6435"/>
<polygon fill="#191970" stroke="#191970" points="1493.0015,-207.9702 1501.8385,-202.1257 1491.2856,-201.1838 1493.0015,-207.9702"/>
</g>
<!-- Node23 -->
<g id="node24" class="node">
<title>Node23</title>
<g id="a_node24"><a xlink:href="../../d9/d52/Common_2MathUtils_2include_2MathUtils_2Utils_8h.html" target="_top" xlink:title="MathUtils/Utils.h">
<polygon fill="none" stroke="#000000" points="1770,-185 1770,-204 1868,-204 1868,-185 1770,-185"/>
<text text-anchor="middle" x="1819" y="-192" font-family="Helvetica,sans-Serif" font-size="10.00" fill="#000000">MathUtils/Utils.h</text>
</a>
</g>
</g>
<!-- Node20&#45;&gt;Node23 -->
<g id="edge39" class="edge">
<title>Node20&#45;&gt;Node23</title>
<path fill="none" stroke="#191970" d="M1332.2167,-253.5842C1440.4462,-240.4476 1655.5386,-214.3404 1759.7144,-201.6959"/>
<polygon fill="#191970" stroke="#191970" points="1760.2391,-205.158 1769.7445,-200.4785 1759.3956,-198.209 1760.2391,-205.158"/>
</g>
<!-- Node20&#45;&gt;Node24 -->
<g id="edge49" class="edge">
<title>Node20&#45;&gt;Node24</title>
<path fill="none" stroke="#191970" d="M1273.3287,-251.8631C1287.9164,-229.6501 1324.0988,-174.5541 1343.027,-145.7316"/>
<polygon fill="#191970" stroke="#191970" points="1346.1648,-147.3296 1348.7286,-137.0496 1340.3137,-143.4871 1346.1648,-147.3296"/>
</g>
<!-- Node23&#45;&gt;Node2 -->
<g id="edge40" class="edge">
<title>Node23&#45;&gt;Node2</title>
<path fill="none" stroke="#191970" d="M1827.995,-184.7661C1842.5747,-167.8216 1867.8331,-132.7364 1848,-112 1816.9424,-79.5279 1084.8283,-79.0723 1040,-76 1014.1258,-74.2267 984.8316,-71.467 963.2869,-69.2955"/>
<polygon fill="#191970" stroke="#191970" points="963.3885,-65.7878 953.0844,-68.2529 962.6767,-72.7515 963.3885,-65.7878"/>
</g>
<!-- Node23&#45;&gt;Node4 -->
<g id="edge41" class="edge">
<title>Node23&#45;&gt;Node4</title>
<path fill="none" stroke="#191970" d="M1847.4098,-184.9326C1885.7352,-170.5916 1946.2398,-141.9871 1919,-112 1889.1889,-79.1823 1578.8761,-69.1424 1474.8082,-66.6857"/>
<polygon fill="#191970" stroke="#191970" points="1474.633,-63.1809 1464.556,-66.4527 1474.4739,-70.1791 1474.633,-63.1809"/>
</g>
<!-- Node23&#45;&gt;Node17 -->
<g id="edge42" class="edge">
<title>Node23&#45;&gt;Node17</title>
<path fill="none" stroke="#191970" d="M1835.499,-184.8076C1860.7713,-168.8128 1903.8584,-136.2498 1881,-112 1868.7887,-99.0453 1350.5392,-76.2896 1166.7841,-68.613"/>
<polygon fill="#191970" stroke="#191970" points="1166.8636,-65.1134 1156.7265,-68.194 1166.5721,-72.1073 1166.8636,-65.1134"/>
</g>
<!-- Node23&#45;&gt;Node24 -->
<g id="edge43" class="edge">
<title>Node23&#45;&gt;Node24</title>
<path fill="none" stroke="#191970" d="M1769.9232,-187.5244C1700.7809,-177.6819 1570.7525,-159.1185 1460,-143 1448.0335,-141.2584 1435.3022,-139.3912 1422.9846,-137.5772"/>
<polygon fill="#191970" stroke="#191970" points="1423.1645,-134.0659 1412.7609,-136.0698 1422.1435,-140.9911 1423.1645,-134.0659"/>
</g>
<!-- Node23&#45;&gt;Node26 -->
<g id="edge47" class="edge">
<title>Node23&#45;&gt;Node26</title>
<path fill="none" stroke="#191970" d="M1807.9678,-184.9005C1795.6172,-174.1539 1775.3977,-156.5603 1760.5943,-143.6794"/>
<polygon fill="#191970" stroke="#191970" points="1762.8532,-141.0055 1753.0118,-137.0817 1758.2582,-146.2863 1762.8532,-141.0055"/>
</g>
<!-- Node24&#45;&gt;Node4 -->
<g id="edge45" class="edge">
<title>Node24&#45;&gt;Node4</title>
<path fill="none" stroke="#191970" d="M1368.4375,-117.8906C1382.0695,-108.1421 1403.3846,-92.8994 1419.3922,-81.4521"/>
<polygon fill="#191970" stroke="#191970" points="1421.5586,-84.2057 1427.6569,-75.5419 1417.4868,-78.5118 1421.5586,-84.2057"/>
</g>
<!-- Node24&#45;&gt;Node17 -->
<g id="edge44" class="edge">
<title>Node24&#45;&gt;Node17</title>
<path fill="none" stroke="#191970" d="M1315.9015,-117.9581C1271.761,-107.1857 1199.878,-89.6428 1152.0194,-77.9631"/>
<polygon fill="#191970" stroke="#191970" points="1152.735,-74.535 1142.1902,-75.5643 1151.0753,-81.3355 1152.735,-74.535"/>
</g>
<!-- Node25 -->
<g id="node26" class="node">
<title>Node25</title>
<polygon fill="none" stroke="#bfbfbf" points="1937,-56.5 1937,-75.5 2001,-75.5 2001,-56.5 1937,-56.5"/>
<text text-anchor="middle" x="1969" y="-63.5" font-family="Helvetica,sans-Serif" font-size="10.00" fill="#000000">algorithm</text>
</g>
<!-- Node24&#45;&gt;Node25 -->
<g id="edge46" class="edge">
<title>Node24&#45;&gt;Node25</title>
<path fill="none" stroke="#191970" d="M1412.689,-118.3862C1428.0414,-116.1245 1444.6298,-113.8275 1460,-112 1632.7184,-91.4638 1839.3812,-75.4057 1926.7261,-69.0093"/>
<polygon fill="#191970" stroke="#191970" points="1927.0567,-72.4946 1936.7761,-68.2775 1926.5483,-65.5131 1927.0567,-72.4946"/>
</g>
<!-- Node27&#45;&gt;Node2 -->
<g id="edge53" class="edge">
<title>Node27&#45;&gt;Node2</title>
<path fill="none" stroke="#191970" d="M518.7405,-459.3003C417.6491,-453.8288 239.9879,-440.2965 183,-411 83.2967,-359.7443 53.6035,-286.9071 84,-179 93.4657,-145.3969 95.044,-129.9277 125,-112 158.8475,-91.7434 755.9134,-71.5803 900.6094,-66.9764"/>
<polygon fill="#191970" stroke="#191970" points="900.7223,-70.4747 910.6066,-66.6603 900.501,-63.4782 900.7223,-70.4747"/>
</g>
<!-- Node27&#45;&gt;Node7 -->
<g id="edge54" class="edge">
<title>Node27&#45;&gt;Node7</title>
<path fill="none" stroke="#191970" d="M663.3656,-455.8042C693.2769,-453.0518 728.3072,-449.8481 760,-447 941.7481,-430.6668 989.5426,-444.0788 1169,-411 1325.7587,-382.1052 1360.6604,-356.5335 1514,-313 1675.3267,-267.199 1719.5866,-267.8366 1877,-210 1878.6327,-209.4001 1880.2963,-208.7559 1881.9665,-208.0831"/>
<polygon fill="#191970" stroke="#191970" points="1883.6194,-211.1828 1891.4344,-204.029 1880.864,-204.7479 1883.6194,-211.1828"/>
</g>
<!-- Node27&#45;&gt;Node12 -->
<g id="edge61" class="edge">
<title>Node27&#45;&gt;Node12</title>
<path fill="none" stroke="#191970" d="M584.6112,-447.3923C569.3713,-411.3544 530.9061,-320.3956 514.0848,-280.6181"/>
<polygon fill="#191970" stroke="#191970" points="517.2443,-279.1033 510.1258,-271.2562 510.7971,-281.8297 517.2443,-279.1033"/>
</g>
<!-- Node27&#45;&gt;Node14 -->
<g id="edge55" class="edge">
<title>Node27&#45;&gt;Node14</title>
<path fill="none" stroke="#191970" d="M562.3698,-447.4453C502.7402,-414.1845 366.8064,-327.9339 319,-210 313.824,-197.2314 314.6942,-192.0877 319,-179 323.2436,-166.1016 332.0948,-153.7822 340.1876,-144.4282"/>
<polygon fill="#191970" stroke="#191970" points="342.7913,-146.7675 346.9695,-137.0313 337.6317,-142.0369 342.7913,-146.7675"/>
</g>
<!-- Node27&#45;&gt;Node15 -->
<g id="edge62" class="edge">
<title>Node27&#45;&gt;Node15</title>
<path fill="none" stroke="#191970" d="M577.3138,-447.1172C553.0552,-419.9026 500.8425,-361.5564 456,-313 441.0687,-296.8321 432.2763,-296.4613 422,-277 411.5557,-257.2204 407.1671,-231.7123 405.3258,-214.3304"/>
<polygon fill="#191970" stroke="#191970" points="408.8001,-213.8819 404.4456,-204.2233 401.8265,-214.4893 408.8001,-213.8819"/>
</g>
<!-- Node27&#45;&gt;Node16 -->
<g id="edge63" class="edge">
<title>Node27&#45;&gt;Node16</title>
<path fill="none" stroke="#191970" d="M612.9057,-447.2694C662.3568,-411.7088 783.2123,-317.9894 846,-210 858.0776,-189.2275 869.2404,-163.9551 876.2984,-146.8988"/>
<polygon fill="#191970" stroke="#191970" points="879.614,-148.0364 880.1341,-137.4543 873.1285,-145.4024 879.614,-148.0364"/>
</g>
<!-- Node27&#45;&gt;Node25 -->
<g id="edge52" class="edge">
<title>Node27&#45;&gt;Node25</title>
<path fill="none" stroke="#191970" d="M663.2122,-450.0334C800.9972,-425.7462 1091.063,-372.0223 1128,-344 1194.213,-293.7675 1165.1027,-244.7033 1216,-179 1242.969,-144.1857 1248.5254,-129.3541 1289,-112 1347.4266,-86.9487 1786.9493,-71.5407 1926.5668,-67.2391"/>
<polygon fill="#191970" stroke="#191970" points="1926.9674,-70.7286 1936.8561,-66.9255 1926.7541,-63.7319 1926.9674,-70.7286"/>
</g>
<!-- Node27&#45;&gt;Node28 -->
<g id="edge56" class="edge">
<title>Node27&#45;&gt;Node28</title>
<path fill="none" stroke="#191970" d="M520.3867,-447.4373C490.6215,-439.2865 456.3732,-427.4433 428,-411 331.2133,-354.9087 241.0901,-252.8471 207.1889,-212.0434"/>
<polygon fill="#191970" stroke="#191970" points="209.8805,-209.8061 200.8259,-204.3047 204.4735,-214.2518 209.8805,-209.8061"/>
</g>
<!-- Node27&#45;&gt;Node29 -->
<g id="edge64" class="edge">
<title>Node27&#45;&gt;Node29</title>
<path fill="none" stroke="#191970" d="M518.8134,-449.9009C462.8225,-439.93 383.3358,-425.3417 314,-411 308.3029,-409.8216 302.349,-408.5395 296.4354,-407.2342"/>
<polygon fill="#191970" stroke="#191970" points="297.0964,-403.7957 286.5737,-405.0298 295.5693,-410.6271 297.0964,-403.7957"/>
</g>
<!-- Node27&#45;&gt;Node30 -->
<g id="edge68" class="edge">
<title>Node27&#45;&gt;Node30</title>
<path fill="none" stroke="#191970" d="M663.2445,-452.9717C760.2067,-440.1834 931.3766,-417.6078 1027.8017,-404.8903"/>
<polygon fill="#191970" stroke="#191970" points="1028.295,-408.3557 1037.7515,-403.5781 1027.3796,-401.4158 1028.295,-408.3557"/>
</g>
<!-- Node28&#45;&gt;Node2 -->
<g id="edge57" class="edge">
<title>Node28&#45;&gt;Node2</title>
<path fill="none" stroke="#191970" d="M194.732,-184.7943C198.4936,-166.8993 209.2372,-128.9861 235,-112 291.0751,-75.0283 772.0931,-67.597 900.5651,-66.2663"/>
<polygon fill="#191970" stroke="#191970" points="900.9156,-69.7632 910.8807,-66.165 900.8467,-62.7635 900.9156,-69.7632"/>
</g>
<!-- Node28&#45;&gt;Node14 -->
<g id="edge58" class="edge">
<title>Node28&#45;&gt;Node14</title>
<path fill="none" stroke="#191970" d="M216.4972,-184.9005C244.7508,-173.3579 292.3392,-153.9163 324.2017,-140.8993"/>
<polygon fill="#191970" stroke="#191970" points="325.6128,-144.1037 333.5464,-137.0817 322.9654,-137.6236 325.6128,-144.1037"/>
</g>
<!-- Node28&#45;&gt;Node16 -->
<g id="edge59" class="edge">
<title>Node28&#45;&gt;Node16</title>
<path fill="none" stroke="#191970" d="M244.314,-188.3947C269.7696,-185.4316 300.989,-181.8955 329,-179 498.71,-161.457 697.911,-143.6502 805.4813,-134.2642"/>
<polygon fill="#191970" stroke="#191970" points="805.9428,-137.7373 815.6012,-133.3824 805.3351,-130.7637 805.9428,-137.7373"/>
</g>
<!-- Node28&#45;&gt;Node17 -->
<g id="edge60" class="edge">
<title>Node28&#45;&gt;Node17</title>
<path fill="none" stroke="#191970" d="M203.9183,-184.8379C225.2223,-166.6599 274.5866,-127.7846 324,-112 459.2694,-68.7896 820.2837,-85.0232 962,-76 987.287,-74.39 1015.1126,-72.452 1039.3156,-70.7125"/>
<polygon fill="#191970" stroke="#191970" points="1039.7267,-74.192 1049.4486,-69.9807 1039.2225,-67.2102 1039.7267,-74.192"/>
</g>
<!-- Node29&#45;&gt;Node2 -->
<g id="edge65" class="edge">
<title>Node29&#45;&gt;Node2</title>
<path fill="none" stroke="#191970" d="M224.8053,-385.9279C191.0009,-369.3322 126.0399,-331.6728 100,-277 81.2709,-237.6769 78.9823,-217.149 100,-179 126.8939,-130.1851 152.9829,-129.1861 206,-112 272.6803,-90.3848 769.7129,-71.6646 900.5275,-67.0744"/>
<polygon fill="#191970" stroke="#191970" points="900.802,-70.567 910.674,-66.721 900.5582,-63.5713 900.802,-70.567"/>
</g>
<!-- Node29&#45;&gt;Node15 -->
<g id="edge66" class="edge">
<title>Node29&#45;&gt;Node15</title>
<path fill="none" stroke="#191970" d="M253.6207,-385.8054C278.5448,-354.0981 357.8863,-253.1636 390.1534,-212.115"/>
<polygon fill="#191970" stroke="#191970" points="393.0275,-214.1222 396.4558,-204.0974 387.5242,-209.7962 393.0275,-214.1222"/>
</g>
<!-- Node29&#45;&gt;Node17 -->
<g id="edge67" class="edge">
<title>Node29&#45;&gt;Node17</title>
<path fill="none" stroke="#191970" d="M233.8256,-385.9895C196.0733,-355.3199 86.2526,-256.5159 133,-179 165.9571,-124.3509 198.4663,-128.9203 260,-112 410.6146,-70.5846 806.0857,-85.5258 962,-76 987.2911,-74.4548 1015.1174,-72.5294 1039.32,-70.7817"/>
<polygon fill="#191970" stroke="#191970" points="1039.7327,-74.2611 1049.4527,-70.0453 1039.2252,-67.2795 1039.7327,-74.2611"/>
</g>
<!-- Node30&#45;&gt;Node17 -->
<g id="edge83" class="edge">
<title>Node30&#45;&gt;Node17</title>
<path fill="none" stroke="#191970" d="M1106.4191,-385.9048C1113.5489,-376.0279 1123.8361,-359.8809 1128,-344 1131.4944,-330.6727 1128.6946,-326.7603 1128,-313 1127.4295,-301.6987 1110.9675,-142.6839 1105.0737,-85.94"/>
<polygon fill="#191970" stroke="#191970" points="1108.5297,-85.3347 1104.0147,-75.7501 1101.5672,-86.0584 1108.5297,-85.3347"/>
</g>
<!-- Node30&#45;&gt;Node22 -->
<g id="edge81" class="edge">
<title>Node30&#45;&gt;Node22</title>
<path fill="none" stroke="#191970" d="M1127.6007,-385.9891C1155.9735,-376.3015 1200.5156,-360.409 1238,-344 1339.27,-299.6685 1455.0002,-237.1778 1505.7871,-209.1287"/>
<polygon fill="#191970" stroke="#191970" points="1507.7249,-212.0564 1514.7761,-204.1487 1504.3326,-205.9333 1507.7249,-212.0564"/>
</g>
<!-- Node30&#45;&gt;Node24 -->
<g id="edge82" class="edge">
<title>Node30&#45;&gt;Node24</title>
<path fill="none" stroke="#191970" d="M1139.3724,-385.9501C1161.392,-378.4587 1186.7881,-365.5671 1200,-344 1222.8101,-306.7648 1173.2386,-284.9391 1193,-246 1219.6041,-193.5777 1281.497,-158.7859 1320.6147,-141.1534"/>
<polygon fill="#191970" stroke="#191970" points="1322.2704,-144.2497 1330.0339,-137.04 1319.4689,-137.8347 1322.2704,-144.2497"/>
</g>
<!-- Node31 -->
<g id="node32" class="node">
<title>Node31</title>
<g id="a_node32"><a xlink:href="../../da/d7f/Detectors_2ITSMFT_2ITS_2tracking_2include_2ITStracking_2Cluster_8h.html" target="_top" xlink:title="ITStracking/Cluster.h">
<polygon fill="none" stroke="#000000" points="1002.5,-319 1002.5,-338 1119.5,-338 1119.5,-319 1002.5,-319"/>
<text text-anchor="middle" x="1061" y="-326" font-family="Helvetica,sans-Serif" font-size="10.00" fill="#000000">ITStracking/Cluster.h</text>
</a>
</g>
</g>
<!-- Node30&#45;&gt;Node31 -->
<g id="edge69" class="edge">
<title>Node30&#45;&gt;Node31</title>
<path fill="none" stroke="#191970" d="M1093.5555,-385.9005C1087.7991,-375.751 1078.5787,-359.4941 1071.4176,-346.8679"/>
<polygon fill="#191970" stroke="#191970" points="1074.4123,-345.0533 1066.4344,-338.0817 1068.3234,-348.5067 1074.4123,-345.0533"/>
</g>
<!-- Node31&#45;&gt;Node2 -->
<g id="edge70" class="edge">
<title>Node31&#45;&gt;Node2</title>
<path fill="none" stroke="#191970" d="M1060.1574,-318.9309C1056.9197,-286.8167 1042.8963,-181.0298 994,-112 984.9606,-99.2386 971.2816,-88.5541 959.07,-80.7044"/>
<polygon fill="#191970" stroke="#191970" points="960.8861,-77.7124 950.5248,-75.5004 957.2452,-83.6911 960.8861,-77.7124"/>
</g>
<!-- Node31&#45;&gt;Node16 -->
<g id="edge71" class="edge">
<title>Node31&#45;&gt;Node16</title>
<path fill="none" stroke="#191970" d="M1055.8127,-318.9287C1041.9588,-293.9289 1002.0007,-225.3985 956,-179 942.0215,-164.9007 923.8157,-151.9165 909.2088,-142.5125"/>
<polygon fill="#191970" stroke="#191970" points="910.98,-139.4919 900.649,-137.1418 907.2596,-145.4214 910.98,-139.4919"/>
</g>
<!-- Node31&#45;&gt;Node20 -->
<g id="edge72" class="edge">
<title>Node31&#45;&gt;Node20</title>
<path fill="none" stroke="#191970" d="M1090.5148,-318.9005C1126.6159,-307.1589 1187.8482,-287.2436 1227.8544,-274.2318"/>
<polygon fill="#191970" stroke="#191970" points="1229.1129,-277.5031 1237.54,-271.0817 1226.9478,-270.8463 1229.1129,-277.5031"/>
</g>
<!-- Node31&#45;&gt;Node32 -->
<g id="edge73" class="edge">
<title>Node31&#45;&gt;Node32</title>
<path fill="none" stroke="#191970" d="M1006.39,-318.9717C936.6795,-306.8087 816.2266,-285.7921 741.9033,-272.8243"/>
<polygon fill="#191970" stroke="#191970" points="742.185,-269.3206 731.7322,-271.0496 740.9817,-276.2164 742.185,-269.3206"/>
</g>
<!-- Node32&#45;&gt;Node2 -->
<g id="edge74" class="edge">
<title>Node32&#45;&gt;Node2</title>
<path fill="none" stroke="#191970" d="M672.9202,-251.6934C662.7535,-225.5178 639.4976,-153.1981 674,-112 702.6503,-77.7897 838.8658,-68.9983 900.9888,-66.7576"/>
<polygon fill="#191970" stroke="#191970" points="901.1111,-70.2555 910.9915,-66.4308 900.8825,-63.2593 901.1111,-70.2555"/>
</g>
<!-- Node32&#45;&gt;Node9 -->
<g id="edge75" class="edge">
<title>Node32&#45;&gt;Node9</title>
<path fill="none" stroke="#191970" d="M696.772,-251.9005C720.1365,-240.5569 759.2143,-221.5844 786.003,-208.5783"/>
<polygon fill="#191970" stroke="#191970" points="787.7975,-211.5978 795.2646,-204.0817 784.7402,-205.3007 787.7975,-211.5978"/>
</g>
<!-- Node32&#45;&gt;Node14 -->
<g id="edge76" class="edge">
<title>Node32&#45;&gt;Node14</title>
<path fill="none" stroke="#191970" d="M654.2429,-251.9705C598.2872,-228.539 453.8539,-168.0576 389.1644,-140.9688"/>
<polygon fill="#191970" stroke="#191970" points="390.431,-137.7048 379.8551,-137.0706 387.7272,-144.1615 390.431,-137.7048"/>
</g>
<!-- Node32&#45;&gt;Node15 -->
<g id="edge77" class="edge">
<title>Node32&#45;&gt;Node15</title>
<path fill="none" stroke="#191970" d="M638.1757,-251.9717C589.4959,-240.0246 506.011,-219.5357 452.9873,-206.5225"/>
<polygon fill="#191970" stroke="#191970" points="453.6784,-203.0883 443.1324,-204.1039 452.0099,-209.8866 453.6784,-203.0883"/>
</g>
<!-- Node32&#45;&gt;Node16 -->
<g id="edge78" class="edge">
<title>Node32&#45;&gt;Node16</title>
<path fill="none" stroke="#191970" d="M683.2812,-251.7398C694.6667,-234.7545 720.304,-199.6082 750,-179 775.7814,-161.1084 808.6186,-148.358 835.3338,-140.0198"/>
<polygon fill="#191970" stroke="#191970" points="836.6773,-143.2706 845.2454,-137.0385 834.6611,-136.5673 836.6773,-143.2706"/>
</g>
<!-- Node32&#45;&gt;Node17 -->
<g id="edge80" class="edge">
<title>Node32&#45;&gt;Node17</title>
<path fill="none" stroke="#191970" d="M679.3532,-251.9592C683.7527,-235.6141 694.4923,-201.8165 713,-179 745.3196,-139.156 759.4845,-131.3488 807,-112 847.9415,-95.3282 965.0421,-80.5131 1039.0955,-72.4411"/>
<polygon fill="#191970" stroke="#191970" points="1039.6792,-75.8985 1049.2467,-71.3473 1038.9292,-68.9388 1039.6792,-75.8985"/>
</g>
<!-- Node32&#45;&gt;Node24 -->
<g id="edge79" class="edge">
<title>Node32&#45;&gt;Node24</title>
<path fill="none" stroke="#191970" d="M691.1758,-251.8262C705.7259,-241.757 728.8782,-225.3433 748,-210 764.2074,-196.9952 763.9203,-187.2321 783,-179 871.9127,-140.6378 1155.201,-130.8416 1286.7132,-128.3477"/>
<polygon fill="#191970" stroke="#191970" points="1287.1219,-131.841 1297.057,-128.1607 1286.9953,-124.8421 1287.1219,-131.841"/>
</g>
<!-- Node33&#45;&gt;Node2 -->
<g id="edge99" class="edge">
<title>Node33&#45;&gt;Node2</title>
<path fill="none" stroke="#191970" d="M1934.2378,-447.3982C1904.5583,-439.3477 1870.8416,-427.5897 1843,-411 1679.3803,-313.5058 1709.7295,-190.0679 1536,-112 1435.1976,-66.703 1150.1373,-85.095 1040,-76 1014.153,-73.8656 984.8568,-71.1333 963.3044,-69.0643"/>
<polygon fill="#191970" stroke="#191970" points="963.3878,-65.5561 953.0976,-68.0785 962.7148,-72.5237 963.3878,-65.5561"/>
</g>
<!-- Node33&#45;&gt;Node4 -->
<g id="edge101" class="edge">
<title>Node33&#45;&gt;Node4</title>
<path fill="none" stroke="#191970" d="M2007.2113,-447.1899C2003.7055,-385.661 1987.3726,-157.5287 1936,-112 1901.5369,-81.4572 1580.5051,-69.8693 1474.6663,-66.8595"/>
<polygon fill="#191970" stroke="#191970" points="1474.6365,-63.3575 1464.5434,-66.5794 1474.4427,-70.3548 1474.6365,-63.3575"/>
</g>
<!-- Node33&#45;&gt;Node7 -->
<g id="edge103" class="edge">
<title>Node33&#45;&gt;Node7</title>
<path fill="none" stroke="#191970" d="M2002.5069,-447.3233C1985.8941,-401.424 1936.2023,-264.131 1917.8819,-213.514"/>
<polygon fill="#191970" stroke="#191970" points="1921.1664,-212.3044 1914.4719,-204.0926 1914.5843,-214.6868 1921.1664,-212.3044"/>
</g>
<!-- Node33&#45;&gt;Node23 -->
<g id="edge153" class="edge">
<title>Node33&#45;&gt;Node23</title>
<path fill="none" stroke="#191970" d="M1947.3837,-447.462C1926.469,-439.6223 1904.441,-427.9945 1889,-411 1861.948,-381.2263 1833.633,-261.7904 1823.1877,-214.2074"/>
<polygon fill="#191970" stroke="#191970" points="1826.5651,-213.266 1821.03,-204.232 1819.7233,-214.746 1826.5651,-213.266"/>
</g>
<!-- Node33&#45;&gt;Node25 -->
<g id="edge98" class="edge">
<title>Node33&#45;&gt;Node25</title>
<path fill="none" stroke="#191970" d="M2084.1414,-461.6141C2456.736,-456.7902 4070,-430.0406 4070,-328.5 4070,-328.5 4070,-328.5 4070,-194.5 4070,-87.4476 2309.2795,-68.7083 2011.5235,-66.3047"/>
<polygon fill="#191970" stroke="#191970" points="2011.1883,-62.802 2001.161,-66.2229 2011.133,-69.8018 2011.1883,-62.802"/>
</g>
<!-- Node33&#45;&gt;Node26 -->
<g id="edge152" class="edge">
<title>Node33&#45;&gt;Node26</title>
<path fill="none" stroke="#191970" d="M1937.1436,-447.3952C1913.1528,-439.6005 1887.5204,-428.0192 1868,-411 1848.9298,-394.3732 1769.8599,-233.6986 1761,-210 1753.2313,-189.2202 1748.0185,-164.2646 1745.0483,-147.281"/>
<polygon fill="#191970" stroke="#191970" points="1748.4985,-146.6917 1743.416,-137.3955 1741.592,-147.8322 1748.4985,-146.6917"/>
</g>
<!-- Node34 -->
<g id="node35" class="node">
<title>Node34</title>
<g id="a_node35"><a xlink:href="../../d2/d45/GPUCommonRtypes_8h.html" target="_top" xlink:title="GPUCommonRtypes.h">
<polygon fill="none" stroke="#000000" points="2499.5,-252 2499.5,-271 2624.5,-271 2624.5,-252 2499.5,-252"/>
<text text-anchor="middle" x="2562" y="-259" font-family="Helvetica,sans-Serif" font-size="10.00" fill="#000000">GPUCommonRtypes.h</text>
</a>
</g>
</g>
<!-- Node33&#45;&gt;Node34 -->
<g id="edge96" class="edge">
<title>Node33&#45;&gt;Node34</title>
<path fill="none" stroke="#191970" d="M2084.011,-458.3444C2210.9955,-450.8145 2455.6265,-433.5796 2488,-411 2532.4088,-380.0261 2551.4212,-314.5585 2558.4462,-281.4984"/>
<polygon fill="#191970" stroke="#191970" points="2561.963,-281.7525 2560.4531,-271.2658 2555.0938,-280.4052 2561.963,-281.7525"/>
</g>
<!-- Node36 -->
<g id="node37" class="node">
<title>Node36</title>
<polygon fill="none" stroke="#bfbfbf" points="1898,-386 1898,-405 1942,-405 1942,-386 1898,-386"/>
<text text-anchor="middle" x="1920" y="-393" font-family="Helvetica,sans-Serif" font-size="10.00" fill="#000000">cfloat</text>
</g>
<!-- Node33&#45;&gt;Node36 -->
<g id="edge100" class="edge">
<title>Node33&#45;&gt;Node36</title>
<path fill="none" stroke="#191970" d="M1988.0314,-447.2967C1973.9213,-436.5537 1955.0549,-422.1895 1940.7692,-411.3129"/>
<polygon fill="#191970" stroke="#191970" points="1942.6264,-408.328 1932.5498,-405.055 1938.386,-413.8975 1942.6264,-408.328"/>
</g>
<!-- Node37 -->
<g id="node38" class="node">
<title>Node37</title>
<polygon fill="none" stroke="#bfbfbf" points="2665,-118 2665,-137 2715,-137 2715,-118 2665,-118"/>
<text text-anchor="middle" x="2690" y="-125" font-family="Helvetica,sans-Serif" font-size="10.00" fill="#000000">cstring</text>
</g>
<!-- Node33&#45;&gt;Node37 -->
<g id="edge102" class="edge">
<title>Node33&#45;&gt;Node37</title>
<path fill="none" stroke="#191970" d="M2084.2053,-461.0496C2307.0378,-455.8435 2976.2184,-433.3312 3523,-344 3720.9753,-311.6555 3854.3732,-384.1117 3954,-210 3960.8426,-198.0415 3963.5988,-188.8838 3954,-179 3906.3727,-129.9583 2790.5857,-158.4851 2724,-143 2721.6542,-142.4545 2719.2738,-141.7412 2716.918,-140.9203"/>
<polygon fill="#191970" stroke="#191970" points="2718.1069,-137.6254 2707.5254,-137.0939 2715.4659,-144.1081 2718.1069,-137.6254"/>
</g>
<!-- Node38 -->
<g id="node39" class="node">
<title>Node38</title>
<g id="a_node39"><a xlink:href="../../d4/de2/BaseCluster_8h.html" target="_top" xlink:title="ReconstructionDataFormats\l/BaseCluster.h">
<polygon fill="none" stroke="#000000" points="2143,-380.5 2143,-410.5 2295,-410.5 2295,-380.5 2143,-380.5"/>
<text text-anchor="start" x="2151" y="-398.5" font-family="Helvetica,sans-Serif" font-size="10.00" fill="#000000">ReconstructionDataFormats</text>
<text text-anchor="middle" x="2219" y="-387.5" font-family="Helvetica,sans-Serif" font-size="10.00" fill="#000000">/BaseCluster.h</text>
</a>
</g>
</g>
<!-- Node33&#45;&gt;Node38 -->
<g id="edge104" class="edge">
<title>Node33&#45;&gt;Node38</title>
<path fill="none" stroke="#191970" d="M2055.3525,-447.4639C2086.8699,-437.456 2128.456,-424.2509 2161.8189,-413.657"/>
<polygon fill="#191970" stroke="#191970" points="2162.9692,-416.9641 2171.441,-410.6017 2160.8506,-410.2923 2162.9692,-416.9641"/>
</g>
<!-- Node48 -->
<g id="node49" class="node">
<title>Node48</title>
<polygon fill="none" stroke="#bfbfbf" points="2603,-118 2603,-137 2647,-137 2647,-118 2603,-118"/>
<text text-anchor="middle" x="2625" y="-125" font-family="Helvetica,sans-Serif" font-size="10.00" fill="#000000">string</text>
</g>
<!-- Node33&#45;&gt;Node48 -->
<g id="edge151" class="edge">
<title>Node33&#45;&gt;Node48</title>
<path fill="none" stroke="#191970" d="M2084.2113,-458.3926C2426.7856,-439.1652 3812.8718,-352.9217 3937,-210 3946.0344,-199.5978 3946.6045,-188.8783 3937,-179 3887.3698,-127.9555 2725.0536,-160.3289 2656,-143 2654.074,-142.5167 2652.1295,-141.9004 2650.2032,-141.1935"/>
<polygon fill="#191970" stroke="#191970" points="2651.4565,-137.9212 2640.8936,-137.0994 2648.6385,-144.329 2651.4565,-137.9212"/>
</g>
<!-- Node64 -->
<g id="node65" class="node">
<title>Node64</title>
<g id="a_node65"><a xlink:href="../../d8/d77/Primitive2D_8h.html" target="_top" xlink:title="Declarations of 2D primitives: straight line (XY interval) and circle. ">
<polygon fill="none" stroke="#000000" points="2345.5,-386 2345.5,-405 2478.5,-405 2478.5,-386 2345.5,-386"/>
<text text-anchor="middle" x="2412" y="-393" font-family="Helvetica,sans-Serif" font-size="10.00" fill="#000000">MathUtils/Primitive2D.h</text>
</a>
</g>
</g>
<!-- Node33&#45;&gt;Node64 -->
<g id="edge154" class="edge">
<title>Node33&#45;&gt;Node64</title>
<path fill="none" stroke="#191970" d="M2084.4643,-449.819C2159.3591,-437.3984 2272.3991,-418.6516 2344.1762,-406.748"/>
<polygon fill="#191970" stroke="#191970" points="2345.1648,-410.1319 2354.4574,-405.043 2344.0195,-403.2263 2345.1648,-410.1319"/>
</g>
<!-- Node35 -->
<g id="node36" class="node">
<title>Node35</title>
<polygon fill="none" stroke="#bfbfbf" points="2670.5,-185 2670.5,-204 2729.5,-204 2729.5,-185 2670.5,-185"/>
<text text-anchor="middle" x="2700" y="-192" font-family="Helvetica,sans-Serif" font-size="10.00" fill="#000000">Rtypes.h</text>
</g>
<!-- Node34&#45;&gt;Node35 -->
<g id="edge97" class="edge">
<title>Node34&#45;&gt;Node35</title>
<path fill="none" stroke="#191970" d="M2581.772,-251.9005C2605.1365,-240.5569 2644.2143,-221.5844 2671.003,-208.5783"/>
<polygon fill="#191970" stroke="#191970" points="2672.7975,-211.5978 2680.2646,-204.0817 2669.7402,-205.3007 2672.7975,-211.5978"/>
</g>
<!-- Node38&#45;&gt;Node6 -->
<g id="edge107" class="edge">
<title>Node38&#45;&gt;Node6</title>
<path fill="none" stroke="#191970" d="M2142.7831,-386.9463C2013.8629,-372.4779 1757.3227,-343.687 1660.3373,-332.8025"/>
<polygon fill="#191970" stroke="#191970" points="1660.4459,-329.2928 1650.1179,-331.6556 1659.6651,-336.2491 1660.4459,-329.2928"/>
</g>
<!-- Node38&#45;&gt;Node7 -->
<g id="edge109" class="edge">
<title>Node38&#45;&gt;Node7</title>
<path fill="none" stroke="#191970" d="M2173.5069,-380.4364C2149.1027,-371.4598 2118.9943,-358.9109 2094,-344 2027.0529,-304.0611 1958.6658,-241.0447 1927.8612,-211.2146"/>
<polygon fill="#191970" stroke="#191970" points="1930.1299,-208.5379 1920.5312,-204.0528 1925.2379,-213.5448 1930.1299,-208.5379"/>
</g>
<!-- Node39 -->
<g id="node40" class="node">
<title>Node39</title>
<polygon fill="none" stroke="#bfbfbf" points="2330.5,-319 2330.5,-338 2393.5,-338 2393.5,-319 2330.5,-319"/>
<text text-anchor="middle" x="2362" y="-326" font-family="Helvetica,sans-Serif" font-size="10.00" fill="#000000">TObject.h</text>
</g>
<!-- Node38&#45;&gt;Node39 -->
<g id="edge105" class="edge">
<title>Node38&#45;&gt;Node39</title>
<path fill="none" stroke="#191970" d="M2251.092,-380.4639C2275.4098,-369.0702 2308.5721,-353.5327 2332.2862,-342.4219"/>
<polygon fill="#191970" stroke="#191970" points="2333.9317,-345.5161 2341.5021,-338.1039 2330.9618,-339.1773 2333.9317,-345.5161"/>
</g>
<!-- Node40 -->
<g id="node41" class="node">
<title>Node40</title>
<polygon fill="none" stroke="#bfbfbf" points="2608,-185 2608,-204 2652,-204 2652,-185 2608,-185"/>
<text text-anchor="middle" x="2630" y="-192" font-family="Helvetica,sans-Serif" font-size="10.00" fill="#000000">bitset</text>
</g>
<!-- Node38&#45;&gt;Node40 -->
<g id="edge106" class="edge">
<title>Node38&#45;&gt;Node40</title>
<path fill="none" stroke="#191970" d="M2295.0611,-386.4677C2353.6675,-378.1138 2428.5292,-363.9622 2452,-344 2487.709,-313.629 2457.4583,-278.7488 2491,-246 2498.9657,-238.2227 2559.6687,-217.43 2598.1767,-204.7701"/>
<polygon fill="#191970" stroke="#191970" points="2599.4978,-208.0206 2607.9149,-201.5861 2597.3223,-201.3672 2599.4978,-208.0206"/>
</g>
<!-- Node41 -->
<g id="node42" class="node">
<title>Node41</title>
<polygon fill="none" stroke="#bfbfbf" points="2411.5,-319 2411.5,-338 2442.5,-338 2442.5,-319 2411.5,-319"/>
<text text-anchor="middle" x="2427" y="-326" font-family="Helvetica,sans-Serif" font-size="10.00" fill="#000000">ios</text>
</g>
<!-- Node38&#45;&gt;Node41 -->
<g id="edge108" class="edge">
<title>Node38&#45;&gt;Node41</title>
<path fill="none" stroke="#191970" d="M2291.9756,-380.4265C2326.4919,-371.9613 2367.7634,-359.87 2403,-344 2403.5653,-343.7454 2404.1327,-343.4787 2404.7005,-343.2017"/>
<polygon fill="#191970" stroke="#191970" points="2406.7283,-346.0752 2413.6967,-338.0944 2403.2724,-339.9878 2406.7283,-346.0752"/>
</g>
<!-- Node42 -->
<g id="node43" class="node">
<title>Node42</title>
<g id="a_node43"><a xlink:href="../../d4/d20/DetMatrixCache_8h.html" target="_top" xlink:title="DetectorsCommonDataFormats\l/DetMatrixCache.h">
<polygon fill="none" stroke="#000000" points="2102.5,-313.5 2102.5,-343.5 2273.5,-343.5 2273.5,-313.5 2102.5,-313.5"/>
<text text-anchor="start" x="2110.5" y="-331.5" font-family="Helvetica,sans-Serif" font-size="10.00" fill="#000000">DetectorsCommonDataFormats</text>
<text text-anchor="middle" x="2188" y="-320.5" font-family="Helvetica,sans-Serif" font-size="10.00" fill="#000000">/DetMatrixCache.h</text>
</a>
</g>
</g>
<!-- Node38&#45;&gt;Node42 -->
<g id="edge110" class="edge">
<title>Node38&#45;&gt;Node42</title>
<path fill="none" stroke="#191970" d="M2211.9656,-380.2967C2208.2003,-372.1586 2203.4734,-361.9425 2199.2149,-352.7386"/>
<polygon fill="#191970" stroke="#191970" points="2202.3822,-351.2491 2195.0065,-343.6432 2196.0293,-354.1885 2202.3822,-351.2491"/>
</g>
<!-- Node54 -->
<g id="node55" class="node">
<title>Node54</title>
<g id="a_node55"><a xlink:href="../../dd/d76/Cartesian3D_8h.html" target="_top" xlink:title="MathUtils/Cartesian3D.h">
<polygon fill="none" stroke="#000000" points="2919.5,-252 2919.5,-271 3054.5,-271 3054.5,-252 2919.5,-252"/>
<text text-anchor="middle" x="2987" y="-259" font-family="Helvetica,sans-Serif" font-size="10.00" fill="#000000">MathUtils/Cartesian3D.h</text>
</a>
</g>
</g>
<!-- Node38&#45;&gt;Node54 -->
<g id="edge150" class="edge">
<title>Node38&#45;&gt;Node54</title>
<path fill="none" stroke="#191970" d="M2237.7529,-380.4231C2267.2884,-356.685 2321.3807,-313.2447 2322,-313 2375.4351,-291.8856 2745.7127,-272.5561 2909.4376,-264.9347"/>
<polygon fill="#191970" stroke="#191970" points="2909.6176,-268.4302 2919.445,-264.4714 2909.2938,-261.4377 2909.6176,-268.4302"/>
</g>
<!-- Node42&#45;&gt;Node2 -->
<g id="edge115" class="edge">
<title>Node42&#45;&gt;Node2</title>
<path fill="none" stroke="#191970" d="M2193.0323,-313.2147C2197.8384,-295.6062 2202.6541,-266.4748 2190,-246 2171.1909,-215.5662 2147.7827,-229.824 2118,-210 2100.4231,-198.3004 2100.477,-189.2189 2082,-179 1993.6719,-130.1492 1964.4554,-129.2299 1865,-112 1503.371,-49.3507 1406.1682,-100.9265 1040,-76 1014.125,-74.2386 984.8309,-71.4779 963.2864,-69.3031"/>
<polygon fill="#191970" stroke="#191970" points="963.3885,-65.7954 953.084,-68.2586 962.6755,-72.759 963.3885,-65.7954"/>
</g>
<!-- Node42&#45;&gt;Node14 -->
<g id="edge116" class="edge">
<title>Node42&#45;&gt;Node14</title>
<path fill="none" stroke="#191970" d="M2188.3586,-313.3764C2187.9969,-295.3838 2184.804,-265.3533 2169,-246 2144.5948,-216.1139 2123.3669,-229.3762 2090,-210 2069.6263,-198.169 2069.3371,-186.4911 2047,-179 1878.6163,-122.5296 625.8045,-159.7968 449,-143 429.6377,-141.1605 408.1982,-137.6365 390.8901,-134.4129"/>
<polygon fill="#191970" stroke="#191970" points="391.1826,-130.9054 380.7028,-132.4623 389.8661,-137.7805 391.1826,-130.9054"/>
</g>
<!-- Node42&#45;&gt;Node34 -->
<g id="edge114" class="edge">
<title>Node42&#45;&gt;Node34</title>
<path fill="none" stroke="#191970" d="M2271.9329,-313.4639C2340.684,-301.1475 2436.4652,-283.9889 2498.8438,-272.8141"/>
<polygon fill="#191970" stroke="#191970" points="2499.7145,-276.2139 2508.9406,-271.0053 2498.4801,-269.3236 2499.7145,-276.2139"/>
</g>
<!-- Node43 -->
<g id="node44" class="node">
<title>Node43</title>
<g id="a_node44"><a xlink:href="../../df/d5b/GPUCommonLogger_8h.html" target="_top" xlink:title="GPUCommonLogger.h">
<polygon fill="none" stroke="#000000" points="2036.5,-252 2036.5,-271 2159.5,-271 2159.5,-252 2036.5,-252"/>
<text text-anchor="middle" x="2098" y="-259" font-family="Helvetica,sans-Serif" font-size="10.00" fill="#000000">GPUCommonLogger.h</text>
</a>
</g>
</g>
<!-- Node42&#45;&gt;Node43 -->
<g id="edge111" class="edge">
<title>Node42&#45;&gt;Node43</title>
<path fill="none" stroke="#191970" d="M2167.5776,-313.2967C2153.1468,-302.5537 2133.8516,-288.1895 2119.2412,-277.3129"/>
<polygon fill="#191970" stroke="#191970" points="2120.9464,-274.219 2110.835,-271.055 2116.7664,-279.8339 2120.9464,-274.219"/>
</g>
<!-- Node45 -->
<g id="node46" class="node">
<title>Node45</title>
<g id="a_node46"><a xlink:href="../../d6/d31/DetID_8h.html" target="_top" xlink:title="DetectorsCommonDataFormats\l/DetID.h">
<polygon fill="none" stroke="#000000" points="2254.5,-246.5 2254.5,-276.5 2425.5,-276.5 2425.5,-246.5 2254.5,-246.5"/>
<text text-anchor="start" x="2262.5" y="-264.5" font-family="Helvetica,sans-Serif" font-size="10.00" fill="#000000">DetectorsCommonDataFormats</text>
<text text-anchor="middle" x="2340" y="-253.5" font-family="Helvetica,sans-Serif" font-size="10.00" fill="#000000">/DetID.h</text>
</a>
</g>
</g>
<!-- Node42&#45;&gt;Node45 -->
<g id="edge117" class="edge">
<title>Node42&#45;&gt;Node45</title>
<path fill="none" stroke="#191970" d="M2222.1118,-313.4639C2244.0367,-303.7996 2272.7254,-291.154 2296.3119,-280.7572"/>
<polygon fill="#191970" stroke="#191970" points="2298.0007,-283.8379 2305.7395,-276.6017 2295.1772,-277.4325 2298.0007,-283.8379"/>
</g>
<!-- Node42&#45;&gt;Node54 -->
<g id="edge138" class="edge">
<title>Node42&#45;&gt;Node54</title>
<path fill="none" stroke="#191970" d="M2273.584,-314.7723C2278.456,-314.1349 2283.2871,-313.538 2288,-313 2512.8265,-287.3356 2779.8694,-271.7816 2909.1566,-265.192"/>
<polygon fill="#191970" stroke="#191970" points="2909.5433,-268.677 2919.3537,-264.6763 2909.1897,-261.6859 2909.5433,-268.677"/>
</g>
<!-- Node43&#45;&gt;Node22 -->
<g id="edge112" class="edge">
<title>Node43&#45;&gt;Node22</title>
<path fill="none" stroke="#191970" d="M2036.3506,-254.2023C1919.6927,-240.393 1669.6209,-210.7908 1572.1036,-199.2472"/>
<polygon fill="#191970" stroke="#191970" points="1572.4074,-195.7589 1562.0652,-198.059 1571.5844,-202.7103 1572.4074,-195.7589"/>
</g>
<!-- Node44 -->
<g id="node45" class="node">
<title>Node44</title>
<polygon fill="none" stroke="#bfbfbf" points="1992,-185 1992,-204 2038,-204 2038,-185 1992,-185"/>
<text text-anchor="middle" x="2015" y="-192" font-family="Helvetica,sans-Serif" font-size="10.00" fill="#000000">cstdio</text>
</g>
<!-- Node43&#45;&gt;Node44 -->
<g id="edge113" class="edge">
<title>Node43&#45;&gt;Node44</title>
<path fill="none" stroke="#191970" d="M2086.1081,-251.9005C2072.7952,-241.1539 2051.0001,-223.5603 2035.0432,-210.6794"/>
<polygon fill="#191970" stroke="#191970" points="2036.8494,-207.6395 2026.8698,-204.0817 2032.4526,-213.0863 2036.8494,-207.6395"/>
</g>
<!-- Node45&#45;&gt;Node2 -->
<g id="edge119" class="edge">
<title>Node45&#45;&gt;Node2</title>
<path fill="none" stroke="#191970" d="M2271.248,-246.4507C2238.4858,-237.9612 2199.281,-225.8425 2166,-210 2096.4319,-176.884 2096.168,-136.1419 2023,-112 1919.2084,-77.7538 1149.0684,-83.0412 1040,-76 1014.1189,-74.3292 984.8253,-71.5617 963.2825,-69.3611"/>
<polygon fill="#191970" stroke="#191970" points="963.389,-65.8535 953.0811,-68.3024 962.6664,-72.8161 963.389,-65.8535"/>
</g>
<!-- Node45&#45;&gt;Node21 -->
<g id="edge121" class="edge">
<title>Node45&#45;&gt;Node21</title>
<path fill="none" stroke="#191970" d="M2275.8138,-246.4748C2250.5298,-238.4556 2222.2755,-226.6998 2200,-210 2177.0458,-192.7914 2158.8302,-164.5825 2148.476,-146.0254"/>
<polygon fill="#191970" stroke="#191970" points="2151.4856,-144.2317 2143.6732,-137.0751 2145.3175,-147.5415 2151.4856,-144.2317"/>
</g>
<!-- Node45&#45;&gt;Node23 -->
<g id="edge126" class="edge">
<title>Node45&#45;&gt;Node23</title>
<path fill="none" stroke="#191970" d="M2254.2661,-253.4542C2141.099,-242.5721 1948.0205,-223.0283 1878,-210 1872.6639,-209.0071 1867.0997,-207.7906 1861.6126,-206.4797"/>
<polygon fill="#191970" stroke="#191970" points="1862.4355,-203.0778 1851.885,-204.0462 1860.7366,-209.8685 1862.4355,-203.0778"/>
</g>
<!-- Node45&#45;&gt;Node35 -->
<g id="edge118" class="edge">
<title>Node45&#45;&gt;Node35</title>
<path fill="none" stroke="#191970" d="M2425.5672,-252.9424C2490.8685,-245.174 2582.6399,-231.5761 2661,-210 2663.6101,-209.2813 2666.284,-208.4448 2668.9484,-207.5396"/>
<polygon fill="#191970" stroke="#191970" points="2670.2498,-210.7902 2678.4239,-204.0498 2667.8305,-204.2216 2670.2498,-210.7902"/>
</g>
<!-- Node45&#45;&gt;Node40 -->
<g id="edge120" class="edge">
<title>Node45&#45;&gt;Node40</title>
<path fill="none" stroke="#191970" d="M2425.7769,-248.6512C2475.5359,-240.0767 2539.0359,-227.2017 2594,-210 2596.1106,-209.3395 2598.2655,-208.5968 2600.4194,-207.8036"/>
<polygon fill="#191970" stroke="#191970" points="2601.722,-211.0523 2609.7163,-204.0995 2599.1311,-204.5494 2601.722,-211.0523"/>
</g>
<!-- Node46 -->
<g id="node47" class="node">
<title>Node46</title>
<polygon fill="none" stroke="#bfbfbf" points="2535,-118 2535,-137 2585,-137 2585,-118 2535,-118"/>
<text text-anchor="middle" x="2560" y="-125" font-family="Helvetica,sans-Serif" font-size="10.00" fill="#000000">cstdint</text>
</g>
<!-- Node45&#45;&gt;Node46 -->
<g id="edge122" class="edge">
<title>Node45&#45;&gt;Node46</title>
<path fill="none" stroke="#191970" d="M2418.0379,-246.4277C2460.179,-236.9737 2506.8179,-223.9587 2523,-210 2541.8787,-193.7152 2551.5741,-165.8811 2556.2143,-147.097"/>
<polygon fill="#191970" stroke="#191970" points="2559.6525,-147.7584 2558.3935,-137.2387 2552.8175,-146.2475 2559.6525,-147.7584"/>
</g>
<!-- Node47 -->
<g id="node48" class="node">
<title>Node47</title>
<polygon fill="none" stroke="#bfbfbf" points="2208.5,-185 2208.5,-204 2281.5,-204 2281.5,-185 2208.5,-185"/>
<text text-anchor="middle" x="2245" y="-192" font-family="Helvetica,sans-Serif" font-size="10.00" fill="#000000">string_view</text>
</g>
<!-- Node45&#45;&gt;Node47 -->
<g id="edge123" class="edge">
<title>Node45&#45;&gt;Node47</title>
<path fill="none" stroke="#191970" d="M2318.443,-246.2967C2303.0668,-235.4524 2282.4586,-220.9182 2266.9862,-210.006"/>
<polygon fill="#191970" stroke="#191970" points="2268.7374,-206.9582 2258.5481,-204.055 2264.703,-212.6787 2268.7374,-206.9582"/>
</g>
<!-- Node45&#45;&gt;Node48 -->
<g id="edge124" class="edge">
<title>Node45&#45;&gt;Node48</title>
<path fill="none" stroke="#191970" d="M2425.7456,-251.3887C2464.7184,-244.0535 2510.2254,-231.4795 2547,-210 2574.9373,-193.6822 2599.1154,-164.3734 2612.8698,-145.4409"/>
<polygon fill="#191970" stroke="#191970" points="2615.8595,-147.2741 2618.7553,-137.0827 2610.1361,-143.2439 2615.8595,-147.2741"/>
</g>
<!-- Node49 -->
<g id="node50" class="node">
<title>Node49</title>
<polygon fill="none" stroke="#bfbfbf" points="2299.5,-185 2299.5,-204 2368.5,-204 2368.5,-185 2299.5,-185"/>
<text text-anchor="middle" x="2334" y="-192" font-family="Helvetica,sans-Serif" font-size="10.00" fill="#000000">type_traits</text>
</g>
<!-- Node45&#45;&gt;Node49 -->
<g id="edge125" class="edge">
<title>Node45&#45;&gt;Node49</title>
<path fill="none" stroke="#191970" d="M2338.6385,-246.2967C2337.7854,-236.7699 2336.6772,-224.3954 2335.758,-214.1306"/>
<polygon fill="#191970" stroke="#191970" points="2339.2338,-213.7029 2334.8557,-204.055 2332.2617,-214.3273 2339.2338,-213.7029"/>
</g>
<!-- Node50 -->
<g id="node51" class="node">
<title>Node50</title>
<g id="a_node51"><a xlink:href="../../dc/dcd/DataHeader_8h.html" target="_top" xlink:title="Headers/DataHeader.h">
<polygon fill="none" stroke="#000000" points="2386.5,-185 2386.5,-204 2513.5,-204 2513.5,-185 2386.5,-185"/>
<text text-anchor="middle" x="2450" y="-192" font-family="Helvetica,sans-Serif" font-size="10.00" fill="#000000">Headers/DataHeader.h</text>
</a>
</g>
</g>
<!-- Node45&#45;&gt;Node50 -->
<g id="edge127" class="edge">
<title>Node45&#45;&gt;Node50</title>
<path fill="none" stroke="#191970" d="M2364.6861,-246.4639C2382.8102,-235.4247 2407.3209,-220.4954 2425.42,-209.4715"/>
<polygon fill="#191970" stroke="#191970" points="2427.5126,-212.2951 2434.2324,-204.1039 2423.8712,-206.3167 2427.5126,-212.2951"/>
</g>
<!-- Node50&#45;&gt;Node8 -->
<g id="edge129" class="edge">
<title>Node50&#45;&gt;Node8</title>
<path fill="none" stroke="#191970" d="M2411.3413,-184.962C2400.6062,-182.6462 2388.9031,-180.4283 2378,-179 2050.6314,-136.1139 1965.1054,-169.4393 1636,-143 1602.5445,-140.3123 1564.6654,-135.964 1537.0676,-132.556"/>
<polygon fill="#191970" stroke="#191970" points="1537.3813,-129.0681 1527.0245,-131.3014 1536.5134,-136.0141 1537.3813,-129.0681"/>
</g>
<!-- Node50&#45;&gt;Node13 -->
<g id="edge135" class="edge">
<title>Node50&#45;&gt;Node13</title>
<path fill="none" stroke="#191970" d="M2412.1116,-184.9393C2401.1743,-182.5625 2389.1745,-180.3188 2378,-179 2031.2041,-138.0712 1155.9845,-155.3443 807,-143 701.8789,-139.2817 577.6723,-132.7378 518.1931,-129.471"/>
<polygon fill="#191970" stroke="#191970" points="518.3753,-125.9759 508.1976,-128.9194 517.9895,-132.9652 518.3753,-125.9759"/>
</g>
<!-- Node50&#45;&gt;Node21 -->
<g id="edge130" class="edge">
<title>Node50&#45;&gt;Node21</title>
<path fill="none" stroke="#191970" d="M2407.032,-184.9751C2397.4877,-182.9361 2387.4111,-180.8427 2378,-179 2287.6481,-161.3088 2262.0694,-169.8369 2174,-143 2171.8823,-142.3547 2169.7231,-141.6149 2167.5691,-140.8161"/>
<polygon fill="#191970" stroke="#191970" points="2168.8848,-137.5728 2158.303,-137.0464 2166.2469,-144.0568 2168.8848,-137.5728"/>
</g>
<!-- Node50&#45;&gt;Node25 -->
<g id="edge132" class="edge">
<title>Node50&#45;&gt;Node25</title>
<path fill="none" stroke="#191970" d="M2447.7385,-184.8632C2443.0109,-167.0832 2430.2718,-129.3538 2404,-112 2371.6461,-90.6286 2114.0475,-74.0792 2011.1956,-68.2603"/>
<polygon fill="#191970" stroke="#191970" points="2011.3416,-64.7631 2001.1617,-67.699 2010.9505,-71.7522 2011.3416,-64.7631"/>
</g>
<!-- Node50&#45;&gt;Node37 -->
<g id="edge131" class="edge">
<title>Node50&#45;&gt;Node37</title>
<path fill="none" stroke="#191970" d="M2498.5992,-184.9762C2540.8129,-176.0855 2603.2798,-161.4332 2656,-143 2657.6419,-142.4259 2659.3129,-141.8021 2660.9888,-141.1451"/>
<polygon fill="#191970" stroke="#191970" points="2662.6241,-144.2539 2670.4734,-137.1378 2659.8997,-137.8058 2662.6241,-144.2539"/>
</g>
<!-- Node50&#45;&gt;Node46 -->
<g id="edge128" class="edge">
<title>Node50&#45;&gt;Node46</title>
<path fill="none" stroke="#191970" d="M2465.7603,-184.9005C2483.9757,-173.8057 2514.173,-155.4128 2535.4677,-142.4424"/>
<polygon fill="#191970" stroke="#191970" points="2537.5491,-145.2728 2544.2689,-137.0817 2533.9077,-139.2945 2537.5491,-145.2728"/>
</g>
<!-- Node50&#45;&gt;Node48 -->
<g id="edge134" class="edge">
<title>Node50&#45;&gt;Node48</title>
<path fill="none" stroke="#191970" d="M2479.9109,-184.9707C2509.3194,-175.3296 2555.2976,-159.5256 2594,-143 2595.1829,-142.4949 2596.3843,-141.9661 2597.593,-141.4211"/>
<polygon fill="#191970" stroke="#191970" points="2599.2761,-144.4966 2606.812,-137.0494 2596.2768,-138.1717 2599.2761,-144.4966"/>
</g>
<!-- Node51 -->
<g id="node52" class="node">
<title>Node51</title>
<polygon fill="none" stroke="#bfbfbf" points="2451.5,-118 2451.5,-137 2516.5,-137 2516.5,-118 2451.5,-118"/>
<text text-anchor="middle" x="2484" y="-125" font-family="Helvetica,sans-Serif" font-size="10.00" fill="#000000">stdexcept</text>
</g>
<!-- Node50&#45;&gt;Node51 -->
<g id="edge133" class="edge">
<title>Node50&#45;&gt;Node51</title>
<path fill="none" stroke="#191970" d="M2454.8714,-184.9005C2459.9714,-174.8505 2468.1102,-158.8122 2474.49,-146.2403"/>
<polygon fill="#191970" stroke="#191970" points="2477.7334,-147.583 2479.1377,-137.0817 2471.4912,-144.4153 2477.7334,-147.583"/>
</g>
<!-- Node52 -->
<g id="node53" class="node">
<title>Node52</title>
<g id="a_node53"><a xlink:href="../../d7/df8/Types_8h.html" target="_top" xlink:title="MemoryResources/Types.h">
<polygon fill="none" stroke="#000000" points="2183,-118 2183,-137 2329,-137 2329,-118 2183,-118"/>
<text text-anchor="middle" x="2256" y="-125" font-family="Helvetica,sans-Serif" font-size="10.00" fill="#000000">MemoryResources/Types.h</text>
</a>
</g>
</g>
<!-- Node50&#45;&gt;Node52 -->
<g id="edge136" class="edge">
<title>Node50&#45;&gt;Node52</title>
<path fill="none" stroke="#191970" d="M2422.2045,-184.9005C2388.3504,-173.2086 2331.0293,-153.4122 2293.3453,-140.3976"/>
<polygon fill="#191970" stroke="#191970" points="2294.3387,-137.0379 2283.7439,-137.0817 2292.0535,-143.6544 2294.3387,-137.0379"/>
</g>
<!-- Node53 -->
<g id="node54" class="node">
<title>Node53</title>
<polygon fill="none" stroke="#bfbfbf" points="2347.5,-118 2347.5,-137 2394.5,-137 2394.5,-118 2347.5,-118"/>
<text text-anchor="middle" x="2371" y="-125" font-family="Helvetica,sans-Serif" font-size="10.00" fill="#000000">cerrno</text>
</g>
<!-- Node50&#45;&gt;Node53 -->
<g id="edge137" class="edge">
<title>Node50&#45;&gt;Node53</title>
<path fill="none" stroke="#191970" d="M2438.6812,-184.9005C2426.0099,-174.1539 2405.2652,-156.5603 2390.0773,-143.6794"/>
<polygon fill="#191970" stroke="#191970" points="2392.1882,-140.8805 2382.2978,-137.0817 2387.6605,-146.2191 2392.1882,-140.8805"/>
</g>
<!-- Node54&#45;&gt;Node7 -->
<g id="edge146" class="edge">
<title>Node54&#45;&gt;Node7</title>
<path fill="none" stroke="#191970" d="M2919.297,-258.3271C2701.341,-248.0732 2029.3381,-216.1357 1983,-210 1970.7451,-208.3773 1957.4776,-205.7696 1945.7101,-203.1523"/>
<polygon fill="#191970" stroke="#191970" points="1946.3487,-199.7078 1935.8183,-200.8743 1944.7778,-206.5293 1946.3487,-199.7078"/>
</g>
<!-- Node54&#45;&gt;Node35 -->
<g id="edge144" class="edge">
<title>Node54&#45;&gt;Node35</title>
<path fill="none" stroke="#191970" d="M2926.6415,-251.9871C2875.9683,-243.2845 2801.9675,-228.8948 2739,-210 2736.5575,-209.2671 2734.0539,-208.4448 2731.5515,-207.5714"/>
<polygon fill="#191970" stroke="#191970" points="2732.6311,-204.2387 2722.0383,-204.0296 2730.1887,-210.7988 2732.6311,-204.2387"/>
</g>
<!-- Node55 -->
<g id="node56" class="node">
<title>Node55</title>
<polygon fill="none" stroke="#bfbfbf" points="3192,-179.5 3192,-209.5 3356,-209.5 3356,-179.5 3192,-179.5"/>
<text text-anchor="start" x="3200" y="-197.5" font-family="Helvetica,sans-Serif" font-size="10.00" fill="#000000">Math/GenVector/Displacement</text>
<text text-anchor="middle" x="3274" y="-186.5" font-family="Helvetica,sans-Serif" font-size="10.00" fill="#000000">Vector3D.h</text>
</g>
<!-- Node54&#45;&gt;Node55 -->
<g id="edge139" class="edge">
<title>Node54&#45;&gt;Node55</title>
<path fill="none" stroke="#191970" d="M3027.8153,-251.9717C3072.3962,-241.5643 3144.7438,-224.6748 3199.5003,-211.8919"/>
<polygon fill="#191970" stroke="#191970" points="3200.5667,-215.2371 3209.5092,-209.5553 3198.9753,-208.4204 3200.5667,-215.2371"/>
</g>
<!-- Node56 -->
<g id="node57" class="node">
<title>Node56</title>
<polygon fill="none" stroke="#bfbfbf" points="3374.5,-185 3374.5,-204 3563.5,-204 3563.5,-185 3374.5,-185"/>
<text text-anchor="middle" x="3469" y="-192" font-family="Helvetica,sans-Serif" font-size="10.00" fill="#000000">Math/GenVector/PositionVector3D.h</text>
</g>
<!-- Node54&#45;&gt;Node56 -->
<g id="edge140" class="edge">
<title>Node54&#45;&gt;Node56</title>
<path fill="none" stroke="#191970" d="M3054.6354,-252.5452C3130.2948,-242.4674 3256.4855,-225.478 3365,-210 3375.066,-208.5642 3385.675,-207.0195 3396.1143,-205.4812"/>
<polygon fill="#191970" stroke="#191970" points="3396.6675,-208.9375 3406.0477,-204.012 3395.6432,-202.0128 3396.6675,-208.9375"/>
</g>
<!-- Node57 -->
<g id="node58" class="node">
<title>Node57</title>
<polygon fill="none" stroke="#bfbfbf" points="3582,-185 3582,-204 3742,-204 3742,-185 3582,-185"/>
<text text-anchor="middle" x="3662" y="-192" font-family="Helvetica,sans-Serif" font-size="10.00" fill="#000000">Math/GenVector/Rotation3D.h</text>
</g>
<!-- Node54&#45;&gt;Node57 -->
<g id="edge141" class="edge">
<title>Node54&#45;&gt;Node57</title>
<path fill="none" stroke="#191970" d="M3054.8781,-257.4102C3164.2588,-250.3988 3386.1644,-234.4346 3573,-210 3582.3491,-208.7773 3592.2154,-207.2741 3601.8402,-205.6896"/>
<polygon fill="#191970" stroke="#191970" points="3602.4729,-209.1324 3611.7511,-204.0172 3601.3082,-202.2299 3602.4729,-209.1324"/>
</g>
<!-- Node58 -->
<g id="node59" class="node">
<title>Node58</title>
<polygon fill="none" stroke="#bfbfbf" points="3760,-185 3760,-204 3928,-204 3928,-185 3760,-185"/>
<text text-anchor="middle" x="3844" y="-192" font-family="Helvetica,sans-Serif" font-size="10.00" fill="#000000">Math/GenVector/Transform3D.h</text>
</g>
<!-- Node54&#45;&gt;Node58 -->
<g id="edge142" class="edge">
<title>Node54&#45;&gt;Node58</title>
<path fill="none" stroke="#191970" d="M3054.6552,-259.1637C3188.1711,-254.0621 3494.8366,-239.9081 3751,-210 3761.2261,-208.8061 3772.0413,-207.2631 3782.5388,-205.6148"/>
<polygon fill="#191970" stroke="#191970" points="3783.1623,-209.0595 3792.4764,-204.01 3782.0463,-202.149 3783.1623,-209.0595"/>
</g>
<!-- Node59 -->
<g id="node60" class="node">
<title>Node59</title>
<polygon fill="none" stroke="#bfbfbf" points="2900.5,-185 2900.5,-204 3073.5,-204 3073.5,-185 2900.5,-185"/>
<text text-anchor="middle" x="2987" y="-192" font-family="Helvetica,sans-Serif" font-size="10.00" fill="#000000">Math/GenVector/Translation3D.h</text>
</g>
<!-- Node54&#45;&gt;Node59 -->
<g id="edge143" class="edge">
<title>Node54&#45;&gt;Node59</title>
<path fill="none" stroke="#191970" d="M2987,-251.9005C2987,-242.149 2987,-226.7597 2987,-214.3695"/>
<polygon fill="#191970" stroke="#191970" points="2990.5001,-214.0816 2987,-204.0817 2983.5001,-214.0817 2990.5001,-214.0816"/>
</g>
<!-- Node60 -->
<g id="node61" class="node">
<title>Node60</title>
<polygon fill="none" stroke="#bfbfbf" points="3092,-185 3092,-204 3174,-204 3174,-185 3092,-185"/>
<text text-anchor="middle" x="3133" y="-192" font-family="Helvetica,sans-Serif" font-size="10.00" fill="#000000">TGeoMatrix.h</text>
</g>
<!-- Node54&#45;&gt;Node60 -->
<g id="edge145" class="edge">
<title>Node54&#45;&gt;Node60</title>
<path fill="none" stroke="#191970" d="M3007.9182,-251.9005C3032.7456,-240.5072 3074.3433,-221.4178 3102.6942,-208.4075"/>
<polygon fill="#191970" stroke="#191970" points="3104.4917,-211.4336 3112.1206,-204.0817 3101.5721,-205.0715 3104.4917,-211.4336"/>
</g>
<!-- Node61 -->
<g id="node62" class="node">
<title>Node61</title>
<g id="a_node62"><a xlink:href="../../d2/dd0/Cartesian2D_8h.html" target="_top" xlink:title="MathUtils/Cartesian2D.h">
<polygon fill="none" stroke="#000000" points="2747.5,-185 2747.5,-204 2882.5,-204 2882.5,-185 2747.5,-185"/>
<text text-anchor="middle" x="2815" y="-192" font-family="Helvetica,sans-Serif" font-size="10.00" fill="#000000">MathUtils/Cartesian2D.h</text>
</a>
</g>
</g>
<!-- Node54&#45;&gt;Node61 -->
<g id="edge147" class="edge">
<title>Node54&#45;&gt;Node61</title>
<path fill="none" stroke="#191970" d="M2962.3566,-251.9005C2932.5971,-240.3082 2882.3844,-220.7486 2848.967,-207.7313"/>
<polygon fill="#191970" stroke="#191970" points="2850.1861,-204.4501 2839.5977,-204.0817 2847.6453,-210.9727 2850.1861,-204.4501"/>
</g>
<!-- Node62 -->
<g id="node63" class="node">
<title>Node62</title>
<polygon fill="none" stroke="#bfbfbf" points="2733,-112.5 2733,-142.5 2897,-142.5 2897,-112.5 2733,-112.5"/>
<text text-anchor="start" x="2741" y="-130.5" font-family="Helvetica,sans-Serif" font-size="10.00" fill="#000000">Math/GenVector/Displacement</text>
<text text-anchor="middle" x="2815" y="-119.5" font-family="Helvetica,sans-Serif" font-size="10.00" fill="#000000">Vector2D.h</text>
</g>
<!-- Node61&#45;&gt;Node62 -->
<g id="edge148" class="edge">
<title>Node61&#45;&gt;Node62</title>
<path fill="none" stroke="#191970" d="M2815,-184.9005C2815,-176.5099 2815,-163.9451 2815,-152.7085"/>
<polygon fill="#191970" stroke="#191970" points="2818.5001,-152.5217 2815,-142.5218 2811.5001,-152.5218 2818.5001,-152.5217"/>
</g>
<!-- Node63 -->
<g id="node64" class="node">
<title>Node63</title>
<polygon fill="none" stroke="#bfbfbf" points="2915.5,-118 2915.5,-137 3104.5,-137 3104.5,-118 2915.5,-118"/>
<text text-anchor="middle" x="3010" y="-125" font-family="Helvetica,sans-Serif" font-size="10.00" fill="#000000">Math/GenVector/PositionVector2D.h</text>
</g>
<!-- Node61&#45;&gt;Node63 -->
<g id="edge149" class="edge">
<title>Node61&#45;&gt;Node63</title>
<path fill="none" stroke="#191970" d="M2842.9387,-184.9005C2876.9674,-173.2086 2934.5839,-153.4122 2972.4622,-140.3976"/>
<polygon fill="#191970" stroke="#191970" points="2973.7931,-143.6412 2982.1131,-137.0817 2971.5184,-137.0211 2973.7931,-143.6412"/>
</g>
<!-- Node64&#45;&gt;Node34 -->
<g id="edge155" class="edge">
<title>Node64&#45;&gt;Node34</title>
<path fill="none" stroke="#191970" d="M2427.4939,-385.9025C2442.7544,-376.149 2466.4132,-360.2078 2485,-344 2508.7302,-323.3072 2533.0103,-296.0836 2547.7987,-278.683"/>
<polygon fill="#191970" stroke="#191970" points="2550.4994,-280.9096 2554.252,-271.0016 2545.1397,-276.4068 2550.4994,-280.9096"/>
</g>
</g>
</svg>
