<?xml version="1.0" encoding="UTF-8" standalone="no"?>
<!DOCTYPE svg PUBLIC "-//W3C//DTD SVG 1.1//EN"
 "http://www.w3.org/Graphics/SVG/1.1/DTD/svg11.dtd">
<!-- Generated by graphviz version 2.40.1 (20161225.0304)
 -->
<!-- Title: /home/travis/build/AliceO2Group/AliceO2/Detectors/ITSMFT/MFT/tracking/src/TrackParamMFT.cxx Pages: 1 -->
<svg width="2240pt" height="620pt"
 viewBox="0.00 0.00 2240.00 620.00" xmlns="http://www.w3.org/2000/svg" xmlns:xlink="http://www.w3.org/1999/xlink">
<g id="graph0" class="graph" transform="scale(1 1) rotate(0) translate(4 616)">
<title>/home/travis/build/AliceO2Group/AliceO2/Detectors/ITSMFT/MFT/tracking/src/TrackParamMFT.cxx</title>
<!-- Node0 -->
<g id="node1" class="node">
<title>Node0</title>
<polygon fill="#bfbfbf" stroke="#000000" points="1987.5,-559.5 1987.5,-611.5 2161.5,-611.5 2161.5,-559.5 1987.5,-559.5"/>
<text text-anchor="start" x="1995.5" y="-599.5" font-family="Helvetica,sans-Serif" font-size="10.00" fill="#000000">/home/travis/build</text>
<text text-anchor="start" x="1995.5" y="-588.5" font-family="Helvetica,sans-Serif" font-size="10.00" fill="#000000">/AliceO2Group/AliceO2</text>
<text text-anchor="start" x="1995.5" y="-577.5" font-family="Helvetica,sans-Serif" font-size="10.00" fill="#000000">/Detectors/ITSMFT/MFT</text>
<text text-anchor="middle" x="2074.5" y="-566.5" font-family="Helvetica,sans-Serif" font-size="10.00" fill="#000000">/tracking/src/TrackParamMFT.cxx</text>
</g>
<!-- Node1 -->
<g id="node2" class="node">
<title>Node1</title>
<g id="a_node2"><a xlink:href="../../d3/d5b/TrackParamMFT_8h.html" target="_top" xlink:title="Definition of the MFT track parameters for internal use. ">
<polygon fill="none" stroke="#000000" points="1537,-503.5 1537,-522.5 1700,-522.5 1700,-503.5 1537,-503.5"/>
<text text-anchor="middle" x="1618.5" y="-510.5" font-family="Helvetica,sans-Serif" font-size="10.00" fill="#000000">MFTTracking/TrackParamMFT.h</text>
</a>
</g>
</g>
<!-- Node0&#45;&gt;Node1 -->
<g id="edge1" class="edge">
<title>Node0&#45;&gt;Node1</title>
<path fill="none" stroke="#191970" d="M1987.3875,-571.6499C1900.4968,-557.835 1768.7084,-536.8818 1688.4205,-524.1168"/>
<polygon fill="#191970" stroke="#191970" points="1688.8346,-520.6387 1678.409,-522.525 1687.7354,-527.5519 1688.8346,-520.6387"/>
</g>
<!-- Node3 -->
<g id="node4" class="node">
<title>Node3</title>
<polygon fill="none" stroke="#bfbfbf" points="1446.5,-447.5 1446.5,-466.5 1502.5,-466.5 1502.5,-447.5 1446.5,-447.5"/>
<text text-anchor="middle" x="1474.5" y="-454.5" font-family="Helvetica,sans-Serif" font-size="10.00" fill="#000000">TMath.h</text>
</g>
<!-- Node0&#45;&gt;Node3 -->
<g id="edge67" class="edge">
<title>Node0&#45;&gt;Node3</title>
<path fill="none" stroke="#191970" d="M1987.306,-583.5269C1853.3951,-579.175 1604.5028,-565.4665 1527.5,-523 1508.0768,-512.2883 1493.1332,-491.2644 1484.1388,-475.8121"/>
<polygon fill="#191970" stroke="#191970" points="1486.9783,-473.7109 1479.1001,-466.6267 1480.841,-477.0775 1486.9783,-473.7109"/>
</g>
<!-- Node8 -->
<g id="node9" class="node">
<title>Node8</title>
<polygon fill="none" stroke="#bfbfbf" points="1908.5,-319 1908.5,-338 1964.5,-338 1964.5,-319 1908.5,-319"/>
<text text-anchor="middle" x="1936.5" y="-326" font-family="Helvetica,sans-Serif" font-size="10.00" fill="#000000">iomanip</text>
</g>
<!-- Node0&#45;&gt;Node8 -->
<g id="edge65" class="edge">
<title>Node0&#45;&gt;Node8</title>
<path fill="none" stroke="#191970" d="M2060.5084,-559.4432C2032.6057,-507.4795 1970.6468,-392.0923 1946.4522,-347.0341"/>
<polygon fill="#191970" stroke="#191970" points="1949.4561,-345.2299 1941.6417,-338.0755 1943.2889,-348.5415 1949.4561,-345.2299"/>
</g>
<!-- Node13 -->
<g id="node14" class="node">
<title>Node13</title>
<polygon fill="none" stroke="#bfbfbf" points="2115.5,-185 2115.5,-204 2175.5,-204 2175.5,-185 2115.5,-185"/>
<text text-anchor="middle" x="2145.5" y="-192" font-family="Helvetica,sans-Serif" font-size="10.00" fill="#000000">iostream</text>
</g>
<!-- Node0&#45;&gt;Node13 -->
<g id="edge66" class="edge">
<title>Node0&#45;&gt;Node13</title>
<path fill="none" stroke="#191970" d="M2079.2688,-559.2383C2092.6143,-485.7437 2130.1316,-279.1343 2141.9132,-214.2528"/>
<polygon fill="#191970" stroke="#191970" points="2145.4031,-214.6228 2143.7462,-204.1584 2138.5158,-213.3721 2145.4031,-214.6228"/>
</g>
<!-- Node51 -->
<g id="node52" class="node">
<title>Node51</title>
<polygon fill="none" stroke="#bfbfbf" points="2141,-503.5 2141,-522.5 2232,-522.5 2232,-503.5 2141,-503.5"/>
<text text-anchor="middle" x="2186.5" y="-510.5" font-family="Helvetica,sans-Serif" font-size="10.00" fill="#000000">FairMQLogger.h</text>
</g>
<!-- Node0&#45;&gt;Node51 -->
<g id="edge68" class="edge">
<title>Node0&#45;&gt;Node51</title>
<path fill="none" stroke="#191970" d="M2114.9346,-559.3258C2131.1768,-548.8119 2149.3167,-537.0696 2163.2694,-528.0377"/>
<polygon fill="#191970" stroke="#191970" points="2165.2788,-530.9063 2171.7716,-522.534 2161.475,-525.03 2165.2788,-530.9063"/>
</g>
<!-- Node2 -->
<g id="node3" class="node">
<title>Node2</title>
<polygon fill="none" stroke="#bfbfbf" points="1520.5,-447.5 1520.5,-466.5 1590.5,-466.5 1590.5,-447.5 1520.5,-447.5"/>
<text text-anchor="middle" x="1555.5" y="-454.5" font-family="Helvetica,sans-Serif" font-size="10.00" fill="#000000">TMatrixD.h</text>
</g>
<!-- Node1&#45;&gt;Node2 -->
<g id="edge2" class="edge">
<title>Node1&#45;&gt;Node2</title>
<path fill="none" stroke="#191970" d="M1607.5262,-503.2455C1598.3118,-495.0549 1584.9468,-483.1749 1574.0703,-473.5069"/>
<polygon fill="#191970" stroke="#191970" points="1576.1474,-470.6704 1566.348,-466.6427 1571.4968,-475.9023 1576.1474,-470.6704"/>
</g>
<!-- Node1&#45;&gt;Node3 -->
<g id="edge3" class="edge">
<title>Node1&#45;&gt;Node3</title>
<path fill="none" stroke="#191970" d="M1593.7455,-503.3733C1570.2151,-494.2226 1534.6313,-480.3844 1508.4574,-470.2057"/>
<polygon fill="#191970" stroke="#191970" points="1509.5201,-466.8636 1498.9315,-466.5011 1506.9829,-473.3877 1509.5201,-466.8636"/>
</g>
<!-- Node4 -->
<g id="node5" class="node">
<title>Node4</title>
<g id="a_node5"><a xlink:href="../../d1/d62/DataFormats_2Detectors_2ITSMFT_2common_2include_2DataFormatsITSMFT_2Cluster_8h.html" target="_top" xlink:title="DataFormatsITSMFT/Cluster.h">
<polygon fill="none" stroke="#000000" points="1646.5,-447.5 1646.5,-466.5 1806.5,-466.5 1806.5,-447.5 1646.5,-447.5"/>
<text text-anchor="middle" x="1726.5" y="-454.5" font-family="Helvetica,sans-Serif" font-size="10.00" fill="#000000">DataFormatsITSMFT/Cluster.h</text>
</a>
</g>
</g>
<!-- Node1&#45;&gt;Node4 -->
<g id="edge4" class="edge">
<title>Node1&#45;&gt;Node4</title>
<path fill="none" stroke="#191970" d="M1637.3122,-503.2455C1654.3473,-494.4125 1679.6575,-481.2887 1698.9681,-471.2758"/>
<polygon fill="#191970" stroke="#191970" points="1700.637,-474.353 1707.9034,-466.6427 1697.4147,-468.1388 1700.637,-474.353"/>
</g>
<!-- Node50 -->
<g id="node51" class="node">
<title>Node50</title>
<g id="a_node51"><a xlink:href="../../dc/de5/Detectors_2ITSMFT_2MFT_2base_2include_2MFTBase_2Constants_8h.html" target="_top" xlink:title="MFTBase/Constants.h">
<polygon fill="none" stroke="#000000" points="1233,-386 1233,-405 1354,-405 1354,-386 1233,-386"/>
<text text-anchor="middle" x="1293.5" y="-393" font-family="Helvetica,sans-Serif" font-size="10.00" fill="#000000">MFTBase/Constants.h</text>
</a>
</g>
</g>
<!-- Node1&#45;&gt;Node50 -->
<g id="edge63" class="edge">
<title>Node1&#45;&gt;Node50</title>
<path fill="none" stroke="#191970" d="M1618.7137,-503.266C1618.4637,-488.7121 1615.6911,-461.4494 1599.5,-447 1595.0976,-443.0712 1453.3262,-420.3876 1364.3221,-406.4678"/>
<polygon fill="#191970" stroke="#191970" points="1364.6979,-402.9841 1354.2776,-404.899 1363.6177,-409.9003 1364.6979,-402.9841"/>
</g>
<!-- Node5 -->
<g id="node6" class="node">
<title>Node5</title>
<g id="a_node6"><a xlink:href="../../d4/de2/BaseCluster_8h.html" target="_top" xlink:title="ReconstructionDataFormats\l/BaseCluster.h">
<polygon fill="none" stroke="#000000" points="1404.5,-380.5 1404.5,-410.5 1556.5,-410.5 1556.5,-380.5 1404.5,-380.5"/>
<text text-anchor="start" x="1412.5" y="-398.5" font-family="Helvetica,sans-Serif" font-size="10.00" fill="#000000">ReconstructionDataFormats</text>
<text text-anchor="middle" x="1480.5" y="-387.5" font-family="Helvetica,sans-Serif" font-size="10.00" fill="#000000">/BaseCluster.h</text>
</a>
</g>
</g>
<!-- Node4&#45;&gt;Node5 -->
<g id="edge5" class="edge">
<title>Node4&#45;&gt;Node5</title>
<path fill="none" stroke="#191970" d="M1688.3324,-447.4581C1651.6964,-438.2991 1595.4832,-424.2458 1550.7523,-413.0631"/>
<polygon fill="#191970" stroke="#191970" points="1551.364,-409.6084 1540.8137,-410.5784 1549.6662,-416.3994 1551.364,-409.6084"/>
</g>
<!-- Node6 -->
<g id="node7" class="node">
<title>Node6</title>
<polygon fill="none" stroke="#bfbfbf" points="1648,-319 1648,-338 1711,-338 1711,-319 1648,-319"/>
<text text-anchor="middle" x="1679.5" y="-326" font-family="Helvetica,sans-Serif" font-size="10.00" fill="#000000">TObject.h</text>
</g>
<!-- Node5&#45;&gt;Node6 -->
<g id="edge6" class="edge">
<title>Node5&#45;&gt;Node6</title>
<path fill="none" stroke="#191970" d="M1528.751,-380.4118C1560.1398,-370.4392 1601.8945,-356.8773 1638.5,-344 1640.741,-343.2116 1643.0452,-342.385 1645.3638,-341.5413"/>
<polygon fill="#191970" stroke="#191970" points="1646.6882,-344.7832 1654.8517,-338.0298 1644.2585,-338.2184 1646.6882,-344.7832"/>
</g>
<!-- Node7 -->
<g id="node8" class="node">
<title>Node7</title>
<polygon fill="none" stroke="#bfbfbf" points="1343.5,-185 1343.5,-204 1387.5,-204 1387.5,-185 1343.5,-185"/>
<text text-anchor="middle" x="1365.5" y="-192" font-family="Helvetica,sans-Serif" font-size="10.00" fill="#000000">bitset</text>
</g>
<!-- Node5&#45;&gt;Node7 -->
<g id="edge7" class="edge">
<title>Node5&#45;&gt;Node7</title>
<path fill="none" stroke="#191970" d="M1464.217,-380.2873C1442.638,-359.1888 1404.9208,-318.8865 1384.5,-277 1374.6725,-256.8423 1369.8103,-231.4068 1367.4856,-214.1452"/>
<polygon fill="#191970" stroke="#191970" points="1370.9501,-213.6386 1366.2977,-204.1199 1363.9988,-214.4623 1370.9501,-213.6386"/>
</g>
<!-- Node5&#45;&gt;Node8 -->
<g id="edge8" class="edge">
<title>Node5&#45;&gt;Node8</title>
<path fill="none" stroke="#191970" d="M1556.5674,-384.3234C1655.1879,-369.8331 1823.4095,-345.1164 1898.4334,-334.0931"/>
<polygon fill="#191970" stroke="#191970" points="1898.9992,-337.5477 1908.3841,-332.6311 1897.9815,-330.622 1898.9992,-337.5477"/>
</g>
<!-- Node9 -->
<g id="node10" class="node">
<title>Node9</title>
<polygon fill="none" stroke="#bfbfbf" points="1314,-319 1314,-338 1345,-338 1345,-319 1314,-319"/>
<text text-anchor="middle" x="1329.5" y="-326" font-family="Helvetica,sans-Serif" font-size="10.00" fill="#000000">ios</text>
</g>
<!-- Node5&#45;&gt;Node9 -->
<g id="edge9" class="edge">
<title>Node5&#45;&gt;Node9</title>
<path fill="none" stroke="#191970" d="M1443.1126,-380.4308C1419.0384,-370.5208 1387.1836,-357.0209 1359.5,-344 1357.8953,-343.2452 1356.2509,-342.4524 1354.5986,-341.641"/>
<polygon fill="#191970" stroke="#191970" points="1355.7747,-338.3139 1345.2709,-336.9277 1352.6177,-344.5616 1355.7747,-338.3139"/>
</g>
<!-- Node10 -->
<g id="node11" class="node">
<title>Node10</title>
<polygon fill="none" stroke="#bfbfbf" points="0,-185 0,-204 49,-204 49,-185 0,-185"/>
<text text-anchor="middle" x="24.5" y="-192" font-family="Helvetica,sans-Serif" font-size="10.00" fill="#000000">iosfwd</text>
</g>
<!-- Node5&#45;&gt;Node10 -->
<g id="edge10" class="edge">
<title>Node5&#45;&gt;Node10</title>
<path fill="none" stroke="#191970" d="M1404.3303,-385.4836C1390.4144,-383.6568 1376.0217,-381.7695 1362.5,-380 782.9812,-304.163 620.4101,-370.7805 58.5,-210 56.5354,-209.4379 54.5394,-208.7794 52.5497,-208.0568"/>
<polygon fill="#191970" stroke="#191970" points="53.4052,-204.6243 42.8254,-204.0586 50.7432,-211.0984 53.4052,-204.6243"/>
</g>
<!-- Node11 -->
<g id="node12" class="node">
<title>Node11</title>
<g id="a_node12"><a xlink:href="../../d4/d20/DetMatrixCache_8h.html" target="_top" xlink:title="DetectorsCommonDataFormats\l/DetMatrixCache.h">
<polygon fill="none" stroke="#000000" points="1459,-313.5 1459,-343.5 1630,-343.5 1630,-313.5 1459,-313.5"/>
<text text-anchor="start" x="1467" y="-331.5" font-family="Helvetica,sans-Serif" font-size="10.00" fill="#000000">DetectorsCommonDataFormats</text>
<text text-anchor="middle" x="1544.5" y="-320.5" font-family="Helvetica,sans-Serif" font-size="10.00" fill="#000000">/DetMatrixCache.h</text>
</a>
</g>
</g>
<!-- Node5&#45;&gt;Node11 -->
<g id="edge11" class="edge">
<title>Node5&#45;&gt;Node11</title>
<path fill="none" stroke="#191970" d="M1495.0226,-380.2967C1503.2872,-371.6446 1513.7955,-360.6438 1523.0002,-351.0076"/>
<polygon fill="#191970" stroke="#191970" points="1525.6584,-353.2919 1530.0349,-343.6432 1520.5966,-348.4567 1525.6584,-353.2919"/>
</g>
<!-- Node40 -->
<g id="node41" class="node">
<title>Node40</title>
<g id="a_node41"><a xlink:href="../../dd/d76/Cartesian3D_8h.html" target="_top" xlink:title="MathUtils/Cartesian3D.h">
<polygon fill="none" stroke="#000000" points="779,-252 779,-271 914,-271 914,-252 779,-252"/>
<text text-anchor="middle" x="846.5" y="-259" font-family="Helvetica,sans-Serif" font-size="10.00" fill="#000000">MathUtils/Cartesian3D.h</text>
</a>
</g>
</g>
<!-- Node5&#45;&gt;Node40 -->
<g id="edge62" class="edge">
<title>Node5&#45;&gt;Node40</title>
<path fill="none" stroke="#191970" d="M1409.3113,-380.4538C1281.6674,-353.4754 1016.485,-297.4274 901.5768,-273.1408"/>
<polygon fill="#191970" stroke="#191970" points="902.0988,-269.6739 891.5912,-271.0303 900.6512,-276.5226 902.0988,-269.6739"/>
</g>
<!-- Node12 -->
<g id="node13" class="node">
<title>Node12</title>
<g id="a_node13"><a xlink:href="../../df/d5b/GPUCommonLogger_8h.html" target="_top" xlink:title="GPUCommonLogger.h">
<polygon fill="none" stroke="#000000" points="1999,-252 1999,-271 2122,-271 2122,-252 1999,-252"/>
<text text-anchor="middle" x="2060.5" y="-259" font-family="Helvetica,sans-Serif" font-size="10.00" fill="#000000">GPUCommonLogger.h</text>
</a>
</g>
</g>
<!-- Node11&#45;&gt;Node12 -->
<g id="edge12" class="edge">
<title>Node11&#45;&gt;Node12</title>
<path fill="none" stroke="#191970" d="M1630.0248,-314.1749C1632.8821,-313.7674 1635.7133,-313.3744 1638.5,-313 1791.7312,-292.4137 1831.6848,-300.4758 1984.5,-277 1991.9962,-275.8484 1999.8725,-274.4533 2007.5988,-272.9776"/>
<polygon fill="#191970" stroke="#191970" points="2008.4887,-276.3697 2017.6249,-271.0049 2007.1373,-269.5014 2008.4887,-276.3697"/>
</g>
<!-- Node15 -->
<g id="node16" class="node">
<title>Node15</title>
<g id="a_node16"><a xlink:href="../../d2/d45/GPUCommonRtypes_8h.html" target="_top" xlink:title="GPUCommonRtypes.h">
<polygon fill="none" stroke="#000000" points="1394,-252 1394,-271 1519,-271 1519,-252 1394,-252"/>
<text text-anchor="middle" x="1456.5" y="-259" font-family="Helvetica,sans-Serif" font-size="10.00" fill="#000000">GPUCommonRtypes.h</text>
</a>
</g>
</g>
<!-- Node11&#45;&gt;Node15 -->
<g id="edge15" class="edge">
<title>Node11&#45;&gt;Node15</title>
<path fill="none" stroke="#191970" d="M1524.5314,-313.2967C1510.4213,-302.5537 1491.5549,-288.1895 1477.2692,-277.3129"/>
<polygon fill="#191970" stroke="#191970" points="1479.1264,-274.328 1469.0498,-271.055 1474.886,-279.8975 1479.1264,-274.328"/>
</g>
<!-- Node17 -->
<g id="node18" class="node">
<title>Node17</title>
<polygon fill="none" stroke="#bfbfbf" points="2132.5,-118 2132.5,-137 2174.5,-137 2174.5,-118 2132.5,-118"/>
<text text-anchor="middle" x="2153.5" y="-125" font-family="Helvetica,sans-Serif" font-size="10.00" fill="#000000">array</text>
</g>
<!-- Node11&#45;&gt;Node17 -->
<g id="edge17" class="edge">
<title>Node11&#45;&gt;Node17</title>
<path fill="none" stroke="#191970" d="M1622.3243,-313.4989C1668.786,-304.0696 1728.8154,-291.0558 1781.5,-277 1876.5668,-251.6369 1905.1103,-255.2108 1992.5,-210 2012.7901,-199.503 2013.748,-190.4776 2033.5,-179 2062.4433,-162.1816 2097.92,-147.6314 2122.7645,-138.328"/>
<polygon fill="#191970" stroke="#191970" points="2124.2068,-141.5268 2132.3833,-134.7892 2121.7898,-134.9573 2124.2068,-141.5268"/>
</g>
<!-- Node18 -->
<g id="node19" class="node">
<title>Node18</title>
<polygon fill="none" stroke="#bfbfbf" points="1537,-252 1537,-271 1584,-271 1584,-252 1537,-252"/>
<text text-anchor="middle" x="1560.5" y="-259" font-family="Helvetica,sans-Serif" font-size="10.00" fill="#000000">vector</text>
</g>
<!-- Node11&#45;&gt;Node18 -->
<g id="edge18" class="edge">
<title>Node11&#45;&gt;Node18</title>
<path fill="none" stroke="#191970" d="M1548.1306,-313.2967C1550.4299,-303.6685 1553.4238,-291.1318 1555.8901,-280.8038"/>
<polygon fill="#191970" stroke="#191970" points="1559.2997,-281.5945 1558.2182,-271.055 1552.4911,-279.9685 1559.2997,-281.5945"/>
</g>
<!-- Node19 -->
<g id="node20" class="node">
<title>Node19</title>
<g id="a_node20"><a xlink:href="../../d6/d31/DetID_8h.html" target="_top" xlink:title="DetectorsCommonDataFormats\l/DetID.h">
<polygon fill="none" stroke="#000000" points="1602,-246.5 1602,-276.5 1773,-276.5 1773,-246.5 1602,-246.5"/>
<text text-anchor="start" x="1610" y="-264.5" font-family="Helvetica,sans-Serif" font-size="10.00" fill="#000000">DetectorsCommonDataFormats</text>
<text text-anchor="middle" x="1687.5" y="-253.5" font-family="Helvetica,sans-Serif" font-size="10.00" fill="#000000">/DetID.h</text>
</a>
</g>
</g>
<!-- Node11&#45;&gt;Node19 -->
<g id="edge19" class="edge">
<title>Node11&#45;&gt;Node19</title>
<path fill="none" stroke="#191970" d="M1576.592,-313.4639C1597.055,-303.8763 1623.7806,-291.3545 1645.8694,-281.0052"/>
<polygon fill="#191970" stroke="#191970" points="1647.45,-284.1299 1655.0204,-276.7177 1644.48,-277.7911 1647.45,-284.1299"/>
</g>
<!-- Node11&#45;&gt;Node40 -->
<g id="edge50" class="edge">
<title>Node11&#45;&gt;Node40</title>
<path fill="none" stroke="#191970" d="M1458.9115,-320.2845C1322.1391,-307.1559 1056.3256,-281.6408 924.5041,-268.9875"/>
<polygon fill="#191970" stroke="#191970" points="924.7676,-265.4968 914.4789,-268.0252 924.0987,-272.4648 924.7676,-265.4968"/>
</g>
<!-- Node12&#45;&gt;Node13 -->
<g id="edge13" class="edge">
<title>Node12&#45;&gt;Node13</title>
<path fill="none" stroke="#191970" d="M2072.6784,-251.9005C2086.4384,-241.0544 2109.0465,-223.2339 2125.4262,-210.3229"/>
<polygon fill="#191970" stroke="#191970" points="2127.6573,-213.0209 2133.3442,-204.0817 2123.3239,-207.5234 2127.6573,-213.0209"/>
</g>
<!-- Node14 -->
<g id="node15" class="node">
<title>Node14</title>
<polygon fill="none" stroke="#bfbfbf" points="2042.5,-185 2042.5,-204 2088.5,-204 2088.5,-185 2042.5,-185"/>
<text text-anchor="middle" x="2065.5" y="-192" font-family="Helvetica,sans-Serif" font-size="10.00" fill="#000000">cstdio</text>
</g>
<!-- Node12&#45;&gt;Node14 -->
<g id="edge14" class="edge">
<title>Node12&#45;&gt;Node14</title>
<path fill="none" stroke="#191970" d="M2061.2164,-251.9005C2061.9441,-242.149 2063.0926,-226.7597 2064.0172,-214.3695"/>
<polygon fill="#191970" stroke="#191970" points="2067.531,-214.3144 2064.785,-204.0817 2060.5504,-213.7934 2067.531,-214.3144"/>
</g>
<!-- Node16 -->
<g id="node17" class="node">
<title>Node16</title>
<polygon fill="none" stroke="#bfbfbf" points="1266,-185 1266,-204 1325,-204 1325,-185 1266,-185"/>
<text text-anchor="middle" x="1295.5" y="-192" font-family="Helvetica,sans-Serif" font-size="10.00" fill="#000000">Rtypes.h</text>
</g>
<!-- Node15&#45;&gt;Node16 -->
<g id="edge16" class="edge">
<title>Node15&#45;&gt;Node16</title>
<path fill="none" stroke="#191970" d="M1433.4326,-251.9005C1405.8154,-240.4077 1359.3804,-221.0838 1328.1037,-208.068"/>
<polygon fill="#191970" stroke="#191970" points="1329.1018,-204.6924 1318.5246,-204.0817 1326.4123,-211.1552 1329.1018,-204.6924"/>
</g>
<!-- Node19&#45;&gt;Node7 -->
<g id="edge22" class="edge">
<title>Node19&#45;&gt;Node7</title>
<path fill="none" stroke="#191970" d="M1601.8358,-246.9576C1519.5731,-232.8972 1406.3335,-213.2522 1396.5,-210 1394.8897,-209.4674 1393.2582,-208.8642 1391.6296,-208.2124"/>
<polygon fill="#191970" stroke="#191970" points="1393.0584,-205.0173 1382.5033,-204.1006 1390.183,-211.3995 1393.0584,-205.0173"/>
</g>
<!-- Node19&#45;&gt;Node16 -->
<g id="edge20" class="edge">
<title>Node19&#45;&gt;Node16</title>
<path fill="none" stroke="#191970" d="M1601.8094,-247.4255C1598.6678,-246.9392 1595.5568,-246.4626 1592.5,-246 1478.0257,-228.6771 1446.4318,-239.5926 1334.5,-210 1331.8827,-209.308 1329.2036,-208.4904 1326.5358,-207.5982"/>
<polygon fill="#191970" stroke="#191970" points="1327.6478,-204.2782 1317.054,-204.1315 1325.2441,-210.8526 1327.6478,-204.2782"/>
</g>
<!-- Node19&#45;&gt;Node17 -->
<g id="edge21" class="edge">
<title>Node19&#45;&gt;Node17</title>
<path fill="none" stroke="#191970" d="M1773.198,-254.4483C1827.4258,-247.7448 1898.0686,-234.8054 1956.5,-210 1978.5197,-200.6522 1979.1638,-189.8174 2000.5,-179 2011.6426,-173.3507 2081.4819,-150.5888 2122.8506,-137.2919"/>
<polygon fill="#191970" stroke="#191970" points="2124.0014,-140.5985 2132.454,-134.2107 2121.8628,-133.9331 2124.0014,-140.5985"/>
</g>
<!-- Node20 -->
<g id="node21" class="node">
<title>Node20</title>
<polygon fill="none" stroke="#bfbfbf" points="1510.5,-118 1510.5,-137 1562.5,-137 1562.5,-118 1510.5,-118"/>
<text text-anchor="middle" x="1536.5" y="-125" font-family="Helvetica,sans-Serif" font-size="10.00" fill="#000000">cassert</text>
</g>
<!-- Node19&#45;&gt;Node20 -->
<g id="edge23" class="edge">
<title>Node19&#45;&gt;Node20</title>
<path fill="none" stroke="#191970" d="M1670.4719,-246.389C1641.8484,-220.988 1584.3342,-169.9489 1554.8485,-143.7828"/>
<polygon fill="#191970" stroke="#191970" points="1557.1253,-141.1238 1547.3226,-137.1042 1552.4791,-146.3595 1557.1253,-141.1238"/>
</g>
<!-- Node21 -->
<g id="node22" class="node">
<title>Node21</title>
<polygon fill="none" stroke="#bfbfbf" points="1580.5,-118 1580.5,-137 1630.5,-137 1630.5,-118 1580.5,-118"/>
<text text-anchor="middle" x="1605.5" y="-125" font-family="Helvetica,sans-Serif" font-size="10.00" fill="#000000">cstdint</text>
</g>
<!-- Node19&#45;&gt;Node21 -->
<g id="edge24" class="edge">
<title>Node19&#45;&gt;Node21</title>
<path fill="none" stroke="#191970" d="M1678.253,-246.389C1663.1076,-221.6393 1633.0676,-172.5495 1616.7253,-145.8438"/>
<polygon fill="#191970" stroke="#191970" points="1619.5823,-143.807 1611.3772,-137.1042 1613.6115,-147.4607 1619.5823,-143.807"/>
</g>
<!-- Node22 -->
<g id="node23" class="node">
<title>Node22</title>
<polygon fill="none" stroke="#bfbfbf" points="1788,-185 1788,-204 1861,-204 1861,-185 1788,-185"/>
<text text-anchor="middle" x="1824.5" y="-192" font-family="Helvetica,sans-Serif" font-size="10.00" fill="#000000">string_view</text>
</g>
<!-- Node19&#45;&gt;Node22 -->
<g id="edge25" class="edge">
<title>Node19&#45;&gt;Node22</title>
<path fill="none" stroke="#191970" d="M1718.2455,-246.4639C1741.4394,-235.1209 1773.0316,-219.6707 1795.7294,-208.5703"/>
<polygon fill="#191970" stroke="#191970" points="1797.4165,-211.6414 1804.8621,-204.1039 1794.3412,-205.3531 1797.4165,-211.6414"/>
</g>
<!-- Node23 -->
<g id="node24" class="node">
<title>Node23</title>
<polygon fill="none" stroke="#bfbfbf" points="1648.5,-118 1648.5,-137 1692.5,-137 1692.5,-118 1648.5,-118"/>
<text text-anchor="middle" x="1670.5" y="-125" font-family="Helvetica,sans-Serif" font-size="10.00" fill="#000000">string</text>
</g>
<!-- Node19&#45;&gt;Node23 -->
<g id="edge26" class="edge">
<title>Node19&#45;&gt;Node23</title>
<path fill="none" stroke="#191970" d="M1677.9113,-246.4025C1672.1936,-236.4813 1665.4838,-222.9794 1662.5,-210 1657.6337,-188.8321 1661.2868,-163.9461 1665.1048,-147.0849"/>
<polygon fill="#191970" stroke="#191970" points="1668.5254,-147.8331 1667.5498,-137.2833 1661.7335,-146.1388 1668.5254,-147.8331"/>
</g>
<!-- Node24 -->
<g id="node25" class="node">
<title>Node24</title>
<polygon fill="none" stroke="#bfbfbf" points="1879,-185 1879,-204 1948,-204 1948,-185 1879,-185"/>
<text text-anchor="middle" x="1913.5" y="-192" font-family="Helvetica,sans-Serif" font-size="10.00" fill="#000000">type_traits</text>
</g>
<!-- Node19&#45;&gt;Node24 -->
<g id="edge27" class="edge">
<title>Node19&#45;&gt;Node24</title>
<path fill="none" stroke="#191970" d="M1744.3403,-246.4052C1780.3727,-236.5925 1827.8707,-223.2079 1869.5,-210 1872.0885,-209.1787 1874.7538,-208.3067 1877.4314,-207.4112"/>
<polygon fill="#191970" stroke="#191970" points="1878.7374,-210.6637 1887.0661,-204.1151 1876.4715,-204.0405 1878.7374,-210.6637"/>
</g>
<!-- Node25 -->
<g id="node26" class="node">
<title>Node25</title>
<g id="a_node26"><a xlink:href="../../d9/d52/Common_2MathUtils_2include_2MathUtils_2Utils_8h.html" target="_top" xlink:title="MathUtils/Utils.h">
<polygon fill="none" stroke="#000000" points="1671.5,-185 1671.5,-204 1769.5,-204 1769.5,-185 1671.5,-185"/>
<text text-anchor="middle" x="1720.5" y="-192" font-family="Helvetica,sans-Serif" font-size="10.00" fill="#000000">MathUtils/Utils.h</text>
</a>
</g>
</g>
<!-- Node19&#45;&gt;Node25 -->
<g id="edge28" class="edge">
<title>Node19&#45;&gt;Node25</title>
<path fill="none" stroke="#191970" d="M1694.9882,-246.2967C1699.8303,-236.4658 1706.1659,-223.6026 1711.312,-213.1545"/>
<polygon fill="#191970" stroke="#191970" points="1714.5151,-214.5724 1715.7938,-204.055 1708.2355,-211.4794 1714.5151,-214.5724"/>
</g>
<!-- Node33 -->
<g id="node34" class="node">
<title>Node33</title>
<g id="a_node34"><a xlink:href="../../dc/dcd/DataHeader_8h.html" target="_top" xlink:title="Headers/DataHeader.h">
<polygon fill="none" stroke="#000000" points="1406,-185 1406,-204 1533,-204 1533,-185 1406,-185"/>
<text text-anchor="middle" x="1469.5" y="-192" font-family="Helvetica,sans-Serif" font-size="10.00" fill="#000000">Headers/DataHeader.h</text>
</a>
</g>
</g>
<!-- Node19&#45;&gt;Node33 -->
<g id="edge39" class="edge">
<title>Node19&#45;&gt;Node33</title>
<path fill="none" stroke="#191970" d="M1638.5765,-246.4639C1599.907,-234.5792 1546.5672,-218.1858 1510.2066,-207.0108"/>
<polygon fill="#191970" stroke="#191970" points="1511.0146,-203.5976 1500.4276,-204.0053 1508.9581,-210.2887 1511.0146,-203.5976"/>
</g>
<!-- Node25&#45;&gt;Node17 -->
<g id="edge29" class="edge">
<title>Node25&#45;&gt;Node17</title>
<path fill="none" stroke="#191970" d="M1752.5094,-184.992C1760.9068,-182.7607 1769.994,-180.577 1778.5,-179 1927.9098,-151.3001 1971.6982,-182.2401 2118.5,-143 2120.6909,-142.4144 2122.9196,-141.7095 2125.1371,-140.9275"/>
<polygon fill="#191970" stroke="#191970" points="2126.6452,-144.0941 2134.6354,-137.1365 2124.0504,-137.5928 2126.6452,-144.0941"/>
</g>
<!-- Node26 -->
<g id="node27" class="node">
<title>Node26</title>
<polygon fill="none" stroke="#bfbfbf" points="1740,-56.5 1740,-75.5 1787,-75.5 1787,-56.5 1740,-56.5"/>
<text text-anchor="middle" x="1763.5" y="-63.5" font-family="Helvetica,sans-Serif" font-size="10.00" fill="#000000">cmath</text>
</g>
<!-- Node25&#45;&gt;Node26 -->
<g id="edge30" class="edge">
<title>Node25&#45;&gt;Node26</title>
<path fill="none" stroke="#191970" d="M1721.941,-184.6138C1724.4166,-168.8906 1730.1347,-137.3707 1739.5,-112 1742.9976,-102.525 1748.0354,-92.5256 1752.5932,-84.2787"/>
<polygon fill="#191970" stroke="#191970" points="1755.6663,-85.9555 1757.6023,-75.539 1749.593,-82.4746 1755.6663,-85.9555"/>
</g>
<!-- Node27 -->
<g id="node28" class="node">
<title>Node27</title>
<g id="a_node28"><a xlink:href="../../df/d21/GPUCommonDef_8h.html" target="_top" xlink:title="GPUCommonDef.h">
<polygon fill="none" stroke="#000000" points="1949,-56.5 1949,-75.5 2056,-75.5 2056,-56.5 1949,-56.5"/>
<text text-anchor="middle" x="2002.5" y="-63.5" font-family="Helvetica,sans-Serif" font-size="10.00" fill="#000000">GPUCommonDef.h</text>
</a>
</g>
</g>
<!-- Node25&#45;&gt;Node27 -->
<g id="edge31" class="edge">
<title>Node25&#45;&gt;Node27</title>
<path fill="none" stroke="#191970" d="M1752.8255,-184.9768C1761.1378,-182.7723 1770.1054,-180.6052 1778.5,-179 1845.9673,-166.0992 2039.845,-194.3215 2085.5,-143 2094.6575,-132.7059 2092.4932,-123.8711 2085.5,-112 2076.7054,-97.071 2061.1283,-86.6447 2045.8258,-79.541"/>
<polygon fill="#191970" stroke="#191970" points="2046.969,-76.224 2036.3965,-75.5368 2044.2329,-82.6672 2046.969,-76.224"/>
</g>
<!-- Node30 -->
<g id="node31" class="node">
<title>Node30</title>
<g id="a_node31"><a xlink:href="../../d6/da2/GPUCommonMath_8h.html" target="_top" xlink:title="GPUCommonMath.h">
<polygon fill="none" stroke="#000000" points="1749,-118 1749,-137 1864,-137 1864,-118 1749,-118"/>
<text text-anchor="middle" x="1806.5" y="-125" font-family="Helvetica,sans-Serif" font-size="10.00" fill="#000000">GPUCommonMath.h</text>
</a>
</g>
</g>
<!-- Node25&#45;&gt;Node30 -->
<g id="edge34" class="edge">
<title>Node25&#45;&gt;Node30</title>
<path fill="none" stroke="#191970" d="M1732.8217,-184.9005C1746.7435,-174.0544 1769.6176,-156.2339 1786.19,-143.3229"/>
<polygon fill="#191970" stroke="#191970" points="1788.4636,-145.9885 1794.2012,-137.0817 1784.1615,-140.4664 1788.4636,-145.9885"/>
</g>
<!-- Node32 -->
<g id="node33" class="node">
<title>Node32</title>
<g id="a_node33"><a xlink:href="../../d6/d84/MathConstants_8h.html" target="_top" xlink:title="useful math constants ">
<polygon fill="none" stroke="#000000" points="1882.5,-118 1882.5,-137 2076.5,-137 2076.5,-118 1882.5,-118"/>
<text text-anchor="middle" x="1979.5" y="-125" font-family="Helvetica,sans-Serif" font-size="10.00" fill="#000000">CommonConstants/MathConstants.h</text>
</a>
</g>
</g>
<!-- Node25&#45;&gt;Node32 -->
<g id="edge38" class="edge">
<title>Node25&#45;&gt;Node32</title>
<path fill="none" stroke="#191970" d="M1756.0656,-184.9333C1763.476,-182.9574 1771.2401,-180.9001 1778.5,-179 1830.8664,-165.2945 1891.0098,-149.9348 1931.758,-139.5849"/>
<polygon fill="#191970" stroke="#191970" points="1932.8518,-142.9183 1941.6833,-137.0656 1931.1296,-136.1335 1932.8518,-142.9183"/>
</g>
<!-- Node28 -->
<g id="node29" class="node">
<title>Node28</title>
<g id="a_node29"><a xlink:href="../../d5/d93/GPUCommonDefSettings_8h.html" target="_top" xlink:title="GPUCommonDefSettings.h">
<polygon fill="none" stroke="#000000" points="1851.5,-.5 1851.5,-19.5 1999.5,-19.5 1999.5,-.5 1851.5,-.5"/>
<text text-anchor="middle" x="1925.5" y="-7.5" font-family="Helvetica,sans-Serif" font-size="10.00" fill="#000000">GPUCommonDefSettings.h</text>
</a>
</g>
</g>
<!-- Node27&#45;&gt;Node28 -->
<g id="edge32" class="edge">
<title>Node27&#45;&gt;Node28</title>
<path fill="none" stroke="#191970" d="M1989.0876,-56.2455C1977.4943,-47.814 1960.5252,-35.4729 1947.0322,-25.6598"/>
<polygon fill="#191970" stroke="#191970" points="1948.9047,-22.6938 1938.7587,-19.6427 1944.7874,-28.355 1948.9047,-22.6938"/>
</g>
<!-- Node29 -->
<g id="node30" class="node">
<title>Node29</title>
<g id="a_node30"><a xlink:href="../../da/d5a/GPUCommonDefAPI_8h.html" target="_top" xlink:title="GPUCommonDefAPI.h">
<polygon fill="none" stroke="#000000" points="2017.5,-.5 2017.5,-19.5 2141.5,-19.5 2141.5,-.5 2017.5,-.5"/>
<text text-anchor="middle" x="2079.5" y="-7.5" font-family="Helvetica,sans-Serif" font-size="10.00" fill="#000000">GPUCommonDefAPI.h</text>
</a>
</g>
</g>
<!-- Node27&#45;&gt;Node29 -->
<g id="edge33" class="edge">
<title>Node27&#45;&gt;Node29</title>
<path fill="none" stroke="#191970" d="M2015.9124,-56.2455C2027.5057,-47.814 2044.4748,-35.4729 2057.9678,-25.6598"/>
<polygon fill="#191970" stroke="#191970" points="2060.2126,-28.355 2066.2413,-19.6427 2056.0953,-22.6938 2060.2126,-28.355"/>
</g>
<!-- Node30&#45;&gt;Node26 -->
<g id="edge36" class="edge">
<title>Node30&#45;&gt;Node26</title>
<path fill="none" stroke="#191970" d="M1799.7813,-117.8906C1793.507,-108.917 1783.9777,-95.2879 1776.2596,-84.2491"/>
<polygon fill="#191970" stroke="#191970" points="1778.9121,-81.9348 1770.3135,-75.7449 1773.1753,-85.9459 1778.9121,-81.9348"/>
</g>
<!-- Node30&#45;&gt;Node27 -->
<g id="edge35" class="edge">
<title>Node30&#45;&gt;Node27</title>
<path fill="none" stroke="#191970" d="M1837.125,-117.8906C1870.7824,-107.3298 1924.9899,-90.3208 1962.1059,-78.6747"/>
<polygon fill="#191970" stroke="#191970" points="1963.5966,-81.8753 1972.0901,-75.5419 1961.5009,-75.1963 1963.5966,-81.8753"/>
</g>
<!-- Node31 -->
<g id="node32" class="node">
<title>Node31</title>
<polygon fill="none" stroke="#bfbfbf" points="1427.5,-56.5 1427.5,-75.5 1491.5,-75.5 1491.5,-56.5 1427.5,-56.5"/>
<text text-anchor="middle" x="1459.5" y="-63.5" font-family="Helvetica,sans-Serif" font-size="10.00" fill="#000000">algorithm</text>
</g>
<!-- Node30&#45;&gt;Node31 -->
<g id="edge37" class="edge">
<title>Node30&#45;&gt;Node31</title>
<path fill="none" stroke="#191970" d="M1752.662,-117.9581C1683.4174,-105.6857 1564.5923,-84.6259 1501.586,-73.459"/>
<polygon fill="#191970" stroke="#191970" points="1502.0578,-69.9882 1491.6004,-71.6893 1500.8361,-76.8808 1502.0578,-69.9882"/>
</g>
<!-- Node33&#45;&gt;Node20 -->
<g id="edge42" class="edge">
<title>Node33&#45;&gt;Node20</title>
<path fill="none" stroke="#191970" d="M1479.0995,-184.9005C1489.647,-174.353 1506.7904,-157.2096 1519.6002,-144.3998"/>
<polygon fill="#191970" stroke="#191970" points="1522.3221,-146.6276 1526.9183,-137.0817 1517.3724,-141.6779 1522.3221,-146.6276"/>
</g>
<!-- Node33&#45;&gt;Node21 -->
<g id="edge40" class="edge">
<title>Node33&#45;&gt;Node21</title>
<path fill="none" stroke="#191970" d="M1488.9855,-184.9005C1512.0113,-173.5569 1550.5228,-154.5844 1576.9232,-141.5783"/>
<polygon fill="#191970" stroke="#191970" points="1578.6269,-144.6407 1586.0507,-137.0817 1575.5334,-138.3613 1578.6269,-144.6407"/>
</g>
<!-- Node33&#45;&gt;Node23 -->
<g id="edge46" class="edge">
<title>Node33&#45;&gt;Node23</title>
<path fill="none" stroke="#191970" d="M1507.6048,-184.9438C1542.4791,-175.7332 1595.234,-160.624 1639.5,-143 1640.8627,-142.4575 1642.2469,-141.8777 1643.6362,-141.2728"/>
<polygon fill="#191970" stroke="#191970" points="1645.1219,-144.4419 1652.7043,-137.0421 1642.1622,-138.0983 1645.1219,-144.4419"/>
</g>
<!-- Node33&#45;&gt;Node31 -->
<g id="edge44" class="edge">
<title>Node33&#45;&gt;Node31</title>
<path fill="none" stroke="#191970" d="M1425.5269,-184.9929C1415.9663,-182.9735 1405.9007,-180.8837 1396.5,-179 1354.15,-170.514 1233.0681,-176.2496 1205.5,-143 1196.706,-132.3937 1196.6683,-122.5749 1205.5,-112 1231.9635,-80.3134 1351.8993,-70.41 1417.0561,-67.3476"/>
<polygon fill="#191970" stroke="#191970" points="1417.5648,-70.8289 1427.4031,-66.8972 1417.2603,-63.8355 1417.5648,-70.8289"/>
</g>
<!-- Node34 -->
<g id="node35" class="node">
<title>Node34</title>
<polygon fill="none" stroke="#bfbfbf" points="1214.5,-118 1214.5,-137 1272.5,-137 1272.5,-118 1214.5,-118"/>
<text text-anchor="middle" x="1243.5" y="-125" font-family="Helvetica,sans-Serif" font-size="10.00" fill="#000000">memory</text>
</g>
<!-- Node33&#45;&gt;Node34 -->
<g id="edge41" class="edge">
<title>Node33&#45;&gt;Node34</title>
<path fill="none" stroke="#191970" d="M1429.1034,-184.9252C1390.7432,-175.4835 1331.6496,-160.0283 1281.5,-143 1279.5772,-142.3471 1277.6116,-141.6475 1275.6365,-140.9196"/>
<polygon fill="#191970" stroke="#191970" points="1276.4257,-137.4724 1265.8364,-137.1306 1273.9014,-144.0014 1276.4257,-137.4724"/>
</g>
<!-- Node35 -->
<g id="node36" class="node">
<title>Node35</title>
<polygon fill="none" stroke="#bfbfbf" points="1290.5,-118 1290.5,-137 1340.5,-137 1340.5,-118 1290.5,-118"/>
<text text-anchor="middle" x="1315.5" y="-125" font-family="Helvetica,sans-Serif" font-size="10.00" fill="#000000">cstring</text>
</g>
<!-- Node33&#45;&gt;Node35 -->
<g id="edge43" class="edge">
<title>Node33&#45;&gt;Node35</title>
<path fill="none" stroke="#191970" d="M1446.8755,-184.9682C1422.7023,-174.7424 1383.2934,-157.9522 1349.5,-143 1348.2987,-142.4685 1347.0747,-141.924 1345.8391,-141.3721"/>
<polygon fill="#191970" stroke="#191970" points="1346.8795,-138.0019 1336.3247,-137.0825 1344.0024,-144.3833 1346.8795,-138.0019"/>
</g>
<!-- Node36 -->
<g id="node37" class="node">
<title>Node36</title>
<polygon fill="none" stroke="#bfbfbf" points="1359,-118 1359,-137 1424,-137 1424,-118 1359,-118"/>
<text text-anchor="middle" x="1391.5" y="-125" font-family="Helvetica,sans-Serif" font-size="10.00" fill="#000000">stdexcept</text>
</g>
<!-- Node33&#45;&gt;Node36 -->
<g id="edge45" class="edge">
<title>Node33&#45;&gt;Node36</title>
<path fill="none" stroke="#191970" d="M1458.3245,-184.9005C1445.8136,-174.1539 1425.3314,-156.5603 1410.3358,-143.6794"/>
<polygon fill="#191970" stroke="#191970" points="1412.5211,-140.9426 1402.6548,-137.0817 1407.9599,-146.2526 1412.5211,-140.9426"/>
</g>
<!-- Node37 -->
<g id="node38" class="node">
<title>Node37</title>
<polygon fill="none" stroke="#bfbfbf" points="1442.5,-118 1442.5,-137 1492.5,-137 1492.5,-118 1442.5,-118"/>
<text text-anchor="middle" x="1467.5" y="-125" font-family="Helvetica,sans-Serif" font-size="10.00" fill="#000000">climits</text>
</g>
<!-- Node33&#45;&gt;Node37 -->
<g id="edge47" class="edge">
<title>Node33&#45;&gt;Node37</title>
<path fill="none" stroke="#191970" d="M1469.2134,-184.9005C1468.9224,-175.149 1468.463,-159.7597 1468.0931,-147.3695"/>
<polygon fill="#191970" stroke="#191970" points="1471.5829,-146.9727 1467.786,-137.0817 1464.586,-147.1817 1471.5829,-146.9727"/>
</g>
<!-- Node38 -->
<g id="node39" class="node">
<title>Node38</title>
<g id="a_node39"><a xlink:href="../../d7/df8/Types_8h.html" target="_top" xlink:title="MemoryResources/Types.h">
<polygon fill="none" stroke="#000000" points="946.5,-118 946.5,-137 1092.5,-137 1092.5,-118 946.5,-118"/>
<text text-anchor="middle" x="1019.5" y="-125" font-family="Helvetica,sans-Serif" font-size="10.00" fill="#000000">MemoryResources/Types.h</text>
</a>
</g>
</g>
<!-- Node33&#45;&gt;Node38 -->
<g id="edge48" class="edge">
<title>Node33&#45;&gt;Node38</title>
<path fill="none" stroke="#191970" d="M1427.5435,-184.933C1417.4124,-182.8054 1406.5958,-180.6845 1396.5,-179 1266.2173,-157.2623 1232.018,-163.2771 1101.5,-143 1093.5611,-141.7666 1085.2139,-140.3403 1077.008,-138.8625"/>
<polygon fill="#191970" stroke="#191970" points="1077.5731,-135.4078 1067.1054,-137.0438 1076.3087,-142.2927 1077.5731,-135.4078"/>
</g>
<!-- Node39 -->
<g id="node40" class="node">
<title>Node39</title>
<polygon fill="none" stroke="#bfbfbf" points="1111,-118 1111,-137 1158,-137 1158,-118 1111,-118"/>
<text text-anchor="middle" x="1134.5" y="-125" font-family="Helvetica,sans-Serif" font-size="10.00" fill="#000000">cerrno</text>
</g>
<!-- Node33&#45;&gt;Node39 -->
<g id="edge49" class="edge">
<title>Node33&#45;&gt;Node39</title>
<path fill="none" stroke="#191970" d="M1426.3383,-184.9633C1416.5463,-182.9035 1406.1799,-180.8044 1396.5,-179 1297.3743,-160.5228 1269.5901,-170.2181 1172.5,-143 1170.0388,-142.31 1167.5212,-141.5091 1165.0112,-140.6417"/>
<polygon fill="#191970" stroke="#191970" points="1166.0966,-137.3105 1155.5046,-137.0622 1163.6299,-143.8616 1166.0966,-137.3105"/>
</g>
<!-- Node40&#45;&gt;Node10 -->
<g id="edge58" class="edge">
<title>Node40&#45;&gt;Node10</title>
<path fill="none" stroke="#191970" d="M778.8283,-258.4795C600.6231,-250.3269 127.3449,-227.3225 58.5,-210 56.302,-209.447 54.0707,-208.7562 51.8562,-207.9755"/>
<polygon fill="#191970" stroke="#191970" points="52.9908,-204.6585 42.4093,-204.1266 50.3495,-211.1411 52.9908,-204.6585"/>
</g>
<!-- Node40&#45;&gt;Node16 -->
<g id="edge56" class="edge">
<title>Node40&#45;&gt;Node16</title>
<path fill="none" stroke="#191970" d="M914.2327,-258.2493C996.3386,-253.1118 1138.3827,-240.3648 1256.5,-210 1259.2785,-209.2857 1262.1249,-208.4245 1264.9526,-207.4784"/>
<polygon fill="#191970" stroke="#191970" points="1266.1853,-210.7544 1274.3686,-204.0251 1263.775,-204.1824 1266.1853,-210.7544"/>
</g>
<!-- Node41 -->
<g id="node42" class="node">
<title>Node41</title>
<polygon fill="none" stroke="#bfbfbf" points="623.5,-179.5 623.5,-209.5 787.5,-209.5 787.5,-179.5 623.5,-179.5"/>
<text text-anchor="start" x="631.5" y="-197.5" font-family="Helvetica,sans-Serif" font-size="10.00" fill="#000000">Math/GenVector/Displacement</text>
<text text-anchor="middle" x="705.5" y="-186.5" font-family="Helvetica,sans-Serif" font-size="10.00" fill="#000000">Vector3D.h</text>
</g>
<!-- Node40&#45;&gt;Node41 -->
<g id="edge51" class="edge">
<title>Node40&#45;&gt;Node41</title>
<path fill="none" stroke="#191970" d="M826.2981,-251.9005C805.5454,-242.0393 772.6598,-226.4128 746.4375,-213.9526"/>
<polygon fill="#191970" stroke="#191970" points="747.6473,-210.6524 737.113,-209.5218 744.643,-216.975 747.6473,-210.6524"/>
</g>
<!-- Node42 -->
<g id="node43" class="node">
<title>Node42</title>
<polygon fill="none" stroke="#bfbfbf" points="1059,-185 1059,-204 1248,-204 1248,-185 1059,-185"/>
<text text-anchor="middle" x="1153.5" y="-192" font-family="Helvetica,sans-Serif" font-size="10.00" fill="#000000">Math/GenVector/PositionVector3D.h</text>
</g>
<!-- Node40&#45;&gt;Node42 -->
<g id="edge52" class="edge">
<title>Node40&#45;&gt;Node42</title>
<path fill="none" stroke="#191970" d="M890.1596,-251.9717C945.2435,-239.9501 1039.957,-219.2797 1099.5234,-206.2799"/>
<polygon fill="#191970" stroke="#191970" points="1100.4702,-209.6557 1109.494,-204.1039 1098.9776,-202.8167 1100.4702,-209.6557"/>
</g>
<!-- Node43 -->
<g id="node44" class="node">
<title>Node43</title>
<polygon fill="none" stroke="#bfbfbf" points="67.5,-185 67.5,-204 227.5,-204 227.5,-185 67.5,-185"/>
<text text-anchor="middle" x="147.5" y="-192" font-family="Helvetica,sans-Serif" font-size="10.00" fill="#000000">Math/GenVector/Rotation3D.h</text>
</g>
<!-- Node40&#45;&gt;Node43 -->
<g id="edge53" class="edge">
<title>Node40&#45;&gt;Node43</title>
<path fill="none" stroke="#191970" d="M778.5924,-257.7286C665.7321,-251.0214 432.5545,-235.2981 236.5,-210 227.1488,-208.7934 217.2815,-207.2987 207.6561,-205.7177"/>
<polygon fill="#191970" stroke="#191970" points="208.1875,-202.258 197.7449,-204.0475 207.0242,-209.1607 208.1875,-202.258"/>
</g>
<!-- Node44 -->
<g id="node45" class="node">
<title>Node44</title>
<polygon fill="none" stroke="#bfbfbf" points="245.5,-185 245.5,-204 413.5,-204 413.5,-185 245.5,-185"/>
<text text-anchor="middle" x="329.5" y="-192" font-family="Helvetica,sans-Serif" font-size="10.00" fill="#000000">Math/GenVector/Transform3D.h</text>
</g>
<!-- Node40&#45;&gt;Node44 -->
<g id="edge54" class="edge">
<title>Node40&#45;&gt;Node44</title>
<path fill="none" stroke="#191970" d="M778.8185,-254.2145C695.0249,-244.9792 548.0057,-228.0719 422.5,-210 413.2411,-208.6668 403.4815,-207.1564 393.9061,-205.6144"/>
<polygon fill="#191970" stroke="#191970" points="394.456,-202.1579 384.0229,-204.002 393.3288,-209.0665 394.456,-202.1579"/>
</g>
<!-- Node45 -->
<g id="node46" class="node">
<title>Node45</title>
<polygon fill="none" stroke="#bfbfbf" points="432,-185 432,-204 605,-204 605,-185 432,-185"/>
<text text-anchor="middle" x="518.5" y="-192" font-family="Helvetica,sans-Serif" font-size="10.00" fill="#000000">Math/GenVector/Translation3D.h</text>
</g>
<!-- Node40&#45;&gt;Node45 -->
<g id="edge55" class="edge">
<title>Node40&#45;&gt;Node45</title>
<path fill="none" stroke="#191970" d="M799.8539,-251.9717C740.6749,-239.8833 638.6835,-219.0497 575.1111,-206.0638"/>
<polygon fill="#191970" stroke="#191970" points="575.7486,-202.6219 565.2504,-204.0496 574.3476,-209.4802 575.7486,-202.6219"/>
</g>
<!-- Node46 -->
<g id="node47" class="node">
<title>Node46</title>
<polygon fill="none" stroke="#bfbfbf" points="805.5,-185 805.5,-204 887.5,-204 887.5,-185 805.5,-185"/>
<text text-anchor="middle" x="846.5" y="-192" font-family="Helvetica,sans-Serif" font-size="10.00" fill="#000000">TGeoMatrix.h</text>
</g>
<!-- Node40&#45;&gt;Node46 -->
<g id="edge57" class="edge">
<title>Node40&#45;&gt;Node46</title>
<path fill="none" stroke="#191970" d="M846.5,-251.9005C846.5,-242.149 846.5,-226.7597 846.5,-214.3695"/>
<polygon fill="#191970" stroke="#191970" points="850.0001,-214.0816 846.5,-204.0817 843.0001,-214.0817 850.0001,-214.0816"/>
</g>
<!-- Node47 -->
<g id="node48" class="node">
<title>Node47</title>
<g id="a_node48"><a xlink:href="../../d2/dd0/Cartesian2D_8h.html" target="_top" xlink:title="MathUtils/Cartesian2D.h">
<polygon fill="none" stroke="#000000" points="906,-185 906,-204 1041,-204 1041,-185 906,-185"/>
<text text-anchor="middle" x="973.5" y="-192" font-family="Helvetica,sans-Serif" font-size="10.00" fill="#000000">MathUtils/Cartesian2D.h</text>
</a>
</g>
</g>
<!-- Node40&#45;&gt;Node47 -->
<g id="edge59" class="edge">
<title>Node40&#45;&gt;Node47</title>
<path fill="none" stroke="#191970" d="M864.696,-251.9005C886.1038,-240.6067 921.8458,-221.7506 946.4893,-208.7497"/>
<polygon fill="#191970" stroke="#191970" points="948.1262,-211.8434 955.3378,-204.0817 944.8599,-205.6522 948.1262,-211.8434"/>
</g>
<!-- Node48 -->
<g id="node49" class="node">
<title>Node48</title>
<polygon fill="none" stroke="#bfbfbf" points="556.5,-112.5 556.5,-142.5 720.5,-142.5 720.5,-112.5 556.5,-112.5"/>
<text text-anchor="start" x="564.5" y="-130.5" font-family="Helvetica,sans-Serif" font-size="10.00" fill="#000000">Math/GenVector/Displacement</text>
<text text-anchor="middle" x="638.5" y="-119.5" font-family="Helvetica,sans-Serif" font-size="10.00" fill="#000000">Vector2D.h</text>
</g>
<!-- Node47&#45;&gt;Node48 -->
<g id="edge60" class="edge">
<title>Node47&#45;&gt;Node48</title>
<path fill="none" stroke="#191970" d="M926.2657,-184.9792C916.429,-183 906.1266,-180.9297 896.5,-179 838.8751,-167.4488 773.9986,-154.4989 723.7181,-144.4745"/>
<polygon fill="#191970" stroke="#191970" points="724.3545,-141.0326 713.8631,-142.51 722.9859,-147.8975 724.3545,-141.0326"/>
</g>
<!-- Node49 -->
<g id="node50" class="node">
<title>Node49</title>
<polygon fill="none" stroke="#bfbfbf" points="739,-118 739,-137 928,-137 928,-118 739,-118"/>
<text text-anchor="middle" x="833.5" y="-125" font-family="Helvetica,sans-Serif" font-size="10.00" fill="#000000">Math/GenVector/PositionVector2D.h</text>
</g>
<!-- Node47&#45;&gt;Node49 -->
<g id="edge61" class="edge">
<title>Node47&#45;&gt;Node49</title>
<path fill="none" stroke="#191970" d="M953.4414,-184.9005C929.6344,-173.5072 889.7461,-154.4178 862.5604,-141.4075"/>
<polygon fill="#191970" stroke="#191970" points="864.0526,-138.2415 853.5214,-137.0817 861.0307,-144.5556 864.0526,-138.2415"/>
</g>
<!-- Node50&#45;&gt;Node16 -->
<g id="edge64" class="edge">
<title>Node50&#45;&gt;Node16</title>
<path fill="none" stroke="#191970" d="M1293.5965,-385.8054C1293.9067,-354.6298 1294.8828,-256.5298 1295.3037,-214.2302"/>
<polygon fill="#191970" stroke="#191970" points="1298.8047,-214.1317 1295.4045,-204.0974 1291.8051,-214.062 1298.8047,-214.1317"/>
</g>
</g>
</svg>
