<?xml version="1.0" encoding="UTF-8" standalone="no"?>
<!DOCTYPE svg PUBLIC "-//W3C//DTD SVG 1.1//EN"
 "http://www.w3.org/Graphics/SVG/1.1/DTD/svg11.dtd">
<!-- Generated by graphviz version 2.40.1 (20161225.0304)
 -->
<!-- Title: /home/travis/build/AliceO2Group/AliceO2/DataFormats/Detectors/ITSMFT/common/include/DataFormatsITSMFT/ClusterPattern.h Pages: 1 -->
<svg width="2354pt" height="575pt"
 viewBox="0.00 0.00 2353.50 575.00" xmlns="http://www.w3.org/2000/svg" xmlns:xlink="http://www.w3.org/1999/xlink">
<g id="graph0" class="graph" transform="scale(1 1) rotate(0) translate(4 571)">
<title>/home/travis/build/AliceO2Group/AliceO2/DataFormats/Detectors/ITSMFT/common/include/DataFormatsITSMFT/ClusterPattern.h</title>
<!-- Node0 -->
<g id="node1" class="node">
<title>Node0</title>
<polygon fill="#bfbfbf" stroke="#000000" points="859,-503.5 859,-566.5 1057,-566.5 1057,-503.5 859,-503.5"/>
<text text-anchor="start" x="867" y="-554.5" font-family="Helvetica,sans-Serif" font-size="10.00" fill="#000000">/home/travis/build</text>
<text text-anchor="start" x="867" y="-543.5" font-family="Helvetica,sans-Serif" font-size="10.00" fill="#000000">/AliceO2Group/AliceO2</text>
<text text-anchor="start" x="867" y="-532.5" font-family="Helvetica,sans-Serif" font-size="10.00" fill="#000000">/DataFormats/Detectors</text>
<text text-anchor="start" x="867" y="-521.5" font-family="Helvetica,sans-Serif" font-size="10.00" fill="#000000">/ITSMFT/common/include</text>
<text text-anchor="middle" x="958" y="-510.5" font-family="Helvetica,sans-Serif" font-size="10.00" fill="#000000">/DataFormatsITSMFT/ClusterPattern.h</text>
</g>
<!-- Node1 -->
<g id="node2" class="node">
<title>Node1</title>
<polygon fill="none" stroke="#bfbfbf" points="877.5,-185 877.5,-204 936.5,-204 936.5,-185 877.5,-185"/>
<text text-anchor="middle" x="907" y="-192" font-family="Helvetica,sans-Serif" font-size="10.00" fill="#000000">Rtypes.h</text>
</g>
<!-- Node0&#45;&gt;Node1 -->
<g id="edge1" class="edge">
<title>Node0&#45;&gt;Node1</title>
<path fill="none" stroke="#191970" d="M905.7216,-503.2099C892.2772,-493.0181 878.8448,-480.7578 869,-467 849.4934,-439.7402 845,-429.0202 845,-395.5 845,-395.5 845,-395.5 845,-328.5 845,-290.8735 847.2613,-279.6982 864,-246 870.3962,-233.1233 880.6215,-220.6908 889.4962,-211.2679"/>
<polygon fill="#191970" stroke="#191970" points="892.0095,-213.7039 896.5195,-204.1169 887.0153,-208.7989 892.0095,-213.7039"/>
</g>
<!-- Node2 -->
<g id="node3" class="node">
<title>Node2</title>
<polygon fill="none" stroke="#bfbfbf" points="0,-118 0,-137 42,-137 42,-118 0,-118"/>
<text text-anchor="middle" x="21" y="-125" font-family="Helvetica,sans-Serif" font-size="10.00" fill="#000000">array</text>
</g>
<!-- Node0&#45;&gt;Node2 -->
<g id="edge2" class="edge">
<title>Node0&#45;&gt;Node2</title>
<path fill="none" stroke="#191970" d="M858.5947,-530.4328C618.1904,-518.0647 25,-479.0788 25,-395.5 25,-395.5 25,-395.5 25,-261.5 25,-220.9519 23.1475,-173.5328 21.9638,-147.374"/>
<polygon fill="#191970" stroke="#191970" points="25.4537,-147.0744 21.4905,-137.2488 18.4614,-147.4013 25.4537,-147.0744"/>
</g>
<!-- Node3 -->
<g id="node4" class="node">
<title>Node3</title>
<polygon fill="none" stroke="#bfbfbf" points="2296.5,-185 2296.5,-204 2345.5,-204 2345.5,-185 2296.5,-185"/>
<text text-anchor="middle" x="2321" y="-192" font-family="Helvetica,sans-Serif" font-size="10.00" fill="#000000">iosfwd</text>
</g>
<!-- Node0&#45;&gt;Node3 -->
<g id="edge3" class="edge">
<title>Node0&#45;&gt;Node3</title>
<path fill="none" stroke="#191970" d="M1057.0828,-533.5634C1340.1185,-528.1559 2132,-503.3863 2132,-395.5 2132,-395.5 2132,-395.5 2132,-328.5 2132,-308.6677 2244.1771,-239.8604 2295.6868,-209.3107"/>
<polygon fill="#191970" stroke="#191970" points="2297.7271,-212.1706 2304.5581,-204.072 2294.1677,-206.1431 2297.7271,-212.1706"/>
</g>
<!-- Node4 -->
<g id="node5" class="node">
<title>Node4</title>
<polygon fill="none" stroke="#bfbfbf" points="1056,-447.5 1056,-466.5 1104,-466.5 1104,-447.5 1056,-447.5"/>
<text text-anchor="middle" x="1080" y="-454.5" font-family="Helvetica,sans-Serif" font-size="10.00" fill="#000000">gsl/gsl</text>
</g>
<!-- Node0&#45;&gt;Node4 -->
<g id="edge4" class="edge">
<title>Node0&#45;&gt;Node4</title>
<path fill="none" stroke="#191970" d="M1007.2704,-503.4992C1024.3045,-492.6086 1042.6068,-480.9071 1056.59,-471.967"/>
<polygon fill="#191970" stroke="#191970" points="1058.5587,-474.8626 1065.0986,-466.5271 1054.788,-468.965 1058.5587,-474.8626"/>
</g>
<!-- Node5 -->
<g id="node6" class="node">
<title>Node5</title>
<g id="a_node6"><a xlink:href="../../d1/d62/DataFormats_2Detectors_2ITSMFT_2common_2include_2DataFormatsITSMFT_2Cluster_8h.html" target="_top" xlink:title="DataFormatsITSMFT/Cluster.h">
<polygon fill="none" stroke="#000000" points="878,-447.5 878,-466.5 1038,-466.5 1038,-447.5 878,-447.5"/>
<text text-anchor="middle" x="958" y="-454.5" font-family="Helvetica,sans-Serif" font-size="10.00" fill="#000000">DataFormatsITSMFT/Cluster.h</text>
</a>
</g>
</g>
<!-- Node0&#45;&gt;Node5 -->
<g id="edge5" class="edge">
<title>Node0&#45;&gt;Node5</title>
<path fill="none" stroke="#191970" d="M958,-503.2744C958,-494.3302 958,-484.8568 958,-476.8269"/>
<polygon fill="#191970" stroke="#191970" points="961.5001,-476.6425 958,-466.6426 954.5001,-476.6426 961.5001,-476.6425"/>
</g>
<!-- Node6 -->
<g id="node7" class="node">
<title>Node6</title>
<g id="a_node7"><a xlink:href="../../d4/de2/BaseCluster_8h.html" target="_top" xlink:title="ReconstructionDataFormats\l/BaseCluster.h">
<polygon fill="none" stroke="#000000" points="946,-380.5 946,-410.5 1098,-410.5 1098,-380.5 946,-380.5"/>
<text text-anchor="start" x="954" y="-398.5" font-family="Helvetica,sans-Serif" font-size="10.00" fill="#000000">ReconstructionDataFormats</text>
<text text-anchor="middle" x="1022" y="-387.5" font-family="Helvetica,sans-Serif" font-size="10.00" fill="#000000">/BaseCluster.h</text>
</a>
</g>
</g>
<!-- Node5&#45;&gt;Node6 -->
<g id="edge6" class="edge">
<title>Node5&#45;&gt;Node6</title>
<path fill="none" stroke="#191970" d="M968,-447.3906C976.2606,-439.4527 988.3122,-427.8718 998.9355,-417.6635"/>
<polygon fill="#191970" stroke="#191970" points="1001.5584,-419.9971 1006.3438,-410.5446 996.7082,-414.9498 1001.5584,-419.9971"/>
</g>
<!-- Node6&#45;&gt;Node3 -->
<g id="edge11" class="edge">
<title>Node6&#45;&gt;Node3</title>
<path fill="none" stroke="#191970" d="M1098.4269,-385.6301C1354.6242,-352.3609 2173.3992,-244.4857 2288,-210 2289.9093,-209.4255 2291.8483,-208.7576 2293.7809,-208.0282"/>
<polygon fill="#191970" stroke="#191970" points="2295.3891,-211.1477 2303.2223,-204.0138 2292.6501,-204.7058 2295.3891,-211.1477"/>
</g>
<!-- Node7 -->
<g id="node8" class="node">
<title>Node7</title>
<polygon fill="none" stroke="#bfbfbf" points="1224.5,-319 1224.5,-338 1287.5,-338 1287.5,-319 1224.5,-319"/>
<text text-anchor="middle" x="1256" y="-326" font-family="Helvetica,sans-Serif" font-size="10.00" fill="#000000">TObject.h</text>
</g>
<!-- Node6&#45;&gt;Node7 -->
<g id="edge7" class="edge">
<title>Node6&#45;&gt;Node7</title>
<path fill="none" stroke="#191970" d="M1080.2622,-380.467C1117.52,-370.6252 1166.7891,-357.1866 1210,-344 1212.7959,-343.1468 1215.6787,-342.2402 1218.5735,-341.3104"/>
<polygon fill="#191970" stroke="#191970" points="1219.9415,-344.5452 1228.353,-338.1033 1217.7602,-337.8937 1219.9415,-344.5452"/>
</g>
<!-- Node8 -->
<g id="node9" class="node">
<title>Node8</title>
<polygon fill="none" stroke="#bfbfbf" points="815,-185 815,-204 859,-204 859,-185 815,-185"/>
<text text-anchor="middle" x="837" y="-192" font-family="Helvetica,sans-Serif" font-size="10.00" fill="#000000">bitset</text>
</g>
<!-- Node6&#45;&gt;Node8 -->
<g id="edge8" class="edge">
<title>Node6&#45;&gt;Node8</title>
<path fill="none" stroke="#191970" d="M952.9563,-380.4065C916.2551,-370.992 876.231,-358.0247 864,-344 832.0407,-307.354 832.1098,-245.9556 834.6514,-214.4613"/>
<polygon fill="#191970" stroke="#191970" points="838.1539,-214.6058 835.6449,-204.3123 831.1872,-213.9237 838.1539,-214.6058"/>
</g>
<!-- Node9 -->
<g id="node10" class="node">
<title>Node9</title>
<polygon fill="none" stroke="#bfbfbf" points="873,-319 873,-338 929,-338 929,-319 873,-319"/>
<text text-anchor="middle" x="901" y="-326" font-family="Helvetica,sans-Serif" font-size="10.00" fill="#000000">iomanip</text>
</g>
<!-- Node6&#45;&gt;Node9 -->
<g id="edge9" class="edge">
<title>Node6&#45;&gt;Node9</title>
<path fill="none" stroke="#191970" d="M994.8452,-380.4639C974.6344,-369.2728 947.2036,-354.0838 927.2201,-343.0186"/>
<polygon fill="#191970" stroke="#191970" points="928.7883,-339.8862 918.3444,-338.1039 925.3973,-346.0101 928.7883,-339.8862"/>
</g>
<!-- Node10 -->
<g id="node11" class="node">
<title>Node10</title>
<polygon fill="none" stroke="#bfbfbf" points="947.5,-319 947.5,-338 978.5,-338 978.5,-319 947.5,-319"/>
<text text-anchor="middle" x="963" y="-326" font-family="Helvetica,sans-Serif" font-size="10.00" fill="#000000">ios</text>
</g>
<!-- Node6&#45;&gt;Node10 -->
<g id="edge10" class="edge">
<title>Node6&#45;&gt;Node10</title>
<path fill="none" stroke="#191970" d="M1008.612,-380.2967C999.598,-370.0605 987.6889,-356.5366 978.3,-345.8746"/>
<polygon fill="#191970" stroke="#191970" points="980.6496,-343.2468 971.4141,-338.055 975.3962,-347.873 980.6496,-343.2468"/>
</g>
<!-- Node11 -->
<g id="node12" class="node">
<title>Node11</title>
<g id="a_node12"><a xlink:href="../../d4/d20/DetMatrixCache_8h.html" target="_top" xlink:title="DetectorsCommonDataFormats\l/DetMatrixCache.h">
<polygon fill="none" stroke="#000000" points="996.5,-313.5 996.5,-343.5 1167.5,-343.5 1167.5,-313.5 996.5,-313.5"/>
<text text-anchor="start" x="1004.5" y="-331.5" font-family="Helvetica,sans-Serif" font-size="10.00" fill="#000000">DetectorsCommonDataFormats</text>
<text text-anchor="middle" x="1082" y="-320.5" font-family="Helvetica,sans-Serif" font-size="10.00" fill="#000000">/DetMatrixCache.h</text>
</a>
</g>
</g>
<!-- Node6&#45;&gt;Node11 -->
<g id="edge12" class="edge">
<title>Node6&#45;&gt;Node11</title>
<path fill="none" stroke="#191970" d="M1035.6149,-380.2967C1043.2863,-371.7303 1053.0196,-360.8614 1061.5872,-351.2943"/>
<polygon fill="#191970" stroke="#191970" points="1064.3751,-353.4276 1068.439,-343.6432 1059.1604,-348.7578 1064.3751,-353.4276"/>
</g>
<!-- Node38 -->
<g id="node39" class="node">
<title>Node38</title>
<g id="a_node39"><a xlink:href="../../dd/d76/Cartesian3D_8h.html" target="_top" xlink:title="MathUtils/Cartesian3D.h">
<polygon fill="none" stroke="#000000" points="1365.5,-252 1365.5,-271 1500.5,-271 1500.5,-252 1365.5,-252"/>
<text text-anchor="middle" x="1433" y="-259" font-family="Helvetica,sans-Serif" font-size="10.00" fill="#000000">MathUtils/Cartesian3D.h</text>
</a>
</g>
</g>
<!-- Node6&#45;&gt;Node38 -->
<g id="edge63" class="edge">
<title>Node6&#45;&gt;Node38</title>
<path fill="none" stroke="#191970" d="M1083.6614,-380.4085C1112.941,-371.9094 1147.8243,-359.7949 1177,-344 1196.4718,-333.4585 1196.0845,-322.6771 1216,-313 1259.6873,-291.7719 1312.6644,-278.9821 1355.3372,-271.458"/>
<polygon fill="#191970" stroke="#191970" points="1356.1198,-274.8752 1365.3915,-269.7483 1354.9462,-267.9743 1356.1198,-274.8752"/>
</g>
<!-- Node11&#45;&gt;Node2 -->
<g id="edge18" class="edge">
<title>Node11&#45;&gt;Node2</title>
<path fill="none" stroke="#191970" d="M996.3434,-314.1739C993.1923,-313.7584 990.0699,-313.3651 987,-313 595.9747,-266.4953 458.9539,-386.6125 107,-210 76.2106,-194.5497 49.0928,-164.2987 33.8948,-145.0351"/>
<polygon fill="#191970" stroke="#191970" points="36.6389,-142.8618 27.7803,-137.05 31.0812,-147.1176 36.6389,-142.8618"/>
</g>
<!-- Node12 -->
<g id="node13" class="node">
<title>Node12</title>
<g id="a_node13"><a xlink:href="../../df/d5b/GPUCommonLogger_8h.html" target="_top" xlink:title="GPUCommonLogger.h">
<polygon fill="none" stroke="#000000" points="1081.5,-252 1081.5,-271 1204.5,-271 1204.5,-252 1081.5,-252"/>
<text text-anchor="middle" x="1143" y="-259" font-family="Helvetica,sans-Serif" font-size="10.00" fill="#000000">GPUCommonLogger.h</text>
</a>
</g>
</g>
<!-- Node11&#45;&gt;Node12 -->
<g id="edge13" class="edge">
<title>Node11&#45;&gt;Node12</title>
<path fill="none" stroke="#191970" d="M1095.8418,-313.2967C1105.2537,-302.9591 1117.7183,-289.2684 1127.4689,-278.5588"/>
<polygon fill="#191970" stroke="#191970" points="1130.1565,-280.8057 1134.3007,-271.055 1124.9804,-276.0931 1130.1565,-280.8057"/>
</g>
<!-- Node15 -->
<g id="node16" class="node">
<title>Node15</title>
<g id="a_node16"><a xlink:href="../../d2/d45/GPUCommonRtypes_8h.html" target="_top" xlink:title="GPUCommonRtypes.h">
<polygon fill="none" stroke="#000000" points="873.5,-252 873.5,-271 998.5,-271 998.5,-252 873.5,-252"/>
<text text-anchor="middle" x="936" y="-259" font-family="Helvetica,sans-Serif" font-size="10.00" fill="#000000">GPUCommonRtypes.h</text>
</a>
</g>
</g>
<!-- Node11&#45;&gt;Node15 -->
<g id="edge16" class="edge">
<title>Node11&#45;&gt;Node15</title>
<path fill="none" stroke="#191970" d="M1049.2348,-313.4639C1024.4068,-302.0702 990.5488,-286.5327 966.3372,-275.4219"/>
<polygon fill="#191970" stroke="#191970" points="967.4764,-272.0938 956.9279,-271.1039 964.5568,-278.4559 967.4764,-272.0938"/>
</g>
<!-- Node16 -->
<g id="node17" class="node">
<title>Node16</title>
<polygon fill="none" stroke="#bfbfbf" points="1016.5,-252 1016.5,-271 1063.5,-271 1063.5,-252 1016.5,-252"/>
<text text-anchor="middle" x="1040" y="-259" font-family="Helvetica,sans-Serif" font-size="10.00" fill="#000000">vector</text>
</g>
<!-- Node11&#45;&gt;Node16 -->
<g id="edge19" class="edge">
<title>Node11&#45;&gt;Node16</title>
<path fill="none" stroke="#191970" d="M1072.4695,-313.2967C1066.2434,-303.3645 1058.077,-290.3371 1051.4918,-279.8321"/>
<polygon fill="#191970" stroke="#191970" points="1054.2666,-277.6689 1045.9897,-271.055 1048.3356,-281.3868 1054.2666,-277.6689"/>
</g>
<!-- Node17 -->
<g id="node18" class="node">
<title>Node17</title>
<g id="a_node18"><a xlink:href="../../d6/d31/DetID_8h.html" target="_top" xlink:title="DetectorsCommonDataFormats\l/DetID.h">
<polygon fill="none" stroke="#000000" points="517.5,-246.5 517.5,-276.5 688.5,-276.5 688.5,-246.5 517.5,-246.5"/>
<text text-anchor="start" x="525.5" y="-264.5" font-family="Helvetica,sans-Serif" font-size="10.00" fill="#000000">DetectorsCommonDataFormats</text>
<text text-anchor="middle" x="603" y="-253.5" font-family="Helvetica,sans-Serif" font-size="10.00" fill="#000000">/DetID.h</text>
</a>
</g>
</g>
<!-- Node11&#45;&gt;Node17 -->
<g id="edge20" class="edge">
<title>Node11&#45;&gt;Node17</title>
<path fill="none" stroke="#191970" d="M996.3126,-314.4045C993.1701,-313.9241 990.058,-313.4544 987,-313 888.9419,-298.428 776.5151,-283.5651 698.7652,-273.5761"/>
<polygon fill="#191970" stroke="#191970" points="698.8709,-270.0611 688.5069,-272.2606 697.9805,-277.0042 698.8709,-270.0611"/>
</g>
<!-- Node11&#45;&gt;Node38 -->
<g id="edge51" class="edge">
<title>Node11&#45;&gt;Node38</title>
<path fill="none" stroke="#191970" d="M1160.7713,-313.4639C1225.1613,-301.1729 1314.8147,-284.0596 1373.3652,-272.8833"/>
<polygon fill="#191970" stroke="#191970" points="1374.0373,-276.3183 1383.2036,-271.0053 1372.7247,-269.4424 1374.0373,-276.3183"/>
</g>
<!-- Node13 -->
<g id="node14" class="node">
<title>Node13</title>
<polygon fill="none" stroke="#bfbfbf" points="955,-185 955,-204 1015,-204 1015,-185 955,-185"/>
<text text-anchor="middle" x="985" y="-192" font-family="Helvetica,sans-Serif" font-size="10.00" fill="#000000">iostream</text>
</g>
<!-- Node12&#45;&gt;Node13 -->
<g id="edge14" class="edge">
<title>Node12&#45;&gt;Node13</title>
<path fill="none" stroke="#191970" d="M1120.3625,-251.9005C1093.2599,-240.4077 1047.6901,-221.0838 1016.9961,-208.068"/>
<polygon fill="#191970" stroke="#191970" points="1018.1684,-204.7635 1007.5956,-204.0817 1015.4356,-211.208 1018.1684,-204.7635"/>
</g>
<!-- Node14 -->
<g id="node15" class="node">
<title>Node14</title>
<polygon fill="none" stroke="#bfbfbf" points="1033,-185 1033,-204 1079,-204 1079,-185 1033,-185"/>
<text text-anchor="middle" x="1056" y="-192" font-family="Helvetica,sans-Serif" font-size="10.00" fill="#000000">cstdio</text>
</g>
<!-- Node12&#45;&gt;Node14 -->
<g id="edge15" class="edge">
<title>Node12&#45;&gt;Node14</title>
<path fill="none" stroke="#191970" d="M1130.535,-251.9005C1116.4513,-241.0544 1093.3112,-223.2339 1076.5461,-210.3229"/>
<polygon fill="#191970" stroke="#191970" points="1078.5003,-207.4102 1068.4419,-204.0817 1074.2292,-212.9562 1078.5003,-207.4102"/>
</g>
<!-- Node15&#45;&gt;Node1 -->
<g id="edge17" class="edge">
<title>Node15&#45;&gt;Node1</title>
<path fill="none" stroke="#191970" d="M931.845,-251.9005C927.5381,-241.95 920.6903,-226.1292 915.2735,-213.6147"/>
<polygon fill="#191970" stroke="#191970" points="918.3316,-211.8686 911.1473,-204.0817 911.9075,-214.6492 918.3316,-211.8686"/>
</g>
<!-- Node17&#45;&gt;Node1 -->
<g id="edge21" class="edge">
<title>Node17&#45;&gt;Node1</title>
<path fill="none" stroke="#191970" d="M688.7013,-249.007C741.0711,-240.3501 809.0821,-227.2692 868,-210 870.4471,-209.2827 872.9541,-208.4719 875.4589,-207.6064"/>
<polygon fill="#191970" stroke="#191970" points="876.8155,-210.8363 884.9768,-204.0803 874.3837,-204.2723 876.8155,-210.8363"/>
</g>
<!-- Node17&#45;&gt;Node2 -->
<g id="edge22" class="edge">
<title>Node17&#45;&gt;Node2</title>
<path fill="none" stroke="#191970" d="M517.2205,-255.1809C410.1451,-246.6161 233.4749,-230.064 171,-210 145.4137,-201.7829 81.1247,-164.0068 45.5804,-142.5334"/>
<polygon fill="#191970" stroke="#191970" points="47.1534,-139.394 36.7882,-137.1999 43.5228,-145.3789 47.1534,-139.394"/>
</g>
<!-- Node17&#45;&gt;Node8 -->
<g id="edge23" class="edge">
<title>Node17&#45;&gt;Node8</title>
<path fill="none" stroke="#191970" d="M677.0087,-246.3973C715.7083,-237.5613 763.5289,-225.1546 805,-210 806.5944,-209.4173 808.2156,-208.781 809.8393,-208.1093"/>
<polygon fill="#191970" stroke="#191970" points="811.3066,-211.2871 818.999,-204.0016 808.4423,-204.9 811.3066,-211.2871"/>
</g>
<!-- Node18 -->
<g id="node19" class="node">
<title>Node18</title>
<polygon fill="none" stroke="#bfbfbf" points="481,-118 481,-137 533,-137 533,-118 481,-118"/>
<text text-anchor="middle" x="507" y="-125" font-family="Helvetica,sans-Serif" font-size="10.00" fill="#000000">cassert</text>
</g>
<!-- Node17&#45;&gt;Node18 -->
<g id="edge24" class="edge">
<title>Node17&#45;&gt;Node18</title>
<path fill="none" stroke="#191970" d="M543.3215,-246.4109C524.951,-238.6621 506.7509,-227.1059 496,-210 483.9162,-190.7734 490.8142,-164.0617 497.9424,-146.3008"/>
<polygon fill="#191970" stroke="#191970" points="501.2096,-147.5655 502.0242,-137.002 494.7999,-144.7518 501.2096,-147.5655"/>
</g>
<!-- Node19 -->
<g id="node20" class="node">
<title>Node19</title>
<polygon fill="none" stroke="#bfbfbf" points="551,-118 551,-137 601,-137 601,-118 551,-118"/>
<text text-anchor="middle" x="576" y="-125" font-family="Helvetica,sans-Serif" font-size="10.00" fill="#000000">cstdint</text>
</g>
<!-- Node17&#45;&gt;Node19 -->
<g id="edge25" class="edge">
<title>Node17&#45;&gt;Node19</title>
<path fill="none" stroke="#191970" d="M599.9552,-246.389C595.034,-221.9649 585.3366,-173.8371 579.9109,-146.9095"/>
<polygon fill="#191970" stroke="#191970" points="583.3415,-146.2158 577.9352,-137.1042 576.4794,-147.5985 583.3415,-146.2158"/>
</g>
<!-- Node20 -->
<g id="node21" class="node">
<title>Node20</title>
<polygon fill="none" stroke="#bfbfbf" points="375.5,-185 375.5,-204 448.5,-204 448.5,-185 375.5,-185"/>
<text text-anchor="middle" x="412" y="-192" font-family="Helvetica,sans-Serif" font-size="10.00" fill="#000000">string_view</text>
</g>
<!-- Node17&#45;&gt;Node20 -->
<g id="edge26" class="edge">
<title>Node17&#45;&gt;Node20</title>
<path fill="none" stroke="#191970" d="M560.1359,-246.4639C526.6901,-234.7316 480.7183,-218.6054 448.8975,-207.4431"/>
<polygon fill="#191970" stroke="#191970" points="449.692,-204.0128 439.0972,-204.0053 447.3749,-210.6182 449.692,-204.0128"/>
</g>
<!-- Node21 -->
<g id="node22" class="node">
<title>Node21</title>
<polygon fill="none" stroke="#bfbfbf" points="619,-118 619,-137 663,-137 663,-118 619,-118"/>
<text text-anchor="middle" x="641" y="-125" font-family="Helvetica,sans-Serif" font-size="10.00" fill="#000000">string</text>
</g>
<!-- Node17&#45;&gt;Node21 -->
<g id="edge27" class="edge">
<title>Node17&#45;&gt;Node21</title>
<path fill="none" stroke="#191970" d="M607.2852,-246.389C614.2114,-221.9649 627.8596,-173.8371 635.4958,-146.9095"/>
<polygon fill="#191970" stroke="#191970" points="638.9153,-147.6797 638.2764,-137.1042 632.1809,-145.7699 638.9153,-147.6797"/>
</g>
<!-- Node22 -->
<g id="node23" class="node">
<title>Node22</title>
<polygon fill="none" stroke="#bfbfbf" points="505.5,-185 505.5,-204 574.5,-204 574.5,-185 505.5,-185"/>
<text text-anchor="middle" x="540" y="-192" font-family="Helvetica,sans-Serif" font-size="10.00" fill="#000000">type_traits</text>
</g>
<!-- Node17&#45;&gt;Node22 -->
<g id="edge28" class="edge">
<title>Node17&#45;&gt;Node22</title>
<path fill="none" stroke="#191970" d="M588.7043,-246.2967C578.9839,-235.9591 566.1106,-222.2684 556.0403,-211.5588"/>
<polygon fill="#191970" stroke="#191970" points="558.3846,-208.9426 548.9845,-204.055 553.285,-213.7378 558.3846,-208.9426"/>
</g>
<!-- Node23 -->
<g id="node24" class="node">
<title>Node23</title>
<g id="a_node24"><a xlink:href="../../d9/d52/Common_2MathUtils_2include_2MathUtils_2Utils_8h.html" target="_top" xlink:title="MathUtils/Utils.h">
<polygon fill="none" stroke="#000000" points="180,-185 180,-204 278,-204 278,-185 180,-185"/>
<text text-anchor="middle" x="229" y="-192" font-family="Helvetica,sans-Serif" font-size="10.00" fill="#000000">MathUtils/Utils.h</text>
</a>
</g>
</g>
<!-- Node17&#45;&gt;Node23 -->
<g id="edge29" class="edge">
<title>Node17&#45;&gt;Node23</title>
<path fill="none" stroke="#191970" d="M519.0671,-246.4639C448.8879,-233.8917 350.5441,-216.2739 288.3129,-205.1256"/>
<polygon fill="#191970" stroke="#191970" points="288.727,-201.6441 278.2665,-203.3258 287.4926,-208.5344 288.727,-201.6441"/>
</g>
<!-- Node31 -->
<g id="node32" class="node">
<title>Node31</title>
<g id="a_node32"><a xlink:href="../../dc/dcd/DataHeader_8h.html" target="_top" xlink:title="Headers/DataHeader.h">
<polygon fill="none" stroke="#000000" points="669.5,-185 669.5,-204 796.5,-204 796.5,-185 669.5,-185"/>
<text text-anchor="middle" x="733" y="-192" font-family="Helvetica,sans-Serif" font-size="10.00" fill="#000000">Headers/DataHeader.h</text>
</a>
</g>
</g>
<!-- Node17&#45;&gt;Node31 -->
<g id="edge40" class="edge">
<title>Node17&#45;&gt;Node31</title>
<path fill="none" stroke="#191970" d="M632.1745,-246.4639C654.0851,-235.1715 683.8938,-219.8086 705.4105,-208.7192"/>
<polygon fill="#191970" stroke="#191970" points="707.0801,-211.7963 714.3655,-204.1039 703.8732,-205.5741 707.0801,-211.7963"/>
</g>
<!-- Node23&#45;&gt;Node2 -->
<g id="edge30" class="edge">
<title>Node23&#45;&gt;Node2</title>
<path fill="none" stroke="#191970" d="M192.1051,-184.9848C156.7726,-175.5294 102.1639,-160.0144 56,-143 54.371,-142.3996 52.7099,-141.7603 51.0403,-141.0963"/>
<polygon fill="#191970" stroke="#191970" points="52.1246,-137.7559 41.5487,-137.1223 49.4211,-144.2129 52.1246,-137.7559"/>
</g>
<!-- Node24 -->
<g id="node25" class="node">
<title>Node24</title>
<polygon fill="none" stroke="#bfbfbf" points="323.5,-56.5 323.5,-75.5 370.5,-75.5 370.5,-56.5 323.5,-56.5"/>
<text text-anchor="middle" x="347" y="-63.5" font-family="Helvetica,sans-Serif" font-size="10.00" fill="#000000">cmath</text>
</g>
<!-- Node23&#45;&gt;Node24 -->
<g id="edge31" class="edge">
<title>Node23&#45;&gt;Node24</title>
<path fill="none" stroke="#191970" d="M199.2429,-184.9533C160.734,-171.0586 101.4347,-143.4637 127,-112 150.059,-83.6209 257.272,-72.1397 313.0593,-68.025"/>
<polygon fill="#191970" stroke="#191970" points="313.4367,-71.5072 323.1684,-67.3186 312.9488,-64.5242 313.4367,-71.5072"/>
</g>
<!-- Node25 -->
<g id="node26" class="node">
<title>Node25</title>
<g id="a_node26"><a xlink:href="../../df/d21/GPUCommonDef_8h.html" target="_top" xlink:title="GPUCommonDef.h">
<polygon fill="none" stroke="#000000" points="115.5,-56.5 115.5,-75.5 222.5,-75.5 222.5,-56.5 115.5,-56.5"/>
<text text-anchor="middle" x="169" y="-63.5" font-family="Helvetica,sans-Serif" font-size="10.00" fill="#000000">GPUCommonDef.h</text>
</a>
</g>
</g>
<!-- Node23&#45;&gt;Node25 -->
<g id="edge32" class="edge">
<title>Node23&#45;&gt;Node25</title>
<path fill="none" stroke="#191970" d="M190.4145,-184.9953C154.6501,-175.3124 105.3127,-159.4235 94,-143 86.1844,-131.6535 87.2702,-124.0224 94,-112 102.0789,-97.5676 116.7415,-87.1145 130.9729,-79.8565"/>
<polygon fill="#191970" stroke="#191970" points="132.6186,-82.9506 140.1892,-75.5387 129.6489,-76.6118 132.6186,-82.9506"/>
</g>
<!-- Node28 -->
<g id="node29" class="node">
<title>Node28</title>
<g id="a_node29"><a xlink:href="../../d6/da2/GPUCommonMath_8h.html" target="_top" xlink:title="GPUCommonMath.h">
<polygon fill="none" stroke="#000000" points="347.5,-118 347.5,-137 462.5,-137 462.5,-118 347.5,-118"/>
<text text-anchor="middle" x="405" y="-125" font-family="Helvetica,sans-Serif" font-size="10.00" fill="#000000">GPUCommonMath.h</text>
</a>
</g>
</g>
<!-- Node23&#45;&gt;Node28 -->
<g id="edge35" class="edge">
<title>Node23&#45;&gt;Node28</title>
<path fill="none" stroke="#191970" d="M254.2165,-184.9005C284.6681,-173.3082 336.0485,-153.7486 370.243,-140.7313"/>
<polygon fill="#191970" stroke="#191970" points="371.7298,-143.9105 379.8303,-137.0817 369.2393,-137.3685 371.7298,-143.9105"/>
</g>
<!-- Node30 -->
<g id="node31" class="node">
<title>Node30</title>
<g id="a_node31"><a xlink:href="../../d6/d84/MathConstants_8h.html" target="_top" xlink:title="useful math constants ">
<polygon fill="none" stroke="#000000" points="136,-118 136,-137 330,-137 330,-118 136,-118"/>
<text text-anchor="middle" x="233" y="-125" font-family="Helvetica,sans-Serif" font-size="10.00" fill="#000000">CommonConstants/MathConstants.h</text>
</a>
</g>
</g>
<!-- Node23&#45;&gt;Node30 -->
<g id="edge39" class="edge">
<title>Node23&#45;&gt;Node30</title>
<path fill="none" stroke="#191970" d="M229.5731,-184.9005C230.1553,-175.149 231.074,-159.7597 231.8138,-147.3695"/>
<polygon fill="#191970" stroke="#191970" points="235.3257,-147.2725 232.428,-137.0817 228.3381,-146.8553 235.3257,-147.2725"/>
</g>
<!-- Node26 -->
<g id="node27" class="node">
<title>Node26</title>
<g id="a_node27"><a xlink:href="../../d5/d93/GPUCommonDefSettings_8h.html" target="_top" xlink:title="GPUCommonDefSettings.h">
<polygon fill="none" stroke="#000000" points="18,-.5 18,-19.5 166,-19.5 166,-.5 18,-.5"/>
<text text-anchor="middle" x="92" y="-7.5" font-family="Helvetica,sans-Serif" font-size="10.00" fill="#000000">GPUCommonDefSettings.h</text>
</a>
</g>
</g>
<!-- Node25&#45;&gt;Node26 -->
<g id="edge33" class="edge">
<title>Node25&#45;&gt;Node26</title>
<path fill="none" stroke="#191970" d="M155.5876,-56.2455C143.9943,-47.814 127.0252,-35.4729 113.5322,-25.6598"/>
<polygon fill="#191970" stroke="#191970" points="115.4047,-22.6938 105.2587,-19.6427 111.2874,-28.355 115.4047,-22.6938"/>
</g>
<!-- Node27 -->
<g id="node28" class="node">
<title>Node27</title>
<g id="a_node28"><a xlink:href="../../da/d5a/GPUCommonDefAPI_8h.html" target="_top" xlink:title="GPUCommonDefAPI.h">
<polygon fill="none" stroke="#000000" points="184,-.5 184,-19.5 308,-19.5 308,-.5 184,-.5"/>
<text text-anchor="middle" x="246" y="-7.5" font-family="Helvetica,sans-Serif" font-size="10.00" fill="#000000">GPUCommonDefAPI.h</text>
</a>
</g>
</g>
<!-- Node25&#45;&gt;Node27 -->
<g id="edge34" class="edge">
<title>Node25&#45;&gt;Node27</title>
<path fill="none" stroke="#191970" d="M182.4124,-56.2455C194.0057,-47.814 210.9748,-35.4729 224.4678,-25.6598"/>
<polygon fill="#191970" stroke="#191970" points="226.7126,-28.355 232.7413,-19.6427 222.5953,-22.6938 226.7126,-28.355"/>
</g>
<!-- Node28&#45;&gt;Node24 -->
<g id="edge37" class="edge">
<title>Node28&#45;&gt;Node24</title>
<path fill="none" stroke="#191970" d="M395.9375,-117.8906C387.2207,-108.6478 373.846,-94.466 363.2804,-83.2628"/>
<polygon fill="#191970" stroke="#191970" points="365.5976,-80.6186 356.1903,-75.7449 360.505,-85.4213 365.5976,-80.6186"/>
</g>
<!-- Node28&#45;&gt;Node25 -->
<g id="edge36" class="edge">
<title>Node28&#45;&gt;Node25</title>
<path fill="none" stroke="#191970" d="M368.3839,-117.9581C327.2189,-107.2308 260.2899,-89.7895 215.4709,-78.11"/>
<polygon fill="#191970" stroke="#191970" points="216.2614,-74.6992 205.702,-75.5643 214.4962,-81.473 216.2614,-74.6992"/>
</g>
<!-- Node29 -->
<g id="node30" class="node">
<title>Node29</title>
<polygon fill="none" stroke="#bfbfbf" points="430,-56.5 430,-75.5 494,-75.5 494,-56.5 430,-56.5"/>
<text text-anchor="middle" x="462" y="-63.5" font-family="Helvetica,sans-Serif" font-size="10.00" fill="#000000">algorithm</text>
</g>
<!-- Node28&#45;&gt;Node29 -->
<g id="edge38" class="edge">
<title>Node28&#45;&gt;Node29</title>
<path fill="none" stroke="#191970" d="M413.9063,-117.8906C422.4728,-108.6478 435.6169,-94.466 446.0003,-83.2628"/>
<polygon fill="#191970" stroke="#191970" points="448.7375,-85.4584 452.9682,-75.7449 443.6035,-80.7 448.7375,-85.4584"/>
</g>
<!-- Node31&#45;&gt;Node18 -->
<g id="edge43" class="edge">
<title>Node31&#45;&gt;Node18</title>
<path fill="none" stroke="#191970" d="M690.3236,-184.9806C651.2337,-175.795 592.0215,-160.702 542,-143 540.1675,-142.3515 538.2969,-141.6489 536.4207,-140.9129"/>
<polygon fill="#191970" stroke="#191970" points="537.7221,-137.6635 527.145,-137.0519 535.0321,-144.1261 537.7221,-137.6635"/>
</g>
<!-- Node31&#45;&gt;Node19 -->
<g id="edge41" class="edge">
<title>Node31&#45;&gt;Node19</title>
<path fill="none" stroke="#191970" d="M709.3269,-184.8448C684.4912,-174.6554 644.3635,-158.0225 610,-143 608.7963,-142.4738 607.5703,-141.9339 606.3331,-141.3856"/>
<polygon fill="#191970" stroke="#191970" points="607.3681,-138.0138 596.8117,-137.1119 604.5016,-144.4 607.3681,-138.0138"/>
</g>
<!-- Node31&#45;&gt;Node21 -->
<g id="edge47" class="edge">
<title>Node31&#45;&gt;Node21</title>
<path fill="none" stroke="#191970" d="M719.8186,-184.9005C704.7889,-173.9549 680.0058,-155.9064 662.2407,-142.9688"/>
<polygon fill="#191970" stroke="#191970" points="664.3009,-140.1394 654.1569,-137.0817 660.18,-145.7979 664.3009,-140.1394"/>
</g>
<!-- Node31&#45;&gt;Node29 -->
<g id="edge45" class="edge">
<title>Node31&#45;&gt;Node29</title>
<path fill="none" stroke="#191970" d="M775.7563,-184.9393C785.6625,-182.8584 796.1796,-180.7563 806,-179 917.9682,-158.9748 1130.246,-195.4921 1053,-112 1034.3718,-91.8656 636.7727,-73.3594 504.4251,-67.7372"/>
<polygon fill="#191970" stroke="#191970" points="504.4076,-64.2335 494.2691,-67.309 504.1127,-71.2272 504.4076,-64.2335"/>
</g>
<!-- Node32 -->
<g id="node33" class="node">
<title>Node32</title>
<polygon fill="none" stroke="#bfbfbf" points="1101,-118 1101,-137 1159,-137 1159,-118 1101,-118"/>
<text text-anchor="middle" x="1130" y="-125" font-family="Helvetica,sans-Serif" font-size="10.00" fill="#000000">memory</text>
</g>
<!-- Node31&#45;&gt;Node32 -->
<g id="edge42" class="edge">
<title>Node31&#45;&gt;Node32</title>
<path fill="none" stroke="#191970" d="M774.9638,-184.9763C785.0946,-182.8472 795.9093,-180.7147 806,-179 930.1302,-157.9067 964.6009,-172.5245 1087,-143 1090.1628,-142.2371 1093.4155,-141.321 1096.6482,-140.3203"/>
<polygon fill="#191970" stroke="#191970" points="1097.8028,-143.6247 1106.176,-137.1332 1095.5822,-136.9863 1097.8028,-143.6247"/>
</g>
<!-- Node33 -->
<g id="node34" class="node">
<title>Node33</title>
<polygon fill="none" stroke="#bfbfbf" points="1177,-118 1177,-137 1227,-137 1227,-118 1177,-118"/>
<text text-anchor="middle" x="1202" y="-125" font-family="Helvetica,sans-Serif" font-size="10.00" fill="#000000">cstring</text>
</g>
<!-- Node31&#45;&gt;Node33 -->
<g id="edge44" class="edge">
<title>Node31&#45;&gt;Node33</title>
<path fill="none" stroke="#191970" d="M774.1623,-184.9325C784.514,-182.755 795.63,-180.6115 806,-179 965.7648,-154.1718 1011.8951,-185.1008 1168,-143 1170.1883,-142.4098 1172.4125,-141.6921 1174.6222,-140.8925"/>
<polygon fill="#191970" stroke="#191970" points="1176.1457,-144.0503 1184.0592,-137.0057 1173.4798,-137.5778 1176.1457,-144.0503"/>
</g>
<!-- Node34 -->
<g id="node35" class="node">
<title>Node34</title>
<polygon fill="none" stroke="#bfbfbf" points="681.5,-118 681.5,-137 746.5,-137 746.5,-118 681.5,-118"/>
<text text-anchor="middle" x="714" y="-125" font-family="Helvetica,sans-Serif" font-size="10.00" fill="#000000">stdexcept</text>
</g>
<!-- Node31&#45;&gt;Node34 -->
<g id="edge46" class="edge">
<title>Node31&#45;&gt;Node34</title>
<path fill="none" stroke="#191970" d="M730.2778,-184.9005C727.4842,-175.0495 723.059,-159.4451 719.5273,-146.9912"/>
<polygon fill="#191970" stroke="#191970" points="722.8127,-145.7474 716.7172,-137.0817 716.0783,-147.6572 722.8127,-145.7474"/>
</g>
<!-- Node35 -->
<g id="node36" class="node">
<title>Node35</title>
<polygon fill="none" stroke="#bfbfbf" points="765,-118 765,-137 815,-137 815,-118 765,-118"/>
<text text-anchor="middle" x="790" y="-125" font-family="Helvetica,sans-Serif" font-size="10.00" fill="#000000">climits</text>
</g>
<!-- Node31&#45;&gt;Node35 -->
<g id="edge48" class="edge">
<title>Node31&#45;&gt;Node35</title>
<path fill="none" stroke="#191970" d="M741.1667,-184.9005C750.0554,-174.4525 764.45,-157.5325 775.3131,-144.7635"/>
<polygon fill="#191970" stroke="#191970" points="778.0344,-146.9662 781.8484,-137.0817 772.7028,-142.4303 778.0344,-146.9662"/>
</g>
<!-- Node36 -->
<g id="node37" class="node">
<title>Node36</title>
<g id="a_node37"><a xlink:href="../../d7/df8/Types_8h.html" target="_top" xlink:title="MemoryResources/Types.h">
<polygon fill="none" stroke="#000000" points="833,-118 833,-137 979,-137 979,-118 833,-118"/>
<text text-anchor="middle" x="906" y="-125" font-family="Helvetica,sans-Serif" font-size="10.00" fill="#000000">MemoryResources/Types.h</text>
</a>
</g>
</g>
<!-- Node31&#45;&gt;Node36 -->
<g id="edge49" class="edge">
<title>Node31&#45;&gt;Node36</title>
<path fill="none" stroke="#191970" d="M757.7867,-184.9005C787.7192,-173.3082 838.2239,-153.7486 871.8355,-140.7313"/>
<polygon fill="#191970" stroke="#191970" points="873.1982,-143.957 881.2593,-137.0817 870.6702,-137.4294 873.1982,-143.957"/>
</g>
<!-- Node37 -->
<g id="node38" class="node">
<title>Node37</title>
<polygon fill="none" stroke="#bfbfbf" points="997.5,-118 997.5,-137 1044.5,-137 1044.5,-118 997.5,-118"/>
<text text-anchor="middle" x="1021" y="-125" font-family="Helvetica,sans-Serif" font-size="10.00" fill="#000000">cerrno</text>
</g>
<!-- Node31&#45;&gt;Node37 -->
<g id="edge50" class="edge">
<title>Node31&#45;&gt;Node37</title>
<path fill="none" stroke="#191970" d="M777.3739,-184.9748C786.8177,-182.9766 796.7348,-180.8999 806,-179 886.7754,-162.4366 909.6573,-168.7184 988,-143 989.8493,-142.3929 991.7304,-141.708 993.6091,-140.9728"/>
<polygon fill="#191970" stroke="#191970" points="995.0232,-144.1747 1002.8229,-137.0042 992.2541,-137.7456 995.0232,-144.1747"/>
</g>
<!-- Node38&#45;&gt;Node1 -->
<g id="edge57" class="edge">
<title>Node38&#45;&gt;Node1</title>
<path fill="none" stroke="#191970" d="M1365.0524,-256.6149C1250.4659,-247.9917 1023.6966,-229.1641 946,-210 943.2146,-209.313 940.3634,-208.4706 937.5326,-207.5369"/>
<polygon fill="#191970" stroke="#191970" points="938.7055,-204.2393 928.1115,-204.1038 936.3088,-210.8162 938.7055,-204.2393"/>
</g>
<!-- Node38&#45;&gt;Node3 -->
<g id="edge59" class="edge">
<title>Node38&#45;&gt;Node3</title>
<path fill="none" stroke="#191970" d="M1500.6596,-257.5927C1701.1002,-245.996 2278.4761,-212.4282 2288,-210 2289.978,-209.4957 2291.9814,-208.8725 2293.9724,-208.1683"/>
<polygon fill="#191970" stroke="#191970" points="2295.7565,-211.2171 2303.6486,-204.1484 2293.071,-204.7528 2295.7565,-211.2171"/>
</g>
<!-- Node39 -->
<g id="node40" class="node">
<title>Node39</title>
<polygon fill="none" stroke="#bfbfbf" points="1351,-179.5 1351,-209.5 1515,-209.5 1515,-179.5 1351,-179.5"/>
<text text-anchor="start" x="1359" y="-197.5" font-family="Helvetica,sans-Serif" font-size="10.00" fill="#000000">Math/GenVector/Displacement</text>
<text text-anchor="middle" x="1433" y="-186.5" font-family="Helvetica,sans-Serif" font-size="10.00" fill="#000000">Vector3D.h</text>
</g>
<!-- Node38&#45;&gt;Node39 -->
<g id="edge52" class="edge">
<title>Node38&#45;&gt;Node39</title>
<path fill="none" stroke="#191970" d="M1433,-251.9005C1433,-243.5099 1433,-230.9451 1433,-219.7085"/>
<polygon fill="#191970" stroke="#191970" points="1436.5001,-219.5217 1433,-209.5218 1429.5001,-219.5218 1436.5001,-219.5217"/>
</g>
<!-- Node40 -->
<g id="node41" class="node">
<title>Node40</title>
<polygon fill="none" stroke="#bfbfbf" points="1533.5,-185 1533.5,-204 1722.5,-204 1722.5,-185 1533.5,-185"/>
<text text-anchor="middle" x="1628" y="-192" font-family="Helvetica,sans-Serif" font-size="10.00" fill="#000000">Math/GenVector/PositionVector3D.h</text>
</g>
<!-- Node38&#45;&gt;Node40 -->
<g id="edge53" class="edge">
<title>Node38&#45;&gt;Node40</title>
<path fill="none" stroke="#191970" d="M1460.9387,-251.9005C1494.9674,-240.2086 1552.5839,-220.4122 1590.4622,-207.3976"/>
<polygon fill="#191970" stroke="#191970" points="1591.7931,-210.6412 1600.1131,-204.0817 1589.5184,-204.0211 1591.7931,-210.6412"/>
</g>
<!-- Node41 -->
<g id="node42" class="node">
<title>Node41</title>
<polygon fill="none" stroke="#bfbfbf" points="1741,-185 1741,-204 1901,-204 1901,-185 1741,-185"/>
<text text-anchor="middle" x="1821" y="-192" font-family="Helvetica,sans-Serif" font-size="10.00" fill="#000000">Math/GenVector/Rotation3D.h</text>
</g>
<!-- Node38&#45;&gt;Node41 -->
<g id="edge54" class="edge">
<title>Node38&#45;&gt;Node41</title>
<path fill="none" stroke="#191970" d="M1488.3882,-251.9916C1548.4126,-241.6799 1647.0115,-224.7199 1732,-210 1739.9105,-208.6299 1748.2158,-207.188 1756.4418,-205.7578"/>
<polygon fill="#191970" stroke="#191970" points="1757.1523,-209.1869 1766.4045,-204.0247 1755.9525,-202.2905 1757.1523,-209.1869"/>
</g>
<!-- Node42 -->
<g id="node43" class="node">
<title>Node42</title>
<polygon fill="none" stroke="#bfbfbf" points="1919,-185 1919,-204 2087,-204 2087,-185 1919,-185"/>
<text text-anchor="middle" x="2003" y="-192" font-family="Helvetica,sans-Serif" font-size="10.00" fill="#000000">Math/GenVector/Transform3D.h</text>
</g>
<!-- Node38&#45;&gt;Node42 -->
<g id="edge55" class="edge">
<title>Node38&#45;&gt;Node42</title>
<path fill="none" stroke="#191970" d="M1500.6881,-255.4299C1593.2844,-246.8438 1764.5573,-229.9548 1910,-210 1919.3879,-208.712 1929.2857,-207.2139 1938.9827,-205.6665"/>
<polygon fill="#191970" stroke="#191970" points="1939.6754,-209.1 1948.9855,-204.043 1938.5539,-202.1904 1939.6754,-209.1"/>
</g>
<!-- Node43 -->
<g id="node44" class="node">
<title>Node43</title>
<polygon fill="none" stroke="#bfbfbf" points="2105.5,-185 2105.5,-204 2278.5,-204 2278.5,-185 2105.5,-185"/>
<text text-anchor="middle" x="2192" y="-192" font-family="Helvetica,sans-Serif" font-size="10.00" fill="#000000">Math/GenVector/Translation3D.h</text>
</g>
<!-- Node38&#45;&gt;Node43 -->
<g id="edge56" class="edge">
<title>Node38&#45;&gt;Node43</title>
<path fill="none" stroke="#191970" d="M1500.9466,-258.078C1621.2156,-251.6073 1879.3358,-235.8613 2096,-210 2106.3534,-208.7642 2117.2989,-207.2225 2127.948,-205.5945"/>
<polygon fill="#191970" stroke="#191970" points="2128.7002,-209.0194 2138.0382,-204.0143 2127.6171,-202.1037 2128.7002,-209.0194"/>
</g>
<!-- Node44 -->
<g id="node45" class="node">
<title>Node44</title>
<polygon fill="none" stroke="#bfbfbf" points="1097,-185 1097,-204 1179,-204 1179,-185 1097,-185"/>
<text text-anchor="middle" x="1138" y="-192" font-family="Helvetica,sans-Serif" font-size="10.00" fill="#000000">TGeoMatrix.h</text>
</g>
<!-- Node38&#45;&gt;Node44 -->
<g id="edge58" class="edge">
<title>Node38&#45;&gt;Node44</title>
<path fill="none" stroke="#191970" d="M1381.2879,-251.9413C1331.6897,-242.4544 1254.8333,-226.9174 1189,-210 1185.2258,-209.0301 1181.3133,-207.9599 1177.4102,-206.8487"/>
<polygon fill="#191970" stroke="#191970" points="1178.3921,-203.4893 1167.8113,-204.0355 1176.4233,-210.2068 1178.3921,-203.4893"/>
</g>
<!-- Node45 -->
<g id="node46" class="node">
<title>Node45</title>
<g id="a_node46"><a xlink:href="../../d2/dd0/Cartesian2D_8h.html" target="_top" xlink:title="MathUtils/Cartesian2D.h">
<polygon fill="none" stroke="#000000" points="1197.5,-185 1197.5,-204 1332.5,-204 1332.5,-185 1197.5,-185"/>
<text text-anchor="middle" x="1265" y="-192" font-family="Helvetica,sans-Serif" font-size="10.00" fill="#000000">MathUtils/Cartesian2D.h</text>
</a>
</g>
</g>
<!-- Node38&#45;&gt;Node45 -->
<g id="edge60" class="edge">
<title>Node38&#45;&gt;Node45</title>
<path fill="none" stroke="#191970" d="M1408.9297,-251.9005C1379.987,-240.3579 1331.2379,-220.9163 1298.5983,-207.8993"/>
<polygon fill="#191970" stroke="#191970" points="1299.6108,-204.5351 1289.0257,-204.0817 1297.0177,-211.0371 1299.6108,-204.5351"/>
</g>
<!-- Node46 -->
<g id="node47" class="node">
<title>Node46</title>
<polygon fill="none" stroke="#bfbfbf" points="1453,-112.5 1453,-142.5 1617,-142.5 1617,-112.5 1453,-112.5"/>
<text text-anchor="start" x="1461" y="-130.5" font-family="Helvetica,sans-Serif" font-size="10.00" fill="#000000">Math/GenVector/Displacement</text>
<text text-anchor="middle" x="1535" y="-119.5" font-family="Helvetica,sans-Serif" font-size="10.00" fill="#000000">Vector2D.h</text>
</g>
<!-- Node45&#45;&gt;Node46 -->
<g id="edge61" class="edge">
<title>Node45&#45;&gt;Node46</title>
<path fill="none" stroke="#191970" d="M1303.3977,-184.9717C1345.2509,-174.5859 1413.1178,-157.7449 1464.5923,-144.9715"/>
<polygon fill="#191970" stroke="#191970" points="1465.4665,-148.3608 1474.3292,-142.5553 1463.7806,-141.5669 1465.4665,-148.3608"/>
</g>
<!-- Node47 -->
<g id="node48" class="node">
<title>Node47</title>
<polygon fill="none" stroke="#bfbfbf" points="1245.5,-118 1245.5,-137 1434.5,-137 1434.5,-118 1245.5,-118"/>
<text text-anchor="middle" x="1340" y="-125" font-family="Helvetica,sans-Serif" font-size="10.00" fill="#000000">Math/GenVector/PositionVector2D.h</text>
</g>
<!-- Node45&#45;&gt;Node47 -->
<g id="edge62" class="edge">
<title>Node45&#45;&gt;Node47</title>
<path fill="none" stroke="#191970" d="M1275.7457,-184.9005C1287.664,-174.2535 1307.1057,-156.8856 1321.4868,-144.0385"/>
<polygon fill="#191970" stroke="#191970" points="1324.1484,-146.354 1329.2743,-137.0817 1319.4849,-141.1337 1324.1484,-146.354"/>
</g>
</g>
</svg>
