<?xml version="1.0" encoding="UTF-8" standalone="no"?>
<!DOCTYPE svg PUBLIC "-//W3C//DTD SVG 1.1//EN"
 "http://www.w3.org/Graphics/SVG/1.1/DTD/svg11.dtd">
<!-- Generated by graphviz version 2.40.1 (20161225.0304)
 -->
<!-- Title: /home/travis/build/AliceO2Group/AliceO2/Detectors/ITSMFT/MFT/tracking/include/MFTTracking/TrackParamMFT.h Pages: 1 -->
<svg width="2549pt" height="575pt"
 viewBox="0.00 0.00 2548.50 575.00" xmlns="http://www.w3.org/2000/svg" xmlns:xlink="http://www.w3.org/1999/xlink">
<g id="graph0" class="graph" transform="scale(1 1) rotate(0) translate(4 571)">
<title>/home/travis/build/AliceO2Group/AliceO2/Detectors/ITSMFT/MFT/tracking/include/MFTTracking/TrackParamMFT.h</title>
<!-- Node0 -->
<g id="node1" class="node">
<title>Node0</title>
<polygon fill="#bfbfbf" stroke="#000000" points="946.5,-503.5 946.5,-566.5 1107.5,-566.5 1107.5,-503.5 946.5,-503.5"/>
<text text-anchor="start" x="954.5" y="-554.5" font-family="Helvetica,sans-Serif" font-size="10.00" fill="#000000">/home/travis/build</text>
<text text-anchor="start" x="954.5" y="-543.5" font-family="Helvetica,sans-Serif" font-size="10.00" fill="#000000">/AliceO2Group/AliceO2</text>
<text text-anchor="start" x="954.5" y="-532.5" font-family="Helvetica,sans-Serif" font-size="10.00" fill="#000000">/Detectors/ITSMFT/MFT</text>
<text text-anchor="start" x="954.5" y="-521.5" font-family="Helvetica,sans-Serif" font-size="10.00" fill="#000000">/tracking/include/MFTTracking</text>
<text text-anchor="middle" x="1027" y="-510.5" font-family="Helvetica,sans-Serif" font-size="10.00" fill="#000000">/TrackParamMFT.h</text>
</g>
<!-- Node1 -->
<g id="node2" class="node">
<title>Node1</title>
<polygon fill="none" stroke="#bfbfbf" points="883,-447.5 883,-466.5 953,-466.5 953,-447.5 883,-447.5"/>
<text text-anchor="middle" x="918" y="-454.5" font-family="Helvetica,sans-Serif" font-size="10.00" fill="#000000">TMatrixD.h</text>
</g>
<!-- Node0&#45;&gt;Node1 -->
<g id="edge1" class="edge">
<title>Node0&#45;&gt;Node1</title>
<path fill="none" stroke="#191970" d="M982.9797,-503.4992C968.1457,-492.8841 952.2352,-481.4986 939.8709,-472.6507"/>
<polygon fill="#191970" stroke="#191970" points="941.7296,-469.677 931.5605,-466.7039 937.656,-475.3696 941.7296,-469.677"/>
</g>
<!-- Node2 -->
<g id="node3" class="node">
<title>Node2</title>
<polygon fill="none" stroke="#bfbfbf" points="971,-447.5 971,-466.5 1027,-466.5 1027,-447.5 971,-447.5"/>
<text text-anchor="middle" x="999" y="-454.5" font-family="Helvetica,sans-Serif" font-size="10.00" fill="#000000">TMath.h</text>
</g>
<!-- Node0&#45;&gt;Node2 -->
<g id="edge2" class="edge">
<title>Node0&#45;&gt;Node2</title>
<path fill="none" stroke="#191970" d="M1015.6113,-503.2744C1012.3268,-494.1246 1008.8434,-484.4209 1005.9194,-476.2754"/>
<polygon fill="#191970" stroke="#191970" points="1009.1343,-474.872 1002.4614,-466.6426 1002.546,-477.2371 1009.1343,-474.872"/>
</g>
<!-- Node3 -->
<g id="node4" class="node">
<title>Node3</title>
<g id="a_node4"><a xlink:href="../../d1/d62/DataFormats_2Detectors_2ITSMFT_2common_2include_2DataFormatsITSMFT_2Cluster_8h.html" target="_top" xlink:title="DataFormatsITSMFT/Cluster.h">
<polygon fill="none" stroke="#000000" points="1126,-447.5 1126,-466.5 1286,-466.5 1286,-447.5 1126,-447.5"/>
<text text-anchor="middle" x="1206" y="-454.5" font-family="Helvetica,sans-Serif" font-size="10.00" fill="#000000">DataFormatsITSMFT/Cluster.h</text>
</a>
</g>
</g>
<!-- Node0&#45;&gt;Node3 -->
<g id="edge3" class="edge">
<title>Node0&#45;&gt;Node3</title>
<path fill="none" stroke="#191970" d="M1099.2902,-503.4992C1125.592,-492.0381 1153.9545,-479.6791 1174.8232,-470.5854"/>
<polygon fill="#191970" stroke="#191970" points="1176.3672,-473.7306 1184.1364,-466.5271 1173.5708,-467.3133 1176.3672,-473.7306"/>
</g>
<!-- Node49 -->
<g id="node50" class="node">
<title>Node49</title>
<g id="a_node50"><a xlink:href="../../dc/de5/Detectors_2ITSMFT_2MFT_2base_2include_2MFTBase_2Constants_8h.html" target="_top" xlink:title="MFTBase/Constants.h">
<polygon fill="none" stroke="#000000" points="973.5,-386 973.5,-405 1094.5,-405 1094.5,-386 973.5,-386"/>
<text text-anchor="middle" x="1034" y="-393" font-family="Helvetica,sans-Serif" font-size="10.00" fill="#000000">MFTBase/Constants.h</text>
</a>
</g>
</g>
<!-- Node0&#45;&gt;Node49 -->
<g id="edge62" class="edge">
<title>Node0&#45;&gt;Node49</title>
<path fill="none" stroke="#191970" d="M1032.0808,-503.2592C1033.6725,-491.8581 1035.2171,-478.8827 1036,-467 1036.5844,-458.1303 1036.1725,-455.8872 1036,-447 1035.7978,-436.5835 1035.3658,-424.9885 1034.9549,-415.442"/>
<polygon fill="#191970" stroke="#191970" points="1038.4476,-415.2004 1034.4972,-405.3696 1031.4548,-415.5182 1038.4476,-415.2004"/>
</g>
<!-- Node4 -->
<g id="node5" class="node">
<title>Node4</title>
<g id="a_node5"><a xlink:href="../../d4/de2/BaseCluster_8h.html" target="_top" xlink:title="ReconstructionDataFormats\l/BaseCluster.h">
<polygon fill="none" stroke="#000000" points="1152,-380.5 1152,-410.5 1304,-410.5 1304,-380.5 1152,-380.5"/>
<text text-anchor="start" x="1160" y="-398.5" font-family="Helvetica,sans-Serif" font-size="10.00" fill="#000000">ReconstructionDataFormats</text>
<text text-anchor="middle" x="1228" y="-387.5" font-family="Helvetica,sans-Serif" font-size="10.00" fill="#000000">/BaseCluster.h</text>
</a>
</g>
</g>
<!-- Node3&#45;&gt;Node4 -->
<g id="edge4" class="edge">
<title>Node3&#45;&gt;Node4</title>
<path fill="none" stroke="#191970" d="M1209.4375,-447.3906C1212.0565,-440.0692 1215.7842,-429.6488 1219.2126,-420.0647"/>
<polygon fill="#191970" stroke="#191970" points="1222.5454,-421.1392 1222.6182,-410.5446 1215.9544,-418.7814 1222.5454,-421.1392"/>
</g>
<!-- Node5 -->
<g id="node6" class="node">
<title>Node5</title>
<polygon fill="none" stroke="#bfbfbf" points="995.5,-319 995.5,-338 1058.5,-338 1058.5,-319 995.5,-319"/>
<text text-anchor="middle" x="1027" y="-326" font-family="Helvetica,sans-Serif" font-size="10.00" fill="#000000">TObject.h</text>
</g>
<!-- Node4&#45;&gt;Node5 -->
<g id="edge5" class="edge">
<title>Node4&#45;&gt;Node5</title>
<path fill="none" stroke="#191970" d="M1178.4186,-380.4852C1146.4519,-370.597 1104.078,-357.1007 1067,-344 1064.889,-343.2541 1062.7221,-342.4697 1060.5417,-341.666"/>
<polygon fill="#191970" stroke="#191970" points="1061.618,-338.3313 1051.0261,-338.0794 1059.149,-344.8815 1061.618,-338.3313"/>
</g>
<!-- Node6 -->
<g id="node7" class="node">
<title>Node6</title>
<polygon fill="none" stroke="#bfbfbf" points="974,-185 974,-204 1018,-204 1018,-185 974,-185"/>
<text text-anchor="middle" x="996" y="-192" font-family="Helvetica,sans-Serif" font-size="10.00" fill="#000000">bitset</text>
</g>
<!-- Node4&#45;&gt;Node6 -->
<g id="edge6" class="edge">
<title>Node4&#45;&gt;Node6</title>
<path fill="none" stroke="#191970" d="M1151.8571,-384.179C1084.9426,-373.4526 996.5917,-357.0829 986,-344 955.5594,-306.3997 974.6248,-244.5303 987.3322,-213.4974"/>
<polygon fill="#191970" stroke="#191970" points="990.5802,-214.8041 991.3173,-204.2349 984.15,-212.0376 990.5802,-214.8041"/>
</g>
<!-- Node7 -->
<g id="node8" class="node">
<title>Node7</title>
<polygon fill="none" stroke="#bfbfbf" points="1266,-319 1266,-338 1322,-338 1322,-319 1266,-319"/>
<text text-anchor="middle" x="1294" y="-326" font-family="Helvetica,sans-Serif" font-size="10.00" fill="#000000">iomanip</text>
</g>
<!-- Node4&#45;&gt;Node7 -->
<g id="edge7" class="edge">
<title>Node4&#45;&gt;Node7</title>
<path fill="none" stroke="#191970" d="M1242.9764,-380.2967C1253.2595,-369.8578 1266.9108,-355.9997 1277.5053,-345.2446"/>
<polygon fill="#191970" stroke="#191970" points="1280.0633,-347.6352 1284.5876,-338.055 1275.0765,-342.7228 1280.0633,-347.6352"/>
</g>
<!-- Node8 -->
<g id="node9" class="node">
<title>Node8</title>
<polygon fill="none" stroke="#bfbfbf" points="1340.5,-319 1340.5,-338 1371.5,-338 1371.5,-319 1340.5,-319"/>
<text text-anchor="middle" x="1356" y="-326" font-family="Helvetica,sans-Serif" font-size="10.00" fill="#000000">ios</text>
</g>
<!-- Node4&#45;&gt;Node8 -->
<g id="edge8" class="edge">
<title>Node4&#45;&gt;Node8</title>
<path fill="none" stroke="#191970" d="M1259.9453,-380.4591C1280.486,-370.5605 1307.6102,-357.0625 1331,-344 1331.4124,-343.7697 1331.8277,-343.5358 1332.245,-343.2988"/>
<polygon fill="#191970" stroke="#191970" points="1334.2464,-346.1811 1341.062,-338.0694 1330.6755,-340.1604 1334.2464,-346.1811"/>
</g>
<!-- Node9 -->
<g id="node10" class="node">
<title>Node9</title>
<polygon fill="none" stroke="#bfbfbf" points="2434.5,-185 2434.5,-204 2483.5,-204 2483.5,-185 2434.5,-185"/>
<text text-anchor="middle" x="2459" y="-192" font-family="Helvetica,sans-Serif" font-size="10.00" fill="#000000">iosfwd</text>
</g>
<!-- Node4&#45;&gt;Node9 -->
<g id="edge9" class="edge">
<title>Node4&#45;&gt;Node9</title>
<path fill="none" stroke="#191970" d="M1304.3181,-391.2372C1496.539,-378.8931 2014.6152,-335.6205 2426,-210 2427.8615,-209.4316 2429.752,-208.7761 2431.6375,-208.0626"/>
<polygon fill="#191970" stroke="#191970" points="2433.029,-211.2743 2440.8682,-204.1471 2430.2954,-204.8301 2433.029,-211.2743"/>
</g>
<!-- Node10 -->
<g id="node11" class="node">
<title>Node10</title>
<g id="a_node11"><a xlink:href="../../d4/d20/DetMatrixCache_8h.html" target="_top" xlink:title="DetectorsCommonDataFormats\l/DetMatrixCache.h">
<polygon fill="none" stroke="#000000" points="1076.5,-313.5 1076.5,-343.5 1247.5,-343.5 1247.5,-313.5 1076.5,-313.5"/>
<text text-anchor="start" x="1084.5" y="-331.5" font-family="Helvetica,sans-Serif" font-size="10.00" fill="#000000">DetectorsCommonDataFormats</text>
<text text-anchor="middle" x="1162" y="-320.5" font-family="Helvetica,sans-Serif" font-size="10.00" fill="#000000">/DetMatrixCache.h</text>
</a>
</g>
</g>
<!-- Node4&#45;&gt;Node10 -->
<g id="edge10" class="edge">
<title>Node4&#45;&gt;Node10</title>
<path fill="none" stroke="#191970" d="M1213.0236,-380.2967C1204.5007,-371.6446 1193.664,-360.6438 1184.1717,-351.0076"/>
<polygon fill="#191970" stroke="#191970" points="1186.4283,-348.311 1176.9172,-343.6432 1181.4415,-353.2234 1186.4283,-348.311"/>
</g>
<!-- Node39 -->
<g id="node40" class="node">
<title>Node39</title>
<g id="a_node40"><a xlink:href="../../dd/d76/Cartesian3D_8h.html" target="_top" xlink:title="MathUtils/Cartesian3D.h">
<polygon fill="none" stroke="#000000" points="1637.5,-252 1637.5,-271 1772.5,-271 1772.5,-252 1637.5,-252"/>
<text text-anchor="middle" x="1705" y="-259" font-family="Helvetica,sans-Serif" font-size="10.00" fill="#000000">MathUtils/Cartesian3D.h</text>
</a>
</g>
</g>
<!-- Node4&#45;&gt;Node39 -->
<g id="edge61" class="edge">
<title>Node4&#45;&gt;Node39</title>
<path fill="none" stroke="#191970" d="M1281.7907,-380.389C1377.0614,-353.6253 1573.6505,-298.399 1661.2363,-273.7942"/>
<polygon fill="#191970" stroke="#191970" points="1662.4335,-277.0934 1671.1142,-271.0193 1660.5403,-270.3543 1662.4335,-277.0934"/>
</g>
<!-- Node11 -->
<g id="node12" class="node">
<title>Node11</title>
<g id="a_node12"><a xlink:href="../../df/d5b/GPUCommonLogger_8h.html" target="_top" xlink:title="GPUCommonLogger.h">
<polygon fill="none" stroke="#000000" points="271.5,-252 271.5,-271 394.5,-271 394.5,-252 271.5,-252"/>
<text text-anchor="middle" x="333" y="-259" font-family="Helvetica,sans-Serif" font-size="10.00" fill="#000000">GPUCommonLogger.h</text>
</a>
</g>
</g>
<!-- Node10&#45;&gt;Node11 -->
<g id="edge11" class="edge">
<title>Node10&#45;&gt;Node11</title>
<path fill="none" stroke="#191970" d="M1076.3457,-314.1542C1073.1939,-313.7442 1070.0708,-313.3575 1067,-313 825.1679,-284.8477 536.5901,-270.069 404.9078,-264.3547"/>
<polygon fill="#191970" stroke="#191970" points="404.6996,-260.8426 394.5586,-263.9103 404.3993,-267.8362 404.6996,-260.8426"/>
</g>
<!-- Node14 -->
<g id="node15" class="node">
<title>Node14</title>
<g id="a_node15"><a xlink:href="../../d2/d45/GPUCommonRtypes_8h.html" target="_top" xlink:title="GPUCommonRtypes.h">
<polygon fill="none" stroke="#000000" points="995.5,-252 995.5,-271 1120.5,-271 1120.5,-252 995.5,-252"/>
<text text-anchor="middle" x="1058" y="-259" font-family="Helvetica,sans-Serif" font-size="10.00" fill="#000000">GPUCommonRtypes.h</text>
</a>
</g>
</g>
<!-- Node10&#45;&gt;Node14 -->
<g id="edge14" class="edge">
<title>Node10&#45;&gt;Node14</title>
<path fill="none" stroke="#191970" d="M1138.6604,-313.4639C1121.6821,-302.526 1098.7758,-287.769 1081.7118,-276.7759"/>
<polygon fill="#191970" stroke="#191970" points="1083.2096,-273.5774 1072.9076,-271.1039 1079.4186,-279.462 1083.2096,-273.5774"/>
</g>
<!-- Node16 -->
<g id="node17" class="node">
<title>Node16</title>
<polygon fill="none" stroke="#bfbfbf" points="1186,-118 1186,-137 1228,-137 1228,-118 1186,-118"/>
<text text-anchor="middle" x="1207" y="-125" font-family="Helvetica,sans-Serif" font-size="10.00" fill="#000000">array</text>
</g>
<!-- Node10&#45;&gt;Node16 -->
<g id="edge16" class="edge">
<title>Node10&#45;&gt;Node16</title>
<path fill="none" stroke="#191970" d="M1174.1612,-313.236C1181.2406,-303.4638 1189.6112,-290.1835 1194,-277 1208.8197,-232.4825 1209.2221,-176.6128 1208.1577,-147.395"/>
<polygon fill="#191970" stroke="#191970" points="1211.6472,-147.084 1207.6867,-137.2573 1204.6547,-147.409 1211.6472,-147.084"/>
</g>
<!-- Node17 -->
<g id="node18" class="node">
<title>Node17</title>
<polygon fill="none" stroke="#bfbfbf" points="1138.5,-252 1138.5,-271 1185.5,-271 1185.5,-252 1138.5,-252"/>
<text text-anchor="middle" x="1162" y="-259" font-family="Helvetica,sans-Serif" font-size="10.00" fill="#000000">vector</text>
</g>
<!-- Node10&#45;&gt;Node17 -->
<g id="edge17" class="edge">
<title>Node10&#45;&gt;Node17</title>
<path fill="none" stroke="#191970" d="M1162,-313.2967C1162,-303.7699 1162,-291.3954 1162,-281.1306"/>
<polygon fill="#191970" stroke="#191970" points="1165.5001,-281.0549 1162,-271.055 1158.5001,-281.055 1165.5001,-281.0549"/>
</g>
<!-- Node18 -->
<g id="node19" class="node">
<title>Node18</title>
<g id="a_node19"><a xlink:href="../../d6/d31/DetID_8h.html" target="_top" xlink:title="DetectorsCommonDataFormats\l/DetID.h">
<polygon fill="none" stroke="#000000" points="706.5,-246.5 706.5,-276.5 877.5,-276.5 877.5,-246.5 706.5,-246.5"/>
<text text-anchor="start" x="714.5" y="-264.5" font-family="Helvetica,sans-Serif" font-size="10.00" fill="#000000">DetectorsCommonDataFormats</text>
<text text-anchor="middle" x="792" y="-253.5" font-family="Helvetica,sans-Serif" font-size="10.00" fill="#000000">/DetID.h</text>
</a>
</g>
</g>
<!-- Node10&#45;&gt;Node18 -->
<g id="edge18" class="edge">
<title>Node10&#45;&gt;Node18</title>
<path fill="none" stroke="#191970" d="M1078.9648,-313.4639C1021.4619,-303.0512 944.8456,-289.1775 885.2438,-278.3847"/>
<polygon fill="#191970" stroke="#191970" points="885.5412,-274.8817 875.0775,-276.5438 884.2938,-281.7697 885.5412,-274.8817"/>
</g>
<!-- Node10&#45;&gt;Node39 -->
<g id="edge49" class="edge">
<title>Node10&#45;&gt;Node39</title>
<path fill="none" stroke="#191970" d="M1247.6767,-314.33C1250.8222,-313.8706 1253.9379,-313.4256 1257,-313 1386.5474,-294.9958 1537.8016,-278.558 1627.2618,-269.3096"/>
<polygon fill="#191970" stroke="#191970" points="1627.7363,-272.7793 1637.3249,-268.2727 1627.0188,-265.8162 1627.7363,-272.7793"/>
</g>
<!-- Node12 -->
<g id="node13" class="node">
<title>Node12</title>
<polygon fill="none" stroke="#bfbfbf" points="303,-185 303,-204 363,-204 363,-185 303,-185"/>
<text text-anchor="middle" x="333" y="-192" font-family="Helvetica,sans-Serif" font-size="10.00" fill="#000000">iostream</text>
</g>
<!-- Node11&#45;&gt;Node12 -->
<g id="edge12" class="edge">
<title>Node11&#45;&gt;Node12</title>
<path fill="none" stroke="#191970" d="M333,-251.9005C333,-242.149 333,-226.7597 333,-214.3695"/>
<polygon fill="#191970" stroke="#191970" points="336.5001,-214.0816 333,-204.0817 329.5001,-214.0817 336.5001,-214.0816"/>
</g>
<!-- Node13 -->
<g id="node14" class="node">
<title>Node13</title>
<polygon fill="none" stroke="#bfbfbf" points="239,-185 239,-204 285,-204 285,-185 239,-185"/>
<text text-anchor="middle" x="262" y="-192" font-family="Helvetica,sans-Serif" font-size="10.00" fill="#000000">cstdio</text>
</g>
<!-- Node11&#45;&gt;Node13 -->
<g id="edge13" class="edge">
<title>Node11&#45;&gt;Node13</title>
<path fill="none" stroke="#191970" d="M322.8274,-251.9005C311.5447,-241.2535 293.1399,-223.8856 279.5258,-211.0385"/>
<polygon fill="#191970" stroke="#191970" points="281.8288,-208.3994 272.1537,-204.0817 277.0246,-213.4905 281.8288,-208.3994"/>
</g>
<!-- Node15 -->
<g id="node16" class="node">
<title>Node15</title>
<polygon fill="none" stroke="#bfbfbf" points="1036.5,-185 1036.5,-204 1095.5,-204 1095.5,-185 1036.5,-185"/>
<text text-anchor="middle" x="1066" y="-192" font-family="Helvetica,sans-Serif" font-size="10.00" fill="#000000">Rtypes.h</text>
</g>
<!-- Node14&#45;&gt;Node15 -->
<g id="edge15" class="edge">
<title>Node14&#45;&gt;Node15</title>
<path fill="none" stroke="#191970" d="M1059.1462,-251.9005C1060.3106,-242.149 1062.1481,-226.7597 1063.6275,-214.3695"/>
<polygon fill="#191970" stroke="#191970" points="1067.1455,-214.4261 1064.8559,-204.0817 1060.1949,-213.5961 1067.1455,-214.4261"/>
</g>
<!-- Node18&#45;&gt;Node6 -->
<g id="edge21" class="edge">
<title>Node18&#45;&gt;Node6</title>
<path fill="none" stroke="#191970" d="M846.5963,-246.4007C879.7036,-236.8409 922.6304,-223.7262 960,-210 961.8204,-209.3313 963.6817,-208.6195 965.5522,-207.8823"/>
<polygon fill="#191970" stroke="#191970" points="966.9151,-211.1062 974.8346,-204.0683 964.2547,-204.6315 966.9151,-211.1062"/>
</g>
<!-- Node18&#45;&gt;Node15 -->
<g id="edge19" class="edge">
<title>Node18&#45;&gt;Node15</title>
<path fill="none" stroke="#191970" d="M876.329,-246.4709C921.4792,-237.5621 977.7764,-225.0659 1027,-210 1029.2926,-209.2983 1031.6401,-208.5209 1033.9907,-207.6989"/>
<polygon fill="#191970" stroke="#191970" points="1035.3848,-210.9147 1043.537,-204.1477 1032.9442,-204.3539 1035.3848,-210.9147"/>
</g>
<!-- Node18&#45;&gt;Node16 -->
<g id="edge20" class="edge">
<title>Node18&#45;&gt;Node16</title>
<path fill="none" stroke="#191970" d="M842.7891,-246.4267C868.8677,-237.6349 900.6168,-225.2594 927,-210 945.8674,-199.0875 945.2367,-188.1909 965,-179 1043.3279,-142.5739 1072.1062,-163.5901 1156,-143 1162.4877,-141.4077 1169.3718,-139.481 1175.9129,-137.535"/>
<polygon fill="#191970" stroke="#191970" points="1177.2661,-140.7811 1185.8031,-134.5064 1175.2165,-134.0878 1177.2661,-140.7811"/>
</g>
<!-- Node19 -->
<g id="node20" class="node">
<title>Node19</title>
<polygon fill="none" stroke="#bfbfbf" points="564,-118 564,-137 616,-137 616,-118 564,-118"/>
<text text-anchor="middle" x="590" y="-125" font-family="Helvetica,sans-Serif" font-size="10.00" fill="#000000">cassert</text>
</g>
<!-- Node18&#45;&gt;Node19 -->
<g id="edge22" class="edge">
<title>Node18&#45;&gt;Node19</title>
<path fill="none" stroke="#191970" d="M706.2628,-253.9816C646.7414,-246.7791 574.8725,-233.435 556,-210 540.3017,-190.5066 557.9598,-162.7588 573.1242,-144.9395"/>
<polygon fill="#191970" stroke="#191970" points="576.1205,-146.8424 580.2111,-137.069 570.9186,-142.1583 576.1205,-146.8424"/>
</g>
<!-- Node20 -->
<g id="node21" class="node">
<title>Node20</title>
<polygon fill="none" stroke="#bfbfbf" points="634,-118 634,-137 684,-137 684,-118 634,-118"/>
<text text-anchor="middle" x="659" y="-125" font-family="Helvetica,sans-Serif" font-size="10.00" fill="#000000">cstdint</text>
</g>
<!-- Node18&#45;&gt;Node20 -->
<g id="edge23" class="edge">
<title>Node18&#45;&gt;Node20</title>
<path fill="none" stroke="#191970" d="M783.5648,-246.2887C773.3564,-228.7498 754.9132,-199.6837 734,-179 719.4919,-164.6512 700.527,-151.6693 685.2981,-142.3288"/>
<polygon fill="#191970" stroke="#191970" points="686.7531,-139.1213 676.3719,-137.0039 683.1668,-145.1329 686.7531,-139.1213"/>
</g>
<!-- Node21 -->
<g id="node22" class="node">
<title>Node21</title>
<polygon fill="none" stroke="#bfbfbf" points="565.5,-185 565.5,-204 638.5,-204 638.5,-185 565.5,-185"/>
<text text-anchor="middle" x="602" y="-192" font-family="Helvetica,sans-Serif" font-size="10.00" fill="#000000">string_view</text>
</g>
<!-- Node18&#45;&gt;Node21 -->
<g id="edge24" class="edge">
<title>Node18&#45;&gt;Node21</title>
<path fill="none" stroke="#191970" d="M749.3603,-246.4639C716.0896,-234.7316 670.3585,-218.6054 638.7044,-207.4431"/>
<polygon fill="#191970" stroke="#191970" points="639.5501,-204.0302 628.9553,-204.0053 637.2221,-210.6317 639.5501,-204.0302"/>
</g>
<!-- Node22 -->
<g id="node23" class="node">
<title>Node22</title>
<polygon fill="none" stroke="#bfbfbf" points="702,-118 702,-137 746,-137 746,-118 702,-118"/>
<text text-anchor="middle" x="724" y="-125" font-family="Helvetica,sans-Serif" font-size="10.00" fill="#000000">string</text>
</g>
<!-- Node18&#45;&gt;Node22 -->
<g id="edge25" class="edge">
<title>Node18&#45;&gt;Node22</title>
<path fill="none" stroke="#191970" d="M789.6059,-246.4672C786.4421,-229.3494 779.8348,-200.92 768,-179 761.1036,-166.2268 750.628,-153.7979 741.6282,-144.3511"/>
<polygon fill="#191970" stroke="#191970" points="744.0484,-141.8209 734.5264,-137.1751 739.0729,-146.7448 744.0484,-141.8209"/>
</g>
<!-- Node23 -->
<g id="node24" class="node">
<title>Node23</title>
<polygon fill="none" stroke="#bfbfbf" points="656.5,-185 656.5,-204 725.5,-204 725.5,-185 656.5,-185"/>
<text text-anchor="middle" x="691" y="-192" font-family="Helvetica,sans-Serif" font-size="10.00" fill="#000000">type_traits</text>
</g>
<!-- Node18&#45;&gt;Node23 -->
<g id="edge26" class="edge">
<title>Node18&#45;&gt;Node23</title>
<path fill="none" stroke="#191970" d="M769.3336,-246.4639C752.8451,-235.526 730.5996,-220.769 714.0278,-209.7759"/>
<polygon fill="#191970" stroke="#191970" points="715.7455,-206.7153 705.4776,-204.1039 711.8759,-212.5485 715.7455,-206.7153"/>
</g>
<!-- Node24 -->
<g id="node25" class="node">
<title>Node24</title>
<g id="a_node25"><a xlink:href="../../d9/d52/Common_2MathUtils_2include_2MathUtils_2Utils_8h.html" target="_top" xlink:title="MathUtils/Utils.h">
<polygon fill="none" stroke="#000000" points="820,-185 820,-204 918,-204 918,-185 820,-185"/>
<text text-anchor="middle" x="869" y="-192" font-family="Helvetica,sans-Serif" font-size="10.00" fill="#000000">MathUtils/Utils.h</text>
</a>
</g>
</g>
<!-- Node18&#45;&gt;Node24 -->
<g id="edge27" class="edge">
<title>Node18&#45;&gt;Node24</title>
<path fill="none" stroke="#191970" d="M809.4725,-246.2967C821.7024,-235.6551 838.0159,-221.4602 850.4721,-210.6217"/>
<polygon fill="#191970" stroke="#191970" points="852.7724,-213.2596 858.0189,-204.055 848.1775,-207.9788 852.7724,-213.2596"/>
</g>
<!-- Node32 -->
<g id="node33" class="node">
<title>Node32</title>
<g id="a_node33"><a xlink:href="../../dc/dcd/DataHeader_8h.html" target="_top" xlink:title="Headers/DataHeader.h">
<polygon fill="none" stroke="#000000" points="381.5,-185 381.5,-204 508.5,-204 508.5,-185 381.5,-185"/>
<text text-anchor="middle" x="445" y="-192" font-family="Helvetica,sans-Serif" font-size="10.00" fill="#000000">Headers/DataHeader.h</text>
</a>
</g>
</g>
<!-- Node18&#45;&gt;Node32 -->
<g id="edge38" class="edge">
<title>Node18&#45;&gt;Node32</title>
<path fill="none" stroke="#191970" d="M712.8153,-246.491C659.2168,-236.2946 586.821,-222.4503 523,-210 516.4447,-208.7212 509.5816,-207.3722 502.7612,-206.0252"/>
<polygon fill="#191970" stroke="#191970" points="503.3291,-202.5698 492.8398,-204.0616 501.97,-209.4366 503.3291,-202.5698"/>
</g>
<!-- Node24&#45;&gt;Node16 -->
<g id="edge28" class="edge">
<title>Node24&#45;&gt;Node16</title>
<path fill="none" stroke="#191970" d="M905.185,-184.9907C913.9292,-182.8611 923.2705,-180.7248 932,-179 1037.8144,-158.0934 1068.4273,-173.1076 1172,-143 1174.1258,-142.382 1176.291,-141.6625 1178.4494,-140.8781"/>
<polygon fill="#191970" stroke="#191970" points="1179.7582,-144.1243 1187.7248,-137.1397 1177.1414,-137.6318 1179.7582,-144.1243"/>
</g>
<!-- Node25 -->
<g id="node26" class="node">
<title>Node25</title>
<polygon fill="none" stroke="#bfbfbf" points="1032.5,-56.5 1032.5,-75.5 1079.5,-75.5 1079.5,-56.5 1032.5,-56.5"/>
<text text-anchor="middle" x="1056" y="-63.5" font-family="Helvetica,sans-Serif" font-size="10.00" fill="#000000">cmath</text>
</g>
<!-- Node24&#45;&gt;Node25 -->
<g id="edge29" class="edge">
<title>Node24&#45;&gt;Node25</title>
<path fill="none" stroke="#191970" d="M905.8799,-184.9742C914.43,-182.8916 923.5116,-180.7801 932,-179 977.6964,-169.4169 1108.9461,-178.7318 1139,-143 1147.8685,-132.456 1145.9932,-123.8711 1139,-112 1128.226,-93.7108 1107.2725,-82.1793 1089.1153,-75.2359"/>
<polygon fill="#191970" stroke="#191970" points="1090.2666,-71.9308 1079.6718,-71.9243 1087.9501,-78.5364 1090.2666,-71.9308"/>
</g>
<!-- Node26 -->
<g id="node27" class="node">
<title>Node26</title>
<g id="a_node27"><a xlink:href="../../df/d21/GPUCommonDef_8h.html" target="_top" xlink:title="GPUCommonDef.h">
<polygon fill="none" stroke="#000000" points="763.5,-56.5 763.5,-75.5 870.5,-75.5 870.5,-56.5 763.5,-56.5"/>
<text text-anchor="middle" x="817" y="-63.5" font-family="Helvetica,sans-Serif" font-size="10.00" fill="#000000">GPUCommonDef.h</text>
</a>
</g>
</g>
<!-- Node24&#45;&gt;Node26 -->
<g id="edge30" class="edge">
<title>Node24&#45;&gt;Node26</title>
<path fill="none" stroke="#191970" d="M843.5179,-184.8529C825.8277,-176.6533 803.6039,-162.9948 793,-143 782.964,-124.0762 793.4924,-100.2734 803.5917,-84.1799"/>
<polygon fill="#191970" stroke="#191970" points="806.6296,-85.9354 809.3297,-75.6904 800.8301,-82.0155 806.6296,-85.9354"/>
</g>
<!-- Node29 -->
<g id="node30" class="node">
<title>Node29</title>
<g id="a_node30"><a xlink:href="../../d6/da2/GPUCommonMath_8h.html" target="_top" xlink:title="GPUCommonMath.h">
<polygon fill="none" stroke="#000000" points="802.5,-118 802.5,-137 917.5,-137 917.5,-118 802.5,-118"/>
<text text-anchor="middle" x="860" y="-125" font-family="Helvetica,sans-Serif" font-size="10.00" fill="#000000">GPUCommonMath.h</text>
</a>
</g>
</g>
<!-- Node24&#45;&gt;Node29 -->
<g id="edge33" class="edge">
<title>Node24&#45;&gt;Node29</title>
<path fill="none" stroke="#191970" d="M867.7105,-184.9005C866.4006,-175.149 864.3334,-159.7597 862.669,-147.3695"/>
<polygon fill="#191970" stroke="#191970" points="866.0873,-146.5266 861.2871,-137.0817 859.1497,-147.4586 866.0873,-146.5266"/>
</g>
<!-- Node31 -->
<g id="node32" class="node">
<title>Node31</title>
<g id="a_node32"><a xlink:href="../../d6/d84/MathConstants_8h.html" target="_top" xlink:title="useful math constants ">
<polygon fill="none" stroke="#000000" points="936,-118 936,-137 1130,-137 1130,-118 936,-118"/>
<text text-anchor="middle" x="1033" y="-125" font-family="Helvetica,sans-Serif" font-size="10.00" fill="#000000">CommonConstants/MathConstants.h</text>
</a>
</g>
</g>
<!-- Node24&#45;&gt;Node31 -->
<g id="edge37" class="edge">
<title>Node24&#45;&gt;Node31</title>
<path fill="none" stroke="#191970" d="M892.4972,-184.9005C920.7508,-173.3579 968.3392,-153.9163 1000.2017,-140.8993"/>
<polygon fill="#191970" stroke="#191970" points="1001.6128,-144.1037 1009.5464,-137.0817 998.9654,-137.6236 1001.6128,-144.1037"/>
</g>
<!-- Node27 -->
<g id="node28" class="node">
<title>Node27</title>
<g id="a_node28"><a xlink:href="../../d5/d93/GPUCommonDefSettings_8h.html" target="_top" xlink:title="GPUCommonDefSettings.h">
<polygon fill="none" stroke="#000000" points="666,-.5 666,-19.5 814,-19.5 814,-.5 666,-.5"/>
<text text-anchor="middle" x="740" y="-7.5" font-family="Helvetica,sans-Serif" font-size="10.00" fill="#000000">GPUCommonDefSettings.h</text>
</a>
</g>
</g>
<!-- Node26&#45;&gt;Node27 -->
<g id="edge31" class="edge">
<title>Node26&#45;&gt;Node27</title>
<path fill="none" stroke="#191970" d="M803.5876,-56.2455C791.9943,-47.814 775.0252,-35.4729 761.5322,-25.6598"/>
<polygon fill="#191970" stroke="#191970" points="763.4047,-22.6938 753.2587,-19.6427 759.2874,-28.355 763.4047,-22.6938"/>
</g>
<!-- Node28 -->
<g id="node29" class="node">
<title>Node28</title>
<g id="a_node29"><a xlink:href="../../da/d5a/GPUCommonDefAPI_8h.html" target="_top" xlink:title="GPUCommonDefAPI.h">
<polygon fill="none" stroke="#000000" points="832,-.5 832,-19.5 956,-19.5 956,-.5 832,-.5"/>
<text text-anchor="middle" x="894" y="-7.5" font-family="Helvetica,sans-Serif" font-size="10.00" fill="#000000">GPUCommonDefAPI.h</text>
</a>
</g>
</g>
<!-- Node26&#45;&gt;Node28 -->
<g id="edge32" class="edge">
<title>Node26&#45;&gt;Node28</title>
<path fill="none" stroke="#191970" d="M830.4124,-56.2455C842.0057,-47.814 858.9748,-35.4729 872.4678,-25.6598"/>
<polygon fill="#191970" stroke="#191970" points="874.7126,-28.355 880.7413,-19.6427 870.5953,-22.6938 874.7126,-28.355"/>
</g>
<!-- Node29&#45;&gt;Node25 -->
<g id="edge35" class="edge">
<title>Node29&#45;&gt;Node25</title>
<path fill="none" stroke="#191970" d="M890.625,-117.8906C926.4475,-106.6504 985.5489,-88.1058 1022.5465,-76.4969"/>
<polygon fill="#191970" stroke="#191970" points="1023.8644,-79.7517 1032.3578,-73.4183 1021.7686,-73.0728 1023.8644,-79.7517"/>
</g>
<!-- Node29&#45;&gt;Node26 -->
<g id="edge34" class="edge">
<title>Node29&#45;&gt;Node26</title>
<path fill="none" stroke="#191970" d="M853.2813,-117.8906C847.007,-108.917 837.4777,-95.2879 829.7596,-84.2491"/>
<polygon fill="#191970" stroke="#191970" points="832.4121,-81.9348 823.8135,-75.7449 826.6753,-85.9459 832.4121,-81.9348"/>
</g>
<!-- Node30 -->
<g id="node31" class="node">
<title>Node30</title>
<polygon fill="none" stroke="#bfbfbf" points="466,-56.5 466,-75.5 530,-75.5 530,-56.5 466,-56.5"/>
<text text-anchor="middle" x="498" y="-63.5" font-family="Helvetica,sans-Serif" font-size="10.00" fill="#000000">algorithm</text>
</g>
<!-- Node29&#45;&gt;Node30 -->
<g id="edge36" class="edge">
<title>Node29&#45;&gt;Node30</title>
<path fill="none" stroke="#191970" d="M803.8347,-117.9581C730.8824,-105.5643 605.1781,-84.2084 539.9722,-73.1306"/>
<polygon fill="#191970" stroke="#191970" points="540.4888,-69.6683 530.0438,-71.4439 539.3163,-76.5694 540.4888,-69.6683"/>
</g>
<!-- Node32&#45;&gt;Node19 -->
<g id="edge41" class="edge">
<title>Node32&#45;&gt;Node19</title>
<path fill="none" stroke="#191970" d="M465.775,-184.9005C490.4323,-173.5072 531.7451,-154.4178 559.9018,-141.4075"/>
<polygon fill="#191970" stroke="#191970" points="561.6539,-144.4535 569.2636,-137.0817 558.7177,-138.099 561.6539,-144.4535"/>
</g>
<!-- Node32&#45;&gt;Node20 -->
<g id="edge39" class="edge">
<title>Node32&#45;&gt;Node20</title>
<path fill="none" stroke="#191970" d="M484.8719,-184.9144C521.7136,-175.6305 577.729,-160.4269 625,-143 626.632,-142.3983 628.2951,-141.7527 629.965,-141.0788"/>
<polygon fill="#191970" stroke="#191970" points="631.6191,-144.1779 639.4316,-137.0215 628.8615,-137.7439 631.6191,-144.1779"/>
</g>
<!-- Node32&#45;&gt;Node22 -->
<g id="edge45" class="edge">
<title>Node32&#45;&gt;Node22</title>
<path fill="none" stroke="#191970" d="M508.6414,-185.9326C559.4738,-177.9899 632.0383,-164.1673 693,-143 694.6023,-142.4437 696.2275,-141.8219 697.8513,-141.1559"/>
<polygon fill="#191970" stroke="#191970" points="699.3147,-144.3354 706.9642,-137.0048 696.413,-137.9651 699.3147,-144.3354"/>
</g>
<!-- Node32&#45;&gt;Node30 -->
<g id="edge43" class="edge">
<title>Node32&#45;&gt;Node30</title>
<path fill="none" stroke="#191970" d="M399.5099,-184.9072C347.2814,-173.4369 267.6473,-154.3669 259,-143 250.6581,-132.0346 250.2265,-122.6232 259,-112 283.4819,-82.3567 393.9208,-71.6133 455.7448,-67.8786"/>
<polygon fill="#191970" stroke="#191970" points="456.1749,-71.3599 465.9604,-67.2985 455.778,-64.3712 456.1749,-71.3599"/>
</g>
<!-- Node33 -->
<g id="node34" class="node">
<title>Node33</title>
<polygon fill="none" stroke="#bfbfbf" points="268,-118 268,-137 326,-137 326,-118 268,-118"/>
<text text-anchor="middle" x="297" y="-125" font-family="Helvetica,sans-Serif" font-size="10.00" fill="#000000">memory</text>
</g>
<!-- Node32&#45;&gt;Node33 -->
<g id="edge40" class="edge">
<title>Node32&#45;&gt;Node33</title>
<path fill="none" stroke="#191970" d="M423.7952,-184.9005C398.5179,-173.4574 356.0916,-154.2509 327.3452,-141.2374"/>
<polygon fill="#191970" stroke="#191970" points="328.7189,-138.0173 318.1655,-137.0817 325.832,-144.3943 328.7189,-138.0173"/>
</g>
<!-- Node34 -->
<g id="node35" class="node">
<title>Node34</title>
<polygon fill="none" stroke="#bfbfbf" points="344,-118 344,-137 394,-137 394,-118 344,-118"/>
<text text-anchor="middle" x="369" y="-125" font-family="Helvetica,sans-Serif" font-size="10.00" fill="#000000">cstring</text>
</g>
<!-- Node32&#45;&gt;Node34 -->
<g id="edge42" class="edge">
<title>Node32&#45;&gt;Node34</title>
<path fill="none" stroke="#191970" d="M434.1111,-184.9005C422.0338,-174.2535 402.3329,-156.8856 387.76,-144.0385"/>
<polygon fill="#191970" stroke="#191970" points="389.6846,-141.0692 379.8687,-137.0817 385.0555,-146.3201 389.6846,-141.0692"/>
</g>
<!-- Node35 -->
<g id="node36" class="node">
<title>Node35</title>
<polygon fill="none" stroke="#bfbfbf" points="412.5,-118 412.5,-137 477.5,-137 477.5,-118 412.5,-118"/>
<text text-anchor="middle" x="445" y="-125" font-family="Helvetica,sans-Serif" font-size="10.00" fill="#000000">stdexcept</text>
</g>
<!-- Node32&#45;&gt;Node35 -->
<g id="edge44" class="edge">
<title>Node32&#45;&gt;Node35</title>
<path fill="none" stroke="#191970" d="M445,-184.9005C445,-175.149 445,-159.7597 445,-147.3695"/>
<polygon fill="#191970" stroke="#191970" points="448.5001,-147.0816 445,-137.0817 441.5001,-147.0817 448.5001,-147.0816"/>
</g>
<!-- Node36 -->
<g id="node37" class="node">
<title>Node36</title>
<polygon fill="none" stroke="#bfbfbf" points="496,-118 496,-137 546,-137 546,-118 496,-118"/>
<text text-anchor="middle" x="521" y="-125" font-family="Helvetica,sans-Serif" font-size="10.00" fill="#000000">climits</text>
</g>
<!-- Node32&#45;&gt;Node36 -->
<g id="edge46" class="edge">
<title>Node32&#45;&gt;Node36</title>
<path fill="none" stroke="#191970" d="M455.8889,-184.9005C467.9662,-174.2535 487.6671,-156.8856 502.24,-144.0385"/>
<polygon fill="#191970" stroke="#191970" points="504.9445,-146.3201 510.1313,-137.0817 500.3154,-141.0692 504.9445,-146.3201"/>
</g>
<!-- Node37 -->
<g id="node38" class="node">
<title>Node37</title>
<g id="a_node38"><a xlink:href="../../d7/df8/Types_8h.html" target="_top" xlink:title="MemoryResources/Types.h">
<polygon fill="none" stroke="#000000" points="0,-118 0,-137 146,-137 146,-118 0,-118"/>
<text text-anchor="middle" x="73" y="-125" font-family="Helvetica,sans-Serif" font-size="10.00" fill="#000000">MemoryResources/Types.h</text>
</a>
</g>
</g>
<!-- Node32&#45;&gt;Node37 -->
<g id="edge47" class="edge">
<title>Node32&#45;&gt;Node37</title>
<path fill="none" stroke="#191970" d="M401.8315,-184.9995C392.0398,-182.9378 381.6754,-180.8288 372,-179 275.9383,-160.8429 251.259,-160.0801 155,-143 147.66,-141.6976 139.958,-140.2926 132.3361,-138.8788"/>
<polygon fill="#191970" stroke="#191970" points="132.8721,-135.4185 122.3995,-137.0232 131.587,-142.2995 132.8721,-135.4185"/>
</g>
<!-- Node38 -->
<g id="node39" class="node">
<title>Node38</title>
<polygon fill="none" stroke="#bfbfbf" points="164.5,-118 164.5,-137 211.5,-137 211.5,-118 164.5,-118"/>
<text text-anchor="middle" x="188" y="-125" font-family="Helvetica,sans-Serif" font-size="10.00" fill="#000000">cerrno</text>
</g>
<!-- Node32&#45;&gt;Node38 -->
<g id="edge48" class="edge">
<title>Node32&#45;&gt;Node38</title>
<path fill="none" stroke="#191970" d="M400.5442,-184.9082C346.3699,-173.069 258.0907,-153.2487 226,-143 223.8493,-142.3131 221.6488,-141.5588 219.4438,-140.7643"/>
<polygon fill="#191970" stroke="#191970" points="220.4787,-137.4129 209.8882,-137.1078 217.977,-143.9506 220.4787,-137.4129"/>
</g>
<!-- Node39&#45;&gt;Node9 -->
<g id="edge57" class="edge">
<title>Node39&#45;&gt;Node9</title>
<path fill="none" stroke="#191970" d="M1772.7731,-259.8232C1927.6883,-255.4796 2303.7373,-241.8982 2426,-210 2427.9752,-209.4847 2429.9765,-208.8532 2431.9659,-208.143"/>
<polygon fill="#191970" stroke="#191970" points="2433.7559,-211.1887 2441.6385,-204.1096 2431.0618,-204.728 2433.7559,-211.1887"/>
</g>
<!-- Node39&#45;&gt;Node15 -->
<g id="edge55" class="edge">
<title>Node39&#45;&gt;Node15</title>
<path fill="none" stroke="#191970" d="M1637.2208,-254.3933C1504.0221,-240.4272 1211.8647,-209.7941 1105.6231,-198.6545"/>
<polygon fill="#191970" stroke="#191970" points="1105.9514,-195.1699 1095.6409,-197.6079 1105.2214,-202.1317 1105.9514,-195.1699"/>
</g>
<!-- Node40 -->
<g id="node41" class="node">
<title>Node40</title>
<polygon fill="none" stroke="#bfbfbf" points="1235,-179.5 1235,-209.5 1399,-209.5 1399,-179.5 1235,-179.5"/>
<text text-anchor="start" x="1243" y="-197.5" font-family="Helvetica,sans-Serif" font-size="10.00" fill="#000000">Math/GenVector/Displacement</text>
<text text-anchor="middle" x="1317" y="-186.5" font-family="Helvetica,sans-Serif" font-size="10.00" fill="#000000">Vector3D.h</text>
</g>
<!-- Node39&#45;&gt;Node40 -->
<g id="edge50" class="edge">
<title>Node39&#45;&gt;Node40</title>
<path fill="none" stroke="#191970" d="M1649.8211,-251.9717C1587.1495,-241.1495 1483.8881,-223.3183 1408.984,-210.3838"/>
<polygon fill="#191970" stroke="#191970" points="1409.5224,-206.9251 1399.0727,-208.6723 1408.3312,-213.823 1409.5224,-206.9251"/>
</g>
<!-- Node41 -->
<g id="node42" class="node">
<title>Node41</title>
<polygon fill="none" stroke="#bfbfbf" points="1417.5,-185 1417.5,-204 1606.5,-204 1606.5,-185 1417.5,-185"/>
<text text-anchor="middle" x="1512" y="-192" font-family="Helvetica,sans-Serif" font-size="10.00" fill="#000000">Math/GenVector/PositionVector3D.h</text>
</g>
<!-- Node39&#45;&gt;Node41 -->
<g id="edge51" class="edge">
<title>Node39&#45;&gt;Node41</title>
<path fill="none" stroke="#191970" d="M1677.3478,-251.9005C1643.6682,-240.2086 1586.6426,-220.4122 1549.1528,-207.3976"/>
<polygon fill="#191970" stroke="#191970" points="1550.1957,-204.0548 1539.6009,-204.0817 1547.9,-210.6677 1550.1957,-204.0548"/>
</g>
<!-- Node42 -->
<g id="node43" class="node">
<title>Node42</title>
<polygon fill="none" stroke="#bfbfbf" points="1625,-185 1625,-204 1785,-204 1785,-185 1625,-185"/>
<text text-anchor="middle" x="1705" y="-192" font-family="Helvetica,sans-Serif" font-size="10.00" fill="#000000">Math/GenVector/Rotation3D.h</text>
</g>
<!-- Node39&#45;&gt;Node42 -->
<g id="edge52" class="edge">
<title>Node39&#45;&gt;Node42</title>
<path fill="none" stroke="#191970" d="M1705,-251.9005C1705,-242.149 1705,-226.7597 1705,-214.3695"/>
<polygon fill="#191970" stroke="#191970" points="1708.5001,-214.0816 1705,-204.0817 1701.5001,-214.0817 1708.5001,-214.0816"/>
</g>
<!-- Node43 -->
<g id="node44" class="node">
<title>Node43</title>
<polygon fill="none" stroke="#bfbfbf" points="1803,-185 1803,-204 1971,-204 1971,-185 1803,-185"/>
<text text-anchor="middle" x="1887" y="-192" font-family="Helvetica,sans-Serif" font-size="10.00" fill="#000000">Math/GenVector/Transform3D.h</text>
</g>
<!-- Node39&#45;&gt;Node43 -->
<g id="edge53" class="edge">
<title>Node39&#45;&gt;Node43</title>
<path fill="none" stroke="#191970" d="M1731.0762,-251.9005C1762.7011,-240.2584 1816.1544,-220.5805 1851.5124,-207.5641"/>
<polygon fill="#191970" stroke="#191970" points="1852.797,-210.8209 1860.9722,-204.0817 1850.3787,-204.2519 1852.797,-210.8209"/>
</g>
<!-- Node44 -->
<g id="node45" class="node">
<title>Node44</title>
<polygon fill="none" stroke="#bfbfbf" points="1989.5,-185 1989.5,-204 2162.5,-204 2162.5,-185 1989.5,-185"/>
<text text-anchor="middle" x="2076" y="-192" font-family="Helvetica,sans-Serif" font-size="10.00" fill="#000000">Math/GenVector/Translation3D.h</text>
</g>
<!-- Node39&#45;&gt;Node44 -->
<g id="edge54" class="edge">
<title>Node39&#45;&gt;Node44</title>
<path fill="none" stroke="#191970" d="M1757.7613,-251.9717C1824.974,-239.8335 1941.011,-218.8781 2012.8529,-205.9039"/>
<polygon fill="#191970" stroke="#191970" points="2013.902,-209.2712 2023.1207,-204.0496 2012.6579,-202.3826 2013.902,-209.2712"/>
</g>
<!-- Node45 -->
<g id="node46" class="node">
<title>Node45</title>
<polygon fill="none" stroke="#bfbfbf" points="2181,-185 2181,-204 2263,-204 2263,-185 2181,-185"/>
<text text-anchor="middle" x="2222" y="-192" font-family="Helvetica,sans-Serif" font-size="10.00" fill="#000000">TGeoMatrix.h</text>
</g>
<!-- Node39&#45;&gt;Node45 -->
<g id="edge56" class="edge">
<title>Node39&#45;&gt;Node45</title>
<path fill="none" stroke="#191970" d="M1772.5266,-258.1027C1863.9049,-252.5881 2031.6526,-239.2134 2172,-210 2176.154,-209.1353 2180.4558,-208.0705 2184.7134,-206.9074"/>
<polygon fill="#191970" stroke="#191970" points="2185.8554,-210.2202 2194.4771,-204.0626 2183.8972,-203.4997 2185.8554,-210.2202"/>
</g>
<!-- Node46 -->
<g id="node47" class="node">
<title>Node46</title>
<g id="a_node47"><a xlink:href="../../d2/dd0/Cartesian2D_8h.html" target="_top" xlink:title="MathUtils/Cartesian2D.h">
<polygon fill="none" stroke="#000000" points="2281.5,-185 2281.5,-204 2416.5,-204 2416.5,-185 2281.5,-185"/>
<text text-anchor="middle" x="2349" y="-192" font-family="Helvetica,sans-Serif" font-size="10.00" fill="#000000">MathUtils/Cartesian2D.h</text>
</a>
</g>
</g>
<!-- Node39&#45;&gt;Node46 -->
<g id="edge58" class="edge">
<title>Node39&#45;&gt;Node46</title>
<path fill="none" stroke="#191970" d="M1772.9195,-257.7106C1879.598,-251.224 2092.7614,-236.1023 2272,-210 2279.7801,-208.867 2287.9614,-207.4581 2295.9687,-205.9551"/>
<polygon fill="#191970" stroke="#191970" points="2296.824,-209.3545 2305.9748,-204.0146 2295.4913,-202.4826 2296.824,-209.3545"/>
</g>
<!-- Node47 -->
<g id="node48" class="node">
<title>Node47</title>
<polygon fill="none" stroke="#bfbfbf" points="2169,-112.5 2169,-142.5 2333,-142.5 2333,-112.5 2169,-112.5"/>
<text text-anchor="start" x="2177" y="-130.5" font-family="Helvetica,sans-Serif" font-size="10.00" fill="#000000">Math/GenVector/Displacement</text>
<text text-anchor="middle" x="2251" y="-119.5" font-family="Helvetica,sans-Serif" font-size="10.00" fill="#000000">Vector2D.h</text>
</g>
<!-- Node46&#45;&gt;Node47 -->
<g id="edge59" class="edge">
<title>Node46&#45;&gt;Node47</title>
<path fill="none" stroke="#191970" d="M2334.959,-184.9005C2321.0412,-175.3853 2299.272,-160.5023 2281.388,-148.2755"/>
<polygon fill="#191970" stroke="#191970" points="2283.2026,-145.2763 2272.9721,-142.5218 2279.2519,-151.0549 2283.2026,-145.2763"/>
</g>
<!-- Node48 -->
<g id="node49" class="node">
<title>Node48</title>
<polygon fill="none" stroke="#bfbfbf" points="2351.5,-118 2351.5,-137 2540.5,-137 2540.5,-118 2351.5,-118"/>
<text text-anchor="middle" x="2446" y="-125" font-family="Helvetica,sans-Serif" font-size="10.00" fill="#000000">Math/GenVector/PositionVector2D.h</text>
</g>
<!-- Node46&#45;&gt;Node48 -->
<g id="edge60" class="edge">
<title>Node46&#45;&gt;Node48</title>
<path fill="none" stroke="#191970" d="M2362.8977,-184.9005C2378.8164,-173.9052 2405.1121,-155.7422 2423.8599,-142.7927"/>
<polygon fill="#191970" stroke="#191970" points="2425.8892,-145.6448 2432.128,-137.0817 2421.9108,-139.8852 2425.8892,-145.6448"/>
</g>
<!-- Node49&#45;&gt;Node15 -->
<g id="edge63" class="edge">
<title>Node49&#45;&gt;Node15</title>
<path fill="none" stroke="#191970" d="M1020.4963,-385.8288C1008.8655,-376.5928 992.8962,-361.5136 986,-344 970.042,-303.4731 965.1408,-284.2358 986,-246 991.7967,-235.3744 1017.175,-220.0365 1037.815,-208.864"/>
<polygon fill="#191970" stroke="#191970" points="1039.6843,-211.8344 1046.8775,-204.0556 1036.4034,-205.6508 1039.6843,-211.8344"/>
</g>
</g>
</svg>
